<?xml version="1.0" encoding="UTF-8"?>
<svg xmlns="http://www.w3.org/2000/svg" xmlns:xlink="http://www.w3.org/1999/xlink"
     width="11.010000" height="5.010000" viewBox="0 0 11.010000 5.010000">
<defs>
<mask id="d0">
<rect x="-5.505000" y="-2.505000" width="22.020000" height="10.020000" fill="white" />
</mask>
<g id="d1">
<circle cx="0" cy="0" r="0.005" fill="#133d91ff" />
</g>
</defs>
<g mask="url(#d0)">
<g></g>
<use xlink:href="#d1" x="0.005000" y="5.005000" />
<path d="M0.00500000,5.01000000 L0.00500000,5.00000000 L5.00500000,5.00000000 L5.00500000,5.01000000 Z" fill="#133d91ff" />
<use xlink:href="#d1" x="5.005000" y="5.005000" />
<use xlink:href="#d1" x="5.005000" y="5.005000" />
<path d="M5.01000000,5.00500000 L5.00000000,5.00500000 L5.00000000,0.00500000 L5.01000000,0.00500000 Z" fill="#133d91ff" />
<use xlink:href="#d1" x="5.005000" y="0.005000" />
<use xlink:href="#d1" x="5.005000" y="0.005000" />
<path d="M5.00500000,0.00000000 L5.00500000,0.01000000 L0.00500000,0.01000000 L0.00500000,0.00000000 Z" fill="#133d91ff" />
<use xlink:href="#d1" x="0.005000" y="0.005000" />
<use xlink:href="#d1" x="0.005000" y="0.005000" />
<path d="M0.00000000,0.00500000 L0.01000000,0.00500000 L0.01000000,5.00500000 L0.00000000,5.00500000 Z" fill="#133d91ff" />
<use xlink:href="#d1" x="0.005000" y="5.005000" />
<use xlink:href="#d1" x="6.005000" y="5.005000" />
<path d="M6.00500000,5.01000000 L6.00500000,5.00000000 L11.00500000,5.00000000 L11.00500000,5.01000000 Z" fill="#133d91ff" />
<use xlink:href="#d1" x="11.005000" y="5.005000" />
<use xlink:href="#d1" x="11.005000" y="5.005000" />
<path d="M11.01000000,5.00500000 L11.00000000,5.00500000 L11.00000000,0.00500000 L11.01000000,0.00500000 Z" fill="#133d91ff" />
<use xlink:href="#d1" x="11.005000" y="0.005000" />
<use xlink:href="#d1" x="11.005000" y="0.005000" />
<path d="M11.00500000,0.00000000 L11.00500000,0.01000000 L6.00500000,0.01000000 L6.00500000,0.00000000 Z" fill="#133d91ff" />
<use xlink:href="#d1" x="6.005000" y="0.005000" />
<use xlink:href="#d1" x="6.005000" y="0.005000" />
<path d="M6.00000000,0.00500000 L6.01000000,0.00500000 L6.01000000,5.00500000 L6.00000000,5.00500000 Z" fill="#133d91ff" />
<use xlink:href="#d1" x="6.005000" y="5.005000" />
</g>
</svg>