<?xml version="1.0" encoding="UTF-8"?>
<svg xmlns="http://www.w3.org/2000/svg" xmlns:xlink="http://www.w3.org/1999/xlink"
     width="11.010000" height="5.010000" viewBox="0 0 11.010000 5.010000">
<defs>
<mask id="d0">
<rect x="-5.505000" y="-2.505000" width="22.020000" height="10.020000" fill="white" />
</mask>
<g id="d1">
<circle cx="0" cy="0" r="0.005" fill="#133d91ff" />
</g>
</defs>
<g mask="url(#d0)">
<g></g>
<use xlink:href="#d1" x="0.005000" y="5.005000" />
<path d="M0.005000,5.010000 L0.005000,5.000000 L5.005000,5.000000 L5.005000,5.010000 Z" fill="#133d91ff" />
<use xlink:href="#d1" x="5.005000" y="5.005000" />
<use xlink:href="#d1" x="5.005000" y="5.005000" />
<path d="M5.010000,5.005000 L5.000000,5.005000 L5.000000,0.005000 L5.010000,0.005000 Z" fill="#133d91ff" />
<use xlink:href="#d1" x="5.005000" y="0.005000" />
<use xlink:href="#d1" x="5.005000" y="0.005000" />
<path d="M5.005000,0.000000 L5.005000,0.010000 L0.005000,0.010000 L0.005000,0.000000 Z" fill="#133d91ff" />
<use xlink:href="#d1" x="0.005000" y="0.005000" />
<use xlink:href="#d1" x="0.005000" y="0.005000" />
<path d="M0.000000,0.005000 L0.010000,0.005000 L0.010000,5.005000 L0.000000,5.005000 Z" fill="#133d91ff" />
<use xlink:href="#d1" x="0.005000" y="5.005000" />
<use xlink:href="#d1" x="6.005000" y="5.005000" />
<path d="M6.005000,5.010000 L6.005000,5.000000 L11.005000,5.000000 L11.005000,5.010000 Z" fill="#133d91ff" />
<use xlink:href="#d1" x="11.005000" y="5.005000" />
<use xlink:href="#d1" x="11.005000" y="5.005000" />
<path d="M11.010000,5.005000 L11.000000,5.005000 L11.000000,0.005000 L11.010000,0.005000 Z" fill="#133d91ff" />
<use xlink:href="#d1" x="11.005000" y="0.005000" />
<use xlink:href="#d1" x="11.005000" y="0.005000" />
<path d="M11.005000,0.000000 L11.005000,0.010000 L6.005000,0.010000 L6.005000,0.000000 Z" fill="#133d91ff" />
<use xlink:href="#d1" x="6.005000" y="0.005000" />
<use xlink:href="#d1" x="6.005000" y="0.005000" />
<path d="M6.000000,0.005000 L6.010000,0.005000 L6.010000,5.005000 L6.000000,5.005000 Z" fill="#133d91ff" />
<use xlink:href="#d1" x="6.005000" y="5.005000" />
</g>
</svg>