<?xml version="1.0" encoding="UTF-8"?>
<svg xmlns="http://www.w3.org/2000/svg" xmlns:xlink="http://www.w3.org/1999/xlink"
     width="20.8280" height="20.8280" viewBox="0 0 20.8280 20.8280">
<defs>
<mask id="d0">
<rect x="-10.4140" y="-10.4140" width="41.6560" height="41.6560" fill="white" />
</mask>
<g id="d1">
<circle cx="0" cy="0" r="0.127" fill="#133d91ff" />
</g>
</defs>
<g mask="url(#d0)">
<g></g>
<use xlink:href="#d1" x="10.4140" y="0.2540" />
<path d="M10.4140,0.1270 A10.2870,10.2870,0,0,1,20.7010,10.4140 L20.4470,10.4140 A10.0330,10.0330,0,0,0,10.4140,0.3810 Z" fill="#133d91ff" />
<use xlink:href="#d1" x="20.5740" y="10.4140" />
<use xlink:href="#d1" x="0.2540" y="10.4140" />
<path d="M0.1270,10.4140 A10.2870,10.2870,0,0,1,10.4140,0.1270 L10.4140,0.3810 A10.0330,10.0330,0,0,0,0.3810,10.4140 Z" fill="#133d91ff" />
<use xlink:href="#d1" x="10.4140" y="0.2540" />
<use xlink:href="#d1" x="10.4140" y="20.5740" />
<path d="M10.4140,20.7010 A10.2870,10.2870,0,0,1,0.1270,10.4140 L0.3810,10.4140 A10.0330,10.0330,0,0,0,10.4140,20.4470 Z" fill="#133d91ff" />
<use xlink:href="#d1" x="0.2540" y="10.4140" />
<use xlink:href="#d1" x="20.5740" y="10.4140" />
<path d="M20.7010,10.4140 A10.2870,10.2870,0,0,1,10.4140,20.7010 L10.4140,20.4470 A10.0330,10.0330,0,0,0,20.4470,10.4140 Z" fill="#133d91ff" />
<use xlink:href="#d1" x="10.4140" y="20.5740" />
<use xlink:href="#d1" x="0.2540" y="10.4140" />
<path d="M0.2540,10.5410 L0.2540,10.2870 L20.5740,10.2870 L20.5740,10.5410 Z" fill="#133d91ff" />
<use xlink:href="#d1" x="20.5740" y="10.4140" />
<use xlink:href="#d1" x="10.4140" y="20.5740" />
<path d="M10.5410,20.5740 L10.2870,20.5740 L10.2870,0.2540 L10.5410,0.2540 Z" fill="#133d91ff" />
<use xlink:href="#d1" x="10.4140" y="0.2540" />
</g>
</svg>