<?xml version="1.0" encoding="UTF-8"?>
<svg xmlns="http://www.w3.org/2000/svg" xmlns:xlink="http://www.w3.org/1999/xlink"
     width="20.8280" height="20.8280" viewBox="0 0 20.8280 20.8280">
<defs>
<mask id="d0">
<rect x="-10.4140" y="-10.4140" width="41.6560" height="41.6560" fill="white" />
</mask>
<g id="d1">
<circle cx="0" cy="0" r="0.127" fill="#133d91ff" />
</g>
</defs>
<g mask="url(#d0)">
<g></g>
<use xlink:href="#d1" x="10.4140" y="0.2540" />
<path d="M10.41400000,0.12700000 A10.28700000,10.28700000,0,0,1,20.70100000,10.41400000 L20.44700000,10.41400000 A10.03300000,10.03300000,0,0,0,10.41400000,0.38100000 Z" fill="#133d91ff" />
<use xlink:href="#d1" x="20.5740" y="10.4140" />
<use xlink:href="#d1" x="0.2540" y="10.4140" />
<path d="M0.12700000,10.41400000 A10.28700000,10.28700000,0,0,1,10.41400000,0.12700000 L10.41400000,0.38100000 A10.03300000,10.03300000,0,0,0,0.38100000,10.41400000 Z" fill="#133d91ff" />
<use xlink:href="#d1" x="10.4140" y="0.2540" />
<use xlink:href="#d1" x="10.4140" y="20.5740" />
<path d="M10.41400000,20.70100000 A10.28700000,10.28700000,0,0,1,0.12700000,10.41400000 L0.38100000,10.41400000 A10.03300000,10.03300000,0,0,0,10.41400000,20.44700000 Z" fill="#133d91ff" />
<use xlink:href="#d1" x="0.2540" y="10.4140" />
<use xlink:href="#d1" x="20.5740" y="10.4140" />
<path d="M20.70100000,10.41400000 A10.28700000,10.28700000,0,0,1,10.41400000,20.70100000 L10.41400000,20.44700000 A10.03300000,10.03300000,0,0,0,20.44700000,10.41400000 Z" fill="#133d91ff" />
<use xlink:href="#d1" x="10.4140" y="20.5740" />
<use xlink:href="#d1" x="0.2540" y="10.4140" />
<path d="M0.25400000,10.54100000 L0.25400000,10.28700000 L20.57400000,10.28700000 L20.57400000,10.54100000 Z" fill="#133d91ff" />
<use xlink:href="#d1" x="20.5740" y="10.4140" />
<use xlink:href="#d1" x="10.4140" y="20.5740" />
<path d="M10.54100000,20.57400000 L10.28700000,20.57400000 L10.28700000,0.25400000 L10.54100000,0.25400000 Z" fill="#133d91ff" />
<use xlink:href="#d1" x="10.4140" y="0.2540" />
</g>
</svg>