<?xml version="1.0" encoding="UTF-8"?>
<svg xmlns="http://www.w3.org/2000/svg" xmlns:xlink="http://www.w3.org/1999/xlink"
     width="38.000000" height="40.000000" viewBox="0 0 38.000000 40.000000">
<defs>
<mask id="d0">
<rect x="-19.000000" y="-20.000000" width="76.000000" height="80.000000" fill="white" />
</mask>
<mask id="d1">
<rect x="-19.000000" y="-20.000000" width="76.000000" height="80.000000" fill="white" />
</mask>
<g id="d2">
<circle cx="0" cy="0" r="0.15000" fill="#133d91ff" />
</g>
<g id="d3">
<circle cx="0" cy="0" r="0.15000" fill="#133d91ff" />
</g>
<g id="d4">
<circle cx="0" cy="0" r="0.15000" fill="#133d91ff" />
</g>
<g id="d5">
<circle cx="0" cy="0" r="0.15000" fill="#133d91ff" />
</g>
<g mask="url(#d1)" id="d6">
<g></g>
<path d="M-0.82500000,-0.15000000 L0.82500000,-0.15000000 L0.82500000,0.15000000 L-0.82500000,0.15000000 L-0.82500000,-0.15000000 L-0.82500000,-0.15000000 Z" fill="#155c82ff" />
<use xlink:href="#d2" x="-0.825000" y="-0.150000" />
<use xlink:href="#d3" x="0.825000" y="-0.150000" />
<use xlink:href="#d4" x="0.825000" y="0.150000" />
<use xlink:href="#d5" x="-0.825000" y="0.150000" />
<path d="M-0.82500000,-0.30000000 L-0.82500000,0.00000000 L0.82500000,0.00000000 L0.82500000,-0.30000000 Z" fill="#133d91ff" />
<path d="M0.97500000,-0.15000000 L0.67500000,-0.15000000 L0.67500000,0.15000000 L0.97500000,0.15000000 Z" fill="#133d91ff" />
<path d="M0.82500000,0.30000000 L0.82500000,0.00000000 L-0.82500000,0.00000000 L-0.82500000,0.30000000 Z" fill="#133d91ff" />
<path d="M-0.97500000,0.15000000 L-0.67500000,0.15000000 L-0.67500000,-0.15000000 L-0.97500000,-0.15000000 Z" fill="#133d91ff" />
</g>
<g id="d7">
<circle cx="0" cy="0" r="0.40000" fill="#133d91ff" />
</g>
<g id="d8">
<circle cx="0" cy="0" r="0.25000" fill="#133d91ff" />
</g>
<g id="d9">
<circle cx="0" cy="0" r="0.50000" fill="#133d91ff" />
</g>
</defs>
<g mask="url(#d0)">
<g></g>
<use xlink:href="#d6" x="8.025000" y="18.690000" />
<use xlink:href="#d6" x="8.025000" y="19.960000" />
<use xlink:href="#d6" x="8.025000" y="21.230000" />
<use xlink:href="#d6" x="8.025000" y="22.500000" />
<use xlink:href="#d6" x="8.025000" y="23.770000" />
<use xlink:href="#d6" x="8.025000" y="25.040000" />
<use xlink:href="#d6" x="8.025000" y="26.310000" />
<use xlink:href="#d6" x="12.975000" y="26.310000" />
<use xlink:href="#d6" x="12.975000" y="25.040000" />
<use xlink:href="#d6" x="12.975000" y="23.770000" />
<use xlink:href="#d6" x="12.975000" y="22.500000" />
<use xlink:href="#d6" x="12.975000" y="21.230000" />
<use xlink:href="#d6" x="12.975000" y="19.960000" />
<use xlink:href="#d6" x="12.975000" y="18.690000" />
<use xlink:href="#d7" x="20.500000" y="21.500000" />
<use xlink:href="#d8" x="17.690000" y="18.690000" />
<path d="M17.51322330,18.86677670 L17.86677670,18.51322330 L20.67677670,21.32322330 L20.32322330,21.67677670 Z" fill="#133d91ff" />
<use xlink:href="#d8" x="20.500000" y="21.500000" />
<use xlink:href="#d8" x="12.975000" y="18.690000" />
<path d="M12.97500000,18.94000000 L12.97500000,18.44000000 L17.69000000,18.44000000 L17.69000000,18.94000000 Z" fill="#133d91ff" />
<use xlink:href="#d8" x="17.690000" y="18.690000" />
<use xlink:href="#d9" x="34.500000" y="3.500000" />
<path d="M34.50000000,3.00000000 L34.50000000,4.00000000 L30.50000000,4.00000000 L30.50000000,3.00000000 Z" fill="#133d91ff" />
<use xlink:href="#d9" x="30.500000" y="3.500000" />
<use xlink:href="#d9" x="34.500000" y="13.500000" />
<path d="M35.00000000,13.50000000 L34.00000000,13.50000000 L34.00000000,8.50000000 L35.00000000,8.50000000 Z" fill="#133d91ff" />
<use xlink:href="#d9" x="34.500000" y="8.500000" />
<use xlink:href="#d9" x="34.500000" y="8.500000" />
<path d="M35.00000000,8.50000000 L34.00000000,8.50000000 L34.00000000,3.50000000 L35.00000000,3.50000000 Z" fill="#133d91ff" />
<use xlink:href="#d9" x="34.500000" y="3.500000" />
<use xlink:href="#d9" x="30.500000" y="13.500000" />
<path d="M30.50000000,14.00000000 L30.50000000,13.00000000 L34.50000000,13.00000000 L34.50000000,14.00000000 Z" fill="#133d91ff" />
<use xlink:href="#d9" x="34.500000" y="13.500000" />
<use xlink:href="#d9" x="30.500000" y="3.500000" />
<path d="M30.00000000,3.50000000 L31.00000000,3.50000000 L31.00000000,8.50000000 L30.00000000,8.50000000 Z" fill="#133d91ff" />
<use xlink:href="#d9" x="30.500000" y="8.500000" />
<use xlink:href="#d9" x="30.500000" y="8.500000" />
<path d="M30.00000000,8.50000000 L31.00000000,8.50000000 L31.00000000,13.50000000 L30.00000000,13.50000000 Z" fill="#133d91ff" />
<use xlink:href="#d9" x="30.500000" y="13.500000" />
<use xlink:href="#d9" x="23.500000" y="13.500000" />
<path d="M23.50000000,14.00000000 L23.50000000,13.00000000 L27.50000000,13.00000000 L27.50000000,14.00000000 Z" fill="#133d91ff" />
<use xlink:href="#d9" x="27.500000" y="13.500000" />
<use xlink:href="#d9" x="23.500000" y="3.500000" />
<path d="M23.00000000,3.50000000 L24.00000000,3.50000000 L24.00000000,8.50000000 L23.00000000,8.50000000 Z" fill="#133d91ff" />
<use xlink:href="#d9" x="23.500000" y="8.500000" />
<use xlink:href="#d9" x="23.500000" y="8.500000" />
<path d="M23.00000000,8.50000000 L24.00000000,8.50000000 L24.00000000,13.50000000 L23.00000000,13.50000000 Z" fill="#133d91ff" />
<use xlink:href="#d9" x="23.500000" y="13.500000" />
<use xlink:href="#d9" x="16.500000" y="13.500000" />
<path d="M16.50000000,14.00000000 L16.50000000,13.00000000 L20.50000000,13.00000000 L20.50000000,14.00000000 Z" fill="#133d91ff" />
<use xlink:href="#d9" x="20.500000" y="13.500000" />
<use xlink:href="#d9" x="16.500000" y="3.500000" />
<path d="M16.00000000,3.50000000 L17.00000000,3.50000000 L17.00000000,8.50000000 L16.00000000,8.50000000 Z" fill="#133d91ff" />
<use xlink:href="#d9" x="16.500000" y="8.500000" />
<use xlink:href="#d9" x="16.500000" y="8.500000" />
<path d="M16.00000000,8.50000000 L17.00000000,8.50000000 L17.00000000,13.50000000 L16.00000000,13.50000000 Z" fill="#133d91ff" />
<use xlink:href="#d9" x="16.500000" y="13.500000" />
<use xlink:href="#d9" x="9.500000" y="8.500000" />
<path d="M9.50000000,9.00000000 L9.50000000,8.00000000 L11.50000000,8.00000000 L11.50000000,9.00000000 Z" fill="#133d91ff" />
<use xlink:href="#d9" x="11.500000" y="8.500000" />
<use xlink:href="#d9" x="9.500000" y="3.500000" />
<path d="M9.00000000,3.50000000 L10.00000000,3.50000000 L10.00000000,8.50000000 L9.00000000,8.50000000 Z" fill="#133d91ff" />
<use xlink:href="#d9" x="9.500000" y="8.500000" />
<use xlink:href="#d9" x="9.500000" y="8.500000" />
<path d="M9.00000000,8.50000000 L10.00000000,8.50000000 L10.00000000,13.50000000 L9.00000000,13.50000000 Z" fill="#133d91ff" />
<use xlink:href="#d9" x="9.500000" y="13.500000" />
<use xlink:href="#d9" x="9.500000" y="3.500000" />
<path d="M9.50000000,4.00000000 L9.50000000,3.00000000 L13.50000000,3.00000000 L13.50000000,4.00000000 Z" fill="#133d91ff" />
<use xlink:href="#d9" x="13.500000" y="3.500000" />
<use xlink:href="#d9" x="9.500000" y="13.500000" />
<path d="M9.50000000,14.00000000 L9.50000000,13.00000000 L13.50000000,13.00000000 L13.50000000,14.00000000 Z" fill="#133d91ff" />
<use xlink:href="#d9" x="13.500000" y="13.500000" />
<use xlink:href="#d9" x="6.500000" y="3.500000" />
<path d="M6.00000000,3.50000000 L7.00000000,3.50000000 L7.00000000,13.50000000 L6.00000000,13.50000000 Z" fill="#133d91ff" />
<use xlink:href="#d9" x="6.500000" y="13.500000" />
<use xlink:href="#d9" x="1.500000" y="13.500000" />
<path d="M2.00000000,13.50000000 L1.00000000,13.50000000 L1.00000000,8.50000000 L2.00000000,8.50000000 Z" fill="#133d91ff" />
<use xlink:href="#d9" x="1.500000" y="8.500000" />
<use xlink:href="#d9" x="1.500000" y="8.500000" />
<path d="M2.00000000,8.50000000 L1.00000000,8.50000000 L1.00000000,3.50000000 L2.00000000,3.50000000 Z" fill="#133d91ff" />
<use xlink:href="#d9" x="1.500000" y="3.500000" />
<use xlink:href="#d9" x="6.500000" y="8.500000" />
<path d="M6.50000000,8.00000000 L6.50000000,9.00000000 L1.50000000,9.00000000 L1.50000000,8.00000000 Z" fill="#133d91ff" />
<use xlink:href="#d9" x="1.500000" y="8.500000" />
<path d="M37.44303900,0.51968500 L37.48879400,0.57248900 L37.50000000,0.62400000 L37.50000000,39.37600000 L37.48031500,39.44303900 L37.42751100,39.48879400 L37.37600000,39.50000000 L0.62400000,39.50000000 L0.55696100,39.48031500 L0.51120600,39.42751100 L0.50000000,39.37600000 L0.50000000,26.52570100 L6.54950000,26.52570100 L6.55240100,26.56256700 L6.55240200,26.56257300 L6.59825400,26.72039300 L6.59825500,26.72039600 L6.68191700,26.86186200 L6.68192300,26.86187000 L6.79812900,26.97807600 L6.79813300,26.97807900 L6.79813500,26.97808100 L6.93960200,27.06174400 L6.98122400,27.07383600 L7.09742600,27.10759700 L7.09742900,27.10759700 L7.09743100,27.10759800 L7.13430600,27.11050000 L7.13431400,27.11050000 L8.91568600,27.11050000 L8.91569400,27.11050000 L8.95256900,27.10759800 L8.95257100,27.10759700 L8.95257300,27.10759700 L8.99419100,27.09550500 L9.11039800,27.06174400 L9.25186500,26.97808100 L9.36808100,26.86186500 L9.45174400,26.72039800 L9.49759800,26.56256900 L9.50049900,26.52570100 L11.49950000,26.52570100 L11.50240100,26.56256700 L11.50240200,26.56257300 L11.54825400,26.72039300 L11.54825500,26.72039600 L11.63191700,26.86186200 L11.63192300,26.86187000 L11.74812900,26.97807600 L11.74813300,26.97807900 L11.74813500,26.97808100 L11.88960200,27.06174400 L11.93122400,27.07383600 L12.04742600,27.10759700 L12.04742900,27.10759700 L12.04743100,27.10759800 L12.08430600,27.11050000 L12.08431400,27.11050000 L13.86568600,27.11050000 L13.86569400,27.11050000 L13.90256900,27.10759800 L13.90257100,27.10759700 L13.90257300,27.10759700 L13.94419100,27.09550500 L14.06039800,27.06174400 L14.20186500,26.97808100 L14.31808100,26.86186500 L14.40174400,26.72039800 L14.44759800,26.56256900 L14.45050000,26.52569400 L14.45050000,26.09430600 L14.44759800,26.05743100 L14.40174400,25.89960200 L14.36138200,25.83135300 L14.31808400,25.75813900 L14.31330100,25.75197400 L14.31574500,25.75007700 L14.28914200,25.70135800 L14.29412600,25.63166600 L14.31493200,25.59929100 L14.31330100,25.59802600 L14.31807700,25.59186800 L14.31808100,25.59186500 L14.40174400,25.45039800 L14.44759800,25.29256900 L14.45050000,25.25569400 L14.45050000,24.82430600 L14.44759800,24.78743100 L14.40174400,24.62960200 L14.36138200,24.56135300 L14.31808400,24.48813900 L14.31330100,24.48197400 L14.31574500,24.48007700 L14.28914200,24.43135800 L14.29412600,24.36166600 L14.31493200,24.32929100 L14.31330100,24.32802600 L14.31807700,24.32186800 L14.31808100,24.32186500 L14.40174400,24.18039800 L14.44759800,24.02256900 L14.45050000,23.98569400 L14.45050000,23.55430600 L14.44759800,23.51743100 L14.40174400,23.35960200 L14.36138200,23.29135300 L14.31808400,23.21813900 L14.31330100,23.21197400 L14.31574500,23.21007700 L14.28914200,23.16135800 L14.29412600,23.09166600 L14.31493200,23.05929100 L14.31330100,23.05802600 L14.31807700,23.05186800 L14.31808100,23.05186500 L14.40174400,22.91039800 L14.44759800,22.75256900 L14.45050000,22.71569400 L14.45050000,22.28430600 L14.44759800,22.24743100 L14.40174400,22.08960200 L14.36138200,22.02135300 L14.31808400,21.94813900 L14.31330100,21.94197400 L14.31574500,21.94007700 L14.28914200,21.89135800 L14.29412600,21.82166600 L14.31493200,21.78929100 L14.31330100,21.78802600 L14.31807700,21.78186800 L14.31808100,21.78186500 L14.40174400,21.64039800 L14.44759800,21.48256900 L14.45050000,21.44569400 L14.45050000,21.01430600 L14.44759800,20.97743100 L14.44479500,20.96778400 L14.40392600,20.82711200 L14.40174400,20.81960200 L14.34038500,20.71584900 L14.31808400,20.67813900 L14.31330100,20.67197400 L14.31574500,20.67007700 L14.28914200,20.62135800 L14.29412600,20.55166600 L14.31493200,20.51929100 L14.31330100,20.51802600 L14.31807700,20.51186800 L14.31808100,20.51186500 L14.40174400,20.37039800 L14.44759800,20.21256900 L14.45050000,20.17569400 L14.45050000,19.74430600 L14.44759800,19.70743100 L14.44759700,19.70742600 L14.41612400,19.59909500 L14.41632300,19.52922500 L14.45426500,19.47055500 L14.51790400,19.44171200 L14.53520000,19.44050000 L17.32777000,19.44050000 L17.39480900,19.46018500 L17.41545100,19.47681900 L19.58722800,21.64859500 L19.61747800,21.69795800 L19.67281800,21.86827700 L19.67282100,21.86828400 L19.76746700,22.03221600 L19.89412800,22.17288700 L19.89412900,22.17288800 L20.04726500,22.28414800 L20.04727000,22.28415100 L20.22019200,22.36114200 L20.22019700,22.36114400 L20.40535400,22.40050000 L20.40535500,22.40050000 L20.59464400,22.40050000 L20.59464600,22.40050000 L20.77980300,22.36114400 L20.95273000,22.28415100 L21.10587100,22.17288800 L21.23253300,22.03221600 L21.32717900,21.86828400 L21.38567400,21.68825600 L21.40546000,21.50000000 L21.38567400,21.31174400 L21.32717900,21.13171600 L21.23253300,20.96778400 L21.10587100,20.82711200 L21.09553600,20.81960300 L20.95273400,20.71585100 L20.95272900,20.71584800 L20.77980700,20.63885700 L20.77980300,20.63885600 L20.71466900,20.62501100 L20.65318800,20.59181800 L20.65277000,20.59140200 L18.26572900,18.20436100 L18.25394900,18.19073000 L18.24648200,18.18070100 L18.23961200,18.17147200 L18.19988500,18.13813700 L18.19958700,18.13788600 L18.19561200,18.13424400 L18.19269000,18.13132200 L18.18977900,18.12841000 L18.16473600,18.10860900 L18.16333800,18.10747000 L18.10521400,18.05869800 L18.09918000,18.05472900 L18.09921200,18.05468000 L18.09285300,18.05062800 L18.09282200,18.05067900 L18.08668000,18.04689100 L18.08667800,18.04689000 L18.08667700,18.04688900 L18.01787200,18.01480400 L18.01625200,18.01401900 L17.97651200,17.99406100 L17.94843300,17.97996000 L17.94843100,17.97995900 L17.94843000,17.97995900 L17.94164500,17.97748900 L17.94166500,17.97743300 L17.93454900,17.97495900 L17.93453100,17.97501500 L17.92767400,17.97274300 L17.85332800,17.95739100 L17.85156900,17.95700100 L17.77771800,17.93949900 L17.77054700,17.93866100 L17.77055300,17.93860100 L17.76305500,17.93783500 L17.76305000,17.93789500 L17.75586000,17.93726500 L17.67996800,17.93947400 L17.67816500,17.93950000 L14.08232800,17.93950000 L14.04773300,17.93457600 L13.90257300,17.89240200 L13.90256700,17.89240100 L13.86570100,17.88950000 L13.86569400,17.88950000 L12.08430600,17.88950000 L12.08429800,17.88950000 L12.04743200,17.89240100 L12.04742600,17.89240200 L11.88960600,17.93825400 L11.88960300,17.93825500 L11.74813700,18.02191700 L11.74812900,18.02192300 L11.63192300,18.13812900 L11.63191700,18.13813700 L11.54825500,18.27960300 L11.54825400,18.27960600 L11.50240200,18.43742600 L11.50240100,18.43743200 L11.49950000,18.47429800 L11.49950000,18.90570100 L11.50240100,18.94256700 L11.50240200,18.94257300 L11.54825400,19.10039300 L11.54825500,19.10039600 L11.63191700,19.24186200 L11.63670200,19.24803100 L11.63425600,19.24992700 L11.66085700,19.29864200 L11.65587300,19.36833400 L11.63506900,19.40070300 L11.63670200,19.40196900 L11.63191700,19.40813700 L11.54825500,19.54960300 L11.54825400,19.54960600 L11.50240200,19.70742600 L11.50240100,19.70743200 L11.49950000,19.74429800 L11.49950000,20.17570100 L11.50240100,20.21256700 L11.50240200,20.21257300 L11.54825400,20.37039300 L11.54825500,20.37039600 L11.63191700,20.51186200 L11.63670200,20.51803100 L11.63425600,20.51992700 L11.66085700,20.56864200 L11.65587300,20.63833400 L11.63506900,20.67070300 L11.63670200,20.67196900 L11.63191700,20.67813700 L11.54825500,20.81960300 L11.54825400,20.81960600 L11.50240200,20.97742600 L11.50240100,20.97743200 L11.49950000,21.01429800 L11.49950000,21.44570100 L11.50240100,21.48256700 L11.50240200,21.48257300 L11.54825400,21.64039300 L11.54825500,21.64039600 L11.54825600,21.64039800 L11.57655900,21.68825600 L11.63191700,21.78186200 L11.63670200,21.78803100 L11.63425600,21.78992700 L11.66085700,21.83864200 L11.65587300,21.90833400 L11.63506900,21.94070300 L11.63670200,21.94196900 L11.63191700,21.94813700 L11.54825500,22.08960300 L11.54825400,22.08960600 L11.50240200,22.24742600 L11.50240100,22.24743200 L11.49950000,22.28429800 L11.49950000,22.71570100 L11.50240100,22.75256700 L11.50240200,22.75257300 L11.54825400,22.91039300 L11.54825500,22.91039600 L11.63191700,23.05186200 L11.63670200,23.05803100 L11.63425600,23.05992700 L11.66085700,23.10864200 L11.65587300,23.17833400 L11.63506900,23.21070300 L11.63670200,23.21196900 L11.63191700,23.21813700 L11.54825500,23.35960300 L11.54825400,23.35960600 L11.50240200,23.51742600 L11.50240100,23.51743200 L11.49950000,23.55429800 L11.49950000,23.98570100 L11.50240100,24.02256700 L11.50240200,24.02257300 L11.54825400,24.18039300 L11.54825500,24.18039600 L11.63191700,24.32186200 L11.63670200,24.32803100 L11.63425600,24.32992700 L11.66085700,24.37864200 L11.65587300,24.44833400 L11.63506900,24.48070300 L11.63670200,24.48196900 L11.63191700,24.48813700 L11.54825500,24.62960300 L11.54825400,24.62960600 L11.50240200,24.78742600 L11.50240100,24.78743200 L11.49950000,24.82429800 L11.49950000,25.25570100 L11.50240100,25.29256700 L11.50240200,25.29257300 L11.54825400,25.45039300 L11.54825500,25.45039600 L11.63191700,25.59186200 L11.63670200,25.59803100 L11.63425600,25.59992700 L11.66085700,25.64864200 L11.65587300,25.71833400 L11.63506900,25.75070300 L11.63670200,25.75196900 L11.63191700,25.75813700 L11.54825500,25.89960300 L11.54825400,25.89960600 L11.50240200,26.05742600 L11.50240100,26.05743200 L11.49950000,26.09429800 L11.49950000,26.52570100 L9.50049900,26.52570100 L9.50050000,26.52569400 L9.50050000,26.09430600 L9.49759800,26.05743100 L9.45174400,25.89960200 L9.41138200,25.83135300 L9.36808400,25.75813900 L9.36330100,25.75197400 L9.36574500,25.75007700 L9.33914200,25.70135800 L9.34412600,25.63166600 L9.36493200,25.59929100 L9.36330100,25.59802600 L9.36807700,25.59186800 L9.36808100,25.59186500 L9.45174400,25.45039800 L9.49759800,25.29256900 L9.50050000,25.25569400 L9.50050000,24.82430600 L9.49759800,24.78743100 L9.45174400,24.62960200 L9.41138200,24.56135300 L9.36808400,24.48813900 L9.36330100,24.48197400 L9.36574500,24.48007700 L9.33914200,24.43135800 L9.34412600,24.36166600 L9.36493200,24.32929100 L9.36330100,24.32802600 L9.36807700,24.32186800 L9.36808100,24.32186500 L9.45174400,24.18039800 L9.49759800,24.02256900 L9.50050000,23.98569400 L9.50050000,23.55430600 L9.49759800,23.51743100 L9.45174400,23.35960200 L9.41138200,23.29135300 L9.36808400,23.21813900 L9.36330100,23.21197400 L9.36574500,23.21007700 L9.33914200,23.16135800 L9.34412600,23.09166600 L9.36493200,23.05929100 L9.36330100,23.05802600 L9.36807700,23.05186800 L9.36808100,23.05186500 L9.45174400,22.91039800 L9.49759800,22.75256900 L9.50050000,22.71569400 L9.50050000,22.28430600 L9.49759800,22.24743100 L9.45174400,22.08960200 L9.41138200,22.02135300 L9.36808400,21.94813900 L9.36330100,21.94197400 L9.36574500,21.94007700 L9.33914200,21.89135800 L9.34412600,21.82166600 L9.36493200,21.78929100 L9.36330100,21.78802600 L9.36807700,21.78186800 L9.36808100,21.78186500 L9.45174400,21.64039800 L9.49759800,21.48256900 L9.50050000,21.44569400 L9.50050000,21.01430600 L9.49759800,20.97743100 L9.49479500,20.96778400 L9.45392600,20.82711200 L9.45174400,20.81960200 L9.39038500,20.71584900 L9.36808400,20.67813900 L9.36330100,20.67197400 L9.36574500,20.67007700 L9.33914200,20.62135800 L9.34412600,20.55166600 L9.36493200,20.51929100 L9.36330100,20.51802600 L9.36807700,20.51186800 L9.36808100,20.51186500 L9.45174400,20.37039800 L9.49759800,20.21256900 L9.50050000,20.17569400 L9.50050000,19.74430600 L9.49759800,19.70743100 L9.45174400,19.54960200 L9.39886300,19.46018500 L9.36808400,19.40813900 L9.36330100,19.40197400 L9.36574500,19.40007700 L9.33914200,19.35135800 L9.34412600,19.28166600 L9.36493200,19.24929100 L9.36330100,19.24802600 L9.36807700,19.24186800 L9.36808100,19.24186500 L9.45174400,19.10039800 L9.49759800,18.94256900 L9.50050000,18.90569400 L9.50050000,18.47430600 L9.49759800,18.43743100 L9.45174400,18.27960200 L9.36808100,18.13813500 L9.36807900,18.13813300 L9.36807600,18.13812900 L9.25187000,18.02192300 L9.25186200,18.02191700 L9.14275400,17.95739100 L9.11039800,17.93825600 L9.11039700,17.93825500 L9.11039600,17.93825500 L9.11039300,17.93825400 L8.95257300,17.89240200 L8.95256700,17.89240100 L8.91570100,17.88950000 L8.91569400,17.88950000 L7.13430600,17.88950000 L7.13429800,17.88950000 L7.09743200,17.89240100 L7.09742600,17.89240200 L6.93960600,17.93825400 L6.93960300,17.93825500 L6.79813700,18.02191700 L6.79812900,18.02192300 L6.68192300,18.13812900 L6.68191700,18.13813700 L6.59825500,18.27960300 L6.59825400,18.27960600 L6.55240200,18.43742600 L6.55240100,18.43743200 L6.54950000,18.47429800 L6.54950000,18.90570100 L6.55240100,18.94256700 L6.55240200,18.94257300 L6.59825400,19.10039300 L6.59825500,19.10039600 L6.68191700,19.24186200 L6.68670200,19.24803100 L6.68425600,19.24992700 L6.71085700,19.29864200 L6.70587300,19.36833400 L6.68506900,19.40070300 L6.68670200,19.40196900 L6.68191700,19.40813700 L6.59825500,19.54960300 L6.59825400,19.54960600 L6.55240200,19.70742600 L6.55240100,19.70743200 L6.54950000,19.74429800 L6.54950000,20.17570100 L6.55240100,20.21256700 L6.55240200,20.21257300 L6.59825400,20.37039300 L6.59825500,20.37039600 L6.68191700,20.51186200 L6.68670200,20.51803100 L6.68425600,20.51992700 L6.71085700,20.56864200 L6.70587300,20.63833400 L6.68506900,20.67070300 L6.68670200,20.67196900 L6.68191700,20.67813700 L6.59825500,20.81960300 L6.59825400,20.81960600 L6.55240200,20.97742600 L6.55240100,20.97743200 L6.54950000,21.01429800 L6.54950000,21.44570100 L6.55240100,21.48256700 L6.55240200,21.48257300 L6.59825400,21.64039300 L6.59825500,21.64039600 L6.59825600,21.64039800 L6.62655900,21.68825600 L6.68191700,21.78186200 L6.68670200,21.78803100 L6.68425600,21.78992700 L6.71085700,21.83864200 L6.70587300,21.90833400 L6.68506900,21.94070300 L6.68670200,21.94196900 L6.68191700,21.94813700 L6.59825500,22.08960300 L6.59825400,22.08960600 L6.55240200,22.24742600 L6.55240100,22.24743200 L6.54950000,22.28429800 L6.54950000,22.71570100 L6.55240100,22.75256700 L6.55240200,22.75257300 L6.59825400,22.91039300 L6.59825500,22.91039600 L6.68191700,23.05186200 L6.68670200,23.05803100 L6.68425600,23.05992700 L6.71085700,23.10864200 L6.70587300,23.17833400 L6.68506900,23.21070300 L6.68670200,23.21196900 L6.68191700,23.21813700 L6.59825500,23.35960300 L6.59825400,23.35960600 L6.55240200,23.51742600 L6.55240100,23.51743200 L6.54950000,23.55429800 L6.54950000,23.98570100 L6.55240100,24.02256700 L6.55240200,24.02257300 L6.59825400,24.18039300 L6.59825500,24.18039600 L6.68191700,24.32186200 L6.68670200,24.32803100 L6.68425600,24.32992700 L6.71085700,24.37864200 L6.70587300,24.44833400 L6.68506900,24.48070300 L6.68670200,24.48196900 L6.68191700,24.48813700 L6.59825500,24.62960300 L6.59825400,24.62960600 L6.55240200,24.78742600 L6.55240100,24.78743200 L6.54950000,24.82429800 L6.54950000,25.25570100 L6.55240100,25.29256700 L6.55240200,25.29257300 L6.59825400,25.45039300 L6.59825500,25.45039600 L6.68191700,25.59186200 L6.68670200,25.59803100 L6.68425600,25.59992700 L6.71085700,25.64864200 L6.70587300,25.71833400 L6.68506900,25.75070300 L6.68670200,25.75196900 L6.68191700,25.75813700 L6.59825500,25.89960300 L6.59825400,25.89960600 L6.55240200,26.05742600 L6.55240100,26.05743200 L6.54950000,26.09429800 L6.54950000,26.52570100 L0.50000000,26.52570100 L0.50000000,14.20593700 L0.51968500,14.13889800 L0.57248900,14.09314300 L0.64164700,14.08319900 L0.70520300,14.11222400 L0.71808600,14.12516700 L0.80713200,14.22889300 L0.80713400,14.22889500 L0.96803700,14.35344500 L0.96803800,14.35344500 L0.96804200,14.35344800 L1.15072900,14.44306000 L1.34771500,14.49406300 L1.55093600,14.50436900 L1.75207100,14.47355600 L1.94288700,14.40288600 L2.11557100,14.29525200 L2.26305300,14.15505900 L2.37929500,13.98804900 L2.45954000,13.80105800 L2.50050000,13.60174100 L2.50050000,9.62450000 L2.52018500,9.55746100 L2.57298900,9.51170600 L2.62450000,9.50050000 L5.37550000,9.50050000 L5.44253900,9.52018500 L5.48829400,9.57298900 L5.49950000,9.62450000 L5.49950000,13.55074300 L5.51492500,13.70243900 L5.57583700,13.89657900 L5.57584400,13.89659400 L5.67458900,14.07449900 L5.67459200,14.07450400 L5.80713200,14.22889300 L5.80713400,14.22889500 L5.96803700,14.35344500 L5.96803800,14.35344500 L5.96804200,14.35344800 L6.15072900,14.44306000 L6.34771500,14.49406300 L6.55093600,14.50436900 L6.75207100,14.47355600 L6.94288700,14.40288600 L7.11557100,14.29525200 L7.26305300,14.15505900 L7.37929500,13.98804900 L7.45954000,13.80105800 L7.50050000,13.60174100 L7.50050000,13.55094200 L8.49563100,13.55094200 L8.50695700,13.62487700 L8.50735400,13.62799100 L8.51492500,13.70243700 L8.51492600,13.70244000 L8.51974900,13.71781400 L8.52400300,13.73614700 L8.52644200,13.75206400 L8.52644300,13.75206800 L8.55242700,13.82223200 L8.55344100,13.82519800 L8.57584100,13.89658800 L8.57584200,13.89658900 L8.57584300,13.89659200 L8.58365700,13.91067000 L8.59151700,13.92777700 L8.59711100,13.94288100 L8.59711400,13.94288700 L8.63669400,14.00639000 L8.63828800,14.00909600 L8.67458900,14.07449900 L8.67459200,14.07450300 L8.67459300,14.07450400 L8.68507800,14.08671800 L8.69622200,14.10189400 L8.70474500,14.11556700 L8.70474500,14.11556800 L8.70474800,14.11557100 L8.75631500,14.16981900 L8.75839200,14.17211800 L8.77620300,14.19286500 L8.80713200,14.22889400 L8.80713300,14.22889500 L8.81986900,14.23875300 L8.83384400,14.25137900 L8.84494000,14.26305200 L8.90634000,14.30578900 L8.90887300,14.30764800 L8.93050200,14.32439000 L8.96804200,14.35344800 L8.98251500,14.36054700 L8.99872600,14.37009000 L9.01195100,14.37929500 L9.06692400,14.40288600 L9.08069600,14.40879600 L9.08354700,14.41010500 L9.09626700,14.41634500 L9.15072400,14.44305800 L9.15072600,14.44305800 L9.15072900,14.44306000 L9.16631600,14.44709500 L9.18412800,14.45318200 L9.19894200,14.45954000 L9.27226500,14.47460700 L9.27526000,14.47530200 L9.34771100,14.49406200 L9.34771500,14.49406300 L9.36380700,14.49487900 L9.38248000,14.49725700 L9.39141300,14.49909300 L9.39825800,14.50050000 L9.39825900,14.50050000 L9.47307100,14.50050000 L9.47621100,14.50058000 L9.50284200,14.50193000 L9.55093600,14.50436900 L9.56685600,14.50193000 L9.58563300,14.50050000 L13.55074300,14.50050000 L13.70243900,14.48507400 L13.89657900,14.42416200 L13.89658000,14.42416100 L13.89658800,14.42415900 L14.07450200,14.32540900 L14.22889500,14.19286600 L14.35344800,14.03195800 L14.44306000,13.84927100 L14.49406300,13.65228500 L14.49920200,13.55094200 L15.49563100,13.55094200 L15.50695700,13.62487700 L15.50735400,13.62799100 L15.51492500,13.70243700 L15.51492600,13.70244000 L15.51974900,13.71781400 L15.52400300,13.73614700 L15.52644200,13.75206400 L15.52644300,13.75206800 L15.55242700,13.82223200 L15.55344100,13.82519800 L15.57584100,13.89658800 L15.57584200,13.89658900 L15.57584300,13.89659200 L15.58365700,13.91067000 L15.59151700,13.92777700 L15.59711100,13.94288100 L15.59711400,13.94288700 L15.63669400,14.00639000 L15.63828800,14.00909600 L15.67458900,14.07449900 L15.67459200,14.07450300 L15.67459300,14.07450400 L15.68507800,14.08671800 L15.69622200,14.10189400 L15.70474500,14.11556700 L15.70474500,14.11556800 L15.70474800,14.11557100 L15.75631500,14.16981900 L15.75839200,14.17211800 L15.77620300,14.19286500 L15.80713200,14.22889400 L15.80713300,14.22889500 L15.81986900,14.23875300 L15.83384400,14.25137900 L15.84494000,14.26305200 L15.90634000,14.30578900 L15.90887300,14.30764800 L15.93050200,14.32439000 L15.96804200,14.35344800 L15.98251500,14.36054700 L15.99872600,14.37009000 L16.01195100,14.37929500 L16.06692400,14.40288600 L16.08069600,14.40879600 L16.08354700,14.41010500 L16.09626700,14.41634500 L16.15072400,14.44305800 L16.15072600,14.44305800 L16.15072900,14.44306000 L16.16631600,14.44709500 L16.18412800,14.45318200 L16.19894200,14.45954000 L16.27226500,14.47460700 L16.27526000,14.47530200 L16.34771100,14.49406200 L16.34771500,14.49406300 L16.36380700,14.49487900 L16.38248000,14.49725700 L16.39141300,14.49909300 L16.39825800,14.50050000 L16.39825900,14.50050000 L16.47307100,14.50050000 L16.47621100,14.50058000 L16.50284200,14.50193000 L16.55093600,14.50436900 L16.56685600,14.50193000 L16.58563300,14.50050000 L20.55074300,14.50050000 L20.70243900,14.48507400 L20.89657900,14.42416200 L20.89658000,14.42416100 L20.89658800,14.42415900 L21.07450200,14.32540900 L21.22889500,14.19286600 L21.35344800,14.03195800 L21.44306000,13.84927100 L21.49406300,13.65228500 L21.49920200,13.55094200 L22.49563100,13.55094200 L22.50695700,13.62487700 L22.50735400,13.62799100 L22.51492500,13.70243700 L22.51492600,13.70244000 L22.51974900,13.71781400 L22.52400300,13.73614700 L22.52644200,13.75206400 L22.52644300,13.75206800 L22.55242700,13.82223200 L22.55344100,13.82519800 L22.57584100,13.89658800 L22.57584200,13.89658900 L22.57584300,13.89659200 L22.58365700,13.91067000 L22.59151700,13.92777700 L22.59711100,13.94288100 L22.59711400,13.94288700 L22.63669400,14.00639000 L22.63828800,14.00909600 L22.67458900,14.07449900 L22.67459200,14.07450300 L22.67459300,14.07450400 L22.68507800,14.08671800 L22.69622200,14.10189400 L22.70474500,14.11556700 L22.70474500,14.11556800 L22.70474800,14.11557100 L22.75631500,14.16981900 L22.75839200,14.17211800 L22.77620300,14.19286500 L22.80713200,14.22889400 L22.80713300,14.22889500 L22.81986900,14.23875300 L22.83384400,14.25137900 L22.84494000,14.26305200 L22.90634000,14.30578900 L22.90887300,14.30764800 L22.93050200,14.32439000 L22.96804200,14.35344800 L22.98251500,14.36054700 L22.99872600,14.37009000 L23.01195100,14.37929500 L23.06692400,14.40288600 L23.08069600,14.40879600 L23.08354700,14.41010500 L23.09626700,14.41634500 L23.15072400,14.44305800 L23.15072600,14.44305800 L23.15072900,14.44306000 L23.16631600,14.44709500 L23.18412800,14.45318200 L23.19894200,14.45954000 L23.27226500,14.47460700 L23.27526000,14.47530200 L23.34771100,14.49406200 L23.34771500,14.49406300 L23.36380700,14.49487900 L23.38248000,14.49725700 L23.39141300,14.49909300 L23.39825800,14.50050000 L23.39825900,14.50050000 L23.47307100,14.50050000 L23.47621100,14.50058000 L23.50284200,14.50193000 L23.55093600,14.50436900 L23.56685600,14.50193000 L23.58563300,14.50050000 L27.55074300,14.50050000 L27.70243900,14.48507400 L27.89657900,14.42416200 L27.89658000,14.42416100 L27.89658800,14.42415900 L28.07450200,14.32540900 L28.22889500,14.19286600 L28.35344800,14.03195800 L28.44306000,13.84927100 L28.49406300,13.65228500 L28.49920200,13.55094200 L29.49563100,13.55094200 L29.50695700,13.62487700 L29.50735400,13.62799100 L29.51492500,13.70243700 L29.51492600,13.70244000 L29.51974900,13.71781400 L29.52400300,13.73614700 L29.52644200,13.75206400 L29.52644300,13.75206800 L29.55242700,13.82223200 L29.55344100,13.82519800 L29.57584100,13.89658800 L29.57584200,13.89658900 L29.57584300,13.89659200 L29.58365700,13.91067000 L29.59151700,13.92777700 L29.59711100,13.94288100 L29.59711400,13.94288700 L29.63669400,14.00639000 L29.63828800,14.00909600 L29.67458900,14.07449900 L29.67459200,14.07450300 L29.67459300,14.07450400 L29.68507800,14.08671800 L29.69622200,14.10189400 L29.70474500,14.11556700 L29.70474500,14.11556800 L29.70474800,14.11557100 L29.75631500,14.16981900 L29.75839200,14.17211800 L29.77620300,14.19286500 L29.80713200,14.22889400 L29.80713300,14.22889500 L29.81986900,14.23875300 L29.83384400,14.25137900 L29.84494000,14.26305200 L29.90634000,14.30578900 L29.90887300,14.30764800 L29.93050200,14.32439000 L29.96804200,14.35344800 L29.98251500,14.36054700 L29.99872600,14.37009000 L30.01195100,14.37929500 L30.06692400,14.40288600 L30.08069600,14.40879600 L30.08354700,14.41010500 L30.09626700,14.41634500 L30.15072400,14.44305800 L30.15072600,14.44305800 L30.15072900,14.44306000 L30.16631600,14.44709500 L30.18412800,14.45318200 L30.19894200,14.45954000 L30.27226500,14.47460700 L30.27526000,14.47530200 L30.34771100,14.49406200 L30.34771500,14.49406300 L30.36380700,14.49487900 L30.38248000,14.49725700 L30.39141300,14.49909300 L30.39825800,14.50050000 L30.39825900,14.50050000 L30.47307100,14.50050000 L30.47621100,14.50058000 L30.50284200,14.50193000 L30.55093600,14.50436900 L30.56685600,14.50193000 L30.58563300,14.50050000 L34.47307100,14.50050000 L34.47621100,14.50058000 L34.50284200,14.50193000 L34.55093600,14.50436900 L34.62489500,14.49303800 L34.62799200,14.49264300 L34.70243800,14.48507400 L34.71781100,14.48025000 L34.73614900,14.47599500 L34.74062000,14.47531000 L34.75207100,14.47355600 L34.82226600,14.44755800 L34.82515000,14.44657200 L34.89658800,14.42415900 L34.91067000,14.41634100 L34.92778200,14.40847900 L34.94288700,14.40288600 L35.00642100,14.36328300 L35.00904100,14.36174100 L35.07450200,14.32540900 L35.08672400,14.31491500 L35.10189800,14.30377300 L35.11557100,14.29525200 L35.16983500,14.24366800 L35.17209800,14.24162400 L35.22889500,14.19286600 L35.23875000,14.18013300 L35.25137400,14.16616100 L35.25581000,14.16194200 L35.26305300,14.15505900 L35.30581700,14.09361600 L35.30760000,14.09118600 L35.35344800,14.03195800 L35.36054900,14.01747900 L35.37009200,14.00126900 L35.37929500,13.98804900 L35.40882200,13.91924100 L35.41008500,13.91649300 L35.44306000,13.84927100 L35.44709800,13.83367200 L35.45319100,13.81585100 L35.45953800,13.80106200 L35.45954000,13.80105800 L35.47460700,13.72773000 L35.47529900,13.72474900 L35.49406300,13.65228500 L35.49487900,13.63619300 L35.49725800,13.61751600 L35.50050000,13.60174200 L35.50050000,13.52692800 L35.50058000,13.52378800 L35.50299200,13.47621000 L35.50436900,13.44906400 L35.50193000,13.43314200 L35.50050000,13.41436600 L35.50050000,3.52692800 L35.50058000,3.52378800 L35.50299200,3.47621000 L35.50436900,3.44906400 L35.49303900,3.37511300 L35.49264300,3.37199900 L35.48507400,3.29756300 L35.48507200,3.29755600 L35.48025100,3.28218900 L35.47599400,3.26384900 L35.47355600,3.24792900 L35.44755300,3.17772000 L35.44656500,3.17482500 L35.42415900,3.10341200 L35.41633900,3.08932400 L35.40848200,3.07222500 L35.40288600,3.05711300 L35.36329600,2.99359700 L35.36172500,2.99092900 L35.32540900,2.92549800 L35.31492100,2.91328100 L35.30377300,2.89810000 L35.30348900,2.89764500 L35.29525200,2.88442900 L35.24370100,2.83019700 L35.24160000,2.82787200 L35.19287300,2.77111200 L35.19286800,2.77110800 L35.19286600,2.77110500 L35.18012600,2.76124300 L35.16615500,2.74862000 L35.15506300,2.73695000 L35.09364700,2.69420200 L35.09111600,2.69234300 L35.03196100,2.64655300 L35.03195700,2.64655100 L35.01749600,2.63945800 L35.00127000,2.62990600 L34.98805100,2.62070600 L34.98804900,2.62070500 L34.91928600,2.59119600 L34.91646800,2.58990100 L34.84927100,2.55694000 L34.84926900,2.55693900 L34.83368000,2.55290300 L34.81586400,2.54681300 L34.80106100,2.54046100 L34.80105900,2.54046000 L34.80105800,2.54046000 L34.72776500,2.52539800 L34.72471600,2.52469000 L34.65228100,2.50593600 L34.63618900,2.50511900 L34.61752300,2.50274200 L34.60174300,2.49950000 L34.60174100,2.49950000 L34.52692900,2.49950000 L34.52378900,2.49942000 L34.44906400,2.49563100 L34.44906000,2.49563100 L34.43314300,2.49807000 L34.41436700,2.49950000 L30.52692900,2.49950000 L30.52378900,2.49942000 L30.44906500,2.49563100 L30.44905800,2.49563100 L30.37512400,2.50695700 L30.37201000,2.50735400 L30.29756600,2.51492500 L30.29755700,2.51492700 L30.28218700,2.51974900 L30.26385800,2.52400300 L30.24792900,2.52644400 L30.24792600,2.52644500 L30.17777300,2.55242500 L30.17480200,2.55344100 L30.10341200,2.57584000 L30.08932200,2.58366100 L30.07222000,2.59151800 L30.05711800,2.59711100 L30.05710800,2.59711600 L29.99362600,2.63668500 L29.99091900,2.63827800 L29.92550600,2.67458500 L29.92549900,2.67459000 L29.91327800,2.68508100 L29.89811400,2.69621600 L29.88443000,2.70474600 L29.88442700,2.70474900 L29.83020000,2.75629500 L29.82787000,2.75840000 L29.77110800,2.80712900 L29.77110200,2.80713600 L29.76124300,2.81987200 L29.74863100,2.83383200 L29.73694900,2.84493800 L29.73694800,2.84493900 L29.69421500,2.90633500 L29.69235600,2.90886500 L29.64655000,2.96804300 L29.63945200,2.98251300 L29.62990700,2.99872800 L29.62070600,3.01194800 L29.62070500,3.01194900 L29.59119900,3.08070400 L29.58988800,3.08355600 L29.55693900,3.15072900 L29.55693800,3.15073300 L29.55290100,3.16632400 L29.54681500,3.18412900 L29.54046100,3.19893700 L29.52539900,3.27222500 L29.52468900,3.27528500 L29.50593600,3.34771600 L29.50511900,3.36381100 L29.50274300,3.38247400 L29.49949900,3.39826100 L29.49949900,3.47307100 L29.49941900,3.47621000 L29.49563100,3.55093400 L29.49563100,3.55093600 L29.49807000,3.56685600 L29.49950000,3.58563300 L29.49950000,8.39825900 L29.49949900,13.47307100 L29.49941900,13.47621100 L29.49563100,13.55093300 L29.49563100,13.55094200 L28.49920200,13.55094200 L28.50436900,13.44906400 L28.47355600,13.24792900 L28.40288600,13.05711300 L28.29525200,12.88442900 L28.15505900,12.73694700 L28.05658700,12.66840900 L27.98805000,12.62070500 L27.80105600,12.54045900 L27.60174100,12.49950000 L24.62450000,12.49950000 L24.55746100,12.47981500 L24.51170600,12.42701100 L24.50050000,12.37550000 L24.50050000,3.44925600 L24.48507400,3.29756000 L24.42416200,3.10342000 L24.42416000,3.10341600 L24.42415900,3.10341200 L24.32540900,2.92549800 L24.32540800,2.92549700 L24.32540700,2.92549500 L24.19286700,2.77110600 L24.19286500,2.77110400 L24.03196200,2.64655400 L24.03195900,2.64655300 L24.03195800,2.64655200 L23.84927100,2.55694000 L23.65228500,2.50593700 L23.65228700,2.50593700 L23.49715800,2.49807000 L23.44906400,2.49563100 L23.44906300,2.49563100 L23.44906100,2.49563100 L23.24793600,2.52644200 L23.24792400,2.52644500 L23.05711800,2.59711100 L23.05711100,2.59711500 L22.88443200,2.70474500 L22.88442700,2.70474900 L22.73694900,2.84493800 L22.73694700,2.84494000 L22.73694700,2.84494100 L22.72577400,2.86099400 L22.62070500,3.01194900 L22.54045900,3.19894300 L22.49950000,3.39825800 L22.49950000,13.47307000 L22.49942000,13.47621000 L22.49563100,13.55093500 L22.49563100,13.55094200 L21.49920200,13.55094200 L21.50436900,13.44906400 L21.47355600,13.24792900 L21.40288600,13.05711300 L21.29525200,12.88442900 L21.15505900,12.73694700 L21.05658700,12.66840900 L20.98805000,12.62070500 L20.80105600,12.54045900 L20.60174100,12.49950000 L17.62450000,12.49950000 L17.55746100,12.47981500 L17.51170600,12.42701100 L17.50050000,12.37550000 L17.50050000,3.44925600 L17.48507400,3.29756000 L17.42416200,3.10342000 L17.42416000,3.10341600 L17.42415900,3.10341200 L17.32540900,2.92549800 L17.32540800,2.92549700 L17.32540700,2.92549500 L17.19286700,2.77110600 L17.19286500,2.77110400 L17.03196200,2.64655400 L17.03195900,2.64655300 L17.03195800,2.64655200 L16.84927100,2.55694000 L16.65228500,2.50593700 L16.65228700,2.50593700 L16.49715800,2.49807000 L16.44906400,2.49563100 L16.44906300,2.49563100 L16.44906100,2.49563100 L16.24793600,2.52644200 L16.24792400,2.52644500 L16.05711800,2.59711100 L16.05711100,2.59711500 L15.88443200,2.70474500 L15.88442700,2.70474900 L15.73694900,2.84493800 L15.73694700,2.84494000 L15.73694700,2.84494100 L15.72577400,2.86099400 L15.62070500,3.01194900 L15.54045900,3.19894300 L15.49950000,3.39825800 L15.49950000,13.47307000 L15.49942000,13.47621000 L15.49563100,13.55093500 L15.49563100,13.55094200 L14.49920200,13.55094200 L14.50436900,13.44906400 L14.47355600,13.24792900 L14.40288600,13.05711300 L14.29525200,12.88442900 L14.15505900,12.73694700 L14.05658700,12.66840900 L13.98805000,12.62070500 L13.80105600,12.54045900 L13.60174100,12.49950000 L10.62450000,12.49950000 L10.55746100,12.47981500 L10.51170600,12.42701100 L10.50050000,12.37550000 L10.50050000,9.62450000 L10.52018500,9.55746100 L10.57298900,9.51170600 L10.62450000,9.50050000 L11.55074300,9.50050000 L11.70243900,9.48507400 L11.89657900,9.42416200 L11.89658000,9.42416100 L11.89658800,9.42415900 L12.07450200,9.32540900 L12.22889500,9.19286600 L12.35344800,9.03195800 L12.44306000,8.84927100 L12.49406300,8.65228500 L12.50436900,8.44906400 L12.47355600,8.24792900 L12.40288600,8.05711300 L12.29525200,7.88442900 L12.15505900,7.73694700 L12.05658700,7.66840900 L11.98805000,7.62070500 L11.80105600,7.54045900 L11.60174100,7.49950000 L10.62450000,7.49950000 L10.55746100,7.47981500 L10.51170600,7.42701100 L10.50050000,7.37550000 L10.50050000,4.62450000 L10.52018500,4.55746100 L10.57298900,4.51170600 L10.62450000,4.50050000 L13.55074300,4.50050000 L13.70243900,4.48507400 L13.89657900,4.42416200 L13.89658000,4.42416100 L13.89658800,4.42415900 L14.07450200,4.32540900 L14.22889500,4.19286600 L14.35344800,4.03195800 L14.44306000,3.84927100 L14.49406300,3.65228500 L14.50436900,3.44906400 L14.47355600,3.24792900 L14.41162300,3.08070400 L14.40288800,3.05711800 L14.40288700,3.05711700 L14.40288600,3.05711300 L14.29525200,2.88442900 L14.20563800,2.79015600 L14.15506100,2.73694900 L14.15506000,2.73694800 L14.15505900,2.73694700 L14.05658700,2.66840900 L13.98805000,2.62070500 L13.80105600,2.54045900 L13.60174100,2.49950000 L9.52692900,2.49950000 L9.52378900,2.49942000 L9.44906500,2.49563100 L9.44905800,2.49563100 L9.37512400,2.50695700 L9.37201000,2.50735400 L9.29756600,2.51492500 L9.29755700,2.51492700 L9.28218700,2.51974900 L9.26385800,2.52400300 L9.24792900,2.52644400 L9.24792600,2.52644500 L9.17777300,2.55242500 L9.17480200,2.55344100 L9.10341200,2.57584000 L9.08932200,2.58366100 L9.07222000,2.59151800 L9.05711800,2.59711100 L9.05710800,2.59711600 L8.99362600,2.63668500 L8.99091900,2.63827800 L8.92550600,2.67458500 L8.92549900,2.67459000 L8.91327800,2.68508100 L8.89811400,2.69621600 L8.88443000,2.70474600 L8.88442700,2.70474900 L8.83020000,2.75629500 L8.82787000,2.75840000 L8.77110800,2.80712900 L8.77110200,2.80713600 L8.76124300,2.81987200 L8.74863100,2.83383200 L8.73694900,2.84493800 L8.73694800,2.84493900 L8.69421500,2.90633500 L8.69235600,2.90886500 L8.64655000,2.96804300 L8.63945200,2.98251300 L8.62990700,2.99872800 L8.62070600,3.01194800 L8.62070500,3.01194900 L8.59119900,3.08070400 L8.58988800,3.08355600 L8.55693900,3.15072900 L8.55693800,3.15073300 L8.55290100,3.16632400 L8.54681500,3.18412900 L8.54046100,3.19893700 L8.52539900,3.27222500 L8.52468900,3.27528500 L8.50593600,3.34771600 L8.50511900,3.36381100 L8.50274300,3.38247400 L8.49950000,3.39826000 L8.49950000,3.47307000 L8.49942000,3.47621000 L8.49563100,3.55093500 L8.49563100,3.55093900 L8.49807000,3.56685700 L8.49950000,3.58563300 L8.49950000,8.47307000 L8.49942000,8.47621000 L8.49563100,8.55093500 L8.49563100,8.55093600 L8.49807000,8.56685700 L8.49950000,8.58563300 L8.49950000,13.47307000 L8.49942000,13.47621000 L8.49563100,13.55093500 L8.49563100,13.55094200 L7.50050000,13.55094200 L7.50050000,8.52692800 L7.50058000,8.52378800 L7.50299200,8.47621000 L7.50436900,8.44906400 L7.50193000,8.43314200 L7.50050000,8.41436600 L7.50050000,3.44925600 L7.48507400,3.29756000 L7.42416200,3.10342000 L7.42416000,3.10341600 L7.42415900,3.10341200 L7.32540900,2.92549800 L7.32540800,2.92549700 L7.32540700,2.92549500 L7.19286700,2.77110600 L7.19286500,2.77110400 L7.03196200,2.64655400 L7.03195900,2.64655300 L7.03195800,2.64655200 L6.84927100,2.55694000 L6.65228500,2.50593700 L6.65228700,2.50593700 L6.49715800,2.49807000 L6.44906400,2.49563100 L6.44906300,2.49563100 L6.44906100,2.49563100 L6.24793600,2.52644200 L6.24792400,2.52644500 L6.05711800,2.59711100 L6.05711100,2.59711500 L5.88443200,2.70474500 L5.88442700,2.70474900 L5.73694900,2.84493800 L5.73694700,2.84494000 L5.73694700,2.84494100 L5.72577400,2.86099400 L5.62070500,3.01194900 L5.54045900,3.19894300 L5.49949900,3.39825800 L5.49950000,7.37550000 L5.47981500,7.44253900 L5.42701100,7.48829400 L5.37550000,7.49950000 L2.62450000,7.49950000 L2.55746100,7.47981500 L2.51170600,7.42701100 L2.50050000,7.37550000 L2.50050000,3.44925600 L2.48507400,3.29756000 L2.42416200,3.10342000 L2.42416000,3.10341600 L2.42415900,3.10341200 L2.32540900,2.92549800 L2.32540800,2.92549700 L2.32540700,2.92549500 L2.19286700,2.77110600 L2.19286500,2.77110400 L2.03196200,2.64655400 L2.03195900,2.64655300 L2.03195800,2.64655200 L1.84927100,2.55694000 L1.65228500,2.50593700 L1.65228700,2.50593700 L1.49715800,2.49807000 L1.44906400,2.49563100 L1.44906300,2.49563100 L1.44906100,2.49563100 L1.24793600,2.52644200 L1.24792400,2.52644500 L1.05711800,2.59711100 L1.05711100,2.59711500 L0.88443200,2.70474500 L0.88442700,2.70474900 L0.73694900,2.84493800 L0.73694600,2.84494200 L0.72577400,2.86099400 L0.67132000,2.90477200 L0.60184200,2.91216000 L0.53939900,2.88081300 L0.50381600,2.82068200 L0.50000000,2.79015600 L0.50000000,0.62400000 L0.51968500,0.55696100 L0.57248900,0.51120600 L0.62400000,0.50000000 L37.37600000,0.50000000 L37.44303900,0.51968500 Z" fill="#155c82ff" />
<path d="M33.44253900,4.52018500 L33.48829400,4.57298900 L33.49950000,4.62450000 L33.49950000,12.37550000 L33.47981500,12.44253900 L33.42701100,12.48829400 L33.37550000,12.49950000 L31.62450000,12.49950000 L31.55746100,12.47981500 L31.51170600,12.42701100 L31.50050000,12.37550000 L31.50050000,4.62450000 L31.52018500,4.55746100 L31.57298900,4.51170600 L31.62450000,4.50050000 L33.37550000,4.50050000 L33.44253900,4.52018500 Z" fill="#155c82ff" />
</g>
</svg>