<?xml version="1.0" encoding="UTF-8"?>
<svg xmlns="http://www.w3.org/2000/svg" xmlns:xlink="http://www.w3.org/1999/xlink"
     width="6.900000" height="8.220000" viewBox="0 0 6.900000 8.220000">
<defs>
<mask id="d0">
<rect x="-3.450000" y="-4.110000" width="13.800000" height="16.440000" fill="white" />
</mask>
<mask id="d1">
<rect x="-3.450000" y="-4.110000" width="13.800000" height="16.440000" fill="white" />
</mask>
<g id="d2">
<circle cx="0" cy="0" r="0.15000" fill="#133d91ff" />
</g>
<g id="d3">
<circle cx="0" cy="0" r="0.15000" fill="#133d91ff" />
</g>
<g id="d4">
<circle cx="0" cy="0" r="0.15000" fill="#133d91ff" />
</g>
<g id="d5">
<circle cx="0" cy="0" r="0.15000" fill="#133d91ff" />
</g>
<g mask="url(#d1)" id="d6">
<g></g>
<path d="M-0.825000,-0.150000 L0.825000,-0.150000 L0.825000,0.150000 L-0.825000,0.150000 L-0.825000,-0.150000 L-0.825000,-0.150000 Z" fill="#155c82ff" />
<use xlink:href="#d2" x="-0.825000" y="-0.150000" />
<use xlink:href="#d3" x="0.825000" y="-0.150000" />
<use xlink:href="#d4" x="0.825000" y="0.150000" />
<use xlink:href="#d5" x="-0.825000" y="0.150000" />
<path d="M-0.825000,-0.300000 L-0.825000,0.000000 L0.825000,0.000000 L0.825000,-0.300000 Z" fill="#133d91ff" />
<path d="M0.975000,-0.150000 L0.675000,-0.150000 L0.675000,0.150000 L0.975000,0.150000 Z" fill="#133d91ff" />
<path d="M0.825000,0.300000 L0.825000,0.000000 L-0.825000,0.000000 L-0.825000,0.300000 Z" fill="#133d91ff" />
<path d="M-0.975000,0.150000 L-0.675000,0.150000 L-0.675000,-0.150000 L-0.975000,-0.150000 Z" fill="#133d91ff" />
</g>
</defs>
<g mask="url(#d0)">
<g></g>
<use xlink:href="#d6" x="0.975000" y="0.300000" />
<use xlink:href="#d6" x="0.975000" y="1.570000" />
<use xlink:href="#d6" x="0.975000" y="2.840000" />
<use xlink:href="#d6" x="0.975000" y="4.110000" />
<use xlink:href="#d6" x="0.975000" y="5.380000" />
<use xlink:href="#d6" x="0.975000" y="6.650000" />
<use xlink:href="#d6" x="0.975000" y="7.920000" />
<use xlink:href="#d6" x="5.925000" y="7.920000" />
<use xlink:href="#d6" x="5.925000" y="6.650000" />
<use xlink:href="#d6" x="5.925000" y="5.380000" />
<use xlink:href="#d6" x="5.925000" y="4.110000" />
<use xlink:href="#d6" x="5.925000" y="2.840000" />
<use xlink:href="#d6" x="5.925000" y="1.570000" />
<use xlink:href="#d6" x="5.925000" y="0.300000" />
</g>
</svg>