<?xml version="1.0" encoding="UTF-8"?>
<svg xmlns="http://www.w3.org/2000/svg" xmlns:xlink="http://www.w3.org/1999/xlink"
     width="14.000000" height="14.000000" viewBox="0 0 14.000000 14.000000">
<defs>
<mask id="d0">
<rect x="-7.000000" y="-7.000000" width="28.000000" height="28.000000" fill="white" />
</mask>
<g id="d1">
<circle cx="0" cy="0" r="0.25" fill="black" />
</g>
<mask id="d2">
<rect x="-7.000000" y="-7.000000" width="28.000000" height="28.000000" fill="white" />
<use xlink:href="#d1" x="4.000000" y="10.000000" />
<path d="M4.17677670,10.17677670 L3.82322330,9.82322330 L9.82322330,3.82322330 L10.17677670,4.17677670 Z" fill="black" />
<use xlink:href="#d1" x="10.000000" y="4.000000" />
</mask>
<mask id="d3">
<rect x="-7.000000" y="-7.000000" width="28.000000" height="28.000000" fill="white" />
<use xlink:href="#d1" x="10.000000" y="10.000000" />
<path d="M10.17677670,9.82322330 L9.82322330,10.17677670 L3.82322330,4.17677670 L4.17677670,3.82322330 Z" fill="black" />
<use xlink:href="#d1" x="4.000000" y="4.000000" />
</mask>
<g id="d4">
<circle cx="0" cy="0" r="1.5" fill="black" />
</g>
<mask id="d5">
<rect x="-7.000000" y="-7.000000" width="28.000000" height="28.000000" fill="white" />
<use xlink:href="#d4" x="2.000000" y="12.000000" />
<path d="M3.06066017,13.06066017 L0.93933983,10.93933983 L10.93933983,0.93933983 L13.06066017,3.06066017 Z" fill="black" />
<use xlink:href="#d4" x="12.000000" y="2.000000" />
</mask>
<mask id="d6">
<rect x="-7.000000" y="-7.000000" width="28.000000" height="28.000000" fill="white" />
<use xlink:href="#d4" x="12.000000" y="12.000000" />
<path d="M13.06066017,10.93933983 L10.93933983,13.06066017 L0.93933983,3.06066017 L3.06066017,0.93933983 Z" fill="black" />
<use xlink:href="#d4" x="2.000000" y="2.000000" />
</mask>
<g id="d7">
<circle cx="0" cy="0" r="2" fill="#133d91ff" />
</g>
<g id="d8">
<circle cx="0" cy="0" r="0.75" fill="#133d91ff" />
</g>
</defs>
<g mask="url(#d0)">
<g mask="url(#d2)">
<g mask="url(#d3)">
<g mask="url(#d5)">
<g mask="url(#d6)">
<g></g>
<use xlink:href="#d7" x="12.000000" y="12.000000" />
<path d="M13.41421356,10.58578644 L10.58578644,13.41421356 L0.58578644,3.41421356 L3.41421356,0.58578644 Z" fill="#133d91ff" />
<use xlink:href="#d7" x="2.000000" y="2.000000" />
</g>
<use xlink:href="#d7" x="2.000000" y="12.000000" />
<path d="M3.41421356,13.41421356 L0.58578644,10.58578644 L10.58578644,0.58578644 L13.41421356,3.41421356 Z" fill="#133d91ff" />
<use xlink:href="#d7" x="12.000000" y="2.000000" />
</g>
<use xlink:href="#d8" x="10.000000" y="10.000000" />
<path d="M10.53033009,9.46966991 L9.46966991,10.53033009 L3.46966991,4.53033009 L4.53033009,3.46966991 Z" fill="#133d91ff" />
<use xlink:href="#d8" x="4.000000" y="4.000000" />
</g>
<use xlink:href="#d8" x="4.000000" y="10.000000" />
<path d="M4.53033009,10.53033009 L3.46966991,9.46966991 L9.46966991,3.46966991 L10.53033009,4.53033009 Z" fill="#133d91ff" />
<use xlink:href="#d8" x="10.000000" y="4.000000" />
</g>
</g>
</svg>