<?xml version="1.0" encoding="UTF-8"?>
<svg xmlns="http://www.w3.org/2000/svg" xmlns:xlink="http://www.w3.org/1999/xlink"
     width="7.000000" height="7.000000" viewBox="0 0 7.000000 7.000000">
<defs>
<mask id="d0">
<rect x="-3.500000" y="-3.500000" width="14.000000" height="14.000000" fill="white" />
</mask>
<g id="d1">
<circle cx="0" cy="0" r="0.5" fill="black" />
</g>
<mask id="d2">
<rect x="-3.500000" y="-3.500000" width="14.000000" height="14.000000" fill="white" />
<use xlink:href="#d1" x="1.000000" y="6.000000" />
<path d="M1.35355339,6.35355339 L0.64644661,5.64644661 L5.64644661,0.64644661 L6.35355339,1.35355339 Z" fill="black" />
<use xlink:href="#d1" x="6.000000" y="1.000000" />
</mask>
<mask id="d3">
<rect x="-3.500000" y="-3.500000" width="14.000000" height="14.000000" fill="white" />
<use xlink:href="#d1" x="6.000000" y="6.000000" />
<path d="M6.35355339,5.64644661 L5.64644661,6.35355339 L0.64644661,1.35355339 L1.35355339,0.64644661 Z" fill="black" />
<use xlink:href="#d1" x="1.000000" y="1.000000" />
</mask>
<g id="d4">
<circle cx="0" cy="0" r="1" fill="#133d91ff" />
</g>
</defs>
<g mask="url(#d0)">
<g mask="url(#d2)">
<g mask="url(#d3)">
<g></g>
<use xlink:href="#d4" x="6.000000" y="6.000000" />
<path d="M6.70710678,5.29289322 L5.29289322,6.70710678 L0.29289322,1.70710678 L1.70710678,0.29289322 Z" fill="#133d91ff" />
<use xlink:href="#d4" x="1.000000" y="1.000000" />
</g>
<use xlink:href="#d4" x="1.000000" y="6.000000" />
<path d="M1.70710678,6.70710678 L0.29289322,5.29289322 L5.29289322,0.29289322 L6.70710678,1.70710678 Z" fill="#133d91ff" />
<use xlink:href="#d4" x="6.000000" y="1.000000" />
</g>
</g>
</svg>