<?xml version="1.0" encoding="UTF-8"?>
<svg xmlns="http://www.w3.org/2000/svg" xmlns:xlink="http://www.w3.org/1999/xlink"
     width="8.000000" height="8.000000" viewBox="0 0 8.000000 8.000000">
<defs>
<mask id="d0">
<rect x="-4.000000" y="-4.000000" width="16.000000" height="16.000000" fill="white" />
</mask>
<g id="d1">
<circle cx="0" cy="0" r="1" fill="black" />
</g>
<mask id="d2">
<rect x="-4.000000" y="-4.000000" width="16.000000" height="16.000000" fill="white" />
<use xlink:href="#d1" x="1.500000" y="6.500000" />
<path d="M2.20710678,7.20710678 L0.79289322,5.79289322 L5.79289322,0.79289322 L7.20710678,2.20710678 Z" fill="black" />
<use xlink:href="#d1" x="6.500000" y="1.500000" />
</mask>
<mask id="d3">
<rect x="-4.000000" y="-4.000000" width="16.000000" height="16.000000" fill="white" />
<use xlink:href="#d1" x="6.500000" y="6.500000" />
<path d="M7.20710678,5.79289322 L5.79289322,7.20710678 L0.79289322,2.20710678 L2.20710678,0.79289322 Z" fill="black" />
<use xlink:href="#d1" x="1.500000" y="1.500000" />
</mask>
<g id="d4">
<circle cx="0" cy="0" r="1.5" fill="#133d91ff" />
</g>
</defs>
<g mask="url(#d0)">
<g mask="url(#d2)">
<g mask="url(#d3)">
<g></g>
<use xlink:href="#d4" x="6.500000" y="6.500000" />
<path d="M7.56066017,5.43933983 L5.43933983,7.56066017 L0.43933983,2.56066017 L2.56066017,0.43933983 Z" fill="#133d91ff" />
<use xlink:href="#d4" x="1.500000" y="1.500000" />
</g>
<use xlink:href="#d4" x="1.500000" y="6.500000" />
<path d="M2.56066017,7.56066017 L0.43933983,5.43933983 L5.43933983,0.43933983 L7.56066017,2.56066017 Z" fill="#133d91ff" />
<use xlink:href="#d4" x="6.500000" y="1.500000" />
</g>
</g>
</svg>