<?xml version="1.0" encoding="UTF-8"?>
<svg xmlns="http://www.w3.org/2000/svg" xmlns:xlink="http://www.w3.org/1999/xlink"
     width="8.000000" height="8.000000" viewBox="0 0 8.000000 8.000000">
<defs>
<mask id="d0">
<rect x="-4.000000" y="-4.000000" width="16.000000" height="16.000000" fill="white" />
</mask>
<g id="d1">
<circle cx="0" cy="0" r="1" fill="black" />
</g>
<mask id="d2">
<rect x="-4.000000" y="-4.000000" width="16.000000" height="16.000000" fill="white" />
<use xlink:href="#d1" x="1.500000" y="6.500000" />
<path d="M2.20710678118654752440084436210484903928483593768847403658834,7.20710678118654752440084436210484903928483593768847403658834 L0.792893218813452475599155637895150960715164062311525963411660,5.79289321881345247559915563789515096071516406231152596341166 L5.79289321881345247559915563789515096071516406231152596341166,0.79289321881345247559915563789515096071516406231152596341166 L7.20710678118654752440084436210484903928483593768847403658834,2.20710678118654752440084436210484903928483593768847403658834 Z" fill="black" />
<use xlink:href="#d1" x="6.500000" y="1.500000" />
</mask>
<mask id="d3">
<rect x="-4.000000" y="-4.000000" width="16.000000" height="16.000000" fill="white" />
<use xlink:href="#d1" x="6.500000" y="6.500000" />
<path d="M7.20710678118654752440084436210484903928483593768847403658834,5.79289321881345247559915563789515096071516406231152596341166 L5.79289321881345247559915563789515096071516406231152596341166,7.20710678118654752440084436210484903928483593768847403658834 L0.792893218813452475599155637895150960715164062311525963411660,2.20710678118654752440084436210484903928483593768847403658834 L2.20710678118654752440084436210484903928483593768847403658834,0.79289321881345247559915563789515096071516406231152596341166 Z" fill="black" />
<use xlink:href="#d1" x="1.500000" y="1.500000" />
</mask>
<g id="d4">
<circle cx="0" cy="0" r="1.5" fill="#133d91ff" />
</g>
</defs>
<g mask="url(#d0)">
<g mask="url(#d2)">
<g mask="url(#d3)">
<g></g>
<use xlink:href="#d4" x="6.500000" y="6.500000" />
<path d="M7.56066017177982128660126654315727355892725390653271105488251,5.43933982822017871339873345684272644107274609346728894511749 L5.43933982822017871339873345684272644107274609346728894511749,7.56066017177982128660126654315727355892725390653271105488251 L0.43933982822017871339873345684272644107274609346728894511749,2.56066017177982128660126654315727355892725390653271105488251 L2.56066017177982128660126654315727355892725390653271105488251,0.43933982822017871339873345684272644107274609346728894511749 Z" fill="#133d91ff" />
<use xlink:href="#d4" x="1.500000" y="1.500000" />
</g>
<use xlink:href="#d4" x="1.500000" y="6.500000" />
<path d="M2.56066017177982128660126654315727355892725390653271105488251,7.56066017177982128660126654315727355892725390653271105488251 L0.43933982822017871339873345684272644107274609346728894511749,5.43933982822017871339873345684272644107274609346728894511749 L5.43933982822017871339873345684272644107274609346728894511749,0.43933982822017871339873345684272644107274609346728894511749 L7.56066017177982128660126654315727355892725390653271105488251,2.56066017177982128660126654315727355892725390653271105488251 Z" fill="#133d91ff" />
<use xlink:href="#d4" x="6.500000" y="1.500000" />
</g>
</g>
</svg>