<?xml version="1.0" encoding="UTF-8"?>
<svg xmlns="http://www.w3.org/2000/svg" xmlns:xlink="http://www.w3.org/1999/xlink"
     width="7.500000" height="7.500000" viewBox="0 0 7.500000 7.500000">
<defs>
<mask id="d0">
<rect x="-3.750000" y="-3.750000" width="15.000000" height="15.000000" fill="white" />
</mask>
<g id="d1">
<circle cx="0" cy="0" r="0.75" fill="black" />
</g>
<mask id="d2">
<rect x="-3.750000" y="-3.750000" width="15.000000" height="15.000000" fill="white" />
<use xlink:href="#d1" x="1.250000" y="6.250000" />
<path d="M1.78033009,6.78033009 L0.71966991,5.71966991 L5.71966991,0.71966991 L6.78033009,1.78033009 Z" fill="black" />
<use xlink:href="#d1" x="6.250000" y="1.250000" />
</mask>
<mask id="d3">
<rect x="-3.750000" y="-3.750000" width="15.000000" height="15.000000" fill="white" />
<use xlink:href="#d1" x="6.250000" y="6.250000" />
<path d="M6.78033009,5.71966991 L5.71966991,6.78033009 L0.71966991,1.78033009 L1.78033009,0.71966991 Z" fill="black" />
<use xlink:href="#d1" x="1.250000" y="1.250000" />
</mask>
<g id="d4">
<circle cx="0" cy="0" r="1.25" fill="#133d91ff" />
</g>
</defs>
<g mask="url(#d0)">
<g mask="url(#d2)">
<g mask="url(#d3)">
<g></g>
<use xlink:href="#d4" x="6.250000" y="6.250000" />
<path d="M7.13388348,5.36611652 L5.36611652,7.13388348 L0.36611652,2.13388348 L2.13388348,0.36611652 Z" fill="#133d91ff" />
<use xlink:href="#d4" x="1.250000" y="1.250000" />
</g>
<use xlink:href="#d4" x="1.250000" y="6.250000" />
<path d="M2.13388348,7.13388348 L0.36611652,5.36611652 L5.36611652,0.36611652 L7.13388348,2.13388348 Z" fill="#133d91ff" />
<use xlink:href="#d4" x="6.250000" y="1.250000" />
</g>
</g>
</svg>