<?xml version="1.0" encoding="UTF-8"?>
<svg xmlns="http://www.w3.org/2000/svg" xmlns:xlink="http://www.w3.org/1999/xlink"
     width="6.000000" height="6.000000" viewBox="0 0 6.000000 6.000000">
<defs>
<mask id="d0">
<rect x="-3.000000" y="-3.000000" width="12.000000" height="12.000000" fill="white" />
</mask>
<g id="d1">
<circle cx="0" cy="0" r="0.15" fill="black" />
</g>
<mask id="d2">
<rect x="-3.000000" y="-3.000000" width="12.000000" height="12.000000" fill="white" />
<use xlink:href="#d1" x="0.500000" y="5.500000" />
<path d="M0.60606602,5.60606602 L0.39393398,5.39393398 L5.39393398,0.39393398 L5.60606602,0.60606602 Z" fill="black" />
<use xlink:href="#d1" x="5.500000" y="0.500000" />
</mask>
<mask id="d3">
<rect x="-3.000000" y="-3.000000" width="12.000000" height="12.000000" fill="white" />
<use xlink:href="#d1" x="5.500000" y="5.500000" />
<path d="M5.60606602,5.39393398 L5.39393398,5.60606602 L0.39393398,0.60606602 L0.60606602,0.39393398 Z" fill="black" />
<use xlink:href="#d1" x="0.500000" y="0.500000" />
</mask>
<g id="d4">
<circle cx="0" cy="0" r="0.5" fill="#133d91ff" />
</g>
</defs>
<g mask="url(#d0)">
<g mask="url(#d2)">
<g mask="url(#d3)">
<g></g>
<use xlink:href="#d4" x="5.500000" y="5.500000" />
<path d="M5.85355339,5.14644661 L5.14644661,5.85355339 L0.14644661,0.85355339 L0.85355339,0.14644661 Z" fill="#133d91ff" />
<use xlink:href="#d4" x="0.500000" y="0.500000" />
</g>
<use xlink:href="#d4" x="0.500000" y="5.500000" />
<path d="M0.85355339,5.85355339 L0.14644661,5.14644661 L5.14644661,0.14644661 L5.85355339,0.85355339 Z" fill="#133d91ff" />
<use xlink:href="#d4" x="5.500000" y="0.500000" />
</g>
</g>
</svg>