<?xml version="1.0" encoding="UTF-8"?>
<svg xmlns="http://www.w3.org/2000/svg" xmlns:xlink="http://www.w3.org/1999/xlink"
     width="6.500000" height="6.500000" viewBox="0 0 6.500000 6.500000">
<defs>
<mask id="d0">
<rect x="-3.250000" y="-3.250000" width="13.000000" height="13.000000" fill="white" />
</mask>
<g id="d1">
<circle cx="0" cy="0" r="0.25" fill="black" />
</g>
<mask id="d2">
<rect x="-3.250000" y="-3.250000" width="13.000000" height="13.000000" fill="white" />
<use xlink:href="#d1" x="0.750000" y="5.750000" />
<path d="M0.92677670,5.92677670 L0.57322330,5.57322330 L5.57322330,0.57322330 L5.92677670,0.92677670 Z" fill="black" />
<use xlink:href="#d1" x="5.750000" y="0.750000" />
</mask>
<mask id="d3">
<rect x="-3.250000" y="-3.250000" width="13.000000" height="13.000000" fill="white" />
<use xlink:href="#d1" x="5.750000" y="5.750000" />
<path d="M5.92677670,5.57322330 L5.57322330,5.92677670 L0.57322330,0.92677670 L0.92677670,0.57322330 Z" fill="black" />
<use xlink:href="#d1" x="0.750000" y="0.750000" />
</mask>
<g id="d4">
<circle cx="0" cy="0" r="0.75" fill="#133d91ff" />
</g>
</defs>
<g mask="url(#d0)">
<g mask="url(#d2)">
<g mask="url(#d3)">
<g></g>
<use xlink:href="#d4" x="5.750000" y="5.750000" />
<path d="M6.28033009,5.21966991 L5.21966991,6.28033009 L0.21966991,1.28033009 L1.28033009,0.21966991 Z" fill="#133d91ff" />
<use xlink:href="#d4" x="0.750000" y="0.750000" />
</g>
<use xlink:href="#d4" x="0.750000" y="5.750000" />
<path d="M1.28033009,6.28033009 L0.21966991,5.21966991 L5.21966991,0.21966991 L6.28033009,1.28033009 Z" fill="#133d91ff" />
<use xlink:href="#d4" x="5.750000" y="0.750000" />
</g>
</g>
</svg>