<?xml version="1.0" encoding="UTF-8"?>
<svg xmlns="http://www.w3.org/2000/svg" xmlns:xlink="http://www.w3.org/1999/xlink"
     width="6.000000" height="6.000000" viewBox="0 0 6.000000 6.000000">
<defs>
<mask id="d0">
<rect x="-3.000000" y="-3.000000" width="12.000000" height="12.000000" fill="white" />
</mask>
<g id="d1">
<circle cx="0" cy="0" r="0.15" fill="black" />
</g>
<mask id="d2">
<rect x="-3.000000" y="-3.000000" width="12.000000" height="12.000000" fill="white" />
<use xlink:href="#d1" x="0.500000" y="5.500000" />
<path d="M0.606066017177982128660126654315727355892725390653271105488251,5.60606601717798212866012665431572735589272539065327110548825 L0.393933982822017871339873345684272644107274609346728894511749,5.39393398282201787133987334568427264410727460934672889451175 L5.39393398282201787133987334568427264410727460934672889451175,0.39393398282201787133987334568427264410727460934672889451175 L5.60606601717798212866012665431572735589272539065327110548825,0.60606601717798212866012665431572735589272539065327110548825 Z" fill="black" />
<use xlink:href="#d1" x="5.500000" y="0.500000" />
</mask>
<mask id="d3">
<rect x="-3.000000" y="-3.000000" width="12.000000" height="12.000000" fill="white" />
<use xlink:href="#d1" x="5.500000" y="5.500000" />
<path d="M5.60606601717798212866012665431572735589272539065327110548825,5.39393398282201787133987334568427264410727460934672889451175 L5.39393398282201787133987334568427264410727460934672889451175,5.60606601717798212866012665431572735589272539065327110548825 L0.393933982822017871339873345684272644107274609346728894511749,0.60606601717798212866012665431572735589272539065327110548825 L0.606066017177982128660126654315727355892725390653271105488251,0.39393398282201787133987334568427264410727460934672889451175 Z" fill="black" />
<use xlink:href="#d1" x="0.500000" y="0.500000" />
</mask>
<g id="d4">
<circle cx="0" cy="0" r="0.5" fill="#133d91ff" />
</g>
</defs>
<g mask="url(#d0)">
<g mask="url(#d2)">
<g mask="url(#d3)">
<g></g>
<use xlink:href="#d4" x="5.500000" y="5.500000" />
<path d="M5.85355339059327376220042218105242451964241796884423701829417,5.14644660940672623779957781894757548035758203115576298170583 L5.14644660940672623779957781894757548035758203115576298170583,5.85355339059327376220042218105242451964241796884423701829417 L0.146446609406726237799577818947575480357582031155762981705830,0.85355339059327376220042218105242451964241796884423701829417 L0.853553390593273762200422181052424519642417968844237018294170,0.14644660940672623779957781894757548035758203115576298170583 Z" fill="#133d91ff" />
<use xlink:href="#d4" x="0.500000" y="0.500000" />
</g>
<use xlink:href="#d4" x="0.500000" y="5.500000" />
<path d="M0.853553390593273762200422181052424519642417968844237018294170,5.85355339059327376220042218105242451964241796884423701829417 L0.146446609406726237799577818947575480357582031155762981705830,5.14644660940672623779957781894757548035758203115576298170583 L5.14644660940672623779957781894757548035758203115576298170583,0.14644660940672623779957781894757548035758203115576298170583 L5.85355339059327376220042218105242451964241796884423701829417,0.85355339059327376220042218105242451964241796884423701829417 Z" fill="#133d91ff" />
<use xlink:href="#d4" x="5.500000" y="0.500000" />
</g>
</g>
</svg>