<?xml version="1.0" encoding="UTF-8"?>
<svg xmlns="http://www.w3.org/2000/svg" xmlns:xlink="http://www.w3.org/1999/xlink"
     width="11.500000" height="11.500000" viewBox="0 0 11.500000 11.500000">
<defs>
<mask id="d0">
<rect x="-5.750000" y="-5.750000" width="23.000000" height="23.000000" fill="white" />
</mask>
<g id="d1">
<circle cx="0" cy="0" r="0.25" fill="black" />
</g>
<mask id="d2">
<rect x="-5.750000" y="-5.750000" width="23.000000" height="23.000000" fill="white" />
<use xlink:href="#d1" x="8.750000" y="8.750000" />
<path d="M8.92677670,8.57322330 L8.57322330,8.92677670 L2.57322330,2.92677670 L2.92677670,2.57322330 Z" fill="black" />
<use xlink:href="#d1" x="2.750000" y="2.750000" />
<use xlink:href="#d1" x="0.750000" y="10.750000" />
<path d="M1.00000000,10.75000000 L0.50000000,10.75000000 L0.50000000,0.75000000 L1.00000000,0.75000000 Z" fill="black" />
<use xlink:href="#d1" x="0.750000" y="0.750000" />
<use xlink:href="#d1" x="0.750000" y="0.750000" />
<path d="M0.75000000,1.00000000 L0.75000000,0.50000000 L10.75000000,0.50000000 L10.75000000,1.00000000 Z" fill="black" />
<use xlink:href="#d1" x="10.750000" y="0.750000" />
<use xlink:href="#d1" x="10.750000" y="0.750000" />
<path d="M10.50000000,0.75000000 L11.00000000,0.75000000 L11.00000000,10.75000000 L10.50000000,10.75000000 Z" fill="black" />
<use xlink:href="#d1" x="10.750000" y="10.750000" />
<use xlink:href="#d1" x="10.750000" y="10.750000" />
<path d="M10.75000000,10.50000000 L10.75000000,11.00000000 L0.75000000,11.00000000 L0.75000000,10.50000000 Z" fill="black" />
<use xlink:href="#d1" x="0.750000" y="10.750000" />
</mask>
<g id="d3">
<circle cx="0" cy="0" r="0.75" fill="#133d91ff" />
</g>
</defs>
<g mask="url(#d0)">
<g mask="url(#d2)">
<g></g>
<use xlink:href="#d3" x="0.750000" y="10.750000" />
<path d="M1.50000000,10.75000000 L0.00000000,10.75000000 L0.00000000,0.75000000 L1.50000000,0.75000000 Z" fill="#133d91ff" />
<use xlink:href="#d3" x="0.750000" y="0.750000" />
<use xlink:href="#d3" x="0.750000" y="0.750000" />
<path d="M0.75000000,1.50000000 L0.75000000,0.00000000 L10.75000000,0.00000000 L10.75000000,1.50000000 Z" fill="#133d91ff" />
<use xlink:href="#d3" x="10.750000" y="0.750000" />
<use xlink:href="#d3" x="10.750000" y="0.750000" />
<path d="M10.00000000,0.75000000 L11.50000000,0.75000000 L11.50000000,10.75000000 L10.00000000,10.75000000 Z" fill="#133d91ff" />
<use xlink:href="#d3" x="10.750000" y="10.750000" />
<use xlink:href="#d3" x="10.750000" y="10.750000" />
<path d="M10.75000000,10.00000000 L10.75000000,11.50000000 L0.75000000,11.50000000 L0.75000000,10.00000000 Z" fill="#133d91ff" />
<use xlink:href="#d3" x="0.750000" y="10.750000" />
<use xlink:href="#d3" x="2.750000" y="8.750000" />
<path d="M3.50000000,8.75000000 L2.00000000,8.75000000 L2.00000000,2.75000000 L3.50000000,2.75000000 Z" fill="#133d91ff" />
<use xlink:href="#d3" x="2.750000" y="2.750000" />
<use xlink:href="#d3" x="2.750000" y="2.750000" />
<path d="M2.75000000,3.50000000 L2.75000000,2.00000000 L8.75000000,2.00000000 L8.75000000,3.50000000 Z" fill="#133d91ff" />
<use xlink:href="#d3" x="8.750000" y="2.750000" />
<use xlink:href="#d3" x="8.750000" y="2.750000" />
<path d="M8.00000000,2.75000000 L9.50000000,2.75000000 L9.50000000,8.75000000 L8.00000000,8.75000000 Z" fill="#133d91ff" />
<use xlink:href="#d3" x="8.750000" y="8.750000" />
<use xlink:href="#d3" x="8.750000" y="8.750000" />
<path d="M8.75000000,8.00000000 L8.75000000,9.50000000 L2.75000000,9.50000000 L2.75000000,8.00000000 Z" fill="#133d91ff" />
<use xlink:href="#d3" x="2.750000" y="8.750000" />
<use xlink:href="#d3" x="8.750000" y="8.750000" />
<path d="M9.28033009,8.21966991 L8.21966991,9.28033009 L2.21966991,3.28033009 L3.28033009,2.21966991 Z" fill="#133d91ff" />
<use xlink:href="#d3" x="2.750000" y="2.750000" />
</g>
</g>
</svg>