<?xml version="1.0" encoding="UTF-8"?>
<svg xmlns="http://www.w3.org/2000/svg" xmlns:xlink="http://www.w3.org/1999/xlink"
     width="11.500000" height="11.500000" viewBox="0 0 11.500000 11.500000">
<defs>
<mask id="d0">
<rect x="-5.750000" y="-5.750000" width="23.000000" height="23.000000" fill="white" />
</mask>
<g id="d1">
<circle cx="0" cy="0" r="0.25" fill="black" />
</g>
<mask id="d2">
<rect x="-5.750000" y="-5.750000" width="23.000000" height="23.000000" fill="white" />
<use xlink:href="#d1" x="8.750000" y="8.750000" />
<path d="M8.92677669529663688110021109052621225982120898442211850914708,8.57322330470336311889978890947378774017879101557788149085292 L8.57322330470336311889978890947378774017879101557788149085292,8.92677669529663688110021109052621225982120898442211850914708 L2.57322330470336311889978890947378774017879101557788149085292,2.92677669529663688110021109052621225982120898442211850914708 L2.92677669529663688110021109052621225982120898442211850914708,2.57322330470336311889978890947378774017879101557788149085292 Z" fill="black" />
<use xlink:href="#d1" x="2.750000" y="2.750000" />
<use xlink:href="#d1" x="0.750000" y="10.750000" />
<path d="M1.000000,10.750000 L0.500000,10.750000 L0.500000,0.750000 L1.000000,0.750000 Z" fill="black" />
<use xlink:href="#d1" x="0.750000" y="0.750000" />
<use xlink:href="#d1" x="0.750000" y="0.750000" />
<path d="M0.750000,1.000000 L0.750000,0.500000 L10.750000,0.500000 L10.750000,1.000000 Z" fill="black" />
<use xlink:href="#d1" x="10.750000" y="0.750000" />
<use xlink:href="#d1" x="10.750000" y="0.750000" />
<path d="M10.500000,0.750000 L11.000000,0.750000 L11.000000,10.750000 L10.500000,10.750000 Z" fill="black" />
<use xlink:href="#d1" x="10.750000" y="10.750000" />
<use xlink:href="#d1" x="10.750000" y="10.750000" />
<path d="M10.750000,10.500000 L10.750000,11.000000 L0.750000,11.000000 L0.750000,10.500000 Z" fill="black" />
<use xlink:href="#d1" x="0.750000" y="10.750000" />
</mask>
<g id="d3">
<circle cx="0" cy="0" r="0.75" fill="#133d91ff" />
</g>
</defs>
<g mask="url(#d0)">
<g mask="url(#d2)">
<g></g>
<use xlink:href="#d3" x="0.750000" y="10.750000" />
<path d="M1.500000,10.750000 L0.000000,10.750000 L0.000000,0.750000 L1.500000,0.750000 Z" fill="#133d91ff" />
<use xlink:href="#d3" x="0.750000" y="0.750000" />
<use xlink:href="#d3" x="0.750000" y="0.750000" />
<path d="M0.750000,1.500000 L0.750000,0.000000 L10.750000,0.000000 L10.750000,1.500000 Z" fill="#133d91ff" />
<use xlink:href="#d3" x="10.750000" y="0.750000" />
<use xlink:href="#d3" x="10.750000" y="0.750000" />
<path d="M10.000000,0.750000 L11.500000,0.750000 L11.500000,10.750000 L10.000000,10.750000 Z" fill="#133d91ff" />
<use xlink:href="#d3" x="10.750000" y="10.750000" />
<use xlink:href="#d3" x="10.750000" y="10.750000" />
<path d="M10.750000,10.000000 L10.750000,11.500000 L0.750000,11.500000 L0.750000,10.000000 Z" fill="#133d91ff" />
<use xlink:href="#d3" x="0.750000" y="10.750000" />
<use xlink:href="#d3" x="2.750000" y="8.750000" />
<path d="M3.500000,8.750000 L2.000000,8.750000 L2.000000,2.750000 L3.500000,2.750000 Z" fill="#133d91ff" />
<use xlink:href="#d3" x="2.750000" y="2.750000" />
<use xlink:href="#d3" x="2.750000" y="2.750000" />
<path d="M2.750000,3.500000 L2.750000,2.000000 L8.750000,2.000000 L8.750000,3.500000 Z" fill="#133d91ff" />
<use xlink:href="#d3" x="8.750000" y="2.750000" />
<use xlink:href="#d3" x="8.750000" y="2.750000" />
<path d="M8.000000,2.750000 L9.500000,2.750000 L9.500000,8.750000 L8.000000,8.750000 Z" fill="#133d91ff" />
<use xlink:href="#d3" x="8.750000" y="8.750000" />
<use xlink:href="#d3" x="8.750000" y="8.750000" />
<path d="M8.750000,8.000000 L8.750000,9.500000 L2.750000,9.500000 L2.750000,8.000000 Z" fill="#133d91ff" />
<use xlink:href="#d3" x="2.750000" y="8.750000" />
<use xlink:href="#d3" x="8.750000" y="8.750000" />
<path d="M9.28033008588991064330063327157863677946362695326635552744126,8.21966991411008935669936672842136322053637304673364447255874 L8.21966991411008935669936672842136322053637304673364447255874,9.28033008588991064330063327157863677946362695326635552744126 L2.21966991411008935669936672842136322053637304673364447255874,3.28033008588991064330063327157863677946362695326635552744126 L3.28033008588991064330063327157863677946362695326635552744126,2.21966991411008935669936672842136322053637304673364447255874 Z" fill="#133d91ff" />
<use xlink:href="#d3" x="2.750000" y="2.750000" />
</g>
</g>
</svg>