<?xml version="1.0" encoding="UTF-8"?>
<svg xmlns="http://www.w3.org/2000/svg" xmlns:xlink="http://www.w3.org/1999/xlink"
     width="27.55769" height="16.70671" viewBox="0 0 27.55769 16.70671">
<defs>
<mask id="d0">
<rect x="-13.778845" y="-8.353355" width="55.11538" height="33.41342" fill="white" />
</mask>
<g id="d1">
<circle cx="0" cy="0" r="0.0500" fill="#133d91ff" />
</g>
<g id="d2">
<circle cx="0" cy="0" r="0.1000" fill="#133d91ff" />
</g>
<g id="d3">
<circle cx="0" cy="0" r="0.1270" fill="#133d91ff" />
</g>
</defs>
<g mask="url(#d0)">
<g></g>
<use xlink:href="#d1" x="18.51820" y="12.00771" />
<path d="M18.56820000,12.00771000 A0.10000000,0.10000000,0,1,1,18.36820000,12.00771000 L18.46820000,12.00771000 A0.00000000,0.00000000,0,0,0,18.46820000,12.00771000 Z" fill="#133d91ff" />
<use xlink:href="#d1" x="18.41820" y="12.00771" />
<use xlink:href="#d1" x="18.41820" y="12.00771" />
<path d="M18.36820000,12.00771000 A0.10000000,0.10000000,0,1,1,18.56820000,12.00771000 L18.46820000,12.00771000 A0.00000000,0.00000000,0,0,0,18.46820000,12.00771000 Z" fill="#133d91ff" />
<use xlink:href="#d1" x="18.51820" y="12.00771" />
<use xlink:href="#d1" x="13.18420" y="12.00771" />
<path d="M13.23420000,12.00771000 A0.10000000,0.10000000,0,1,1,13.03420000,12.00771000 L13.13420000,12.00771000 A0.00000000,0.00000000,0,0,0,13.13420000,12.00771000 Z" fill="#133d91ff" />
<use xlink:href="#d1" x="13.08420" y="12.00771" />
<use xlink:href="#d1" x="13.08420" y="12.00771" />
<path d="M13.03420000,12.00771000 A0.10000000,0.10000000,0,1,1,13.23420000,12.00771000 L13.13420000,12.00771000 A0.00000000,0.00000000,0,0,0,13.13420000,12.00771000 Z" fill="#133d91ff" />
<use xlink:href="#d1" x="13.18420" y="12.00771" />
<use xlink:href="#d2" x="5.86720" y="13.05071" />
<path d="M5.86720,13.15071 L5.86720,12.95071 L6.12120,12.95071 L6.12120,13.15071 Z" fill="#133d91ff" />
<use xlink:href="#d2" x="6.12120" y="13.05071" />
<use xlink:href="#d2" x="9.42320" y="16.60671" />
<path d="M9.42320,16.70671 L9.42320,16.50671 L9.67720,16.50671 L9.67720,16.70671 Z" fill="#133d91ff" />
<use xlink:href="#d2" x="9.67720" y="16.60671" />
<use xlink:href="#d2" x="5.86720" y="16.60671" />
<path d="M5.96720,16.60671 L5.76720,16.60671 L5.76720,15.97171 L5.96720,15.97171 Z" fill="#133d91ff" />
<use xlink:href="#d2" x="5.86720" y="15.97171" />
<use xlink:href="#d2" x="5.86720" y="13.68571" />
<path d="M5.96720,13.68571 L5.76720,13.68571 L5.76720,13.05071 L5.96720,13.05071 Z" fill="#133d91ff" />
<use xlink:href="#d2" x="5.86720" y="13.05071" />
<use xlink:href="#d2" x="9.42320" y="13.05071" />
<path d="M9.42320,13.15071 L9.42320,12.95071 L9.67720,12.95071 L9.67720,13.15071 Z" fill="#133d91ff" />
<use xlink:href="#d2" x="9.67720" y="13.05071" />
<use xlink:href="#d2" x="9.67720" y="15.84471" />
<path d="M9.77720,15.84471 L9.57720,15.84471 L9.57720,13.05071 L9.77720,13.05071 Z" fill="#133d91ff" />
<use xlink:href="#d2" x="9.67720" y="13.05071" />
<use xlink:href="#d2" x="9.67720" y="16.60671" />
<path d="M9.77720,16.60671 L9.57720,16.60671 L9.57720,15.84471 L9.77720,15.84471 Z" fill="#133d91ff" />
<use xlink:href="#d2" x="9.67720" y="15.84471" />
<use xlink:href="#d2" x="5.86720" y="16.60671" />
<path d="M5.86720,16.70671 L5.86720,16.50671 L6.12120,16.50671 L6.12120,16.70671 Z" fill="#133d91ff" />
<use xlink:href="#d2" x="6.12120" y="16.60671" />
<use xlink:href="#d3" x="0.12700" y="1.65051" />
<path d="M0.25400,1.65051 L0.00000,1.65051 L0.00000,0.12700 L0.25400,0.12700 Z" fill="#133d91ff" />
<use xlink:href="#d3" x="0.12700" y="0.12700" />
<use xlink:href="#d3" x="0.12700" y="0.12700" />
<path d="M0.037196554623003256902873809990756721287010851369847668539,0.2168016770356810334889209063334790765375261486862993432691 L0.216803445376996743097126190009243278712989148630152331461,0.0371983229643189665110790936665209234624738513137006567309 L0.724633445376996743097126190009243278712989148630152331461,0.5450383229643189665110790936665209234624738513137006567309 L0.545026554623003256902873809990756721287010851369847668539,0.7246416770356810334889209063334790765375261486862993432691 Z" fill="#133d91ff" />
<use xlink:href="#d3" x="0.63483" y="0.63484" />
<use xlink:href="#d3" x="0.63483" y="0.63484" />
<path d="M0.724632561210691535598907233987315827989174164086436202647,0.7246425612106915355989072339873158279891741640864362026467 L0.545027438789308464401092766012684172010825835913563797353,0.5450374387893084644010927660126841720108258359135637973533 L1.052867438789308464401092766012684172010825835913563797353,0.0371974387893084644010927660126841720108258359135637973533 L1.232472561210691535598907233987315827989174164086436202647,0.2168025612106915355989072339873158279891741640864362026467 Z" fill="#133d91ff" />
<use xlink:href="#d3" x="1.14267" y="0.12700" />
<use xlink:href="#d3" x="1.14267" y="0.12700" />
<path d="M1.01567,0.12700 L1.26967,0.12700 L1.26967,1.65051 L1.01567,1.65051 Z" fill="#133d91ff" />
<use xlink:href="#d3" x="1.14267" y="1.65051" />
<use xlink:href="#d3" x="1.65051" y="1.65051" />
<path d="M1.77751,1.65051 L1.52351,1.65051 L1.52351,0.12700 L1.77751,0.12700 Z" fill="#133d91ff" />
<use xlink:href="#d3" x="1.65051" y="0.12700" />
<use xlink:href="#d3" x="1.65051" y="0.12700" />
<path d="M1.65051,0.25400 L1.65051,0.00000 L2.41226,0.00000 L2.41226,0.25400 Z" fill="#133d91ff" />
<use xlink:href="#d3" x="2.41226" y="0.12700" />
<use xlink:href="#d3" x="2.41226" y="0.12700" />
<path d="M2.322457438789308464401092766012684172010825835913563797353,0.2168025612106915355989072339873158279891741640864362026467 L2.502062561210691535598907233987315827989174164086436202647,0.0371974387893084644010927660126841720108258359135637973533 L2.755982561210691535598907233987315827989174164086436202647,0.2911174387893084644010927660126841720108258359135637973533 L2.576377438789308464401092766012684172010825835913563797353,0.4707225612106915355989072339873158279891741640864362026467 Z" fill="#133d91ff" />
<use xlink:href="#d3" x="2.66618" y="0.38092" />
<use xlink:href="#d3" x="2.66618" y="0.38092" />
<path d="M2.53918,0.38092 L2.79318,0.38092 L2.79318,0.88876 L2.53918,0.88876 Z" fill="#133d91ff" />
<use xlink:href="#d3" x="2.66618" y="0.88876" />
<use xlink:href="#d3" x="2.66618" y="0.88876" />
<path d="M2.576377438789308464401092766012684172010825835913563797353,0.7989574387893084644010927660126841720108258359135637973533 L2.755982561210691535598907233987315827989174164086436202647,0.9785625612106915355989072339873158279891741640864362026467 L2.502062561210691535598907233987315827989174164086436202647,1.2324825612106915355989072339873158279891741640864362026467 L2.322457438789308464401092766012684172010825835913563797353,1.0528774387893084644010927660126841720108258359135637973533 Z" fill="#133d91ff" />
<use xlink:href="#d3" x="2.41226" y="1.14268" />
<use xlink:href="#d3" x="2.41226" y="1.14268" />
<path d="M2.41226,1.01568 L2.41226,1.26968 L1.65051,1.26968 L1.65051,1.01568 Z" fill="#133d91ff" />
<use xlink:href="#d3" x="1.65051" y="1.14268" />
<use xlink:href="#d3" x="3.17401" y="1.65051" />
<path d="M3.17401,1.77751 L3.17401,1.52351 L3.68185,1.52351 L3.68185,1.77751 Z" fill="#133d91ff" />
<use xlink:href="#d3" x="3.68185" y="1.65051" />
<use xlink:href="#d3" x="3.68185" y="1.65051" />
<path d="M3.68185,1.52351 L3.68185,1.77751 L3.42793,1.77751 L3.42793,1.52351 Z" fill="#133d91ff" />
<use xlink:href="#d3" x="3.42793" y="1.65051" />
<use xlink:href="#d3" x="3.42793" y="1.65051" />
<path d="M3.55493,1.65051 L3.30093,1.65051 L3.30093,0.12700 L3.55493,0.12700 Z" fill="#133d91ff" />
<use xlink:href="#d3" x="3.42793" y="0.12700" />
<use xlink:href="#d3" x="3.42793" y="0.12700" />
<path d="M3.338127438789308464401092766012684172010825835913563797353,0.0371974387893084644010927660126841720108258359135637973533 L3.517732561210691535598907233987315827989174164086436202647,0.2168025612106915355989072339873158279891741640864362026467 L3.263812561210691535598907233987315827989174164086436202647,0.4707225612106915355989072339873158279891741640864362026467 L3.084207438789308464401092766012684172010825835913563797353,0.2911174387893084644010927660126841720108258359135637973533 Z" fill="#133d91ff" />
<use xlink:href="#d3" x="3.17401" y="0.38092" />
<use xlink:href="#d3" x="6.62907" y="10.10920" />
<path d="M6.62907,9.98220 L6.62907,10.23620 L6.12123,10.23620 L6.12123,9.98220 Z" fill="#133d91ff" />
<use xlink:href="#d3" x="6.12123" y="10.10920" />
<use xlink:href="#d3" x="6.12123" y="10.10920" />
<path d="M6.12123,10.23620 L6.12123,9.98220 L6.37515,9.98220 L6.37515,10.23620 Z" fill="#133d91ff" />
<use xlink:href="#d3" x="6.37515" y="10.10920" />
<use xlink:href="#d3" x="6.37515" y="10.10920" />
<path d="M6.24815,10.10920 L6.50215,10.10920 L6.50215,11.37879 L6.24815,11.37879 Z" fill="#133d91ff" />
<use xlink:href="#d3" x="6.37515" y="11.37879" />
<use xlink:href="#d3" x="6.37515" y="11.37879" />
<path d="M6.285347438789308464401092766012684172010825835913563797353,11.2889874387893084644010927660126841720108258359135637973533 L6.464952561210691535598907233987315827989174164086436202647,11.4685925612106915355989072339873158279891741640864362026467 L6.211032561210691535598907233987315827989174164086436202647,11.7225125612106915355989072339873158279891741640864362026467 L6.031427438789308464401092766012684172010825835913563797353,11.5429074387893084644010927660126841720108258359135637973533 Z" fill="#133d91ff" />
<use xlink:href="#d3" x="6.12123" y="11.63271" />
<use xlink:href="#d3" x="6.12123" y="11.63271" />
<path d="M6.12123,11.50571 L6.12123,11.75971 L5.86732,11.75971 L5.86732,11.50571 Z" fill="#133d91ff" />
<use xlink:href="#d3" x="5.86732" y="11.63271" />
<use xlink:href="#d3" x="5.86732" y="11.63271" />
<path d="M5.957122561210691535598907233987315827989174164086436202647,11.5429074387893084644010927660126841720108258359135637973533 L5.777517438789308464401092766012684172010825835913563797353,11.7225125612106915355989072339873158279891741640864362026467 L5.523597438789308464401092766012684172010825835913563797353,11.4685925612106915355989072339873158279891741640864362026467 L5.703202561210691535598907233987315827989174164086436202647,11.2889874387893084644010927660126841720108258359135637973533 Z" fill="#133d91ff" />
<use xlink:href="#d3" x="5.61340" y="11.37879" />
<use xlink:href="#d3" x="7.13692" y="11.63271" />
<path d="M7.13692,11.75971 L7.13692,11.50571 L7.64474,11.50571 L7.64474,11.75971 Z" fill="#133d91ff" />
<use xlink:href="#d3" x="7.64474" y="11.63271" />
<use xlink:href="#d3" x="7.64474" y="11.63271" />
<path d="M7.64474,11.50571 L7.64474,11.75971 L7.39084,11.75971 L7.39084,11.50571 Z" fill="#133d91ff" />
<use xlink:href="#d3" x="7.39084" y="11.63271" />
<use xlink:href="#d3" x="7.39084" y="11.63271" />
<path d="M7.51784,11.63271 L7.26384,11.63271 L7.26384,10.10920 L7.51784,10.10920 Z" fill="#133d91ff" />
<use xlink:href="#d3" x="7.39084" y="10.10920" />
<use xlink:href="#d3" x="7.39084" y="10.10920" />
<path d="M7.301037438789308464401092766012684172010825835913563797353,10.0193974387893084644010927660126841720108258359135637973533 L7.480642561210691535598907233987315827989174164086436202647,10.1990025612106915355989072339873158279891741640864362026467 L7.226722561210691535598907233987315827989174164086436202647,10.4529225612106915355989072339873158279891741640864362026467 L7.047117438789308464401092766012684172010825835913563797353,10.2733174387893084644010927660126841720108258359135637973533 Z" fill="#133d91ff" />
<use xlink:href="#d3" x="7.13692" y="10.36312" />
<use xlink:href="#d3" x="23.36799" y="9.34720" />
<path d="M23.36799,9.47420 L23.36799,9.22020 L24.38367,9.22020 L24.38367,9.47420 Z" fill="#133d91ff" />
<use xlink:href="#d3" x="24.38367" y="9.34720" />
<use xlink:href="#d3" x="24.38367" y="9.34720" />
<path d="M24.38367,9.22020 L24.38367,9.47420 L23.87582,9.47420 L23.87582,9.22020 Z" fill="#133d91ff" />
<use xlink:href="#d3" x="23.87582" y="9.34720" />
<use xlink:href="#d3" x="23.87582" y="9.34720" />
<path d="M23.74882,9.34720 L24.00282,9.34720 L24.00282,10.87071 L23.74882,10.87071 Z" fill="#133d91ff" />
<use xlink:href="#d3" x="23.87582" y="10.87071" />
<use xlink:href="#d3" x="24.89151" y="10.87071" />
<path d="M25.01851,10.87071 L24.76451,10.87071 L24.76451,9.34720 L25.01851,9.34720 Z" fill="#133d91ff" />
<use xlink:href="#d3" x="24.89151" y="9.34720" />
<use xlink:href="#d3" x="24.89151" y="9.34720" />
<path d="M24.89151,9.47420 L24.89151,9.22020 L25.65326,9.22020 L25.65326,9.47420 Z" fill="#133d91ff" />
<use xlink:href="#d3" x="25.65326" y="9.34720" />
<use xlink:href="#d3" x="25.65326" y="9.34720" />
<path d="M25.563457438789308464401092766012684172010825835913563797353,9.4370025612106915355989072339873158279891741640864362026467 L25.743062561210691535598907233987315827989174164086436202647,9.2573974387893084644010927660126841720108258359135637973533 L25.996982561210691535598907233987315827989174164086436202647,9.5113174387893084644010927660126841720108258359135637973533 L25.817377438789308464401092766012684172010825835913563797353,9.6909225612106915355989072339873158279891741640864362026467 Z" fill="#133d91ff" />
<use xlink:href="#d3" x="25.90718" y="9.60112" />
<use xlink:href="#d3" x="25.90718" y="9.60112" />
<path d="M25.78018,9.60112 L26.03418,9.60112 L26.03418,10.10896 L25.78018,10.10896 Z" fill="#133d91ff" />
<use xlink:href="#d3" x="25.90718" y="10.10896" />
<use xlink:href="#d3" x="25.90718" y="10.10896" />
<path d="M25.817377438789308464401092766012684172010825835913563797353,10.0191574387893084644010927660126841720108258359135637973533 L25.996982561210691535598907233987315827989174164086436202647,10.1987625612106915355989072339873158279891741640864362026467 L25.743062561210691535598907233987315827989174164086436202647,10.4526825612106915355989072339873158279891741640864362026467 L25.563457438789308464401092766012684172010825835913563797353,10.2730774387893084644010927660126841720108258359135637973533 Z" fill="#133d91ff" />
<use xlink:href="#d3" x="25.65326" y="10.36288" />
<use xlink:href="#d3" x="25.65326" y="10.36288" />
<path d="M25.65326,10.23588 L25.65326,10.48988 L24.89151,10.48988 L24.89151,10.23588 Z" fill="#133d91ff" />
<use xlink:href="#d3" x="24.89151" y="10.36288" />
<use xlink:href="#d3" x="26.41501" y="10.87071" />
<path d="M26.41501,10.99771 L26.41501,10.74371 L26.92285,10.74371 L26.92285,10.99771 Z" fill="#133d91ff" />
<use xlink:href="#d3" x="26.92285" y="10.87071" />
<use xlink:href="#d3" x="26.92285" y="10.87071" />
<path d="M26.92285,10.74371 L26.92285,10.99771 L26.66893,10.99771 L26.66893,10.74371 Z" fill="#133d91ff" />
<use xlink:href="#d3" x="26.66893" y="10.87071" />
<use xlink:href="#d3" x="26.66893" y="10.87071" />
<path d="M26.79593,10.87071 L26.54193,10.87071 L26.54193,9.34720 L26.79593,9.34720 Z" fill="#133d91ff" />
<use xlink:href="#d3" x="26.66893" y="9.34720" />
<use xlink:href="#d3" x="26.66893" y="9.34720" />
<path d="M26.579127438789308464401092766012684172010825835913563797353,9.2573974387893084644010927660126841720108258359135637973533 L26.758732561210691535598907233987315827989174164086436202647,9.4370025612106915355989072339873158279891741640864362026467 L26.504812561210691535598907233987315827989174164086436202647,9.6909225612106915355989072339873158279891741640864362026467 L26.325207438789308464401092766012684172010825835913563797353,9.5113174387893084644010927660126841720108258359135637973533 Z" fill="#133d91ff" />
<use xlink:href="#d3" x="26.41501" y="9.60112" />
<use xlink:href="#d3" x="23.36799" y="13.36040" />
<path d="M23.36799,13.48740 L23.36799,13.23340 L24.38367,13.23340 L24.38367,13.48740 Z" fill="#133d91ff" />
<use xlink:href="#d3" x="24.38367" y="13.36040" />
<use xlink:href="#d3" x="24.38367" y="13.36040" />
<path d="M24.38367,13.23340 L24.38367,13.48740 L23.87582,13.48740 L23.87582,13.23340 Z" fill="#133d91ff" />
<use xlink:href="#d3" x="23.87582" y="13.36040" />
<use xlink:href="#d3" x="23.87582" y="13.36040" />
<path d="M23.74882,13.36040 L24.00282,13.36040 L24.00282,14.88391 L23.74882,14.88391 Z" fill="#133d91ff" />
<use xlink:href="#d3" x="23.87582" y="14.88391" />
<use xlink:href="#d3" x="24.89151" y="14.88391" />
<path d="M25.01851,14.88391 L24.76451,14.88391 L24.76451,13.36040 L25.01851,13.36040 Z" fill="#133d91ff" />
<use xlink:href="#d3" x="24.89151" y="13.36040" />
<use xlink:href="#d3" x="24.89151" y="13.36040" />
<path d="M24.89151,13.48740 L24.89151,13.23340 L25.65326,13.23340 L25.65326,13.48740 Z" fill="#133d91ff" />
<use xlink:href="#d3" x="25.65326" y="13.36040" />
<use xlink:href="#d3" x="25.65326" y="13.36040" />
<path d="M25.563457438789308464401092766012684172010825835913563797353,13.4502025612106915355989072339873158279891741640864362026467 L25.743062561210691535598907233987315827989174164086436202647,13.2705974387893084644010927660126841720108258359135637973533 L25.996982561210691535598907233987315827989174164086436202647,13.5245174387893084644010927660126841720108258359135637973533 L25.817377438789308464401092766012684172010825835913563797353,13.7041225612106915355989072339873158279891741640864362026467 Z" fill="#133d91ff" />
<use xlink:href="#d3" x="25.90718" y="13.61432" />
<use xlink:href="#d3" x="25.90718" y="13.61432" />
<path d="M25.78018,13.61432 L26.03418,13.61432 L26.03418,14.12216 L25.78018,14.12216 Z" fill="#133d91ff" />
<use xlink:href="#d3" x="25.90718" y="14.12216" />
<use xlink:href="#d3" x="25.90718" y="14.12216" />
<path d="M25.817377438789308464401092766012684172010825835913563797353,14.0323574387893084644010927660126841720108258359135637973533 L25.996982561210691535598907233987315827989174164086436202647,14.2119625612106915355989072339873158279891741640864362026467 L25.743062561210691535598907233987315827989174164086436202647,14.4658825612106915355989072339873158279891741640864362026467 L25.563457438789308464401092766012684172010825835913563797353,14.2862774387893084644010927660126841720108258359135637973533 Z" fill="#133d91ff" />
<use xlink:href="#d3" x="25.65326" y="14.37608" />
<use xlink:href="#d3" x="25.65326" y="14.37608" />
<path d="M25.65326,14.24908 L25.65326,14.50308 L24.89151,14.50308 L24.89151,14.24908 Z" fill="#133d91ff" />
<use xlink:href="#d3" x="24.89151" y="14.37608" />
<use xlink:href="#d3" x="27.43069" y="14.88391" />
<path d="M27.43069,14.75691 L27.43069,15.01091 L26.41501,15.01091 L26.41501,14.75691 Z" fill="#133d91ff" />
<use xlink:href="#d3" x="26.41501" y="14.88391" />
<use xlink:href="#d3" x="26.41501" y="14.88391" />
<path d="M26.504812119126450753952719164519645505137212021758735198505,14.9737130032927560150193446700397900367813989841778453300950 L26.325207880873549246047280835480354494862787978241264801495,14.7941069967072439849806553299602099632186010158221546699050 L27.340887880873549246047280835480354494862787978241264801495,13.7784369967072439849806553299602099632186010158221546699050 L27.520492119126450753952719164519645505137212021758735198505,13.9580430032927560150193446700397900367813989841778453300950 Z" fill="#133d91ff" />
<use xlink:href="#d3" x="27.43069" y="13.86824" />
<use xlink:href="#d3" x="27.43069" y="13.86824" />
<path d="M27.55769,13.86824 L27.30369,13.86824 L27.30369,13.61432 L27.55769,13.61432 Z" fill="#133d91ff" />
<use xlink:href="#d3" x="27.43069" y="13.61432" />
<use xlink:href="#d3" x="27.43069" y="13.61432" />
<path d="M27.520492561210691535598907233987315827989174164086436202647,13.5245174387893084644010927660126841720108258359135637973533 L27.340887438789308464401092766012684172010825835913563797353,13.7041225612106915355989072339873158279891741640864362026467 L27.086967438789308464401092766012684172010825835913563797353,13.4502025612106915355989072339873158279891741640864362026467 L27.266572561210691535598907233987315827989174164086436202647,13.2705974387893084644010927660126841720108258359135637973533 Z" fill="#133d91ff" />
<use xlink:href="#d3" x="27.17677" y="13.36040" />
<use xlink:href="#d3" x="27.17677" y="13.36040" />
<path d="M27.17677,13.23340 L27.17677,13.48740 L26.66893,13.48740 L26.66893,13.23340 Z" fill="#133d91ff" />
<use xlink:href="#d3" x="26.66893" y="13.36040" />
<use xlink:href="#d3" x="26.66893" y="13.36040" />
<path d="M26.579127438789308464401092766012684172010825835913563797353,13.2705974387893084644010927660126841720108258359135637973533 L26.758732561210691535598907233987315827989174164086436202647,13.4502025612106915355989072339873158279891741640864362026467 L26.504812561210691535598907233987315827989174164086436202647,13.7041225612106915355989072339873158279891741640864362026467 L26.325207438789308464401092766012684172010825835913563797353,13.5245174387893084644010927660126841720108258359135637973533 Z" fill="#133d91ff" />
<use xlink:href="#d3" x="26.41501" y="13.61432" />
<use xlink:href="#d3" x="18.33880" y="11.07391" />
<path d="M18.46580,11.07391 L18.21180,11.07391 L18.21180,9.55040 L18.46580,9.55040 Z" fill="#133d91ff" />
<use xlink:href="#d3" x="18.33880" y="9.55040" />
<use xlink:href="#d3" x="18.33880" y="9.55040" />
<path d="M18.33880,9.67740 L18.33880,9.42340 L19.10055,9.42340 L19.10055,9.67740 Z" fill="#133d91ff" />
<use xlink:href="#d3" x="19.10055" y="9.55040" />
<use xlink:href="#d3" x="19.10055" y="9.55040" />
<path d="M19.010749207095803252714628911388433714558651789432724417916,9.6402043294823672024187707960425922607991554470279942050982 L19.190350792904196747285371088611566285441348210567275582084,9.4605956705176327975812292039574077392008445529720057949018 L19.444280792904196747285371088611566285441348210567275582084,9.7145156705176327975812292039574077392008445529720057949018 L19.264679207095803252714628911388433714558651789432724417916,9.8941243294823672024187707960425922607991554470279942050982 Z" fill="#133d91ff" />
<use xlink:href="#d3" x="19.35448" y="9.80432" />
<use xlink:href="#d3" x="19.35448" y="9.80432" />
<path d="M19.22748,9.80432 L19.48148,9.80432 L19.48148,10.31216 L19.22748,10.31216 Z" fill="#133d91ff" />
<use xlink:href="#d3" x="19.35448" y="10.31216" />
<use xlink:href="#d3" x="19.35448" y="10.31216" />
<path d="M19.264679207095803252714628911388433714558651789432724417916,10.2223556705176327975812292039574077392008445529720057949018 L19.444280792904196747285371088611566285441348210567275582084,10.4019643294823672024187707960425922607991554470279942050982 L19.190350792904196747285371088611566285441348210567275582084,10.6558843294823672024187707960425922607991554470279942050982 L19.010749207095803252714628911388433714558651789432724417916,10.4762756705176327975812292039574077392008445529720057949018 Z" fill="#133d91ff" />
<use xlink:href="#d3" x="19.10055" y="10.56608" />
<use xlink:href="#d3" x="19.10055" y="10.56608" />
<path d="M19.10055,10.43908 L19.10055,10.69308 L18.33880,10.69308 L18.33880,10.43908 Z" fill="#133d91ff" />
<use xlink:href="#d3" x="18.33880" y="10.56608" />
<use xlink:href="#d3" x="18.84663" y="10.56608" />
<path d="M18.756829207130623745468374729641129109798317798329141495094,10.6558843295171863238955672046782438642634824766527095518510 L18.936430792869376254531625270358870890201682201670858504906,10.4762756704828136761044327953217561357365175233472904481490 L19.444280792869376254531625270358870890201682201670858504906,10.9841056704828136761044327953217561357365175233472904481490 L19.264679207130623745468374729641129109798317798329141495094,11.1637143295171863238955672046782438642634824766527095518510 Z" fill="#133d91ff" />
<use xlink:href="#d3" x="19.35448" y="11.07391" />
<use xlink:href="#d3" x="19.86230" y="11.07391" />
<path d="M19.98930,11.07391 L19.73530,11.07391 L19.73530,9.55040 L19.98930,9.55040 Z" fill="#133d91ff" />
<use xlink:href="#d3" x="19.86230" y="9.55040" />
<use xlink:href="#d3" x="19.86230" y="9.55040" />
<path d="M19.756629505911683845886311314125943776769833432376759245163,9.6208467648592264364845981894321026342119075540940964860522 L19.967970494088316154113688685874056223230166567623240754837,9.4799532351407735635154018105678973657880924459059035139478 L20.983640494088316154113688685874056223230166567623240754837,11.0034632351407735635154018105678973657880924459059035139478 L20.772299505911683845886311314125943776769833432376759245163,11.1443567648592264364845981894321026342119075540940964860522 Z" fill="#133d91ff" />
<use xlink:href="#d3" x="20.87797" y="11.07391" />
<use xlink:href="#d3" x="20.87797" y="11.07391" />
<path d="M21.00497,11.07391 L20.75097,11.07391 L20.75097,9.55040 L21.00497,9.55040 Z" fill="#133d91ff" />
<use xlink:href="#d3" x="20.87797" y="9.55040" />
<use xlink:href="#d3" x="22.40149" y="11.07391" />
<path d="M22.40149,10.94691 L22.40149,11.20091 L21.38582,11.20091 L21.38582,10.94691 Z" fill="#133d91ff" />
<use xlink:href="#d3" x="21.38582" y="11.07391" />
<use xlink:href="#d3" x="21.38582" y="11.07391" />
<path d="M21.475622561210691535598907233987315827989174164086436202647,11.1637125612106915355989072339873158279891741640864362026467 L21.296017438789308464401092766012684172010825835913563797353,10.9841074387893084644010927660126841720108258359135637973533 L22.311687438789308464401092766012684172010825835913563797353,9.9684374387893084644010927660126841720108258359135637973533 L22.491292561210691535598907233987315827989174164086436202647,10.1480425612106915355989072339873158279891741640864362026467 Z" fill="#133d91ff" />
<use xlink:href="#d3" x="22.40149" y="10.05824" />
<use xlink:href="#d3" x="22.40149" y="10.05824" />
<path d="M22.52849,10.05824 L22.27449,10.05824 L22.27449,9.80432 L22.52849,9.80432 Z" fill="#133d91ff" />
<use xlink:href="#d3" x="22.40149" y="9.80432" />
<use xlink:href="#d3" x="22.40149" y="9.80432" />
<path d="M22.491292561210691535598907233987315827989174164086436202647,9.7145174387893084644010927660126841720108258359135637973533 L22.311687438789308464401092766012684172010825835913563797353,9.8941225612106915355989072339873158279891741640864362026467 L22.057767438789308464401092766012684172010825835913563797353,9.6402025612106915355989072339873158279891741640864362026467 L22.237372561210691535598907233987315827989174164086436202647,9.4605974387893084644010927660126841720108258359135637973533 Z" fill="#133d91ff" />
<use xlink:href="#d3" x="22.14757" y="9.55040" />
<use xlink:href="#d3" x="22.14757" y="9.55040" />
<path d="M22.14757,9.42340 L22.14757,9.67740 L21.63972,9.67740 L21.63972,9.42340 Z" fill="#133d91ff" />
<use xlink:href="#d3" x="21.63972" y="9.55040" />
<use xlink:href="#d3" x="21.63972" y="9.55040" />
<path d="M21.549913902071859466802891512191083295094113250947692224292,9.4606009756460504041479763506037966628244933617502325761960 L21.729526097928140533197108487808916704905886749052307775708,9.6401990243539495958520236493962033371755066382497674238040 L21.475626097928140533197108487808916704905886749052307775708,9.8941190243539495958520236493962033371755066382497674238040 L21.296013902071859466802891512191083295094113250947692224292,9.7145209756460504041479763506037966628244933617502325761960 Z" fill="#133d91ff" />
<use xlink:href="#d3" x="21.38582" y="9.80432" />
<use xlink:href="#d3" x="13.00480" y="11.07391" />
<path d="M13.13180,11.07391 L12.87780,11.07391 L12.87780,9.55040 L13.13180,9.55040 Z" fill="#133d91ff" />
<use xlink:href="#d3" x="13.00480" y="9.55040" />
<use xlink:href="#d3" x="13.00480" y="9.55040" />
<path d="M13.00480,9.67740 L13.00480,9.42340 L13.76655,9.42340 L13.76655,9.67740 Z" fill="#133d91ff" />
<use xlink:href="#d3" x="13.76655" y="9.55040" />
<use xlink:href="#d3" x="13.76655" y="9.55040" />
<path d="M13.676749207095803252714628911388433714558651789432724417916,9.6402043294823672024187707960425922607991554470279942050982 L13.856350792904196747285371088611566285441348210567275582084,9.4605956705176327975812292039574077392008445529720057949018 L14.110280792904196747285371088611566285441348210567275582084,9.7145156705176327975812292039574077392008445529720057949018 L13.930679207095803252714628911388433714558651789432724417916,9.8941243294823672024187707960425922607991554470279942050982 Z" fill="#133d91ff" />
<use xlink:href="#d3" x="14.02048" y="9.80432" />
<use xlink:href="#d3" x="14.02048" y="9.80432" />
<path d="M13.89348,9.80432 L14.14748,9.80432 L14.14748,10.31216 L13.89348,10.31216 Z" fill="#133d91ff" />
<use xlink:href="#d3" x="14.02048" y="10.31216" />
<use xlink:href="#d3" x="14.02048" y="10.31216" />
<path d="M13.930679207095803252714628911388433714558651789432724417916,10.2223556705176327975812292039574077392008445529720057949018 L14.110280792904196747285371088611566285441348210567275582084,10.4019643294823672024187707960425922607991554470279942050982 L13.856350792904196747285371088611566285441348210567275582084,10.6558843294823672024187707960425922607991554470279942050982 L13.676749207095803252714628911388433714558651789432724417916,10.4762756705176327975812292039574077392008445529720057949018 Z" fill="#133d91ff" />
<use xlink:href="#d3" x="13.76655" y="10.56608" />
<use xlink:href="#d3" x="13.76655" y="10.56608" />
<path d="M13.76655,10.43908 L13.76655,10.69308 L13.00480,10.69308 L13.00480,10.43908 Z" fill="#133d91ff" />
<use xlink:href="#d3" x="13.00480" y="10.56608" />
<use xlink:href="#d3" x="13.51263" y="10.56608" />
<path d="M13.422829207130623745468374729641129109798317798329141495094,10.6558843295171863238955672046782438642634824766527095518510 L13.602430792869376254531625270358870890201682201670858504906,10.4762756704828136761044327953217561357365175233472904481490 L14.110280792869376254531625270358870890201682201670858504906,10.9841056704828136761044327953217561357365175233472904481490 L13.930679207130623745468374729641129109798317798329141495094,11.1637143295171863238955672046782438642634824766527095518510 Z" fill="#133d91ff" />
<use xlink:href="#d3" x="14.02048" y="11.07391" />
<use xlink:href="#d3" x="14.52830" y="11.07391" />
<path d="M14.65530,11.07391 L14.40130,11.07391 L14.40130,9.55040 L14.65530,9.55040 Z" fill="#133d91ff" />
<use xlink:href="#d3" x="14.52830" y="9.55040" />
<use xlink:href="#d3" x="14.52830" y="9.55040" />
<path d="M14.422629505911683845886311314125943776769833432376759245163,9.6208467648592264364845981894321026342119075540940964860522 L14.633970494088316154113688685874056223230166567623240754837,9.4799532351407735635154018105678973657880924459059035139478 L15.649640494088316154113688685874056223230166567623240754837,11.0034632351407735635154018105678973657880924459059035139478 L15.438299505911683845886311314125943776769833432376759245163,11.1443567648592264364845981894321026342119075540940964860522 Z" fill="#133d91ff" />
<use xlink:href="#d3" x="15.54397" y="11.07391" />
<use xlink:href="#d3" x="15.54397" y="11.07391" />
<path d="M15.67097,11.07391 L15.41697,11.07391 L15.41697,9.55040 L15.67097,9.55040 Z" fill="#133d91ff" />
<use xlink:href="#d3" x="15.54397" y="9.55040" />
<use xlink:href="#d3" x="16.05182" y="11.07391" />
<path d="M16.05182,11.20091 L16.05182,10.94691 L16.55965,10.94691 L16.55965,11.20091 Z" fill="#133d91ff" />
<use xlink:href="#d3" x="16.55965" y="11.07391" />
<use xlink:href="#d3" x="16.55965" y="11.07391" />
<path d="M16.55965,10.94691 L16.55965,11.20091 L16.30572,11.20091 L16.30572,10.94691 Z" fill="#133d91ff" />
<use xlink:href="#d3" x="16.30572" y="11.07391" />
<use xlink:href="#d3" x="16.30572" y="11.07391" />
<path d="M16.43272,11.07391 L16.17872,11.07391 L16.17872,9.55040 L16.43272,9.55040 Z" fill="#133d91ff" />
<use xlink:href="#d3" x="16.30572" y="9.55040" />
<use xlink:href="#d3" x="16.30572" y="9.55040" />
<path d="M16.215913902071859466802891512191083295094113250947692224292,9.4606009756460504041479763506037966628244933617502325761960 L16.395526097928140533197108487808916704905886749052307775708,9.6401990243539495958520236493962033371755066382497674238040 L16.141626097928140533197108487808916704905886749052307775708,9.8941190243539495958520236493962033371755066382497674238040 L15.962013902071859466802891512191083295094113250947692224292,9.7145209756460504041479763506037966628244933617502325761960 Z" fill="#133d91ff" />
<use xlink:href="#d3" x="16.05182" y="9.80432" />
</g>
</svg>