<?xml version="1.0" encoding="UTF-8"?>
<svg xmlns="http://www.w3.org/2000/svg" xmlns:xlink="http://www.w3.org/1999/xlink"
     width="24.14384" height="14.97885" viewBox="0 0 24.14384 14.97885">
<defs>
<mask id="d0">
<rect x="-12.07192" y="-7.489425" width="48.28768" height="29.95770" fill="white" />
</mask>
<g id="d1">
<rect x="-1.100000" y="-0.525000" width="2.200000" height="1.050000" fill="#133d91ff" transform="rotate(-0.0)" />
</g>
<g id="d2">
<rect x="-0.525000" y="-0.500000" width="1.050000" height="1.000000" fill="#133d91ff" transform="rotate(-0.0)" />
</g>
<g id="d3">
<rect x="-0.475000" y="-0.225000" width="0.950000" height="0.450000" fill="#133d91ff" transform="rotate(-0.0)" />
</g>
<g id="d4">
<circle cx="0" cy="0" r="0.1270" fill="#133d91ff" />
</g>
<g id="d5">
<circle cx="0" cy="0" r="3.5000" fill="#133d91ff" />
</g>
<g id="d6">
<circle cx="0" cy="0" r="0.5000" fill="#133d91ff" />
</g>
<g id="d7">
<circle cx="0" cy="0" r="0.5000" fill="#133d91ff" />
</g>
<g id="d8">
<circle cx="0" cy="0" r="0.6350" fill="#133d91ff" />
</g>
</defs>
<g mask="url(#d0)">
<g></g>
<use xlink:href="#d1" x="7.64384" y="13.64385" />
<use xlink:href="#d1" x="7.64384" y="10.69385" />
<use xlink:href="#d2" x="6.11885" y="12.16885" />
<use xlink:href="#d3" x="18.96484" y="9.94785" />
<use xlink:href="#d3" x="18.96484" y="10.74785" />
<use xlink:href="#d3" x="18.96484" y="11.54785" />
<use xlink:href="#d3" x="18.96484" y="12.34785" />
<use xlink:href="#d3" x="20.71484" y="9.94785" />
<use xlink:href="#d3" x="20.71484" y="10.74785" />
<use xlink:href="#d3" x="20.71484" y="11.54785" />
<use xlink:href="#d3" x="20.71484" y="12.34785" />
<use xlink:href="#d3" x="13.63084" y="9.94785" />
<use xlink:href="#d3" x="13.63084" y="10.74785" />
<use xlink:href="#d3" x="13.63084" y="11.54785" />
<use xlink:href="#d3" x="13.63084" y="12.34785" />
<use xlink:href="#d3" x="15.38084" y="9.94785" />
<use xlink:href="#d3" x="15.38084" y="10.74785" />
<use xlink:href="#d3" x="15.38084" y="11.54785" />
<use xlink:href="#d3" x="15.38084" y="12.34785" />
<use xlink:href="#d4" x="18.94384" y="12.36885" />
<path d="M19.03364256,12.45865256 L18.85403744,12.27904744 L18.87503744,12.25804744 L19.05464256,12.43765256 Z" fill="#133d91ff" />
<use xlink:href="#d4" x="18.96484" y="12.34785" />
<use xlink:href="#d4" x="18.94384" y="14.24385" />
<path d="M19.07084000,14.24385000 L18.81684000,14.24385000 L18.81684000,12.36885000 L19.07084000,12.36885000 Z" fill="#133d91ff" />
<use xlink:href="#d4" x="18.94384" y="12.36885" />
<use xlink:href="#d4" x="15.34384" y="12.38485" />
<path d="M15.43364256,12.47465256 L15.25403744,12.29504744 L15.29103744,12.25804744 L15.47064256,12.43765256 Z" fill="#133d91ff" />
<use xlink:href="#d4" x="15.38084" y="12.34785" />
<use xlink:href="#d4" x="15.34384" y="14.34385" />
<path d="M15.47084000,14.34385000 L15.21684000,14.34385000 L15.21684000,12.38485000 L15.47084000,12.38485000 Z" fill="#133d91ff" />
<use xlink:href="#d4" x="15.34384" y="12.38485" />
<use xlink:href="#d4" x="13.63084" y="12.34785" />
<path d="M13.54103744,12.43765256 L13.72064256,12.25804744 L13.73364256,12.27104744 L13.55403744,12.45065256 Z" fill="#133d91ff" />
<use xlink:href="#d4" x="13.64384" y="12.36085" />
<use xlink:href="#d4" x="20.71484" y="12.34785" />
<path d="M20.71484000,12.47485000 L20.71484000,12.22085000 L20.96484000,12.22085000 L20.96484000,12.47485000 Z" fill="#133d91ff" />
<use xlink:href="#d4" x="20.96484" y="12.34785" />
<use xlink:href="#d4" x="20.96484" y="12.34785" />
<path d="M20.87503744,12.43765256 L21.05464256,12.25804744 L22.35064256,13.55404744 L22.17103744,13.73365256 Z" fill="#133d91ff" />
<use xlink:href="#d4" x="22.26084" y="13.64385" />
<use xlink:href="#d4" x="22.26084" y="13.64385" />
<path d="M22.26084000,13.77085000 L22.26084000,13.51685000 L23.64384000,13.51685000 L23.64384000,13.77085000 Z" fill="#133d91ff" />
<use xlink:href="#d4" x="23.64384" y="13.64385" />
<use xlink:href="#d4" x="20.71484" y="9.94785" />
<path d="M20.71484000,10.07485000 L20.71484000,9.82085000 L23.13797000,9.82085000 L23.13797000,10.07485000 Z" fill="#133d91ff" />
<use xlink:href="#d4" x="23.13797" y="9.94785" />
<use xlink:href="#d4" x="23.13797" y="9.94785" />
<path d="M23.22777256,10.03765256 L23.04816744,9.85804744 L23.35216744,9.55404744 L23.53177256,9.73365256 Z" fill="#133d91ff" />
<use xlink:href="#d4" x="23.44197" y="9.64385" />
<use xlink:href="#d4" x="23.44197" y="9.64385" />
<path d="M23.44197000,9.77085000 L23.44197000,9.51685000 L23.64384000,9.51685000 L23.64384000,9.77085000 Z" fill="#133d91ff" />
<use xlink:href="#d4" x="23.64384" y="9.64385" />
<use xlink:href="#d4" x="7.64384" y="10.69385" />
<path d="M7.73364256,10.78365256 L7.55403744,10.60404744 L7.60403744,10.55404744 L7.78364256,10.73365256 Z" fill="#133d91ff" />
<use xlink:href="#d4" x="7.69384" y="10.64385" />
<use xlink:href="#d4" x="7.69384" y="10.64385" />
<path d="M7.69384000,10.77085000 L7.69384000,10.51685000 L10.64384000,10.51685000 L10.64384000,10.77085000 Z" fill="#133d91ff" />
<use xlink:href="#d4" x="10.64384" y="10.64385" />
<use xlink:href="#d4" x="11.54785" y="11.54785" />
<path d="M11.54785000,11.67485000 L11.54785000,11.42085000 L13.63084000,11.42085000 L13.63084000,11.67485000 Z" fill="#133d91ff" />
<use xlink:href="#d4" x="13.63084" y="11.54785" />
<use xlink:href="#d4" x="10.64384" y="10.64385" />
<path d="M10.55403794,10.73365306 L10.73364206,10.55404694 L11.63765206,11.45804694 L11.45804794,11.63765306 Z" fill="#133d91ff" />
<use xlink:href="#d4" x="11.54785" y="11.54785" />
<use xlink:href="#d4" x="11.93985" y="12.34785" />
<path d="M11.93985000,12.47485000 L11.93985000,12.22085000 L13.63084000,12.22085000 L13.63084000,12.47485000 Z" fill="#133d91ff" />
<use xlink:href="#d4" x="13.63084" y="12.34785" />
<use xlink:href="#d4" x="10.64384" y="13.64385" />
<path d="M10.73364221,13.73365291 L10.55403779,13.55404709 L11.85004779,12.25804709 L12.02965221,12.43765291 Z" fill="#133d91ff" />
<use xlink:href="#d4" x="11.93985" y="12.34785" />
<use xlink:href="#d4" x="7.64384" y="13.64385" />
<path d="M7.64384000,13.77085000 L7.64384000,13.51685000 L10.64384000,13.51685000 L10.64384000,13.77085000 Z" fill="#133d91ff" />
<use xlink:href="#d4" x="10.64384" y="13.64385" />
<use xlink:href="#d4" x="15.38084" y="11.54785" />
<path d="M15.38084000,11.67485000 L15.38084000,11.42085000 L18.96484000,11.42085000 L18.96484000,11.67485000 Z" fill="#133d91ff" />
<use xlink:href="#d4" x="18.96484" y="11.54785" />
<use xlink:href="#d4" x="15.38084" y="10.74785" />
<path d="M15.38084000,10.87485000 L15.38084000,10.62085000 L18.96484000,10.62085000 L18.96484000,10.87485000 Z" fill="#133d91ff" />
<use xlink:href="#d4" x="18.96484" y="10.74785" />
<use xlink:href="#d4" x="15.38084" y="9.94785" />
<path d="M15.38084000,10.07485000 L15.38084000,9.82085000 L18.96484000,9.82085000 L18.96484000,10.07485000 Z" fill="#133d91ff" />
<use xlink:href="#d4" x="18.96484" y="9.94785" />
<use xlink:href="#d4" x="5.16883" y="12.16885" />
<path d="M5.16883000,12.29585000 L5.16883000,12.04185000 L6.11885000,12.04185000 L6.11885000,12.29585000 Z" fill="#133d91ff" />
<use xlink:href="#d4" x="6.11885" y="12.16885" />
<use xlink:href="#d4" x="4.64384" y="11.64385" />
<path d="M4.55403658,11.73365171 L4.73364342,11.55404829 L5.25863342,12.07904829 L5.07902658,12.25865171 Z" fill="#133d91ff" />
<use xlink:href="#d4" x="5.16883" y="12.16885" />
<use xlink:href="#d4" x="4.64384" y="11.64385" />
<path d="M4.77084000,11.64385000 L4.51684000,11.64385000 L4.51684000,10.64385000 L4.77084000,10.64385000 Z" fill="#133d91ff" />
<use xlink:href="#d4" x="4.64384" y="10.64385" />
<use xlink:href="#d4" x="4.64384" y="10.64385" />
<path d="M4.73364256,10.73365256 L4.55403744,10.55404744 L5.55403744,9.55404744 L5.73364256,9.73365256 Z" fill="#133d91ff" />
<use xlink:href="#d4" x="5.64384" y="9.64385" />
<use xlink:href="#d4" x="5.64384" y="9.64385" />
<path d="M5.64384000,9.77085000 L5.64384000,9.51685000 L11.64384000,9.51685000 L11.64384000,9.77085000 Z" fill="#133d91ff" />
<use xlink:href="#d4" x="11.64384" y="9.64385" />
<use xlink:href="#d4" x="12.74784" y="10.74785" />
<path d="M12.74784000,10.87485000 L12.74784000,10.62085000 L13.63084000,10.62085000 L13.63084000,10.87485000 Z" fill="#133d91ff" />
<use xlink:href="#d4" x="13.63084" y="10.74785" />
<use xlink:href="#d4" x="11.64384" y="9.64385" />
<path d="M11.55403744,9.73365256 L11.73364256,9.55404744 L12.83764256,10.65804744 L12.65803744,10.83765256 Z" fill="#133d91ff" />
<use xlink:href="#d4" x="12.74784" y="10.74785" />
<use xlink:href="#d5" x="3.50000" y="3.50000" />
<use xlink:href="#d6" x="3.50000" y="6.12500" />
<use xlink:href="#d6" x="1.64384" y="5.35616" />
<use xlink:href="#d6" x="0.87500" y="3.50000" />
<use xlink:href="#d6" x="5.35615" y="5.35616" />
<use xlink:href="#d6" x="6.12500" y="3.50000" />
<use xlink:href="#d6" x="5.35615" y="1.64385" />
<use xlink:href="#d6" x="3.50000" y="0.87500" />
<use xlink:href="#d6" x="1.64384" y="1.64385" />
<use xlink:href="#d7" x="23.64384" y="9.64385" />
<use xlink:href="#d7" x="23.64384" y="13.64385" />
<use xlink:href="#d8" x="18.94384" y="14.24385" />
<use xlink:href="#d8" x="15.34384" y="14.34385" />
</g>
</svg>