<?xml version="1.0" encoding="UTF-8"?>
<svg xmlns="http://www.w3.org/2000/svg" xmlns:xlink="http://www.w3.org/1999/xlink"
     width="27.55769" height="16.70671" viewBox="0 0 27.55769 16.70671">
<defs>
<mask id="d0">
<rect x="-13.778845" y="-8.353355" width="55.11538" height="33.41342" fill="white" />
</mask>
<g id="d1">
<circle cx="0" cy="0" r="0.0500" fill="#133d91ff" />
</g>
<g id="d2">
<circle cx="0" cy="0" r="0.1000" fill="#133d91ff" />
</g>
<g id="d3">
<circle cx="0" cy="0" r="0.1270" fill="#133d91ff" />
</g>
</defs>
<g mask="url(#d0)">
<g></g>
<use xlink:href="#d1" x="18.51820" y="12.00771" />
<path d="M18.56820000,12.00771000 A0.10000000,0.10000000,0,1,1,18.36820000,12.00771000 L18.46820000,12.00771000 A0.00000000,0.00000000,0,0,0,18.46820000,12.00771000 Z" fill="#133d91ff" />
<use xlink:href="#d1" x="18.41820" y="12.00771" />
<use xlink:href="#d1" x="18.41820" y="12.00771" />
<path d="M18.36820000,12.00771000 A0.10000000,0.10000000,0,1,1,18.56820000,12.00771000 L18.46820000,12.00771000 A0.00000000,0.00000000,0,0,0,18.46820000,12.00771000 Z" fill="#133d91ff" />
<use xlink:href="#d1" x="18.51820" y="12.00771" />
<use xlink:href="#d1" x="13.18420" y="12.00771" />
<path d="M13.23420000,12.00771000 A0.10000000,0.10000000,0,1,1,13.03420000,12.00771000 L13.13420000,12.00771000 A0.00000000,0.00000000,0,0,0,13.13420000,12.00771000 Z" fill="#133d91ff" />
<use xlink:href="#d1" x="13.08420" y="12.00771" />
<use xlink:href="#d1" x="13.08420" y="12.00771" />
<path d="M13.03420000,12.00771000 A0.10000000,0.10000000,0,1,1,13.23420000,12.00771000 L13.13420000,12.00771000 A0.00000000,0.00000000,0,0,0,13.13420000,12.00771000 Z" fill="#133d91ff" />
<use xlink:href="#d1" x="13.18420" y="12.00771" />
<use xlink:href="#d2" x="5.86720" y="13.05071" />
<path d="M5.86720000,13.15071000 L5.86720000,12.95071000 L6.12120000,12.95071000 L6.12120000,13.15071000 Z" fill="#133d91ff" />
<use xlink:href="#d2" x="6.12120" y="13.05071" />
<use xlink:href="#d2" x="9.42320" y="16.60671" />
<path d="M9.42320000,16.70671000 L9.42320000,16.50671000 L9.67720000,16.50671000 L9.67720000,16.70671000 Z" fill="#133d91ff" />
<use xlink:href="#d2" x="9.67720" y="16.60671" />
<use xlink:href="#d2" x="5.86720" y="16.60671" />
<path d="M5.96720000,16.60671000 L5.76720000,16.60671000 L5.76720000,15.97171000 L5.96720000,15.97171000 Z" fill="#133d91ff" />
<use xlink:href="#d2" x="5.86720" y="15.97171" />
<use xlink:href="#d2" x="5.86720" y="13.68571" />
<path d="M5.96720000,13.68571000 L5.76720000,13.68571000 L5.76720000,13.05071000 L5.96720000,13.05071000 Z" fill="#133d91ff" />
<use xlink:href="#d2" x="5.86720" y="13.05071" />
<use xlink:href="#d2" x="9.42320" y="13.05071" />
<path d="M9.42320000,13.15071000 L9.42320000,12.95071000 L9.67720000,12.95071000 L9.67720000,13.15071000 Z" fill="#133d91ff" />
<use xlink:href="#d2" x="9.67720" y="13.05071" />
<use xlink:href="#d2" x="9.67720" y="15.84471" />
<path d="M9.77720000,15.84471000 L9.57720000,15.84471000 L9.57720000,13.05071000 L9.77720000,13.05071000 Z" fill="#133d91ff" />
<use xlink:href="#d2" x="9.67720" y="13.05071" />
<use xlink:href="#d2" x="9.67720" y="16.60671" />
<path d="M9.77720000,16.60671000 L9.57720000,16.60671000 L9.57720000,15.84471000 L9.77720000,15.84471000 Z" fill="#133d91ff" />
<use xlink:href="#d2" x="9.67720" y="15.84471" />
<use xlink:href="#d2" x="5.86720" y="16.60671" />
<path d="M5.86720000,16.70671000 L5.86720000,16.50671000 L6.12120000,16.50671000 L6.12120000,16.70671000 Z" fill="#133d91ff" />
<use xlink:href="#d2" x="6.12120" y="16.60671" />
<use xlink:href="#d3" x="0.12700" y="1.65051" />
<path d="M0.25400000,1.65051000 L0.00000000,1.65051000 L0.00000000,0.12700000 L0.25400000,0.12700000 Z" fill="#133d91ff" />
<use xlink:href="#d3" x="0.12700" y="0.12700" />
<use xlink:href="#d3" x="0.12700" y="0.12700" />
<path d="M0.03719655,0.21680168 L0.21680345,0.03719832 L0.72463345,0.54503832 L0.54502655,0.72464168 Z" fill="#133d91ff" />
<use xlink:href="#d3" x="0.63483" y="0.63484" />
<use xlink:href="#d3" x="0.63483" y="0.63484" />
<path d="M0.72463256,0.72464256 L0.54502744,0.54503744 L1.05286744,0.03719744 L1.23247256,0.21680256 Z" fill="#133d91ff" />
<use xlink:href="#d3" x="1.14267" y="0.12700" />
<use xlink:href="#d3" x="1.14267" y="0.12700" />
<path d="M1.01567000,0.12700000 L1.26967000,0.12700000 L1.26967000,1.65051000 L1.01567000,1.65051000 Z" fill="#133d91ff" />
<use xlink:href="#d3" x="1.14267" y="1.65051" />
<use xlink:href="#d3" x="1.65051" y="1.65051" />
<path d="M1.77751000,1.65051000 L1.52351000,1.65051000 L1.52351000,0.12700000 L1.77751000,0.12700000 Z" fill="#133d91ff" />
<use xlink:href="#d3" x="1.65051" y="0.12700" />
<use xlink:href="#d3" x="1.65051" y="0.12700" />
<path d="M1.65051000,0.25400000 L1.65051000,0.00000000 L2.41226000,0.00000000 L2.41226000,0.25400000 Z" fill="#133d91ff" />
<use xlink:href="#d3" x="2.41226" y="0.12700" />
<use xlink:href="#d3" x="2.41226" y="0.12700" />
<path d="M2.32245744,0.21680256 L2.50206256,0.03719744 L2.75598256,0.29111744 L2.57637744,0.47072256 Z" fill="#133d91ff" />
<use xlink:href="#d3" x="2.66618" y="0.38092" />
<use xlink:href="#d3" x="2.66618" y="0.38092" />
<path d="M2.53918000,0.38092000 L2.79318000,0.38092000 L2.79318000,0.88876000 L2.53918000,0.88876000 Z" fill="#133d91ff" />
<use xlink:href="#d3" x="2.66618" y="0.88876" />
<use xlink:href="#d3" x="2.66618" y="0.88876" />
<path d="M2.57637744,0.79895744 L2.75598256,0.97856256 L2.50206256,1.23248256 L2.32245744,1.05287744 Z" fill="#133d91ff" />
<use xlink:href="#d3" x="2.41226" y="1.14268" />
<use xlink:href="#d3" x="2.41226" y="1.14268" />
<path d="M2.41226000,1.01568000 L2.41226000,1.26968000 L1.65051000,1.26968000 L1.65051000,1.01568000 Z" fill="#133d91ff" />
<use xlink:href="#d3" x="1.65051" y="1.14268" />
<use xlink:href="#d3" x="3.17401" y="1.65051" />
<path d="M3.17401000,1.77751000 L3.17401000,1.52351000 L3.68185000,1.52351000 L3.68185000,1.77751000 Z" fill="#133d91ff" />
<use xlink:href="#d3" x="3.68185" y="1.65051" />
<use xlink:href="#d3" x="3.68185" y="1.65051" />
<path d="M3.68185000,1.52351000 L3.68185000,1.77751000 L3.42793000,1.77751000 L3.42793000,1.52351000 Z" fill="#133d91ff" />
<use xlink:href="#d3" x="3.42793" y="1.65051" />
<use xlink:href="#d3" x="3.42793" y="1.65051" />
<path d="M3.55493000,1.65051000 L3.30093000,1.65051000 L3.30093000,0.12700000 L3.55493000,0.12700000 Z" fill="#133d91ff" />
<use xlink:href="#d3" x="3.42793" y="0.12700" />
<use xlink:href="#d3" x="3.42793" y="0.12700" />
<path d="M3.33812744,0.03719744 L3.51773256,0.21680256 L3.26381256,0.47072256 L3.08420744,0.29111744 Z" fill="#133d91ff" />
<use xlink:href="#d3" x="3.17401" y="0.38092" />
<use xlink:href="#d3" x="6.62907" y="10.10920" />
<path d="M6.62907000,9.98220000 L6.62907000,10.23620000 L6.12123000,10.23620000 L6.12123000,9.98220000 Z" fill="#133d91ff" />
<use xlink:href="#d3" x="6.12123" y="10.10920" />
<use xlink:href="#d3" x="6.12123" y="10.10920" />
<path d="M6.12123000,10.23620000 L6.12123000,9.98220000 L6.37515000,9.98220000 L6.37515000,10.23620000 Z" fill="#133d91ff" />
<use xlink:href="#d3" x="6.37515" y="10.10920" />
<use xlink:href="#d3" x="6.37515" y="10.10920" />
<path d="M6.24815000,10.10920000 L6.50215000,10.10920000 L6.50215000,11.37879000 L6.24815000,11.37879000 Z" fill="#133d91ff" />
<use xlink:href="#d3" x="6.37515" y="11.37879" />
<use xlink:href="#d3" x="6.37515" y="11.37879" />
<path d="M6.28534744,11.28898744 L6.46495256,11.46859256 L6.21103256,11.72251256 L6.03142744,11.54290744 Z" fill="#133d91ff" />
<use xlink:href="#d3" x="6.12123" y="11.63271" />
<use xlink:href="#d3" x="6.12123" y="11.63271" />
<path d="M6.12123000,11.50571000 L6.12123000,11.75971000 L5.86732000,11.75971000 L5.86732000,11.50571000 Z" fill="#133d91ff" />
<use xlink:href="#d3" x="5.86732" y="11.63271" />
<use xlink:href="#d3" x="5.86732" y="11.63271" />
<path d="M5.95712256,11.54290744 L5.77751744,11.72251256 L5.52359744,11.46859256 L5.70320256,11.28898744 Z" fill="#133d91ff" />
<use xlink:href="#d3" x="5.61340" y="11.37879" />
<use xlink:href="#d3" x="7.13692" y="11.63271" />
<path d="M7.13692000,11.75971000 L7.13692000,11.50571000 L7.64474000,11.50571000 L7.64474000,11.75971000 Z" fill="#133d91ff" />
<use xlink:href="#d3" x="7.64474" y="11.63271" />
<use xlink:href="#d3" x="7.64474" y="11.63271" />
<path d="M7.64474000,11.50571000 L7.64474000,11.75971000 L7.39084000,11.75971000 L7.39084000,11.50571000 Z" fill="#133d91ff" />
<use xlink:href="#d3" x="7.39084" y="11.63271" />
<use xlink:href="#d3" x="7.39084" y="11.63271" />
<path d="M7.51784000,11.63271000 L7.26384000,11.63271000 L7.26384000,10.10920000 L7.51784000,10.10920000 Z" fill="#133d91ff" />
<use xlink:href="#d3" x="7.39084" y="10.10920" />
<use xlink:href="#d3" x="7.39084" y="10.10920" />
<path d="M7.30103744,10.01939744 L7.48064256,10.19900256 L7.22672256,10.45292256 L7.04711744,10.27331744 Z" fill="#133d91ff" />
<use xlink:href="#d3" x="7.13692" y="10.36312" />
<use xlink:href="#d3" x="23.36799" y="9.34720" />
<path d="M23.36799000,9.47420000 L23.36799000,9.22020000 L24.38367000,9.22020000 L24.38367000,9.47420000 Z" fill="#133d91ff" />
<use xlink:href="#d3" x="24.38367" y="9.34720" />
<use xlink:href="#d3" x="24.38367" y="9.34720" />
<path d="M24.38367000,9.22020000 L24.38367000,9.47420000 L23.87582000,9.47420000 L23.87582000,9.22020000 Z" fill="#133d91ff" />
<use xlink:href="#d3" x="23.87582" y="9.34720" />
<use xlink:href="#d3" x="23.87582" y="9.34720" />
<path d="M23.74882000,9.34720000 L24.00282000,9.34720000 L24.00282000,10.87071000 L23.74882000,10.87071000 Z" fill="#133d91ff" />
<use xlink:href="#d3" x="23.87582" y="10.87071" />
<use xlink:href="#d3" x="24.89151" y="10.87071" />
<path d="M25.01851000,10.87071000 L24.76451000,10.87071000 L24.76451000,9.34720000 L25.01851000,9.34720000 Z" fill="#133d91ff" />
<use xlink:href="#d3" x="24.89151" y="9.34720" />
<use xlink:href="#d3" x="24.89151" y="9.34720" />
<path d="M24.89151000,9.47420000 L24.89151000,9.22020000 L25.65326000,9.22020000 L25.65326000,9.47420000 Z" fill="#133d91ff" />
<use xlink:href="#d3" x="25.65326" y="9.34720" />
<use xlink:href="#d3" x="25.65326" y="9.34720" />
<path d="M25.56345744,9.43700256 L25.74306256,9.25739744 L25.99698256,9.51131744 L25.81737744,9.69092256 Z" fill="#133d91ff" />
<use xlink:href="#d3" x="25.90718" y="9.60112" />
<use xlink:href="#d3" x="25.90718" y="9.60112" />
<path d="M25.78018000,9.60112000 L26.03418000,9.60112000 L26.03418000,10.10896000 L25.78018000,10.10896000 Z" fill="#133d91ff" />
<use xlink:href="#d3" x="25.90718" y="10.10896" />
<use xlink:href="#d3" x="25.90718" y="10.10896" />
<path d="M25.81737744,10.01915744 L25.99698256,10.19876256 L25.74306256,10.45268256 L25.56345744,10.27307744 Z" fill="#133d91ff" />
<use xlink:href="#d3" x="25.65326" y="10.36288" />
<use xlink:href="#d3" x="25.65326" y="10.36288" />
<path d="M25.65326000,10.23588000 L25.65326000,10.48988000 L24.89151000,10.48988000 L24.89151000,10.23588000 Z" fill="#133d91ff" />
<use xlink:href="#d3" x="24.89151" y="10.36288" />
<use xlink:href="#d3" x="26.41501" y="10.87071" />
<path d="M26.41501000,10.99771000 L26.41501000,10.74371000 L26.92285000,10.74371000 L26.92285000,10.99771000 Z" fill="#133d91ff" />
<use xlink:href="#d3" x="26.92285" y="10.87071" />
<use xlink:href="#d3" x="26.92285" y="10.87071" />
<path d="M26.92285000,10.74371000 L26.92285000,10.99771000 L26.66893000,10.99771000 L26.66893000,10.74371000 Z" fill="#133d91ff" />
<use xlink:href="#d3" x="26.66893" y="10.87071" />
<use xlink:href="#d3" x="26.66893" y="10.87071" />
<path d="M26.79593000,10.87071000 L26.54193000,10.87071000 L26.54193000,9.34720000 L26.79593000,9.34720000 Z" fill="#133d91ff" />
<use xlink:href="#d3" x="26.66893" y="9.34720" />
<use xlink:href="#d3" x="26.66893" y="9.34720" />
<path d="M26.57912744,9.25739744 L26.75873256,9.43700256 L26.50481256,9.69092256 L26.32520744,9.51131744 Z" fill="#133d91ff" />
<use xlink:href="#d3" x="26.41501" y="9.60112" />
<use xlink:href="#d3" x="23.36799" y="13.36040" />
<path d="M23.36799000,13.48740000 L23.36799000,13.23340000 L24.38367000,13.23340000 L24.38367000,13.48740000 Z" fill="#133d91ff" />
<use xlink:href="#d3" x="24.38367" y="13.36040" />
<use xlink:href="#d3" x="24.38367" y="13.36040" />
<path d="M24.38367000,13.23340000 L24.38367000,13.48740000 L23.87582000,13.48740000 L23.87582000,13.23340000 Z" fill="#133d91ff" />
<use xlink:href="#d3" x="23.87582" y="13.36040" />
<use xlink:href="#d3" x="23.87582" y="13.36040" />
<path d="M23.74882000,13.36040000 L24.00282000,13.36040000 L24.00282000,14.88391000 L23.74882000,14.88391000 Z" fill="#133d91ff" />
<use xlink:href="#d3" x="23.87582" y="14.88391" />
<use xlink:href="#d3" x="24.89151" y="14.88391" />
<path d="M25.01851000,14.88391000 L24.76451000,14.88391000 L24.76451000,13.36040000 L25.01851000,13.36040000 Z" fill="#133d91ff" />
<use xlink:href="#d3" x="24.89151" y="13.36040" />
<use xlink:href="#d3" x="24.89151" y="13.36040" />
<path d="M24.89151000,13.48740000 L24.89151000,13.23340000 L25.65326000,13.23340000 L25.65326000,13.48740000 Z" fill="#133d91ff" />
<use xlink:href="#d3" x="25.65326" y="13.36040" />
<use xlink:href="#d3" x="25.65326" y="13.36040" />
<path d="M25.56345744,13.45020256 L25.74306256,13.27059744 L25.99698256,13.52451744 L25.81737744,13.70412256 Z" fill="#133d91ff" />
<use xlink:href="#d3" x="25.90718" y="13.61432" />
<use xlink:href="#d3" x="25.90718" y="13.61432" />
<path d="M25.78018000,13.61432000 L26.03418000,13.61432000 L26.03418000,14.12216000 L25.78018000,14.12216000 Z" fill="#133d91ff" />
<use xlink:href="#d3" x="25.90718" y="14.12216" />
<use xlink:href="#d3" x="25.90718" y="14.12216" />
<path d="M25.81737744,14.03235744 L25.99698256,14.21196256 L25.74306256,14.46588256 L25.56345744,14.28627744 Z" fill="#133d91ff" />
<use xlink:href="#d3" x="25.65326" y="14.37608" />
<use xlink:href="#d3" x="25.65326" y="14.37608" />
<path d="M25.65326000,14.24908000 L25.65326000,14.50308000 L24.89151000,14.50308000 L24.89151000,14.24908000 Z" fill="#133d91ff" />
<use xlink:href="#d3" x="24.89151" y="14.37608" />
<use xlink:href="#d3" x="27.43069" y="14.88391" />
<path d="M27.43069000,14.75691000 L27.43069000,15.01091000 L26.41501000,15.01091000 L26.41501000,14.75691000 Z" fill="#133d91ff" />
<use xlink:href="#d3" x="26.41501" y="14.88391" />
<use xlink:href="#d3" x="26.41501" y="14.88391" />
<path d="M26.50481212,14.97371300 L26.32520788,14.79410700 L27.34088788,13.77843700 L27.52049212,13.95804300 Z" fill="#133d91ff" />
<use xlink:href="#d3" x="27.43069" y="13.86824" />
<use xlink:href="#d3" x="27.43069" y="13.86824" />
<path d="M27.55769000,13.86824000 L27.30369000,13.86824000 L27.30369000,13.61432000 L27.55769000,13.61432000 Z" fill="#133d91ff" />
<use xlink:href="#d3" x="27.43069" y="13.61432" />
<use xlink:href="#d3" x="27.43069" y="13.61432" />
<path d="M27.52049256,13.52451744 L27.34088744,13.70412256 L27.08696744,13.45020256 L27.26657256,13.27059744 Z" fill="#133d91ff" />
<use xlink:href="#d3" x="27.17677" y="13.36040" />
<use xlink:href="#d3" x="27.17677" y="13.36040" />
<path d="M27.17677000,13.23340000 L27.17677000,13.48740000 L26.66893000,13.48740000 L26.66893000,13.23340000 Z" fill="#133d91ff" />
<use xlink:href="#d3" x="26.66893" y="13.36040" />
<use xlink:href="#d3" x="26.66893" y="13.36040" />
<path d="M26.57912744,13.27059744 L26.75873256,13.45020256 L26.50481256,13.70412256 L26.32520744,13.52451744 Z" fill="#133d91ff" />
<use xlink:href="#d3" x="26.41501" y="13.61432" />
<use xlink:href="#d3" x="18.33880" y="11.07391" />
<path d="M18.46580000,11.07391000 L18.21180000,11.07391000 L18.21180000,9.55040000 L18.46580000,9.55040000 Z" fill="#133d91ff" />
<use xlink:href="#d3" x="18.33880" y="9.55040" />
<use xlink:href="#d3" x="18.33880" y="9.55040" />
<path d="M18.33880000,9.67740000 L18.33880000,9.42340000 L19.10055000,9.42340000 L19.10055000,9.67740000 Z" fill="#133d91ff" />
<use xlink:href="#d3" x="19.10055" y="9.55040" />
<use xlink:href="#d3" x="19.10055" y="9.55040" />
<path d="M19.01074921,9.64020433 L19.19035079,9.46059567 L19.44428079,9.71451567 L19.26467921,9.89412433 Z" fill="#133d91ff" />
<use xlink:href="#d3" x="19.35448" y="9.80432" />
<use xlink:href="#d3" x="19.35448" y="9.80432" />
<path d="M19.22748000,9.80432000 L19.48148000,9.80432000 L19.48148000,10.31216000 L19.22748000,10.31216000 Z" fill="#133d91ff" />
<use xlink:href="#d3" x="19.35448" y="10.31216" />
<use xlink:href="#d3" x="19.35448" y="10.31216" />
<path d="M19.26467921,10.22235567 L19.44428079,10.40196433 L19.19035079,10.65588433 L19.01074921,10.47627567 Z" fill="#133d91ff" />
<use xlink:href="#d3" x="19.10055" y="10.56608" />
<use xlink:href="#d3" x="19.10055" y="10.56608" />
<path d="M19.10055000,10.43908000 L19.10055000,10.69308000 L18.33880000,10.69308000 L18.33880000,10.43908000 Z" fill="#133d91ff" />
<use xlink:href="#d3" x="18.33880" y="10.56608" />
<use xlink:href="#d3" x="18.84663" y="10.56608" />
<path d="M18.75682921,10.65588433 L18.93643079,10.47627567 L19.44428079,10.98410567 L19.26467921,11.16371433 Z" fill="#133d91ff" />
<use xlink:href="#d3" x="19.35448" y="11.07391" />
<use xlink:href="#d3" x="19.86230" y="11.07391" />
<path d="M19.98930000,11.07391000 L19.73530000,11.07391000 L19.73530000,9.55040000 L19.98930000,9.55040000 Z" fill="#133d91ff" />
<use xlink:href="#d3" x="19.86230" y="9.55040" />
<use xlink:href="#d3" x="19.86230" y="9.55040" />
<path d="M19.75662951,9.62084676 L19.96797049,9.47995324 L20.98364049,11.00346324 L20.77229951,11.14435676 Z" fill="#133d91ff" />
<use xlink:href="#d3" x="20.87797" y="11.07391" />
<use xlink:href="#d3" x="20.87797" y="11.07391" />
<path d="M21.00497000,11.07391000 L20.75097000,11.07391000 L20.75097000,9.55040000 L21.00497000,9.55040000 Z" fill="#133d91ff" />
<use xlink:href="#d3" x="20.87797" y="9.55040" />
<use xlink:href="#d3" x="22.40149" y="11.07391" />
<path d="M22.40149000,10.94691000 L22.40149000,11.20091000 L21.38582000,11.20091000 L21.38582000,10.94691000 Z" fill="#133d91ff" />
<use xlink:href="#d3" x="21.38582" y="11.07391" />
<use xlink:href="#d3" x="21.38582" y="11.07391" />
<path d="M21.47562256,11.16371256 L21.29601744,10.98410744 L22.31168744,9.96843744 L22.49129256,10.14804256 Z" fill="#133d91ff" />
<use xlink:href="#d3" x="22.40149" y="10.05824" />
<use xlink:href="#d3" x="22.40149" y="10.05824" />
<path d="M22.52849000,10.05824000 L22.27449000,10.05824000 L22.27449000,9.80432000 L22.52849000,9.80432000 Z" fill="#133d91ff" />
<use xlink:href="#d3" x="22.40149" y="9.80432" />
<use xlink:href="#d3" x="22.40149" y="9.80432" />
<path d="M22.49129256,9.71451744 L22.31168744,9.89412256 L22.05776744,9.64020256 L22.23737256,9.46059744 Z" fill="#133d91ff" />
<use xlink:href="#d3" x="22.14757" y="9.55040" />
<use xlink:href="#d3" x="22.14757" y="9.55040" />
<path d="M22.14757000,9.42340000 L22.14757000,9.67740000 L21.63972000,9.67740000 L21.63972000,9.42340000 Z" fill="#133d91ff" />
<use xlink:href="#d3" x="21.63972" y="9.55040" />
<use xlink:href="#d3" x="21.63972" y="9.55040" />
<path d="M21.54991390,9.46060098 L21.72952610,9.64019902 L21.47562610,9.89411902 L21.29601390,9.71452098 Z" fill="#133d91ff" />
<use xlink:href="#d3" x="21.38582" y="9.80432" />
<use xlink:href="#d3" x="13.00480" y="11.07391" />
<path d="M13.13180000,11.07391000 L12.87780000,11.07391000 L12.87780000,9.55040000 L13.13180000,9.55040000 Z" fill="#133d91ff" />
<use xlink:href="#d3" x="13.00480" y="9.55040" />
<use xlink:href="#d3" x="13.00480" y="9.55040" />
<path d="M13.00480000,9.67740000 L13.00480000,9.42340000 L13.76655000,9.42340000 L13.76655000,9.67740000 Z" fill="#133d91ff" />
<use xlink:href="#d3" x="13.76655" y="9.55040" />
<use xlink:href="#d3" x="13.76655" y="9.55040" />
<path d="M13.67674921,9.64020433 L13.85635079,9.46059567 L14.11028079,9.71451567 L13.93067921,9.89412433 Z" fill="#133d91ff" />
<use xlink:href="#d3" x="14.02048" y="9.80432" />
<use xlink:href="#d3" x="14.02048" y="9.80432" />
<path d="M13.89348000,9.80432000 L14.14748000,9.80432000 L14.14748000,10.31216000 L13.89348000,10.31216000 Z" fill="#133d91ff" />
<use xlink:href="#d3" x="14.02048" y="10.31216" />
<use xlink:href="#d3" x="14.02048" y="10.31216" />
<path d="M13.93067921,10.22235567 L14.11028079,10.40196433 L13.85635079,10.65588433 L13.67674921,10.47627567 Z" fill="#133d91ff" />
<use xlink:href="#d3" x="13.76655" y="10.56608" />
<use xlink:href="#d3" x="13.76655" y="10.56608" />
<path d="M13.76655000,10.43908000 L13.76655000,10.69308000 L13.00480000,10.69308000 L13.00480000,10.43908000 Z" fill="#133d91ff" />
<use xlink:href="#d3" x="13.00480" y="10.56608" />
<use xlink:href="#d3" x="13.51263" y="10.56608" />
<path d="M13.42282921,10.65588433 L13.60243079,10.47627567 L14.11028079,10.98410567 L13.93067921,11.16371433 Z" fill="#133d91ff" />
<use xlink:href="#d3" x="14.02048" y="11.07391" />
<use xlink:href="#d3" x="14.52830" y="11.07391" />
<path d="M14.65530000,11.07391000 L14.40130000,11.07391000 L14.40130000,9.55040000 L14.65530000,9.55040000 Z" fill="#133d91ff" />
<use xlink:href="#d3" x="14.52830" y="9.55040" />
<use xlink:href="#d3" x="14.52830" y="9.55040" />
<path d="M14.42262951,9.62084676 L14.63397049,9.47995324 L15.64964049,11.00346324 L15.43829951,11.14435676 Z" fill="#133d91ff" />
<use xlink:href="#d3" x="15.54397" y="11.07391" />
<use xlink:href="#d3" x="15.54397" y="11.07391" />
<path d="M15.67097000,11.07391000 L15.41697000,11.07391000 L15.41697000,9.55040000 L15.67097000,9.55040000 Z" fill="#133d91ff" />
<use xlink:href="#d3" x="15.54397" y="9.55040" />
<use xlink:href="#d3" x="16.05182" y="11.07391" />
<path d="M16.05182000,11.20091000 L16.05182000,10.94691000 L16.55965000,10.94691000 L16.55965000,11.20091000 Z" fill="#133d91ff" />
<use xlink:href="#d3" x="16.55965" y="11.07391" />
<use xlink:href="#d3" x="16.55965" y="11.07391" />
<path d="M16.55965000,10.94691000 L16.55965000,11.20091000 L16.30572000,11.20091000 L16.30572000,10.94691000 Z" fill="#133d91ff" />
<use xlink:href="#d3" x="16.30572" y="11.07391" />
<use xlink:href="#d3" x="16.30572" y="11.07391" />
<path d="M16.43272000,11.07391000 L16.17872000,11.07391000 L16.17872000,9.55040000 L16.43272000,9.55040000 Z" fill="#133d91ff" />
<use xlink:href="#d3" x="16.30572" y="9.55040" />
<use xlink:href="#d3" x="16.30572" y="9.55040" />
<path d="M16.21591390,9.46060098 L16.39552610,9.64019902 L16.14162610,9.89411902 L15.96201390,9.71452098 Z" fill="#133d91ff" />
<use xlink:href="#d3" x="16.05182" y="9.80432" />
</g>
</svg>