<?xml version="1.0" encoding="UTF-8"?>
<svg xmlns="http://www.w3.org/2000/svg" xmlns:xlink="http://www.w3.org/1999/xlink"
     width="24.34704" height="15.18205" viewBox="0 0 24.34704 15.18205">
<defs>
<mask id="d0">
<rect x="-12.17352" y="-7.591025" width="48.69408" height="30.36410" fill="white" />
</mask>
<g id="d1">
<rect x="-1.201600" y="-0.626600" width="2.403200" height="1.253200" fill="#133d91ff" transform="rotate(0.0)" />
</g>
<g id="d2">
<rect x="-0.626600" y="-0.601600" width="1.253200" height="1.203200" fill="#133d91ff" transform="rotate(0.0)" />
</g>
<g id="d3">
<rect x="-0.576600" y="-0.326600" width="1.153200" height="0.653200" fill="#133d91ff" transform="rotate(0.0)" />
</g>
<g id="d4">
<circle cx="0" cy="0" r="3.6016" fill="#133d91ff" />
</g>
<g id="d5">
<circle cx="0" cy="0" r="0.6016" fill="#133d91ff" />
</g>
<g id="d6">
<circle cx="0" cy="0" r="0.6016" fill="#133d91ff" />
</g>
<g id="d7">
<circle cx="0" cy="0" r="0.7366" fill="#133d91ff" />
</g>
</defs>
<g mask="url(#d0)">
<g></g>
<use xlink:href="#d1" x="7.74544" y="13.74545" />
<use xlink:href="#d1" x="7.74544" y="10.79545" />
<use xlink:href="#d2" x="6.22045" y="12.27045" />
<use xlink:href="#d3" x="19.06644" y="10.04945" />
<use xlink:href="#d3" x="19.06644" y="10.84945" />
<use xlink:href="#d3" x="19.06644" y="11.64945" />
<use xlink:href="#d3" x="19.06644" y="12.44945" />
<use xlink:href="#d3" x="20.81644" y="10.04945" />
<use xlink:href="#d3" x="20.81644" y="10.84945" />
<use xlink:href="#d3" x="20.81644" y="11.64945" />
<use xlink:href="#d3" x="20.81644" y="12.44945" />
<use xlink:href="#d3" x="13.73244" y="10.04945" />
<use xlink:href="#d3" x="13.73244" y="10.84945" />
<use xlink:href="#d3" x="13.73244" y="11.64945" />
<use xlink:href="#d3" x="13.73244" y="12.44945" />
<use xlink:href="#d3" x="15.48244" y="10.04945" />
<use xlink:href="#d3" x="15.48244" y="10.84945" />
<use xlink:href="#d3" x="15.48244" y="11.64945" />
<use xlink:href="#d3" x="15.48244" y="12.44945" />
<use xlink:href="#d4" x="3.60160" y="3.60160" />
<use xlink:href="#d5" x="3.60160" y="6.22660" />
<use xlink:href="#d5" x="1.74544" y="5.45776" />
<use xlink:href="#d5" x="0.97660" y="3.60160" />
<use xlink:href="#d5" x="5.45775" y="5.45776" />
<use xlink:href="#d5" x="6.22660" y="3.60160" />
<use xlink:href="#d5" x="5.45775" y="1.74545" />
<use xlink:href="#d5" x="3.60160" y="0.97660" />
<use xlink:href="#d5" x="1.74544" y="1.74545" />
<use xlink:href="#d6" x="23.74544" y="9.74545" />
<use xlink:href="#d6" x="23.74544" y="13.74545" />
<use xlink:href="#d7" x="19.04544" y="14.34545" />
<use xlink:href="#d7" x="15.44544" y="14.44545" />
</g>
</svg>