<?xml version="1.0" encoding="UTF-8"?>
<svg xmlns="http://www.w3.org/2000/svg" xmlns:xlink="http://www.w3.org/1999/xlink"
     width="45.611856" height="21.856503" viewBox="0 0 45.611856 21.856503">
<defs>
<mask id="d0">
<rect x="-22.805928" y="-10.9282515" width="91.223712" height="43.713006" fill="white" />
</mask>
<g id="d1">
<circle cx="0" cy="0" r="0.05000" fill="#133d91ff" />
</g>
<g id="d2">
<circle cx="0" cy="0" r="0.25000" fill="#133d91ff" />
</g>
<mask id="d3">
<rect x="-22.805928" y="-10.9282515" width="91.223712" height="43.713006" fill="white" />
</mask>
<g id="d4">
<rect x="-0.550000" y="-0.220000" width="1.100000" height="0.440000" fill="#133d91ff" transform="rotate(-191.250000)" />
</g>
<g mask="url(#d3)" id="d5">
<g></g>
<use xlink:href="#d4" x="0E-54" y="-0E-54" />
</g>
<mask id="d6">
<rect x="-22.805928" y="-10.9282515" width="91.223712" height="43.713006" fill="white" />
</mask>
<g id="d7">
<rect x="-0.550000" y="-0.220000" width="1.100000" height="0.440000" fill="#133d91ff" transform="rotate(-213.750000)" />
</g>
<g mask="url(#d6)" id="d8">
<g></g>
<use xlink:href="#d7" x="0E-53" y="-0E-53" />
</g>
<mask id="d9">
<rect x="-22.805928" y="-10.9282515" width="91.223712" height="43.713006" fill="white" />
</mask>
<g id="d10">
<rect x="-0.550000" y="-0.220000" width="1.100000" height="0.440000" fill="#133d91ff" transform="rotate(-236.250000)" />
</g>
<g mask="url(#d9)" id="d11">
<g></g>
<use xlink:href="#d10" x="0E-53" y="-0E-53" />
</g>
<mask id="d12">
<rect x="-22.805928" y="-10.9282515" width="91.223712" height="43.713006" fill="white" />
</mask>
<g id="d13">
<rect x="-0.550000" y="-0.220000" width="1.100000" height="0.440000" fill="#133d91ff" transform="rotate(-258.750000)" />
</g>
<g mask="url(#d12)" id="d14">
<g></g>
<use xlink:href="#d13" x="0E-55" y="-0E-55" />
</g>
<mask id="d15">
<rect x="-22.805928" y="-10.9282515" width="91.223712" height="43.713006" fill="white" />
</mask>
<g id="d16">
<rect x="-0.550000" y="-0.220000" width="1.100000" height="0.440000" fill="#133d91ff" transform="rotate(-281.250000)" />
</g>
<g mask="url(#d15)" id="d17">
<g></g>
<use xlink:href="#d16" x="0E-53" y="0E-53" />
</g>
<mask id="d18">
<rect x="-22.805928" y="-10.9282515" width="91.223712" height="43.713006" fill="white" />
</mask>
<g id="d19">
<rect x="-0.550000" y="-0.220000" width="1.100000" height="0.440000" fill="#133d91ff" transform="rotate(-303.750000)" />
</g>
<g mask="url(#d18)" id="d20">
<g></g>
<use xlink:href="#d19" x="0E-53" y="0E-53" />
</g>
<mask id="d21">
<rect x="-22.805928" y="-10.9282515" width="91.223712" height="43.713006" fill="white" />
</mask>
<g id="d22">
<rect x="-0.550000" y="-0.220000" width="1.100000" height="0.440000" fill="#133d91ff" transform="rotate(-326.250000)" />
</g>
<g mask="url(#d21)" id="d23">
<g></g>
<use xlink:href="#d22" x="0E-53" y="0E-53" />
</g>
<mask id="d24">
<rect x="-22.805928" y="-10.9282515" width="91.223712" height="43.713006" fill="white" />
</mask>
<g id="d25">
<rect x="-0.550000" y="-0.220000" width="1.100000" height="0.440000" fill="#133d91ff" transform="rotate(-348.750000)" />
</g>
<g mask="url(#d24)" id="d26">
<g></g>
<use xlink:href="#d25" x="0E-55" y="0E-55" />
</g>
</defs>
<g mask="url(#d0)">
<g></g>
<use xlink:href="#d1" x="38.386477" y="17.388325" />
<path d="M38.39623151,17.43736426 L38.37672249,17.33928574 L38.42342649,17.32999574 L38.44293551,17.42807426 Z" fill="#133d91ff" />
<use xlink:href="#d1" x="38.433181" y="17.379035" />
<use xlink:href="#d1" x="38.433181" y="17.379035" />
<path d="M38.41997468,17.42725940 L38.44638732,17.33081060 L38.49773632,17.34487260 L38.47132368,17.44132140 Z" fill="#133d91ff" />
<use xlink:href="#d1" x="38.484530" y="17.393097" />
<use xlink:href="#d1" x="38.484530" y="17.393097" />
<path d="M38.45675149,17.43467048 L38.51230851,17.35152352 L38.54030551,17.37023052 L38.48474849,17.45337748 Z" fill="#133d91ff" />
<use xlink:href="#d1" x="38.512527" y="17.411804" />
<use xlink:href="#d1" x="38.512527" y="17.411804" />
<path d="M38.47302730,17.44245973 L38.55202670,17.38114827 L38.58466870,17.42320727 L38.50566930,17.48451873 Z" fill="#133d91ff" />
<use xlink:href="#d1" x="38.545169" y="17.453863" />
<use xlink:href="#d1" x="38.545169" y="17.453863" />
<path d="M38.49995994,17.47522045 L38.59037806,17.43250555 L38.63231106,17.52126855 L38.54189294,17.56398345 Z" fill="#133d91ff" />
<use xlink:href="#d1" x="38.587102" y="17.542626" />
<use xlink:href="#d1" x="38.587102" y="17.542626" />
<path d="M38.53806274,17.55238051 L38.63614126,17.53287149 L38.65936626,17.64963149 L38.56128774,17.66914051 Z" fill="#133d91ff" />
<use xlink:href="#d1" x="38.610327" y="17.659386" />
<use xlink:href="#d1" x="38.610327" y="17.659386" />
<path d="M38.56038611,17.65695550 L38.66026789,17.66181650 L38.65549589,17.75986950 L38.55561411,17.75500850 Z" fill="#133d91ff" />
<use xlink:href="#d1" x="38.605555" y="17.757439" />
<use xlink:href="#d1" x="38.605555" y="17.757439" />
<path d="M38.55733060,17.74423268 L38.65377940,17.77064532 L38.63971740,17.82199432 L38.54326860,17.79558168 Z" fill="#133d91ff" />
<use xlink:href="#d1" x="38.591493" y="17.808788" />
<use xlink:href="#d1" x="38.591493" y="17.808788" />
<path d="M38.54991952,17.78100949 L38.63306648,17.83656651 L38.61435948,17.86456351 L38.53121252,17.80900649 Z" fill="#133d91ff" />
<use xlink:href="#d1" x="38.572786" y="17.836785" />
<use xlink:href="#d1" x="38.572786" y="17.836785" />
<path d="M38.54213073,17.79728495 L38.60344127,17.87628505 L38.56138127,17.90892705 L38.50007073,17.82992695 Z" fill="#133d91ff" />
<use xlink:href="#d1" x="38.530726" y="17.869427" />
<use xlink:href="#d1" x="38.530726" y="17.869427" />
<path d="M38.52097149,17.82038774 L38.54048051,17.91846626 L38.49377651,17.92775626 L38.47426749,17.82967774 Z" fill="#133d91ff" />
<use xlink:href="#d1" x="38.484022" y="17.878717" />
<use xlink:href="#d1" x="38.484022" y="17.878717" />
<path d="M38.49722832,17.83049260 L38.47081568,17.92694140 L38.41946668,17.91287940 L38.44587932,17.81643060 Z" fill="#133d91ff" />
<use xlink:href="#d1" x="38.432673" y="17.864655" />
<use xlink:href="#d1" x="38.432673" y="17.864655" />
<path d="M38.46045151,17.82308152 L38.40489449,17.90622848 L38.37689749,17.88752148 L38.43245451,17.80437452 Z" fill="#133d91ff" />
<use xlink:href="#d1" x="38.404676" y="17.845948" />
<use xlink:href="#d1" x="38.404676" y="17.845948" />
<path d="M38.44417570,17.81529227 L38.36517630,17.87660373 L38.33253430,17.83454473 L38.41153370,17.77323327 Z" fill="#133d91ff" />
<use xlink:href="#d1" x="38.372034" y="17.803889" />
<use xlink:href="#d1" x="38.372034" y="17.803889" />
<path d="M38.41724326,17.78253196 L38.32682474,17.82524604 L38.28489274,17.73648304 L38.37531126,17.69376896 Z" fill="#133d91ff" />
<use xlink:href="#d1" x="38.330102" y="17.715126" />
<use xlink:href="#d1" x="38.330102" y="17.715126" />
<path d="M38.37914126,17.70537149 L38.28106274,17.72488051 L38.25783774,17.60812051 L38.35591626,17.58861149 Z" fill="#133d91ff" />
<use xlink:href="#d1" x="38.306877" y="17.598366" />
<use xlink:href="#d1" x="38.306877" y="17.598366" />
<path d="M38.35681789,17.60079650 L38.25693611,17.59593550 L38.26170811,17.49788250 L38.36158989,17.50274350 Z" fill="#133d91ff" />
<use xlink:href="#d1" x="38.311649" y="17.500313" />
<use xlink:href="#d1" x="38.311649" y="17.500313" />
<path d="M38.35987340,17.51351932 L38.26342460,17.48710668 L38.27748660,17.43575768 L38.37393540,17.46217032 Z" fill="#133d91ff" />
<use xlink:href="#d1" x="38.325711" y="17.448964" />
<use xlink:href="#d1" x="38.325711" y="17.448964" />
<path d="M38.36728448,17.47674251 L38.28413752,17.42118549 L38.30284452,17.39318849 L38.38599148,17.44874551 Z" fill="#133d91ff" />
<use xlink:href="#d1" x="38.344418" y="17.420967" />
<use xlink:href="#d1" x="38.344418" y="17.420967" />
<path d="M38.37507373,17.46046670 L38.31376227,17.38146730 L38.35582127,17.34882530 L38.41713273,17.42782470 Z" fill="#133d91ff" />
<use xlink:href="#d1" x="38.386477" y="17.388325" />
<use xlink:href="#d1" x="39.114527" y="17.753302" />
<path d="M39.10477252,17.70426273 L39.12428148,17.80234127 L38.84405648,17.85808127 L38.82454752,17.76000273 Z" fill="#133d91ff" />
<use xlink:href="#d1" x="38.834302" y="17.809042" />
<use xlink:href="#d1" x="38.974415" y="17.781172" />
<path d="M39.02345425,17.77141739 L38.92537575,17.79092661 L38.82782975,17.30053461 L38.92590825,17.28102539 Z" fill="#133d91ff" />
<use xlink:href="#d1" x="38.876869" y="17.290780" />
<use xlink:href="#d1" x="38.876869" y="17.290780" />
<path d="M38.83065504,17.27169416 L38.92308296,17.30986584 L38.89031396,17.38921184 L38.79788604,17.35104016 Z" fill="#133d91ff" />
<use xlink:href="#d1" x="38.844100" y="17.370126" />
<use xlink:href="#d1" x="38.844100" y="17.370126" />
<path d="M38.80252652,17.34234749 L38.88567348,17.39790451 L38.84825948,17.45389851 L38.76511252,17.39834149 Z" fill="#133d91ff" />
<use xlink:href="#d1" x="38.806686" y="17.426120" />
<use xlink:href="#d1" x="38.806686" y="17.426120" />
<path d="M38.77603027,17.38662030 L38.83734173,17.46561970 L38.79528273,17.49826170 L38.73397127,17.41926230 Z" fill="#133d91ff" />
<use xlink:href="#d1" x="38.764627" y="17.458762" />
<use xlink:href="#d1" x="35.127252" y="11.838297" />
<path d="M35.15503109,11.87987009 L35.09947291,11.79672391 L35.13906591,11.77026791 L35.19462409,11.85341409 Z" fill="#133d91ff" />
<use xlink:href="#d1" x="35.166845" y="11.811841" />
<use xlink:href="#d1" x="35.166845" y="11.811841" />
<path d="M35.17309782,11.86144848 L35.16059218,11.76223352 L35.21341418,11.75557552 L35.22591982,11.85479048 Z" fill="#133d91ff" />
<use xlink:href="#d1" x="35.219667" y="11.805183" />
<use xlink:href="#d1" x="35.219667" y="11.805183" />
<path d="M35.20991260,11.85422229 L35.22942140,11.75614371 L35.26244640,11.76271271 L35.24293760,11.86079129 Z" fill="#133d91ff" />
<use xlink:href="#d1" x="35.252692" y="11.811752" />
<use xlink:href="#d1" x="35.252692" y="11.811752" />
<path d="M35.22793017,11.85518991 L35.27745383,11.76831409 L35.32370583,11.79468009 L35.27418217,11.88155591 Z" fill="#133d91ff" />
<use xlink:href="#d1" x="35.298944" y="11.838118" />
<use xlink:href="#d1" x="35.298944" y="11.838118" />
<path d="M35.26534944,11.87515050 L35.33253856,11.80108550 L35.40524756,11.86704450 L35.33805844,11.94110950 Z" fill="#133d91ff" />
<use xlink:href="#d1" x="35.371653" y="11.904077" />
<use xlink:href="#d1" x="35.371653" y="11.904077" />
<path d="M35.33007939,11.93185532 L35.41322661,11.87629868 L35.47936561,11.97528368 L35.39621839,12.03084032 Z" fill="#133d91ff" />
<use xlink:href="#d1" x="35.437792" y="12.003062" />
<use xlink:href="#d1" x="35.437792" y="12.003062" />
<path d="M35.39072262,12.01992834 L35.48486138,11.98619566 L35.51797638,12.07861066 L35.42383762,12.11234334 Z" fill="#133d91ff" />
<use xlink:href="#d1" x="35.470907" y="12.095477" />
<use xlink:href="#d1" x="35.470907" y="12.095477" />
<path d="M35.42129964,12.10173075 L35.52051436,12.08922325 L35.52717336,12.14204525 L35.42795864,12.15455275 Z" fill="#133d91ff" />
<use xlink:href="#d1" x="35.477566" y="12.148299" />
<use xlink:href="#d1" x="35.477566" y="12.148299" />
<path d="M35.42852700,12.13854317 L35.52660500,12.15805483 L35.52003500,12.19107983 L35.42195700,12.17156817 Z" fill="#133d91ff" />
<use xlink:href="#d1" x="35.470996" y="12.181324" />
<use xlink:href="#d1" x="35.470996" y="12.181324" />
<path d="M35.42755769,12.15656288 L35.51443431,12.20608512 L35.48806931,12.25233712 L35.40119269,12.20281488 Z" fill="#133d91ff" />
<use xlink:href="#d1" x="35.444631" y="12.227576" />
<use xlink:href="#d1" x="35.444631" y="12.227576" />
<path d="M35.41685239,12.18600258 L35.47240961,12.26914942 L35.43281561,12.29560542 L35.37725839,12.21245858 Z" fill="#133d91ff" />
<use xlink:href="#d1" x="35.405037" y="12.254032" />
<use xlink:href="#d1" x="35.405037" y="12.254032" />
<path d="M35.39878325,12.20442464 L35.41129075,12.30363936 L35.35846875,12.31029836 L35.34596125,12.21108364 Z" fill="#133d91ff" />
<use xlink:href="#d1" x="35.352215" y="12.260691" />
<use xlink:href="#d1" x="35.352215" y="12.260691" />
<path d="M35.36196940,12.21165171 L35.34246060,12.30973029 L35.30943560,12.30316129 L35.32894440,12.20508271 Z" fill="#133d91ff" />
<use xlink:href="#d1" x="35.319190" y="12.254122" />
<use xlink:href="#d1" x="35.319190" y="12.254122" />
<path d="M35.34395183,12.21068409 L35.29442817,12.29755991 L35.24817617,12.27119391 L35.29769983,12.18431809 Z" fill="#133d91ff" />
<use xlink:href="#d1" x="35.272938" y="12.227756" />
<use xlink:href="#d1" x="35.272938" y="12.227756" />
<path d="M35.30653283,12.19072376 L35.23934317,12.26478824 L35.16663417,12.19882824 L35.23382383,12.12476376 Z" fill="#133d91ff" />
<use xlink:href="#d1" x="35.200229" y="12.161796" />
<use xlink:href="#d1" x="35.200229" y="12.161796" />
<path d="M35.24180248,12.13401749 L35.15865552,12.18957451 L35.09251652,12.09059051 L35.17566348,12.03503349 Z" fill="#133d91ff" />
<use xlink:href="#d1" x="35.134090" y="12.062812" />
<use xlink:href="#d1" x="35.134090" y="12.062812" />
<path d="M35.18115960,12.04594628 L35.08702040,12.07967772 L35.05390640,11.98726172 L35.14804560,11.95353028 Z" fill="#133d91ff" />
<use xlink:href="#d1" x="35.100976" y="11.970396" />
<use xlink:href="#d1" x="35.100976" y="11.970396" />
<path d="M35.15058336,11.96414225 L35.05136864,11.97664975 L35.04470964,11.92382775 L35.14392436,11.91132025 Z" fill="#133d91ff" />
<use xlink:href="#d1" x="35.094317" y="11.917574" />
<use xlink:href="#d1" x="35.094317" y="11.917574" />
<path d="M35.14335623,11.92732868 L35.04527777,11.90781932 L35.05184677,11.87479532 L35.14992523,11.89430468 Z" fill="#133d91ff" />
<use xlink:href="#d1" x="35.100886" y="11.884550" />
<use xlink:href="#d1" x="35.100886" y="11.884550" />
<path d="M35.14432414,11.90931142 L35.05744786,11.85978858 L35.08381386,11.81353558 L35.17069014,11.86305842 Z" fill="#133d91ff" />
<use xlink:href="#d1" x="35.127252" y="11.838297" />
<use xlink:href="#d1" x="35.450660" y="11.679473" />
<path d="M35.49969929,11.68922740 L35.40162071,11.66971860 L35.40818971,11.63669360 L35.50626829,11.65620240 Z" fill="#133d91ff" />
<use xlink:href="#d1" x="35.457229" y="11.646448" />
<use xlink:href="#d1" x="35.457229" y="11.646448" />
<path d="M35.50066691,11.67120983 L35.41379109,11.62168617 L35.44015709,11.57543417 L35.52703291,11.62495783 Z" fill="#133d91ff" />
<use xlink:href="#d1" x="35.483595" y="11.600196" />
<use xlink:href="#d1" x="35.483595" y="11.600196" />
<path d="M35.51137332,11.64176961 L35.45581668,11.55862239 L35.55480168,11.49248339 L35.61035832,11.57563061 Z" fill="#133d91ff" />
<use xlink:href="#d1" x="35.582580" y="11.534057" />
<use xlink:href="#d1" x="35.582580" y="11.534057" />
<path d="M35.58883375,11.58366436 L35.57632625,11.48444964 L35.62914825,11.47779064 L35.64165575,11.57700536 Z" fill="#133d91ff" />
<use xlink:href="#d1" x="35.635402" y="11.527398" />
<use xlink:href="#d1" x="35.635402" y="11.527398" />
<path d="M35.62564732,11.57643723 L35.64515668,11.47835877 L35.67818068,11.48492777 L35.65867132,11.58300623 Z" fill="#133d91ff" />
<use xlink:href="#d1" x="35.668426" y="11.533967" />
<use xlink:href="#d1" x="35.668426" y="11.533967" />
<path d="M35.64366458,11.57740514 L35.69318742,11.49052886 L35.73944042,11.51689486 L35.68991758,11.60377114 Z" fill="#133d91ff" />
<use xlink:href="#d1" x="35.714679" y="11.560333" />
<use xlink:href="#d1" x="35.714679" y="11.560333" />
<path d="M35.67310591,11.58811209 L35.75625209,11.53255391 L35.78270809,11.57214691 L35.69956191,11.62770509 Z" fill="#133d91ff" />
<use xlink:href="#d1" x="35.741135" y="11.599926" />
<use xlink:href="#d1" x="35.741135" y="11.599926" />
<path d="M35.69291046,11.61313182 L35.78935954,11.58672018 L35.80924554,11.65933918 L35.71279646,11.68575082 Z" fill="#133d91ff" />
<use xlink:href="#d1" x="35.761021" y="11.672545" />
<use xlink:href="#d1" x="35.761021" y="11.672545" />
<path d="M35.71198173,11.66279053 L35.81006027,11.68229947 L35.73123227,12.07859647 L35.63315373,12.05908753 Z" fill="#133d91ff" />
<use xlink:href="#d1" x="35.682193" y="12.068842" />
<use xlink:href="#d1" x="35.682193" y="12.068842" />
<path d="M35.70997146,12.11041551 L35.65441454,12.02726849 L35.91177454,11.85530649 L35.96733146,11.93845351 Z" fill="#133d91ff" />
<use xlink:href="#d1" x="35.939553" y="11.896880" />
<use xlink:href="#d1" x="29.992217" y="7.957992" />
<path d="M30.03379090,7.98576988 L29.95064310,7.93021412 L29.97709810,7.89062012 L30.06024590,7.94617588 Z" fill="#133d91ff" />
<use xlink:href="#d1" x="30.018672" y="7.918398" />
<use xlink:href="#d1" x="30.018672" y="7.918398" />
<path d="M30.04343342,7.96183614 L29.99391058,7.87495986 L30.04016358,7.84859386 L30.08968642,7.93547014 Z" fill="#133d91ff" />
<use xlink:href="#d1" x="30.064925" y="7.892032" />
<use xlink:href="#d1" x="30.064925" y="7.892032" />
<path d="M30.07467940,7.94107129 L30.05517060,7.84299271 L30.08819560,7.83642371 L30.10770440,7.93450229 Z" fill="#133d91ff" />
<use xlink:href="#d1" x="30.097950" y="7.885463" />
<use xlink:href="#d1" x="30.097950" y="7.885463" />
<path d="M30.09169614,7.93507035 L30.10420386,7.83585565 L30.15702486,7.84251465 L30.14451714,7.94172935 Z" fill="#133d91ff" />
<use xlink:href="#d1" x="30.150771" y="7.892122" />
<use xlink:href="#d1" x="30.150771" y="7.892122" />
<path d="M30.13390528,7.93919160 L30.16763672,7.84505240 L30.26005272,7.87816640 L30.22632128,7.97230560 Z" fill="#133d91ff" />
<use xlink:href="#d1" x="30.243187" y="7.925236" />
<use xlink:href="#d1" x="30.243187" y="7.925236" />
<path d="M30.21540820,7.96680929 L30.27096580,7.88366271 L30.36994980,7.94980271 L30.31439220,8.03294929 Z" fill="#133d91ff" />
<use xlink:href="#d1" x="30.342171" y="7.991376" />
<use xlink:href="#d1" x="30.342171" y="7.991376" />
<path d="M30.30513899,8.02497109 L30.37920301,7.95778091 L30.44516301,8.03048891 L30.37109899,8.09767909 Z" fill="#133d91ff" />
<use xlink:href="#d1" x="30.408131" y="8.064084" />
<use xlink:href="#d1" x="30.408131" y="8.064084" />
<path d="M30.36469309,8.08884583 L30.45156891,8.03932217 L30.47793491,8.08557417 L30.39105909,8.13509783 Z" fill="#133d91ff" />
<use xlink:href="#d1" x="30.434497" y="8.110336" />
<use xlink:href="#d1" x="30.434497" y="8.110336" />
<path d="M30.38545771,8.12009040 L30.48353629,8.10058160 L30.49010529,8.13360660 L30.39202671,8.15311540 Z" fill="#133d91ff" />
<use xlink:href="#d1" x="30.441066" y="8.143361" />
<use xlink:href="#d1" x="30.441066" y="8.143361" />
<path d="M30.39145864,8.13710725 L30.49067336,8.14961475 L30.48401436,8.20243675 L30.38479964,8.18992925 Z" fill="#133d91ff" />
<use xlink:href="#d1" x="30.434407" y="8.196183" />
<use xlink:href="#d1" x="30.434407" y="8.196183" />
<path d="M30.39283358,8.16840439 L30.47598042,8.22396161 L30.44952442,8.26355561 L30.36637758,8.20799839 Z" fill="#133d91ff" />
<use xlink:href="#d1" x="30.407951" y="8.235777" />
<use xlink:href="#d1" x="30.407951" y="8.235777" />
<path d="M30.38318917,8.19233909 L30.43271283,8.27921491 L30.38646083,8.30558091 L30.33693717,8.21870509 Z" fill="#133d91ff" />
<use xlink:href="#d1" x="30.361699" y="8.262143" />
<use xlink:href="#d1" x="30.361699" y="8.262143" />
<path d="M30.35194460,8.21310371 L30.37145340,8.31118229 L30.33842840,8.31775129 L30.31891960,8.21967271 Z" fill="#133d91ff" />
<use xlink:href="#d1" x="30.328674" y="8.268712" />
<use xlink:href="#d1" x="30.328674" y="8.268712" />
<path d="M30.33492775,8.21910464 L30.32242025,8.31831936 L30.26959825,8.31166036 L30.28210575,8.21244564 Z" fill="#133d91ff" />
<use xlink:href="#d1" x="30.275852" y="8.262053" />
<use xlink:href="#d1" x="30.275852" y="8.262053" />
<path d="M30.29271834,8.21498362 L30.25898566,8.30912238 L30.16657066,8.27600738 L30.20030334,8.18186862 Z" fill="#133d91ff" />
<use xlink:href="#d1" x="30.183437" y="8.228938" />
<use xlink:href="#d1" x="30.183437" y="8.228938" />
<path d="M30.21121551,8.18736452 L30.15565849,8.27051148 L30.05667449,8.20437248 L30.11223151,8.12122552 Z" fill="#133d91ff" />
<use xlink:href="#d1" x="30.084453" y="8.162799" />
<use xlink:href="#d1" x="30.084453" y="8.162799" />
<path d="M30.12148501,8.12920391 L30.04742099,8.19639409 L29.98146099,8.12368609 L30.05552501,8.05649591 Z" fill="#133d91ff" />
<use xlink:href="#d1" x="30.018493" y="8.090091" />
<use xlink:href="#d1" x="30.018493" y="8.090091" />
<path d="M30.06193114,8.06532958 L29.97505486,8.11485242 L29.94868886,8.06859942 L30.03556514,8.01907658 Z" fill="#133d91ff" />
<use xlink:href="#d1" x="29.992127" y="8.043838" />
<use xlink:href="#d1" x="29.992127" y="8.043838" />
<path d="M30.04116629,8.03408360 L29.94308771,8.05359240 L29.93651871,8.02056740 L30.03459729,8.00105860 Z" fill="#133d91ff" />
<use xlink:href="#d1" x="29.985558" y="8.010813" />
<use xlink:href="#d1" x="29.985558" y="8.010813" />
<path d="M30.03516535,8.01706686 L29.93595065,8.00455914 L29.94260965,7.95173814 L30.04182435,7.96424586 Z" fill="#133d91ff" />
<use xlink:href="#d1" x="29.992217" y="7.957992" />
<use xlink:href="#d1" x="30.177406" y="7.680835" />
<path d="M30.21897939,7.70861365 L30.13583261,7.65305635 L30.30779561,7.39569735 L30.39094239,7.45125465 Z" fill="#133d91ff" />
<use xlink:href="#d1" x="30.349369" y="7.423476" />
<use xlink:href="#d1" x="30.349369" y="7.423476" />
<path d="M30.30108721,7.43647094 L30.39765079,7.41048106 L30.46343079,7.65488206 L30.36686721,7.68087194 Z" fill="#133d91ff" />
<use xlink:href="#d1" x="30.415149" y="7.667877" />
<use xlink:href="#d1" x="30.415149" y="7.667877" />
<path d="M30.45672274,7.69565513 L30.37357526,7.64009887 L30.41325826,7.58070787 L30.49640574,7.63626413 Z" fill="#133d91ff" />
<use xlink:href="#d1" x="30.454832" y="7.608486" />
<use xlink:href="#d1" x="30.454832" y="7.608486" />
<path d="M30.47959342,7.65192414 L30.43007058,7.56504786 L30.47632358,7.53868186 L30.52584642,7.62555814 Z" fill="#133d91ff" />
<use xlink:href="#d1" x="30.501085" y="7.582120" />
<use xlink:href="#d1" x="30.501085" y="7.582120" />
<path d="M30.51083940,7.63115929 L30.49133060,7.53308071 L30.52435560,7.52651171 L30.54386440,7.62459029 Z" fill="#133d91ff" />
<use xlink:href="#d1" x="30.534110" y="7.575551" />
<use xlink:href="#d1" x="30.534110" y="7.575551" />
<path d="M30.52785614,7.62515835 L30.54036386,7.52594365 L30.59318486,7.53260265 L30.58067714,7.63181735 Z" fill="#133d91ff" />
<use xlink:href="#d1" x="30.586931" y="7.582210" />
<use xlink:href="#d1" x="30.586931" y="7.582210" />
<path d="M30.55915268,7.62378361 L30.61470932,7.54063639 L30.71369432,7.60677539 L30.65813768,7.68992261 Z" fill="#133d91ff" />
<use xlink:href="#d1" x="30.685916" y="7.648349" />
<use xlink:href="#d1" x="30.685916" y="7.648349" />
<path d="M30.64247786,7.67311042 L30.72935414,7.62358758 L30.75572014,7.66984058 L30.66884386,7.71936342 Z" fill="#133d91ff" />
<use xlink:href="#d1" x="30.712282" y="7.694602" />
<use xlink:href="#d1" x="30.712282" y="7.694602" />
<path d="M30.66324271,7.70435640 L30.76132129,7.68484760 L30.76789029,7.71787260 L30.66981171,7.73738140 Z" fill="#133d91ff" />
<use xlink:href="#d1" x="30.718851" y="7.727627" />
<use xlink:href="#d1" x="30.718851" y="7.727627" />
<path d="M30.66924365,7.72137314 L30.76845835,7.73388086 L30.76179935,7.78670186 L30.66258465,7.77419414 Z" fill="#133d91ff" />
<use xlink:href="#d1" x="30.712192" y="7.780448" />
<use xlink:href="#d1" x="30.712192" y="7.780448" />
<path d="M30.67061842,7.75266963 L30.75376558,7.80822637 L30.67439858,7.92700837 L30.59125142,7.87145163 Z" fill="#133d91ff" />
<use xlink:href="#d1" x="30.632825" y="7.899230" />
<use xlink:href="#d1" x="30.632825" y="7.899230" />
<path d="M30.60806358,7.85579186 L30.65758642,7.94266814 L30.61133342,7.96903414 L30.56181058,7.88215786 Z" fill="#133d91ff" />
<use xlink:href="#d1" x="30.586572" y="7.925596" />
<use xlink:href="#d1" x="30.586572" y="7.925596" />
<path d="M30.57681760,7.87655671 L30.59632640,7.97463529 L30.56330140,7.98120429 L30.54379260,7.88312571 Z" fill="#133d91ff" />
<use xlink:href="#d1" x="30.553547" y="7.932165" />
<use xlink:href="#d1" x="23.763134" y="6.338149" />
<path d="M23.81217326,6.34790351 L23.71409474,6.32839449 L23.72338474,6.28169049 L23.82146326,6.30119951 Z" fill="#133d91ff" />
<use xlink:href="#d1" x="23.772424" y="6.291445" />
<use xlink:href="#d1" x="23.772424" y="6.291445" />
<path d="M23.81192370,6.32210073 L23.73292430,6.26078927 L23.76556630,6.21873027 L23.84456570,6.28004173 Z" fill="#133d91ff" />
<use xlink:href="#d1" x="23.805066" y="6.249386" />
<use xlink:href="#d1" x="23.805066" y="6.249386" />
<path d="M23.83284451,6.29095948 L23.77728749,6.20781252 L23.80528449,6.18910552 L23.86084151,6.27225248 Z" fill="#133d91ff" />
<use xlink:href="#d1" x="23.833063" y="6.230679" />
<use xlink:href="#d1" x="23.833063" y="6.230679" />
<path d="M23.84626932,6.27890340 L23.81985668,6.18245460 L23.87120568,6.16839260 L23.89761832,6.26484140 Z" fill="#133d91ff" />
<use xlink:href="#d1" x="23.884412" y="6.216617" />
<use xlink:href="#d1" x="23.884412" y="6.216617" />
<path d="M23.88684250,6.26655789 L23.88198150,6.16667611 L23.98003450,6.16190411 L23.98489550,6.26178589 Z" fill="#133d91ff" />
<use xlink:href="#d1" x="23.982465" y="6.211845" />
<use xlink:href="#d1" x="23.982465" y="6.211845" />
<path d="M23.97271049,6.26088426 L23.99221951,6.16280574 L24.10897951,6.18603074 L24.08947049,6.28410926 Z" fill="#133d91ff" />
<use xlink:href="#d1" x="24.099225" y="6.235070" />
<use xlink:href="#d1" x="24.099225" y="6.235070" />
<path d="M24.07786796,6.28027926 L24.12058204,6.18986074 L24.20934504,6.23179274 L24.16663096,6.32221126 Z" fill="#133d91ff" />
<use xlink:href="#d1" x="24.187988" y="6.277002" />
<use xlink:href="#d1" x="24.187988" y="6.277002" />
<path d="M24.15733227,6.31650170 L24.21864373,6.23750230 L24.26070273,6.27014430 L24.19939127,6.34914370 Z" fill="#133d91ff" />
<use xlink:href="#d1" x="24.230047" y="6.309644" />
<use xlink:href="#d1" x="24.230047" y="6.309644" />
<path d="M24.18847352,6.33742251 L24.27162048,6.28186549 L24.29032748,6.30986249 L24.20718052,6.36541951 Z" fill="#133d91ff" />
<use xlink:href="#d1" x="24.248754" y="6.337641" />
<use xlink:href="#d1" x="24.248754" y="6.337641" />
<path d="M24.20052960,6.35084732 L24.29697840,6.32443468 L24.31104040,6.37578368 L24.21459160,6.40219632 Z" fill="#133d91ff" />
<use xlink:href="#d1" x="24.262816" y="6.388990" />
<use xlink:href="#d1" x="24.262816" y="6.388990" />
<path d="M24.21377674,6.37923549 L24.31185526,6.39874451 L24.30256526,6.44544851 L24.20448674,6.42593949 Z" fill="#133d91ff" />
<use xlink:href="#d1" x="24.253526" y="6.435694" />
<use xlink:href="#d1" x="24.253526" y="6.435694" />
<path d="M24.21402630,6.40503827 L24.29302570,6.46634973 L24.26038370,6.50840873 L24.18138430,6.44709727 Z" fill="#133d91ff" />
<use xlink:href="#d1" x="24.220884" y="6.477753" />
<use xlink:href="#d1" x="24.220884" y="6.477753" />
<path d="M24.19310549,6.43617952 L24.24866251,6.51932648 L24.22066551,6.53803348 L24.16510849,6.45488652 Z" fill="#133d91ff" />
<use xlink:href="#d1" x="24.192887" y="6.496460" />
<use xlink:href="#d1" x="24.192887" y="6.496460" />
<path d="M24.17968068,6.44823560 L24.20609332,6.54468440 L24.15474432,6.55874640 L24.12833168,6.46229760 Z" fill="#133d91ff" />
<use xlink:href="#d1" x="24.141538" y="6.510522" />
<use xlink:href="#d1" x="24.141538" y="6.510522" />
<path d="M24.13910750,6.46058111 L24.14396850,6.56046289 L24.04591550,6.56523489 L24.04105450,6.46535311 Z" fill="#133d91ff" />
<use xlink:href="#d1" x="24.043485" y="6.515294" />
<use xlink:href="#d1" x="24.043485" y="6.515294" />
<path d="M24.05323951,6.46625474 L24.03373049,6.56433326 L23.91697049,6.54110826 L23.93647951,6.44302974 Z" fill="#133d91ff" />
<use xlink:href="#d1" x="23.926725" y="6.492069" />
<use xlink:href="#d1" x="23.926725" y="6.492069" />
<path d="M23.94808204,6.44685974 L23.90536796,6.53727826 L23.81660496,6.49534626 L23.85931904,6.40492774 Z" fill="#133d91ff" />
<use xlink:href="#d1" x="23.837962" y="6.450137" />
<use xlink:href="#d1" x="23.837962" y="6.450137" />
<path d="M23.86861773,6.41063730 L23.80730627,6.48963670 L23.76524727,6.45699470 L23.82655873,6.37799530 Z" fill="#133d91ff" />
<use xlink:href="#d1" x="23.795903" y="6.417495" />
<use xlink:href="#d1" x="23.795903" y="6.417495" />
<path d="M23.83747648,6.38971649 L23.75432952,6.44527351 L23.73562252,6.41727651 L23.81876948,6.36171949 Z" fill="#133d91ff" />
<use xlink:href="#d1" x="23.777196" y="6.389498" />
<use xlink:href="#d1" x="23.777196" y="6.389498" />
<path d="M23.82542040,6.37629168 L23.72897160,6.40270432 L23.71490960,6.35135532 L23.81135840,6.32494268 Z" fill="#133d91ff" />
<use xlink:href="#d1" x="23.763134" y="6.338149" />
<use xlink:href="#d1" x="24.042723" y="5.786864" />
<path d="M24.03296852,5.83590327 L24.05247748,5.73782473 L24.37940648,5.80285473 L24.35989752,5.90093327 Z" fill="#133d91ff" />
<use xlink:href="#d1" x="24.369652" y="5.851894" />
<use xlink:href="#d1" x="23.832682" y="5.866464" />
<path d="M23.80792048,5.90990208 L23.85744352,5.82302592 L24.18449852,6.00946092 L24.13497548,6.09633708 Z" fill="#133d91ff" />
<use xlink:href="#d1" x="24.159737" y="6.052899" />
<use xlink:href="#d1" x="24.159737" y="6.052899" />
<path d="M24.20877626,6.06265351 L24.11069774,6.04314449 L24.17108274,5.73956849 L24.26916126,5.75907751 Z" fill="#133d91ff" />
<use xlink:href="#d1" x="24.220122" y="5.749323" />
<use xlink:href="#d1" x="17.823390" y="6.604767" />
<path d="M17.77435074,6.61452151 L17.87242926,6.59501249 L17.88171926,6.64171649 L17.78364074,6.66122551 Z" fill="#133d91ff" />
<use xlink:href="#d1" x="17.832680" y="6.651471" />
<use xlink:href="#d1" x="17.832680" y="6.651471" />
<path d="M17.78445560,6.63826468 L17.88090440,6.66467732 L17.86684240,6.71602632 L17.77039360,6.68961368 Z" fill="#133d91ff" />
<use xlink:href="#d1" x="17.818618" y="6.702820" />
<use xlink:href="#d1" x="17.818618" y="6.702820" />
<path d="M17.77704452,6.67504149 L17.86019148,6.73059851 L17.84148448,6.75859551 L17.75833752,6.70303849 Z" fill="#133d91ff" />
<use xlink:href="#d1" x="17.799911" y="6.730817" />
<use xlink:href="#d1" x="17.799911" y="6.730817" />
<path d="M17.76925527,6.69131730 L17.83056673,6.77031670 L17.78850773,6.80295870 L17.72719627,6.72395930 Z" fill="#133d91ff" />
<use xlink:href="#d1" x="17.757852" y="6.763459" />
<use xlink:href="#d1" x="17.757852" y="6.763459" />
<path d="M17.73649455,6.71824994 L17.77920945,6.80866806 L17.69044645,6.85060106 L17.64773155,6.76018294 Z" fill="#133d91ff" />
<use xlink:href="#d1" x="17.669089" y="6.805392" />
<use xlink:href="#d1" x="17.669089" y="6.805392" />
<path d="M17.65933449,6.75635274 L17.67884351,6.85443126 L17.56208351,6.87765626 L17.54257449,6.77957774 Z" fill="#133d91ff" />
<use xlink:href="#d1" x="17.552329" y="6.828617" />
<use xlink:href="#d1" x="17.552329" y="6.828617" />
<path d="M17.55475950,6.77867611 L17.54989850,6.87855789 L17.45184550,6.87378589 L17.45670650,6.77390411 Z" fill="#133d91ff" />
<use xlink:href="#d1" x="17.454276" y="6.823845" />
<use xlink:href="#d1" x="17.454276" y="6.823845" />
<path d="M17.46748232,6.77562060 L17.44106968,6.87206940 L17.38972068,6.85800740 L17.41613332,6.76155860 Z" fill="#133d91ff" />
<use xlink:href="#d1" x="17.402927" y="6.809783" />
<use xlink:href="#d1" x="17.402927" y="6.809783" />
<path d="M17.43070551,6.76820952 L17.37514849,6.85135648 L17.34715149,6.83264948 L17.40270851,6.74950252 Z" fill="#133d91ff" />
<use xlink:href="#d1" x="17.374930" y="6.791076" />
<use xlink:href="#d1" x="17.374930" y="6.791076" />
<path d="M17.41443005,6.76042073 L17.33542995,6.82173127 L17.30278795,6.77967127 L17.38178805,6.71836073 Z" fill="#133d91ff" />
<use xlink:href="#d1" x="17.342288" y="6.749016" />
<use xlink:href="#d1" x="17.342288" y="6.749016" />
<path d="M17.39132726,6.73926149 L17.29324874,6.75877051 L17.28395874,6.71206651 L17.38203726,6.69255749 Z" fill="#133d91ff" />
<use xlink:href="#d1" x="17.332998" y="6.702312" />
<use xlink:href="#d1" x="17.332998" y="6.702312" />
<path d="M17.38122240,6.71551832 L17.28477360,6.68910568 L17.29883560,6.63775668 L17.39528440,6.66416932 Z" fill="#133d91ff" />
<use xlink:href="#d1" x="17.347060" y="6.650963" />
<use xlink:href="#d1" x="17.347060" y="6.650963" />
<path d="M17.38863348,6.67874151 L17.30548652,6.62318449 L17.32419352,6.59518749 L17.40734048,6.65074451 Z" fill="#133d91ff" />
<use xlink:href="#d1" x="17.365767" y="6.622966" />
<use xlink:href="#d1" x="17.365767" y="6.622966" />
<path d="M17.39642273,6.66246570 L17.33511127,6.58346630 L17.37717027,6.55082430 L17.43848173,6.62982370 Z" fill="#133d91ff" />
<use xlink:href="#d1" x="17.407826" y="6.590324" />
<use xlink:href="#d1" x="17.407826" y="6.590324" />
<path d="M17.42918304,6.63553326 L17.38646896,6.54511474 L17.47523196,6.50318274 L17.51794604,6.59360126 Z" fill="#133d91ff" />
<use xlink:href="#d1" x="17.496589" y="6.548392" />
<use xlink:href="#d1" x="17.496589" y="6.548392" />
<path d="M17.50634351,6.59743126 L17.48683449,6.49935274 L17.60359449,6.47612774 L17.62310351,6.57420626 Z" fill="#133d91ff" />
<use xlink:href="#d1" x="17.613349" y="6.525167" />
<use xlink:href="#d1" x="17.613349" y="6.525167" />
<path d="M17.61091850,6.57510789 L17.61577950,6.47522611 L17.71383250,6.47999811 L17.70897150,6.57987989 Z" fill="#133d91ff" />
<use xlink:href="#d1" x="17.711402" y="6.529939" />
<use xlink:href="#d1" x="17.711402" y="6.529939" />
<path d="M17.69819568,6.57816340 L17.72460832,6.48171460 L17.77595732,6.49577660 L17.74954468,6.59222540 Z" fill="#133d91ff" />
<use xlink:href="#d1" x="17.762751" y="6.544001" />
<use xlink:href="#d1" x="17.762751" y="6.544001" />
<path d="M17.73497249,6.58557448 L17.79052951,6.50242752 L17.81852651,6.52113452 L17.76296949,6.60428148 Z" fill="#133d91ff" />
<use xlink:href="#d1" x="17.790748" y="6.562708" />
<use xlink:href="#d1" x="17.790748" y="6.562708" />
<path d="M17.75124830,6.59336373 L17.83024770,6.53205227 L17.86288970,6.57411127 L17.78389030,6.63542273 Z" fill="#133d91ff" />
<use xlink:href="#d1" x="17.823390" y="6.604767" />
<use xlink:href="#d1" x="17.944160" y="7.211920" />
<path d="M17.99319927,7.20216553 L17.89512073,7.22167447 L17.84867073,6.98815347 L17.94674927,6.96864453 Z" fill="#133d91ff" />
<use xlink:href="#d1" x="17.897710" y="6.978399" />
<use xlink:href="#d1" x="17.897710" y="6.978399" />
<path d="M17.89288349,6.92863250 L17.90253651,7.02816550 L17.66437151,7.05126350 L17.65471849,6.95173050 Z" fill="#133d91ff" />
<use xlink:href="#d1" x="17.659545" y="7.001497" />
<use xlink:href="#d1" x="17.659545" y="7.001497" />
<path d="M17.63176649,7.04307048 L17.68732351,6.95992352 L17.71532051,6.97863052 L17.65976349,7.06177748 Z" fill="#133d91ff" />
<use xlink:href="#d1" x="17.687542" y="7.020204" />
<use xlink:href="#d1" x="17.687542" y="7.020204" />
<path d="M17.64804230,7.05085973 L17.72704170,6.98954827 L17.75968370,7.03160727 L17.68068430,7.09291873 Z" fill="#133d91ff" />
<use xlink:href="#d1" x="17.720184" y="7.062263" />
<use xlink:href="#d1" x="17.720184" y="7.062263" />
<path d="M17.67114472,7.07201743 L17.76922328,7.05250857 L17.79244828,7.16926957 L17.69436972,7.18877843 Z" fill="#133d91ff" />
<use xlink:href="#d1" x="17.743409" y="7.179024" />
<use xlink:href="#d1" x="17.743409" y="7.179024" />
<path d="M17.69518460,7.16581768 L17.79163340,7.19223032 L17.77757140,7.24357932 L17.68112260,7.21716668 Z" fill="#133d91ff" />
<use xlink:href="#d1" x="17.729347" y="7.230373" />
<use xlink:href="#d1" x="17.729347" y="7.230373" />
<path d="M17.68777352,7.20259449 L17.77092048,7.25815151 L17.75221348,7.28614851 L17.66906652,7.23059149 Z" fill="#133d91ff" />
<use xlink:href="#d1" x="17.710640" y="7.258370" />
<use xlink:href="#d1" x="17.710640" y="7.258370" />
<path d="M17.67998427,7.21887030 L17.74129573,7.29786970 L17.69923673,7.33051170 L17.63792527,7.25151230 Z" fill="#133d91ff" />
<use xlink:href="#d1" x="17.668581" y="7.291012" />
<use xlink:href="#d1" x="17.668581" y="7.291012" />
<path d="M17.65882649,7.24197274 L17.67833551,7.34005126 L17.56157551,7.36327626 L17.54206649,7.26519774 Z" fill="#133d91ff" />
<use xlink:href="#d1" x="17.551821" y="7.314237" />
<use xlink:href="#d1" x="17.551821" y="7.314237" />
<path d="M17.56502732,7.26601260 L17.53861468,7.36246140 L17.48726568,7.34839940 L17.51367832,7.25195060 Z" fill="#133d91ff" />
<use xlink:href="#d1" x="17.500472" y="7.300175" />
<use xlink:href="#d1" x="17.500472" y="7.300175" />
<path d="M17.52825051,7.25860152 L17.47269349,7.34174848 L17.44469649,7.32304148 L17.50025351,7.23989452 Z" fill="#133d91ff" />
<use xlink:href="#d1" x="17.472475" y="7.281468" />
<use xlink:href="#d1" x="17.472475" y="7.281468" />
<path d="M17.51197470,7.25081227 L17.43297530,7.31212373 L17.40033330,7.27006473 L17.47933270,7.20875327 Z" fill="#133d91ff" />
<use xlink:href="#d1" x="17.439833" y="7.239409" />
<use xlink:href="#d1" x="17.439833" y="7.239409" />
<path d="M17.48887228,7.22965457 L17.39079372,7.24916343 L17.36756872,7.13240243 L17.46564728,7.11289357 Z" fill="#133d91ff" />
<use xlink:href="#d1" x="17.416608" y="7.122648" />
<use xlink:href="#d1" x="17.416608" y="7.122648" />
<path d="M17.46483240,7.13585432 L17.36838360,7.10944168 L17.38244560,7.05809268 L17.47889440,7.08450532 Z" fill="#133d91ff" />
<use xlink:href="#d1" x="17.430670" y="7.071299" />
<use xlink:href="#d1" x="17.430670" y="7.071299" />
<path d="M17.47224348,7.09907751 L17.38909652,7.04352049 L17.40780352,7.01552349 L17.49095048,7.07108051 Z" fill="#133d91ff" />
<use xlink:href="#d1" x="17.449377" y="7.043302" />
<use xlink:href="#d1" x="12.002748" y="9.744742" />
<path d="M11.96117491,9.77252109 L12.04432109,9.71696291 L12.07077709,9.75655591 L11.98763091,9.81211409 Z" fill="#133d91ff" />
<use xlink:href="#d1" x="12.029204" y="9.784335" />
<use xlink:href="#d1" x="12.029204" y="9.784335" />
<path d="M11.97959652,9.79058782 L12.07881148,9.77808218 L12.08546948,9.83090418 L11.98625452,9.84340982 Z" fill="#133d91ff" />
<use xlink:href="#d1" x="12.035862" y="9.837157" />
<use xlink:href="#d1" x="12.035862" y="9.837157" />
<path d="M11.98682271,9.82740260 L12.08490129,9.84691140 L12.07833229,9.87993640 L11.98025371,9.86042760 Z" fill="#133d91ff" />
<use xlink:href="#d1" x="12.029293" y="9.870182" />
<use xlink:href="#d1" x="12.029293" y="9.870182" />
<path d="M11.98585509,9.84542017 L12.07273091,9.89494383 L12.04636491,9.94119583 L11.95948909,9.89167217 Z" fill="#133d91ff" />
<use xlink:href="#d1" x="12.002927" y="9.916434" />
<use xlink:href="#d1" x="12.002927" y="9.916434" />
<path d="M11.96589450,9.88283944 L12.03995950,9.95002856 L11.97400050,10.02273756 L11.89993550,9.95554844 Z" fill="#133d91ff" />
<use xlink:href="#d1" x="11.936968" y="9.989143" />
<use xlink:href="#d1" x="11.936968" y="9.989143" />
<path d="M11.90918968,9.94756939 L11.96474632,10.03071661 L11.86576132,10.09685561 L11.81020468,10.01370839 Z" fill="#133d91ff" />
<use xlink:href="#d1" x="11.837983" y="10.055282" />
<use xlink:href="#d1" x="11.837983" y="10.055282" />
<path d="M11.82111666,10.00821262 L11.85484934,10.10235138 L11.76243434,10.13546638 L11.72870166,10.04132762 Z" fill="#133d91ff" />
<use xlink:href="#d1" x="11.745568" y="10.088397" />
<use xlink:href="#d1" x="11.745568" y="10.088397" />
<path d="M11.73931425,10.03878964 L11.75182175,10.13800436 L11.69899975,10.14466336 L11.68649225,10.04544864 Z" fill="#133d91ff" />
<use xlink:href="#d1" x="11.692746" y="10.095056" />
<use xlink:href="#d1" x="11.692746" y="10.095056" />
<path d="M11.70250183,10.04601700 L11.68299017,10.14409500 L11.64996517,10.13752500 L11.66947683,10.03944700 Z" fill="#133d91ff" />
<use xlink:href="#d1" x="11.659721" y="10.088486" />
<use xlink:href="#d1" x="11.659721" y="10.088486" />
<path d="M11.68448212,10.04504769 L11.63495988,10.13192431 L11.58870788,10.10555931 L11.63823012,10.01868269 Z" fill="#133d91ff" />
<use xlink:href="#d1" x="11.613469" y="10.062121" />
<use xlink:href="#d1" x="11.613469" y="10.062121" />
<path d="M11.65504242,10.03434239 L11.57189558,10.08989961 L11.54543958,10.05030561 L11.62858642,9.99474839 Z" fill="#133d91ff" />
<use xlink:href="#d1" x="11.587013" y="10.022527" />
<use xlink:href="#d1" x="11.587013" y="10.022527" />
<path d="M11.63662036,10.01627325 L11.53740564,10.02878075 L11.53074664,9.97595875 L11.62996136,9.96345125 Z" fill="#133d91ff" />
<use xlink:href="#d1" x="11.580354" y="9.969705" />
<use xlink:href="#d1" x="11.580354" y="9.969705" />
<path d="M11.62939329,9.97945940 L11.53131471,9.95995060 L11.53788371,9.92692560 L11.63596229,9.94643440 Z" fill="#133d91ff" />
<use xlink:href="#d1" x="11.586923" y="9.936680" />
<use xlink:href="#d1" x="11.586923" y="9.936680" />
<path d="M11.63036091,9.96144183 L11.54348509,9.91191817 L11.56985109,9.86566617 L11.65672691,9.91518983 Z" fill="#133d91ff" />
<use xlink:href="#d1" x="11.613289" y="9.890428" />
<use xlink:href="#d1" x="11.613289" y="9.890428" />
<path d="M11.65032124,9.92402283 L11.57625676,9.85683317 L11.64221676,9.78412417 L11.71628124,9.85131383 Z" fill="#133d91ff" />
<use xlink:href="#d1" x="11.679249" y="9.817719" />
<use xlink:href="#d1" x="11.679249" y="9.817719" />
<path d="M11.70702751,9.85929248 L11.65147049,9.77614552 L11.75045449,9.71000652 L11.80601151,9.79315348 Z" fill="#133d91ff" />
<use xlink:href="#d1" x="11.778233" y="9.751580" />
<use xlink:href="#d1" x="11.778233" y="9.751580" />
<path d="M11.79509872,9.79864960 L11.76136728,9.70451040 L11.85378328,9.67139640 L11.88751472,9.76553560 Z" fill="#133d91ff" />
<use xlink:href="#d1" x="11.870649" y="9.718466" />
<use xlink:href="#d1" x="11.870649" y="9.718466" />
<path d="M11.87690275,9.76807336 L11.86439525,9.66885864 L11.91721725,9.66219964 L11.92972475,9.76141436 Z" fill="#133d91ff" />
<use xlink:href="#d1" x="11.923471" y="9.711807" />
<use xlink:href="#d1" x="11.923471" y="9.711807" />
<path d="M11.91371632,9.76084623 L11.93322568,9.66276777 L11.96624968,9.66933677 L11.94674032,9.76741523 Z" fill="#133d91ff" />
<use xlink:href="#d1" x="11.956495" y="9.718376" />
<use xlink:href="#d1" x="11.956495" y="9.718376" />
<path d="M11.93173358,9.76181414 L11.98125642,9.67493786 L12.02750942,9.70130386 L11.97798658,9.78818014 Z" fill="#133d91ff" />
<use xlink:href="#d1" x="12.002748" y="9.744742" />
<use xlink:href="#d1" x="12.333444" y="10.239664" />
<path d="M12.37501766,10.21188575 L12.29187034,10.26744225 L12.23895934,10.18825425 L12.32210666,10.13269775 Z" fill="#133d91ff" />
<use xlink:href="#d1" x="12.280533" y="10.160476" />
<use xlink:href="#d1" x="12.280533" y="10.160476" />
<path d="M12.30529442,10.11703786 L12.25577158,10.20391414 L12.20951858,10.17754814 L12.25904142,10.09067186 Z" fill="#133d91ff" />
<use xlink:href="#d1" x="12.234280" y="10.134110" />
<use xlink:href="#d1" x="12.234280" y="10.134110" />
<path d="M12.24403440,10.08507071 L12.22452560,10.18314929 L12.19150060,10.17658029 L12.21100940,10.07850171 Z" fill="#133d91ff" />
<use xlink:href="#d1" x="12.201255" y="10.127541" />
<use xlink:href="#d1" x="12.201255" y="10.127541" />
<path d="M12.20120258,10.07754103 L12.20130742,10.17754097 L12.11546142,10.17763097 L12.11535658,10.07763103 Z" fill="#133d91ff" />
<use xlink:href="#d1" x="12.115409" y="10.127631" />
<use xlink:href="#d1" x="12.115409" y="10.127631" />
<path d="M12.09854328,10.08056140 L12.13227472,10.17470060 L12.03985872,10.20781460 L12.00612728,10.11367540 Z" fill="#133d91ff" />
<use xlink:href="#d1" x="12.022993" y="10.160745" />
<use xlink:href="#d1" x="12.022993" y="10.160745" />
<path d="M11.99521445,10.11917154 L12.05077155,10.20231846 L11.89239655,10.30814146 L11.83683945,10.22499454 Z" fill="#133d91ff" />
<use xlink:href="#d1" x="11.864618" y="10.266568" />
<use xlink:href="#d1" x="11.864618" y="10.266568" />
<path d="M11.82117986,10.24180658 L11.90805614,10.29132942 L11.88169014,10.33758242 L11.79481386,10.28805958 Z" fill="#133d91ff" />
<use xlink:href="#d1" x="11.838252" y="10.312821" />
<use xlink:href="#d1" x="11.838252" y="10.312821" />
<path d="M11.78921271,10.30306660 L11.88729129,10.32257540 L11.88072229,10.35560040 L11.78264371,10.33609160 Z" fill="#133d91ff" />
<use xlink:href="#d1" x="11.831683" y="10.345846" />
<use xlink:href="#d1" x="11.831683" y="10.345846" />
<path d="M11.78207565,10.35209986 L11.88129035,10.33959214 L11.88794935,10.39241314 L11.78873465,10.40492086 Z" fill="#133d91ff" />
<use xlink:href="#d1" x="11.838342" y="10.398667" />
<use xlink:href="#d1" x="11.838342" y="10.398667" />
<path d="M11.79676858,10.42644561 L11.87991542,10.37088839 L11.93282742,10.45007639 L11.84968058,10.50563361 Z" fill="#133d91ff" />
<use xlink:href="#d1" x="11.891254" y="10.477855" />
<use xlink:href="#d1" x="11.891254" y="10.477855" />
<path d="M11.86649217,10.52129291 L11.91601583,10.43441709 L11.96226783,10.46078309 L11.91274417,10.54765891 Z" fill="#133d91ff" />
<use xlink:href="#d1" x="11.937506" y="10.504221" />
<use xlink:href="#d1" x="11.937506" y="10.504221" />
<path d="M11.92775160,10.55326029 L11.94726040,10.45518171 L11.98028540,10.46175071 L11.96077660,10.55982929 Z" fill="#133d91ff" />
<use xlink:href="#d1" x="11.970531" y="10.510790" />
<use xlink:href="#d1" x="11.970531" y="10.510790" />
<path d="M11.97678475,10.56039736 L11.96427725,10.46118264 L12.01709925,10.45452364 L12.02960675,10.55373836 Z" fill="#133d91ff" />
<use xlink:href="#d1" x="12.023353" y="10.504131" />
<use xlink:href="#d1" x="12.023353" y="10.504131" />
<path d="M12.05113151,10.54570448 L11.99557449,10.46255752 L12.09455849,10.39641852 L12.15011551,10.47956548 Z" fill="#133d91ff" />
<use xlink:href="#d1" x="12.122337" y="10.437992" />
<use xlink:href="#d1" x="12.122337" y="10.437992" />
<path d="M12.16577514,10.46275342 L12.07889886,10.41323058 L12.10526486,10.36697758 L12.19214114,10.41650042 Z" fill="#133d91ff" />
<use xlink:href="#d1" x="12.148703" y="10.391739" />
<use xlink:href="#d1" x="12.148703" y="10.391739" />
<path d="M12.19774229,10.40149340 L12.09966371,10.38198460 L12.10623271,10.34895960 L12.20431129,10.36846840 Z" fill="#133d91ff" />
<use xlink:href="#d1" x="12.155272" y="10.358714" />
<use xlink:href="#d1" x="12.155272" y="10.358714" />
<path d="M12.20487935,10.35246014 L12.10566465,10.36496786 L12.09900565,10.31214686 L12.19822035,10.29963914 Z" fill="#133d91ff" />
<use xlink:href="#d1" x="12.148613" y="10.305893" />
<use xlink:href="#d1" x="12.148613" y="10.305893" />
<path d="M12.19018666,10.27811475 L12.10703934,10.33367125 L12.05412834,10.25448325 L12.13727566,10.19892675 Z" fill="#133d91ff" />
<use xlink:href="#d1" x="12.095702" y="10.226705" />
<use xlink:href="#d1" x="12.095702" y="10.226705" />
<path d="M12.12046342,10.18326686 L12.07094058,10.27014314 L12.02468758,10.24377714 L12.07421042,10.15690086 Z" fill="#133d91ff" />
<use xlink:href="#d1" x="12.049449" y="10.200339" />
<use xlink:href="#d1" x="12.049449" y="10.200339" />
<path d="M12.05920340,10.15129971 L12.03969460,10.24937829 L12.00666960,10.24280929 L12.02617840,10.14473071 Z" fill="#133d91ff" />
<use xlink:href="#d1" x="12.016424" y="10.193770" />
<use xlink:href="#d1" x="12.016424" y="10.193770" />
<path d="M12.01017014,10.14416265 L12.02267786,10.24337735 L11.96985686,10.25003635 L11.95734914,10.15082165 Z" fill="#133d91ff" />
<use xlink:href="#d1" x="11.963603" y="10.200429" />
<use xlink:href="#d1" x="7.826791" y="14.873163" />
<path d="M7.79901312,14.91473690 L7.85456888,14.83158910 L7.89416288,14.85804410 L7.83860712,14.94119190 Z" fill="#133d91ff" />
<use xlink:href="#d1" x="7.866385" y="14.899618" />
<use xlink:href="#d1" x="7.866385" y="14.899618" />
<path d="M7.82294686,14.92437942 L7.90982314,14.87485658 L7.93618914,14.92110958 L7.84931286,14.97063242 Z" fill="#133d91ff" />
<use xlink:href="#d1" x="7.892751" y="14.945871" />
<use xlink:href="#d1" x="7.892751" y="14.945871" />
<path d="M7.84371171,14.95562540 L7.94179029,14.93611660 L7.94835929,14.96914160 L7.85028071,14.98865040 Z" fill="#133d91ff" />
<use xlink:href="#d1" x="7.899320" y="14.978896" />
<use xlink:href="#d1" x="7.899320" y="14.978896" />
<path d="M7.84971265,14.97264214 L7.94892735,14.98514986 L7.94226835,15.03797086 L7.84305365,15.02546314 Z" fill="#133d91ff" />
<use xlink:href="#d1" x="7.892661" y="15.031717" />
<use xlink:href="#d1" x="7.892661" y="15.031717" />
<path d="M7.84559140,15.01485128 L7.93973060,15.04858272 L7.90661660,15.14099872 L7.81247740,15.10726728 Z" fill="#133d91ff" />
<use xlink:href="#d1" x="7.859547" y="15.124133" />
<use xlink:href="#d1" x="7.859547" y="15.124133" />
<path d="M7.81797371,15.09635420 L7.90112029,15.15191180 L7.83498029,15.25089580 L7.75183371,15.19533820 Z" fill="#133d91ff" />
<use xlink:href="#d1" x="7.793407" y="15.223117" />
<use xlink:href="#d1" x="7.793407" y="15.223117" />
<path d="M7.75981191,15.18608499 L7.82700209,15.26014901 L7.75429409,15.32610901 L7.68710391,15.25204499 Z" fill="#133d91ff" />
<use xlink:href="#d1" x="7.720699" y="15.289077" />
<use xlink:href="#d1" x="7.720699" y="15.289077" />
<path d="M7.69593717,15.24563909 L7.74546083,15.33251491 L7.69920883,15.35888091 L7.64968517,15.27200509 Z" fill="#133d91ff" />
<use xlink:href="#d1" x="7.674447" y="15.315443" />
<use xlink:href="#d1" x="7.674447" y="15.315443" />
<path d="M7.66469260,15.26640371 L7.68420140,15.36448229 L7.65117640,15.37105129 L7.63166760,15.27297271 Z" fill="#133d91ff" />
<use xlink:href="#d1" x="7.641422" y="15.322012" />
<use xlink:href="#d1" x="7.641422" y="15.322012" />
<path d="M7.64767575,15.27240464 L7.63516825,15.37161936 L7.58234625,15.36496036 L7.59485375,15.26574564 Z" fill="#133d91ff" />
<use xlink:href="#d1" x="7.588600" y="15.315353" />
<use xlink:href="#d1" x="7.588600" y="15.315353" />
<path d="M7.61637861,15.27377958 L7.56082139,15.35692642 L7.52122739,15.33047042 L7.57678461,15.24732358 Z" fill="#133d91ff" />
<use xlink:href="#d1" x="7.549006" y="15.288897" />
<use xlink:href="#d1" x="7.549006" y="15.288897" />
<path d="M7.59244391,15.26413517 L7.50556809,15.31365883 L7.47920209,15.26740683 L7.56607791,15.21788317 Z" fill="#133d91ff" />
<use xlink:href="#d1" x="7.522640" y="15.242645" />
<use xlink:href="#d1" x="7.522640" y="15.242645" />
<path d="M7.57167929,15.23289060 L7.47360071,15.25239940 L7.46703171,15.21937440 L7.56511029,15.19986560 Z" fill="#133d91ff" />
<use xlink:href="#d1" x="7.516071" y="15.209620" />
<use xlink:href="#d1" x="7.516071" y="15.209620" />
<path d="M7.56567836,15.21587375 L7.46646364,15.20336625 L7.47312264,15.15054425 L7.57233736,15.16305175 Z" fill="#133d91ff" />
<use xlink:href="#d1" x="7.522730" y="15.156798" />
<use xlink:href="#d1" x="7.522730" y="15.156798" />
<path d="M7.56979938,15.17366434 L7.47566062,15.13993166 L7.50877562,15.04751666 L7.60291438,15.08124934 Z" fill="#133d91ff" />
<use xlink:href="#d1" x="7.555845" y="15.064383" />
<use xlink:href="#d1" x="7.555845" y="15.064383" />
<path d="M7.59741848,15.09216151 L7.51427152,15.03660449 L7.58041052,14.93762049 L7.66355748,14.99317751 Z" fill="#133d91ff" />
<use xlink:href="#d1" x="7.621984" y="14.965399" />
<use xlink:href="#d1" x="7.621984" y="14.965399" />
<path d="M7.65557909,15.00243101 L7.58838891,14.92836699 L7.66109691,14.86240699 L7.72828709,14.93647101 Z" fill="#133d91ff" />
<use xlink:href="#d1" x="7.694692" y="14.899439" />
<use xlink:href="#d1" x="7.694692" y="14.899439" />
<path d="M7.71945342,14.94287714 L7.66993058,14.85600086 L7.71618358,14.82963486 L7.76570642,14.91651114 Z" fill="#133d91ff" />
<use xlink:href="#d1" x="7.740945" y="14.873073" />
<use xlink:href="#d1" x="7.740945" y="14.873073" />
<path d="M7.75069940,14.92211229 L7.73119060,14.82403371 L7.76421560,14.81746471 L7.78372440,14.91554329 Z" fill="#133d91ff" />
<use xlink:href="#d1" x="7.773970" y="14.866504" />
<use xlink:href="#d1" x="7.773970" y="14.866504" />
<path d="M7.76771614,14.91611135 L7.78022386,14.81689665 L7.83304486,14.82355565 L7.82053714,14.92277035 Z" fill="#133d91ff" />
<use xlink:href="#d1" x="7.826791" y="14.873163" />
<use xlink:href="#d1" x="8.103948" y="15.058352" />
<path d="M8.07616936,15.09992539 L8.13172664,15.01677861 L8.40888264,15.20196961 L8.35332536,15.28511639 Z" fill="#133d91ff" />
<use xlink:href="#d1" x="8.381104" y="15.243543" />
<use xlink:href="#d1" x="8.381104" y="15.243543" />
<path d="M8.35383443,15.20163393 L8.40837357,15.28545207 L7.95241657,15.58213607 L7.89787743,15.49831793 Z" fill="#133d91ff" />
<use xlink:href="#d1" x="7.925147" y="15.540227" />
<use xlink:href="#d1" x="5.931272" y="21.209276" />
<path d="M5.92151749,21.25831526 L5.94102651,21.16023674 L5.98773051,21.16952674 L5.96822149,21.26760526 Z" fill="#133d91ff" />
<use xlink:href="#d1" x="5.977976" y="21.218566" />
<use xlink:href="#d1" x="5.977976" y="21.218566" />
<path d="M5.94732027,21.25806570 L6.00863173,21.17906630 L6.05069073,21.21170830 L5.98937927,21.29070770 Z" fill="#133d91ff" />
<use xlink:href="#d1" x="6.020035" y="21.251208" />
<use xlink:href="#d1" x="6.020035" y="21.251208" />
<path d="M5.97846152,21.27898651 L6.06160848,21.22342949 L6.08031548,21.25142649 L5.99716852,21.30698351 Z" fill="#133d91ff" />
<use xlink:href="#d1" x="6.038742" y="21.279205" />
<use xlink:href="#d1" x="6.038742" y="21.279205" />
<path d="M5.99051760,21.29241132 L6.08696640,21.26599868 L6.10102840,21.31734768 L6.00457960,21.34376032 Z" fill="#133d91ff" />
<use xlink:href="#d1" x="6.052804" y="21.330554" />
<use xlink:href="#d1" x="6.052804" y="21.330554" />
<path d="M6.00286311,21.33298450 L6.10274489,21.32812350 L6.10751689,21.42617650 L6.00763511,21.43103750 Z" fill="#133d91ff" />
<use xlink:href="#d1" x="6.057576" y="21.428607" />
<use xlink:href="#d1" x="6.057576" y="21.428607" />
<path d="M6.00853674,21.41885249 L6.10661526,21.43836151 L6.08339026,21.55512151 L5.98531174,21.53561249 Z" fill="#133d91ff" />
<use xlink:href="#d1" x="6.034351" y="21.545367" />
<use xlink:href="#d1" x="6.034351" y="21.545367" />
<path d="M5.98914174,21.52400996 L6.07956026,21.56672404 L6.03762826,21.65548704 L5.94720974,21.61277296 Z" fill="#133d91ff" />
<use xlink:href="#d1" x="5.992419" y="21.634130" />
<use xlink:href="#d1" x="5.992419" y="21.634130" />
<path d="M5.95291930,21.60347427 L6.03191870,21.66478573 L5.99927670,21.70684473 L5.92027730,21.64553327 Z" fill="#133d91ff" />
<use xlink:href="#d1" x="5.959777" y="21.676189" />
<use xlink:href="#d1" x="5.959777" y="21.676189" />
<path d="M5.93199849,21.63461552 L5.98755551,21.71776248 L5.95955851,21.73646948 L5.90400149,21.65332252 Z" fill="#133d91ff" />
<use xlink:href="#d1" x="5.931780" y="21.694896" />
<use xlink:href="#d1" x="5.931780" y="21.694896" />
<path d="M5.91857368,21.64667160 L5.94498632,21.74312040 L5.89363732,21.75718240 L5.86722468,21.66073360 Z" fill="#133d91ff" />
<use xlink:href="#d1" x="5.880431" y="21.708958" />
<use xlink:href="#d1" x="5.880431" y="21.708958" />
<path d="M5.89018551,21.65991874 L5.87067649,21.75799726 L5.82397249,21.74870726 L5.84348151,21.65062874 Z" fill="#133d91ff" />
<use xlink:href="#d1" x="5.833727" y="21.699668" />
<use xlink:href="#d1" x="5.833727" y="21.699668" />
<path d="M5.86438273,21.66016830 L5.80307127,21.73916770 L5.76101227,21.70652570 L5.82232373,21.62752630 Z" fill="#133d91ff" />
<use xlink:href="#d1" x="5.791668" y="21.667026" />
<use xlink:href="#d1" x="5.791668" y="21.667026" />
<path d="M5.83324148,21.63924749 L5.75009452,21.69480451 L5.73138752,21.66680751 L5.81453448,21.61125049 Z" fill="#133d91ff" />
<use xlink:href="#d1" x="5.772961" y="21.639029" />
<use xlink:href="#d1" x="5.772961" y="21.639029" />
<path d="M5.82118540,21.62582268 L5.72473660,21.65223532 L5.71067460,21.60088632 L5.80712340,21.57447368 Z" fill="#133d91ff" />
<use xlink:href="#d1" x="5.758899" y="21.587680" />
<use xlink:href="#d1" x="5.758899" y="21.587680" />
<path d="M5.80883989,21.58524950 L5.70895811,21.59011050 L5.70418611,21.49205750 L5.80406789,21.48719650 Z" fill="#133d91ff" />
<use xlink:href="#d1" x="5.754127" y="21.489627" />
<use xlink:href="#d1" x="5.754127" y="21.489627" />
<path d="M5.80316626,21.49938151 L5.70508774,21.47987249 L5.72831274,21.36311249 L5.82639126,21.38262151 Z" fill="#133d91ff" />
<use xlink:href="#d1" x="5.777352" y="21.372867" />
<use xlink:href="#d1" x="5.777352" y="21.372867" />
<path d="M5.82256126,21.39422404 L5.73214274,21.35150996 L5.77407474,21.26274696 L5.86449326,21.30546104 Z" fill="#133d91ff" />
<use xlink:href="#d1" x="5.819284" y="21.284104" />
<use xlink:href="#d1" x="5.819284" y="21.284104" />
<path d="M5.85878370,21.31475973 L5.77978430,21.25344827 L5.81242630,21.21138927 L5.89142570,21.27270073 Z" fill="#133d91ff" />
<use xlink:href="#d1" x="5.851926" y="21.242045" />
<use xlink:href="#d1" x="5.851926" y="21.242045" />
<path d="M5.87970451,21.28361848 L5.82414749,21.20047152 L5.85214449,21.18176452 L5.90770151,21.26491148 Z" fill="#133d91ff" />
<use xlink:href="#d1" x="5.879923" y="21.223338" />
<use xlink:href="#d1" x="5.879923" y="21.223338" />
<path d="M5.89312932,21.27156240 L5.86671668,21.17511360 L5.91806568,21.16105160 L5.94447832,21.25750040 Z" fill="#133d91ff" />
<use xlink:href="#d1" x="5.931272" y="21.209276" />
<use xlink:href="#d1" x="6.333155" y="21.507699" />
<path d="M6.36381073,21.46819930 L6.30249927,21.54719870 L6.26044027,21.51455670 L6.32175173,21.43555730 Z" fill="#133d91ff" />
<use xlink:href="#d1" x="6.291096" y="21.475057" />
<use xlink:href="#d1" x="6.291096" y="21.475057" />
<path d="M6.33266948,21.44727849 L6.24952252,21.50283551 L6.23081552,21.47483851 L6.31396248,21.41928149 Z" fill="#133d91ff" />
<use xlink:href="#d1" x="6.272389" y="21.447060" />
<use xlink:href="#d1" x="6.272389" y="21.447060" />
<path d="M6.32061340,21.43385368 L6.22416460,21.46026632 L6.21010260,21.40891732 L6.30655140,21.38250468 Z" fill="#133d91ff" />
<use xlink:href="#d1" x="6.258327" y="21.395711" />
<use xlink:href="#d1" x="6.258327" y="21.395711" />
<path d="M6.30736626,21.40546551 L6.20928774,21.38595649 L6.21393274,21.36260449 L6.31201126,21.38211351 Z" fill="#133d91ff" />
<use xlink:href="#d1" x="6.262972" y="21.372359" />
<use xlink:href="#d1" x="6.262972" y="21.372359" />
<path d="M6.30247170,21.40301473 L6.22347230,21.34170327 L6.25611430,21.29964427 L6.33511370,21.36095573 Z" fill="#133d91ff" />
<use xlink:href="#d1" x="6.295614" y="21.330300" />
<use xlink:href="#d1" x="6.295614" y="21.330300" />
<path d="M6.32339251,21.37187348 L6.26783549,21.28872652 L6.29583249,21.27001952 L6.35138951,21.35316648 Z" fill="#133d91ff" />
<use xlink:href="#d1" x="6.323611" y="21.311593" />
<use xlink:href="#d1" x="6.323611" y="21.311593" />
<path d="M6.33681732,21.35981740 L6.31040468,21.26336860 L6.36175368,21.24930660 L6.38816632,21.34575540 Z" fill="#133d91ff" />
<use xlink:href="#d1" x="6.374960" y="21.297531" />
<use xlink:href="#d1" x="6.374960" y="21.297531" />
<path d="M6.36520549,21.34657026 L6.38471451,21.24849174 L6.47812251,21.26707174 L6.45861349,21.36515026 Z" fill="#133d91ff" />
<use xlink:href="#d1" x="6.468368" y="21.316111" />
<use xlink:href="#d1" x="6.468368" y="21.316111" />
<path d="M6.43771227,21.35561070 L6.49902373,21.27661130 L6.54108273,21.30925330 L6.47977127,21.38825270 Z" fill="#133d91ff" />
<use xlink:href="#d1" x="6.510427" y="21.348753" />
<use xlink:href="#d1" x="6.510427" y="21.348753" />
<path d="M6.46885352,21.37653151 L6.55200048,21.32097449 L6.57070748,21.34897149 L6.48756052,21.40452851 Z" fill="#133d91ff" />
<use xlink:href="#d1" x="6.529134" y="21.376750" />
<use xlink:href="#d1" x="6.529134" y="21.376750" />
<path d="M6.48090960,21.38995632 L6.57735840,21.36354368 L6.59142040,21.41489268 L6.49497160,21.44130532 Z" fill="#133d91ff" />
<use xlink:href="#d1" x="6.543196" y="21.428099" />
<use xlink:href="#d1" x="6.543196" y="21.428099" />
<path d="M6.49415674,21.41834449 L6.59223526,21.43785351 L6.58759026,21.46120551 L6.48951174,21.44169649 Z" fill="#133d91ff" />
<use xlink:href="#d1" x="6.538551" y="21.451451" />
<use xlink:href="#d1" x="6.538551" y="21.451451" />
<path d="M6.49905130,21.42079527 L6.57805070,21.48210673 L6.54540870,21.52416573 L6.46640930,21.46285427 Z" fill="#133d91ff" />
<use xlink:href="#d1" x="6.505909" y="21.493510" />
<use xlink:href="#d1" x="6.505909" y="21.493510" />
<path d="M6.47813049,21.45193652 L6.53368751,21.53508348 L6.50569051,21.55379048 L6.45013349,21.47064352 Z" fill="#133d91ff" />
<use xlink:href="#d1" x="6.477912" y="21.512217" />
<use xlink:href="#d1" x="6.477912" y="21.512217" />
<path d="M6.46470568,21.46399260 L6.49111832,21.56044140 L6.43976932,21.57450340 L6.41335668,21.47805460 Z" fill="#133d91ff" />
<use xlink:href="#d1" x="6.426563" y="21.526279" />
<use xlink:href="#d1" x="6.426563" y="21.526279" />
<path d="M6.43631751,21.47723974 L6.41680849,21.57531826 L6.32340049,21.55673826 L6.34290951,21.45865974 Z" fill="#133d91ff" />
<use xlink:href="#d1" x="6.333155" y="21.507699" />
<use xlink:href="#d1" x="6.333155" y="21.507699" />
<path d="M6.31994868,21.45947460 L6.34636132,21.55592340 L6.29501232,21.56998540 L6.26859968,21.47353660 Z" fill="#133d91ff" />
<use xlink:href="#d1" x="6.281806" y="21.521761" />
<use xlink:href="#d1" x="6.281806" y="21.521761" />
<path d="M6.25402749,21.48018752 L6.30958451,21.56333448 L6.28158751,21.58204148 L6.22603049,21.49889452 Z" fill="#133d91ff" />
<use xlink:href="#d1" x="6.253809" y="21.540468" />
<use xlink:href="#d1" x="6.253809" y="21.540468" />
<path d="M6.21430930,21.50981227 L6.29330870,21.57112373 L6.26066670,21.61318273 L6.18166730,21.55187127 Z" fill="#133d91ff" />
<use xlink:href="#d1" x="6.221167" y="21.582527" />
<use xlink:href="#d1" x="6.221167" y="21.582527" />
<path d="M6.17212774,21.57277249 L6.27020626,21.59228151 L6.25162626,21.68568951 L6.15354774,21.66618049 Z" fill="#133d91ff" />
<use xlink:href="#d1" x="6.202587" y="21.675935" />
<use xlink:href="#d1" x="6.202587" y="21.675935" />
<path d="M6.15436260,21.68914132 L6.25081140,21.66272868 L6.26487340,21.71407768 L6.16842460,21.74049032 Z" fill="#133d91ff" />
<use xlink:href="#d1" x="6.216649" y="21.727284" />
<use xlink:href="#d1" x="6.216649" y="21.727284" />
<path d="M6.17507552,21.75506251 L6.25822248,21.69950549 L6.27692948,21.72750249 L6.19378252,21.78305951 Z" fill="#133d91ff" />
<use xlink:href="#d1" x="6.235356" y="21.755281" />
<use xlink:href="#d1" x="6.235356" y="21.755281" />
<path d="M6.20470027,21.79478070 L6.26601173,21.71578130 L6.30807073,21.74842330 L6.24675927,21.82742270 Z" fill="#133d91ff" />
<use xlink:href="#d1" x="6.277415" y="21.787923" />
<use xlink:href="#d1" x="6.277415" y="21.787923" />
<path d="M6.26766049,21.83696226 L6.28716951,21.73888374 L6.38057751,21.75746374 L6.36106849,21.85554226 Z" fill="#133d91ff" />
<use xlink:href="#d1" x="6.370823" y="21.806503" />
<use xlink:href="#d1" x="6.370823" y="21.806503" />
<path d="M6.38402932,21.85472740 L6.35761668,21.75827860 L6.40896568,21.74421660 L6.43537832,21.84066540 Z" fill="#133d91ff" />
<use xlink:href="#d1" x="6.422172" y="21.792441" />
<use xlink:href="#d1" x="6.422172" y="21.792441" />
<path d="M6.44995051,21.83401448 L6.39439349,21.75086752 L6.42239049,21.73216052 L6.47794751,21.81530748 Z" fill="#133d91ff" />
<use xlink:href="#d1" x="6.450169" y="21.773734" />
<use xlink:href="#d1" x="6.450169" y="21.773734" />
<path d="M6.48966870,21.80438973 L6.41066930,21.74307827 L6.44331130,21.70101927 L6.52231070,21.76233073 Z" fill="#133d91ff" />
<use xlink:href="#d1" x="6.482811" y="21.731675" />
<use xlink:href="#d1" x="6.482811" y="21.731675" />
<path d="M6.53185026,21.74142951 L6.43377174,21.72192049 L6.45235174,21.62851249 L6.55043026,21.64802151 Z" fill="#133d91ff" />
<use xlink:href="#d1" x="6.501391" y="21.638267" />
<use xlink:href="#d1" x="6.501391" y="21.638267" />
<path d="M6.54961540,21.62506068 L6.45316660,21.65147332 L6.43910460,21.60012432 L6.53555340,21.57371168 Z" fill="#133d91ff" />
<use xlink:href="#d1" x="6.487329" y="21.586918" />
<use xlink:href="#d1" x="6.487329" y="21.586918" />
<path d="M6.52890248,21.55913949 L6.44575552,21.61469651 L6.42704852,21.58669951 L6.51019548,21.53114249 Z" fill="#133d91ff" />
<use xlink:href="#d1" x="6.468622" y="21.558921" />
<use xlink:href="#d1" x="6.468622" y="21.558921" />
<path d="M6.49927773,21.51942130 L6.43796627,21.59842070 L6.39590727,21.56577870 L6.45721873,21.48677930 Z" fill="#133d91ff" />
<use xlink:href="#d1" x="6.426563" y="21.526279" />
<use xlink:href="#d2" x="41.438715" y="21.138818" />
<use xlink:href="#d2" x="42.419500" y="20.943728" />
<use xlink:href="#d2" x="43.400286" y="20.748638" />
<use xlink:href="#d2" x="44.381071" y="20.553547" />
<use xlink:href="#d2" x="45.361856" y="20.358457" />
<use xlink:href="#d2" x="40.658354" y="17.215677" />
<use xlink:href="#d2" x="41.639139" y="17.020587" />
<use xlink:href="#d2" x="42.619924" y="16.825496" />
<use xlink:href="#d2" x="43.600710" y="16.630406" />
<use xlink:href="#d2" x="44.581495" y="16.435316" />
<use xlink:href="#d2" x="45.166766" y="19.377672" />
<use xlink:href="#d2" x="44.971676" y="18.396886" />
<use xlink:href="#d2" x="44.776585" y="17.416101" />
<use xlink:href="#d2" x="40.272594" y="20.402163" />
<use xlink:href="#d2" x="41.253379" y="20.207072" />
<use xlink:href="#d2" x="42.195146" y="19.815825" />
<use xlink:href="#d2" x="43.175932" y="19.620734" />
<use xlink:href="#d2" x="39.862904" y="18.342513" />
<use xlink:href="#d2" x="40.843690" y="18.147423" />
<use xlink:href="#d2" x="41.863493" y="18.148490" />
<use xlink:href="#d2" x="42.844278" y="17.953400" />
<use xlink:href="#d2" x="43.716806" y="19.259270" />
<use xlink:href="#d2" x="43.843772" y="18.621240" />
<use xlink:href="#d2" x="43.482308" y="18.080366" />
<use xlink:href="#d5" x="40.607181" y="19.265038" />
<use xlink:href="#d2" x="39.382403" y="14.135261" />
<use xlink:href="#d2" x="40.213873" y="13.579690" />
<use xlink:href="#d2" x="41.045342" y="13.024120" />
<use xlink:href="#d2" x="41.876812" y="12.468550" />
<use xlink:href="#d2" x="42.708282" y="11.912980" />
<use xlink:href="#d2" x="37.160122" y="10.809382" />
<use xlink:href="#d2" x="37.991592" y="10.253812" />
<use xlink:href="#d2" x="38.823062" y="9.698242" />
<use xlink:href="#d2" x="39.654531" y="9.142672" />
<use xlink:href="#d2" x="40.486001" y="8.587101" />
<use xlink:href="#d2" x="42.152711" y="11.081510" />
<use xlink:href="#d2" x="41.597141" y="10.250041" />
<use xlink:href="#d2" x="41.041571" y="9.418571" />
<use xlink:href="#d2" x="38.023142" y="13.900935" />
<use xlink:href="#d2" x="38.854612" y="13.345365" />
<use xlink:href="#d2" x="39.574967" y="12.623500" />
<use xlink:href="#d2" x="40.406437" y="12.067930" />
<use xlink:href="#d2" x="36.856444" y="12.154849" />
<use xlink:href="#d2" x="37.687914" y="11.599278" />
<use xlink:href="#d2" x="38.630498" y="11.210002" />
<use xlink:href="#d2" x="39.461967" y="10.654432" />
<use xlink:href="#d2" x="40.767813" y="11.526997" />
<use xlink:href="#d2" x="40.640951" y="10.888946" />
<use xlink:href="#d2" x="40.100018" y="10.527570" />
<use xlink:href="#d8" x="37.897101" y="12.722328" />
<use xlink:href="#d2" x="34.802474" y="8.451734" />
<use xlink:href="#d2" x="35.358044" y="7.620264" />
<use xlink:href="#d2" x="35.913614" y="6.788794" />
<use xlink:href="#d2" x="36.469184" y="5.957325" />
<use xlink:href="#d2" x="37.024755" y="5.125855" />
<use xlink:href="#d2" x="31.476595" y="6.229453" />
<use xlink:href="#d2" x="32.032166" y="5.397983" />
<use xlink:href="#d2" x="32.587736" y="4.566514" />
<use xlink:href="#d2" x="33.143306" y="3.735044" />
<use xlink:href="#d2" x="33.698876" y="2.903574" />
<use xlink:href="#d2" x="36.193285" y="4.570285" />
<use xlink:href="#d2" x="35.361815" y="4.014715" />
<use xlink:href="#d2" x="34.530346" y="3.459145" />
<use xlink:href="#d2" x="33.457007" y="8.755412" />
<use xlink:href="#d2" x="34.012578" y="7.923942" />
<use xlink:href="#d2" x="34.401854" y="6.981358" />
<use xlink:href="#d2" x="34.957424" y="6.149889" />
<use xlink:href="#d2" x="31.710921" y="7.588714" />
<use xlink:href="#d2" x="32.266491" y="6.757244" />
<use xlink:href="#d2" x="32.988356" y="6.036889" />
<use xlink:href="#d2" x="33.543926" y="5.205419" />
<use xlink:href="#d2" x="35.084286" y="5.511838" />
<use xlink:href="#d2" x="34.722910" y="4.970905" />
<use xlink:href="#d2" x="34.084859" y="4.844043" />
<use xlink:href="#d11" x="32.889528" y="7.714755" />
<use xlink:href="#d2" x="28.396179" y="4.953502" />
<use xlink:href="#d2" x="28.591269" y="3.972717" />
<use xlink:href="#d2" x="28.786360" y="2.991932" />
<use xlink:href="#d2" x="28.981450" y="2.011146" />
<use xlink:href="#d2" x="29.176540" y="1.030361" />
<use xlink:href="#d2" x="24.473038" y="4.173141" />
<use xlink:href="#d2" x="24.668128" y="3.192356" />
<use xlink:href="#d2" x="24.863218" y="2.211570" />
<use xlink:href="#d2" x="25.058309" y="1.230785" />
<use xlink:href="#d2" x="25.253399" y="0.250000" />
<use xlink:href="#d2" x="28.195755" y="0.835271" />
<use xlink:href="#d2" x="27.214970" y="0.640180" />
<use xlink:href="#d2" x="26.234184" y="0.445090" />
<use xlink:href="#d2" x="27.269343" y="5.748952" />
<use xlink:href="#d2" x="27.464433" y="4.768166" />
<use xlink:href="#d2" x="27.463366" y="3.748363" />
<use xlink:href="#d2" x="27.658456" y="2.767578" />
<use xlink:href="#d2" x="25.209693" y="5.339262" />
<use xlink:href="#d2" x="25.404784" y="4.358477" />
<use xlink:href="#d2" x="25.796031" y="3.416710" />
<use xlink:href="#d2" x="25.991122" y="2.435924" />
<use xlink:href="#d2" x="27.531490" y="2.129548" />
<use xlink:href="#d2" x="26.990616" y="1.768084" />
<use xlink:href="#d2" x="26.352586" y="1.895050" />
<use xlink:href="#d14" x="26.346818" y="5.004675" />
<use xlink:href="#d2" x="21.138818" y="4.173141" />
<use xlink:href="#d2" x="20.943728" y="3.192356" />
<use xlink:href="#d2" x="20.748638" y="2.211570" />
<use xlink:href="#d2" x="20.553547" y="1.230785" />
<use xlink:href="#d2" x="20.358457" y="0.250000" />
<use xlink:href="#d2" x="17.215677" y="4.953502" />
<use xlink:href="#d2" x="17.020587" y="3.972717" />
<use xlink:href="#d2" x="16.825496" y="2.991932" />
<use xlink:href="#d2" x="16.630406" y="2.011146" />
<use xlink:href="#d2" x="16.435316" y="1.030361" />
<use xlink:href="#d2" x="19.377672" y="0.445090" />
<use xlink:href="#d2" x="18.396886" y="0.640180" />
<use xlink:href="#d2" x="17.416101" y="0.835271" />
<use xlink:href="#d2" x="20.402163" y="5.339262" />
<use xlink:href="#d2" x="20.207072" y="4.358477" />
<use xlink:href="#d2" x="19.815825" y="3.416710" />
<use xlink:href="#d2" x="19.620734" y="2.435924" />
<use xlink:href="#d2" x="18.342513" y="5.748952" />
<use xlink:href="#d2" x="18.147423" y="4.768166" />
<use xlink:href="#d2" x="18.148490" y="3.748363" />
<use xlink:href="#d2" x="17.953400" y="2.767578" />
<use xlink:href="#d2" x="19.259270" y="1.895050" />
<use xlink:href="#d2" x="18.621240" y="1.768084" />
<use xlink:href="#d2" x="18.080366" y="2.129548" />
<use xlink:href="#d17" x="19.265038" y="5.004675" />
<use xlink:href="#d2" x="14.135261" y="6.229453" />
<use xlink:href="#d2" x="13.579690" y="5.397983" />
<use xlink:href="#d2" x="13.024120" y="4.566514" />
<use xlink:href="#d2" x="12.468550" y="3.735044" />
<use xlink:href="#d2" x="11.912980" y="2.903574" />
<use xlink:href="#d2" x="10.809382" y="8.451734" />
<use xlink:href="#d2" x="10.253812" y="7.620264" />
<use xlink:href="#d2" x="9.698242" y="6.788794" />
<use xlink:href="#d2" x="9.142672" y="5.957325" />
<use xlink:href="#d2" x="8.587101" y="5.125855" />
<use xlink:href="#d2" x="11.081510" y="3.459145" />
<use xlink:href="#d2" x="10.250041" y="4.014715" />
<use xlink:href="#d2" x="9.418571" y="4.570285" />
<use xlink:href="#d2" x="13.900935" y="7.588714" />
<use xlink:href="#d2" x="13.345365" y="6.757244" />
<use xlink:href="#d2" x="12.623500" y="6.036889" />
<use xlink:href="#d2" x="12.067930" y="5.205419" />
<use xlink:href="#d2" x="12.154849" y="8.755412" />
<use xlink:href="#d2" x="11.599278" y="7.923942" />
<use xlink:href="#d2" x="11.210002" y="6.981358" />
<use xlink:href="#d2" x="10.654432" y="6.149889" />
<use xlink:href="#d2" x="11.526997" y="4.844043" />
<use xlink:href="#d2" x="10.888946" y="4.970905" />
<use xlink:href="#d2" x="10.527570" y="5.511838" />
<use xlink:href="#d20" x="12.722328" y="7.714755" />
<use xlink:href="#d2" x="8.451734" y="10.809382" />
<use xlink:href="#d2" x="7.620264" y="10.253812" />
<use xlink:href="#d2" x="6.788794" y="9.698242" />
<use xlink:href="#d2" x="5.957325" y="9.142672" />
<use xlink:href="#d2" x="5.125855" y="8.587101" />
<use xlink:href="#d2" x="6.229453" y="14.135261" />
<use xlink:href="#d2" x="5.397983" y="13.579690" />
<use xlink:href="#d2" x="4.566514" y="13.024120" />
<use xlink:href="#d2" x="3.735044" y="12.468550" />
<use xlink:href="#d2" x="2.903574" y="11.912980" />
<use xlink:href="#d2" x="4.570285" y="9.418571" />
<use xlink:href="#d2" x="4.014715" y="10.250041" />
<use xlink:href="#d2" x="3.459145" y="11.081510" />
<use xlink:href="#d2" x="8.755412" y="12.154849" />
<use xlink:href="#d2" x="7.923942" y="11.599278" />
<use xlink:href="#d2" x="6.981358" y="11.210002" />
<use xlink:href="#d2" x="6.149889" y="10.654432" />
<use xlink:href="#d2" x="7.588714" y="13.900935" />
<use xlink:href="#d2" x="6.757244" y="13.345365" />
<use xlink:href="#d2" x="6.036889" y="12.623500" />
<use xlink:href="#d2" x="5.205419" y="12.067930" />
<use xlink:href="#d2" x="5.511838" y="10.527570" />
<use xlink:href="#d2" x="4.970905" y="10.888946" />
<use xlink:href="#d2" x="4.844043" y="11.526997" />
<use xlink:href="#d23" x="7.714755" y="12.722328" />
<use xlink:href="#d2" x="4.953502" y="17.215677" />
<use xlink:href="#d2" x="3.972717" y="17.020587" />
<use xlink:href="#d2" x="2.991932" y="16.825496" />
<use xlink:href="#d2" x="2.011146" y="16.630406" />
<use xlink:href="#d2" x="1.030361" y="16.435316" />
<use xlink:href="#d2" x="4.173141" y="21.138818" />
<use xlink:href="#d2" x="3.192356" y="20.943728" />
<use xlink:href="#d2" x="2.211570" y="20.748638" />
<use xlink:href="#d2" x="1.230785" y="20.553547" />
<use xlink:href="#d2" x="0.250000" y="20.358457" />
<use xlink:href="#d2" x="0.835271" y="17.416101" />
<use xlink:href="#d2" x="0.640180" y="18.396886" />
<use xlink:href="#d2" x="0.445090" y="19.377672" />
<use xlink:href="#d2" x="5.748952" y="18.342513" />
<use xlink:href="#d2" x="4.768166" y="18.147423" />
<use xlink:href="#d2" x="3.748363" y="18.148490" />
<use xlink:href="#d2" x="2.767578" y="17.953400" />
<use xlink:href="#d2" x="5.339262" y="20.402163" />
<use xlink:href="#d2" x="4.358477" y="20.207072" />
<use xlink:href="#d2" x="3.416710" y="19.815825" />
<use xlink:href="#d2" x="2.435924" y="19.620734" />
<use xlink:href="#d2" x="2.129548" y="18.080366" />
<use xlink:href="#d2" x="1.768084" y="18.621240" />
<use xlink:href="#d2" x="1.895050" y="19.259270" />
<use xlink:href="#d26" x="5.004675" y="19.265038" />
</g>
</svg>