<?xml version="1.0" encoding="UTF-8"?>
<svg xmlns="http://www.w3.org/2000/svg" xmlns:xlink="http://www.w3.org/1999/xlink"
     width="72.0344400" height="96.0850000" viewBox="0 0 72.0344400 96.0850000">
<defs>
<mask id="d0">
<rect x="-36.0172200" y="-48.0425000" width="144.0688800" height="192.1700000" fill="white" />
</mask>
<g id="d1">
<rect x="-0.3300000" y="-1.2050000" width="0.6600000" height="2.4100000" fill="#133d91ff" transform="rotate(0.0)" />
</g>
<g id="d2">
<rect x="-1.1050000" y="-1.8300000" width="2.2100000" height="3.6600000" fill="#133d91ff" transform="rotate(0.0)" />
</g>
<g id="d3">
<rect x="-1.1050000" y="-2.0800000" width="2.2100000" height="4.1600000" fill="#133d91ff" transform="rotate(0.0)" />
</g>
<g id="d4">
<rect x="-0.4300000" y="-0.7300000" width="0.8600000" height="1.4600000" fill="#133d91ff" transform="rotate(0.0)" />
</g>
<g id="d5">
<rect x="-0.6794400" y="-0.6794400" width="1.3588800" height="1.3588800" fill="#133d91ff" transform="rotate(0.0)" />
</g>
<g id="d6">
<rect x="-0.8800000" y="-1.3300000" width="1.7600000" height="2.6600000" fill="#133d91ff" rx="0.880000" ry="0.880000" transform="rotate(0.0)" />
</g>
<g id="d7">
<rect x="-0.2800000" y="-0.6300000" width="0.5600000" height="1.2600000" fill="#133d91ff" transform="rotate(0.0)" />
</g>
<g id="d8">
<rect x="-0.8800000" y="-0.3550000" width="1.7600000" height="0.7100000" fill="#133d91ff" transform="rotate(0.0)" />
</g>
<g id="d9">
<rect x="-0.3550000" y="-0.8800000" width="0.7100000" height="1.7600000" fill="#133d91ff" transform="rotate(0.0)" />
</g>
<g id="d10">
<rect x="-0.5800000" y="-0.7050000" width="1.1600000" height="1.4100000" fill="#133d91ff" transform="rotate(0.0)" />
</g>
<g id="d11">
<rect x="-1.5800000" y="-1.0800000" width="3.1600000" height="2.1600000" fill="#133d91ff" transform="rotate(0.0)" />
</g>
<g id="d12">
<rect x="-0.7050000" y="-0.5800000" width="1.4100000" height="1.1600000" fill="#133d91ff" transform="rotate(0.0)" />
</g>
<g id="d13">
<rect x="-0.5350000" y="-0.6900000" width="1.0700000" height="1.3800000" fill="#133d91ff" transform="rotate(0.0)" />
</g>
<g id="d14">
<rect x="-1.3300000" y="-1.0800000" width="2.6600000" height="2.1600000" fill="#133d91ff" transform="rotate(0.0)" />
</g>
<g id="d15">
<rect x="-0.3050000" y="-0.3750000" width="0.6100000" height="0.7500000" fill="#133d91ff" transform="rotate(0.0)" />
</g>
<g id="d16">
<rect x="-1.8300000" y="-0.8800000" width="3.6600000" height="1.7600000" fill="#133d91ff" transform="rotate(0.0)" />
</g>
<g id="d17">
<rect x="-0.7300000" y="-0.4300000" width="1.4600000" height="0.8600000" fill="#133d91ff" transform="rotate(0.0)" />
</g>
<g id="d18">
<rect x="-0.9300000" y="-0.5300000" width="1.8600000" height="1.0600000" fill="#133d91ff" transform="rotate(0.0)" />
</g>
<g id="d19">
<rect x="-0.5800000" y="-0.2800000" width="1.1600000" height="0.5600000" fill="#133d91ff" transform="rotate(0.0)" />
</g>
<g id="d20">
<rect x="-1.3500000" y="-0.8420000" width="2.7000000" height="1.6840000" fill="#133d91ff" rx="0.842000" ry="0.842000" transform="rotate(0.0)" />
</g>
<g id="d21">
<rect x="-1.4554100" y="-0.9804300" width="2.9108200" height="1.9608600" fill="#133d91ff" transform="rotate(0.0)" />
</g>
<g id="d22">
<rect x="-0.9804300" y="-1.4554100" width="1.9608600" height="2.9108200" fill="#133d91ff" transform="rotate(0.0)" />
</g>
<g id="d23">
<rect x="-1.0800000" y="-1.5800000" width="2.1600000" height="3.1600000" fill="#133d91ff" rx="1.080000" ry="1.080000" transform="rotate(0.0)" />
</g>
<g id="d24">
<rect x="-0.4800000" y="-0.6800000" width="0.9600000" height="1.3600000" fill="#133d91ff" transform="rotate(0.0)" />
</g>
<g id="d25">
<rect x="-0.8800000" y="-0.2300000" width="1.7600000" height="0.4600000" fill="#133d91ff" transform="rotate(0.0)" />
</g>
<g id="d26">
<rect x="-1.3300000" y="-0.8800000" width="2.6600000" height="1.7600000" fill="#133d91ff" transform="rotate(0.0)" />
</g>
<g id="d27">
<rect x="-0.8050000" y="-0.3050000" width="1.6100000" height="0.6100000" fill="#133d91ff" transform="rotate(0.0)" />
</g>
<g id="d28">
<rect x="-2.0802500" y="-1.2801500" width="4.1605000" height="2.5603000" fill="#133d91ff" transform="rotate(0.0)" />
</g>
<g id="d29">
<rect x="-1.0800000" y="-0.4300000" width="2.1600000" height="0.8600000" fill="#133d91ff" transform="rotate(0.0)" />
</g>
<g id="d30">
<rect x="-3.5800000" y="-7.4800000" width="7.1600000" height="14.9600000" fill="#133d91ff" transform="rotate(0.0)" />
</g>
<g id="d31">
<rect x="-2.5800000" y="-8.9300000" width="5.1600000" height="17.8600000" fill="#133d91ff" transform="rotate(0.0)" />
</g>
<g id="d32">
<rect x="-0.9436000" y="-1.0960000" width="1.8872000" height="2.1920000" fill="#133d91ff" transform="rotate(0.0)" />
</g>
<g id="d33">
<rect x="-0.9436000" y="-1.0960000" width="1.8872000" height="2.1920000" fill="#133d91ff" rx="0.943600" ry="0.943600" transform="rotate(0.0)" />
</g>
<g id="d34">
<rect x="-1.0960000" y="-0.9436000" width="2.1920000" height="1.8872000" fill="#133d91ff" transform="rotate(0.0)" />
</g>
<g id="d35">
<rect x="-1.0960000" y="-0.9436000" width="2.1920000" height="1.8872000" fill="#133d91ff" rx="0.943600" ry="0.943600" transform="rotate(0.0)" />
</g>
<g id="d36">
<rect x="-0.9436000" y="-0.9436000" width="1.8872000" height="1.8872000" fill="#133d91ff" transform="rotate(0.0)" />
</g>
<g id="d37">
<rect x="-0.9436000" y="-0.9436000" width="1.8872000" height="1.8872000" fill="#133d91ff" rx="0.943600" ry="0.943600" transform="rotate(0.0)" />
</g>
<g id="d38">
<rect x="-1.0960000" y="-1.0960000" width="2.1920000" height="2.1920000" fill="#133d91ff" transform="rotate(0.0)" />
</g>
<g id="d39">
<rect x="-1.0960000" y="-1.0960000" width="2.1920000" height="2.1920000" fill="#133d91ff" rx="1.096000" ry="1.096000" transform="rotate(0.0)" />
</g>
<g id="d40">
<rect x="-0.5300000" y="-0.3300000" width="1.0600000" height="0.6600000" fill="#133d91ff" transform="rotate(0.0)" />
</g>
<g id="d41">
<rect x="-0.5300000" y="-0.7300000" width="1.0600000" height="1.4600000" fill="#133d91ff" transform="rotate(0.0)" />
</g>
</defs>
<g mask="url(#d0)">
<g></g>
<use xlink:href="#d1" x="8.8900000" y="6.3300000" />
<use xlink:href="#d1" x="9.6900000" y="6.3300000" />
<use xlink:href="#d1" x="10.4900000" y="6.3300000" />
<use xlink:href="#d1" x="8.0900000" y="6.3300000" />
<use xlink:href="#d1" x="7.2900000" y="6.3300000" />
<use xlink:href="#d2" x="13.8150000" y="6.3300000" />
<use xlink:href="#d2" x="3.9650000" y="6.3300000" />
<use xlink:href="#d3" x="13.8150000" y="2.0800000" />
<use xlink:href="#d3" x="3.9650000" y="2.0800000" />
<use xlink:href="#d4" x="65.5450000" y="24.0250000" />
<use xlink:href="#d4" x="67.4450000" y="24.0250000" />
<use xlink:href="#d5" x="69.2459800" y="24.0350000" />
<use xlink:href="#d5" x="71.3440200" y="24.0350000" />
<use xlink:href="#d5" x="69.2569600" y="20.4550000" />
<use xlink:href="#d5" x="71.3550000" y="20.4550000" />
<use xlink:href="#d5" x="69.2559800" y="27.7550000" />
<use xlink:href="#d5" x="71.3540200" y="27.7550000" />
<use xlink:href="#d4" x="65.5450000" y="20.4550000" />
<use xlink:href="#d4" x="67.4450000" y="20.4550000" />
<use xlink:href="#d4" x="65.5450000" y="27.7650000" />
<use xlink:href="#d4" x="67.4450000" y="27.7650000" />
<use xlink:href="#d6" x="67.0200000" y="2.4800000" />
<use xlink:href="#d6" x="64.4800000" y="2.4800000" />
<use xlink:href="#d6" x="61.9400000" y="2.4800000" />
<use xlink:href="#d7" x="18.9700000" y="34.5650000" />
<use xlink:href="#d7" x="19.6200000" y="34.5650000" />
<use xlink:href="#d7" x="20.2700000" y="34.5650000" />
<use xlink:href="#d7" x="20.9200000" y="34.5650000" />
<use xlink:href="#d7" x="21.5700000" y="34.5650000" />
<use xlink:href="#d7" x="22.2200000" y="34.5650000" />
<use xlink:href="#d7" x="22.8700000" y="34.5650000" />
<use xlink:href="#d7" x="23.5200000" y="34.5650000" />
<use xlink:href="#d7" x="24.1700000" y="34.5650000" />
<use xlink:href="#d7" x="24.8200000" y="34.5650000" />
<use xlink:href="#d7" x="25.4700000" y="34.5650000" />
<use xlink:href="#d7" x="26.1200000" y="34.5650000" />
<use xlink:href="#d7" x="26.7700000" y="34.5650000" />
<use xlink:href="#d7" x="27.4200000" y="34.5650000" />
<use xlink:href="#d7" x="27.4200000" y="28.8650000" />
<use xlink:href="#d7" x="26.7700000" y="28.8650000" />
<use xlink:href="#d7" x="26.1200000" y="28.8650000" />
<use xlink:href="#d7" x="25.4700000" y="28.8650000" />
<use xlink:href="#d7" x="24.8200000" y="28.8650000" />
<use xlink:href="#d7" x="24.1700000" y="28.8650000" />
<use xlink:href="#d7" x="23.5200000" y="28.8650000" />
<use xlink:href="#d7" x="22.8700000" y="28.8650000" />
<use xlink:href="#d7" x="22.2200000" y="28.8650000" />
<use xlink:href="#d7" x="21.5700000" y="28.8650000" />
<use xlink:href="#d7" x="20.9200000" y="28.8650000" />
<use xlink:href="#d7" x="20.2700000" y="28.8650000" />
<use xlink:href="#d7" x="19.6200000" y="28.8650000" />
<use xlink:href="#d7" x="18.9700000" y="28.8650000" />
<use xlink:href="#d8" x="52.6650000" y="26.6650000" />
<use xlink:href="#d8" x="52.6650000" y="27.4650000" />
<use xlink:href="#d8" x="52.6650000" y="28.2650000" />
<use xlink:href="#d8" x="52.6650000" y="29.0650000" />
<use xlink:href="#d8" x="52.6650000" y="29.8650000" />
<use xlink:href="#d8" x="52.6650000" y="30.6650000" />
<use xlink:href="#d8" x="52.6650000" y="31.4650000" />
<use xlink:href="#d8" x="52.6650000" y="32.2650000" />
<use xlink:href="#d9" x="54.1150000" y="33.7150000" />
<use xlink:href="#d9" x="54.9150000" y="33.7150000" />
<use xlink:href="#d9" x="55.7150000" y="33.7150000" />
<use xlink:href="#d9" x="56.5150000" y="33.7150000" />
<use xlink:href="#d9" x="57.3150000" y="33.7150000" />
<use xlink:href="#d9" x="58.1150000" y="33.7150000" />
<use xlink:href="#d9" x="58.9150000" y="33.7150000" />
<use xlink:href="#d9" x="59.7150000" y="33.7150000" />
<use xlink:href="#d8" x="61.1650000" y="32.2650000" />
<use xlink:href="#d8" x="61.1650000" y="31.4650000" />
<use xlink:href="#d8" x="61.1650000" y="30.6650000" />
<use xlink:href="#d8" x="61.1650000" y="29.8650000" />
<use xlink:href="#d8" x="61.1650000" y="29.0650000" />
<use xlink:href="#d8" x="61.1650000" y="28.2650000" />
<use xlink:href="#d8" x="61.1650000" y="27.4650000" />
<use xlink:href="#d8" x="61.1650000" y="26.6650000" />
<use xlink:href="#d9" x="59.7150000" y="25.2150000" />
<use xlink:href="#d9" x="58.9150000" y="25.2150000" />
<use xlink:href="#d9" x="58.1150000" y="25.2150000" />
<use xlink:href="#d9" x="57.3150000" y="25.2150000" />
<use xlink:href="#d9" x="56.5150000" y="25.2150000" />
<use xlink:href="#d9" x="55.7150000" y="25.2150000" />
<use xlink:href="#d9" x="54.9150000" y="25.2150000" />
<use xlink:href="#d9" x="54.1150000" y="25.2150000" />
<use xlink:href="#d6" x="58.9300000" y="2.4800000" />
<use xlink:href="#d6" x="56.3900000" y="2.4800000" />
<use xlink:href="#d6" x="53.8500000" y="2.4800000" />
<use xlink:href="#d6" x="50.8200000" y="2.4800000" />
<use xlink:href="#d6" x="48.2800000" y="2.4800000" />
<use xlink:href="#d6" x="45.7400000" y="2.4800000" />
<use xlink:href="#d6" x="42.7200000" y="2.4800000" />
<use xlink:href="#d6" x="40.1800000" y="2.4800000" />
<use xlink:href="#d6" x="37.6400000" y="2.4800000" />
<use xlink:href="#d10" x="13.4250000" y="72.7850000" />
<use xlink:href="#d10" x="11.4250000" y="72.7850000" />
<use xlink:href="#d11" x="4.4150000" y="81.5050000" />
<use xlink:href="#d11" x="4.4150000" y="75.3050000" />
<use xlink:href="#d12" x="45.2850000" y="27.9050000" />
<use xlink:href="#d12" x="45.2850000" y="29.9050000" />
<use xlink:href="#d12" x="13.7450000" y="34.0250000" />
<use xlink:href="#d12" x="13.7450000" y="36.0250000" />
<use xlink:href="#d12" x="1.9400000" y="17.9800000" />
<use xlink:href="#d12" x="1.9400000" y="15.9800000" />
<use xlink:href="#d12" x="0.7050000" y="29.6450000" />
<use xlink:href="#d12" x="0.7050000" y="31.6450000" />
<use xlink:href="#d12" x="16.9400000" y="19.7550000" />
<use xlink:href="#d12" x="16.9400000" y="17.7550000" />
<use xlink:href="#d10" x="12.4550000" y="40.3250000" />
<use xlink:href="#d10" x="10.4550000" y="40.3250000" />
<use xlink:href="#d10" x="17.4550000" y="40.3250000" />
<use xlink:href="#d10" x="15.4550000" y="40.3250000" />
<use xlink:href="#d10" x="22.4550000" y="40.3250000" />
<use xlink:href="#d10" x="20.4550000" y="40.3250000" />
<use xlink:href="#d10" x="27.5550000" y="40.3250000" />
<use xlink:href="#d10" x="25.5550000" y="40.3250000" />
<use xlink:href="#d10" x="35.1150000" y="77.2050000" />
<use xlink:href="#d10" x="33.1150000" y="77.2050000" />
<use xlink:href="#d10" x="44.2750000" y="40.2850000" />
<use xlink:href="#d10" x="42.2750000" y="40.2850000" />
<use xlink:href="#d10" x="49.2250000" y="40.2850000" />
<use xlink:href="#d10" x="47.2250000" y="40.2850000" />
<use xlink:href="#d10" x="54.3050000" y="40.2350000" />
<use xlink:href="#d10" x="52.3050000" y="40.2350000" />
<use xlink:href="#d10" x="59.3450000" y="40.1850000" />
<use xlink:href="#d10" x="57.3450000" y="40.1850000" />
<use xlink:href="#d10" x="62.0650000" y="76.4550000" />
<use xlink:href="#d10" x="60.0650000" y="76.4550000" />
<use xlink:href="#d10" x="41.1150000" y="72.2050000" />
<use xlink:href="#d10" x="39.1150000" y="72.2050000" />
<use xlink:href="#d10" x="68.3450000" y="57.1350000" />
<use xlink:href="#d10" x="66.3450000" y="57.1350000" />
<use xlink:href="#d10" x="68.3850000" y="63.1250000" />
<use xlink:href="#d10" x="66.3850000" y="63.1250000" />
<use xlink:href="#d10" x="68.4150000" y="69.1250000" />
<use xlink:href="#d10" x="66.4150000" y="69.1250000" />
<use xlink:href="#d10" x="68.3650000" y="75.1250000" />
<use xlink:href="#d10" x="66.3650000" y="75.1250000" />
<use xlink:href="#d10" x="11.1150000" y="12.2050000" />
<use xlink:href="#d10" x="13.1150000" y="12.2050000" />
<use xlink:href="#d12" x="6.8250000" y="13.2650000" />
<use xlink:href="#d12" x="6.8250000" y="11.2650000" />
<use xlink:href="#d12" x="3.0750000" y="13.2650000" />
<use xlink:href="#d12" x="3.0750000" y="11.2650000" />
<use xlink:href="#d12" x="38.0150000" y="47.0350000" />
<use xlink:href="#d12" x="38.0150000" y="49.0350000" />
<use xlink:href="#d12" x="69.7050000" y="47.0850000" />
<use xlink:href="#d12" x="69.7050000" y="49.0850000" />
<use xlink:href="#d12" x="43.7950000" y="8.8750000" />
<use xlink:href="#d12" x="43.7950000" y="6.8750000" />
<use xlink:href="#d12" x="38.1550000" y="8.7750000" />
<use xlink:href="#d12" x="38.1550000" y="6.7750000" />
<use xlink:href="#d12" x="31.5050000" y="8.5850000" />
<use xlink:href="#d12" x="31.5050000" y="6.5850000" />
<use xlink:href="#d12" x="25.6950000" y="8.6650000" />
<use xlink:href="#d12" x="25.6950000" y="6.6650000" />
<use xlink:href="#d5" x="0.6969600" y="43.6050000" />
<use xlink:href="#d5" x="2.7950000" y="43.6050000" />
<use xlink:href="#d5" x="0.7359800" y="39.5950000" />
<use xlink:href="#d5" x="2.8340200" y="39.5950000" />
<use xlink:href="#d13" x="9.8200000" y="44.5400000" />
<use xlink:href="#d13" x="13.0900000" y="44.5400000" />
<use xlink:href="#d13" x="14.8200000" y="44.5400000" />
<use xlink:href="#d13" x="18.0900000" y="44.5400000" />
<use xlink:href="#d13" x="19.8200000" y="44.5400000" />
<use xlink:href="#d13" x="23.0900000" y="44.5400000" />
<use xlink:href="#d13" x="24.9200000" y="44.5400000" />
<use xlink:href="#d13" x="28.1900000" y="44.5400000" />
<use xlink:href="#d14" x="17.1150000" y="87.2050000" />
<use xlink:href="#d14" x="21.6150000" y="87.2050000" />
<use xlink:href="#d14" x="17.1150000" y="84.2050000" />
<use xlink:href="#d14" x="21.6150000" y="84.2050000" />
<use xlink:href="#d14" x="32.6150000" y="87.2050000" />
<use xlink:href="#d14" x="28.1150000" y="87.2050000" />
<use xlink:href="#d14" x="32.6150000" y="84.2050000" />
<use xlink:href="#d14" x="28.1150000" y="84.2050000" />
<use xlink:href="#d13" x="41.5900000" y="44.5400000" />
<use xlink:href="#d13" x="44.8600000" y="44.5400000" />
<use xlink:href="#d13" x="46.6350000" y="44.5400000" />
<use xlink:href="#d13" x="49.9050000" y="44.5400000" />
<use xlink:href="#d13" x="51.6850000" y="44.5400000" />
<use xlink:href="#d13" x="54.9550000" y="44.5400000" />
<use xlink:href="#d13" x="56.6850000" y="44.5400000" />
<use xlink:href="#d13" x="59.9550000" y="44.5400000" />
<use xlink:href="#d14" x="41.8650000" y="87.2050000" />
<use xlink:href="#d14" x="46.3650000" y="87.2050000" />
<use xlink:href="#d14" x="41.8650000" y="84.2050000" />
<use xlink:href="#d14" x="46.3650000" y="84.2050000" />
<use xlink:href="#d14" x="58.4150000" y="87.2050000" />
<use xlink:href="#d14" x="53.9150000" y="87.2050000" />
<use xlink:href="#d14" x="58.4150000" y="84.2050000" />
<use xlink:href="#d14" x="53.9150000" y="84.2050000" />
<use xlink:href="#d13" x="10.5550000" y="25.0300000" />
<use xlink:href="#d13" x="13.8250000" y="25.0300000" />
<use xlink:href="#d15" x="45.5450000" y="22.4100000" />
<use xlink:href="#d15" x="45.5450000" y="24.5200000" />
<use xlink:href="#d15" x="42.0050000" y="22.4100000" />
<use xlink:href="#d15" x="42.0050000" y="24.5200000" />
<use xlink:href="#d15" x="31.2750000" y="22.3900000" />
<use xlink:href="#d15" x="31.2750000" y="24.5000000" />
<use xlink:href="#d15" x="27.6750000" y="22.3700000" />
<use xlink:href="#d15" x="27.6750000" y="24.4800000" />
<use xlink:href="#d16" x="12.1150000" y="16.7666000" />
<use xlink:href="#d16" x="12.1150000" y="21.6434000" />
<use xlink:href="#d10" x="13.1150000" y="14.2050000" />
<use xlink:href="#d10" x="11.1150000" y="14.2050000" />
<use xlink:href="#d17" x="19.4400000" y="17.8050000" />
<use xlink:href="#d17" x="19.4400000" y="19.7050000" />
<use xlink:href="#d17" x="34.6350000" y="31.8300000" />
<use xlink:href="#d17" x="34.6350000" y="29.9300000" />
<use xlink:href="#d17" x="37.1350000" y="31.8300000" />
<use xlink:href="#d17" x="37.1350000" y="29.9300000" />
<use xlink:href="#d17" x="32.2850000" y="29.8800000" />
<use xlink:href="#d17" x="32.2850000" y="31.7800000" />
<use xlink:href="#d17" x="20.2050000" y="22.5050000" />
<use xlink:href="#d17" x="20.2050000" y="24.4050000" />
<use xlink:href="#d17" x="16.5300000" y="22.5050000" />
<use xlink:href="#d17" x="16.5300000" y="24.4050000" />
<use xlink:href="#d4" x="5.0800000" y="43.5400000" />
<use xlink:href="#d4" x="6.9800000" y="43.5400000" />
<use xlink:href="#d4" x="7.0200000" y="39.5400000" />
<use xlink:href="#d4" x="5.1200000" y="39.5400000" />
<use xlink:href="#d4" x="14.0650000" y="75.3550000" />
<use xlink:href="#d4" x="12.1650000" y="75.3550000" />
<use xlink:href="#d4" x="33.1650000" y="74.2050000" />
<use xlink:href="#d4" x="35.0650000" y="74.2050000" />
<use xlink:href="#d4" x="12.5250000" y="48.5150000" />
<use xlink:href="#d4" x="10.6250000" y="48.5150000" />
<use xlink:href="#d4" x="17.3300000" y="48.5150000" />
<use xlink:href="#d4" x="15.4300000" y="48.5150000" />
<use xlink:href="#d4" x="22.2300000" y="48.5450000" />
<use xlink:href="#d4" x="20.3300000" y="48.5450000" />
<use xlink:href="#d4" x="27.4300000" y="48.5450000" />
<use xlink:href="#d4" x="25.5300000" y="48.5450000" />
<use xlink:href="#d18" x="14.2450000" y="67.7450000" />
<use xlink:href="#d18" x="14.2450000" y="64.8450000" />
<use xlink:href="#d18" x="34.1150000" y="67.7550000" />
<use xlink:href="#d18" x="34.1150000" y="64.8550000" />
<use xlink:href="#d4" x="44.5500000" y="48.6150000" />
<use xlink:href="#d4" x="42.6500000" y="48.6150000" />
<use xlink:href="#d4" x="49.1700000" y="48.5850000" />
<use xlink:href="#d4" x="47.2700000" y="48.5850000" />
<use xlink:href="#d4" x="54.1700000" y="48.5850000" />
<use xlink:href="#d4" x="52.2700000" y="48.5850000" />
<use xlink:href="#d4" x="59.1700000" y="48.5850000" />
<use xlink:href="#d4" x="57.2700000" y="48.5850000" />
<use xlink:href="#d4" x="41.1150000" y="75.2050000" />
<use xlink:href="#d4" x="39.2150000" y="75.2050000" />
<use xlink:href="#d4" x="60.1150000" y="73.9550000" />
<use xlink:href="#d4" x="62.0150000" y="73.9550000" />
<use xlink:href="#d18" x="40.5650000" y="67.5850000" />
<use xlink:href="#d18" x="40.5650000" y="64.6850000" />
<use xlink:href="#d18" x="60.1150000" y="67.6050000" />
<use xlink:href="#d18" x="60.1150000" y="64.7050000" />
<use xlink:href="#d17" x="6.7650000" y="17.9050000" />
<use xlink:href="#d17" x="6.7650000" y="16.0050000" />
<use xlink:href="#d17" x="4.2850000" y="17.9050000" />
<use xlink:href="#d17" x="4.2850000" y="16.0050000" />
<use xlink:href="#d17" x="31.6050000" y="46.9550000" />
<use xlink:href="#d17" x="31.6050000" y="48.8550000" />
<use xlink:href="#d4" x="33.2750000" y="40.1750000" />
<use xlink:href="#d4" x="31.3750000" y="40.1750000" />
<use xlink:href="#d17" x="34.7050000" y="48.8950000" />
<use xlink:href="#d17" x="34.7050000" y="46.9950000" />
<use xlink:href="#d4" x="38.0050000" y="40.1750000" />
<use xlink:href="#d4" x="36.1050000" y="40.1750000" />
<use xlink:href="#d17" x="40.9950000" y="8.7850000" />
<use xlink:href="#d17" x="40.9950000" y="6.8850000" />
<use xlink:href="#d17" x="49.0150000" y="22.5250000" />
<use xlink:href="#d17" x="49.0150000" y="24.4250000" />
<use xlink:href="#d17" x="35.2750000" y="8.6850000" />
<use xlink:href="#d17" x="35.2750000" y="6.7850000" />
<use xlink:href="#d17" x="38.4550000" y="22.5150000" />
<use xlink:href="#d17" x="38.4550000" y="24.4150000" />
<use xlink:href="#d17" x="63.0550000" y="47.1650000" />
<use xlink:href="#d17" x="63.0550000" y="49.0650000" />
<use xlink:href="#d4" x="64.8750000" y="40.1850000" />
<use xlink:href="#d4" x="62.9750000" y="40.1850000" />
<use xlink:href="#d17" x="66.3250000" y="49.0650000" />
<use xlink:href="#d17" x="66.3250000" y="47.1650000" />
<use xlink:href="#d4" x="69.7150000" y="40.1850000" />
<use xlink:href="#d4" x="67.8150000" y="40.1850000" />
<use xlink:href="#d17" x="28.6250000" y="8.3850000" />
<use xlink:href="#d17" x="28.6250000" y="6.4850000" />
<use xlink:href="#d17" x="34.8250000" y="22.4950000" />
<use xlink:href="#d17" x="34.8250000" y="24.3950000" />
<use xlink:href="#d17" x="22.7650000" y="8.5550000" />
<use xlink:href="#d17" x="22.7650000" y="6.6550000" />
<use xlink:href="#d17" x="23.9450000" y="22.4750000" />
<use xlink:href="#d17" x="23.9450000" y="24.3750000" />
<use xlink:href="#d19" x="6.9150000" y="26.8050000" />
<use xlink:href="#d19" x="6.9150000" y="26.1550000" />
<use xlink:href="#d19" x="6.9150000" y="25.5050000" />
<use xlink:href="#d19" x="6.9150000" y="24.8550000" />
<use xlink:href="#d19" x="6.9150000" y="24.2050000" />
<use xlink:href="#d19" x="6.9150000" y="23.5550000" />
<use xlink:href="#d19" x="6.9150000" y="22.9050000" />
<use xlink:href="#d19" x="6.9150000" y="22.2550000" />
<use xlink:href="#d19" x="6.9150000" y="21.6050000" />
<use xlink:href="#d19" x="6.9150000" y="20.9550000" />
<use xlink:href="#d19" x="1.1150000" y="20.9550000" />
<use xlink:href="#d19" x="1.1150000" y="21.6050000" />
<use xlink:href="#d19" x="1.1150000" y="22.2550000" />
<use xlink:href="#d19" x="1.1150000" y="22.9050000" />
<use xlink:href="#d19" x="1.1150000" y="23.5550000" />
<use xlink:href="#d19" x="1.1150000" y="24.2050000" />
<use xlink:href="#d19" x="1.1150000" y="24.8550000" />
<use xlink:href="#d19" x="1.1150000" y="25.5050000" />
<use xlink:href="#d19" x="1.1150000" y="26.1550000" />
<use xlink:href="#d19" x="1.1150000" y="26.8050000" />
<use xlink:href="#d20" x="6.6650000" y="57.7050000" />
<use xlink:href="#d20" x="6.6650000" y="60.2450000" />
<use xlink:href="#d20" x="6.6650000" y="62.7850000" />
<use xlink:href="#d21" x="7.3388200" y="70.2050000" />
<use xlink:href="#d21" x="2.0911800" y="70.2050000" />
<use xlink:href="#d21" x="7.3388200" y="87.1050000" />
<use xlink:href="#d21" x="2.0911800" y="87.1050000" />
<use xlink:href="#d22" x="3.7250000" y="35.3488200" />
<use xlink:href="#d22" x="3.7250000" y="30.1011800" />
<use xlink:href="#d22" x="9.2250000" y="35.3588200" />
<use xlink:href="#d22" x="9.2250000" y="30.1111800" />
<use xlink:href="#d22" x="41.9850000" y="33.8788200" />
<use xlink:href="#d22" x="41.9850000" y="28.6311800" />
<use xlink:href="#d6" x="34.6400000" y="2.4800000" />
<use xlink:href="#d6" x="32.1000000" y="2.4800000" />
<use xlink:href="#d6" x="29.5600000" y="2.4800000" />
<use xlink:href="#d6" x="27.0200000" y="2.4800000" />
<use xlink:href="#d6" x="24.2400000" y="2.4800000" />
<use xlink:href="#d6" x="21.7000000" y="2.4800000" />
<use xlink:href="#d6" x="19.1600000" y="2.4800000" />
<use xlink:href="#d6" x="16.6200000" y="2.4800000" />
<use xlink:href="#d23" x="32.6650000" y="94.5050000" />
<use xlink:href="#d23" x="27.5850000" y="94.5050000" />
<use xlink:href="#d23" x="37.7450000" y="94.5050000" />
<use xlink:href="#d23" x="42.8250000" y="94.5050000" />
<use xlink:href="#d23" x="53.1150000" y="94.5050000" />
<use xlink:href="#d23" x="48.0350000" y="94.5050000" />
<use xlink:href="#d23" x="58.1950000" y="94.5050000" />
<use xlink:href="#d23" x="63.2750000" y="94.5050000" />
<use xlink:href="#d23" x="12.0950000" y="94.5050000" />
<use xlink:href="#d23" x="7.0150000" y="94.5050000" />
<use xlink:href="#d23" x="22.3850000" y="94.5050000" />
<use xlink:href="#d23" x="17.3050000" y="94.5050000" />
<use xlink:href="#d4" x="48.1750000" y="7.3550000" />
<use xlink:href="#d4" x="50.0750000" y="7.3550000" />
<use xlink:href="#d4" x="53.2450000" y="7.3550000" />
<use xlink:href="#d4" x="55.1450000" y="7.3550000" />
<use xlink:href="#d4" x="58.5050000" y="7.3650000" />
<use xlink:href="#d4" x="60.4050000" y="7.3650000" />
<use xlink:href="#d4" x="70.9950000" y="7.3550000" />
<use xlink:href="#d4" x="69.0950000" y="7.3550000" />
<use xlink:href="#d4" x="65.6650000" y="7.3550000" />
<use xlink:href="#d4" x="63.7650000" y="7.3550000" />
<use xlink:href="#d24" x="66.0350000" y="10.6050000" />
<use xlink:href="#d24" x="63.4950000" y="10.6050000" />
<use xlink:href="#d24" x="63.4950000" y="16.6050000" />
<use xlink:href="#d24" x="66.0350000" y="16.6050000" />
<use xlink:href="#d24" x="71.3250000" y="10.6050000" />
<use xlink:href="#d24" x="68.7850000" y="10.6050000" />
<use xlink:href="#d24" x="68.7850000" y="16.6050000" />
<use xlink:href="#d24" x="71.3250000" y="16.6050000" />
<use xlink:href="#d24" x="60.7200000" y="10.6650000" />
<use xlink:href="#d24" x="58.1800000" y="10.6650000" />
<use xlink:href="#d24" x="58.1800000" y="16.6650000" />
<use xlink:href="#d24" x="60.7200000" y="16.6650000" />
<use xlink:href="#d24" x="55.4950000" y="10.6150000" />
<use xlink:href="#d24" x="52.9550000" y="10.6150000" />
<use xlink:href="#d24" x="52.9550000" y="16.6150000" />
<use xlink:href="#d24" x="55.4950000" y="16.6150000" />
<use xlink:href="#d24" x="50.3650000" y="10.6867380" />
<use xlink:href="#d24" x="47.8250000" y="10.6867380" />
<use xlink:href="#d24" x="47.8250000" y="16.6867380" />
<use xlink:href="#d24" x="50.3650000" y="16.6867380" />
<use xlink:href="#d25" x="48.9950000" y="30.9150000" />
<use xlink:href="#d25" x="48.9950000" y="31.8650000" />
<use xlink:href="#d25" x="48.9950000" y="32.8150000" />
<use xlink:href="#d26" x="60.3050000" y="20.5650000" />
<use xlink:href="#d26" x="52.8050000" y="20.5650000" />
<use xlink:href="#d5" x="0.7459800" y="47.7850000" />
<use xlink:href="#d5" x="2.8440200" y="47.7850000" />
<use xlink:href="#d4" x="5.1450000" y="47.7550000" />
<use xlink:href="#d4" x="7.0450000" y="47.7550000" />
<use xlink:href="#d27" x="31.7550000" y="42.8150000" />
<use xlink:href="#d27" x="31.7550000" y="43.4650000" />
<use xlink:href="#d27" x="31.7550000" y="44.1150000" />
<use xlink:href="#d27" x="31.7550000" y="44.7650000" />
<use xlink:href="#d27" x="37.6550000" y="44.7650000" />
<use xlink:href="#d27" x="37.6550000" y="44.1150000" />
<use xlink:href="#d27" x="37.6550000" y="43.4650000" />
<use xlink:href="#d27" x="37.6550000" y="42.8150000" />
<use xlink:href="#d27" x="63.3750000" y="42.8150000" />
<use xlink:href="#d27" x="63.3750000" y="43.4650000" />
<use xlink:href="#d27" x="63.3750000" y="44.1150000" />
<use xlink:href="#d27" x="63.3750000" y="44.7650000" />
<use xlink:href="#d27" x="69.2750000" y="44.7650000" />
<use xlink:href="#d27" x="69.2750000" y="44.1150000" />
<use xlink:href="#d27" x="69.2750000" y="43.4650000" />
<use xlink:href="#d27" x="69.2750000" y="42.8150000" />
<use xlink:href="#d28" x="22.0155000" y="56.3500000" />
<use xlink:href="#d28" x="14.0145000" y="56.3500000" />
<use xlink:href="#d28" x="48.0955000" y="56.3100000" />
<use xlink:href="#d28" x="40.0945000" y="56.3100000" />
<use xlink:href="#d28" x="26.8245000" y="56.3950000" />
<use xlink:href="#d28" x="34.8255000" y="56.3950000" />
<use xlink:href="#d28" x="52.9645000" y="56.3350000" />
<use xlink:href="#d28" x="60.9655000" y="56.3350000" />
<use xlink:href="#d29" x="43.6150000" y="66.3150000" />
<use xlink:href="#d29" x="43.6150000" y="67.5850000" />
<use xlink:href="#d29" x="43.6150000" y="68.8550000" />
<use xlink:href="#d29" x="43.6150000" y="70.1250000" />
<use xlink:href="#d29" x="43.6150000" y="71.3950000" />
<use xlink:href="#d29" x="43.6150000" y="72.6650000" />
<use xlink:href="#d29" x="43.6150000" y="73.9350000" />
<use xlink:href="#d29" x="43.6150000" y="75.2050000" />
<use xlink:href="#d29" x="43.6150000" y="76.4750000" />
<use xlink:href="#d29" x="43.6150000" y="77.7450000" />
<use xlink:href="#d29" x="57.1150000" y="66.3150000" />
<use xlink:href="#d29" x="57.1150000" y="67.5850000" />
<use xlink:href="#d29" x="57.1150000" y="68.8550000" />
<use xlink:href="#d29" x="57.1150000" y="70.1250000" />
<use xlink:href="#d29" x="57.1150000" y="71.3950000" />
<use xlink:href="#d29" x="57.1150000" y="72.6650000" />
<use xlink:href="#d29" x="57.1150000" y="73.9350000" />
<use xlink:href="#d29" x="57.1150000" y="75.2050000" />
<use xlink:href="#d29" x="57.1150000" y="76.4750000" />
<use xlink:href="#d29" x="57.1150000" y="77.7450000" />
<use xlink:href="#d30" x="50.3650000" y="72.0300000" />
<use xlink:href="#d30" x="50.3650000" y="72.0300000" />
<use xlink:href="#d31" x="50.3650000" y="72.0300000" />
<use xlink:href="#d31" x="50.3650000" y="72.0300000" />
<use xlink:href="#d29" x="17.3650000" y="66.4900000" />
<use xlink:href="#d29" x="17.3650000" y="67.7600000" />
<use xlink:href="#d29" x="17.3650000" y="69.0300000" />
<use xlink:href="#d29" x="17.3650000" y="70.3000000" />
<use xlink:href="#d29" x="17.3650000" y="71.5700000" />
<use xlink:href="#d29" x="17.3650000" y="72.8400000" />
<use xlink:href="#d29" x="17.3650000" y="74.1100000" />
<use xlink:href="#d29" x="17.3650000" y="75.3800000" />
<use xlink:href="#d29" x="17.3650000" y="76.6500000" />
<use xlink:href="#d29" x="17.3650000" y="77.9200000" />
<use xlink:href="#d29" x="30.8650000" y="66.4900000" />
<use xlink:href="#d29" x="30.8650000" y="67.7600000" />
<use xlink:href="#d29" x="30.8650000" y="69.0300000" />
<use xlink:href="#d29" x="30.8650000" y="70.3000000" />
<use xlink:href="#d29" x="30.8650000" y="71.5700000" />
<use xlink:href="#d29" x="30.8650000" y="72.8400000" />
<use xlink:href="#d29" x="30.8650000" y="74.1100000" />
<use xlink:href="#d29" x="30.8650000" y="75.3800000" />
<use xlink:href="#d29" x="30.8650000" y="76.6500000" />
<use xlink:href="#d29" x="30.8650000" y="77.9200000" />
<use xlink:href="#d30" x="24.1150000" y="72.2050000" />
<use xlink:href="#d30" x="24.1150000" y="72.2050000" />
<use xlink:href="#d31" x="24.1150000" y="72.2050000" />
<use xlink:href="#d31" x="24.1150000" y="72.2050000" />
<use xlink:href="#d32" x="65.9050000" y="72.0950000" />
<use xlink:href="#d33" x="68.4450000" y="72.0950000" />
<use xlink:href="#d33" x="70.9850000" y="72.0950000" />
<use xlink:href="#d32" x="65.9050000" y="66.0950000" />
<use xlink:href="#d33" x="68.4450000" y="66.0950000" />
<use xlink:href="#d33" x="70.9850000" y="66.0950000" />
<use xlink:href="#d32" x="65.9050000" y="60.0950000" />
<use xlink:href="#d33" x="68.4450000" y="60.0950000" />
<use xlink:href="#d33" x="70.9850000" y="60.0950000" />
<use xlink:href="#d32" x="65.8750000" y="54.1350000" />
<use xlink:href="#d33" x="68.4150000" y="54.1350000" />
<use xlink:href="#d33" x="70.9550000" y="54.1350000" />
<use xlink:href="#d34" x="30.6400000" y="18.3350000" />
<use xlink:href="#d35" x="30.6400000" y="15.7950000" />
<use xlink:href="#d35" x="30.6400000" y="13.2550000" />
<use xlink:href="#d34" x="43.0950000" y="18.3200000" />
<use xlink:href="#d35" x="43.0950000" y="15.7800000" />
<use xlink:href="#d35" x="43.0950000" y="13.2400000" />
<use xlink:href="#d34" x="23.4900000" y="13.2550000" />
<use xlink:href="#d35" x="23.4900000" y="15.7950000" />
<use xlink:href="#d35" x="23.4900000" y="18.3350000" />
<use xlink:href="#d34" x="27.0650000" y="13.2550000" />
<use xlink:href="#d35" x="27.0650000" y="15.7950000" />
<use xlink:href="#d35" x="27.0650000" y="18.3350000" />
<use xlink:href="#d34" x="35.9450000" y="13.2250000" />
<use xlink:href="#d35" x="35.9450000" y="15.7650000" />
<use xlink:href="#d35" x="35.9450000" y="18.3050000" />
<use xlink:href="#d34" x="39.5200000" y="13.2250000" />
<use xlink:href="#d35" x="39.5200000" y="15.7650000" />
<use xlink:href="#d35" x="39.5200000" y="18.3050000" />
<use xlink:href="#d36" x="70.5350000" y="35.8250000" />
<use xlink:href="#d37" x="67.9950000" y="35.8250000" />
<use xlink:href="#d37" x="70.5350000" y="33.2850000" />
<use xlink:href="#d37" x="67.9950000" y="33.2850000" />
<use xlink:href="#d37" x="70.5350000" y="30.7450000" />
<use xlink:href="#d37" x="67.9950000" y="30.7450000" />
<use xlink:href="#d38" x="11.9150000" y="81.0650000" />
<use xlink:href="#d39" x="11.9150000" y="83.6050000" />
<use xlink:href="#d40" x="47.8850000" y="13.8150000" />
<use xlink:href="#d40" x="47.8850000" y="14.6150000" />
<use xlink:href="#d41" x="47.8850000" y="14.2150000" />
<use xlink:href="#d40" x="52.9450000" y="13.8050000" />
<use xlink:href="#d40" x="52.9450000" y="14.6050000" />
<use xlink:href="#d41" x="52.9450000" y="14.2050000" />
<use xlink:href="#d40" x="58.1850000" y="13.8350000" />
<use xlink:href="#d40" x="58.1850000" y="14.6350000" />
<use xlink:href="#d41" x="58.1850000" y="14.2350000" />
<use xlink:href="#d40" x="68.8150000" y="13.8050000" />
<use xlink:href="#d40" x="68.8150000" y="14.6050000" />
<use xlink:href="#d41" x="68.8150000" y="14.2050000" />
<use xlink:href="#d40" x="63.4850000" y="13.8050000" />
<use xlink:href="#d40" x="63.4850000" y="14.6050000" />
<use xlink:href="#d41" x="63.4850000" y="14.2050000" />
</g>
</svg>