<?xml version="1.0" encoding="UTF-8"?>
<svg xmlns="http://www.w3.org/2000/svg" xmlns:xlink="http://www.w3.org/1999/xlink"
     width="71.7220400" height="87.9726000" viewBox="0 0 71.7220400 87.9726000">
<defs>
<mask id="d0">
<rect x="-35.8610200" y="-43.9863000" width="143.4440800" height="175.9452000" fill="white" />
</mask>
<g id="d1">
<rect x="-0.1738000" y="-1.0488000" width="0.3476000" height="2.0976000" fill="#133d91ff" transform="rotate(0.0)" />
</g>
<g id="d2">
<rect x="-0.9488000" y="-1.6738000" width="1.8976000" height="3.3476000" fill="#133d91ff" transform="rotate(0.0)" />
</g>
<g id="d3">
<rect x="-0.9488000" y="-1.9238000" width="1.8976000" height="3.8476000" fill="#133d91ff" transform="rotate(0.0)" />
</g>
<g id="d4">
<rect x="-0.2738000" y="-0.5738000" width="0.5476000" height="1.1476000" fill="#133d91ff" transform="rotate(0.0)" />
</g>
<g id="d5">
<rect x="-0.5232400" y="-0.5232400" width="1.0464800" height="1.0464800" fill="#133d91ff" transform="rotate(0.0)" />
</g>
<g id="d6">
<rect x="-0.1238000" y="-0.4738000" width="0.2476000" height="0.9476000" fill="#133d91ff" transform="rotate(0.0)" />
</g>
<g id="d7">
<rect x="-0.7238000" y="-0.1988000" width="1.4476000" height="0.3976000" fill="#133d91ff" transform="rotate(0.0)" />
</g>
<g id="d8">
<rect x="-0.1988000" y="-0.7238000" width="0.3976000" height="1.4476000" fill="#133d91ff" transform="rotate(0.0)" />
</g>
<g id="d9">
<rect x="-0.4238000" y="-0.5488000" width="0.8476000" height="1.0976000" fill="#133d91ff" transform="rotate(0.0)" />
</g>
<g id="d10">
<rect x="-1.4238000" y="-0.9238000" width="2.8476000" height="1.8476000" fill="#133d91ff" transform="rotate(0.0)" />
</g>
<g id="d11">
<rect x="-0.5488000" y="-0.4238000" width="1.0976000" height="0.8476000" fill="#133d91ff" transform="rotate(0.0)" />
</g>
<g id="d12">
<rect x="-0.3788000" y="-0.5338000" width="0.7576000" height="1.0676000" fill="#133d91ff" transform="rotate(0.0)" />
</g>
<g id="d13">
<rect x="-1.1738000" y="-0.9238000" width="2.3476000" height="1.8476000" fill="#133d91ff" transform="rotate(0.0)" />
</g>
<g id="d14">
<rect x="-0.1488000" y="-0.2188000" width="0.2976000" height="0.4376000" fill="#133d91ff" transform="rotate(0.0)" />
</g>
<g id="d15">
<rect x="-1.6738000" y="-0.7238000" width="3.3476000" height="1.4476000" fill="#133d91ff" transform="rotate(0.0)" />
</g>
<g id="d16">
<rect x="-0.5738000" y="-0.2738000" width="1.1476000" height="0.5476000" fill="#133d91ff" transform="rotate(0.0)" />
</g>
<g id="d17">
<rect x="-0.7738000" y="-0.3738000" width="1.5476000" height="0.7476000" fill="#133d91ff" transform="rotate(0.0)" />
</g>
<g id="d18">
<rect x="-0.4238000" y="-0.1238000" width="0.8476000" height="0.2476000" fill="#133d91ff" transform="rotate(0.0)" />
</g>
<g id="d19">
<rect x="-1.2992100" y="-0.8242300" width="2.5984200" height="1.6484600" fill="#133d91ff" transform="rotate(0.0)" />
</g>
<g id="d20">
<rect x="-0.8242300" y="-1.2992100" width="1.6484600" height="2.5984200" fill="#133d91ff" transform="rotate(0.0)" />
</g>
<g id="d21">
<rect x="-0.3238000" y="-0.5238000" width="0.6476000" height="1.0476000" fill="#133d91ff" transform="rotate(0.0)" />
</g>
<g id="d22">
<rect x="-0.7238000" y="-0.0738000" width="1.4476000" height="0.1476000" fill="#133d91ff" transform="rotate(0.0)" />
</g>
<g id="d23">
<rect x="-1.1738000" y="-0.7238000" width="2.3476000" height="1.4476000" fill="#133d91ff" transform="rotate(0.0)" />
</g>
<g id="d24">
<rect x="-0.6488000" y="-0.1488000" width="1.2976000" height="0.2976000" fill="#133d91ff" transform="rotate(0.0)" />
</g>
<g id="d25">
<rect x="-1.9240500" y="-1.1239500" width="3.8481000" height="2.2479000" fill="#133d91ff" transform="rotate(0.0)" />
</g>
<g id="d26">
<rect x="-0.9238000" y="-0.2738000" width="1.8476000" height="0.5476000" fill="#133d91ff" transform="rotate(0.0)" />
</g>
</defs>
<g mask="url(#d0)">
<g></g>
<use xlink:href="#d1" x="8.7338000" y="6.1738000" />
<use xlink:href="#d1" x="9.5338000" y="6.1738000" />
<use xlink:href="#d1" x="10.3338000" y="6.1738000" />
<use xlink:href="#d1" x="7.9338000" y="6.1738000" />
<use xlink:href="#d1" x="7.1338000" y="6.1738000" />
<use xlink:href="#d2" x="13.6588000" y="6.1738000" />
<use xlink:href="#d2" x="3.8088000" y="6.1738000" />
<use xlink:href="#d3" x="13.6588000" y="1.9238000" />
<use xlink:href="#d3" x="3.8088000" y="1.9238000" />
<use xlink:href="#d4" x="65.3888000" y="23.8688000" />
<use xlink:href="#d4" x="67.2888000" y="23.8688000" />
<use xlink:href="#d5" x="69.0897800" y="23.8788000" />
<use xlink:href="#d5" x="71.1878200" y="23.8788000" />
<use xlink:href="#d5" x="69.1007600" y="20.2988000" />
<use xlink:href="#d5" x="71.1988000" y="20.2988000" />
<use xlink:href="#d5" x="69.0997800" y="27.5988000" />
<use xlink:href="#d5" x="71.1978200" y="27.5988000" />
<use xlink:href="#d4" x="65.3888000" y="20.2988000" />
<use xlink:href="#d4" x="67.2888000" y="20.2988000" />
<use xlink:href="#d4" x="65.3888000" y="27.6088000" />
<use xlink:href="#d4" x="67.2888000" y="27.6088000" />
<use xlink:href="#d6" x="18.8138000" y="34.4088000" />
<use xlink:href="#d6" x="19.4638000" y="34.4088000" />
<use xlink:href="#d6" x="20.1138000" y="34.4088000" />
<use xlink:href="#d6" x="20.7638000" y="34.4088000" />
<use xlink:href="#d6" x="21.4138000" y="34.4088000" />
<use xlink:href="#d6" x="22.0638000" y="34.4088000" />
<use xlink:href="#d6" x="22.7138000" y="34.4088000" />
<use xlink:href="#d6" x="23.3638000" y="34.4088000" />
<use xlink:href="#d6" x="24.0138000" y="34.4088000" />
<use xlink:href="#d6" x="24.6638000" y="34.4088000" />
<use xlink:href="#d6" x="25.3138000" y="34.4088000" />
<use xlink:href="#d6" x="25.9638000" y="34.4088000" />
<use xlink:href="#d6" x="26.6138000" y="34.4088000" />
<use xlink:href="#d6" x="27.2638000" y="34.4088000" />
<use xlink:href="#d6" x="27.2638000" y="28.7088000" />
<use xlink:href="#d6" x="26.6138000" y="28.7088000" />
<use xlink:href="#d6" x="25.9638000" y="28.7088000" />
<use xlink:href="#d6" x="25.3138000" y="28.7088000" />
<use xlink:href="#d6" x="24.6638000" y="28.7088000" />
<use xlink:href="#d6" x="24.0138000" y="28.7088000" />
<use xlink:href="#d6" x="23.3638000" y="28.7088000" />
<use xlink:href="#d6" x="22.7138000" y="28.7088000" />
<use xlink:href="#d6" x="22.0638000" y="28.7088000" />
<use xlink:href="#d6" x="21.4138000" y="28.7088000" />
<use xlink:href="#d6" x="20.7638000" y="28.7088000" />
<use xlink:href="#d6" x="20.1138000" y="28.7088000" />
<use xlink:href="#d6" x="19.4638000" y="28.7088000" />
<use xlink:href="#d6" x="18.8138000" y="28.7088000" />
<use xlink:href="#d7" x="52.5088000" y="26.5088000" />
<use xlink:href="#d7" x="52.5088000" y="27.3088000" />
<use xlink:href="#d7" x="52.5088000" y="28.1088000" />
<use xlink:href="#d7" x="52.5088000" y="28.9088000" />
<use xlink:href="#d7" x="52.5088000" y="29.7088000" />
<use xlink:href="#d7" x="52.5088000" y="30.5088000" />
<use xlink:href="#d7" x="52.5088000" y="31.3088000" />
<use xlink:href="#d7" x="52.5088000" y="32.1088000" />
<use xlink:href="#d8" x="53.9588000" y="33.5588000" />
<use xlink:href="#d8" x="54.7588000" y="33.5588000" />
<use xlink:href="#d8" x="55.5588000" y="33.5588000" />
<use xlink:href="#d8" x="56.3588000" y="33.5588000" />
<use xlink:href="#d8" x="57.1588000" y="33.5588000" />
<use xlink:href="#d8" x="57.9588000" y="33.5588000" />
<use xlink:href="#d8" x="58.7588000" y="33.5588000" />
<use xlink:href="#d8" x="59.5588000" y="33.5588000" />
<use xlink:href="#d7" x="61.0088000" y="32.1088000" />
<use xlink:href="#d7" x="61.0088000" y="31.3088000" />
<use xlink:href="#d7" x="61.0088000" y="30.5088000" />
<use xlink:href="#d7" x="61.0088000" y="29.7088000" />
<use xlink:href="#d7" x="61.0088000" y="28.9088000" />
<use xlink:href="#d7" x="61.0088000" y="28.1088000" />
<use xlink:href="#d7" x="61.0088000" y="27.3088000" />
<use xlink:href="#d7" x="61.0088000" y="26.5088000" />
<use xlink:href="#d8" x="59.5588000" y="25.0588000" />
<use xlink:href="#d8" x="58.7588000" y="25.0588000" />
<use xlink:href="#d8" x="57.9588000" y="25.0588000" />
<use xlink:href="#d8" x="57.1588000" y="25.0588000" />
<use xlink:href="#d8" x="56.3588000" y="25.0588000" />
<use xlink:href="#d8" x="55.5588000" y="25.0588000" />
<use xlink:href="#d8" x="54.7588000" y="25.0588000" />
<use xlink:href="#d8" x="53.9588000" y="25.0588000" />
<use xlink:href="#d9" x="13.2688000" y="72.6288000" />
<use xlink:href="#d9" x="11.2688000" y="72.6288000" />
<use xlink:href="#d10" x="4.2588000" y="81.3488000" />
<use xlink:href="#d10" x="4.2588000" y="75.1488000" />
<use xlink:href="#d11" x="45.1288000" y="27.7488000" />
<use xlink:href="#d11" x="45.1288000" y="29.7488000" />
<use xlink:href="#d11" x="13.5888000" y="33.8688000" />
<use xlink:href="#d11" x="13.5888000" y="35.8688000" />
<use xlink:href="#d11" x="1.7838000" y="17.8238000" />
<use xlink:href="#d11" x="1.7838000" y="15.8238000" />
<use xlink:href="#d11" x="0.5488000" y="29.4888000" />
<use xlink:href="#d11" x="0.5488000" y="31.4888000" />
<use xlink:href="#d11" x="16.7838000" y="19.5988000" />
<use xlink:href="#d11" x="16.7838000" y="17.5988000" />
<use xlink:href="#d9" x="12.2988000" y="40.1688000" />
<use xlink:href="#d9" x="10.2988000" y="40.1688000" />
<use xlink:href="#d9" x="17.2988000" y="40.1688000" />
<use xlink:href="#d9" x="15.2988000" y="40.1688000" />
<use xlink:href="#d9" x="22.2988000" y="40.1688000" />
<use xlink:href="#d9" x="20.2988000" y="40.1688000" />
<use xlink:href="#d9" x="27.3988000" y="40.1688000" />
<use xlink:href="#d9" x="25.3988000" y="40.1688000" />
<use xlink:href="#d9" x="34.9588000" y="77.0488000" />
<use xlink:href="#d9" x="32.9588000" y="77.0488000" />
<use xlink:href="#d9" x="44.1188000" y="40.1288000" />
<use xlink:href="#d9" x="42.1188000" y="40.1288000" />
<use xlink:href="#d9" x="49.0688000" y="40.1288000" />
<use xlink:href="#d9" x="47.0688000" y="40.1288000" />
<use xlink:href="#d9" x="54.1488000" y="40.0788000" />
<use xlink:href="#d9" x="52.1488000" y="40.0788000" />
<use xlink:href="#d9" x="59.1888000" y="40.0288000" />
<use xlink:href="#d9" x="57.1888000" y="40.0288000" />
<use xlink:href="#d9" x="61.9088000" y="76.2988000" />
<use xlink:href="#d9" x="59.9088000" y="76.2988000" />
<use xlink:href="#d9" x="40.9588000" y="72.0488000" />
<use xlink:href="#d9" x="38.9588000" y="72.0488000" />
<use xlink:href="#d9" x="68.1888000" y="56.9788000" />
<use xlink:href="#d9" x="66.1888000" y="56.9788000" />
<use xlink:href="#d9" x="68.2288000" y="62.9688000" />
<use xlink:href="#d9" x="66.2288000" y="62.9688000" />
<use xlink:href="#d9" x="68.2588000" y="68.9688000" />
<use xlink:href="#d9" x="66.2588000" y="68.9688000" />
<use xlink:href="#d9" x="68.2088000" y="74.9688000" />
<use xlink:href="#d9" x="66.2088000" y="74.9688000" />
<use xlink:href="#d9" x="10.9588000" y="12.0488000" />
<use xlink:href="#d9" x="12.9588000" y="12.0488000" />
<use xlink:href="#d11" x="6.6688000" y="13.1088000" />
<use xlink:href="#d11" x="6.6688000" y="11.1088000" />
<use xlink:href="#d11" x="2.9188000" y="13.1088000" />
<use xlink:href="#d11" x="2.9188000" y="11.1088000" />
<use xlink:href="#d11" x="37.8588000" y="46.8788000" />
<use xlink:href="#d11" x="37.8588000" y="48.8788000" />
<use xlink:href="#d11" x="69.5488000" y="46.9288000" />
<use xlink:href="#d11" x="69.5488000" y="48.9288000" />
<use xlink:href="#d11" x="43.6388000" y="8.7188000" />
<use xlink:href="#d11" x="43.6388000" y="6.7188000" />
<use xlink:href="#d11" x="37.9988000" y="8.6188000" />
<use xlink:href="#d11" x="37.9988000" y="6.6188000" />
<use xlink:href="#d11" x="31.3488000" y="8.4288000" />
<use xlink:href="#d11" x="31.3488000" y="6.4288000" />
<use xlink:href="#d11" x="25.5388000" y="8.5088000" />
<use xlink:href="#d11" x="25.5388000" y="6.5088000" />
<use xlink:href="#d5" x="0.5407600" y="43.4488000" />
<use xlink:href="#d5" x="2.6388000" y="43.4488000" />
<use xlink:href="#d5" x="0.5797800" y="39.4388000" />
<use xlink:href="#d5" x="2.6778200" y="39.4388000" />
<use xlink:href="#d12" x="9.6638000" y="44.3838000" />
<use xlink:href="#d12" x="12.9338000" y="44.3838000" />
<use xlink:href="#d12" x="14.6638000" y="44.3838000" />
<use xlink:href="#d12" x="17.9338000" y="44.3838000" />
<use xlink:href="#d12" x="19.6638000" y="44.3838000" />
<use xlink:href="#d12" x="22.9338000" y="44.3838000" />
<use xlink:href="#d12" x="24.7638000" y="44.3838000" />
<use xlink:href="#d12" x="28.0338000" y="44.3838000" />
<use xlink:href="#d13" x="16.9588000" y="87.0488000" />
<use xlink:href="#d13" x="21.4588000" y="87.0488000" />
<use xlink:href="#d13" x="16.9588000" y="84.0488000" />
<use xlink:href="#d13" x="21.4588000" y="84.0488000" />
<use xlink:href="#d13" x="32.4588000" y="87.0488000" />
<use xlink:href="#d13" x="27.9588000" y="87.0488000" />
<use xlink:href="#d13" x="32.4588000" y="84.0488000" />
<use xlink:href="#d13" x="27.9588000" y="84.0488000" />
<use xlink:href="#d12" x="41.4338000" y="44.3838000" />
<use xlink:href="#d12" x="44.7038000" y="44.3838000" />
<use xlink:href="#d12" x="46.4788000" y="44.3838000" />
<use xlink:href="#d12" x="49.7488000" y="44.3838000" />
<use xlink:href="#d12" x="51.5288000" y="44.3838000" />
<use xlink:href="#d12" x="54.7988000" y="44.3838000" />
<use xlink:href="#d12" x="56.5288000" y="44.3838000" />
<use xlink:href="#d12" x="59.7988000" y="44.3838000" />
<use xlink:href="#d13" x="41.7088000" y="87.0488000" />
<use xlink:href="#d13" x="46.2088000" y="87.0488000" />
<use xlink:href="#d13" x="41.7088000" y="84.0488000" />
<use xlink:href="#d13" x="46.2088000" y="84.0488000" />
<use xlink:href="#d13" x="58.2588000" y="87.0488000" />
<use xlink:href="#d13" x="53.7588000" y="87.0488000" />
<use xlink:href="#d13" x="58.2588000" y="84.0488000" />
<use xlink:href="#d13" x="53.7588000" y="84.0488000" />
<use xlink:href="#d12" x="10.3988000" y="24.8738000" />
<use xlink:href="#d12" x="13.6688000" y="24.8738000" />
<use xlink:href="#d14" x="45.3888000" y="22.2538000" />
<use xlink:href="#d14" x="45.3888000" y="24.3638000" />
<use xlink:href="#d14" x="41.8488000" y="22.2538000" />
<use xlink:href="#d14" x="41.8488000" y="24.3638000" />
<use xlink:href="#d14" x="31.1188000" y="22.2338000" />
<use xlink:href="#d14" x="31.1188000" y="24.3438000" />
<use xlink:href="#d14" x="27.5188000" y="22.2138000" />
<use xlink:href="#d14" x="27.5188000" y="24.3238000" />
<use xlink:href="#d15" x="11.9588000" y="16.6104000" />
<use xlink:href="#d15" x="11.9588000" y="21.4872000" />
<use xlink:href="#d9" x="12.9588000" y="14.0488000" />
<use xlink:href="#d9" x="10.9588000" y="14.0488000" />
<use xlink:href="#d16" x="19.2838000" y="17.6488000" />
<use xlink:href="#d16" x="19.2838000" y="19.5488000" />
<use xlink:href="#d16" x="34.4788000" y="31.6738000" />
<use xlink:href="#d16" x="34.4788000" y="29.7738000" />
<use xlink:href="#d16" x="36.9788000" y="31.6738000" />
<use xlink:href="#d16" x="36.9788000" y="29.7738000" />
<use xlink:href="#d16" x="32.1288000" y="29.7238000" />
<use xlink:href="#d16" x="32.1288000" y="31.6238000" />
<use xlink:href="#d16" x="20.0488000" y="22.3488000" />
<use xlink:href="#d16" x="20.0488000" y="24.2488000" />
<use xlink:href="#d16" x="16.3738000" y="22.3488000" />
<use xlink:href="#d16" x="16.3738000" y="24.2488000" />
<use xlink:href="#d4" x="4.9238000" y="43.3838000" />
<use xlink:href="#d4" x="6.8238000" y="43.3838000" />
<use xlink:href="#d4" x="6.8638000" y="39.3838000" />
<use xlink:href="#d4" x="4.9638000" y="39.3838000" />
<use xlink:href="#d4" x="13.9088000" y="75.1988000" />
<use xlink:href="#d4" x="12.0088000" y="75.1988000" />
<use xlink:href="#d4" x="33.0088000" y="74.0488000" />
<use xlink:href="#d4" x="34.9088000" y="74.0488000" />
<use xlink:href="#d4" x="12.3688000" y="48.3588000" />
<use xlink:href="#d4" x="10.4688000" y="48.3588000" />
<use xlink:href="#d4" x="17.1738000" y="48.3588000" />
<use xlink:href="#d4" x="15.2738000" y="48.3588000" />
<use xlink:href="#d4" x="22.0738000" y="48.3888000" />
<use xlink:href="#d4" x="20.1738000" y="48.3888000" />
<use xlink:href="#d4" x="27.2738000" y="48.3888000" />
<use xlink:href="#d4" x="25.3738000" y="48.3888000" />
<use xlink:href="#d17" x="14.0888000" y="67.5888000" />
<use xlink:href="#d17" x="14.0888000" y="64.6888000" />
<use xlink:href="#d17" x="33.9588000" y="67.5988000" />
<use xlink:href="#d17" x="33.9588000" y="64.6988000" />
<use xlink:href="#d4" x="44.3938000" y="48.4588000" />
<use xlink:href="#d4" x="42.4938000" y="48.4588000" />
<use xlink:href="#d4" x="49.0138000" y="48.4288000" />
<use xlink:href="#d4" x="47.1138000" y="48.4288000" />
<use xlink:href="#d4" x="54.0138000" y="48.4288000" />
<use xlink:href="#d4" x="52.1138000" y="48.4288000" />
<use xlink:href="#d4" x="59.0138000" y="48.4288000" />
<use xlink:href="#d4" x="57.1138000" y="48.4288000" />
<use xlink:href="#d4" x="40.9588000" y="75.0488000" />
<use xlink:href="#d4" x="39.0588000" y="75.0488000" />
<use xlink:href="#d4" x="59.9588000" y="73.7988000" />
<use xlink:href="#d4" x="61.8588000" y="73.7988000" />
<use xlink:href="#d17" x="40.4088000" y="67.4288000" />
<use xlink:href="#d17" x="40.4088000" y="64.5288000" />
<use xlink:href="#d17" x="59.9588000" y="67.4488000" />
<use xlink:href="#d17" x="59.9588000" y="64.5488000" />
<use xlink:href="#d16" x="6.6088000" y="17.7488000" />
<use xlink:href="#d16" x="6.6088000" y="15.8488000" />
<use xlink:href="#d16" x="4.1288000" y="17.7488000" />
<use xlink:href="#d16" x="4.1288000" y="15.8488000" />
<use xlink:href="#d16" x="31.4488000" y="46.7988000" />
<use xlink:href="#d16" x="31.4488000" y="48.6988000" />
<use xlink:href="#d4" x="33.1188000" y="40.0188000" />
<use xlink:href="#d4" x="31.2188000" y="40.0188000" />
<use xlink:href="#d16" x="34.5488000" y="48.7388000" />
<use xlink:href="#d16" x="34.5488000" y="46.8388000" />
<use xlink:href="#d4" x="37.8488000" y="40.0188000" />
<use xlink:href="#d4" x="35.9488000" y="40.0188000" />
<use xlink:href="#d16" x="40.8388000" y="8.6288000" />
<use xlink:href="#d16" x="40.8388000" y="6.7288000" />
<use xlink:href="#d16" x="48.8588000" y="22.3688000" />
<use xlink:href="#d16" x="48.8588000" y="24.2688000" />
<use xlink:href="#d16" x="35.1188000" y="8.5288000" />
<use xlink:href="#d16" x="35.1188000" y="6.6288000" />
<use xlink:href="#d16" x="38.2988000" y="22.3588000" />
<use xlink:href="#d16" x="38.2988000" y="24.2588000" />
<use xlink:href="#d16" x="62.8988000" y="47.0088000" />
<use xlink:href="#d16" x="62.8988000" y="48.9088000" />
<use xlink:href="#d4" x="64.7188000" y="40.0288000" />
<use xlink:href="#d4" x="62.8188000" y="40.0288000" />
<use xlink:href="#d16" x="66.1688000" y="48.9088000" />
<use xlink:href="#d16" x="66.1688000" y="47.0088000" />
<use xlink:href="#d4" x="69.5588000" y="40.0288000" />
<use xlink:href="#d4" x="67.6588000" y="40.0288000" />
<use xlink:href="#d16" x="28.4688000" y="8.2288000" />
<use xlink:href="#d16" x="28.4688000" y="6.3288000" />
<use xlink:href="#d16" x="34.6688000" y="22.3388000" />
<use xlink:href="#d16" x="34.6688000" y="24.2388000" />
<use xlink:href="#d16" x="22.6088000" y="8.3988000" />
<use xlink:href="#d16" x="22.6088000" y="6.4988000" />
<use xlink:href="#d16" x="23.7888000" y="22.3188000" />
<use xlink:href="#d16" x="23.7888000" y="24.2188000" />
<use xlink:href="#d18" x="6.7588000" y="26.6488000" />
<use xlink:href="#d18" x="6.7588000" y="25.9988000" />
<use xlink:href="#d18" x="6.7588000" y="25.3488000" />
<use xlink:href="#d18" x="6.7588000" y="24.6988000" />
<use xlink:href="#d18" x="6.7588000" y="24.0488000" />
<use xlink:href="#d18" x="6.7588000" y="23.3988000" />
<use xlink:href="#d18" x="6.7588000" y="22.7488000" />
<use xlink:href="#d18" x="6.7588000" y="22.0988000" />
<use xlink:href="#d18" x="6.7588000" y="21.4488000" />
<use xlink:href="#d18" x="6.7588000" y="20.7988000" />
<use xlink:href="#d18" x="0.9588000" y="20.7988000" />
<use xlink:href="#d18" x="0.9588000" y="21.4488000" />
<use xlink:href="#d18" x="0.9588000" y="22.0988000" />
<use xlink:href="#d18" x="0.9588000" y="22.7488000" />
<use xlink:href="#d18" x="0.9588000" y="23.3988000" />
<use xlink:href="#d18" x="0.9588000" y="24.0488000" />
<use xlink:href="#d18" x="0.9588000" y="24.6988000" />
<use xlink:href="#d18" x="0.9588000" y="25.3488000" />
<use xlink:href="#d18" x="0.9588000" y="25.9988000" />
<use xlink:href="#d18" x="0.9588000" y="26.6488000" />
<use xlink:href="#d19" x="7.1826200" y="70.0488000" />
<use xlink:href="#d19" x="1.9349800" y="70.0488000" />
<use xlink:href="#d19" x="7.1826200" y="86.9488000" />
<use xlink:href="#d19" x="1.9349800" y="86.9488000" />
<use xlink:href="#d20" x="3.5688000" y="35.1926200" />
<use xlink:href="#d20" x="3.5688000" y="29.9449800" />
<use xlink:href="#d20" x="9.0688000" y="35.2026200" />
<use xlink:href="#d20" x="9.0688000" y="29.9549800" />
<use xlink:href="#d20" x="41.8288000" y="33.7226200" />
<use xlink:href="#d20" x="41.8288000" y="28.4749800" />
<use xlink:href="#d4" x="48.0188000" y="7.1988000" />
<use xlink:href="#d4" x="49.9188000" y="7.1988000" />
<use xlink:href="#d4" x="53.0888000" y="7.1988000" />
<use xlink:href="#d4" x="54.9888000" y="7.1988000" />
<use xlink:href="#d4" x="58.3488000" y="7.2088000" />
<use xlink:href="#d4" x="60.2488000" y="7.2088000" />
<use xlink:href="#d4" x="70.8388000" y="7.1988000" />
<use xlink:href="#d4" x="68.9388000" y="7.1988000" />
<use xlink:href="#d4" x="65.5088000" y="7.1988000" />
<use xlink:href="#d4" x="63.6088000" y="7.1988000" />
<use xlink:href="#d21" x="65.8788000" y="10.4488000" />
<use xlink:href="#d21" x="63.3388000" y="10.4488000" />
<use xlink:href="#d21" x="63.3388000" y="16.4488000" />
<use xlink:href="#d21" x="65.8788000" y="16.4488000" />
<use xlink:href="#d21" x="71.1688000" y="10.4488000" />
<use xlink:href="#d21" x="68.6288000" y="10.4488000" />
<use xlink:href="#d21" x="68.6288000" y="16.4488000" />
<use xlink:href="#d21" x="71.1688000" y="16.4488000" />
<use xlink:href="#d21" x="60.5638000" y="10.5088000" />
<use xlink:href="#d21" x="58.0238000" y="10.5088000" />
<use xlink:href="#d21" x="58.0238000" y="16.5088000" />
<use xlink:href="#d21" x="60.5638000" y="16.5088000" />
<use xlink:href="#d21" x="55.3388000" y="10.4588000" />
<use xlink:href="#d21" x="52.7988000" y="10.4588000" />
<use xlink:href="#d21" x="52.7988000" y="16.4588000" />
<use xlink:href="#d21" x="55.3388000" y="16.4588000" />
<use xlink:href="#d21" x="50.2088000" y="10.5305380" />
<use xlink:href="#d21" x="47.6688000" y="10.5305380" />
<use xlink:href="#d21" x="47.6688000" y="16.5305380" />
<use xlink:href="#d21" x="50.2088000" y="16.5305380" />
<use xlink:href="#d22" x="48.8388000" y="30.7588000" />
<use xlink:href="#d22" x="48.8388000" y="31.7088000" />
<use xlink:href="#d22" x="48.8388000" y="32.6588000" />
<use xlink:href="#d23" x="60.1488000" y="20.4088000" />
<use xlink:href="#d23" x="52.6488000" y="20.4088000" />
<use xlink:href="#d5" x="0.5897800" y="47.6288000" />
<use xlink:href="#d5" x="2.6878200" y="47.6288000" />
<use xlink:href="#d4" x="4.9888000" y="47.5988000" />
<use xlink:href="#d4" x="6.8888000" y="47.5988000" />
<use xlink:href="#d24" x="31.5988000" y="42.6588000" />
<use xlink:href="#d24" x="31.5988000" y="43.3088000" />
<use xlink:href="#d24" x="31.5988000" y="43.9588000" />
<use xlink:href="#d24" x="31.5988000" y="44.6088000" />
<use xlink:href="#d24" x="37.4988000" y="44.6088000" />
<use xlink:href="#d24" x="37.4988000" y="43.9588000" />
<use xlink:href="#d24" x="37.4988000" y="43.3088000" />
<use xlink:href="#d24" x="37.4988000" y="42.6588000" />
<use xlink:href="#d24" x="63.2188000" y="42.6588000" />
<use xlink:href="#d24" x="63.2188000" y="43.3088000" />
<use xlink:href="#d24" x="63.2188000" y="43.9588000" />
<use xlink:href="#d24" x="63.2188000" y="44.6088000" />
<use xlink:href="#d24" x="69.1188000" y="44.6088000" />
<use xlink:href="#d24" x="69.1188000" y="43.9588000" />
<use xlink:href="#d24" x="69.1188000" y="43.3088000" />
<use xlink:href="#d24" x="69.1188000" y="42.6588000" />
<use xlink:href="#d25" x="21.8593000" y="56.1938000" />
<use xlink:href="#d25" x="13.8583000" y="56.1938000" />
<use xlink:href="#d25" x="47.9393000" y="56.1538000" />
<use xlink:href="#d25" x="39.9383000" y="56.1538000" />
<use xlink:href="#d25" x="26.6683000" y="56.2388000" />
<use xlink:href="#d25" x="34.6693000" y="56.2388000" />
<use xlink:href="#d25" x="52.8083000" y="56.1788000" />
<use xlink:href="#d25" x="60.8093000" y="56.1788000" />
<use xlink:href="#d26" x="43.4588000" y="66.1588000" />
<use xlink:href="#d26" x="43.4588000" y="67.4288000" />
<use xlink:href="#d26" x="43.4588000" y="68.6988000" />
<use xlink:href="#d26" x="43.4588000" y="69.9688000" />
<use xlink:href="#d26" x="43.4588000" y="71.2388000" />
<use xlink:href="#d26" x="43.4588000" y="72.5088000" />
<use xlink:href="#d26" x="43.4588000" y="73.7788000" />
<use xlink:href="#d26" x="43.4588000" y="75.0488000" />
<use xlink:href="#d26" x="43.4588000" y="76.3188000" />
<use xlink:href="#d26" x="43.4588000" y="77.5888000" />
<use xlink:href="#d26" x="56.9588000" y="66.1588000" />
<use xlink:href="#d26" x="56.9588000" y="67.4288000" />
<use xlink:href="#d26" x="56.9588000" y="68.6988000" />
<use xlink:href="#d26" x="56.9588000" y="69.9688000" />
<use xlink:href="#d26" x="56.9588000" y="71.2388000" />
<use xlink:href="#d26" x="56.9588000" y="72.5088000" />
<use xlink:href="#d26" x="56.9588000" y="73.7788000" />
<use xlink:href="#d26" x="56.9588000" y="75.0488000" />
<use xlink:href="#d26" x="56.9588000" y="76.3188000" />
<use xlink:href="#d26" x="56.9588000" y="77.5888000" />
<use xlink:href="#d26" x="17.2088000" y="66.3338000" />
<use xlink:href="#d26" x="17.2088000" y="67.6038000" />
<use xlink:href="#d26" x="17.2088000" y="68.8738000" />
<use xlink:href="#d26" x="17.2088000" y="70.1438000" />
<use xlink:href="#d26" x="17.2088000" y="71.4138000" />
<use xlink:href="#d26" x="17.2088000" y="72.6838000" />
<use xlink:href="#d26" x="17.2088000" y="73.9538000" />
<use xlink:href="#d26" x="17.2088000" y="75.2238000" />
<use xlink:href="#d26" x="17.2088000" y="76.4938000" />
<use xlink:href="#d26" x="17.2088000" y="77.7638000" />
<use xlink:href="#d26" x="30.7088000" y="66.3338000" />
<use xlink:href="#d26" x="30.7088000" y="67.6038000" />
<use xlink:href="#d26" x="30.7088000" y="68.8738000" />
<use xlink:href="#d26" x="30.7088000" y="70.1438000" />
<use xlink:href="#d26" x="30.7088000" y="71.4138000" />
<use xlink:href="#d26" x="30.7088000" y="72.6838000" />
<use xlink:href="#d26" x="30.7088000" y="73.9538000" />
<use xlink:href="#d26" x="30.7088000" y="75.2238000" />
<use xlink:href="#d26" x="30.7088000" y="76.4938000" />
<use xlink:href="#d26" x="30.7088000" y="77.7638000" />
</g>
</svg>