<?xml version="1.0" encoding="UTF-8"?>
<svg xmlns="http://www.w3.org/2000/svg" xmlns:xlink="http://www.w3.org/1999/xlink"
     width="38.3200000" height="53.200000" viewBox="0 0 38.3200000 53.200000">
<defs>
<mask id="d0">
<rect x="-19.1600000" y="-26.600000" width="76.6400000" height="106.400000" fill="white" />
</mask>
<g id="d1">
<circle cx="0" cy="0" r="0.32500" fill="#133d91ff" />
</g>
<g id="d2">
<rect x="-0.5500000" y="-0.1500000" width="1.1000000" height="0.3000000" fill="#133d91ff" transform="rotate(-0.0)" />
</g>
<g id="d3">
<rect x="-0.8000000" y="-0.8000000" width="1.6000000" height="1.6000000" fill="#133d91ff" rx="0.800000" ry="0.800000" transform="rotate(-0.0)" />
</g>
<g id="d4">
<circle cx="0" cy="0" r="1.80000" fill="#133d91ff" />
</g>
<g id="d5">
<circle cx="0" cy="0" r="2.85000" fill="#133d91ff" />
</g>
<mask id="d6">
<rect x="-19.1600000" y="-26.600000" width="76.6400000" height="106.400000" fill="white" />
</mask>
<g id="d7">
<circle cx="0" cy="0" r="0.10000" fill="#133d91ff" />
</g>
<g id="d8">
<circle cx="0" cy="0" r="0.10000" fill="#133d91ff" />
</g>
<g id="d9">
<circle cx="0" cy="0" r="0.10000" fill="#133d91ff" />
</g>
<g id="d10">
<circle cx="0" cy="0" r="0.10000" fill="#133d91ff" />
</g>
<g mask="url(#d6)" id="d11">
<g></g>
<path d="M-0.10000000,0.71250000 L-0.10000000,-0.71250000 L0.10000000,-0.71250000 L0.10000000,0.71250000 L-0.10000000,0.71250000 L-0.10000000,0.71250000 Z" fill="#155c82ff" />
<use xlink:href="#d7" x="-0.100000" y="0.712500" />
<use xlink:href="#d8" x="-0.100000" y="-0.712500" />
<use xlink:href="#d9" x="0.100000" y="-0.712500" />
<use xlink:href="#d10" x="0.100000" y="0.712500" />
<path d="M-0.200000,0.712500 L0.000000,0.712500 L0.000000,-0.712500 L-0.200000,-0.712500 Z" fill="#133d91ff" />
<path d="M-0.100000,-0.812500 L-0.100000,-0.612500 L0.100000,-0.612500 L0.100000,-0.812500 Z" fill="#133d91ff" />
<path d="M0.200000,-0.712500 L0.000000,-0.712500 L0.000000,0.712500 L0.200000,0.712500 Z" fill="#133d91ff" />
<path d="M0.100000,0.812500 L0.100000,0.612500 L-0.100000,0.612500 L-0.100000,0.812500 Z" fill="#133d91ff" />
</g>
<mask id="d12">
<rect x="-19.1600000" y="-26.600000" width="76.6400000" height="106.400000" fill="white" />
</mask>
<g id="d13">
<circle cx="0" cy="0" r="0.25000" fill="#133d91ff" />
</g>
<g id="d14">
<circle cx="0" cy="0" r="0.25000" fill="#133d91ff" />
</g>
<g id="d15">
<circle cx="0" cy="0" r="0.25000" fill="#133d91ff" />
</g>
<g id="d16">
<circle cx="0" cy="0" r="0.25000" fill="#133d91ff" />
</g>
<g mask="url(#d12)" id="d17">
<g></g>
<path d="M0.26250000,0.45000000 L-0.26250000,0.45000000 L-0.26250000,-0.45000000 L0.26250000,-0.45000000 L0.26250000,0.45000000 L0.26250000,0.45000000 Z" fill="#155c82ff" />
<use xlink:href="#d13" x="0.262500" y="0.450000" />
<use xlink:href="#d14" x="-0.262500" y="0.450000" />
<use xlink:href="#d15" x="-0.262500" y="-0.450000" />
<use xlink:href="#d16" x="0.262500" y="-0.450000" />
<path d="M0.262500,0.700000 L0.262500,0.200000 L-0.262500,0.200000 L-0.262500,0.700000 Z" fill="#133d91ff" />
<path d="M-0.512500,0.450000 L-0.012500,0.450000 L-0.012500,-0.450000 L-0.512500,-0.450000 Z" fill="#133d91ff" />
<path d="M-0.262500,-0.700000 L-0.262500,-0.200000 L0.262500,-0.200000 L0.262500,-0.700000 Z" fill="#133d91ff" />
<path d="M0.512500,-0.450000 L0.012500,-0.450000 L0.012500,0.450000 L0.512500,0.450000 Z" fill="#133d91ff" />
</g>
<mask id="d18">
<rect x="-19.1600000" y="-26.600000" width="76.6400000" height="106.400000" fill="white" />
</mask>
<g id="d19">
<circle cx="0" cy="0" r="0.20000" fill="#133d91ff" />
</g>
<g id="d20">
<circle cx="0" cy="0" r="0.20000" fill="#133d91ff" />
</g>
<g id="d21">
<circle cx="0" cy="0" r="0.20000" fill="#133d91ff" />
</g>
<g id="d22">
<circle cx="0" cy="0" r="0.20000" fill="#133d91ff" />
</g>
<g mask="url(#d18)" id="d23">
<g></g>
<path d="M-0.27500000,0.20000000 L-0.27500000,-0.20000000 L0.27500000,-0.20000000 L0.27500000,0.20000000 L-0.27500000,0.20000000 L-0.27500000,0.20000000 Z" fill="#155c82ff" />
<use xlink:href="#d19" x="-0.275000" y="0.200000" />
<use xlink:href="#d20" x="-0.275000" y="-0.200000" />
<use xlink:href="#d21" x="0.275000" y="-0.200000" />
<use xlink:href="#d22" x="0.275000" y="0.200000" />
<path d="M-0.475000,0.200000 L-0.075000,0.200000 L-0.075000,-0.200000 L-0.475000,-0.200000 Z" fill="#133d91ff" />
<path d="M-0.275000,-0.400000 L-0.275000,0.000000 L0.275000,0.000000 L0.275000,-0.400000 Z" fill="#133d91ff" />
<path d="M0.475000,-0.200000 L0.075000,-0.200000 L0.075000,0.200000 L0.475000,0.200000 Z" fill="#133d91ff" />
<path d="M0.275000,0.400000 L0.275000,0.000000 L-0.275000,0.000000 L-0.275000,0.400000 Z" fill="#133d91ff" />
</g>
<g id="d24">
<rect x="-0.4500000" y="-0.2000000" width="0.9000000" height="0.4000000" fill="#133d91ff" transform="rotate(-0.0)" />
</g>
<g id="d25">
<rect x="-0.6750000" y="-0.6750000" width="1.3500000" height="1.3500000" fill="#133d91ff" transform="rotate(-0.0)" />
</g>
<g id="d26">
<rect x="-0.6750000" y="-0.6750000" width="1.3500000" height="1.3500000" fill="#133d91ff" rx="0.675000" ry="0.675000" transform="rotate(-0.0)" />
</g>
<mask id="d27">
<rect x="-19.1600000" y="-26.600000" width="76.6400000" height="106.400000" fill="white" />
</mask>
<g id="d28">
<circle cx="0" cy="0" r="0.25000" fill="#133d91ff" />
</g>
<g id="d29">
<circle cx="0" cy="0" r="0.25000" fill="#133d91ff" />
</g>
<g id="d30">
<circle cx="0" cy="0" r="0.25000" fill="#133d91ff" />
</g>
<g id="d31">
<circle cx="0" cy="0" r="0.25000" fill="#133d91ff" />
</g>
<g mask="url(#d27)" id="d32">
<g></g>
<path d="M-0.26250000,-0.45000000 L0.26250000,-0.45000000 L0.26250000,0.45000000 L-0.26250000,0.45000000 L-0.26250000,-0.45000000 L-0.26250000,-0.45000000 Z" fill="#155c82ff" />
<use xlink:href="#d28" x="-0.262500" y="-0.450000" />
<use xlink:href="#d29" x="0.262500" y="-0.450000" />
<use xlink:href="#d30" x="0.262500" y="0.450000" />
<use xlink:href="#d31" x="-0.262500" y="0.450000" />
<path d="M-0.262500,-0.700000 L-0.262500,-0.200000 L0.262500,-0.200000 L0.262500,-0.700000 Z" fill="#133d91ff" />
<path d="M0.512500,-0.450000 L0.012500,-0.450000 L0.012500,0.450000 L0.512500,0.450000 Z" fill="#133d91ff" />
<path d="M0.262500,0.700000 L0.262500,0.200000 L-0.262500,0.200000 L-0.262500,0.700000 Z" fill="#133d91ff" />
<path d="M-0.512500,0.450000 L-0.012500,0.450000 L-0.012500,-0.450000 L-0.512500,-0.450000 Z" fill="#133d91ff" />
</g>
<g id="d33">
<circle cx="0" cy="0" r="0.20000" fill="#133d91ff" />
</g>
<g id="d34">
<circle cx="0" cy="0" r="0.25000" fill="#133d91ff" />
</g>
<g id="d35">
<circle cx="0" cy="0" r="0.15000" fill="#133d91ff" />
</g>
<g id="d36">
<circle cx="0" cy="0" r="0.12500" fill="#133d91ff" />
</g>
<g id="d37">
<circle cx="0" cy="0" r="0.10000" fill="#133d91ff" />
</g>
</defs>
<g mask="url(#d0)">
<g></g>
<use xlink:href="#d1" x="5.9800000" y="28.450000" />
<use xlink:href="#d1" x="5.9800000" y="26.050000" />
<use xlink:href="#d1" x="5.9800000" y="27.650000" />
<use xlink:href="#d1" x="5.9800000" y="25.250000" />
<use xlink:href="#d2" x="7.9900000" y="25.100000" />
<use xlink:href="#d2" x="7.9900000" y="25.600000" />
<use xlink:href="#d2" x="7.9900000" y="28.600000" />
<use xlink:href="#d2" x="7.9900000" y="28.100000" />
<use xlink:href="#d3" x="0.8000000" y="22.580000" />
<use xlink:href="#d1" x="6.6800000" y="29.650000" />
<use xlink:href="#d1" x="5.9800000" y="24.450000" />
<use xlink:href="#d1" x="6.6800000" y="26.450000" />
<use xlink:href="#d2" x="7.9900000" y="24.100000" />
<use xlink:href="#d2" x="7.9900000" y="24.600000" />
<use xlink:href="#d3" x="5.5300000" y="31.120000" />
<use xlink:href="#d3" x="0.8000000" y="31.120000" />
<use xlink:href="#d1" x="6.6800000" y="25.650000" />
<use xlink:href="#d2" x="7.9900000" y="27.600000" />
<use xlink:href="#d2" x="7.9900000" y="29.100000" />
<use xlink:href="#d1" x="5.9800000" y="29.250000" />
<use xlink:href="#d1" x="6.6800000" y="24.050000" />
<use xlink:href="#d2" x="7.9900000" y="26.100000" />
<use xlink:href="#d2" x="7.9900000" y="26.600000" />
<use xlink:href="#d1" x="6.6800000" y="28.050000" />
<use xlink:href="#d1" x="6.6800000" y="27.250000" />
<use xlink:href="#d1" x="6.6800000" y="24.850000" />
<use xlink:href="#d3" x="5.5300000" y="22.580000" />
<use xlink:href="#d1" x="6.6800000" y="28.850000" />
<use xlink:href="#d2" x="7.9900000" y="27.100000" />
<use xlink:href="#d2" x="7.9900000" y="29.600000" />
<use xlink:href="#d4" x="4.2200000" y="49.100000" />
<use xlink:href="#d5" x="4.2200000" y="49.100000" />
<use xlink:href="#d4" x="34.2200000" y="4.100000" />
<use xlink:href="#d5" x="34.2200000" y="4.100000" />
<use xlink:href="#d11" x="13.7700000" y="25.007500" />
<use xlink:href="#d11" x="13.1200000" y="25.007500" />
<use xlink:href="#d11" x="12.4700000" y="25.007500" />
<use xlink:href="#d11" x="11.8200000" y="25.007500" />
<use xlink:href="#d11" x="11.8200000" y="29.232500" />
<use xlink:href="#d11" x="12.4700000" y="29.232500" />
<use xlink:href="#d11" x="13.1200000" y="29.232500" />
<use xlink:href="#d11" x="13.7700000" y="29.232500" />
<use xlink:href="#d17" x="17.8825000" y="29.350000" />
<use xlink:href="#d17" x="16.0575000" y="29.350000" />
<use xlink:href="#d4" x="4.2200000" y="4.100000" />
<use xlink:href="#d5" x="4.2200000" y="4.100000" />
<use xlink:href="#d23" x="2.4900000" y="33.350000" />
<use xlink:href="#d23" x="2.4900000" y="35.000000" />
<use xlink:href="#d24" x="17.6700000" y="27.120000" />
<use xlink:href="#d24" x="17.6700000" y="26.320000" />
<use xlink:href="#d24" x="15.9700000" y="26.320000" />
<use xlink:href="#d24" x="15.9700000" y="27.120000" />
<use xlink:href="#d4" x="34.2200000" y="49.100000" />
<use xlink:href="#d5" x="34.2200000" y="49.100000" />
<use xlink:href="#d25" x="33.9700000" y="21.620000" />
<use xlink:href="#d26" x="35.9700000" y="21.620000" />
<use xlink:href="#d26" x="33.9700000" y="23.620000" />
<use xlink:href="#d26" x="35.9700000" y="23.620000" />
<use xlink:href="#d26" x="33.9700000" y="25.620000" />
<use xlink:href="#d26" x="35.9700000" y="25.620000" />
<use xlink:href="#d26" x="33.9700000" y="27.620000" />
<use xlink:href="#d26" x="35.9700000" y="27.620000" />
<use xlink:href="#d26" x="33.9700000" y="29.620000" />
<use xlink:href="#d26" x="35.9700000" y="29.620000" />
<use xlink:href="#d23" x="4.4700000" y="33.275000" />
<use xlink:href="#d23" x="4.4700000" y="34.925000" />
<use xlink:href="#d32" x="9.8075000" y="36.100000" />
<use xlink:href="#d32" x="11.6325000" y="36.100000" />
<use xlink:href="#d33" x="34.2200000" y="19.100000" />
<use xlink:href="#d33" x="29.2200000" y="24.100000" />
<use xlink:href="#d33" x="24.2200000" y="24.100000" />
<use xlink:href="#d33" x="19.2200000" y="24.100000" />
<use xlink:href="#d33" x="9.2200000" y="49.100000" />
<use xlink:href="#d33" x="4.2200000" y="44.100000" />
<use xlink:href="#d33" x="9.2200000" y="44.100000" />
<use xlink:href="#d33" x="14.2200000" y="49.100000" />
<use xlink:href="#d33" x="19.2200000" y="49.100000" />
<use xlink:href="#d33" x="24.2200000" y="49.100000" />
<use xlink:href="#d33" x="29.2200000" y="49.100000" />
<use xlink:href="#d33" x="34.2200000" y="44.100000" />
<use xlink:href="#d33" x="29.2200000" y="44.100000" />
<use xlink:href="#d33" x="24.2200000" y="44.100000" />
<use xlink:href="#d33" x="19.2200000" y="44.100000" />
<use xlink:href="#d33" x="14.2200000" y="44.100000" />
<use xlink:href="#d33" x="14.2200000" y="39.100000" />
<use xlink:href="#d33" x="19.2200000" y="39.100000" />
<use xlink:href="#d33" x="24.2200000" y="39.100000" />
<use xlink:href="#d33" x="29.2200000" y="39.100000" />
<use xlink:href="#d33" x="34.2200000" y="39.100000" />
<use xlink:href="#d33" x="34.2200000" y="34.100000" />
<use xlink:href="#d33" x="29.2200000" y="34.100000" />
<use xlink:href="#d33" x="24.2200000" y="34.100000" />
<use xlink:href="#d33" x="19.2200000" y="34.100000" />
<use xlink:href="#d33" x="14.2200000" y="34.100000" />
<use xlink:href="#d33" x="29.2200000" y="19.100000" />
<use xlink:href="#d33" x="24.2200000" y="19.100000" />
<use xlink:href="#d33" x="19.2200000" y="19.100000" />
<use xlink:href="#d33" x="14.2200000" y="19.100000" />
<use xlink:href="#d33" x="4.2200000" y="9.100000" />
<use xlink:href="#d33" x="14.2200000" y="14.100000" />
<use xlink:href="#d33" x="19.2200000" y="14.100000" />
<use xlink:href="#d33" x="24.2200000" y="14.100000" />
<use xlink:href="#d33" x="29.2200000" y="14.100000" />
<use xlink:href="#d33" x="34.2200000" y="14.100000" />
<use xlink:href="#d33" x="29.2200000" y="9.100000" />
<use xlink:href="#d33" x="24.2200000" y="9.100000" />
<use xlink:href="#d33" x="19.2200000" y="9.100000" />
<use xlink:href="#d33" x="14.2200000" y="9.100000" />
<use xlink:href="#d33" x="9.2200000" y="9.100000" />
<use xlink:href="#d33" x="29.2200000" y="4.100000" />
<use xlink:href="#d33" x="24.2200000" y="4.100000" />
<use xlink:href="#d33" x="19.2200000" y="4.100000" />
<use xlink:href="#d33" x="14.2200000" y="4.100000" />
<use xlink:href="#d33" x="9.2200000" y="4.100000" />
<use xlink:href="#d33" x="16.9700000" y="28.100000" />
<use xlink:href="#d33" x="16.9700000" y="25.350000" />
<use xlink:href="#d33" x="14.9700000" y="25.350000" />
<use xlink:href="#d33" x="18.9700000" y="25.350000" />
<use xlink:href="#d33" x="20.7200000" y="25.350000" />
<use xlink:href="#d33" x="22.4700000" y="25.350000" />
<use xlink:href="#d33" x="24.2200000" y="25.350000" />
<use xlink:href="#d33" x="25.7200000" y="25.350000" />
<use xlink:href="#d33" x="31.2200000" y="25.350000" />
<use xlink:href="#d33" x="27.2200000" y="25.350000" />
<use xlink:href="#d33" x="28.7200000" y="25.350000" />
<use xlink:href="#d33" x="29.9700000" y="25.350000" />
<use xlink:href="#d33" x="32.2200000" y="25.350000" />
<use xlink:href="#d33" x="32.2200000" y="28.100000" />
<use xlink:href="#d33" x="31.2200000" y="28.100000" />
<use xlink:href="#d33" x="29.9700000" y="28.100000" />
<use xlink:href="#d33" x="28.7200000" y="28.100000" />
<use xlink:href="#d33" x="27.2200000" y="28.100000" />
<use xlink:href="#d33" x="25.7200000" y="28.100000" />
<use xlink:href="#d33" x="24.2200000" y="28.100000" />
<use xlink:href="#d33" x="22.4700000" y="28.100000" />
<use xlink:href="#d33" x="20.7200000" y="28.100000" />
<use xlink:href="#d33" x="18.9700000" y="28.100000" />
<use xlink:href="#d33" x="14.9700000" y="28.100000" />
<use xlink:href="#d33" x="14.7200000" y="29.350000" />
<use xlink:href="#d33" x="10.4450000" y="28.105000" />
<use xlink:href="#d33" x="10.4700000" y="25.600000" />
<use xlink:href="#d33" x="9.7200420" y="27.579034" />
<use xlink:href="#d33" x="9.2200000" y="26.120000" />
<use xlink:href="#d34" x="35.9700000" y="29.620000" />
<path d="M35.7200000,29.620000 L36.2200000,29.620000 L36.2200000,31.100000 L35.7200000,31.100000 Z" fill="#133d91ff" />
<use xlink:href="#d34" x="35.9700000" y="31.100000" />
<use xlink:href="#d34" x="35.2200000" y="31.850000" />
<path d="M35.2200000,31.600000 L35.2200000,32.100000 L21.7200000,32.100000 L21.7200000,31.600000 Z" fill="#133d91ff" />
<use xlink:href="#d34" x="21.7200000" y="31.850000" />
<use xlink:href="#d34" x="35.9700000" y="31.100000" />
<path d="M35.793223304703363118899788909473787740178791015577881490853,30.923223304703363118899788909473787740178791015577881490853 L36.146776695296636881100211090526212259821208984422118509147,31.276776695296636881100211090526212259821208984422118509147 L35.396776695296636881100211090526212259821208984422118509147,32.026776695296636881100211090526212259821208984422118509147 L35.043223304703363118899788909473787740178791015577881490853,31.673223304703363118899788909473787740178791015577881490853 Z" fill="#133d91ff" />
<use xlink:href="#d34" x="35.2200000" y="31.850000" />
<use xlink:href="#d34" x="21.7200000" y="31.850000" />
<path d="M21.896776695296636881100211090526212259821208984422118509147,31.673223304703363118899788909473787740178791015577881490853 L21.543223304703363118899788909473787740178791015577881490853,32.026776695296636881100211090526212259821208984422118509147 L19.043223304703363118899788909473787740178791015577881490853,29.526776695296636881100211090526212259821208984422118509147 L19.396776695296636881100211090526212259821208984422118509147,29.173223304703363118899788909473787740178791015577881490853 Z" fill="#133d91ff" />
<use xlink:href="#d34" x="19.2200000" y="29.350000" />
<use xlink:href="#d34" x="19.2200000" y="29.350000" />
<path d="M19.2200000,29.100000 L19.2200000,29.600000 L17.8825000,29.600000 L17.8825000,29.100000 Z" fill="#133d91ff" />
<use xlink:href="#d34" x="17.8825000" y="29.350000" />
<use xlink:href="#d35" x="14.7200000" y="29.350000" />
<path d="M14.7200000,29.200000 L14.7200000,29.500000 L13.8875000,29.500000 L13.8875000,29.200000 Z" fill="#133d91ff" />
<use xlink:href="#d35" x="13.8875000" y="29.350000" />
<use xlink:href="#d34" x="16.0575000" y="29.350000" />
<path d="M16.0575000,29.100000 L16.0575000,29.600000 L14.7200000,29.600000 L14.7200000,29.100000 Z" fill="#133d91ff" />
<use xlink:href="#d34" x="14.7200000" y="29.350000" />
<use xlink:href="#d36" x="13.8875000" y="29.350000" />
<path d="M13.975888347648318440550105545263106129910604492211059254574,29.261611652351681559449894454736893870089395507788940745426 L13.799111652351681559449894454736893870089395507788940745426,29.438388347648318440550105545263106129910604492211059254574 L13.681611652351681559449894454736893870089395507788940745426,29.320888347648318440550105545263106129910604492211059254574 L13.858388347648318440550105545263106129910604492211059254574,29.144111652351681559449894454736893870089395507788940745426 Z" fill="#133d91ff" />
<use xlink:href="#d36" x="13.7700000" y="29.232500" />
<use xlink:href="#d36" x="6.6800000" y="29.650000" />
<path d="M6.5550000,29.650000 L6.8050000,29.650000 L6.8050000,30.310000 L6.5550000,30.310000 Z" fill="#133d91ff" />
<use xlink:href="#d36" x="6.6800000" y="30.310000" />
<use xlink:href="#d36" x="6.6800000" y="30.310000" />
<path d="M6.591611652351681559449894454736893870089395507788940745426,30.398388347648318440550105545263106129910604492211059254574 L6.768388347648318440550105545263106129910604492211059254574,30.221611652351681559449894454736893870089395507788940745426 L7.058388347648318440550105545263106129910604492211059254574,30.511611652351681559449894454736893870089395507788940745426 L6.881611652351681559449894454736893870089395507788940745426,30.688388347648318440550105545263106129910604492211059254574 Z" fill="#133d91ff" />
<use xlink:href="#d36" x="6.9700000" y="30.600000" />
<use xlink:href="#d36" x="6.9700000" y="30.600000" />
<path d="M6.9700000,30.725000 L6.9700000,30.475000 L12.7200000,30.475000 L12.7200000,30.725000 Z" fill="#133d91ff" />
<use xlink:href="#d36" x="12.7200000" y="30.600000" />
<use xlink:href="#d36" x="12.7200000" y="30.600000" />
<path d="M12.808388347648318440550105545263106129910604492211059254574,30.688388347648318440550105545263106129910604492211059254574 L12.631611652351681559449894454736893870089395507788940745426,30.511611652351681559449894454736893870089395507788940745426 L13.031611652351681559449894454736893870089395507788940745426,30.111611652351681559449894454736893870089395507788940745426 L13.208388347648318440550105545263106129910604492211059254574,30.288388347648318440550105545263106129910604492211059254574 Z" fill="#133d91ff" />
<use xlink:href="#d36" x="13.1200000" y="30.200000" />
<use xlink:href="#d36" x="13.1200000" y="30.200000" />
<path d="M13.2450000,30.200000 L12.9950000,30.200000 L12.9950000,29.232500 L13.2450000,29.232500 Z" fill="#133d91ff" />
<use xlink:href="#d36" x="13.1200000" y="29.232500" />
<use xlink:href="#d36" x="7.9900000" y="24.100000" />
<path d="M7.9900000,23.975000 L7.9900000,24.225000 L6.7300000,24.225000 L6.7300000,23.975000 Z" fill="#133d91ff" />
<use xlink:href="#d36" x="6.7300000" y="24.100000" />
<use xlink:href="#d36" x="6.7300000" y="24.100000" />
<path d="M6.818388347648318440550105545263106129910604492211059254574,24.0116116523516815594498944547368938700893955077889407454265 L6.641611652351681559449894454736893870089395507788940745426,24.1883883476483184405501055452631061299106044922110592545735 L6.591611652351681559449894454736893870089395507788940745426,24.1383883476483184405501055452631061299106044922110592545735 L6.768388347648318440550105545263106129910604492211059254574,23.9616116523516815594498944547368938700893955077889407454265 Z" fill="#133d91ff" />
<use xlink:href="#d36" x="6.6800000" y="24.050000" />
<use xlink:href="#d36" x="7.9900000" y="29.600000" />
<path d="M7.9900000,29.475000 L7.9900000,29.725000 L6.7300000,29.725000 L6.7300000,29.475000 Z" fill="#133d91ff" />
<use xlink:href="#d36" x="6.7300000" y="29.600000" />
<use xlink:href="#d36" x="6.7300000" y="29.600000" />
<path d="M6.641611652351681559449894454736893870089395507788940745426,29.511611652351681559449894454736893870089395507788940745426 L6.818388347648318440550105545263106129910604492211059254574,29.688388347648318440550105545263106129910604492211059254574 L6.768388347648318440550105545263106129910604492211059254574,29.738388347648318440550105545263106129910604492211059254574 L6.591611652351681559449894454736893870089395507788940745426,29.561611652351681559449894454736893870089395507788940745426 Z" fill="#133d91ff" />
<use xlink:href="#d36" x="6.6800000" y="29.650000" />
<use xlink:href="#d37" x="7.9900000" y="27.100000" />
<path d="M7.9900000,27.200000 L7.9900000,27.000000 L8.7900000,27.000000 L8.7900000,27.200000 Z" fill="#133d91ff" />
<use xlink:href="#d37" x="8.7900000" y="27.100000" />
<use xlink:href="#d37" x="8.8100000" y="27.120000" />
<path d="M8.8100000,27.220000 L8.8100000,27.020000 L15.9700000,27.020000 L15.9700000,27.220000 Z" fill="#133d91ff" />
<use xlink:href="#d37" x="15.9700000" y="27.120000" />
<use xlink:href="#d37" x="8.7900000" y="27.100000" />
<path d="M8.719289321881345247559915563789515096071516406231152596341,27.1707106781186547524400844362104849039284835937688474036588 L8.860710678118654752440084436210484903928483593768847403659,27.0292893218813452475599155637895150960715164062311525963412 L8.880710678118654752440084436210484903928483593768847403659,27.0492893218813452475599155637895150960715164062311525963412 L8.739289321881345247559915563789515096071516406231152596341,27.1907106781186547524400844362104849039284835937688474036588 Z" fill="#133d91ff" />
<use xlink:href="#d37" x="8.8100000" y="27.120000" />
<use xlink:href="#d37" x="9.7200420" y="27.579034" />
<path d="M9.8200420,27.579034 L9.6200420,27.579034 L9.6200420,27.120000 L9.8200420,27.120000 Z" fill="#133d91ff" />
<use xlink:href="#d37" x="9.7200420" y="27.120000" />
<use xlink:href="#d35" x="7.9700000" y="28.100000" />
<path d="M7.969696970315333895488869932962161179454739709473080999492,28.2499996939097217330093831837302161699038438108249052512172 L7.970303029684666104511130067037838820545260290526919000508,27.9500003060902782669906168162697838300961561891750947487828 L10.445303029684666104511130067037838820545260290526919000508,27.9550003060902782669906168162697838300961561891750947487828 L10.444696970315333895488869932962161179454739709473080999492,28.2549996939097217330093831837302161699038438108249052512172 Z" fill="#133d91ff" />
<use xlink:href="#d35" x="10.4450000" y="28.105000" />
<use xlink:href="#d36" x="10.4700000" y="25.600000" />
<path d="M10.558388347648318440550105545263106129910604492211059254574,25.5116116523516815594498944547368938700893955077889407454265 L10.381611652351681559449894454736893870089395507788940745426,25.6883883476483184405501055452631061299106044922110592545735 L10.376611652351681559449894454736893870089395507788940745426,25.6833883476483184405501055452631061299106044922110592545735 L10.553388347648318440550105545263106129910604492211059254574,25.5066116523516815594498944547368938700893955077889407454265 Z" fill="#133d91ff" />
<use xlink:href="#d36" x="10.4650000" y="25.595000" />
<use xlink:href="#d35" x="7.9950000" y="25.595000" />
<path d="M7.994696970315333895488869932962161179454739709473080999492,25.7449996939097217330093831837302161699038438108249052512172 L7.995303029684666104511130067037838820545260290526919000508,25.4450003060902782669906168162697838300961561891750947487828 L10.470303029684666104511130067037838820545260290526919000508,25.4500003060902782669906168162697838300961561891750947487828 L10.469696970315333895488869932962161179454739709473080999492,25.7499996939097217330093831837302161699038438108249052512172 Z" fill="#133d91ff" />
<use xlink:href="#d35" x="10.4700000" y="25.600000" />
<use xlink:href="#d36" x="7.9900000" y="25.600000" />
<path d="M8.078388347648318440550105545263106129910604492211059254574,25.6883883476483184405501055452631061299106044922110592545735 L7.901611652351681559449894454736893870089395507788940745426,25.5116116523516815594498944547368938700893955077889407454265 L7.906611652351681559449894454736893870089395507788940745426,25.5066116523516815594498944547368938700893955077889407454265 L8.083388347648318440550105545263106129910604492211059254574,25.6833883476483184405501055452631061299106044922110592545735 Z" fill="#133d91ff" />
<use xlink:href="#d36" x="7.9950000" y="25.595000" />
<use xlink:href="#d36" x="6.6800000" y="25.650000" />
<path d="M6.768388347648318440550105545263106129910604492211059254574,25.7383883476483184405501055452631061299106044922110592545735 L6.591611652351681559449894454736893870089395507788940745426,25.5616116523516815594498944547368938700893955077889407454265 L6.641611652351681559449894454736893870089395507788940745426,25.5116116523516815594498944547368938700893955077889407454265 L6.818388347648318440550105545263106129910604492211059254574,25.6883883476483184405501055452631061299106044922110592545735 Z" fill="#133d91ff" />
<use xlink:href="#d36" x="6.7300000" y="25.600000" />
<use xlink:href="#d36" x="6.7300000" y="25.600000" />
<path d="M6.7300000,25.725000 L6.7300000,25.475000 L7.9900000,25.475000 L7.9900000,25.725000 Z" fill="#133d91ff" />
<use xlink:href="#d36" x="7.9900000" y="25.600000" />
<use xlink:href="#d36" x="6.6800000" y="28.050000" />
<path d="M6.591611652351681559449894454736893870089395507788940745426,28.1383883476483184405501055452631061299106044922110592545735 L6.768388347648318440550105545263106129910604492211059254574,27.9616116523516815594498944547368938700893955077889407454265 L6.818388347648318440550105545263106129910604492211059254574,28.0116116523516815594498944547368938700893955077889407454265 L6.641611652351681559449894454736893870089395507788940745426,28.1883883476483184405501055452631061299106044922110592545735 Z" fill="#133d91ff" />
<use xlink:href="#d36" x="6.7300000" y="28.100000" />
<use xlink:href="#d36" x="6.7300000" y="28.100000" />
<path d="M6.7300000,28.225000 L6.7300000,27.975000 L7.9900000,27.975000 L7.9900000,28.225000 Z" fill="#133d91ff" />
<use xlink:href="#d36" x="7.9900000" y="28.100000" />
<use xlink:href="#d37" x="9.2200000" y="26.120000" />
<path d="M9.1200000,26.120000 L9.3200000,26.120000 L9.3200000,26.600000 L9.1200000,26.600000 Z" fill="#133d91ff" />
<use xlink:href="#d37" x="9.2200000" y="26.600000" />
<use xlink:href="#d37" x="7.9900000" y="26.600000" />
<path d="M7.9900000,26.700000 L7.9900000,26.500000 L9.2200000,26.500000 L9.2200000,26.700000 Z" fill="#133d91ff" />
<use xlink:href="#d37" x="9.2200000" y="26.600000" />
<use xlink:href="#d37" x="9.2200000" y="26.600000" />
<path d="M9.2200000,26.700000 L9.2200000,26.500000 L13.1200000,26.500000 L13.1200000,26.700000 Z" fill="#133d91ff" />
<use xlink:href="#d37" x="13.1200000" y="26.600000" />
<use xlink:href="#d37" x="11.8200000" y="29.232500" />
<path d="M11.9200000,29.232500 L11.7200000,29.232500 L11.7200000,27.120000 L11.9200000,27.120000 Z" fill="#133d91ff" />
<use xlink:href="#d37" x="11.8200000" y="27.120000" />
<use xlink:href="#d37" x="13.1200000" y="26.600000" />
<path d="M13.1200000,26.700000 L13.1200000,26.500000 L14.9500000,26.500000 L14.9500000,26.700000 Z" fill="#133d91ff" />
<use xlink:href="#d37" x="14.9500000" y="26.600000" />
<use xlink:href="#d37" x="14.9500000" y="26.600000" />
<path d="M14.879289321881345247559915563789515096071516406231152596341,26.6707106781186547524400844362104849039284835937688474036588 L15.020710678118654752440084436210484903928483593768847403659,26.5292893218813452475599155637895150960715164062311525963412 L15.040710678118654752440084436210484903928483593768847403659,26.5492893218813452475599155637895150960715164062311525963412 L14.899289321881345247559915563789515096071516406231152596341,26.6907106781186547524400844362104849039284835937688474036588 Z" fill="#133d91ff" />
<use xlink:href="#d37" x="14.9700000" y="26.620000" />
<use xlink:href="#d37" x="14.9700000" y="26.620000" />
<path d="M15.040710678118654752440084436210484903928483593768847403659,26.6907106781186547524400844362104849039284835937688474036588 L14.899289321881345247559915563789515096071516406231152596341,26.5492893218813452475599155637895150960715164062311525963412 L15.199289321881345247559915563789515096071516406231152596341,26.2492893218813452475599155637895150960715164062311525963412 L15.340710678118654752440084436210484903928483593768847403659,26.3907106781186547524400844362104849039284835937688474036588 Z" fill="#133d91ff" />
<use xlink:href="#d37" x="15.2700000" y="26.320000" />
<use xlink:href="#d37" x="15.2700000" y="26.320000" />
<path d="M15.2700000,26.420000 L15.2700000,26.220000 L15.9700000,26.220000 L15.9700000,26.420000 Z" fill="#133d91ff" />
<use xlink:href="#d37" x="15.9700000" y="26.320000" />
<use xlink:href="#d37" x="13.1200000" y="25.007500" />
<path d="M13.0200000,25.007500 L13.2200000,25.007500 L13.2200000,26.600000 L13.0200000,26.600000 Z" fill="#133d91ff" />
<use xlink:href="#d37" x="13.1200000" y="26.600000" />
<use xlink:href="#d37" x="17.6700000" y="27.120000" />
<path d="M17.6700000,27.220000 L17.6700000,27.020000 L33.4700000,27.020000 L33.4700000,27.220000 Z" fill="#133d91ff" />
<use xlink:href="#d37" x="33.4700000" y="27.120000" />
<use xlink:href="#d37" x="33.4700000" y="27.120000" />
<path d="M33.399289321881345247559915563789515096071516406231152596341,27.1907106781186547524400844362104849039284835937688474036588 L33.540710678118654752440084436210484903928483593768847403659,27.0492893218813452475599155637895150960715164062311525963412 L34.040710678118654752440084436210484903928483593768847403659,27.5492893218813452475599155637895150960715164062311525963412 L33.899289321881345247559915563789515096071516406231152596341,27.6907106781186547524400844362104849039284835937688474036588 Z" fill="#133d91ff" />
<use xlink:href="#d37" x="33.9700000" y="27.620000" />
<use xlink:href="#d37" x="17.6700000" y="26.320000" />
<path d="M17.6700000,26.420000 L17.6700000,26.220000 L33.2700000,26.220000 L33.2700000,26.420000 Z" fill="#133d91ff" />
<use xlink:href="#d37" x="33.2700000" y="26.320000" />
<use xlink:href="#d37" x="33.2700000" y="26.320000" />
<path d="M33.340710678118654752440084436210484903928483593768847403659,26.3907106781186547524400844362104849039284835937688474036588 L33.199289321881345247559915563789515096071516406231152596341,26.2492893218813452475599155637895150960715164062311525963412 L33.899289321881345247559915563789515096071516406231152596341,25.5492893218813452475599155637895150960715164062311525963412 L34.040710678118654752440084436210484903928483593768847403659,25.6907106781186547524400844362104849039284835937688474036588 Z" fill="#133d91ff" />
<use xlink:href="#d37" x="33.9700000" y="25.620000" />
<use xlink:href="#d37" x="13.1200000" y="25.970000" />
<path d="M13.2200000,25.970000 L13.0200000,25.970000 L13.0200000,25.007500 L13.2200000,25.007500 Z" fill="#133d91ff" />
<use xlink:href="#d37" x="13.1200000" y="25.007500" />
<path d="M38.16303900,0.11968500 L38.20879400,0.17248900 L38.22000000,0.22400000 L38.22000000,52.97600000 L38.20031500,53.04303900 L38.14751100,53.08879400 L38.09600000,53.10000000 L12.22000000,53.10000000 L12.22000000,49.10000200 L30.86508000,49.10000200 L30.88474600,49.46272800 L30.94351700,49.82121400 L30.94351900,49.82122200 L31.04069500,50.17122000 L31.04069700,50.17122700 L31.17515200,50.50868400 L31.17516100,50.50870200 L31.34531600,50.82964700 L31.34531800,50.82965100 L31.54917000,51.13030900 L31.54917700,51.13031900 L31.68096800,51.28547500 L31.68096900,51.28547600 L32.92226500,50.04417900 L33.08513000,50.23487000 L33.27581900,50.39773300 L32.03188900,51.64166300 L32.03188900,51.64166400 L32.04807000,51.65699200 L32.33726600,51.87683200 L32.33728200,51.87684300 L32.64852200,52.06410900 L32.64853500,52.06411600 L32.97820500,52.21663900 L32.97821000,52.21664000 L33.32246100,52.33263200 L33.67723500,52.41072400 L34.03836600,52.44999900 L34.03837400,52.45000000 L34.40162600,52.45000000 L34.40163300,52.44999900 L34.76276400,52.41072400 L35.11753800,52.33263200 L35.46178900,52.21664000 L35.46179400,52.21663900 L35.79146400,52.06411600 L35.79147700,52.06410900 L36.10271700,51.87684300 L36.10273300,51.87683200 L36.39192400,51.65699600 L36.40810900,51.64166300 L35.16418000,50.39773300 L35.35487000,50.23487000 L35.51773300,50.04418000 L36.75902900,51.28547500 L36.75903000,51.28547500 L36.89082200,51.13031900 L36.89082900,51.13030900 L37.09468100,50.82965100 L37.09468300,50.82964700 L37.26483800,50.50870200 L37.26484700,50.50868400 L37.39930200,50.17122700 L37.39930400,50.17122000 L37.49648000,49.82122200 L37.49648200,49.82121400 L37.55525300,49.46272800 L37.57492000,49.10000200 L37.57492000,49.09999700 L37.55525300,48.73727100 L37.49648200,48.37878500 L37.49648000,48.37877700 L37.39930400,48.02877900 L37.39930200,48.02877200 L37.26484700,47.69131500 L37.26483800,47.69129700 L37.09468300,47.37035200 L37.09468100,47.37034800 L36.89082900,47.06969000 L36.89082200,47.06968000 L36.75903000,46.91452300 L36.75902900,46.91452200 L35.51773200,48.15581800 L35.35487000,47.96513000 L35.16417900,47.80226500 L36.40810900,46.55833500 L36.40810900,46.55833400 L36.39192900,46.54300700 L36.10273300,46.32316700 L36.10271700,46.32315600 L35.79147700,46.13589000 L35.79146400,46.13588300 L35.46179400,45.98336000 L35.46178900,45.98335900 L35.11753800,45.86736700 L34.76276400,45.78927500 L34.40163300,45.75000000 L34.03836600,45.75000000 L33.67723500,45.78927500 L33.32246100,45.86736700 L32.97821000,45.98335900 L32.97820500,45.98336000 L32.64853500,46.13588300 L32.64852200,46.13589000 L32.33728200,46.32315600 L32.33726600,46.32316700 L32.04807100,46.54300600 L32.04807000,46.54300700 L32.03188900,46.55833400 L32.03188900,46.55833600 L33.27581900,47.80226600 L33.08513000,47.96513000 L32.92226600,48.15581900 L31.68096900,46.91452200 L31.54917000,47.06969000 L31.54916900,47.06969100 L31.34531300,47.37035700 L31.17516100,47.69129700 L31.17515200,47.69131500 L31.04069700,48.02877200 L31.04069500,48.02877900 L30.94351900,48.37877700 L30.94351700,48.37878500 L30.88474600,48.73727100 L30.86508000,49.09999700 L30.86508000,49.10000200 L12.22000000,49.10000200 L12.22000000,40.10000000 L11.22000000,40.10000000 L11.22000000,37.42399900 L11.23968500,37.35696000 L11.29248900,37.31120500 L11.34399900,37.29999900 L11.38249900,37.29999800 L11.38250000,37.29999800 L11.38250000,36.35000000 L11.88250000,36.35000000 L11.88250000,37.29999900 L11.94497200,37.29999900 L11.94498600,37.29999800 L12.04769700,37.28950500 L12.21411900,37.23435800 L12.21412400,37.23435600 L12.36334500,37.14231500 L12.48731500,37.01834500 L12.57935600,36.86912400 L12.57935800,36.86911900 L12.63450500,36.70269700 L12.63450600,36.70269000 L12.64499900,36.59998600 L12.64500000,36.59997300 L12.64500000,36.35000000 L11.88250000,36.35000000 L11.38250000,36.35000000 L11.38250000,34.90000000 L11.88250000,34.90000000 L11.88250000,35.85000000 L12.64499900,35.85000000 L12.64499900,35.60002800 L12.64499800,35.60001300 L12.63450500,35.49730200 L12.57935800,35.33088000 L12.57935600,35.33087500 L12.48731500,35.18165400 L12.36334500,35.05768400 L12.21412400,34.96564300 L12.21411900,34.96564100 L12.04769700,34.91049400 L12.04769000,34.91049300 L11.94498600,34.90000000 L11.88250000,34.90000000 L11.38250000,34.90000000 L11.38249900,34.89999900 L11.34400000,34.90000000 L11.27696100,34.88031600 L11.23120500,34.82751300 L11.22000000,34.77600400 L11.22000000,31.34950000 L11.23968500,31.28246100 L11.29248900,31.23670600 L11.34400000,31.22550000 L12.63725700,31.22550000 L12.65287700,31.22722400 L12.65290400,31.22693900 L12.66066000,31.22767100 L12.66066700,31.22767300 L12.72981400,31.22550000 L12.75935000,31.22550000 L12.76622800,31.22463000 L12.77204100,31.22417200 L12.81862700,31.22270900 L12.83786900,31.21711700 L12.85691200,31.21317400 L12.87679200,31.21066400 L12.92012200,31.19350700 L12.92564600,31.19161700 L12.93905600,31.18772100 L12.97039000,31.17861800 L12.98762900,31.16842200 L13.00510300,31.15986200 L13.02372700,31.15248800 L13.02372700,31.15248700 L13.02373200,31.15248600 L13.06144900,31.12508200 L13.06630500,31.12189200 L13.10642000,31.09817000 L13.12058900,31.08399900 L13.13537900,31.07136800 L13.15158700,31.05959400 L13.18129900,31.02367600 L13.18521200,31.01937600 L13.50378500,30.70080300 L13.51604100,30.69098700 L13.51585800,30.69076500 L13.52187500,30.68578700 L13.52187400,30.68578700 L13.52187700,30.68578600 L13.54625100,30.65982900 L13.56922700,30.63536400 L13.57967100,30.62491800 L13.59012000,30.61447100 L13.59437900,30.60897800 L13.59815400,30.60455900 L13.61688900,30.58460900 L13.67713100,30.54921900 L13.70727600,30.54549900 L13.90936300,30.54549900 L14.02675300,30.53004600 L14.02675700,30.53004400 L14.02676200,30.53004400 L14.17284100,30.46953600 L14.29828200,30.37328200 L14.39453600,30.24784100 L14.43095500,30.15991700 L14.47479400,30.10551500 L14.54108800,30.08345000 L14.57411200,30.08671400 L14.63227800,30.10050000 L14.63227900,30.10050000 L15.02936200,30.10050000 L15.09640100,30.12018500 L15.13489900,30.15940100 L15.20228800,30.26865600 L15.32634400,30.39271200 L15.47566600,30.48481400 L15.64220300,30.53999900 L15.74499100,30.55050000 L16.37000800,30.55049900 L16.37001600,30.55049800 L16.37001900,30.55049800 L16.42630200,30.54474800 L16.47279700,30.53999900 L16.63933400,30.48481400 L16.78865600,30.39271200 L16.88232100,30.29904600 L16.94364000,30.26556400 L17.01333200,30.27054800 L17.05768000,30.29904800 L17.15134400,30.39271200 L17.30066600,30.48481400 L17.46720300,30.53999900 L17.56999100,30.55050000 L18.19500800,30.55049900 L18.19501600,30.55049800 L18.19501900,30.55049800 L18.25130200,30.54474800 L18.29779700,30.53999900 L18.46433400,30.48481400 L18.61365600,30.39271200 L18.73771200,30.26865600 L18.78492900,30.19210300 L18.83687800,30.14537800 L18.90584000,30.13415500 L18.96992300,30.16199900 L18.97815000,30.16951800 L21.14427000,32.33563800 L21.15605100,32.34927000 L21.17038800,32.36852800 L21.17038900,32.36852900 L21.17039000,32.36853000 L21.17947200,32.37615000 L21.21040900,32.40211100 L21.21439700,32.40576600 L21.22021600,32.41158500 L21.22022000,32.41158800 L21.22022300,32.41159100 L21.24595900,32.43194000 L21.30478600,32.48130200 L21.30478700,32.48130200 L21.30478900,32.48130400 L21.31081800,32.48527000 L21.31078500,32.48531900 L21.31714700,32.48937200 L21.31717900,32.48932100 L21.32331900,32.49310800 L21.32332300,32.49311100 L21.35813200,32.50934300 L21.39294100,32.52557500 L21.41133600,32.53481300 L21.46156700,32.56004000 L21.46156900,32.56004000 L21.46835700,32.56251100 L21.46833600,32.56256700 L21.47545700,32.56504300 L21.47547600,32.56498600 L21.48232200,32.56725400 L21.48232700,32.56725700 L21.48233200,32.56725800 L21.48233500,32.56725900 L21.55756400,32.58279200 L21.55756500,32.58279200 L21.63227900,32.60050000 L21.63228200,32.60050000 L21.63228600,32.60050100 L21.63945300,32.60133900 L21.63944600,32.60139800 L21.64694400,32.60216400 L21.64695000,32.60210500 L21.65413900,32.60273400 L21.65414300,32.60273300 L21.65414400,32.60273400 L21.73091700,32.60050000 L35.15629500,32.60050000 L35.17426500,32.60180900 L35.19802300,32.60528900 L35.25006800,32.60073500 L35.25547000,32.60050000 L35.26370400,32.60050000 L35.26370900,32.60050000 L35.27532700,32.59914100 L35.29627600,32.59669300 L35.30902800,32.59557700 L35.37279700,32.58999900 L35.37280500,32.58999600 L35.37986600,32.58853900 L35.37987800,32.58859800 L35.38724300,32.58696500 L35.38722900,32.58690600 L35.39424600,32.58524100 L35.39425500,32.58524100 L35.46642300,32.55897400 L35.53933400,32.53481400 L35.53934300,32.53480700 L35.54588200,32.53176000 L35.54590800,32.53181600 L35.55269000,32.52853200 L35.55266300,32.52847800 L35.55910600,32.52524000 L35.55911700,32.52523700 L35.62328300,32.48303400 L35.68865600,32.44271200 L35.68866200,32.44270500 L35.69432500,32.43822900 L35.69436200,32.43827700 L35.70020400,32.43351800 L35.70016400,32.43347100 L35.70568600,32.42883600 L35.70569600,32.42883000 L35.73090400,32.40211100 L35.75838700,32.37298100 L36.10543400,32.02593100 L36.45564100,31.67572400 L36.46926000,31.66395400 L36.48853000,31.64961000 L36.52212300,31.60957400 L36.52575700,31.60560800 L36.53159000,31.59977700 L36.55192700,31.57405500 L36.60130200,31.51521400 L36.60130400,31.51520900 L36.60527200,31.50917900 L36.60532300,31.50921200 L36.60936900,31.50286000 L36.60931700,31.50282800 L36.61310900,31.49667900 L36.61311100,31.49667700 L36.64556900,31.42706900 L36.68004000,31.35843300 L36.68004300,31.35841700 L36.68251000,31.35164400 L36.68256800,31.35166500 L36.68504300,31.34454600 L36.68498500,31.34452700 L36.68725600,31.33767200 L36.70278400,31.26246700 L36.71154600,31.22549900 L36.72050000,31.18772100 L36.72050000,31.18772000 L36.72133900,31.18054800 L36.72139700,31.18055400 L36.72216400,31.17305600 L36.72210400,31.17305100 L36.72273300,31.16586000 L36.72080200,31.09950000 L36.72050000,31.08910200 L36.72050000,30.58122300 L36.74018500,30.51418500 L36.76096200,30.48958700 L36.79550700,30.45809400 L36.84242700,30.41532200 L36.97371200,30.24147200 L37.07081700,30.04645900 L37.13043500,29.83692300 L37.15053600,29.62000000 L37.13043500,29.40307700 L37.07081700,29.19354100 L36.97371200,28.99852800 L36.90634400,28.90931800 L36.84242500,28.82467500 L36.71805500,28.71129800 L36.68177300,28.65158700 L36.68353400,28.58174000 L36.71805600,28.52802300 L36.84205400,28.41498500 L36.97328400,28.24120800 L37.07034800,28.04628000 L37.12050500,27.87000000 L36.28568600,27.87000000 L36.29764100,27.85804500 L36.35516500,27.74514800 L36.37498600,27.62000000 L36.35516500,27.49485200 L36.29764100,27.38195500 L36.28568600,27.37000000 L37.12050500,27.37000000 L37.12050500,27.36999900 L37.07034800,27.19371900 L36.97328400,26.99879100 L36.84205600,26.82501700 L36.71768400,26.71163800 L36.68140300,26.65192700 L36.68316300,26.58207900 L36.71768400,26.52836200 L36.84205600,26.41498200 L36.97328400,26.24120800 L37.07034800,26.04628000 L37.12050500,25.87000000 L36.28568600,25.87000000 L36.29764100,25.85804500 L36.35516500,25.74514800 L36.37498600,25.62000000 L36.35516500,25.49485200 L36.29764100,25.38195500 L36.28568600,25.37000000 L37.12050500,25.37000000 L37.12050500,25.36999900 L37.07034800,25.19371900 L36.97328400,24.99879100 L36.84205600,24.82501700 L36.71768400,24.71163800 L36.68140300,24.65192700 L36.68316300,24.58207900 L36.71768400,24.52836200 L36.84205600,24.41498200 L36.97328400,24.24120800 L37.07034800,24.04628000 L37.12050500,23.87000000 L36.28568600,23.87000000 L36.29764100,23.85804500 L36.35516500,23.74514800 L36.37498600,23.62000000 L36.35516500,23.49485200 L36.29764100,23.38195500 L36.28568600,23.37000000 L37.12050500,23.37000000 L37.12050500,23.36999900 L37.07034800,23.19371900 L36.97328400,22.99879100 L36.84205600,22.82501700 L36.71768400,22.71163800 L36.68140300,22.65192700 L36.68316300,22.58207900 L36.71768400,22.52836200 L36.84205600,22.41498200 L36.97328400,22.24120800 L37.07034800,22.04628000 L37.12050500,21.87000000 L36.28568600,21.87000000 L36.29764100,21.85804500 L36.35516500,21.74514800 L36.37498600,21.62000000 L36.35516500,21.49485200 L36.29764100,21.38195500 L36.28568600,21.37000000 L37.12050500,21.37000000 L37.12050500,21.36999900 L37.07034800,21.19371900 L36.97328400,20.99879100 L36.84205400,20.82501400 L36.68113100,20.67831400 L36.49598700,20.56367700 L36.49598500,20.56367600 L36.29293100,20.48501300 L36.29292100,20.48501000 L36.22000100,20.47137800 L36.22000000,20.47137900 L36.22000000,21.30431300 L36.20804500,21.29235900 L36.09514800,21.23483500 L36.00148100,21.22000000 L35.93851900,21.22000000 L35.84485200,21.23483500 L35.73195500,21.29235900 L35.72000000,21.30431400 L35.72000000,20.47137900 L35.71999800,20.47137800 L35.64707800,20.48501000 L35.64706800,20.48501300 L35.44401400,20.56367600 L35.44401200,20.56367700 L35.25886900,20.67831400 L35.25886800,20.67831400 L35.24788700,20.68832500 L35.18508200,20.71894000 L35.11569500,20.71074000 L35.06508600,20.67099700 L35.00254600,20.58745400 L34.97078300,20.56367600 L34.88733500,20.50120600 L34.88732800,20.50120200 L34.75248200,20.45090800 L34.75248300,20.45090800 L34.69288300,20.44450100 L34.69288100,20.44450000 L34.69287300,20.44450000 L34.69286400,20.44450000 L33.24712900,20.44450000 L33.24712300,20.44450100 L33.18751600,20.45090800 L33.05267100,20.50120200 L33.05266400,20.50120600 L32.93745500,20.58745200 L32.93745200,20.58745500 L32.85120600,20.70266400 L32.85120200,20.70267100 L32.80090800,20.83751700 L32.79450100,20.89711600 L32.79450000,20.89713500 L32.79450000,22.34287000 L32.79450100,22.34287600 L32.80090800,22.40248300 L32.85120200,22.53732800 L32.85120600,22.53733500 L32.93745200,22.65254400 L32.93745500,22.65254700 L33.02350400,22.71696400 L33.06537500,22.77289800 L33.07035900,22.84258900 L33.04814800,22.89095600 L32.96671400,22.99879200 L32.86965100,23.19371900 L32.81949400,23.36999900 L32.81949500,23.37000000 L33.65431400,23.37000000 L33.64235900,23.38195500 L33.58483500,23.49485200 L33.56501400,23.62000000 L33.58483500,23.74514800 L33.64235900,23.85804500 L33.65431400,23.87000000 L32.81949500,23.87000000 L32.86965100,24.04628000 L32.96671500,24.24120800 L33.09794300,24.41498200 L33.22194400,24.52802300 L33.25822500,24.58773400 L33.25646500,24.65758200 L33.22194400,24.71129800 L33.09757400,24.82467500 L32.96628800,24.99852700 L32.86918400,25.19353700 L32.86918200,25.19354100 L32.86918300,25.19354100 L32.81897700,25.36999900 L32.80956400,25.40308100 L32.79067400,25.60694100 L32.76488800,25.67187900 L32.70808700,25.71256600 L32.66720300,25.71950000 L18.46143900,25.71950000 L18.39440000,25.69981500 L18.38712800,25.69476700 L18.36233100,25.67620400 L18.36232800,25.67620200 L18.22748200,25.62590800 L18.22748300,25.62590800 L18.16788300,25.61950100 L18.16788100,25.61950000 L18.16787300,25.61950000 L18.16786400,25.61950000 L17.17212900,25.61950000 L17.17212300,25.61950100 L17.11251600,25.62590800 L16.97767100,25.67620200 L16.97766900,25.67620300 L16.89431100,25.73860600 L16.82884700,25.76302300 L16.76057400,25.74817200 L16.74568900,25.73860600 L16.72247200,25.72122600 L16.66233100,25.67620400 L16.66233000,25.67620300 L16.66232800,25.67620200 L16.52748200,25.62590800 L16.52748300,25.62590800 L16.46788300,25.61950100 L16.46788100,25.61950000 L16.46787300,25.61950000 L16.46786400,25.61950000 L15.47212900,25.61950000 L15.47212300,25.61950100 L15.41251600,25.62590800 L15.27767100,25.67620200 L15.27766900,25.67620300 L15.24349100,25.70178900 L15.18536700,25.72546000 L15.11323800,25.73495600 L15.11323700,25.73495600 L14.96716000,25.79546300 L14.84171400,25.89172100 L14.82002400,25.91999000 L14.81467200,25.92609200 L14.77758300,25.96318100 L14.71626300,25.99666600 L14.68990300,25.99950000 L14.58028000,25.99950000 L14.51324100,25.97981500 L14.46748600,25.92701100 L14.45734100,25.85931500 L14.46028900,25.83692300 L14.47050000,25.75936100 L14.47049900,24.25564000 L14.47049900,24.25563900 L14.47049900,24.25563600 L14.45504600,24.13824600 L14.45504400,24.13824100 L14.45504400,24.13823800 L14.39453600,23.99215900 L14.29828200,23.86671800 L14.17284100,23.77046400 L14.02676200,23.70995600 L14.02676000,23.70995500 L13.90936100,23.69450000 L13.63063600,23.69450000 L13.51324600,23.70995300 L13.51323400,23.70995700 L13.49245000,23.71856600 L13.42298100,23.72603300 L13.39755000,23.71856600 L13.37676500,23.70995700 L13.37676000,23.70995500 L13.25936100,23.69450000 L12.98063600,23.69450000 L12.86324600,23.70995300 L12.86323400,23.70995700 L12.84245000,23.71856600 L12.77298100,23.72603300 L12.74755000,23.71856600 L12.72676500,23.70995700 L12.72676000,23.70995500 L12.60936100,23.69450000 L12.33063600,23.69450000 L12.21324600,23.70995300 L12.21323400,23.70995700 L12.19245000,23.71856600 L12.12298100,23.72603300 L12.09755000,23.71856600 L12.07676500,23.70995700 L12.07676000,23.70995500 L11.95936100,23.69450000 L11.68063600,23.69450000 L11.56324600,23.70995300 L11.56323700,23.70995600 L11.41715600,23.77046500 L11.41011900,23.77452800 L11.40906700,23.77270600 L11.35431400,23.79387200 L11.28587000,23.77983200 L11.23588100,23.73101700 L11.22000000,23.67030200 L11.22000000,13.10000000 L12.22000000,13.10000000 L12.22000000,4.10000200 L30.86508000,4.10000200 L30.88474600,4.46272800 L30.94351700,4.82121400 L30.94351900,4.82122200 L31.04069500,5.17122000 L31.04069700,5.17122700 L31.17515200,5.50868400 L31.17516100,5.50870200 L31.34531600,5.82964700 L31.34531800,5.82965100 L31.54917000,6.13030900 L31.54917700,6.13031900 L31.68096800,6.28547500 L31.68096900,6.28547600 L32.92226500,5.04417900 L33.08513000,5.23487000 L33.27581900,5.39773300 L32.03188900,6.64166300 L32.03188900,6.64166400 L32.04807000,6.65699200 L32.33726600,6.87683200 L32.33728200,6.87684300 L32.64852200,7.06410900 L32.64853500,7.06411600 L32.97820500,7.21663900 L32.97821000,7.21664000 L33.32246100,7.33263200 L33.67723500,7.41072400 L34.03836600,7.44999900 L34.03837400,7.45000000 L34.40162600,7.45000000 L34.40163300,7.44999900 L34.76276400,7.41072400 L35.11753800,7.33263200 L35.46178900,7.21664000 L35.46179400,7.21663900 L35.79146400,7.06411600 L35.79147700,7.06410900 L36.10271700,6.87684300 L36.10273300,6.87683200 L36.39192400,6.65699600 L36.40810900,6.64166300 L35.16418000,5.39773300 L35.35487000,5.23487000 L35.51773300,5.04418000 L36.75902900,6.28547500 L36.75903000,6.28547500 L36.89082200,6.13031900 L36.89082900,6.13030900 L37.09468100,5.82965100 L37.09468300,5.82964700 L37.26483800,5.50870200 L37.26484700,5.50868400 L37.39930200,5.17122700 L37.39930400,5.17122000 L37.49648000,4.82122200 L37.49648200,4.82121400 L37.55525300,4.46272800 L37.57492000,4.10000200 L37.57492000,4.09999700 L37.55525300,3.73727100 L37.49648200,3.37878500 L37.49648000,3.37877700 L37.39930400,3.02877900 L37.39930200,3.02877200 L37.26484700,2.69131500 L37.26483800,2.69129700 L37.09468300,2.37035200 L37.09468100,2.37034800 L36.89082900,2.06969000 L36.89082200,2.06968000 L36.75903000,1.91452300 L36.75902900,1.91452200 L35.51773200,3.15581800 L35.35487000,2.96513000 L35.16417900,2.80226500 L36.40810900,1.55833500 L36.40810900,1.55833400 L36.39192900,1.54300700 L36.10273300,1.32316700 L36.10271700,1.32315600 L35.79147700,1.13589000 L35.79146400,1.13588300 L35.46179400,0.98336000 L35.46178900,0.98335900 L35.11753800,0.86736700 L34.76276400,0.78927500 L34.40163300,0.75000000 L34.03836600,0.75000000 L33.67723500,0.78927500 L33.32246100,0.86736700 L32.97821000,0.98335900 L32.97820500,0.98336000 L32.64853500,1.13588300 L32.64852200,1.13589000 L32.33728200,1.32315600 L32.33726600,1.32316700 L32.04807100,1.54300600 L32.04807000,1.54300700 L32.03188900,1.55833400 L32.03188900,1.55833600 L33.27581900,2.80226600 L33.08513000,2.96513000 L32.92226600,3.15581900 L31.68096900,1.91452200 L31.54917000,2.06969000 L31.54916900,2.06969100 L31.34531300,2.37035700 L31.17516100,2.69129700 L31.17515200,2.69131500 L31.04069700,3.02877200 L31.04069500,3.02877900 L30.94351900,3.37877700 L30.94351700,3.37878500 L30.88474600,3.73727100 L30.86508000,4.09999700 L30.86508000,4.10000200 L12.22000000,4.10000200 L12.22000000,0.10000000 L38.09600000,0.10000000 L38.16303900,0.11968500 Z" fill="#155c82ff" />
<path d="M16.87942600,27.69182800 L16.89431100,27.70139400 L16.97766900,27.76379600 L16.97767100,27.76379700 L17.11251700,27.81409100 L17.11251600,27.81409100 L17.11944400,27.81483500 L17.17212700,27.82050000 L18.16787200,27.82049900 L18.22748300,27.81409100 L18.36233100,27.76379600 L18.38712700,27.74523300 L18.45259200,27.72081600 L18.46143900,27.72050000 L32.68573600,27.72050000 L32.75277500,27.74018500 L32.79853000,27.79298900 L32.80920700,27.83306000 L32.80956400,27.83691800 L32.80956400,27.83692000 L32.80956500,27.83692300 L32.85467400,27.99546400 L32.86918400,28.04646200 L32.96628800,28.24147200 L33.09757400,28.41532400 L33.22194400,28.52870100 L33.25822600,28.58841200 L33.25646500,28.65825900 L33.22194400,28.71197500 L33.09794500,28.82501300 L32.96671500,28.99879100 L32.86965100,29.19371900 L32.81949400,29.36999900 L32.81949500,29.37000000 L33.65431400,29.37000000 L33.64235900,29.38195500 L33.58483500,29.49485200 L33.56501400,29.62000000 L33.58483500,29.74514800 L33.64235900,29.85804500 L33.65431400,29.87000000 L32.81949500,29.87000000 L32.86965100,30.04628000 L32.96671500,30.24120800 L33.09794500,30.41498500 L33.25886800,30.56168500 L33.44401200,30.67632200 L33.44402300,30.67632700 L33.64706000,30.75498400 L33.72000000,30.76861900 L33.72000000,29.93568600 L33.73195500,29.94764100 L33.84485200,30.00516500 L33.93851900,30.02000000 L34.00148100,30.02000000 L34.09514800,30.00516500 L34.20804500,29.94764100 L34.22000000,29.93568600 L34.22000000,30.76861900 L34.29293900,30.75498400 L34.49597600,30.67632700 L34.49598700,30.67632200 L34.68113000,30.56168500 L34.68113100,30.56168500 L34.84205500,30.41498400 L34.87073000,30.37701200 L34.92683800,30.33537400 L34.99655000,30.33068100 L35.05773300,30.36442200 L35.06864000,30.37700900 L35.09757400,30.41532300 L35.17903800,30.48958700 L35.21531900,30.54929800 L35.21950000,30.58122400 L35.21950000,30.73777000 L35.19981500,30.80480900 L35.18318100,30.82545100 L34.94545100,31.06318100 L34.88412800,31.09666600 L34.85777000,31.09950000 L22.08222900,31.09950000 L22.01519000,31.07981500 L21.99454800,31.06318100 L20.90586700,29.97450000 L19.79572900,28.86436100 L19.78394900,28.85073000 L19.77648200,28.84070100 L19.76961200,28.83147200 L19.76191600,28.82501400 L19.72958700,28.79788600 L19.72561200,28.79424400 L19.72269000,28.79132200 L19.71978000,28.78841100 L19.69404000,28.76805900 L19.63520900,28.71869400 L19.62918000,28.71472900 L19.62921200,28.71468000 L19.62285300,28.71062800 L19.62282200,28.71067900 L19.61668000,28.70689100 L19.61667800,28.70689000 L19.61667700,28.70688900 L19.57747400,28.68860800 L19.54705800,28.67442400 L19.50158400,28.65158700 L19.47843300,28.63996000 L19.47843100,28.63995900 L19.47843000,28.63995900 L19.47164500,28.63748900 L19.47166500,28.63743300 L19.46454900,28.63495900 L19.46453100,28.63501500 L19.45767100,28.63274200 L19.42984100,28.62699600 L19.38243400,28.61720700 L19.33347200,28.60560300 L19.30771900,28.59949900 L19.30054700,28.59866100 L19.30055300,28.59860100 L19.29305500,28.59783500 L19.29305000,28.59789500 L19.28586000,28.59726500 L19.20908300,28.59950000 L18.91063800,28.59950000 L18.84359900,28.57981500 L18.80509900,28.54059700 L18.73771200,28.43134400 L18.61365600,28.30728800 L18.50652300,28.24120800 L18.46433600,28.21518700 L18.46433100,28.21518500 L18.46286200,28.21469800 L18.29779700,28.16000100 L18.29779500,28.16000000 L18.19501000,28.14950000 L17.56999800,28.14950000 L17.56998000,28.14950100 L17.46720300,28.16000000 L17.46720000,28.16000100 L17.30066800,28.21518500 L17.30066300,28.21518700 L17.15134200,28.30728900 L17.05768100,28.40095100 L16.99635800,28.43443600 L16.92666600,28.42945200 L16.88231900,28.40095100 L16.78865700,28.30728900 L16.78865600,28.30728900 L16.78865600,28.30728800 L16.68152300,28.24120800 L16.63933600,28.21518700 L16.63933100,28.21518500 L16.63786200,28.21469800 L16.47279700,28.16000100 L16.47279500,28.16000000 L16.37001000,28.14950000 L15.74499800,28.14950000 L15.74498000,28.14950100 L15.64220300,28.16000000 L15.64220000,28.16000100 L15.47566800,28.21518500 L15.47566300,28.21518700 L15.32634200,28.30728900 L15.20228900,28.43134200 L15.20228700,28.43134400 L15.20228800,28.43134400 L15.14265700,28.52802300 L15.13490100,28.54059700 L15.08295300,28.58732100 L15.02936200,28.59950000 L14.67629100,28.59950000 L14.60889300,28.60737700 L14.54002300,28.59560900 L14.48844700,28.54847300 L14.47049900,28.48421600 L14.47049900,28.48421500 L14.47049900,28.48064000 L14.46190100,28.41532400 L14.45504600,28.36324600 L14.45504400,28.36324100 L14.45504400,28.36323800 L14.39453600,28.21715900 L14.29828200,28.09171800 L14.17284100,27.99546400 L14.08495500,27.95906000 L14.03055300,27.91522000 L14.00848800,27.84892600 L14.02576700,27.78122700 L14.07690400,27.73361600 L14.13240900,27.72050000 L15.17856100,27.72050000 L15.24560000,27.74018500 L15.25287200,27.74523300 L15.27766800,27.76379500 L15.27767100,27.76379700 L15.41251700,27.81409100 L15.41251600,27.81409100 L15.41944400,27.81483500 L15.47212700,27.82050000 L16.46787200,27.82049900 L16.52748300,27.81409100 L16.66233100,27.76379600 L16.74568900,27.70139300 L16.81115300,27.67697700 L16.87942600,27.69182800 Z" fill="#155c82ff" />
<path d="M36.22000000,27.30431400 L36.20804500,27.29235900 L36.09514800,27.23483500 L36.00148100,27.22000000 L35.93851900,27.22000000 L35.84485200,27.23483500 L35.73195500,27.29235900 L35.72000000,27.30431300 L35.72000000,25.93568600 L35.73195500,25.94764100 L35.84485200,26.00516500 L35.93851900,26.02000000 L36.00148100,26.02000000 L36.09514800,26.00516500 L36.20804500,25.94764100 L36.22000000,25.93568600 L36.22000000,27.30431400 Z" fill="#155c82ff" />
<path d="M36.22000000,25.30431400 L36.20804500,25.29235900 L36.09514800,25.23483500 L36.00148100,25.22000000 L35.93851900,25.22000000 L35.84485200,25.23483500 L35.73195500,25.29235900 L35.72000000,25.30431300 L35.72000000,23.93568600 L35.73195500,23.94764100 L35.84485200,24.00516500 L35.93851900,24.02000000 L36.00148100,24.02000000 L36.09514800,24.00516500 L36.20804500,23.94764100 L36.22000000,23.93568600 L36.22000000,25.30431400 Z" fill="#155c82ff" />
<path d="M35.64235900,23.38195500 L35.58483500,23.49485200 L35.56501400,23.62000000 L35.58483500,23.74514800 L35.64235900,23.85804500 L35.65431400,23.87000000 L34.28568600,23.87000000 L34.29764100,23.85804500 L34.35516500,23.74514800 L34.37498600,23.62000000 L34.35516500,23.49485200 L34.29764100,23.38195500 L34.28568600,23.37000000 L35.65431400,23.37000000 L35.64235900,23.38195500 Z" fill="#155c82ff" />
<path d="M36.22000000,23.30431400 L36.20804500,23.29235900 L36.09514800,23.23483500 L36.00148100,23.22000000 L35.93851900,23.22000000 L35.84485200,23.23483500 L35.73195500,23.29235900 L35.72000000,23.30431400 L35.72000000,21.93568600 L35.73195500,21.94764100 L35.84485200,22.00516500 L35.93851900,22.02000000 L36.00148100,22.02000000 L36.09514800,22.00516500 L36.20804500,21.94764100 L36.22000000,21.93568600 L36.22000000,23.30431400 Z" fill="#155c82ff" />
<path d="M12.22000000,53.10000000 L11.22000000,53.10000000 L0.34400000,53.10000000 L0.27696100,53.08031500 L0.23120600,53.02751100 L0.22000000,52.97600000 L0.22000000,49.10000200 L0.86508000,49.10000200 L0.88474600,49.46272800 L0.94351700,49.82121400 L0.94351900,49.82122200 L1.04069500,50.17122000 L1.04069700,50.17122700 L1.17515200,50.50868400 L1.17516100,50.50870200 L1.34531600,50.82964700 L1.34531800,50.82965100 L1.54917000,51.13030900 L1.54917700,51.13031900 L1.68096800,51.28547500 L1.68096900,51.28547600 L2.92226500,50.04417900 L3.08513000,50.23487000 L3.27581900,50.39773300 L2.03188900,51.64166300 L2.03188900,51.64166400 L2.04807000,51.65699200 L2.33726600,51.87683200 L2.33728200,51.87684300 L2.64852200,52.06410900 L2.64853500,52.06411600 L2.97820500,52.21663900 L2.97821000,52.21664000 L3.32246100,52.33263200 L3.67723500,52.41072400 L4.03836600,52.44999900 L4.03837400,52.45000000 L4.40162600,52.45000000 L4.40163300,52.44999900 L4.76276400,52.41072400 L5.11753800,52.33263200 L5.46178900,52.21664000 L5.46179400,52.21663900 L5.79146400,52.06411600 L5.79147700,52.06410900 L6.10271700,51.87684300 L6.10273300,51.87683200 L6.39192400,51.65699600 L6.40810900,51.64166300 L5.16418000,50.39773300 L5.35487000,50.23487000 L5.51773300,50.04418000 L6.75902900,51.28547500 L6.75903000,51.28547500 L6.89082200,51.13031900 L6.89082900,51.13030900 L7.09468100,50.82965100 L7.09468300,50.82964700 L7.26483800,50.50870200 L7.26484700,50.50868400 L7.39930200,50.17122700 L7.39930400,50.17122000 L7.49648000,49.82122200 L7.49648200,49.82121400 L7.55525300,49.46272800 L7.57492000,49.10000200 L7.57492000,49.09999700 L7.55525300,48.73727100 L7.49648200,48.37878500 L7.49648000,48.37877700 L7.39930400,48.02877900 L7.39930200,48.02877200 L7.26484700,47.69131500 L7.26483800,47.69129700 L7.09468300,47.37035200 L7.09468100,47.37034800 L6.89082900,47.06969000 L6.89082200,47.06968000 L6.75903000,46.91452300 L6.75902900,46.91452200 L5.51773200,48.15581800 L5.35487000,47.96513000 L5.16417900,47.80226500 L6.40810900,46.55833500 L6.40810900,46.55833400 L6.39192900,46.54300700 L6.10273300,46.32316700 L6.10271700,46.32315600 L5.79147700,46.13589000 L5.79146400,46.13588300 L5.46179400,45.98336000 L5.46178900,45.98335900 L5.11753800,45.86736700 L4.76276400,45.78927500 L4.40163300,45.75000000 L4.03836600,45.75000000 L3.67723500,45.78927500 L3.32246100,45.86736700 L2.97821000,45.98335900 L2.97820500,45.98336000 L2.64853500,46.13588300 L2.64852200,46.13589000 L2.33728200,46.32315600 L2.33726600,46.32316700 L2.04807100,46.54300600 L2.04807000,46.54300700 L2.03188900,46.55833400 L2.03188900,46.55833600 L3.27581900,47.80226600 L3.08513000,47.96513000 L2.92226600,48.15581900 L1.68096900,46.91452200 L1.54917000,47.06969000 L1.54916900,47.06969100 L1.34531300,47.37035700 L1.17516100,47.69129700 L1.17515200,47.69131500 L1.04069700,48.02877200 L1.04069500,48.02877900 L0.94351900,48.37877700 L0.94351700,48.37878500 L0.88474600,48.73727100 L0.86508000,49.09999700 L0.86508000,49.10000200 L0.22000000,49.10000200 L0.22000000,40.22400000 L0.23968500,40.15696100 L0.29248900,40.11120600 L0.34400000,40.10000000 L11.22000000,40.10000000 L12.22000000,40.10000000 L12.22000000,53.10000000 Z" fill="#155c82ff" />
<path d="M12.22000000,13.10000000 L0.34400000,13.10000000 L0.27696100,13.08031500 L0.23120600,13.02751100 L0.22000000,12.97600000 L0.22000000,4.10000200 L0.86508000,4.10000200 L0.88474600,4.46272800 L0.94351700,4.82121400 L0.94351900,4.82122200 L1.04069500,5.17122000 L1.04069700,5.17122700 L1.17515200,5.50868400 L1.17516100,5.50870200 L1.34531600,5.82964700 L1.34531800,5.82965100 L1.54917000,6.13030900 L1.54917700,6.13031900 L1.68096800,6.28547500 L1.68096900,6.28547600 L2.92226500,5.04417900 L3.08513000,5.23487000 L3.27581900,5.39773300 L2.03188900,6.64166300 L2.03188900,6.64166400 L2.04807000,6.65699200 L2.33726600,6.87683200 L2.33728200,6.87684300 L2.64852200,7.06410900 L2.64853500,7.06411600 L2.97820500,7.21663900 L2.97821000,7.21664000 L3.32246100,7.33263200 L3.67723500,7.41072400 L4.03836600,7.44999900 L4.03837400,7.45000000 L4.40162600,7.45000000 L4.40163300,7.44999900 L4.76276400,7.41072400 L5.11753800,7.33263200 L5.46178900,7.21664000 L5.46179400,7.21663900 L5.79146400,7.06411600 L5.79147700,7.06410900 L6.10271700,6.87684300 L6.10273300,6.87683200 L6.39192400,6.65699600 L6.40810900,6.64166300 L5.16418000,5.39773300 L5.35487000,5.23487000 L5.51773300,5.04418000 L6.75902900,6.28547500 L6.75903000,6.28547500 L6.89082200,6.13031900 L6.89082900,6.13030900 L7.09468100,5.82965100 L7.09468300,5.82964700 L7.26483800,5.50870200 L7.26484700,5.50868400 L7.39930200,5.17122700 L7.39930400,5.17122000 L7.49648000,4.82122200 L7.49648200,4.82121400 L7.55525300,4.46272800 L7.57492000,4.10000200 L7.57492000,4.09999700 L7.55525300,3.73727100 L7.49648200,3.37878500 L7.49648000,3.37877700 L7.39930400,3.02877900 L7.39930200,3.02877200 L7.26484700,2.69131500 L7.26483800,2.69129700 L7.09468300,2.37035200 L7.09468100,2.37034800 L6.89082900,2.06969000 L6.89082200,2.06968000 L6.75903000,1.91452300 L6.75902900,1.91452200 L5.51773200,3.15581800 L5.35487000,2.96513000 L5.16417900,2.80226500 L6.40810900,1.55833500 L6.40810900,1.55833400 L6.39192900,1.54300700 L6.10273300,1.32316700 L6.10271700,1.32315600 L5.79147700,1.13589000 L5.79146400,1.13588300 L5.46179400,0.98336000 L5.46178900,0.98335900 L5.11753800,0.86736700 L4.76276400,0.78927500 L4.40163300,0.75000000 L4.03836600,0.75000000 L3.67723500,0.78927500 L3.32246100,0.86736700 L2.97821000,0.98335900 L2.97820500,0.98336000 L2.64853500,1.13588300 L2.64852200,1.13589000 L2.33728200,1.32315600 L2.33726600,1.32316700 L2.04807100,1.54300600 L2.04807000,1.54300700 L2.03188900,1.55833400 L2.03188900,1.55833600 L3.27581900,2.80226600 L3.08513000,2.96513000 L2.92226600,3.15581900 L1.68096900,1.91452200 L1.54917000,2.06969000 L1.54916900,2.06969100 L1.34531300,2.37035700 L1.17516100,2.69129700 L1.17515200,2.69131500 L1.04069700,3.02877200 L1.04069500,3.02877900 L0.94351900,3.37877700 L0.94351700,3.37878500 L0.88474600,3.73727100 L0.86508000,4.09999700 L0.86508000,4.10000200 L0.22000000,4.10000200 L0.22000000,0.22400000 L0.23968500,0.15696100 L0.29248900,0.11120600 L0.34400000,0.10000000 L12.22000000,0.10000000 L12.22000000,13.10000000 Z" fill="#155c82ff" />
<path d="M1.52054500,34.36968500 L1.56630000,34.42248900 L1.57624400,34.49164700 L1.57189200,34.51089000 L1.52140800,34.67289800 L1.51500000,34.74342700 L1.51500000,34.75000000 L3.45500000,34.75000000 L3.49131900,34.71368100 L3.49339000,34.71575200 L3.52748900,34.68620600 L3.57900000,34.67500000 L5.44499900,34.67500000 L5.44499900,34.66841700 L5.43859100,34.59789700 L5.43859000,34.59789200 L5.41148000,34.51089100 L5.41032800,34.44103000 L5.44712900,34.38163800 L5.51019800,34.35157000 L5.52986500,34.35000000 L10.34600000,34.35000000 L10.41303900,34.36968500 L10.45879400,34.42248900 L10.47000000,34.47400000 L10.47000000,34.82072200 L10.45031500,34.88776100 L10.39751100,34.93351600 L10.32835300,34.94346000 L10.30699700,34.93842800 L10.22270000,34.91049500 L10.22269000,34.91049300 L10.11998600,34.90000000 L10.05750000,34.90000000 L10.05750000,37.29999900 L10.11997200,37.29999900 L10.11998600,37.29999800 L10.22269500,37.28950600 L10.30699500,37.26157100 L10.37682300,37.25916900 L10.43686500,37.29490000 L10.46805900,37.35742000 L10.47000000,37.37927700 L10.47000000,38.47600000 L10.45031500,38.54303900 L10.39751100,38.58879400 L10.34600000,38.60000000 L0.34400000,38.60000000 L0.27696100,38.58031500 L0.23120600,38.52751100 L0.22000000,38.47600000 L0.22000000,36.35000000 L8.79500100,36.35000000 L8.79500100,36.59998600 L8.80549400,36.70269700 L8.86064100,36.86911900 L8.86064300,36.86912400 L8.95268400,37.01834500 L9.07665400,37.14231500 L9.22587500,37.23435600 L9.22588000,37.23435800 L9.39230200,37.28950500 L9.39230900,37.28950600 L9.49501900,37.29999900 L9.55749900,37.29999800 L9.55750000,37.29999800 L9.55750000,36.35000000 L8.79500100,36.35000000 L0.22000000,36.35000000 L0.22000000,35.25000000 L1.51500100,35.25000000 L1.51500100,35.25658200 L1.52140800,35.32710200 L1.52140900,35.32710700 L1.57198100,35.48939600 L1.65992700,35.63487700 L1.78012200,35.75507200 L1.92560400,35.84301900 L1.92560300,35.84301900 L2.08789400,35.89359000 L2.08789200,35.89359000 L2.15841800,35.89999900 L2.74000000,35.89999900 L2.82158100,35.89999900 L2.89210200,35.89359100 L2.89210700,35.89359000 L3.03199000,35.85000000 L8.79500000,35.85000000 L9.55750000,35.85000000 L9.55750000,34.90000000 L9.55749900,34.89999900 L9.49502800,34.90000000 L9.49501100,34.90000100 L9.39230200,34.91049400 L9.22588000,34.96564100 L9.22587500,34.96564300 L9.07665400,35.05768400 L8.95268400,35.18165400 L8.86064300,35.33087500 L8.86064100,35.33088000 L8.80549400,35.49730200 L8.80549300,35.49730900 L8.79500000,35.60001300 L8.79500000,35.85000000 L3.03199000,35.85000000 L3.05439600,35.84301800 L3.19987700,35.75507200 L3.32007200,35.63487700 L3.39655200,35.50836400 L3.44808000,35.46117700 L3.51693900,35.44933800 L3.58126800,35.47660700 L3.60878500,35.50836300 L3.63992500,35.55987400 L3.63992800,35.55987800 L3.76012200,35.68007200 L3.90560400,35.76801900 L3.90560300,35.76801900 L4.06789400,35.81859000 L4.06789200,35.81859000 L4.13841800,35.82499900 L4.21999900,35.82499800 L4.22000000,35.82499800 L4.22000000,35.17500000 L4.72000000,35.17500000 L4.72000000,35.82499900 L4.80158100,35.82499900 L4.87210200,35.81859100 L4.87210700,35.81859000 L5.03439600,35.76801800 L5.17987700,35.68007200 L5.30007200,35.55987700 L5.38801900,35.41439500 L5.43859000,35.25210600 L5.44500000,35.18157200 L5.44500000,35.17500000 L4.72000000,35.17500000 L4.22000000,35.17500000 L3.50500000,35.17500000 L3.46868100,35.21131900 L3.46660900,35.20924700 L3.43251100,35.23879400 L3.38100000,35.25000000 L2.74000000,35.25000000 L2.74000000,35.89999900 L2.15841800,35.89999900 L2.23999900,35.89999800 L2.24000000,35.89999800 L2.24000000,35.25000000 L1.51500100,35.25000000 L0.22000000,35.25000000 L0.22000000,34.47400000 L0.23968500,34.40696100 L0.29248900,34.36120600 L0.34400000,34.35000000 L1.45350600,34.35000000 L1.52054500,34.36968500 Z" fill="#155c82ff" />
</g>
</svg>