<?xml version="1.0" encoding="UTF-8"?>
<svg xmlns="http://www.w3.org/2000/svg" xmlns:xlink="http://www.w3.org/1999/xlink"
     width="38.3200000" height="53.200000" viewBox="0 0 38.3200000 53.200000">
<defs>
<mask id="d0">
<rect x="-19.1600000" y="-26.600000" width="76.6400000" height="106.400000" fill="white" />
</mask>
<g id="d1">
<circle cx="0" cy="0" r="0.32500" fill="#133d91ff" />
</g>
<g id="d2">
<rect x="-0.8000000" y="-0.8000000" width="1.6000000" height="1.6000000" fill="#133d91ff" rx="0.800000" ry="0.800000" transform="rotate(0.0)" />
</g>
<g id="d3">
<circle cx="0" cy="0" r="1.80000" fill="#133d91ff" />
</g>
<g id="d4">
<circle cx="0" cy="0" r="2.85000" fill="#133d91ff" />
</g>
<g id="d5">
<rect x="-0.6750000" y="-0.6750000" width="1.3500000" height="1.3500000" fill="#133d91ff" transform="rotate(0.0)" />
</g>
<g id="d6">
<rect x="-0.6750000" y="-0.6750000" width="1.3500000" height="1.3500000" fill="#133d91ff" rx="0.675000" ry="0.675000" transform="rotate(0.0)" />
</g>
<g id="d7">
<circle cx="0" cy="0" r="0.20000" fill="#133d91ff" />
</g>
<g id="d8">
<circle cx="0" cy="0" r="0.25000" fill="#133d91ff" />
</g>
<g id="d9">
<circle cx="0" cy="0" r="0.10000" fill="#133d91ff" />
</g>
<g id="d10">
<circle cx="0" cy="0" r="0.12500" fill="#133d91ff" />
</g>
</defs>
<g mask="url(#d0)">
<g></g>
<use xlink:href="#d1" x="5.9800000" y="28.450000" />
<use xlink:href="#d1" x="5.9800000" y="26.050000" />
<use xlink:href="#d1" x="5.9800000" y="27.650000" />
<use xlink:href="#d1" x="5.9800000" y="25.250000" />
<use xlink:href="#d2" x="0.8000000" y="22.580000" />
<use xlink:href="#d1" x="6.6800000" y="29.650000" />
<use xlink:href="#d1" x="5.9800000" y="24.450000" />
<use xlink:href="#d1" x="6.6800000" y="26.450000" />
<use xlink:href="#d2" x="5.5300000" y="31.120000" />
<use xlink:href="#d2" x="0.8000000" y="31.120000" />
<use xlink:href="#d1" x="6.6800000" y="25.650000" />
<use xlink:href="#d1" x="5.9800000" y="29.250000" />
<use xlink:href="#d1" x="6.6800000" y="24.050000" />
<use xlink:href="#d1" x="6.6800000" y="28.050000" />
<use xlink:href="#d1" x="6.6800000" y="27.250000" />
<use xlink:href="#d1" x="6.6800000" y="24.850000" />
<use xlink:href="#d2" x="5.5300000" y="22.580000" />
<use xlink:href="#d1" x="6.6800000" y="28.850000" />
<use xlink:href="#d3" x="4.2200000" y="49.100000" />
<use xlink:href="#d4" x="4.2200000" y="49.100000" />
<use xlink:href="#d3" x="34.2200000" y="4.100000" />
<use xlink:href="#d4" x="34.2200000" y="4.100000" />
<use xlink:href="#d3" x="4.2200000" y="4.100000" />
<use xlink:href="#d4" x="4.2200000" y="4.100000" />
<use xlink:href="#d3" x="34.2200000" y="49.100000" />
<use xlink:href="#d4" x="34.2200000" y="49.100000" />
<use xlink:href="#d5" x="33.9700000" y="21.620000" />
<use xlink:href="#d6" x="35.9700000" y="21.620000" />
<use xlink:href="#d6" x="33.9700000" y="23.620000" />
<use xlink:href="#d6" x="35.9700000" y="23.620000" />
<use xlink:href="#d6" x="33.9700000" y="25.620000" />
<use xlink:href="#d6" x="35.9700000" y="25.620000" />
<use xlink:href="#d6" x="33.9700000" y="27.620000" />
<use xlink:href="#d6" x="35.9700000" y="27.620000" />
<use xlink:href="#d6" x="33.9700000" y="29.620000" />
<use xlink:href="#d6" x="35.9700000" y="29.620000" />
<use xlink:href="#d7" x="34.2200000" y="19.100000" />
<use xlink:href="#d7" x="29.2200000" y="24.100000" />
<use xlink:href="#d7" x="24.2200000" y="24.100000" />
<use xlink:href="#d7" x="19.2200000" y="24.100000" />
<use xlink:href="#d7" x="9.2200000" y="49.100000" />
<use xlink:href="#d7" x="4.2200000" y="44.100000" />
<use xlink:href="#d7" x="9.2200000" y="44.100000" />
<use xlink:href="#d7" x="14.2200000" y="49.100000" />
<use xlink:href="#d7" x="19.2200000" y="49.100000" />
<use xlink:href="#d7" x="24.2200000" y="49.100000" />
<use xlink:href="#d7" x="29.2200000" y="49.100000" />
<use xlink:href="#d7" x="34.2200000" y="44.100000" />
<use xlink:href="#d7" x="29.2200000" y="44.100000" />
<use xlink:href="#d7" x="24.2200000" y="44.100000" />
<use xlink:href="#d7" x="19.2200000" y="44.100000" />
<use xlink:href="#d7" x="14.2200000" y="44.100000" />
<use xlink:href="#d7" x="14.2200000" y="39.100000" />
<use xlink:href="#d7" x="19.2200000" y="39.100000" />
<use xlink:href="#d7" x="24.2200000" y="39.100000" />
<use xlink:href="#d7" x="29.2200000" y="39.100000" />
<use xlink:href="#d7" x="34.2200000" y="39.100000" />
<use xlink:href="#d7" x="34.2200000" y="34.100000" />
<use xlink:href="#d7" x="29.2200000" y="34.100000" />
<use xlink:href="#d7" x="24.2200000" y="34.100000" />
<use xlink:href="#d7" x="19.2200000" y="34.100000" />
<use xlink:href="#d7" x="14.2200000" y="34.100000" />
<use xlink:href="#d7" x="29.2200000" y="19.100000" />
<use xlink:href="#d7" x="24.2200000" y="19.100000" />
<use xlink:href="#d7" x="19.2200000" y="19.100000" />
<use xlink:href="#d7" x="14.2200000" y="19.100000" />
<use xlink:href="#d7" x="4.2200000" y="9.100000" />
<use xlink:href="#d7" x="14.2200000" y="14.100000" />
<use xlink:href="#d7" x="19.2200000" y="14.100000" />
<use xlink:href="#d7" x="24.2200000" y="14.100000" />
<use xlink:href="#d7" x="29.2200000" y="14.100000" />
<use xlink:href="#d7" x="34.2200000" y="14.100000" />
<use xlink:href="#d7" x="29.2200000" y="9.100000" />
<use xlink:href="#d7" x="24.2200000" y="9.100000" />
<use xlink:href="#d7" x="19.2200000" y="9.100000" />
<use xlink:href="#d7" x="14.2200000" y="9.100000" />
<use xlink:href="#d7" x="9.2200000" y="9.100000" />
<use xlink:href="#d7" x="29.2200000" y="4.100000" />
<use xlink:href="#d7" x="24.2200000" y="4.100000" />
<use xlink:href="#d7" x="19.2200000" y="4.100000" />
<use xlink:href="#d7" x="14.2200000" y="4.100000" />
<use xlink:href="#d7" x="9.2200000" y="4.100000" />
<use xlink:href="#d7" x="16.9700000" y="28.100000" />
<use xlink:href="#d7" x="16.9700000" y="25.350000" />
<use xlink:href="#d7" x="14.9700000" y="25.350000" />
<use xlink:href="#d7" x="18.9700000" y="25.350000" />
<use xlink:href="#d7" x="20.7200000" y="25.350000" />
<use xlink:href="#d7" x="22.4700000" y="25.350000" />
<use xlink:href="#d7" x="24.2200000" y="25.350000" />
<use xlink:href="#d7" x="25.7200000" y="25.350000" />
<use xlink:href="#d7" x="31.2200000" y="25.350000" />
<use xlink:href="#d7" x="27.2200000" y="25.350000" />
<use xlink:href="#d7" x="28.7200000" y="25.350000" />
<use xlink:href="#d7" x="29.9700000" y="25.350000" />
<use xlink:href="#d7" x="32.2200000" y="25.350000" />
<use xlink:href="#d7" x="32.2200000" y="28.100000" />
<use xlink:href="#d7" x="31.2200000" y="28.100000" />
<use xlink:href="#d7" x="29.9700000" y="28.100000" />
<use xlink:href="#d7" x="28.7200000" y="28.100000" />
<use xlink:href="#d7" x="27.2200000" y="28.100000" />
<use xlink:href="#d7" x="25.7200000" y="28.100000" />
<use xlink:href="#d7" x="24.2200000" y="28.100000" />
<use xlink:href="#d7" x="22.4700000" y="28.100000" />
<use xlink:href="#d7" x="20.7200000" y="28.100000" />
<use xlink:href="#d7" x="18.9700000" y="28.100000" />
<use xlink:href="#d7" x="14.9700000" y="28.100000" />
<use xlink:href="#d7" x="14.7200000" y="29.350000" />
<use xlink:href="#d7" x="10.4450000" y="28.105000" />
<use xlink:href="#d7" x="10.4700000" y="25.600000" />
<use xlink:href="#d7" x="9.7200420" y="27.579034" />
<use xlink:href="#d7" x="9.2200000" y="26.120000" />
<use xlink:href="#d8" x="14.7200000" y="29.350000" />
<path d="M14.896776695296636881100211090526212259821208984422118509147,29.173223304703363118899788909473787740178791015577881490853 L14.543223304703363118899788909473787740178791015577881490853,29.526776695296636881100211090526212259821208984422118509147 L12.793223304703363118899788909473787740178791015577881490853,27.7767766952966368811002110905262122598212089844221185091471 L13.146776695296636881100211090526212259821208984422118509147,27.4232233047033631188997889094737877401787910155778814908529 Z" fill="#133d91ff" />
<use xlink:href="#d8" x="12.9700000" y="27.600000" />
<use xlink:href="#d8" x="12.9700000" y="27.600000" />
<path d="M12.9700000,27.350000 L12.9700000,27.850000 L10.9700000,27.850000 L10.9700000,27.350000 Z" fill="#133d91ff" />
<use xlink:href="#d8" x="10.9700000" y="27.600000" />
<use xlink:href="#d8" x="10.4700000" y="25.600000" />
<path d="M10.293223304703363118899788909473787740178791015577881490853,25.7767766952966368811002110905262122598212089844221185091471 L10.646776695296636881100211090526212259821208984422118509147,25.4232233047033631188997889094737877401787910155778814908529 L11.146776695296636881100211090526212259821208984422118509147,25.9232233047033631188997889094737877401787910155778814908529 L10.793223304703363118899788909473787740178791015577881490853,26.2767766952966368811002110905262122598212089844221185091471 Z" fill="#133d91ff" />
<use xlink:href="#d8" x="10.9700000" y="26.100000" />
<use xlink:href="#d8" x="10.9700000" y="26.100000" />
<path d="M10.7200000,26.100000 L11.2200000,26.100000 L11.2200000,27.612463 L10.7200000,27.612463 Z" fill="#133d91ff" />
<use xlink:href="#d8" x="10.9700000" y="27.612463" />
<use xlink:href="#d8" x="10.9700000" y="27.612463" />
<path d="M10.793223304703363118899788909473787740178791015577881490853,27.4356863047033631188997889094737877401787910155778814908529 L11.146776695296636881100211090526212259821208984422118509147,27.7892396952966368811002110905262122598212089844221185091471 L10.614239695296636881100211090526212259821208984422118509147,28.3217766952966368811002110905262122598212089844221185091471 L10.260686304703363118899788909473787740178791015577881490853,27.9682233047033631188997889094737877401787910155778814908529 Z" fill="#133d91ff" />
<use xlink:href="#d8" x="10.4374630" y="28.145000" />
<use xlink:href="#d9" x="6.6800000" y="26.430000" />
<path d="M6.6800000,26.530000 L6.6800000,26.330000 L7.8900000,26.330000 L7.8900000,26.530000 Z" fill="#133d91ff" />
<use xlink:href="#d9" x="7.8900000" y="26.430000" />
<use xlink:href="#d9" x="7.8900000" y="26.430000" />
<path d="M7.960710678118654752440084436210484903928483593768847403659,26.5007106781186547524400844362104849039284835937688474036588 L7.819289321881345247559915563789515096071516406231152596341,26.3592893218813452475599155637895150960715164062311525963412 L8.649289321881345247559915563789515096071516406231152596341,25.5292893218813452475599155637895150960715164062311525963412 L8.790710678118654752440084436210484903928483593768847403659,25.6707106781186547524400844362104849039284835937688474036588 Z" fill="#133d91ff" />
<use xlink:href="#d9" x="8.7200000" y="25.600000" />
<use xlink:href="#d9" x="8.7200000" y="25.600000" />
<path d="M8.7200000,25.700000 L8.7200000,25.500000 L9.4700000,25.500000 L9.4700000,25.700000 Z" fill="#133d91ff" />
<use xlink:href="#d9" x="9.4700000" y="25.600000" />
<use xlink:href="#d9" x="9.7200000" y="25.850000" />
<path d="M9.6200000,25.850000 L9.8200000,25.850000 L9.8200000,27.600000 L9.6200000,27.600000 Z" fill="#133d91ff" />
<use xlink:href="#d9" x="9.7200000" y="27.600000" />
<use xlink:href="#d9" x="9.4700000" y="25.600000" />
<path d="M9.399289321881345247559915563789515096071516406231152596341,25.6707106781186547524400844362104849039284835937688474036588 L9.540710678118654752440084436210484903928483593768847403659,25.5292893218813452475599155637895150960715164062311525963412 L9.790710678118654752440084436210484903928483593768847403659,25.7792893218813452475599155637895150960715164062311525963412 L9.649289321881345247559915563789515096071516406231152596341,25.9207106781186547524400844362104849039284835937688474036588 Z" fill="#133d91ff" />
<use xlink:href="#d9" x="9.7200000" y="25.850000" />
<use xlink:href="#d10" x="6.6800000" y="24.850000" />
<path d="M6.6800000,24.975000 L6.6800000,24.725000 L7.9700000,24.725000 L7.9700000,24.975000 Z" fill="#133d91ff" />
<use xlink:href="#d10" x="7.9700000" y="24.850000" />
<use xlink:href="#d10" x="6.6800000" y="28.850000" />
<path d="M6.6800000,28.975000 L6.6800000,28.725000 L7.9700000,28.725000 L7.9700000,28.975000 Z" fill="#133d91ff" />
<use xlink:href="#d10" x="7.9700000" y="28.850000" />
<use xlink:href="#d9" x="8.2200000" y="27.600000" />
<path d="M8.290710678118654752440084436210484903928483593768847403659,27.5292893218813452475599155637895150960715164062311525963412 L8.149289321881345247559915563789515096071516406231152596341,27.6707106781186547524400844362104849039284835937688474036588 L7.779289321881345247559915563789515096071516406231152596341,27.3007106781186547524400844362104849039284835937688474036588 L7.920710678118654752440084436210484903928483593768847403659,27.1592893218813452475599155637895150960715164062311525963412 Z" fill="#133d91ff" />
<use xlink:href="#d9" x="7.8500000" y="27.230000" />
<use xlink:href="#d9" x="9.2200000" y="26.100000" />
<path d="M9.1200000,26.100000 L9.3200000,26.100000 L9.3200000,27.350000 L9.1200000,27.350000 Z" fill="#133d91ff" />
<use xlink:href="#d9" x="9.2200000" y="27.350000" />
<use xlink:href="#d9" x="9.2200000" y="27.350000" />
<path d="M9.149289321881345247559915563789515096071516406231152596341,27.2792893218813452475599155637895150960715164062311525963412 L9.290710678118654752440084436210484903928483593768847403659,27.4207106781186547524400844362104849039284835937688474036588 L9.040710678118654752440084436210484903928483593768847403659,27.6707106781186547524400844362104849039284835937688474036588 L8.899289321881345247559915563789515096071516406231152596341,27.5292893218813452475599155637895150960715164062311525963412 Z" fill="#133d91ff" />
<use xlink:href="#d9" x="8.9700000" y="27.600000" />
<use xlink:href="#d9" x="8.9700000" y="27.600000" />
<path d="M8.9700000,27.500000 L8.9700000,27.700000 L8.2200000,27.700000 L8.2200000,27.500000 Z" fill="#133d91ff" />
<use xlink:href="#d9" x="8.2200000" y="27.600000" />
<use xlink:href="#d9" x="7.8500000" y="27.230000" />
<path d="M7.8500000,27.130000 L7.8500000,27.330000 L6.6800000,27.330000 L6.6800000,27.130000 Z" fill="#133d91ff" />
<use xlink:href="#d9" x="6.6800000" y="27.230000" />
<path d="M36.2200000,27.304314 L36.2080450,27.292359 L36.0951480,27.234835 L36.0014810,27.220000 L35.9385190,27.220000 L35.8448520,27.234835 L35.7319550,27.292359 L35.7200000,27.304313 L35.7200000,25.935686 L35.7319550,25.947641 L35.8448520,26.005165 L35.9385190,26.020000 L36.0014810,26.020000 L36.0951480,26.005165 L36.2080450,25.947641 L36.2200000,25.935686 L36.2200000,27.304314 Z" fill="#155c82ff" />
<path d="M36.2200000,25.304314 L36.2080450,25.292359 L36.0951480,25.234835 L36.0014810,25.220000 L35.9385190,25.220000 L35.8448520,25.234835 L35.7319550,25.292359 L35.7200000,25.304313 L35.7200000,23.935686 L35.7319550,23.947641 L35.8448520,24.005165 L35.9385190,24.020000 L36.0014810,24.020000 L36.0951480,24.005165 L36.2080450,23.947641 L36.2200000,23.935686 L36.2200000,25.304314 Z" fill="#155c82ff" />
<path d="M35.6423590,23.381955 L35.5848350,23.494852 L35.5650140,23.620000 L35.5848350,23.745148 L35.6423590,23.858045 L35.6543140,23.870000 L34.2856860,23.870000 L34.2976410,23.858045 L34.3551650,23.745148 L34.3749860,23.620000 L34.3551650,23.494852 L34.2976410,23.381955 L34.2856860,23.370000 L35.6543140,23.370000 L35.6423590,23.381955 Z" fill="#155c82ff" />
<path d="M36.2200000,23.304314 L36.2080450,23.292359 L36.0951480,23.234835 L36.0014810,23.220000 L35.9385190,23.220000 L35.8448520,23.234835 L35.7319550,23.292359 L35.7200000,23.304314 L35.7200000,21.935686 L35.7319550,21.947641 L35.8448520,22.005165 L35.9385190,22.020000 L36.0014810,22.020000 L36.0951480,22.005165 L36.2080450,21.947641 L36.2200000,21.935686 L36.2200000,23.304314 Z" fill="#155c82ff" />
<path d="M38.1630390,0.119685 L38.2087940,0.172489 L38.2200000,0.224000 L38.2200000,52.976000 L38.2003150,53.043039 L38.1475110,53.088794 L38.0960000,53.100000 L12.2200000,53.100000 L12.2200000,49.100002 L30.8650800,49.100002 L30.8847460,49.462728 L30.9435170,49.821214 L30.9435190,49.821222 L31.0406950,50.171220 L31.0406970,50.171227 L31.1751520,50.508684 L31.1751610,50.508702 L31.3453160,50.829647 L31.3453180,50.829651 L31.5491700,51.130309 L31.5491770,51.130319 L31.6809680,51.285475 L31.6809690,51.285476 L32.9222650,50.044179 L33.0851300,50.234870 L33.2758190,50.397733 L32.0318890,51.641663 L32.0318890,51.641664 L32.0480700,51.656992 L32.3372660,51.876832 L32.3372820,51.876843 L32.6485220,52.064109 L32.6485350,52.064116 L32.9782050,52.216639 L32.9782100,52.216640 L33.3224610,52.332632 L33.6772350,52.410724 L34.0383660,52.449999 L34.0383740,52.450000 L34.4016260,52.450000 L34.4016330,52.449999 L34.7627640,52.410724 L35.1175380,52.332632 L35.4617890,52.216640 L35.4617940,52.216639 L35.7914640,52.064116 L35.7914770,52.064109 L36.1027170,51.876843 L36.1027330,51.876832 L36.3919240,51.656996 L36.4081090,51.641663 L35.1641800,50.397733 L35.3548700,50.234870 L35.5177330,50.044180 L36.7590290,51.285475 L36.7590300,51.285475 L36.8908220,51.130319 L36.8908290,51.130309 L37.0946810,50.829651 L37.0946830,50.829647 L37.2648380,50.508702 L37.2648470,50.508684 L37.3993020,50.171227 L37.3993040,50.171220 L37.4964800,49.821222 L37.4964820,49.821214 L37.5552530,49.462728 L37.5749200,49.100002 L37.5749200,49.099997 L37.5552530,48.737271 L37.4964820,48.378785 L37.4964800,48.378777 L37.3993040,48.028779 L37.3993020,48.028772 L37.2648470,47.691315 L37.2648380,47.691297 L37.0946830,47.370352 L37.0946810,47.370348 L36.8908290,47.069690 L36.8908220,47.069680 L36.7590300,46.914523 L36.7590290,46.914522 L35.5177320,48.155818 L35.3548700,47.965130 L35.1641790,47.802265 L36.4081090,46.558335 L36.4081090,46.558334 L36.3919290,46.543007 L36.1027330,46.323167 L36.1027170,46.323156 L35.7914770,46.135890 L35.7914640,46.135883 L35.4617940,45.983360 L35.4617890,45.983359 L35.1175380,45.867367 L34.7627640,45.789275 L34.4016330,45.750000 L34.0383660,45.750000 L33.6772350,45.789275 L33.3224610,45.867367 L32.9782100,45.983359 L32.9782050,45.983360 L32.6485350,46.135883 L32.6485220,46.135890 L32.3372820,46.323156 L32.3372660,46.323167 L32.0480710,46.543006 L32.0480700,46.543007 L32.0318890,46.558334 L32.0318890,46.558336 L33.2758190,47.802266 L33.0851300,47.965130 L32.9222660,48.155819 L31.6809690,46.914522 L31.5491700,47.069690 L31.5491690,47.069691 L31.3453130,47.370357 L31.1751610,47.691297 L31.1751520,47.691315 L31.0406970,48.028772 L31.0406950,48.028779 L30.9435190,48.378777 L30.9435170,48.378785 L30.8847460,48.737271 L30.8650800,49.099997 L30.8650800,49.100002 L12.2200000,49.100002 L12.2200000,40.100000 L11.2200000,40.100000 L11.2200000,28.475192 L11.2396850,28.408154 L11.2563190,28.387512 L11.2570120,28.386819 L11.3183350,28.353334 L11.3446930,28.350500 L12.6077700,28.350500 L12.6748090,28.370185 L12.6954510,28.386819 L14.2202160,29.911585 L14.2202200,29.911588 L14.2202230,29.911591 L14.3233230,29.993111 L14.4823270,30.067257 L14.6541450,30.102734 L14.8295130,30.097631 L14.9989760,30.052223 L15.1534000,29.968959 L15.2844590,29.852326 L15.3850880,29.708612 L15.4162840,29.630086 L15.4498610,29.545570 L15.4498610,29.545569 L15.4498620,29.545567 L15.4752890,29.371977 L15.4599990,29.197203 L15.4048140,29.030666 L15.3127120,28.881345 L14.0513680,27.620000 L32.7894640,27.620000 L32.8095640,27.836918 L32.8095640,27.836920 L32.8095650,27.836923 L32.8295970,27.907327 L32.8691840,28.046462 L32.9662880,28.241472 L33.0975740,28.415324 L33.2219440,28.528701 L33.2582260,28.588412 L33.2564650,28.658259 L33.2219440,28.711975 L33.0979450,28.825013 L32.9667150,28.998791 L32.8696510,29.193719 L32.8194940,29.369999 L32.8194950,29.370000 L33.6543140,29.370000 L33.6423590,29.381955 L33.5848350,29.494852 L33.5650140,29.620000 L33.5848350,29.745148 L33.6423590,29.858045 L33.6543140,29.870000 L32.8194950,29.870000 L32.8696510,30.046280 L32.9667150,30.241208 L33.0979450,30.414985 L33.2588680,30.561685 L33.4440120,30.676322 L33.4440230,30.676327 L33.6470600,30.754984 L33.7200000,30.768619 L33.7200000,29.935686 L33.7319550,29.947641 L33.8448520,30.005165 L33.9385190,30.020000 L34.0014810,30.020000 L34.0951480,30.005165 L34.2080450,29.947641 L34.2200000,29.935686 L34.2200000,30.768619 L34.2929390,30.754984 L34.4959760,30.676327 L34.4959870,30.676322 L34.6811300,30.561685 L34.6811310,30.561685 L34.8420550,30.414984 L34.8707300,30.377012 L34.9268380,30.335374 L34.9965500,30.330681 L35.0577330,30.364422 L35.0686400,30.377009 L35.0875120,30.402000 L35.0975730,30.415322 L35.2585680,30.562088 L35.2585750,30.562092 L35.2585760,30.562093 L35.4437860,30.676770 L35.4437920,30.676773 L35.4666640,30.685633 L35.6469310,30.755470 L35.8610740,30.795500 L35.8610760,30.795500 L36.0789240,30.795500 L36.0789260,30.795500 L36.2930690,30.755470 L36.4962100,30.676772 L36.6814320,30.562088 L36.8424270,30.415322 L36.9737120,30.241472 L37.0708170,30.046459 L37.1304350,29.836923 L37.1505360,29.620000 L37.1304350,29.403077 L37.0708170,29.193541 L36.9737120,28.998528 L36.9063440,28.909318 L36.8424250,28.824675 L36.7180550,28.711298 L36.6817730,28.651587 L36.6835340,28.581740 L36.7180560,28.528023 L36.8420540,28.414985 L36.9732840,28.241208 L37.0703480,28.046280 L37.1205050,27.870000 L36.2856860,27.870000 L36.2976410,27.858045 L36.3551650,27.745148 L36.3749860,27.620000 L36.3551650,27.494852 L36.2976410,27.381955 L36.2856860,27.370000 L37.1205050,27.370000 L37.1205050,27.369999 L37.0703480,27.193719 L36.9732840,26.998791 L36.8420560,26.825017 L36.7176840,26.711638 L36.6814030,26.651927 L36.6831630,26.582079 L36.7176840,26.528362 L36.8420560,26.414982 L36.9732840,26.241208 L37.0703480,26.046280 L37.1205050,25.870000 L36.2856860,25.870000 L36.2976410,25.858045 L36.3551650,25.745148 L36.3749860,25.620000 L36.3551650,25.494852 L36.2976410,25.381955 L36.2856860,25.370000 L37.1205050,25.370000 L37.1205050,25.369999 L37.0703480,25.193719 L36.9732840,24.998791 L36.8420560,24.825017 L36.7176840,24.711638 L36.6814030,24.651927 L36.6831630,24.582079 L36.7176840,24.528362 L36.8420560,24.414982 L36.9732840,24.241208 L37.0703480,24.046280 L37.1205050,23.870000 L36.2856860,23.870000 L36.2976410,23.858045 L36.3551650,23.745148 L36.3749860,23.620000 L36.3551650,23.494852 L36.2976410,23.381955 L36.2856860,23.370000 L37.1205050,23.370000 L37.1205050,23.369999 L37.0703480,23.193719 L36.9732840,22.998791 L36.8420560,22.825017 L36.7176840,22.711638 L36.6814030,22.651927 L36.6831630,22.582079 L36.7176840,22.528362 L36.8420560,22.414982 L36.9732840,22.241208 L37.0703480,22.046280 L37.1205050,21.870000 L36.2856860,21.870000 L36.2976410,21.858045 L36.3551650,21.745148 L36.3749860,21.620000 L36.3551650,21.494852 L36.2976410,21.381955 L36.2856860,21.370000 L37.1205050,21.370000 L37.1205050,21.369999 L37.0703480,21.193719 L36.9732840,20.998791 L36.8420540,20.825014 L36.6811310,20.678314 L36.4959870,20.563677 L36.4959850,20.563676 L36.2929310,20.485013 L36.2929210,20.485010 L36.2200010,20.471378 L36.2200000,20.471379 L36.2200000,21.304313 L36.2080450,21.292359 L36.0951480,21.234835 L36.0014810,21.220000 L35.9385190,21.220000 L35.8448520,21.234835 L35.7319550,21.292359 L35.7200000,21.304314 L35.7200000,20.471379 L35.7199980,20.471378 L35.6470780,20.485010 L35.6470680,20.485013 L35.4440140,20.563676 L35.4440120,20.563677 L35.2588690,20.678314 L35.2588680,20.678314 L35.2478870,20.688325 L35.1850820,20.718940 L35.1156950,20.710740 L35.0650860,20.670997 L35.0025460,20.587454 L34.9707830,20.563676 L34.8873350,20.501206 L34.8873280,20.501202 L34.7524820,20.450908 L34.7524830,20.450908 L34.6928830,20.444501 L34.6928810,20.444500 L34.6928730,20.444500 L34.6928640,20.444500 L33.2471290,20.444500 L33.2471230,20.444501 L33.1875160,20.450908 L33.0526710,20.501202 L33.0526640,20.501206 L32.9374550,20.587452 L32.9374520,20.587455 L32.8512060,20.702664 L32.8512020,20.702671 L32.8009080,20.837517 L32.7945010,20.897116 L32.7945000,20.897135 L32.7945000,22.342870 L32.7945010,22.342876 L32.8009080,22.402483 L32.8512020,22.537328 L32.8512060,22.537335 L32.9374520,22.652544 L32.9374550,22.652547 L33.0235040,22.716964 L33.0653750,22.772898 L33.0703590,22.842589 L33.0481480,22.890956 L32.9667140,22.998792 L32.8696510,23.193719 L32.8194940,23.369999 L32.8194950,23.370000 L33.6543140,23.370000 L33.6423590,23.381955 L33.5848350,23.494852 L33.5650140,23.620000 L33.5848350,23.745148 L33.6423590,23.858045 L33.6543140,23.870000 L32.8194950,23.870000 L32.8696510,24.046280 L32.9667150,24.241208 L33.0979430,24.414982 L33.2219440,24.528023 L33.2582250,24.587734 L33.2564650,24.657582 L33.2219440,24.711298 L33.0975740,24.824675 L32.9662880,24.998527 L32.8691840,25.193537 L32.8691820,25.193541 L32.8691830,25.193541 L32.8189770,25.369999 L32.8095640,25.403081 L32.7894640,25.619999 L32.7894640,25.620000 L32.8095640,25.836918 L32.8095640,25.836920 L32.8095650,25.836923 L32.8691320,26.046280 L32.8691840,26.046462 L32.9662880,26.241472 L33.0975740,26.415324 L33.2215720,26.528363 L33.2578540,26.588074 L33.2560930,26.657922 L33.2215720,26.711637 L33.0975740,26.824675 L32.9662880,26.998527 L32.8691840,27.193537 L32.8691820,27.193541 L32.8691830,27.193541 L32.8189770,27.369999 L32.8095640,27.403081 L32.7894640,27.619999 L32.7894640,27.620000 L14.0513680,27.620000 L13.5457290,27.114361 L13.5339490,27.100730 L13.5264820,27.090701 L13.5196120,27.081472 L13.5196100,27.081470 L13.4795870,27.047886 L13.4756120,27.044244 L13.4726900,27.041322 L13.4697800,27.038411 L13.4440400,27.018059 L13.3852090,26.968694 L13.3791800,26.964729 L13.3792120,26.964680 L13.3728530,26.960628 L13.3728220,26.960679 L13.3666800,26.956891 L13.3666780,26.956890 L13.3666770,26.956889 L13.3274740,26.938608 L13.2970580,26.924424 L13.2628940,26.907267 L13.2284330,26.889960 L13.2284310,26.889959 L13.2284300,26.889959 L13.2216450,26.887489 L13.2216650,26.887433 L13.2145490,26.884959 L13.2145310,26.885015 L13.2076710,26.882742 L13.1729590,26.875575 L13.1324340,26.867207 L13.0834720,26.855603 L13.0577190,26.849499 L13.0505470,26.848661 L13.0505530,26.848601 L13.0430550,26.847835 L13.0430500,26.847895 L13.0358600,26.847265 L12.9590830,26.849500 L11.8445000,26.849500 L11.7774610,26.829815 L11.7317060,26.777011 L11.7205000,26.725500 L11.7205000,26.163705 L11.7218090,26.145735 L11.7221290,26.143547 L11.7252890,26.121977 L11.7207350,26.069931 L11.7205000,26.064528 L11.7205000,26.056297 L11.7205000,26.056291 L11.7166930,26.023724 L11.7163670,26.020000 L11.7099990,25.947201 L11.7085390,25.940129 L11.7085970,25.940116 L11.7069650,25.932757 L11.7069060,25.932772 L11.7052420,25.925753 L11.7052410,25.925745 L11.6789740,25.853576 L11.6548140,25.780666 L11.6548090,25.780659 L11.6517600,25.774118 L11.6518150,25.774091 L11.6485330,25.767313 L11.6484800,25.767340 L11.6452350,25.760880 L11.6030280,25.696708 L11.5627100,25.631342 L11.5582340,25.625682 L11.5582810,25.625644 L11.5535190,25.619799 L11.5534740,25.619838 L11.5488340,25.614309 L11.5488320,25.614307 L11.5488300,25.614304 L11.5180610,25.585275 L11.4929660,25.561598 L11.2563190,25.324951 L11.2228340,25.263628 L11.2200000,25.237270 L11.2200000,13.100000 L12.2200000,13.100000 L12.2200000,4.100002 L30.8650800,4.100002 L30.8847460,4.462728 L30.9435170,4.821214 L30.9435190,4.821222 L31.0406950,5.171220 L31.0406970,5.171227 L31.1751520,5.508684 L31.1751610,5.508702 L31.3453160,5.829647 L31.3453180,5.829651 L31.5491700,6.130309 L31.5491770,6.130319 L31.6809680,6.285475 L31.6809690,6.285476 L32.9222650,5.044179 L33.0851300,5.234870 L33.2758190,5.397733 L32.0318890,6.641663 L32.0318890,6.641664 L32.0480700,6.656992 L32.3372660,6.876832 L32.3372820,6.876843 L32.6485220,7.064109 L32.6485350,7.064116 L32.9782050,7.216639 L32.9782100,7.216640 L33.3224610,7.332632 L33.6772350,7.410724 L34.0383660,7.449999 L34.0383740,7.450000 L34.4016260,7.450000 L34.4016330,7.449999 L34.7627640,7.410724 L35.1175380,7.332632 L35.4617890,7.216640 L35.4617940,7.216639 L35.7914640,7.064116 L35.7914770,7.064109 L36.1027170,6.876843 L36.1027330,6.876832 L36.3919240,6.656996 L36.4081090,6.641663 L35.1641800,5.397733 L35.3548700,5.234870 L35.5177330,5.044180 L36.7590290,6.285475 L36.7590300,6.285475 L36.8908220,6.130319 L36.8908290,6.130309 L37.0946810,5.829651 L37.0946830,5.829647 L37.2648380,5.508702 L37.2648470,5.508684 L37.3993020,5.171227 L37.3993040,5.171220 L37.4964800,4.821222 L37.4964820,4.821214 L37.5552530,4.462728 L37.5749200,4.100002 L37.5749200,4.099997 L37.5552530,3.737271 L37.4964820,3.378785 L37.4964800,3.378777 L37.3993040,3.028779 L37.3993020,3.028772 L37.2648470,2.691315 L37.2648380,2.691297 L37.0946830,2.370352 L37.0946810,2.370348 L36.8908290,2.069690 L36.8908220,2.069680 L36.7590300,1.914523 L36.7590290,1.914522 L35.5177320,3.155818 L35.3548700,2.965130 L35.1641790,2.802265 L36.4081090,1.558335 L36.4081090,1.558334 L36.3919290,1.543007 L36.1027330,1.323167 L36.1027170,1.323156 L35.7914770,1.135890 L35.7914640,1.135883 L35.4617940,0.983360 L35.4617890,0.983359 L35.1175380,0.867367 L34.7627640,0.789275 L34.4016330,0.750000 L34.0383660,0.750000 L33.6772350,0.789275 L33.3224610,0.867367 L32.9782100,0.983359 L32.9782050,0.983360 L32.6485350,1.135883 L32.6485220,1.135890 L32.3372820,1.323156 L32.3372660,1.323167 L32.0480710,1.543006 L32.0480700,1.543007 L32.0318890,1.558334 L32.0318890,1.558336 L33.2758190,2.802266 L33.0851300,2.965130 L32.9222660,3.155819 L31.6809690,1.914522 L31.5491700,2.069690 L31.5491690,2.069691 L31.3453130,2.370357 L31.1751610,2.691297 L31.1751520,2.691315 L31.0406970,3.028772 L31.0406950,3.028779 L30.9435190,3.378777 L30.9435170,3.378785 L30.8847460,3.737271 L30.8650800,4.099997 L30.8650800,4.100002 L12.2200000,4.100002 L12.2200000,0.100000 L38.0960000,0.100000 L38.1630390,0.119685 Z" fill="#155c82ff" />
<path d="M12.2200000,53.100000 L11.2200000,53.100000 L0.3440000,53.100000 L0.2769610,53.080315 L0.2312060,53.027511 L0.2200000,52.976000 L0.2200000,49.100002 L0.8650800,49.100002 L0.8847460,49.462728 L0.9435170,49.821214 L0.9435190,49.821222 L1.0406950,50.171220 L1.0406970,50.171227 L1.1751520,50.508684 L1.1751610,50.508702 L1.3453160,50.829647 L1.3453180,50.829651 L1.5491700,51.130309 L1.5491770,51.130319 L1.6809680,51.285475 L1.6809690,51.285476 L2.9222650,50.044179 L3.0851300,50.234870 L3.2758190,50.397733 L2.0318890,51.641663 L2.0318890,51.641664 L2.0480700,51.656992 L2.3372660,51.876832 L2.3372820,51.876843 L2.6485220,52.064109 L2.6485350,52.064116 L2.9782050,52.216639 L2.9782100,52.216640 L3.3224610,52.332632 L3.6772350,52.410724 L4.0383660,52.449999 L4.0383740,52.450000 L4.4016260,52.450000 L4.4016330,52.449999 L4.7627640,52.410724 L5.1175380,52.332632 L5.4617890,52.216640 L5.4617940,52.216639 L5.7914640,52.064116 L5.7914770,52.064109 L6.1027170,51.876843 L6.1027330,51.876832 L6.3919240,51.656996 L6.4081090,51.641663 L5.1641800,50.397733 L5.3548700,50.234870 L5.5177330,50.044180 L6.7590290,51.285475 L6.7590300,51.285475 L6.8908220,51.130319 L6.8908290,51.130309 L7.0946810,50.829651 L7.0946830,50.829647 L7.2648380,50.508702 L7.2648470,50.508684 L7.3993020,50.171227 L7.3993040,50.171220 L7.4964800,49.821222 L7.4964820,49.821214 L7.5552530,49.462728 L7.5749200,49.100002 L7.5749200,49.099997 L7.5552530,48.737271 L7.4964820,48.378785 L7.4964800,48.378777 L7.3993040,48.028779 L7.3993020,48.028772 L7.2648470,47.691315 L7.2648380,47.691297 L7.0946830,47.370352 L7.0946810,47.370348 L6.8908290,47.069690 L6.8908220,47.069680 L6.7590300,46.914523 L6.7590290,46.914522 L5.5177320,48.155818 L5.3548700,47.965130 L5.1641790,47.802265 L6.4081090,46.558335 L6.4081090,46.558334 L6.3919290,46.543007 L6.1027330,46.323167 L6.1027170,46.323156 L5.7914770,46.135890 L5.7914640,46.135883 L5.4617940,45.983360 L5.4617890,45.983359 L5.1175380,45.867367 L4.7627640,45.789275 L4.4016330,45.750000 L4.0383660,45.750000 L3.6772350,45.789275 L3.3224610,45.867367 L2.9782100,45.983359 L2.9782050,45.983360 L2.6485350,46.135883 L2.6485220,46.135890 L2.3372820,46.323156 L2.3372660,46.323167 L2.0480710,46.543006 L2.0480700,46.543007 L2.0318890,46.558334 L2.0318890,46.558336 L3.2758190,47.802266 L3.0851300,47.965130 L2.9222660,48.155819 L1.6809690,46.914522 L1.5491700,47.069690 L1.5491690,47.069691 L1.3453130,47.370357 L1.1751610,47.691297 L1.1751520,47.691315 L1.0406970,48.028772 L1.0406950,48.028779 L0.9435190,48.378777 L0.9435170,48.378785 L0.8847460,48.737271 L0.8650800,49.099997 L0.8650800,49.100002 L0.2200000,49.100002 L0.2200000,40.224000 L0.2396850,40.156961 L0.2924890,40.111206 L0.3440000,40.100000 L11.2200000,40.100000 L12.2200000,40.100000 L12.2200000,53.100000 Z" fill="#155c82ff" />
<path d="M12.2200000,13.100000 L0.3440000,13.100000 L0.2769610,13.080315 L0.2312060,13.027511 L0.2200000,12.976000 L0.2200000,4.100002 L0.8650800,4.100002 L0.8847460,4.462728 L0.9435170,4.821214 L0.9435190,4.821222 L1.0406950,5.171220 L1.0406970,5.171227 L1.1751520,5.508684 L1.1751610,5.508702 L1.3453160,5.829647 L1.3453180,5.829651 L1.5491700,6.130309 L1.5491770,6.130319 L1.6809680,6.285475 L1.6809690,6.285476 L2.9222650,5.044179 L3.0851300,5.234870 L3.2758190,5.397733 L2.0318890,6.641663 L2.0318890,6.641664 L2.0480700,6.656992 L2.3372660,6.876832 L2.3372820,6.876843 L2.6485220,7.064109 L2.6485350,7.064116 L2.9782050,7.216639 L2.9782100,7.216640 L3.3224610,7.332632 L3.6772350,7.410724 L4.0383660,7.449999 L4.0383740,7.450000 L4.4016260,7.450000 L4.4016330,7.449999 L4.7627640,7.410724 L5.1175380,7.332632 L5.4617890,7.216640 L5.4617940,7.216639 L5.7914640,7.064116 L5.7914770,7.064109 L6.1027170,6.876843 L6.1027330,6.876832 L6.3919240,6.656996 L6.4081090,6.641663 L5.1641800,5.397733 L5.3548700,5.234870 L5.5177330,5.044180 L6.7590290,6.285475 L6.7590300,6.285475 L6.8908220,6.130319 L6.8908290,6.130309 L7.0946810,5.829651 L7.0946830,5.829647 L7.2648380,5.508702 L7.2648470,5.508684 L7.3993020,5.171227 L7.3993040,5.171220 L7.4964800,4.821222 L7.4964820,4.821214 L7.5552530,4.462728 L7.5749200,4.100002 L7.5749200,4.099997 L7.5552530,3.737271 L7.4964820,3.378785 L7.4964800,3.378777 L7.3993040,3.028779 L7.3993020,3.028772 L7.2648470,2.691315 L7.2648380,2.691297 L7.0946830,2.370352 L7.0946810,2.370348 L6.8908290,2.069690 L6.8908220,2.069680 L6.7590300,1.914523 L6.7590290,1.914522 L5.5177320,3.155818 L5.3548700,2.965130 L5.1641790,2.802265 L6.4081090,1.558335 L6.4081090,1.558334 L6.3919290,1.543007 L6.1027330,1.323167 L6.1027170,1.323156 L5.7914770,1.135890 L5.7914640,1.135883 L5.4617940,0.983360 L5.4617890,0.983359 L5.1175380,0.867367 L4.7627640,0.789275 L4.4016330,0.750000 L4.0383660,0.750000 L3.6772350,0.789275 L3.3224610,0.867367 L2.9782100,0.983359 L2.9782050,0.983360 L2.6485350,1.135883 L2.6485220,1.135890 L2.3372820,1.323156 L2.3372660,1.323167 L2.0480710,1.543006 L2.0480700,1.543007 L2.0318890,1.558334 L2.0318890,1.558336 L3.2758190,2.802266 L3.0851300,2.965130 L2.9222660,3.155819 L1.6809690,1.914522 L1.5491700,2.069690 L1.5491690,2.069691 L1.3453130,2.370357 L1.1751610,2.691297 L1.1751520,2.691315 L1.0406970,3.028772 L1.0406950,3.028779 L0.9435190,3.378777 L0.9435170,3.378785 L0.8847460,3.737271 L0.8650800,4.099997 L0.8650800,4.100002 L0.2200000,4.100002 L0.2200000,0.224000 L0.2396850,0.156961 L0.2924890,0.111206 L0.3440000,0.100000 L12.2200000,0.100000 L12.2200000,13.100000 Z" fill="#155c82ff" />
<path d="M9.1630390,14.619685 L9.2087940,14.672489 L9.2200000,14.724000 L9.2200000,24.875500 L9.2003150,24.942539 L9.1475110,24.988294 L9.0960000,24.999500 L8.7634280,24.999500 L8.7553290,24.998969 L8.7200000,24.994318 L8.6806390,24.999500 L8.5632390,25.014955 L8.5632370,25.014956 L8.4171570,25.075464 L8.2917190,25.171716 L8.2700190,25.199994 L8.2646680,25.206096 L7.7211570,25.749607 L7.6598340,25.783092 L7.5901430,25.778108 L7.5342090,25.736237 L7.5097920,25.670772 L7.5100470,25.655527 L7.5100470,25.650003 L7.5100470,25.650000 L7.4919080,25.477424 L7.4382860,25.312389 L7.4377710,25.311497 L7.4376290,25.310914 L7.4356440,25.306455 L7.4364590,25.306091 L7.4213000,25.243596 L7.4359560,25.193685 L7.4351840,25.193341 L7.4377510,25.187575 L7.4377760,25.187491 L7.4378270,25.187401 L7.4914140,25.022476 L7.4914150,25.022473 L7.5095430,24.849999 L7.4914150,24.677526 L7.4914140,24.677523 L7.4378280,24.512599 L7.4374870,24.512009 L7.4373930,24.511623 L7.4351850,24.506664 L7.4360910,24.506260 L7.4210090,24.444111 L7.4358320,24.393624 L7.4351850,24.393336 L7.4373350,24.388505 L7.4374870,24.387991 L7.4378280,24.387400 L7.4914140,24.222476 L7.4914150,24.222473 L7.5095430,24.049999 L7.4914150,23.877526 L7.4914140,23.877523 L7.4378260,23.712595 L7.4133490,23.670202 L6.9376040,24.145947 L6.8762810,24.179432 L6.8408710,24.176899 L6.8800000,24.095649 L6.8800000,24.004351 L6.8403870,23.922095 L6.7690080,23.865173 L6.7025320,23.850000 L6.6574680,23.850000 L6.5909920,23.865173 L6.5897610,23.866153 L6.5876510,23.861755 L6.5962770,23.792420 L6.6223500,23.754095 L7.0602310,23.316215 L6.9363400,23.261056 L6.9363420,23.261056 L6.8254010,23.237475 L6.7639200,23.204282 L6.7301440,23.143119 L6.7347960,23.073404 L6.7388010,23.063780 L6.7562660,23.026326 L6.7562690,23.026317 L6.8088720,22.830000 L6.0758820,22.830000 L6.1145560,22.736631 L6.1351770,22.580000 L6.1145560,22.423369 L6.0758820,22.330000 L6.8088720,22.330000 L6.8088720,22.329999 L6.7562690,22.133682 L6.7562650,22.133673 L6.6601340,21.927517 L6.5296570,21.741179 L6.3688200,21.580342 L6.1824820,21.449865 L5.9763280,21.353734 L5.7800000,21.301127 L5.7800000,22.034118 L5.6866310,21.995444 L5.5693230,21.980000 L5.4906770,21.980000 L5.3733690,21.995444 L5.2799990,22.034118 L5.2799990,21.301127 L5.0836720,21.353734 L4.8775170,21.449865 L4.6911790,21.580342 L4.5303420,21.741179 L4.3998650,21.927517 L4.3037340,22.133673 L4.3037300,22.133682 L4.2511270,22.329999 L4.2511280,22.330000 L4.9841180,22.330000 L4.9454440,22.423369 L4.9248230,22.580000 L4.9454440,22.736631 L4.9841180,22.830000 L4.2511280,22.830000 L4.3037300,23.026317 L4.3037340,23.026326 L4.3998650,23.232482 L4.5303420,23.418820 L4.6911790,23.579657 L4.8775170,23.710134 L5.0836730,23.806265 L5.0836820,23.806269 L5.2001870,23.837486 L5.2598480,23.873851 L5.2903770,23.936697 L5.2820830,24.006073 L5.2754820,24.019260 L5.2217120,24.112392 L5.1859460,24.222473 L5.1680920,24.277424 L5.1499530,24.450000 L5.1680920,24.622576 L5.1680930,24.622579 L5.2217130,24.787610 L5.2217170,24.787620 L5.2219440,24.788012 L5.2220050,24.788267 L5.2243590,24.793553 L5.2233910,24.793983 L5.2384090,24.855914 L5.2236620,24.906136 L5.2243590,24.906447 L5.2220440,24.911646 L5.2219440,24.911988 L5.2217170,24.912379 L5.2217130,24.912389 L5.1819320,25.034827 L5.1680920,25.077424 L5.1499530,25.250000 L5.1680920,25.422576 L5.1680930,25.422579 L5.2217130,25.587610 L5.2217170,25.587620 L5.2219440,25.588012 L5.2220050,25.588267 L5.2243590,25.593553 L5.2233910,25.593983 L5.2384090,25.655914 L5.2236620,25.706136 L5.2243590,25.706447 L5.2220440,25.711646 L5.2219440,25.711988 L5.2217170,25.712379 L5.2217130,25.712389 L5.1836630,25.829500 L5.1680920,25.877424 L5.1499530,26.050000 L5.1680920,26.222576 L5.1680930,26.222579 L5.2217120,26.387608 L5.3084770,26.537887 L5.3084760,26.537887 L5.3084780,26.537889 L5.4245900,26.666845 L5.5386050,26.749682 L5.5812700,26.805012 L5.5872490,26.874626 L5.5546430,26.936421 L5.5386050,26.950318 L5.4245880,27.033156 L5.3084770,27.162112 L5.2217120,27.312391 L5.1899460,27.410162 L5.1680920,27.477424 L5.1499530,27.650000 L5.1680920,27.822576 L5.1680930,27.822579 L5.2217130,27.987610 L5.2217170,27.987620 L5.2219440,27.988012 L5.2220050,27.988267 L5.2243590,27.993553 L5.2233910,27.993983 L5.2384090,28.055914 L5.2236620,28.106136 L5.2243590,28.106447 L5.2220440,28.111646 L5.2219440,28.111988 L5.2217170,28.112379 L5.2217130,28.112389 L5.1775320,28.248369 L5.1680920,28.277424 L5.1499530,28.450000 L5.1680920,28.622576 L5.1680930,28.622579 L5.2217130,28.787610 L5.2217170,28.787620 L5.2219440,28.788012 L5.2220050,28.788267 L5.2243590,28.793553 L5.2233910,28.793983 L5.2384090,28.855914 L5.2236620,28.906136 L5.2243590,28.906447 L5.2220440,28.911646 L5.2219440,28.911988 L5.2217170,28.912379 L5.2217130,28.912389 L5.1859460,29.022473 L5.1680920,29.077424 L5.1499530,29.250000 L5.1680920,29.422576 L5.1680930,29.422579 L5.2217120,29.587608 L5.2754810,29.680738 L5.2919540,29.748638 L5.2691010,29.814665 L5.2141800,29.857856 L5.2001880,29.862513 L5.0836800,29.893731 L5.0836730,29.893734 L4.8775170,29.989865 L4.6911790,30.120342 L4.5303420,30.281179 L4.3998650,30.467517 L4.3037340,30.673673 L4.3037300,30.673682 L4.2511270,30.869999 L4.2511280,30.870000 L4.9841180,30.870000 L4.9454440,30.963369 L4.9248230,31.120000 L4.9454440,31.276631 L4.9841180,31.370000 L4.2511280,31.370000 L4.3037300,31.566317 L4.3037340,31.566326 L4.3998650,31.772482 L4.5303420,31.958820 L4.6911790,32.119657 L4.8775170,32.250134 L5.0836730,32.346265 L5.0836790,32.346268 L5.2799980,32.398871 L5.2799990,32.398871 L5.2799990,31.665881 L5.3733690,31.704556 L5.4906770,31.720000 L5.5693230,31.720000 L5.6866310,31.704556 L5.7800000,31.665881 L5.7800000,32.398872 L5.9763170,32.346269 L5.9763260,32.346265 L6.1824820,32.250134 L6.3688200,32.119657 L6.5296570,31.958820 L6.6601340,31.772482 L6.7562650,31.566326 L6.7562690,31.566317 L6.8088720,31.370000 L6.0758820,31.370000 L6.1145560,31.276631 L6.1351770,31.120000 L6.1145560,30.963369 L6.0758820,30.870000 L6.8088720,30.870000 L6.8088720,30.869999 L6.7562690,30.673682 L6.7562640,30.673668 L6.7388010,30.636218 L6.7283090,30.567141 L6.7568290,30.503357 L6.8153060,30.465118 L6.8254020,30.462524 L6.9363420,30.438943 L6.9363470,30.438941 L7.0602300,30.383784 L7.0602300,30.383783 L6.6223500,29.945903 L6.5888650,29.884580 L6.5924000,29.835148 L6.6574680,29.850000 L6.7025320,29.850000 L6.7690080,29.834827 L6.8403870,29.777905 L6.8800000,29.695649 L6.8800000,29.604351 L6.8403870,29.522095 L6.8387260,29.520770 L6.8486870,29.517738 L6.9159190,29.536753 L6.9376040,29.554051 L7.4133500,30.029797 L7.4378270,29.987402 L7.4914140,29.822476 L7.4914150,29.822473 L7.5095430,29.649999 L7.4914150,29.477526 L7.4914140,29.477523 L7.4378280,29.312599 L7.4374870,29.312009 L7.4373930,29.311623 L7.4351850,29.306664 L7.4360910,29.306260 L7.4210090,29.244111 L7.4358320,29.193624 L7.4351850,29.193336 L7.4373350,29.188505 L7.4374870,29.187991 L7.4378280,29.187400 L7.4914140,29.022476 L7.4914150,29.022473 L7.5095430,28.849999 L7.4914150,28.677526 L7.4914140,28.677523 L7.4378260,28.512595 L7.4377720,28.512501 L7.4377560,28.512438 L7.4351840,28.506660 L7.4362400,28.506189 L7.4212990,28.444601 L7.4362160,28.393804 L7.4356420,28.393549 L7.4375480,28.389266 L7.4377750,28.388496 L7.4382860,28.387611 L7.4919080,28.222576 L7.5100470,28.050000 L7.5100470,28.049996 L7.5100470,28.043501 L7.5115350,28.043501 L7.5227190,27.982315 L7.5704470,27.931287 L7.6381860,27.914162 L7.7044290,27.936379 L7.7211570,27.950392 L7.7646690,27.993904 L7.7700200,28.000005 L7.7917180,28.028282 L7.8532540,28.075500 L7.9171590,28.124536 L7.9171610,28.124536 L7.9171630,28.124538 L7.9901980,28.154789 L8.0632380,28.185044 L8.1101800,28.191224 L8.2199990,28.205682 L8.2200000,28.205682 L8.2553290,28.201030 L8.2634280,28.200500 L8.9265720,28.200500 L8.9346700,28.201030 L8.9700000,28.205682 L9.0798160,28.191224 L9.1488490,28.201989 L9.2011050,28.248369 L9.2200000,28.314163 L9.2200000,38.726000 L9.2003150,38.793039 L9.1475110,38.838794 L9.0960000,38.850000 L0.3440000,38.850000 L0.2769610,38.830315 L0.2312060,38.777511 L0.2200000,38.726000 L0.2200000,32.472049 L0.2396850,32.405010 L0.2924890,32.359255 L0.3616470,32.349311 L0.3760940,32.352274 L0.5499990,32.398871 L0.5500000,32.398871 L0.5500000,31.665881 L0.6433690,31.704556 L0.7606770,31.720000 L0.8393230,31.720000 L0.9566310,31.704556 L1.0500000,31.665881 L1.0500000,32.398872 L1.2463170,32.346269 L1.2463260,32.346265 L1.4524820,32.250134 L1.6388200,32.119657 L1.7996570,31.958820 L1.9301340,31.772482 L2.0262650,31.566326 L2.0262690,31.566317 L2.0788720,31.370000 L1.3458820,31.370000 L1.3845560,31.276631 L1.4051770,31.120000 L1.3845560,30.963369 L1.3458820,30.870000 L2.0788720,30.870000 L2.0788720,30.869999 L2.0262690,30.673682 L2.0262650,30.673673 L1.9301340,30.467517 L1.7996570,30.281179 L1.6388200,30.120342 L1.4524820,29.989865 L1.2463280,29.893734 L1.0500000,29.841127 L1.0500000,30.574118 L0.9566310,30.535444 L0.8393230,30.520000 L0.7606770,30.520000 L0.6433690,30.535444 L0.5500000,30.574118 L0.5500000,29.841127 L0.3760940,29.887726 L0.3062440,29.886063 L0.2483820,29.846901 L0.2208770,29.782673 L0.2200000,29.767951 L0.2200000,23.932049 L0.2396850,23.865010 L0.2924890,23.819255 L0.3616470,23.809311 L0.3760940,23.812274 L0.5499990,23.858871 L0.5500000,23.858871 L0.5500000,23.125881 L0.6433690,23.164556 L0.7606770,23.180000 L0.8393230,23.180000 L0.9566310,23.164556 L1.0500000,23.125881 L1.0500000,23.858872 L1.2463170,23.806269 L1.2463260,23.806265 L1.4524820,23.710134 L1.6388200,23.579657 L1.7996570,23.418820 L1.9301340,23.232482 L2.0262650,23.026326 L2.0262690,23.026317 L2.0788720,22.830000 L1.3458820,22.830000 L1.3845560,22.736631 L1.4051770,22.580000 L1.3845560,22.423369 L1.3458820,22.330000 L2.0788720,22.330000 L2.0788720,22.329999 L2.0262690,22.133682 L2.0262650,22.133673 L1.9301340,21.927517 L1.7996570,21.741179 L1.6388200,21.580342 L1.4524820,21.449865 L1.2463280,21.353734 L1.0499990,21.301127 L1.0499990,22.034118 L0.9566310,21.995444 L0.8393230,21.980000 L0.7606770,21.980000 L0.6433690,21.995444 L0.5500000,22.034118 L0.5500000,21.301127 L0.3760940,21.347726 L0.3062440,21.346063 L0.2483820,21.306901 L0.2208770,21.242673 L0.2200000,21.227951 L0.2200000,14.724000 L0.2396850,14.656961 L0.2924890,14.611206 L0.3440000,14.600000 L9.0960000,14.600000 L9.1630390,14.619685 Z" fill="#155c82ff" />
</g>
</svg>