<?xml version="1.0" encoding="UTF-8"?>
<svg xmlns="http://www.w3.org/2000/svg" xmlns:xlink="http://www.w3.org/1999/xlink"
     width="37.0700000" height="50.700000" viewBox="0 0 37.0700000 50.700000">
<defs>
<mask id="d0">
<rect x="-18.5350000" y="-25.350000" width="74.1400000" height="101.400000" fill="white" />
</mask>
<g id="d1">
<circle cx="0" cy="0" r="0.32500" fill="#133d91ff" />
</g>
<g id="d2">
<rect x="-0.5500000" y="-0.1500000" width="1.1000000" height="0.3000000" fill="#133d91ff" transform="rotate(-0.0)" />
</g>
<g id="d3">
<rect x="-0.8000000" y="-0.8000000" width="1.6000000" height="1.6000000" fill="#133d91ff" rx="0.800000" ry="0.800000" transform="rotate(-0.0)" />
</g>
<g id="d4">
<circle cx="0" cy="0" r="1.80000" fill="#133d91ff" />
</g>
<g id="d5">
<circle cx="0" cy="0" r="2.85000" fill="#133d91ff" />
</g>
<mask id="d6">
<rect x="-18.5350000" y="-25.350000" width="74.1400000" height="101.400000" fill="white" />
</mask>
<g id="d7">
<circle cx="0" cy="0" r="0.10000" fill="#133d91ff" />
</g>
<g id="d8">
<circle cx="0" cy="0" r="0.10000" fill="#133d91ff" />
</g>
<g id="d9">
<circle cx="0" cy="0" r="0.10000" fill="#133d91ff" />
</g>
<g id="d10">
<circle cx="0" cy="0" r="0.10000" fill="#133d91ff" />
</g>
<g mask="url(#d6)" id="d11">
<g></g>
<path d="M-0.10000000,0.71250000 L-0.10000000,-0.71250000 L0.10000000,-0.71250000 L0.10000000,0.71250000 L-0.10000000,0.71250000 L-0.10000000,0.71250000 Z" fill="#155c82ff" />
<use xlink:href="#d7" x="-0.100000" y="0.712500" />
<use xlink:href="#d8" x="-0.100000" y="-0.712500" />
<use xlink:href="#d9" x="0.100000" y="-0.712500" />
<use xlink:href="#d10" x="0.100000" y="0.712500" />
<path d="M-0.200000,0.712500 L0.000000,0.712500 L0.000000,-0.712500 L-0.200000,-0.712500 Z" fill="#133d91ff" />
<path d="M-0.100000,-0.812500 L-0.100000,-0.612500 L0.100000,-0.612500 L0.100000,-0.812500 Z" fill="#133d91ff" />
<path d="M0.200000,-0.712500 L0.000000,-0.712500 L0.000000,0.712500 L0.200000,0.712500 Z" fill="#133d91ff" />
<path d="M0.100000,0.812500 L0.100000,0.612500 L-0.100000,0.612500 L-0.100000,0.812500 Z" fill="#133d91ff" />
</g>
<mask id="d12">
<rect x="-18.5350000" y="-25.350000" width="74.1400000" height="101.400000" fill="white" />
</mask>
<g id="d13">
<circle cx="0" cy="0" r="0.25000" fill="#133d91ff" />
</g>
<g id="d14">
<circle cx="0" cy="0" r="0.25000" fill="#133d91ff" />
</g>
<g id="d15">
<circle cx="0" cy="0" r="0.25000" fill="#133d91ff" />
</g>
<g id="d16">
<circle cx="0" cy="0" r="0.25000" fill="#133d91ff" />
</g>
<g mask="url(#d12)" id="d17">
<g></g>
<path d="M0.26250000,0.45000000 L-0.26250000,0.45000000 L-0.26250000,-0.45000000 L0.26250000,-0.45000000 L0.26250000,0.45000000 L0.26250000,0.45000000 Z" fill="#155c82ff" />
<use xlink:href="#d13" x="0.262500" y="0.450000" />
<use xlink:href="#d14" x="-0.262500" y="0.450000" />
<use xlink:href="#d15" x="-0.262500" y="-0.450000" />
<use xlink:href="#d16" x="0.262500" y="-0.450000" />
<path d="M0.262500,0.700000 L0.262500,0.200000 L-0.262500,0.200000 L-0.262500,0.700000 Z" fill="#133d91ff" />
<path d="M-0.512500,0.450000 L-0.012500,0.450000 L-0.012500,-0.450000 L-0.512500,-0.450000 Z" fill="#133d91ff" />
<path d="M-0.262500,-0.700000 L-0.262500,-0.200000 L0.262500,-0.200000 L0.262500,-0.700000 Z" fill="#133d91ff" />
<path d="M0.512500,-0.450000 L0.012500,-0.450000 L0.012500,0.450000 L0.512500,0.450000 Z" fill="#133d91ff" />
</g>
<mask id="d18">
<rect x="-18.5350000" y="-25.350000" width="74.1400000" height="101.400000" fill="white" />
</mask>
<g id="d19">
<circle cx="0" cy="0" r="0.20000" fill="#133d91ff" />
</g>
<g id="d20">
<circle cx="0" cy="0" r="0.20000" fill="#133d91ff" />
</g>
<g id="d21">
<circle cx="0" cy="0" r="0.20000" fill="#133d91ff" />
</g>
<g id="d22">
<circle cx="0" cy="0" r="0.20000" fill="#133d91ff" />
</g>
<g mask="url(#d18)" id="d23">
<g></g>
<path d="M-0.27500000,0.20000000 L-0.27500000,-0.20000000 L0.27500000,-0.20000000 L0.27500000,0.20000000 L-0.27500000,0.20000000 L-0.27500000,0.20000000 Z" fill="#155c82ff" />
<use xlink:href="#d19" x="-0.275000" y="0.200000" />
<use xlink:href="#d20" x="-0.275000" y="-0.200000" />
<use xlink:href="#d21" x="0.275000" y="-0.200000" />
<use xlink:href="#d22" x="0.275000" y="0.200000" />
<path d="M-0.475000,0.200000 L-0.075000,0.200000 L-0.075000,-0.200000 L-0.475000,-0.200000 Z" fill="#133d91ff" />
<path d="M-0.275000,-0.400000 L-0.275000,0.000000 L0.275000,0.000000 L0.275000,-0.400000 Z" fill="#133d91ff" />
<path d="M0.475000,-0.200000 L0.075000,-0.200000 L0.075000,0.200000 L0.475000,0.200000 Z" fill="#133d91ff" />
<path d="M0.275000,0.400000 L0.275000,0.000000 L-0.275000,0.000000 L-0.275000,0.400000 Z" fill="#133d91ff" />
</g>
<g id="d24">
<rect x="-0.4500000" y="-0.2000000" width="0.9000000" height="0.4000000" fill="#133d91ff" transform="rotate(-0.0)" />
</g>
<g id="d25">
<rect x="-0.6750000" y="-0.6750000" width="1.3500000" height="1.3500000" fill="#133d91ff" transform="rotate(-0.0)" />
</g>
<g id="d26">
<rect x="-0.6750000" y="-0.6750000" width="1.3500000" height="1.3500000" fill="#133d91ff" rx="0.675000" ry="0.675000" transform="rotate(-0.0)" />
</g>
<mask id="d27">
<rect x="-18.5350000" y="-25.350000" width="74.1400000" height="101.400000" fill="white" />
</mask>
<g id="d28">
<circle cx="0" cy="0" r="0.25000" fill="#133d91ff" />
</g>
<g id="d29">
<circle cx="0" cy="0" r="0.25000" fill="#133d91ff" />
</g>
<g id="d30">
<circle cx="0" cy="0" r="0.25000" fill="#133d91ff" />
</g>
<g id="d31">
<circle cx="0" cy="0" r="0.25000" fill="#133d91ff" />
</g>
<g mask="url(#d27)" id="d32">
<g></g>
<path d="M-0.26250000,-0.45000000 L0.26250000,-0.45000000 L0.26250000,0.45000000 L-0.26250000,0.45000000 L-0.26250000,-0.45000000 L-0.26250000,-0.45000000 Z" fill="#155c82ff" />
<use xlink:href="#d28" x="-0.262500" y="-0.450000" />
<use xlink:href="#d29" x="0.262500" y="-0.450000" />
<use xlink:href="#d30" x="0.262500" y="0.450000" />
<use xlink:href="#d31" x="-0.262500" y="0.450000" />
<path d="M-0.262500,-0.700000 L-0.262500,-0.200000 L0.262500,-0.200000 L0.262500,-0.700000 Z" fill="#133d91ff" />
<path d="M0.512500,-0.450000 L0.012500,-0.450000 L0.012500,0.450000 L0.512500,0.450000 Z" fill="#133d91ff" />
<path d="M0.262500,0.700000 L0.262500,0.200000 L-0.262500,0.200000 L-0.262500,0.700000 Z" fill="#133d91ff" />
<path d="M-0.512500,0.450000 L-0.012500,0.450000 L-0.012500,-0.450000 L-0.512500,-0.450000 Z" fill="#133d91ff" />
</g>
</defs>
<g mask="url(#d0)">
<g></g>
<use xlink:href="#d1" x="5.9800000" y="27.200000" />
<use xlink:href="#d1" x="5.9800000" y="24.800000" />
<use xlink:href="#d1" x="5.9800000" y="26.400000" />
<use xlink:href="#d1" x="5.9800000" y="24.000000" />
<use xlink:href="#d2" x="7.9900000" y="23.850000" />
<use xlink:href="#d2" x="7.9900000" y="24.350000" />
<use xlink:href="#d2" x="7.9900000" y="27.350000" />
<use xlink:href="#d2" x="7.9900000" y="26.850000" />
<use xlink:href="#d3" x="0.8000000" y="21.330000" />
<use xlink:href="#d1" x="6.6800000" y="28.400000" />
<use xlink:href="#d1" x="5.9800000" y="23.200000" />
<use xlink:href="#d1" x="6.6800000" y="25.200000" />
<use xlink:href="#d2" x="7.9900000" y="22.850000" />
<use xlink:href="#d2" x="7.9900000" y="23.350000" />
<use xlink:href="#d3" x="5.5300000" y="29.870000" />
<use xlink:href="#d3" x="0.8000000" y="29.870000" />
<use xlink:href="#d1" x="6.6800000" y="24.400000" />
<use xlink:href="#d2" x="7.9900000" y="26.350000" />
<use xlink:href="#d2" x="7.9900000" y="27.850000" />
<use xlink:href="#d1" x="5.9800000" y="28.000000" />
<use xlink:href="#d1" x="6.6800000" y="22.800000" />
<use xlink:href="#d2" x="7.9900000" y="24.850000" />
<use xlink:href="#d2" x="7.9900000" y="25.350000" />
<use xlink:href="#d1" x="6.6800000" y="26.800000" />
<use xlink:href="#d1" x="6.6800000" y="26.000000" />
<use xlink:href="#d1" x="6.6800000" y="23.600000" />
<use xlink:href="#d3" x="5.5300000" y="21.330000" />
<use xlink:href="#d1" x="6.6800000" y="27.600000" />
<use xlink:href="#d2" x="7.9900000" y="25.850000" />
<use xlink:href="#d2" x="7.9900000" y="28.350000" />
<use xlink:href="#d4" x="4.2200000" y="47.850000" />
<use xlink:href="#d5" x="4.2200000" y="47.850000" />
<use xlink:href="#d4" x="34.2200000" y="2.850000" />
<use xlink:href="#d5" x="34.2200000" y="2.850000" />
<use xlink:href="#d11" x="13.7700000" y="23.757500" />
<use xlink:href="#d11" x="13.1200000" y="23.757500" />
<use xlink:href="#d11" x="12.4700000" y="23.757500" />
<use xlink:href="#d11" x="11.8200000" y="23.757500" />
<use xlink:href="#d11" x="11.8200000" y="27.982500" />
<use xlink:href="#d11" x="12.4700000" y="27.982500" />
<use xlink:href="#d11" x="13.1200000" y="27.982500" />
<use xlink:href="#d11" x="13.7700000" y="27.982500" />
<use xlink:href="#d17" x="17.8825000" y="28.100000" />
<use xlink:href="#d17" x="16.0575000" y="28.100000" />
<use xlink:href="#d4" x="4.2200000" y="2.850000" />
<use xlink:href="#d5" x="4.2200000" y="2.850000" />
<use xlink:href="#d23" x="2.4900000" y="32.100000" />
<use xlink:href="#d23" x="2.4900000" y="33.750000" />
<use xlink:href="#d24" x="17.6700000" y="25.870000" />
<use xlink:href="#d24" x="17.6700000" y="25.070000" />
<use xlink:href="#d24" x="15.9700000" y="25.070000" />
<use xlink:href="#d24" x="15.9700000" y="25.870000" />
<use xlink:href="#d4" x="34.2200000" y="47.850000" />
<use xlink:href="#d5" x="34.2200000" y="47.850000" />
<use xlink:href="#d25" x="33.9700000" y="20.370000" />
<use xlink:href="#d26" x="35.9700000" y="20.370000" />
<use xlink:href="#d26" x="33.9700000" y="22.370000" />
<use xlink:href="#d26" x="35.9700000" y="22.370000" />
<use xlink:href="#d26" x="33.9700000" y="24.370000" />
<use xlink:href="#d26" x="35.9700000" y="24.370000" />
<use xlink:href="#d26" x="33.9700000" y="26.370000" />
<use xlink:href="#d26" x="35.9700000" y="26.370000" />
<use xlink:href="#d26" x="33.9700000" y="28.370000" />
<use xlink:href="#d26" x="35.9700000" y="28.370000" />
<use xlink:href="#d23" x="4.4700000" y="32.025000" />
<use xlink:href="#d23" x="4.4700000" y="33.675000" />
<use xlink:href="#d32" x="9.8075000" y="34.850000" />
<use xlink:href="#d32" x="11.6325000" y="34.850000" />
</g>
</svg>