<?xml version="1.0" encoding="UTF-8"?>
<svg xmlns="http://www.w3.org/2000/svg" xmlns:xlink="http://www.w3.org/1999/xlink"
     width="16.380000" height="12.8500000" viewBox="0 0 16.380000 12.8500000">
<defs>
<mask id="d0">
<rect x="-8.190000" y="-6.4250000" width="32.760000" height="25.7000000" fill="white" />
</mask>
<g id="d1">
<rect x="-0.5500000" y="-0.1500000" width="1.1000000" height="0.3000000" fill="#133d91ff" transform="rotate(-0.0)" />
</g>
<mask id="d2">
<rect x="-8.190000" y="-6.4250000" width="32.760000" height="25.7000000" fill="white" />
</mask>
<g id="d3">
<circle cx="0" cy="0" r="0.10000" fill="#133d91ff" />
</g>
<g id="d4">
<circle cx="0" cy="0" r="0.10000" fill="#133d91ff" />
</g>
<g id="d5">
<circle cx="0" cy="0" r="0.10000" fill="#133d91ff" />
</g>
<g id="d6">
<circle cx="0" cy="0" r="0.10000" fill="#133d91ff" />
</g>
<g mask="url(#d2)" id="d7">
<g></g>
<path d="M-0.10000000,0.71250000 L-0.10000000,-0.71250000 L0.10000000,-0.71250000 L0.10000000,0.71250000 L-0.10000000,0.71250000 L-0.10000000,0.71250000 Z" fill="#155c82ff" />
<use xlink:href="#d3" x="-0.100000" y="0.712500" />
<use xlink:href="#d4" x="-0.100000" y="-0.712500" />
<use xlink:href="#d5" x="0.100000" y="-0.712500" />
<use xlink:href="#d6" x="0.100000" y="0.712500" />
<path d="M-0.20000000,0.71250000 L0.00000000,0.71250000 L0.00000000,-0.71250000 L-0.20000000,-0.71250000 Z" fill="#133d91ff" />
<path d="M-0.10000000,-0.81250000 L-0.10000000,-0.61250000 L0.10000000,-0.61250000 L0.10000000,-0.81250000 Z" fill="#133d91ff" />
<path d="M0.20000000,-0.71250000 L0.00000000,-0.71250000 L0.00000000,0.71250000 L0.20000000,0.71250000 Z" fill="#133d91ff" />
<path d="M0.10000000,0.81250000 L0.10000000,0.61250000 L-0.10000000,0.61250000 L-0.10000000,0.81250000 Z" fill="#133d91ff" />
</g>
<mask id="d8">
<rect x="-8.190000" y="-6.4250000" width="32.760000" height="25.7000000" fill="white" />
</mask>
<g id="d9">
<circle cx="0" cy="0" r="0.25000" fill="#133d91ff" />
</g>
<g id="d10">
<circle cx="0" cy="0" r="0.25000" fill="#133d91ff" />
</g>
<g id="d11">
<circle cx="0" cy="0" r="0.25000" fill="#133d91ff" />
</g>
<g id="d12">
<circle cx="0" cy="0" r="0.25000" fill="#133d91ff" />
</g>
<g mask="url(#d8)" id="d13">
<g></g>
<path d="M0.26250000,0.45000000 L-0.26250000,0.45000000 L-0.26250000,-0.45000000 L0.26250000,-0.45000000 L0.26250000,0.45000000 L0.26250000,0.45000000 Z" fill="#155c82ff" />
<use xlink:href="#d9" x="0.262500" y="0.450000" />
<use xlink:href="#d10" x="-0.262500" y="0.450000" />
<use xlink:href="#d11" x="-0.262500" y="-0.450000" />
<use xlink:href="#d12" x="0.262500" y="-0.450000" />
<path d="M0.26250000,0.70000000 L0.26250000,0.20000000 L-0.26250000,0.20000000 L-0.26250000,0.70000000 Z" fill="#133d91ff" />
<path d="M-0.51250000,0.45000000 L-0.01250000,0.45000000 L-0.01250000,-0.45000000 L-0.51250000,-0.45000000 Z" fill="#133d91ff" />
<path d="M-0.26250000,-0.70000000 L-0.26250000,-0.20000000 L0.26250000,-0.20000000 L0.26250000,-0.70000000 Z" fill="#133d91ff" />
<path d="M0.51250000,-0.45000000 L0.01250000,-0.45000000 L0.01250000,0.45000000 L0.51250000,0.45000000 Z" fill="#133d91ff" />
</g>
<mask id="d14">
<rect x="-8.190000" y="-6.4250000" width="32.760000" height="25.7000000" fill="white" />
</mask>
<g id="d15">
<circle cx="0" cy="0" r="0.20000" fill="#133d91ff" />
</g>
<g id="d16">
<circle cx="0" cy="0" r="0.20000" fill="#133d91ff" />
</g>
<g id="d17">
<circle cx="0" cy="0" r="0.20000" fill="#133d91ff" />
</g>
<g id="d18">
<circle cx="0" cy="0" r="0.20000" fill="#133d91ff" />
</g>
<g mask="url(#d14)" id="d19">
<g></g>
<path d="M-0.27500000,0.20000000 L-0.27500000,-0.20000000 L0.27500000,-0.20000000 L0.27500000,0.20000000 L-0.27500000,0.20000000 L-0.27500000,0.20000000 Z" fill="#155c82ff" />
<use xlink:href="#d15" x="-0.275000" y="0.200000" />
<use xlink:href="#d16" x="-0.275000" y="-0.200000" />
<use xlink:href="#d17" x="0.275000" y="-0.200000" />
<use xlink:href="#d18" x="0.275000" y="0.200000" />
<path d="M-0.47500000,0.20000000 L-0.07500000,0.20000000 L-0.07500000,-0.20000000 L-0.47500000,-0.20000000 Z" fill="#133d91ff" />
<path d="M-0.27500000,-0.40000000 L-0.27500000,0.00000000 L0.27500000,0.00000000 L0.27500000,-0.40000000 Z" fill="#133d91ff" />
<path d="M0.47500000,-0.20000000 L0.07500000,-0.20000000 L0.07500000,0.20000000 L0.47500000,0.20000000 Z" fill="#133d91ff" />
<path d="M0.27500000,0.40000000 L0.27500000,0.00000000 L-0.27500000,0.00000000 L-0.27500000,0.40000000 Z" fill="#133d91ff" />
</g>
<g id="d20">
<rect x="-0.4500000" y="-0.2000000" width="0.9000000" height="0.4000000" fill="#133d91ff" transform="rotate(-0.0)" />
</g>
<mask id="d21">
<rect x="-8.190000" y="-6.4250000" width="32.760000" height="25.7000000" fill="white" />
</mask>
<g id="d22">
<circle cx="0" cy="0" r="0.25000" fill="#133d91ff" />
</g>
<g id="d23">
<circle cx="0" cy="0" r="0.25000" fill="#133d91ff" />
</g>
<g id="d24">
<circle cx="0" cy="0" r="0.25000" fill="#133d91ff" />
</g>
<g id="d25">
<circle cx="0" cy="0" r="0.25000" fill="#133d91ff" />
</g>
<g mask="url(#d21)" id="d26">
<g></g>
<path d="M-0.26250000,-0.45000000 L0.26250000,-0.45000000 L0.26250000,0.45000000 L-0.26250000,0.45000000 L-0.26250000,-0.45000000 L-0.26250000,-0.45000000 Z" fill="#155c82ff" />
<use xlink:href="#d22" x="-0.262500" y="-0.450000" />
<use xlink:href="#d23" x="0.262500" y="-0.450000" />
<use xlink:href="#d24" x="0.262500" y="0.450000" />
<use xlink:href="#d25" x="-0.262500" y="0.450000" />
<path d="M-0.26250000,-0.70000000 L-0.26250000,-0.20000000 L0.26250000,-0.20000000 L0.26250000,-0.70000000 Z" fill="#133d91ff" />
<path d="M0.51250000,-0.45000000 L0.01250000,-0.45000000 L0.01250000,0.45000000 L0.51250000,0.45000000 Z" fill="#133d91ff" />
<path d="M0.26250000,0.70000000 L0.26250000,0.20000000 L-0.26250000,0.20000000 L-0.26250000,0.70000000 Z" fill="#133d91ff" />
<path d="M-0.51250000,0.45000000 L-0.01250000,0.45000000 L-0.01250000,-0.45000000 L-0.51250000,-0.45000000 Z" fill="#133d91ff" />
</g>
</defs>
<g mask="url(#d0)">
<g></g>
<use xlink:href="#d1" x="5.975000" y="1.1500000" />
<use xlink:href="#d1" x="5.975000" y="1.6500000" />
<use xlink:href="#d1" x="5.975000" y="4.6500000" />
<use xlink:href="#d1" x="5.975000" y="4.1500000" />
<use xlink:href="#d1" x="5.975000" y="0.1500000" />
<use xlink:href="#d1" x="5.975000" y="0.6500000" />
<use xlink:href="#d1" x="5.975000" y="3.6500000" />
<use xlink:href="#d1" x="5.975000" y="5.1500000" />
<use xlink:href="#d1" x="5.975000" y="2.1500000" />
<use xlink:href="#d1" x="5.975000" y="2.6500000" />
<use xlink:href="#d1" x="5.975000" y="3.1500000" />
<use xlink:href="#d1" x="5.975000" y="5.6500000" />
<use xlink:href="#d7" x="11.755000" y="1.0575000" />
<use xlink:href="#d7" x="11.105000" y="1.0575000" />
<use xlink:href="#d7" x="10.455000" y="1.0575000" />
<use xlink:href="#d7" x="9.805000" y="1.0575000" />
<use xlink:href="#d7" x="9.805000" y="5.2825000" />
<use xlink:href="#d7" x="10.455000" y="5.2825000" />
<use xlink:href="#d7" x="11.105000" y="5.2825000" />
<use xlink:href="#d7" x="11.755000" y="5.2825000" />
<use xlink:href="#d13" x="15.867500" y="5.4000000" />
<use xlink:href="#d13" x="14.042500" y="5.4000000" />
<use xlink:href="#d19" x="0.475000" y="9.4000000" />
<use xlink:href="#d19" x="0.475000" y="11.0500000" />
<use xlink:href="#d20" x="15.655000" y="3.1700000" />
<use xlink:href="#d20" x="15.655000" y="2.3700000" />
<use xlink:href="#d20" x="13.955000" y="2.3700000" />
<use xlink:href="#d20" x="13.955000" y="3.1700000" />
<use xlink:href="#d19" x="2.455000" y="9.3250000" />
<use xlink:href="#d19" x="2.455000" y="10.9750000" />
<use xlink:href="#d26" x="7.792500" y="12.1500000" />
<use xlink:href="#d26" x="9.617500" y="12.1500000" />
</g>
</svg>