<?xml version="1.0" encoding="UTF-8"?>
<svg xmlns="http://www.w3.org/2000/svg" xmlns:xlink="http://www.w3.org/1999/xlink"
     width="36.070000" height="46.150000" viewBox="0 0 36.070000 46.150000">
<defs>
<mask id="d0">
<rect x="-18.035000" y="-23.075000" width="72.140000" height="92.300000" fill="white" />
</mask>
<g id="d1">
<circle cx="0" cy="0" r="0.07500" fill="#133d91ff" />
</g>
<g id="d2">
<circle cx="0" cy="0" r="0.06000" fill="#133d91ff" />
</g>
</defs>
<g mask="url(#d0)">
<g></g>
<use xlink:href="#d1" x="7.866666" y="18.925000" />
<path d="M7.79166600,18.92500000 L7.94166600,18.92500000 L7.94166600,19.63928500 L7.79166600,19.63928500 Z" fill="#133d91ff" />
<use xlink:href="#d1" x="7.866666" y="19.639285" />
<use xlink:href="#d1" x="7.866666" y="19.639285" />
<path d="M7.79551475,19.61556792 L7.93781725,19.66300208 L7.89019825,19.80585908 L7.74789575,19.75842492 Z" fill="#133d91ff" />
<use xlink:href="#d1" x="7.819047" y="19.782142" />
<use xlink:href="#d1" x="7.819047" y="19.782142" />
<path d="M7.76601371,19.72910927 L7.87208029,19.83517473 L7.77684229,19.93041373 L7.67077571,19.82434827 Z" fill="#133d91ff" />
<use xlink:href="#d1" x="7.723809" y="19.877381" />
<use xlink:href="#d1" x="7.723809" y="19.877381" />
<path d="M7.70009192,19.80622975 L7.74752608,19.94853225 L7.60466908,19.99615125 L7.55723492,19.85384875 Z" fill="#133d91ff" />
<use xlink:href="#d1" x="7.580952" y="19.925000" />
<use xlink:href="#d1" x="7.580952" y="19.925000" />
<path d="M7.58095200,19.85000000 L7.58095200,20.00000000 L7.48571400,20.00000000 L7.48571400,19.85000000 Z" fill="#133d91ff" />
<use xlink:href="#d1" x="7.485714" y="19.925000" />
<use xlink:href="#d1" x="8.295238" y="19.020238" />
<path d="M8.34827101,19.07327101 L8.24220499,18.96720499 L8.28982399,18.91958599 L8.39589001,19.02565201 Z" fill="#133d91ff" />
<use xlink:href="#d1" x="8.342857" y="18.972619" />
<use xlink:href="#d1" x="8.342857" y="18.972619" />
<path d="M8.37639802,19.03970104 L8.30931598,18.90553696 L8.40455398,18.85791796 L8.47163602,18.99208204 Z" fill="#133d91ff" />
<use xlink:href="#d1" x="8.438095" y="18.925000" />
<use xlink:href="#d1" x="8.438095" y="18.925000" />
<path d="M8.43809500,19.00000000 L8.43809500,18.85000000 L8.67619000,18.85000000 L8.67619000,19.00000000 Z" fill="#133d91ff" />
<use xlink:href="#d1" x="8.676190" y="18.925000" />
<use xlink:href="#d1" x="8.676190" y="18.925000" />
<path d="M8.64264898,18.99208204 L8.70973102,18.85791796 L8.80496902,18.90553696 L8.73788698,19.03970104 Z" fill="#133d91ff" />
<use xlink:href="#d1" x="8.771428" y="18.972619" />
<use xlink:href="#d1" x="8.771428" y="18.972619" />
<path d="M8.71839499,19.02565201 L8.82446101,18.91958599 L8.87208001,18.96720499 L8.76601399,19.07327101 Z" fill="#133d91ff" />
<use xlink:href="#d1" x="8.819047" y="19.020238" />
<use xlink:href="#d1" x="8.819047" y="19.020238" />
<path d="M8.75196496,19.05377902 L8.88612904,18.98669698 L8.93374804,19.08193498 L8.79958396,19.14901702 Z" fill="#133d91ff" />
<use xlink:href="#d1" x="8.866666" y="19.115476" />
<use xlink:href="#d1" x="8.866666" y="19.115476" />
<path d="M8.79166600,19.11547600 L8.94166600,19.11547600 L8.94166600,19.21071400 L8.79166600,19.21071400 Z" fill="#133d91ff" />
<use xlink:href="#d1" x="8.866666" y="19.210714" />
<use xlink:href="#d1" x="8.866666" y="19.210714" />
<path d="M8.79551475,19.18699692 L8.93781725,19.23443108 L8.89019825,19.37728808 L8.74789575,19.32985392 Z" fill="#133d91ff" />
<use xlink:href="#d1" x="8.819047" y="19.353571" />
<use xlink:href="#d1" x="8.819047" y="19.353571" />
<path d="M8.76601395,19.30053804 L8.87208005,19.40660396 L8.30065205,19.97803296 L8.19458595,19.87196704 Z" fill="#133d91ff" />
<use xlink:href="#d1" x="8.247619" y="19.925000" />
<use xlink:href="#d1" x="8.247619" y="19.925000" />
<path d="M8.24761900,20.00000000 L8.24761900,19.85000000 L8.86666600,19.85000000 L8.86666600,20.00000000 Z" fill="#133d91ff" />
<use xlink:href="#d1" x="8.866666" y="19.925000" />
<use xlink:href="#d1" x="2.438095" y="46.075000" />
<path d="M2.51309500,46.07500000 L2.36309500,46.07500000 L2.36309500,45.07500000 L2.51309500,45.07500000 Z" fill="#133d91ff" />
<use xlink:href="#d1" x="2.438095" y="45.075000" />
<use xlink:href="#d1" x="2.438095" y="45.551190" />
<path d="M2.43809500,45.62619000 L2.43809500,45.47619000 L3.00952300,45.47619000 L3.00952300,45.62619000 Z" fill="#133d91ff" />
<use xlink:href="#d1" x="3.009523" y="45.551190" />
<use xlink:href="#d1" x="3.009523" y="46.075000" />
<path d="M3.08452300,46.07500000 L2.93452300,46.07500000 L2.93452300,45.07500000 L3.08452300,45.07500000 Z" fill="#133d91ff" />
<use xlink:href="#d1" x="3.009523" y="45.075000" />
<use xlink:href="#d1" x="3.390476" y="45.075000" />
<path d="M3.39047600,45.15000000 L3.39047600,45.00000000 L4.00952300,45.00000000 L4.00952300,45.15000000 Z" fill="#133d91ff" />
<use xlink:href="#d1" x="4.009523" y="45.075000" />
<use xlink:href="#d1" x="4.009523" y="45.075000" />
<path d="M3.95307975,45.02561215 L4.06596625,45.12438785 L3.73263325,45.50533985 L3.61974675,45.40656415 Z" fill="#133d91ff" />
<use xlink:href="#d1" x="3.676190" y="45.455952" />
<use xlink:href="#d1" x="3.676190" y="45.455952" />
<path d="M3.67619000,45.53095200 L3.67619000,45.38095200 L3.81904700,45.38095200 L3.81904700,45.53095200 Z" fill="#133d91ff" />
<use xlink:href="#d1" x="3.819047" y="45.455952" />
<use xlink:href="#d1" x="3.819047" y="45.455952" />
<path d="M3.78550598,45.52303404 L3.85258802,45.38886996 L3.94782602,45.43648896 L3.88074398,45.57065304 Z" fill="#133d91ff" />
<use xlink:href="#d1" x="3.914285" y="45.503571" />
<use xlink:href="#d1" x="3.914285" y="45.503571" />
<path d="M3.86125199,45.55660401 L3.96731801,45.45053799 L4.01493701,45.49815699 L3.90887099,45.60422301 Z" fill="#133d91ff" />
<use xlink:href="#d1" x="3.961904" y="45.551190" />
<use xlink:href="#d1" x="3.961904" y="45.551190" />
<path d="M3.89482196,45.58473102 L4.02898604,45.51764898 L4.07660504,45.61288698 L3.94244096,45.67996902 Z" fill="#133d91ff" />
<use xlink:href="#d1" x="4.009523" y="45.646428" />
<use xlink:href="#d1" x="4.009523" y="45.646428" />
<path d="M3.93452300,45.64642800 L4.08452300,45.64642800 L4.08452300,45.88452300 L3.93452300,45.88452300 Z" fill="#133d91ff" />
<use xlink:href="#d1" x="4.009523" y="45.884523" />
<use xlink:href="#d1" x="4.009523" y="45.884523" />
<path d="M3.94244096,45.85098198 L4.07660504,45.91806402 L4.02898604,46.01330202 L3.89482196,45.94621998 Z" fill="#133d91ff" />
<use xlink:href="#d1" x="3.961904" y="45.979761" />
<use xlink:href="#d1" x="3.961904" y="45.979761" />
<path d="M3.90887043,45.92672855 L4.01493757,46.03279345 L3.96731857,46.08041345 L3.86125143,45.97434855 Z" fill="#133d91ff" />
<use xlink:href="#d1" x="3.914285" y="46.027381" />
<use xlink:href="#d1" x="3.914285" y="46.027381" />
<path d="M3.88074398,45.96029896 L3.94782602,46.09446304 L3.85258802,46.14208204 L3.78550598,46.00791796 Z" fill="#133d91ff" />
<use xlink:href="#d1" x="3.819047" y="46.075000" />
<use xlink:href="#d1" x="3.819047" y="46.075000" />
<path d="M3.81904700,46.00000000 L3.81904700,46.15000000 L3.53333300,46.15000000 L3.53333300,46.00000000 Z" fill="#133d91ff" />
<use xlink:href="#d1" x="3.533333" y="46.075000" />
<use xlink:href="#d1" x="3.533333" y="46.075000" />
<path d="M3.56687402,46.00791796 L3.49979198,46.14208204 L3.40455398,46.09446304 L3.47163602,45.96029896 Z" fill="#133d91ff" />
<use xlink:href="#d1" x="3.438095" y="46.027381" />
<use xlink:href="#d1" x="3.438095" y="46.027381" />
<path d="M3.49112857,45.97434855 L3.38506143,46.08041345 L3.33744243,46.03279345 L3.44350957,45.92672855 Z" fill="#133d91ff" />
<use xlink:href="#d1" x="3.390476" y="45.979761" />
<use xlink:href="#d1" x="32.438095" y="1.075000" />
<path d="M32.51309500,1.07500000 L32.36309500,1.07500000 L32.36309500,0.07500000 L32.51309500,0.07500000 Z" fill="#133d91ff" />
<use xlink:href="#d1" x="32.438095" y="0.075000" />
<use xlink:href="#d1" x="32.438095" y="0.551190" />
<path d="M32.43809500,0.62619000 L32.43809500,0.47619000 L33.00952300,0.47619000 L33.00952300,0.62619000 Z" fill="#133d91ff" />
<use xlink:href="#d1" x="33.009523" y="0.551190" />
<use xlink:href="#d1" x="33.009523" y="1.075000" />
<path d="M33.08452300,1.07500000 L32.93452300,1.07500000 L32.93452300,0.07500000 L33.08452300,0.07500000 Z" fill="#133d91ff" />
<use xlink:href="#d1" x="33.009523" y="0.075000" />
<use xlink:href="#d1" x="33.438095" y="0.170238" />
<path d="M33.49112801,0.22327101 L33.38506199,0.11720499 L33.43268099,0.06958599 L33.53874701,0.17565201 Z" fill="#133d91ff" />
<use xlink:href="#d1" x="33.485714" y="0.122619" />
<use xlink:href="#d1" x="33.485714" y="0.122619" />
<path d="M33.51925502,0.18970104 L33.45217298,0.05553696 L33.54741098,0.00791796 L33.61449302,0.14208204 Z" fill="#133d91ff" />
<use xlink:href="#d1" x="33.580952" y="0.075000" />
<use xlink:href="#d1" x="33.580952" y="0.075000" />
<path d="M33.58095200,0.15000000 L33.58095200,0.00000000 L33.81904700,0.00000000 L33.81904700,0.15000000 Z" fill="#133d91ff" />
<use xlink:href="#d1" x="33.819047" y="0.075000" />
<use xlink:href="#d1" x="33.819047" y="0.075000" />
<path d="M33.78550598,0.14208204 L33.85258802,0.00791796 L33.94782602,0.05553696 L33.88074398,0.18970104 Z" fill="#133d91ff" />
<use xlink:href="#d1" x="33.914285" y="0.122619" />
<use xlink:href="#d1" x="33.914285" y="0.122619" />
<path d="M33.86125199,0.17565201 L33.96731801,0.06958599 L34.01493701,0.11720499 L33.90887099,0.22327101 Z" fill="#133d91ff" />
<use xlink:href="#d1" x="33.961904" y="0.170238" />
<use xlink:href="#d1" x="33.961904" y="0.170238" />
<path d="M33.89482196,0.20377902 L34.02898604,0.13669698 L34.07660504,0.23193498 L33.94244096,0.29901702 Z" fill="#133d91ff" />
<use xlink:href="#d1" x="34.009523" y="0.265476" />
<use xlink:href="#d1" x="34.009523" y="0.265476" />
<path d="M33.93452300,0.26547600 L34.08452300,0.26547600 L34.08452300,0.36071400 L33.93452300,0.36071400 Z" fill="#133d91ff" />
<use xlink:href="#d1" x="34.009523" y="0.360714" />
<use xlink:href="#d1" x="34.009523" y="0.360714" />
<path d="M33.93837175,0.33699692 L34.08067425,0.38443108 L34.03305525,0.52728808 L33.89075275,0.47985392 Z" fill="#133d91ff" />
<use xlink:href="#d1" x="33.961904" y="0.503571" />
<use xlink:href="#d1" x="33.961904" y="0.503571" />
<path d="M33.90887095,0.45053804 L34.01493705,0.55660396 L33.44350905,1.12803296 L33.33744295,1.02196704 Z" fill="#133d91ff" />
<use xlink:href="#d1" x="33.390476" y="1.075000" />
<use xlink:href="#d1" x="33.390476" y="1.075000" />
<path d="M33.39047600,1.15000000 L33.39047600,1.00000000 L34.00952300,1.00000000 L34.00952300,1.15000000 Z" fill="#133d91ff" />
<use xlink:href="#d1" x="34.009523" y="1.075000" />
<use xlink:href="#d1" x="10.938095" y="22.925000" />
<path d="M10.86309500,22.92500000 L11.01309500,22.92500000 L11.01309500,23.73452300 L10.86309500,23.73452300 Z" fill="#133d91ff" />
<use xlink:href="#d1" x="10.938095" y="23.734523" />
<use xlink:href="#d1" x="10.938095" y="23.734523" />
<path d="M10.87101296,23.76806402 L11.00517704,23.70098198 L11.05279604,23.79621998 L10.91863196,23.86330202 Z" fill="#133d91ff" />
<use xlink:href="#d1" x="10.985714" y="23.829761" />
<use xlink:href="#d1" x="10.985714" y="23.829761" />
<path d="M10.93268043,23.88279345 L11.03874757,23.77672855 L11.08636657,23.82434855 L10.98029943,23.93041345 Z" fill="#133d91ff" />
<use xlink:href="#d1" x="11.033333" y="23.877381" />
<use xlink:href="#d1" x="11.033333" y="23.877381" />
<path d="M10.99979198,23.94446304 L11.06687402,23.81029896 L11.16211202,23.85791796 L11.09502998,23.99208204 Z" fill="#133d91ff" />
<use xlink:href="#d1" x="11.128571" y="23.925000" />
<use xlink:href="#d1" x="11.128571" y="23.925000" />
<path d="M11.12857100,24.00000000 L11.12857100,23.85000000 L11.31904700,23.85000000 L11.31904700,24.00000000 Z" fill="#133d91ff" />
<use xlink:href="#d1" x="11.319047" y="23.925000" />
<use xlink:href="#d1" x="11.319047" y="23.925000" />
<path d="M11.35258802,23.99208204 L11.28550598,23.85791796 L11.38074398,23.81029896 L11.44782602,23.94446304 Z" fill="#133d91ff" />
<use xlink:href="#d1" x="11.414285" y="23.877381" />
<use xlink:href="#d1" x="11.414285" y="23.877381" />
<path d="M11.46731857,23.93041345 L11.36125143,23.82434855 L11.40887043,23.77672855 L11.51493757,23.88279345 Z" fill="#133d91ff" />
<use xlink:href="#d1" x="11.461904" y="23.829761" />
<use xlink:href="#d1" x="11.461904" y="23.829761" />
<path d="M11.52898604,23.86330202 L11.39482196,23.79621998 L11.44244096,23.70098198 L11.57660504,23.76806402 Z" fill="#133d91ff" />
<use xlink:href="#d1" x="11.509523" y="23.734523" />
<use xlink:href="#d1" x="11.509523" y="23.734523" />
<path d="M11.58452300,23.73452300 L11.43452300,23.73452300 L11.43452300,22.92500000 L11.58452300,22.92500000 Z" fill="#133d91ff" />
<use xlink:href="#d1" x="11.509523" y="22.925000" />
<use xlink:href="#d1" x="12.509523" y="23.925000" />
<path d="M12.50952300,23.85000000 L12.50952300,24.00000000 L11.93809500,24.00000000 L11.93809500,23.85000000 Z" fill="#133d91ff" />
<use xlink:href="#d1" x="11.938095" y="23.925000" />
<use xlink:href="#d1" x="12.223809" y="23.925000" />
<path d="M12.29880900,23.92500000 L12.14880900,23.92500000 L12.14880900,22.92500000 L12.29880900,22.92500000 Z" fill="#133d91ff" />
<use xlink:href="#d1" x="12.223809" y="22.925000" />
<use xlink:href="#d1" x="12.223809" y="22.925000" />
<path d="M12.16140523,22.88339749 L12.28621277,22.96660251 L12.19097477,23.10945951 L12.06616723,23.02625449 Z" fill="#133d91ff" />
<use xlink:href="#d1" x="12.128571" y="23.067857" />
<use xlink:href="#d1" x="12.128571" y="23.067857" />
<path d="M12.07553799,23.01482399 L12.18160401,23.12089001 L12.08636601,23.21612801 L11.98029999,23.11006199 Z" fill="#133d91ff" />
<use xlink:href="#d1" x="12.033333" y="23.163095" />
<use xlink:href="#d1" x="12.033333" y="23.163095" />
<path d="M11.99979198,23.09601296 L12.06687402,23.23017704 L11.97163602,23.27779604 L11.90455398,23.14363196 Z" fill="#133d91ff" />
<use xlink:href="#d1" x="11.938095" y="23.210714" />
<use xlink:href="#d1" x="15.533333" y="32.425000" />
<path d="M15.53333300,32.35000000 L15.53333300,32.50000000 L15.05714300,32.50000000 L15.05714300,32.35000000 Z" fill="#133d91ff" />
<use xlink:href="#d1" x="15.057143" y="32.425000" />
<use xlink:href="#d1" x="15.057143" y="32.425000" />
<path d="M15.13214300,32.42500000 L14.98214300,32.42500000 L14.98214300,31.42500000 L15.13214300,31.42500000 Z" fill="#133d91ff" />
<use xlink:href="#d1" x="15.057143" y="31.425000" />
<use xlink:href="#d1" x="16.390476" y="32.425000" />
<path d="M16.39047600,32.35000000 L16.39047600,32.50000000 L15.81904800,32.50000000 L15.81904800,32.35000000 Z" fill="#133d91ff" />
<use xlink:href="#d1" x="15.819048" y="32.425000" />
<use xlink:href="#d1" x="16.104762" y="32.425000" />
<path d="M16.17976200,32.42500000 L16.02976200,32.42500000 L16.02976200,31.42500000 L16.17976200,31.42500000 Z" fill="#133d91ff" />
<use xlink:href="#d1" x="16.104762" y="31.425000" />
<use xlink:href="#d1" x="16.104762" y="31.425000" />
<path d="M16.04235823,31.38339749 L16.16716577,31.46660251 L16.07192777,31.60945951 L15.94712023,31.52625449 Z" fill="#133d91ff" />
<use xlink:href="#d1" x="16.009524" y="31.567857" />
<use xlink:href="#d1" x="16.009524" y="31.567857" />
<path d="M15.95649099,31.51482399 L16.06255701,31.62089001 L15.96731901,31.71612801 L15.86125299,31.61006199 Z" fill="#133d91ff" />
<use xlink:href="#d1" x="15.914286" y="31.663095" />
<use xlink:href="#d1" x="15.914286" y="31.663095" />
<path d="M15.88074498,31.59601296 L15.94782702,31.73017704 L15.85258902,31.77779604 L15.78550698,31.64363196 Z" fill="#133d91ff" />
<use xlink:href="#d1" x="15.819048" y="31.710714" />
<use xlink:href="#d1" x="2.438095" y="1.075000" />
<path d="M2.51309500,1.07500000 L2.36309500,1.07500000 L2.36309500,0.07500000 L2.51309500,0.07500000 Z" fill="#133d91ff" />
<use xlink:href="#d1" x="2.438095" y="0.075000" />
<use xlink:href="#d1" x="2.438095" y="0.551190" />
<path d="M2.43809500,0.62619000 L2.43809500,0.47619000 L3.00952300,0.47619000 L3.00952300,0.62619000 Z" fill="#133d91ff" />
<use xlink:href="#d1" x="3.009523" y="0.551190" />
<use xlink:href="#d1" x="3.009523" y="1.075000" />
<path d="M3.08452300,1.07500000 L2.93452300,1.07500000 L2.93452300,0.07500000 L3.08452300,0.07500000 Z" fill="#133d91ff" />
<use xlink:href="#d1" x="3.009523" y="0.075000" />
<use xlink:href="#d1" x="4.009523" y="1.075000" />
<path d="M4.00952300,1.00000000 L4.00952300,1.15000000 L3.43809500,1.15000000 L3.43809500,1.00000000 Z" fill="#133d91ff" />
<use xlink:href="#d1" x="3.438095" y="1.075000" />
<use xlink:href="#d1" x="3.723809" y="1.075000" />
<path d="M3.79880900,1.07500000 L3.64880900,1.07500000 L3.64880900,0.07500000 L3.79880900,0.07500000 Z" fill="#133d91ff" />
<use xlink:href="#d1" x="3.723809" y="0.075000" />
<use xlink:href="#d1" x="3.723809" y="0.075000" />
<path d="M3.66140523,0.03339749 L3.78621277,0.11660251 L3.69097477,0.25945951 L3.56616723,0.17625449 Z" fill="#133d91ff" />
<use xlink:href="#d1" x="3.628571" y="0.217857" />
<use xlink:href="#d1" x="3.628571" y="0.217857" />
<path d="M3.57553799,0.16482399 L3.68160401,0.27089001 L3.58636601,0.36612801 L3.48029999,0.26006199 Z" fill="#133d91ff" />
<use xlink:href="#d1" x="3.533333" y="0.313095" />
<use xlink:href="#d1" x="3.533333" y="0.313095" />
<path d="M3.49979198,0.24601296 L3.56687402,0.38017704 L3.47163602,0.42779604 L3.40455398,0.29363196 Z" fill="#133d91ff" />
<use xlink:href="#d1" x="3.438095" y="0.360714" />
<use xlink:href="#d1" x="2.154819" y="37.636847" />
<path d="M2.11180938,37.57540456 L2.19782862,37.69828944 L1.72163762,38.03162244 L1.63561838,37.90873756 Z" fill="#133d91ff" />
<use xlink:href="#d1" x="1.678628" y="37.970180" />
<use xlink:href="#d1" x="2.154819" y="38.208275" />
<path d="M2.15481900,38.13327500 L2.15481900,38.28327500 L1.15481900,38.28327500 L1.15481900,38.13327500 Z" fill="#133d91ff" />
<use xlink:href="#d1" x="1.154819" y="38.208275" />
<use xlink:href="#d1" x="1.154819" y="38.208275" />
<path d="M1.22981900,38.20827500 L1.07981900,38.20827500 L1.07981900,37.82732300 L1.22981900,37.82732300 Z" fill="#133d91ff" />
<use xlink:href="#d1" x="1.154819" y="37.827323" />
<use xlink:href="#d1" x="1.154819" y="37.827323" />
<path d="M1.22190104,37.86086402 L1.08773696,37.79378198 L1.13535596,37.69854398 L1.26952004,37.76562602 Z" fill="#133d91ff" />
<use xlink:href="#d1" x="1.202438" y="37.732085" />
<use xlink:href="#d1" x="1.202438" y="37.732085" />
<path d="M1.25547101,37.78511801 L1.14940499,37.67905199 L1.19702399,37.63143299 L1.30309001,37.73749901 Z" fill="#133d91ff" />
<use xlink:href="#d1" x="1.250057" y="37.684466" />
<use xlink:href="#d1" x="1.250057" y="37.684466" />
<path d="M1.28359802,37.75154804 L1.21651598,37.61738396 L1.31175398,37.56976496 L1.37883602,37.70392904 Z" fill="#133d91ff" />
<use xlink:href="#d1" x="1.345295" y="37.636847" />
<use xlink:href="#d1" x="1.345295" y="37.636847" />
<path d="M1.34529500,37.71184700 L1.34529500,37.56184700 L1.48815200,37.56184700 L1.48815200,37.71184700 Z" fill="#133d91ff" />
<use xlink:href="#d1" x="1.488152" y="37.636847" />
<use xlink:href="#d1" x="1.488152" y="37.636847" />
<path d="M1.45461098,37.70392904 L1.52169302,37.56976496 L1.61693102,37.61738396 L1.54984898,37.75154804 Z" fill="#133d91ff" />
<use xlink:href="#d1" x="1.583390" y="37.684466" />
<use xlink:href="#d1" x="1.583390" y="37.684466" />
<path d="M1.53035699,37.73749901 L1.63642301,37.63143299 L1.68404201,37.67905199 L1.57797599,37.78511801 Z" fill="#133d91ff" />
<use xlink:href="#d1" x="1.631009" y="37.732085" />
<use xlink:href="#d1" x="1.631009" y="37.732085" />
<path d="M1.56392696,37.76562602 L1.69809104,37.69854398 L1.74571004,37.79378198 L1.61154596,37.86086402 Z" fill="#133d91ff" />
<use xlink:href="#d1" x="1.678628" y="37.827323" />
<use xlink:href="#d1" x="1.678628" y="37.827323" />
<path d="M1.60362800,37.82732300 L1.75362800,37.82732300 L1.75362800,38.20827500 L1.60362800,38.20827500 Z" fill="#133d91ff" />
<use xlink:href="#d1" x="1.678628" y="38.208275" />
<use xlink:href="#d1" x="2.154819" y="36.684466" />
<path d="M2.07981900,36.68446600 L2.22981900,36.68446600 L2.22981900,37.25589400 L2.07981900,37.25589400 Z" fill="#133d91ff" />
<use xlink:href="#d1" x="2.154819" y="37.255894" />
<use xlink:href="#d1" x="2.154819" y="36.970180" />
<path d="M2.15481900,36.89518000 L2.15481900,37.04518000 L1.15481900,37.04518000 L1.15481900,36.89518000 Z" fill="#133d91ff" />
<use xlink:href="#d1" x="1.154819" y="36.970180" />
<use xlink:href="#d1" x="1.154819" y="36.970180" />
<path d="M1.11321649,37.03258377 L1.19642151,36.90777623 L1.33927851,37.00301423 L1.25607349,37.12782177 Z" fill="#133d91ff" />
<use xlink:href="#d1" x="1.297676" y="37.065418" />
<use xlink:href="#d1" x="1.297676" y="37.065418" />
<path d="M1.24464299,37.11845101 L1.35070901,37.01238499 L1.44594701,37.10762299 L1.33988099,37.21368901 Z" fill="#133d91ff" />
<use xlink:href="#d1" x="1.392914" y="37.160656" />
<use xlink:href="#d1" x="1.392914" y="37.160656" />
<path d="M1.32583196,37.19419702 L1.45999604,37.12711498 L1.50761504,37.22235298 L1.37345096,37.28943502 Z" fill="#133d91ff" />
<use xlink:href="#d1" x="1.440533" y="37.255894" />
<use xlink:href="#d1" x="15.061904" y="24.901190" />
<path d="M15.06190400,24.82619000 L15.06190400,24.97619000 L14.72857100,24.97619000 L14.72857100,24.82619000 Z" fill="#133d91ff" />
<use xlink:href="#d1" x="14.728571" y="24.901190" />
<use xlink:href="#d1" x="14.728571" y="25.425000" />
<path d="M14.80357100,25.42500000 L14.65357100,25.42500000 L14.65357100,24.42500000 L14.80357100,24.42500000 Z" fill="#133d91ff" />
<use xlink:href="#d1" x="14.728571" y="24.425000" />
<use xlink:href="#d1" x="14.728571" y="24.425000" />
<path d="M14.72857100,24.50000000 L14.72857100,24.35000000 L15.20476100,24.35000000 L15.20476100,24.50000000 Z" fill="#133d91ff" />
<use xlink:href="#d1" x="15.204761" y="24.425000" />
<use xlink:href="#d1" x="16.061904" y="25.425000" />
<path d="M16.06190400,25.35000000 L16.06190400,25.50000000 L15.58571400,25.50000000 L15.58571400,25.35000000 Z" fill="#133d91ff" />
<use xlink:href="#d1" x="15.585714" y="25.425000" />
<use xlink:href="#d1" x="15.585714" y="25.425000" />
<path d="M15.66071400,25.42500000 L15.51071400,25.42500000 L15.51071400,24.42500000 L15.66071400,24.42500000 Z" fill="#133d91ff" />
<use xlink:href="#d1" x="15.585714" y="24.425000" />
<use xlink:href="#d1" x="16.919047" y="25.425000" />
<path d="M16.91904700,25.35000000 L16.91904700,25.50000000 L16.34761900,25.50000000 L16.34761900,25.35000000 Z" fill="#133d91ff" />
<use xlink:href="#d1" x="16.347619" y="25.425000" />
<use xlink:href="#d1" x="16.633333" y="25.425000" />
<path d="M16.70833300,25.42500000 L16.55833300,25.42500000 L16.55833300,24.42500000 L16.70833300,24.42500000 Z" fill="#133d91ff" />
<use xlink:href="#d1" x="16.633333" y="24.425000" />
<use xlink:href="#d1" x="16.633333" y="24.425000" />
<path d="M16.57092923,24.38339749 L16.69573677,24.46660251 L16.60049877,24.60945951 L16.47569123,24.52625449 Z" fill="#133d91ff" />
<use xlink:href="#d1" x="16.538095" y="24.567857" />
<use xlink:href="#d1" x="16.538095" y="24.567857" />
<path d="M16.48506199,24.51482399 L16.59112801,24.62089001 L16.49589001,24.71612801 L16.38982399,24.61006199 Z" fill="#133d91ff" />
<use xlink:href="#d1" x="16.442857" y="24.663095" />
<use xlink:href="#d1" x="16.442857" y="24.663095" />
<path d="M16.40931598,24.59601296 L16.47639802,24.73017704 L16.38116002,24.77779604 L16.31407798,24.64363196 Z" fill="#133d91ff" />
<use xlink:href="#d1" x="16.347619" y="24.710714" />
<use xlink:href="#d1" x="32.438095" y="46.075000" />
<path d="M32.51309500,46.07500000 L32.36309500,46.07500000 L32.36309500,45.07500000 L32.51309500,45.07500000 Z" fill="#133d91ff" />
<use xlink:href="#d1" x="32.438095" y="45.075000" />
<use xlink:href="#d1" x="32.438095" y="45.551190" />
<path d="M32.43809500,45.62619000 L32.43809500,45.47619000 L33.00952300,45.47619000 L33.00952300,45.62619000 Z" fill="#133d91ff" />
<use xlink:href="#d1" x="33.009523" y="45.551190" />
<use xlink:href="#d1" x="33.009523" y="46.075000" />
<path d="M33.08452300,46.07500000 L32.93452300,46.07500000 L32.93452300,45.07500000 L33.08452300,45.07500000 Z" fill="#133d91ff" />
<use xlink:href="#d1" x="33.009523" y="45.075000" />
<use xlink:href="#d1" x="33.914285" y="45.408333" />
<path d="M33.83928500,45.40833300 L33.98928500,45.40833300 L33.98928500,46.07500000 L33.83928500,46.07500000 Z" fill="#133d91ff" />
<use xlink:href="#d1" x="33.914285" y="46.075000" />
<use xlink:href="#d1" x="33.676190" y="45.027381" />
<path d="M33.60503875,45.00366392 L33.74734125,45.05109808 L33.50924625,45.76538308 L33.36694375,45.71794892 Z" fill="#133d91ff" />
<use xlink:href="#d1" x="33.438095" y="45.741666" />
<use xlink:href="#d1" x="33.438095" y="45.741666" />
<path d="M33.43809500,45.81666600 L33.43809500,45.66666600 L34.05714200,45.66666600 L34.05714200,45.81666600 Z" fill="#133d91ff" />
<use xlink:href="#d1" x="34.057142" y="45.741666" />
<use xlink:href="#d1" x="33.616666" y="19.385000" />
<path d="M33.54166600,19.38500000 L33.69166600,19.38500000 L33.69166600,20.09928500 L33.54166600,20.09928500 Z" fill="#133d91ff" />
<use xlink:href="#d1" x="33.616666" y="20.099285" />
<use xlink:href="#d1" x="33.616666" y="20.099285" />
<path d="M33.54551475,20.07556792 L33.68781725,20.12300208 L33.64019825,20.26585908 L33.49789575,20.21842492 Z" fill="#133d91ff" />
<use xlink:href="#d1" x="33.569047" y="20.242142" />
<use xlink:href="#d1" x="33.569047" y="20.242142" />
<path d="M33.51601371,20.18910927 L33.62208029,20.29517473 L33.52684229,20.39041373 L33.42077571,20.28434827 Z" fill="#133d91ff" />
<use xlink:href="#d1" x="33.473809" y="20.337381" />
<use xlink:href="#d1" x="33.473809" y="20.337381" />
<path d="M33.45009192,20.26622975 L33.49752608,20.40853225 L33.35466908,20.45615125 L33.30723492,20.31384875 Z" fill="#133d91ff" />
<use xlink:href="#d1" x="33.330952" y="20.385000" />
<use xlink:href="#d1" x="33.330952" y="20.385000" />
<path d="M33.33095200,20.31000000 L33.33095200,20.46000000 L33.23571400,20.46000000 L33.23571400,20.31000000 Z" fill="#133d91ff" />
<use xlink:href="#d1" x="33.235714" y="20.385000" />
<use xlink:href="#d1" x="34.616666" y="20.385000" />
<path d="M34.61666600,20.31000000 L34.61666600,20.46000000 L34.04523800,20.46000000 L34.04523800,20.31000000 Z" fill="#133d91ff" />
<use xlink:href="#d1" x="34.045238" y="20.385000" />
<use xlink:href="#d1" x="34.330952" y="20.385000" />
<path d="M34.40595200,20.38500000 L34.25595200,20.38500000 L34.25595200,19.38500000 L34.40595200,19.38500000 Z" fill="#133d91ff" />
<use xlink:href="#d1" x="34.330952" y="19.385000" />
<use xlink:href="#d1" x="34.330952" y="19.385000" />
<path d="M34.26854823,19.34339749 L34.39335577,19.42660251 L34.29811777,19.56945951 L34.17331023,19.48625449 Z" fill="#133d91ff" />
<use xlink:href="#d1" x="34.235714" y="19.527857" />
<use xlink:href="#d1" x="34.235714" y="19.527857" />
<path d="M34.18268099,19.47482399 L34.28874701,19.58089001 L34.19350901,19.67612801 L34.08744299,19.57006199 Z" fill="#133d91ff" />
<use xlink:href="#d1" x="34.140476" y="19.623095" />
<use xlink:href="#d1" x="34.140476" y="19.623095" />
<path d="M34.10693498,19.55601296 L34.17401702,19.69017704 L34.07877902,19.73779604 L34.01169698,19.60363196 Z" fill="#133d91ff" />
<use xlink:href="#d1" x="34.045238" y="19.670714" />
<use xlink:href="#d1" x="4.154819" y="37.636847" />
<path d="M4.11180938,37.57540456 L4.19782862,37.69828944 L3.72163762,38.03162244 L3.63561838,37.90873756 Z" fill="#133d91ff" />
<use xlink:href="#d1" x="3.678628" y="37.970180" />
<use xlink:href="#d1" x="4.154819" y="38.208275" />
<path d="M4.15481900,38.13327500 L4.15481900,38.28327500 L3.15481900,38.28327500 L3.15481900,38.13327500 Z" fill="#133d91ff" />
<use xlink:href="#d1" x="3.154819" y="38.208275" />
<use xlink:href="#d1" x="3.154819" y="38.208275" />
<path d="M3.22981900,38.20827500 L3.07981900,38.20827500 L3.07981900,37.82732300 L3.22981900,37.82732300 Z" fill="#133d91ff" />
<use xlink:href="#d1" x="3.154819" y="37.827323" />
<use xlink:href="#d1" x="3.154819" y="37.827323" />
<path d="M3.22190104,37.86086402 L3.08773696,37.79378198 L3.13535596,37.69854398 L3.26952004,37.76562602 Z" fill="#133d91ff" />
<use xlink:href="#d1" x="3.202438" y="37.732085" />
<use xlink:href="#d1" x="3.202438" y="37.732085" />
<path d="M3.25547101,37.78511801 L3.14940499,37.67905199 L3.19702399,37.63143299 L3.30309001,37.73749901 Z" fill="#133d91ff" />
<use xlink:href="#d1" x="3.250057" y="37.684466" />
<use xlink:href="#d1" x="3.250057" y="37.684466" />
<path d="M3.28359802,37.75154804 L3.21651598,37.61738396 L3.31175398,37.56976496 L3.37883602,37.70392904 Z" fill="#133d91ff" />
<use xlink:href="#d1" x="3.345295" y="37.636847" />
<use xlink:href="#d1" x="3.345295" y="37.636847" />
<path d="M3.34529500,37.71184700 L3.34529500,37.56184700 L3.48815200,37.56184700 L3.48815200,37.71184700 Z" fill="#133d91ff" />
<use xlink:href="#d1" x="3.488152" y="37.636847" />
<use xlink:href="#d1" x="3.488152" y="37.636847" />
<path d="M3.45461098,37.70392904 L3.52169302,37.56976496 L3.61693102,37.61738396 L3.54984898,37.75154804 Z" fill="#133d91ff" />
<use xlink:href="#d1" x="3.583390" y="37.684466" />
<use xlink:href="#d1" x="3.583390" y="37.684466" />
<path d="M3.53035699,37.73749901 L3.63642301,37.63143299 L3.68404201,37.67905199 L3.57797599,37.78511801 Z" fill="#133d91ff" />
<use xlink:href="#d1" x="3.631009" y="37.732085" />
<use xlink:href="#d1" x="3.631009" y="37.732085" />
<path d="M3.56392696,37.76562602 L3.69809104,37.69854398 L3.74571004,37.79378198 L3.61154596,37.86086402 Z" fill="#133d91ff" />
<use xlink:href="#d1" x="3.678628" y="37.827323" />
<use xlink:href="#d1" x="3.678628" y="37.827323" />
<path d="M3.60362800,37.82732300 L3.75362800,37.82732300 L3.75362800,38.20827500 L3.60362800,38.20827500 Z" fill="#133d91ff" />
<use xlink:href="#d1" x="3.678628" y="38.208275" />
<use xlink:href="#d1" x="3.250057" y="37.255894" />
<path d="M3.30309001,37.20286099 L3.19702399,37.30892701 L3.14940499,37.26130801 L3.25547101,37.15524199 Z" fill="#133d91ff" />
<use xlink:href="#d1" x="3.202438" y="37.208275" />
<use xlink:href="#d1" x="3.202438" y="37.208275" />
<path d="M3.26952004,37.17473398 L3.13535596,37.24181602 L3.08773696,37.14657802 L3.22190104,37.07949598 Z" fill="#133d91ff" />
<use xlink:href="#d1" x="3.154819" y="37.113037" />
<use xlink:href="#d1" x="3.154819" y="37.113037" />
<path d="M3.22981900,37.11303700 L3.07981900,37.11303700 L3.07981900,36.87494200 L3.22981900,36.87494200 Z" fill="#133d91ff" />
<use xlink:href="#d1" x="3.154819" y="36.874942" />
<use xlink:href="#d1" x="3.154819" y="36.874942" />
<path d="M3.22190104,36.90848302 L3.08773696,36.84140098 L3.13535596,36.74616298 L3.26952004,36.81324502 Z" fill="#133d91ff" />
<use xlink:href="#d1" x="3.202438" y="36.779704" />
<use xlink:href="#d1" x="3.202438" y="36.779704" />
<path d="M3.25547101,36.83273701 L3.14940499,36.72667099 L3.19702399,36.67905199 L3.30309001,36.78511801 Z" fill="#133d91ff" />
<use xlink:href="#d1" x="3.250057" y="36.732085" />
<use xlink:href="#d1" x="3.250057" y="36.732085" />
<path d="M3.28359802,36.79916704 L3.21651598,36.66500296 L3.31175398,36.61738396 L3.37883602,36.75154804 Z" fill="#133d91ff" />
<use xlink:href="#d1" x="3.345295" y="36.684466" />
<use xlink:href="#d1" x="3.345295" y="36.684466" />
<path d="M3.34529500,36.75946600 L3.34529500,36.60946600 L3.44053300,36.60946600 L3.44053300,36.75946600 Z" fill="#133d91ff" />
<use xlink:href="#d1" x="3.440533" y="36.684466" />
<use xlink:href="#d1" x="3.440533" y="36.684466" />
<path d="M3.41681592,36.75561725 L3.46425008,36.61331475 L3.60710708,36.66093375 L3.55967292,36.80323625 Z" fill="#133d91ff" />
<use xlink:href="#d1" x="3.583390" y="36.732085" />
<use xlink:href="#d1" x="3.583390" y="36.732085" />
<path d="M3.53035704,36.78511805 L3.63642296,36.67905195 L4.20785196,37.25047995 L4.10178604,37.35654605 Z" fill="#133d91ff" />
<use xlink:href="#d1" x="4.154819" y="37.303513" />
<use xlink:href="#d1" x="4.154819" y="37.303513" />
<path d="M4.22981900,37.30351300 L4.07981900,37.30351300 L4.07981900,36.68446600 L4.22981900,36.68446600 Z" fill="#133d91ff" />
<use xlink:href="#d1" x="4.154819" y="36.684466" />
<use xlink:href="#d1" x="12.533333" y="36.925000" />
<path d="M12.53333300,36.85000000 L12.53333300,37.00000000 L12.05714300,37.00000000 L12.05714300,36.85000000 Z" fill="#133d91ff" />
<use xlink:href="#d1" x="12.057143" y="36.925000" />
<use xlink:href="#d1" x="12.057143" y="36.925000" />
<path d="M12.13214300,36.92500000 L11.98214300,36.92500000 L11.98214300,35.92500000 L12.13214300,35.92500000 Z" fill="#133d91ff" />
<use xlink:href="#d1" x="12.057143" y="35.925000" />
<use xlink:href="#d1" x="12.819048" y="36.020238" />
<path d="M12.87208101,36.07327101 L12.76601499,35.96720499 L12.81363399,35.91958599 L12.91970001,36.02565201 Z" fill="#133d91ff" />
<use xlink:href="#d1" x="12.866667" y="35.972619" />
<use xlink:href="#d1" x="12.866667" y="35.972619" />
<path d="M12.90020802,36.03970104 L12.83312598,35.90553696 L12.92836398,35.85791796 L12.99544602,35.99208204 Z" fill="#133d91ff" />
<use xlink:href="#d1" x="12.961905" y="35.925000" />
<use xlink:href="#d1" x="12.961905" y="35.925000" />
<path d="M12.96190500,36.00000000 L12.96190500,35.85000000 L13.20000000,35.85000000 L13.20000000,36.00000000 Z" fill="#133d91ff" />
<use xlink:href="#d1" x="13.200000" y="35.925000" />
<use xlink:href="#d1" x="13.200000" y="35.925000" />
<path d="M13.16645898,35.99208204 L13.23354102,35.85791796 L13.32877902,35.90553696 L13.26169698,36.03970104 Z" fill="#133d91ff" />
<use xlink:href="#d1" x="13.295238" y="35.972619" />
<use xlink:href="#d1" x="13.295238" y="35.972619" />
<path d="M13.24220499,36.02565201 L13.34827101,35.91958599 L13.39589001,35.96720499 L13.28982399,36.07327101 Z" fill="#133d91ff" />
<use xlink:href="#d1" x="13.342857" y="36.020238" />
<use xlink:href="#d1" x="13.342857" y="36.020238" />
<path d="M13.27577496,36.05377902 L13.40993904,35.98669698 L13.45755804,36.08193498 L13.32339396,36.14901702 Z" fill="#133d91ff" />
<use xlink:href="#d1" x="13.390476" y="36.115476" />
<use xlink:href="#d1" x="13.390476" y="36.115476" />
<path d="M13.31547600,36.11547600 L13.46547600,36.11547600 L13.46547600,36.21071400 L13.31547600,36.21071400 Z" fill="#133d91ff" />
<use xlink:href="#d1" x="13.390476" y="36.210714" />
<use xlink:href="#d1" x="13.390476" y="36.210714" />
<path d="M13.31932475,36.18699692 L13.46162725,36.23443108 L13.41400825,36.37728808 L13.27170575,36.32985392 Z" fill="#133d91ff" />
<use xlink:href="#d1" x="13.342857" y="36.353571" />
<use xlink:href="#d1" x="13.342857" y="36.353571" />
<path d="M13.28982395,36.30053804 L13.39589005,36.40660396 L12.82446205,36.97803296 L12.71839595,36.87196704 Z" fill="#133d91ff" />
<use xlink:href="#d1" x="12.771429" y="36.925000" />
<use xlink:href="#d1" x="12.771429" y="36.925000" />
<path d="M12.77142900,37.00000000 L12.77142900,36.85000000 L13.39047600,36.85000000 L13.39047600,37.00000000 Z" fill="#133d91ff" />
<use xlink:href="#d1" x="13.390476" y="36.925000" />
<use xlink:href="#d2" x="7.320000" y="22.470181" />
<path d="M7.26000000,22.47018100 L7.38000000,22.47018100 L7.38000000,23.97018100 L7.26000000,23.97018100 Z" fill="#133d91ff" />
<use xlink:href="#d2" x="7.320000" y="23.970181" />
<use xlink:href="#d2" x="7.320000" y="31.970181" />
<path d="M7.32000000,31.91018100 L7.32000000,32.03018100 L0.06000000,32.03018100 L0.06000000,31.91018100 Z" fill="#133d91ff" />
<use xlink:href="#d2" x="0.060000" y="31.970181" />
<use xlink:href="#d2" x="7.320000" y="30.470181" />
<path d="M7.26000000,30.47018100 L7.38000000,30.47018100 L7.38000000,31.97018100 L7.26000000,31.97018100 Z" fill="#133d91ff" />
<use xlink:href="#d2" x="7.320000" y="31.970181" />
<use xlink:href="#d2" x="7.320000" y="22.470181" />
<path d="M7.32000000,22.41018100 L7.32000000,22.53018100 L0.06000000,22.53018100 L0.06000000,22.41018100 Z" fill="#133d91ff" />
<use xlink:href="#d2" x="0.060000" y="22.470181" />
<use xlink:href="#d2" x="13.385000" y="27.490181" />
<path d="M13.44500000,27.49018100 L13.32500000,27.49018100 L13.32500000,24.56518100 L13.44500000,24.56518100 Z" fill="#133d91ff" />
<use xlink:href="#d2" x="13.385000" y="24.565181" />
<use xlink:href="#d2" x="13.385000" y="27.490181" />
<path d="M13.32500000,27.49018100 L13.44500000,27.49018100 L13.44500000,28.99018100 L13.32500000,28.99018100 Z" fill="#133d91ff" />
<use xlink:href="#d2" x="13.385000" y="28.990181" />
<use xlink:href="#d2" x="10.165000" y="27.490181" />
<path d="M10.22500000,27.49018100 L10.10500000,27.49018100 L10.10500000,25.99018100 L10.22500000,25.99018100 Z" fill="#133d91ff" />
<use xlink:href="#d2" x="10.165000" y="25.990181" />
<use xlink:href="#d2" x="10.165000" y="27.490181" />
<path d="M10.10500000,27.49018100 L10.22500000,27.49018100 L10.22500000,28.99018100 L10.10500000,28.99018100 Z" fill="#133d91ff" />
<use xlink:href="#d2" x="10.165000" y="28.990181" />
<use xlink:href="#d2" x="16.177064" y="30.455181" />
<path d="M16.17706400,30.39518100 L16.17706400,30.51518100 L15.72293600,30.51518100 L15.72293600,30.39518100 Z" fill="#133d91ff" />
<use xlink:href="#d2" x="15.722936" y="30.455181" />
<use xlink:href="#d2" x="16.177064" y="28.985181" />
<path d="M16.17706400,28.92518100 L16.17706400,29.04518100 L15.72293600,29.04518100 L15.72293600,28.92518100 Z" fill="#133d91ff" />
<use xlink:href="#d2" x="15.722936" y="28.985181" />
<use xlink:href="#d2" x="1.992500" y="34.307923" />
<path d="M1.93250000,34.30792300 L2.05250000,34.30792300 L2.05250000,34.78243900 L1.93250000,34.78243900 Z" fill="#133d91ff" />
<use xlink:href="#d2" x="1.992500" y="34.782439" />
<use xlink:href="#d2" x="0.947500" y="34.307923" />
<path d="M0.88750000,34.30792300 L1.00750000,34.30792300 L1.00750000,34.78243900 L0.88750000,34.78243900 Z" fill="#133d91ff" />
<use xlink:href="#d2" x="0.947500" y="34.782439" />
<use xlink:href="#d2" x="15.400000" y="28.010181" />
<path d="M15.40000000,28.07018100 L15.40000000,27.95018100 L16.20000000,27.95018100 L16.20000000,28.07018100 Z" fill="#133d91ff" />
<use xlink:href="#d2" x="16.200000" y="28.010181" />
<use xlink:href="#d2" x="15.400000" y="26.170181" />
<path d="M15.40000000,26.23018100 L15.40000000,26.11018100 L16.20000000,26.11018100 L16.20000000,26.23018100 Z" fill="#133d91ff" />
<use xlink:href="#d2" x="16.200000" y="26.170181" />
<use xlink:href="#d2" x="31.890000" y="20.930181" />
<path d="M31.89000000,20.99018100 L31.89000000,20.87018100 L32.95000000,20.87018100 L32.95000000,20.99018100 Z" fill="#133d91ff" />
<use xlink:href="#d2" x="32.950000" y="20.930181" />
<use xlink:href="#d2" x="31.890000" y="21.990181" />
<path d="M31.95000000,21.99018100 L31.83000000,21.99018100 L31.83000000,20.93018100 L31.95000000,20.93018100 Z" fill="#133d91ff" />
<use xlink:href="#d2" x="31.890000" y="20.930181" />
<use xlink:href="#d2" x="31.890000" y="22.990181" />
<path d="M31.83000000,22.99018100 L31.95000000,22.99018100 L31.95000000,31.05018100 L31.83000000,31.05018100 Z" fill="#133d91ff" />
<use xlink:href="#d2" x="31.890000" y="31.050181" />
<use xlink:href="#d2" x="31.890000" y="22.990181" />
<path d="M31.89000000,23.05018100 L31.89000000,22.93018100 L33.95000000,22.93018100 L33.95000000,23.05018100 Z" fill="#133d91ff" />
<use xlink:href="#d2" x="33.950000" y="22.990181" />
<use xlink:href="#d2" x="31.890000" y="31.050181" />
<path d="M31.89000000,31.11018100 L31.89000000,30.99018100 L36.01000000,30.99018100 L36.01000000,31.11018100 Z" fill="#133d91ff" />
<use xlink:href="#d2" x="36.010000" y="31.050181" />
<use xlink:href="#d2" x="33.950000" y="20.930181" />
<path d="M33.95000000,20.99018100 L33.95000000,20.87018100 L36.01000000,20.87018100 L36.01000000,20.99018100 Z" fill="#133d91ff" />
<use xlink:href="#d2" x="36.010000" y="20.930181" />
<use xlink:href="#d2" x="33.950000" y="22.990181" />
<path d="M34.01000000,22.99018100 L33.89000000,22.99018100 L33.89000000,20.93018100 L34.01000000,20.93018100 Z" fill="#133d91ff" />
<use xlink:href="#d2" x="33.950000" y="20.930181" />
<use xlink:href="#d2" x="36.010000" y="20.930181" />
<path d="M35.95000000,20.93018100 L36.07000000,20.93018100 L36.07000000,31.05018100 L35.95000000,31.05018100 Z" fill="#133d91ff" />
<use xlink:href="#d2" x="36.010000" y="31.050181" />
<use xlink:href="#d2" x="3.972500" y="34.232923" />
<path d="M3.91250000,34.23292300 L4.03250000,34.23292300 L4.03250000,34.70743900 L3.91250000,34.70743900 Z" fill="#133d91ff" />
<use xlink:href="#d2" x="3.972500" y="34.707439" />
<use xlink:href="#d2" x="2.927500" y="34.232923" />
<path d="M2.86750000,34.23292300 L2.98750000,34.23292300 L2.98750000,34.70743900 L2.86750000,34.70743900 Z" fill="#133d91ff" />
<use xlink:href="#d2" x="2.927500" y="34.707439" />
<use xlink:href="#d2" x="9.472936" y="35.735181" />
<path d="M9.47293600,35.79518100 L9.47293600,35.67518100 L9.92706400,35.67518100 L9.92706400,35.79518100 Z" fill="#133d91ff" />
<use xlink:href="#d2" x="9.927064" y="35.735181" />
<use xlink:href="#d2" x="9.472936" y="37.205181" />
<path d="M9.47293600,37.26518100 L9.47293600,37.14518100 L9.92706400,37.14518100 L9.92706400,37.26518100 Z" fill="#133d91ff" />
<use xlink:href="#d2" x="9.927064" y="37.205181" />
</g>
</svg>