<?xml version="1.0" encoding="UTF-8"?>
<svg xmlns="http://www.w3.org/2000/svg" xmlns:xlink="http://www.w3.org/1999/xlink"
     width="38.3200000" height="53.200000" viewBox="0 0 38.3200000 53.200000">
<defs>
<mask id="d0">
<rect x="-19.1600000" y="-26.600000" width="76.6400000" height="106.400000" fill="white" />
</mask>
<g id="d1">
<circle cx="0" cy="0" r="0.32500" fill="#133d91ff" />
</g>
<g id="d2">
<rect x="-0.8000000" y="-0.8000000" width="1.6000000" height="1.6000000" fill="#133d91ff" rx="0.800000" ry="0.800000" transform="rotate(-0.0)" />
</g>
<g id="d3">
<circle cx="0" cy="0" r="1.80000" fill="#133d91ff" />
</g>
<g id="d4">
<circle cx="0" cy="0" r="2.85000" fill="#133d91ff" />
</g>
<g id="d5">
<rect x="-0.6750000" y="-0.6750000" width="1.3500000" height="1.3500000" fill="#133d91ff" transform="rotate(-0.0)" />
</g>
<g id="d6">
<rect x="-0.6750000" y="-0.6750000" width="1.3500000" height="1.3500000" fill="#133d91ff" rx="0.675000" ry="0.675000" transform="rotate(-0.0)" />
</g>
<g id="d7">
<circle cx="0" cy="0" r="0.20000" fill="#133d91ff" />
</g>
<g id="d8">
<circle cx="0" cy="0" r="0.25000" fill="#133d91ff" />
</g>
<g id="d9">
<circle cx="0" cy="0" r="0.10000" fill="#133d91ff" />
</g>
<g id="d10">
<circle cx="0" cy="0" r="0.12500" fill="#133d91ff" />
</g>
</defs>
<g mask="url(#d0)">
<g></g>
<use xlink:href="#d1" x="5.9800000" y="28.450000" />
<use xlink:href="#d1" x="5.9800000" y="26.050000" />
<use xlink:href="#d1" x="5.9800000" y="27.650000" />
<use xlink:href="#d1" x="5.9800000" y="25.250000" />
<use xlink:href="#d2" x="0.8000000" y="22.580000" />
<use xlink:href="#d1" x="6.6800000" y="29.650000" />
<use xlink:href="#d1" x="5.9800000" y="24.450000" />
<use xlink:href="#d1" x="6.6800000" y="26.450000" />
<use xlink:href="#d2" x="5.5300000" y="31.120000" />
<use xlink:href="#d2" x="0.8000000" y="31.120000" />
<use xlink:href="#d1" x="6.6800000" y="25.650000" />
<use xlink:href="#d1" x="5.9800000" y="29.250000" />
<use xlink:href="#d1" x="6.6800000" y="24.050000" />
<use xlink:href="#d1" x="6.6800000" y="28.050000" />
<use xlink:href="#d1" x="6.6800000" y="27.250000" />
<use xlink:href="#d1" x="6.6800000" y="24.850000" />
<use xlink:href="#d2" x="5.5300000" y="22.580000" />
<use xlink:href="#d1" x="6.6800000" y="28.850000" />
<use xlink:href="#d3" x="4.2200000" y="49.100000" />
<use xlink:href="#d4" x="4.2200000" y="49.100000" />
<use xlink:href="#d3" x="34.2200000" y="4.100000" />
<use xlink:href="#d4" x="34.2200000" y="4.100000" />
<use xlink:href="#d3" x="4.2200000" y="4.100000" />
<use xlink:href="#d4" x="4.2200000" y="4.100000" />
<use xlink:href="#d3" x="34.2200000" y="49.100000" />
<use xlink:href="#d4" x="34.2200000" y="49.100000" />
<use xlink:href="#d5" x="33.9700000" y="21.620000" />
<use xlink:href="#d6" x="35.9700000" y="21.620000" />
<use xlink:href="#d6" x="33.9700000" y="23.620000" />
<use xlink:href="#d6" x="35.9700000" y="23.620000" />
<use xlink:href="#d6" x="33.9700000" y="25.620000" />
<use xlink:href="#d6" x="35.9700000" y="25.620000" />
<use xlink:href="#d6" x="33.9700000" y="27.620000" />
<use xlink:href="#d6" x="35.9700000" y="27.620000" />
<use xlink:href="#d6" x="33.9700000" y="29.620000" />
<use xlink:href="#d6" x="35.9700000" y="29.620000" />
<use xlink:href="#d7" x="34.2200000" y="19.100000" />
<use xlink:href="#d7" x="29.2200000" y="24.100000" />
<use xlink:href="#d7" x="24.2200000" y="24.100000" />
<use xlink:href="#d7" x="19.2200000" y="24.100000" />
<use xlink:href="#d7" x="9.2200000" y="49.100000" />
<use xlink:href="#d7" x="4.2200000" y="44.100000" />
<use xlink:href="#d7" x="9.2200000" y="44.100000" />
<use xlink:href="#d7" x="14.2200000" y="49.100000" />
<use xlink:href="#d7" x="19.2200000" y="49.100000" />
<use xlink:href="#d7" x="24.2200000" y="49.100000" />
<use xlink:href="#d7" x="29.2200000" y="49.100000" />
<use xlink:href="#d7" x="34.2200000" y="44.100000" />
<use xlink:href="#d7" x="29.2200000" y="44.100000" />
<use xlink:href="#d7" x="24.2200000" y="44.100000" />
<use xlink:href="#d7" x="19.2200000" y="44.100000" />
<use xlink:href="#d7" x="14.2200000" y="44.100000" />
<use xlink:href="#d7" x="14.2200000" y="39.100000" />
<use xlink:href="#d7" x="19.2200000" y="39.100000" />
<use xlink:href="#d7" x="24.2200000" y="39.100000" />
<use xlink:href="#d7" x="29.2200000" y="39.100000" />
<use xlink:href="#d7" x="34.2200000" y="39.100000" />
<use xlink:href="#d7" x="34.2200000" y="34.100000" />
<use xlink:href="#d7" x="29.2200000" y="34.100000" />
<use xlink:href="#d7" x="24.2200000" y="34.100000" />
<use xlink:href="#d7" x="19.2200000" y="34.100000" />
<use xlink:href="#d7" x="14.2200000" y="34.100000" />
<use xlink:href="#d7" x="29.2200000" y="19.100000" />
<use xlink:href="#d7" x="24.2200000" y="19.100000" />
<use xlink:href="#d7" x="19.2200000" y="19.100000" />
<use xlink:href="#d7" x="14.2200000" y="19.100000" />
<use xlink:href="#d7" x="4.2200000" y="9.100000" />
<use xlink:href="#d7" x="14.2200000" y="14.100000" />
<use xlink:href="#d7" x="19.2200000" y="14.100000" />
<use xlink:href="#d7" x="24.2200000" y="14.100000" />
<use xlink:href="#d7" x="29.2200000" y="14.100000" />
<use xlink:href="#d7" x="34.2200000" y="14.100000" />
<use xlink:href="#d7" x="29.2200000" y="9.100000" />
<use xlink:href="#d7" x="24.2200000" y="9.100000" />
<use xlink:href="#d7" x="19.2200000" y="9.100000" />
<use xlink:href="#d7" x="14.2200000" y="9.100000" />
<use xlink:href="#d7" x="9.2200000" y="9.100000" />
<use xlink:href="#d7" x="29.2200000" y="4.100000" />
<use xlink:href="#d7" x="24.2200000" y="4.100000" />
<use xlink:href="#d7" x="19.2200000" y="4.100000" />
<use xlink:href="#d7" x="14.2200000" y="4.100000" />
<use xlink:href="#d7" x="9.2200000" y="4.100000" />
<use xlink:href="#d7" x="16.9700000" y="28.100000" />
<use xlink:href="#d7" x="16.9700000" y="25.350000" />
<use xlink:href="#d7" x="14.9700000" y="25.350000" />
<use xlink:href="#d7" x="18.9700000" y="25.350000" />
<use xlink:href="#d7" x="20.7200000" y="25.350000" />
<use xlink:href="#d7" x="22.4700000" y="25.350000" />
<use xlink:href="#d7" x="24.2200000" y="25.350000" />
<use xlink:href="#d7" x="25.7200000" y="25.350000" />
<use xlink:href="#d7" x="31.2200000" y="25.350000" />
<use xlink:href="#d7" x="27.2200000" y="25.350000" />
<use xlink:href="#d7" x="28.7200000" y="25.350000" />
<use xlink:href="#d7" x="29.9700000" y="25.350000" />
<use xlink:href="#d7" x="32.2200000" y="25.350000" />
<use xlink:href="#d7" x="32.2200000" y="28.100000" />
<use xlink:href="#d7" x="31.2200000" y="28.100000" />
<use xlink:href="#d7" x="29.9700000" y="28.100000" />
<use xlink:href="#d7" x="28.7200000" y="28.100000" />
<use xlink:href="#d7" x="27.2200000" y="28.100000" />
<use xlink:href="#d7" x="25.7200000" y="28.100000" />
<use xlink:href="#d7" x="24.2200000" y="28.100000" />
<use xlink:href="#d7" x="22.4700000" y="28.100000" />
<use xlink:href="#d7" x="20.7200000" y="28.100000" />
<use xlink:href="#d7" x="18.9700000" y="28.100000" />
<use xlink:href="#d7" x="14.9700000" y="28.100000" />
<use xlink:href="#d7" x="14.7200000" y="29.350000" />
<use xlink:href="#d7" x="10.4450000" y="28.105000" />
<use xlink:href="#d7" x="10.4700000" y="25.600000" />
<use xlink:href="#d7" x="9.7200420" y="27.579034" />
<use xlink:href="#d7" x="9.2200000" y="26.120000" />
<use xlink:href="#d8" x="14.7200000" y="29.350000" />
<path d="M14.89677670,29.17322330 L14.54322330,29.52677670 L12.79322330,27.77677670 L13.14677670,27.42322330 Z" fill="#133d91ff" />
<use xlink:href="#d8" x="12.9700000" y="27.600000" />
<use xlink:href="#d8" x="12.9700000" y="27.600000" />
<path d="M12.97000000,27.35000000 L12.97000000,27.85000000 L10.97000000,27.85000000 L10.97000000,27.35000000 Z" fill="#133d91ff" />
<use xlink:href="#d8" x="10.9700000" y="27.600000" />
<use xlink:href="#d8" x="10.4700000" y="25.600000" />
<path d="M10.29322330,25.77677670 L10.64677670,25.42322330 L11.14677670,25.92322330 L10.79322330,26.27677670 Z" fill="#133d91ff" />
<use xlink:href="#d8" x="10.9700000" y="26.100000" />
<use xlink:href="#d8" x="10.9700000" y="26.100000" />
<path d="M10.72000000,26.10000000 L11.22000000,26.10000000 L11.22000000,27.61246300 L10.72000000,27.61246300 Z" fill="#133d91ff" />
<use xlink:href="#d8" x="10.9700000" y="27.612463" />
<use xlink:href="#d8" x="10.9700000" y="27.612463" />
<path d="M10.79322330,27.43568630 L11.14677670,27.78923970 L10.61423970,28.32177670 L10.26068630,27.96822330 Z" fill="#133d91ff" />
<use xlink:href="#d8" x="10.4374630" y="28.145000" />
<use xlink:href="#d9" x="6.6800000" y="26.430000" />
<path d="M6.68000000,26.53000000 L6.68000000,26.33000000 L7.89000000,26.33000000 L7.89000000,26.53000000 Z" fill="#133d91ff" />
<use xlink:href="#d9" x="7.8900000" y="26.430000" />
<use xlink:href="#d9" x="7.8900000" y="26.430000" />
<path d="M7.96071068,26.50071068 L7.81928932,26.35928932 L8.64928932,25.52928932 L8.79071068,25.67071068 Z" fill="#133d91ff" />
<use xlink:href="#d9" x="8.7200000" y="25.600000" />
<use xlink:href="#d9" x="8.7200000" y="25.600000" />
<path d="M8.72000000,25.70000000 L8.72000000,25.50000000 L9.47000000,25.50000000 L9.47000000,25.70000000 Z" fill="#133d91ff" />
<use xlink:href="#d9" x="9.4700000" y="25.600000" />
<use xlink:href="#d9" x="9.7200000" y="25.850000" />
<path d="M9.62000000,25.85000000 L9.82000000,25.85000000 L9.82000000,27.60000000 L9.62000000,27.60000000 Z" fill="#133d91ff" />
<use xlink:href="#d9" x="9.7200000" y="27.600000" />
<use xlink:href="#d9" x="9.4700000" y="25.600000" />
<path d="M9.39928932,25.67071068 L9.54071068,25.52928932 L9.79071068,25.77928932 L9.64928932,25.92071068 Z" fill="#133d91ff" />
<use xlink:href="#d9" x="9.7200000" y="25.850000" />
<use xlink:href="#d10" x="6.6800000" y="24.850000" />
<path d="M6.68000000,24.97500000 L6.68000000,24.72500000 L7.97000000,24.72500000 L7.97000000,24.97500000 Z" fill="#133d91ff" />
<use xlink:href="#d10" x="7.9700000" y="24.850000" />
<use xlink:href="#d10" x="6.6800000" y="28.850000" />
<path d="M6.68000000,28.97500000 L6.68000000,28.72500000 L7.97000000,28.72500000 L7.97000000,28.97500000 Z" fill="#133d91ff" />
<use xlink:href="#d10" x="7.9700000" y="28.850000" />
<use xlink:href="#d9" x="8.2200000" y="27.600000" />
<path d="M8.29071068,27.52928932 L8.14928932,27.67071068 L7.77928932,27.30071068 L7.92071068,27.15928932 Z" fill="#133d91ff" />
<use xlink:href="#d9" x="7.8500000" y="27.230000" />
<use xlink:href="#d9" x="9.2200000" y="26.100000" />
<path d="M9.12000000,26.10000000 L9.32000000,26.10000000 L9.32000000,27.35000000 L9.12000000,27.35000000 Z" fill="#133d91ff" />
<use xlink:href="#d9" x="9.2200000" y="27.350000" />
<use xlink:href="#d9" x="9.2200000" y="27.350000" />
<path d="M9.14928932,27.27928932 L9.29071068,27.42071068 L9.04071068,27.67071068 L8.89928932,27.52928932 Z" fill="#133d91ff" />
<use xlink:href="#d9" x="8.9700000" y="27.600000" />
<use xlink:href="#d9" x="8.9700000" y="27.600000" />
<path d="M8.97000000,27.50000000 L8.97000000,27.70000000 L8.22000000,27.70000000 L8.22000000,27.50000000 Z" fill="#133d91ff" />
<use xlink:href="#d9" x="8.2200000" y="27.600000" />
<use xlink:href="#d9" x="7.8500000" y="27.230000" />
<path d="M7.85000000,27.13000000 L7.85000000,27.33000000 L6.68000000,27.33000000 L6.68000000,27.13000000 Z" fill="#133d91ff" />
<use xlink:href="#d9" x="6.6800000" y="27.230000" />
<path d="M36.22000000,27.30431400 L36.20804500,27.29235900 L36.09514800,27.23483500 L36.00148100,27.22000000 L35.93851900,27.22000000 L35.84485200,27.23483500 L35.73195500,27.29235900 L35.72000000,27.30431300 L35.72000000,25.93568600 L35.73195500,25.94764100 L35.84485200,26.00516500 L35.93851900,26.02000000 L36.00148100,26.02000000 L36.09514800,26.00516500 L36.20804500,25.94764100 L36.22000000,25.93568600 L36.22000000,27.30431400 Z" fill="#155c82ff" />
<path d="M36.22000000,25.30431400 L36.20804500,25.29235900 L36.09514800,25.23483500 L36.00148100,25.22000000 L35.93851900,25.22000000 L35.84485200,25.23483500 L35.73195500,25.29235900 L35.72000000,25.30431300 L35.72000000,23.93568600 L35.73195500,23.94764100 L35.84485200,24.00516500 L35.93851900,24.02000000 L36.00148100,24.02000000 L36.09514800,24.00516500 L36.20804500,23.94764100 L36.22000000,23.93568600 L36.22000000,25.30431400 Z" fill="#155c82ff" />
<path d="M35.64235900,23.38195500 L35.58483500,23.49485200 L35.56501400,23.62000000 L35.58483500,23.74514800 L35.64235900,23.85804500 L35.65431400,23.87000000 L34.28568600,23.87000000 L34.29764100,23.85804500 L34.35516500,23.74514800 L34.37498600,23.62000000 L34.35516500,23.49485200 L34.29764100,23.38195500 L34.28568600,23.37000000 L35.65431400,23.37000000 L35.64235900,23.38195500 Z" fill="#155c82ff" />
<path d="M36.22000000,23.30431400 L36.20804500,23.29235900 L36.09514800,23.23483500 L36.00148100,23.22000000 L35.93851900,23.22000000 L35.84485200,23.23483500 L35.73195500,23.29235900 L35.72000000,23.30431400 L35.72000000,21.93568600 L35.73195500,21.94764100 L35.84485200,22.00516500 L35.93851900,22.02000000 L36.00148100,22.02000000 L36.09514800,22.00516500 L36.20804500,21.94764100 L36.22000000,21.93568600 L36.22000000,23.30431400 Z" fill="#155c82ff" />
<path d="M38.16303900,0.11968500 L38.20879400,0.17248900 L38.22000000,0.22400000 L38.22000000,52.97600000 L38.20031500,53.04303900 L38.14751100,53.08879400 L38.09600000,53.10000000 L12.22000000,53.10000000 L12.22000000,49.10000200 L30.86508000,49.10000200 L30.88474600,49.46272800 L30.94351700,49.82121400 L30.94351900,49.82122200 L31.04069500,50.17122000 L31.04069700,50.17122700 L31.17515200,50.50868400 L31.17516100,50.50870200 L31.34531600,50.82964700 L31.34531800,50.82965100 L31.54917000,51.13030900 L31.54917700,51.13031900 L31.68096800,51.28547500 L31.68096900,51.28547600 L32.92226500,50.04417900 L33.08513000,50.23487000 L33.27581900,50.39773300 L32.03188900,51.64166300 L32.03188900,51.64166400 L32.04807000,51.65699200 L32.33726600,51.87683200 L32.33728200,51.87684300 L32.64852200,52.06410900 L32.64853500,52.06411600 L32.97820500,52.21663900 L32.97821000,52.21664000 L33.32246100,52.33263200 L33.67723500,52.41072400 L34.03836600,52.44999900 L34.03837400,52.45000000 L34.40162600,52.45000000 L34.40163300,52.44999900 L34.76276400,52.41072400 L35.11753800,52.33263200 L35.46178900,52.21664000 L35.46179400,52.21663900 L35.79146400,52.06411600 L35.79147700,52.06410900 L36.10271700,51.87684300 L36.10273300,51.87683200 L36.39192400,51.65699600 L36.40810900,51.64166300 L35.16418000,50.39773300 L35.35487000,50.23487000 L35.51773300,50.04418000 L36.75902900,51.28547500 L36.75903000,51.28547500 L36.89082200,51.13031900 L36.89082900,51.13030900 L37.09468100,50.82965100 L37.09468300,50.82964700 L37.26483800,50.50870200 L37.26484700,50.50868400 L37.39930200,50.17122700 L37.39930400,50.17122000 L37.49648000,49.82122200 L37.49648200,49.82121400 L37.55525300,49.46272800 L37.57492000,49.10000200 L37.57492000,49.09999700 L37.55525300,48.73727100 L37.49648200,48.37878500 L37.49648000,48.37877700 L37.39930400,48.02877900 L37.39930200,48.02877200 L37.26484700,47.69131500 L37.26483800,47.69129700 L37.09468300,47.37035200 L37.09468100,47.37034800 L36.89082900,47.06969000 L36.89082200,47.06968000 L36.75903000,46.91452300 L36.75902900,46.91452200 L35.51773200,48.15581800 L35.35487000,47.96513000 L35.16417900,47.80226500 L36.40810900,46.55833500 L36.40810900,46.55833400 L36.39192900,46.54300700 L36.10273300,46.32316700 L36.10271700,46.32315600 L35.79147700,46.13589000 L35.79146400,46.13588300 L35.46179400,45.98336000 L35.46178900,45.98335900 L35.11753800,45.86736700 L34.76276400,45.78927500 L34.40163300,45.75000000 L34.03836600,45.75000000 L33.67723500,45.78927500 L33.32246100,45.86736700 L32.97821000,45.98335900 L32.97820500,45.98336000 L32.64853500,46.13588300 L32.64852200,46.13589000 L32.33728200,46.32315600 L32.33726600,46.32316700 L32.04807100,46.54300600 L32.04807000,46.54300700 L32.03188900,46.55833400 L32.03188900,46.55833600 L33.27581900,47.80226600 L33.08513000,47.96513000 L32.92226600,48.15581900 L31.68096900,46.91452200 L31.54917000,47.06969000 L31.54916900,47.06969100 L31.34531300,47.37035700 L31.17516100,47.69129700 L31.17515200,47.69131500 L31.04069700,48.02877200 L31.04069500,48.02877900 L30.94351900,48.37877700 L30.94351700,48.37878500 L30.88474600,48.73727100 L30.86508000,49.09999700 L30.86508000,49.10000200 L12.22000000,49.10000200 L12.22000000,40.10000000 L11.22000000,40.10000000 L11.22000000,28.47519200 L11.23968500,28.40815400 L11.25631900,28.38751200 L11.25701200,28.38681900 L11.31833500,28.35333400 L11.34469300,28.35050000 L12.60777000,28.35050000 L12.67480900,28.37018500 L12.69545100,28.38681900 L14.22021600,29.91158500 L14.22022000,29.91158800 L14.22022300,29.91159100 L14.32332300,29.99311100 L14.48232700,30.06725700 L14.65414500,30.10273400 L14.82951300,30.09763100 L14.99897600,30.05222300 L15.15340000,29.96895900 L15.28445900,29.85232600 L15.38508800,29.70861200 L15.41628400,29.63008600 L15.44986100,29.54557000 L15.44986100,29.54556900 L15.44986200,29.54556700 L15.47528900,29.37197700 L15.45999900,29.19720300 L15.40481400,29.03066600 L15.31271200,28.88134500 L14.05136800,27.62000000 L32.78946400,27.62000000 L32.80956400,27.83691800 L32.80956400,27.83692000 L32.80956500,27.83692300 L32.82959700,27.90732700 L32.86918400,28.04646200 L32.96628800,28.24147200 L33.09757400,28.41532400 L33.22194400,28.52870100 L33.25822600,28.58841200 L33.25646500,28.65825900 L33.22194400,28.71197500 L33.09794500,28.82501300 L32.96671500,28.99879100 L32.86965100,29.19371900 L32.81949400,29.36999900 L32.81949500,29.37000000 L33.65431400,29.37000000 L33.64235900,29.38195500 L33.58483500,29.49485200 L33.56501400,29.62000000 L33.58483500,29.74514800 L33.64235900,29.85804500 L33.65431400,29.87000000 L32.81949500,29.87000000 L32.86965100,30.04628000 L32.96671500,30.24120800 L33.09794500,30.41498500 L33.25886800,30.56168500 L33.44401200,30.67632200 L33.44402300,30.67632700 L33.64706000,30.75498400 L33.72000000,30.76861900 L33.72000000,29.93568600 L33.73195500,29.94764100 L33.84485200,30.00516500 L33.93851900,30.02000000 L34.00148100,30.02000000 L34.09514800,30.00516500 L34.20804500,29.94764100 L34.22000000,29.93568600 L34.22000000,30.76861900 L34.29293900,30.75498400 L34.49597600,30.67632700 L34.49598700,30.67632200 L34.68113000,30.56168500 L34.68113100,30.56168500 L34.84205500,30.41498400 L34.87073000,30.37701200 L34.92683800,30.33537400 L34.99655000,30.33068100 L35.05773300,30.36442200 L35.06864000,30.37700900 L35.08751200,30.40200000 L35.09757300,30.41532200 L35.25856800,30.56208800 L35.25857500,30.56209200 L35.25857600,30.56209300 L35.44378600,30.67677000 L35.44379200,30.67677300 L35.46666400,30.68563300 L35.64693100,30.75547000 L35.86107400,30.79550000 L35.86107600,30.79550000 L36.07892400,30.79550000 L36.07892600,30.79550000 L36.29306900,30.75547000 L36.49621000,30.67677200 L36.68143200,30.56208800 L36.84242700,30.41532200 L36.97371200,30.24147200 L37.07081700,30.04645900 L37.13043500,29.83692300 L37.15053600,29.62000000 L37.13043500,29.40307700 L37.07081700,29.19354100 L36.97371200,28.99852800 L36.90634400,28.90931800 L36.84242500,28.82467500 L36.71805500,28.71129800 L36.68177300,28.65158700 L36.68353400,28.58174000 L36.71805600,28.52802300 L36.84205400,28.41498500 L36.97328400,28.24120800 L37.07034800,28.04628000 L37.12050500,27.87000000 L36.28568600,27.87000000 L36.29764100,27.85804500 L36.35516500,27.74514800 L36.37498600,27.62000000 L36.35516500,27.49485200 L36.29764100,27.38195500 L36.28568600,27.37000000 L37.12050500,27.37000000 L37.12050500,27.36999900 L37.07034800,27.19371900 L36.97328400,26.99879100 L36.84205600,26.82501700 L36.71768400,26.71163800 L36.68140300,26.65192700 L36.68316300,26.58207900 L36.71768400,26.52836200 L36.84205600,26.41498200 L36.97328400,26.24120800 L37.07034800,26.04628000 L37.12050500,25.87000000 L36.28568600,25.87000000 L36.29764100,25.85804500 L36.35516500,25.74514800 L36.37498600,25.62000000 L36.35516500,25.49485200 L36.29764100,25.38195500 L36.28568600,25.37000000 L37.12050500,25.37000000 L37.12050500,25.36999900 L37.07034800,25.19371900 L36.97328400,24.99879100 L36.84205600,24.82501700 L36.71768400,24.71163800 L36.68140300,24.65192700 L36.68316300,24.58207900 L36.71768400,24.52836200 L36.84205600,24.41498200 L36.97328400,24.24120800 L37.07034800,24.04628000 L37.12050500,23.87000000 L36.28568600,23.87000000 L36.29764100,23.85804500 L36.35516500,23.74514800 L36.37498600,23.62000000 L36.35516500,23.49485200 L36.29764100,23.38195500 L36.28568600,23.37000000 L37.12050500,23.37000000 L37.12050500,23.36999900 L37.07034800,23.19371900 L36.97328400,22.99879100 L36.84205600,22.82501700 L36.71768400,22.71163800 L36.68140300,22.65192700 L36.68316300,22.58207900 L36.71768400,22.52836200 L36.84205600,22.41498200 L36.97328400,22.24120800 L37.07034800,22.04628000 L37.12050500,21.87000000 L36.28568600,21.87000000 L36.29764100,21.85804500 L36.35516500,21.74514800 L36.37498600,21.62000000 L36.35516500,21.49485200 L36.29764100,21.38195500 L36.28568600,21.37000000 L37.12050500,21.37000000 L37.12050500,21.36999900 L37.07034800,21.19371900 L36.97328400,20.99879100 L36.84205400,20.82501400 L36.68113100,20.67831400 L36.49598700,20.56367700 L36.49598500,20.56367600 L36.29293100,20.48501300 L36.29292100,20.48501000 L36.22000100,20.47137800 L36.22000000,20.47137900 L36.22000000,21.30431300 L36.20804500,21.29235900 L36.09514800,21.23483500 L36.00148100,21.22000000 L35.93851900,21.22000000 L35.84485200,21.23483500 L35.73195500,21.29235900 L35.72000000,21.30431400 L35.72000000,20.47137900 L35.71999800,20.47137800 L35.64707800,20.48501000 L35.64706800,20.48501300 L35.44401400,20.56367600 L35.44401200,20.56367700 L35.25886900,20.67831400 L35.25886800,20.67831400 L35.24788700,20.68832500 L35.18508200,20.71894000 L35.11569500,20.71074000 L35.06508600,20.67099700 L35.00254600,20.58745400 L34.97078300,20.56367600 L34.88733500,20.50120600 L34.88732800,20.50120200 L34.75248200,20.45090800 L34.75248300,20.45090800 L34.69288300,20.44450100 L34.69288100,20.44450000 L34.69287300,20.44450000 L34.69286400,20.44450000 L33.24712900,20.44450000 L33.24712300,20.44450100 L33.18751600,20.45090800 L33.05267100,20.50120200 L33.05266400,20.50120600 L32.93745500,20.58745200 L32.93745200,20.58745500 L32.85120600,20.70266400 L32.85120200,20.70267100 L32.80090800,20.83751700 L32.79450100,20.89711600 L32.79450000,20.89713500 L32.79450000,22.34287000 L32.79450100,22.34287600 L32.80090800,22.40248300 L32.85120200,22.53732800 L32.85120600,22.53733500 L32.93745200,22.65254400 L32.93745500,22.65254700 L33.02350400,22.71696400 L33.06537500,22.77289800 L33.07035900,22.84258900 L33.04814800,22.89095600 L32.96671400,22.99879200 L32.86965100,23.19371900 L32.81949400,23.36999900 L32.81949500,23.37000000 L33.65431400,23.37000000 L33.64235900,23.38195500 L33.58483500,23.49485200 L33.56501400,23.62000000 L33.58483500,23.74514800 L33.64235900,23.85804500 L33.65431400,23.87000000 L32.81949500,23.87000000 L32.86965100,24.04628000 L32.96671500,24.24120800 L33.09794300,24.41498200 L33.22194400,24.52802300 L33.25822500,24.58773400 L33.25646500,24.65758200 L33.22194400,24.71129800 L33.09757400,24.82467500 L32.96628800,24.99852700 L32.86918400,25.19353700 L32.86918200,25.19354100 L32.86918300,25.19354100 L32.81897700,25.36999900 L32.80956400,25.40308100 L32.78946400,25.61999900 L32.78946400,25.62000000 L32.80956400,25.83691800 L32.80956400,25.83692000 L32.80956500,25.83692300 L32.86913200,26.04628000 L32.86918400,26.04646200 L32.96628800,26.24147200 L33.09757400,26.41532400 L33.22157200,26.52836300 L33.25785400,26.58807400 L33.25609300,26.65792200 L33.22157200,26.71163700 L33.09757400,26.82467500 L32.96628800,26.99852700 L32.86918400,27.19353700 L32.86918200,27.19354100 L32.86918300,27.19354100 L32.81897700,27.36999900 L32.80956400,27.40308100 L32.78946400,27.61999900 L32.78946400,27.62000000 L14.05136800,27.62000000 L13.54572900,27.11436100 L13.53394900,27.10073000 L13.52648200,27.09070100 L13.51961200,27.08147200 L13.51961000,27.08147000 L13.47958700,27.04788600 L13.47561200,27.04424400 L13.47269000,27.04132200 L13.46978000,27.03841100 L13.44404000,27.01805900 L13.38520900,26.96869400 L13.37918000,26.96472900 L13.37921200,26.96468000 L13.37285300,26.96062800 L13.37282200,26.96067900 L13.36668000,26.95689100 L13.36667800,26.95689000 L13.36667700,26.95688900 L13.32747400,26.93860800 L13.29705800,26.92442400 L13.26289400,26.90726700 L13.22843300,26.88996000 L13.22843100,26.88995900 L13.22843000,26.88995900 L13.22164500,26.88748900 L13.22166500,26.88743300 L13.21454900,26.88495900 L13.21453100,26.88501500 L13.20767100,26.88274200 L13.17295900,26.87557500 L13.13243400,26.86720700 L13.08347200,26.85560300 L13.05771900,26.84949900 L13.05054700,26.84866100 L13.05055300,26.84860100 L13.04305500,26.84783500 L13.04305000,26.84789500 L13.03586000,26.84726500 L12.95908300,26.84950000 L11.84450000,26.84950000 L11.77746100,26.82981500 L11.73170600,26.77701100 L11.72050000,26.72550000 L11.72050000,26.16370500 L11.72180900,26.14573500 L11.72212900,26.14354700 L11.72528900,26.12197700 L11.72073500,26.06993100 L11.72050000,26.06452800 L11.72050000,26.05629700 L11.72050000,26.05629100 L11.71669300,26.02372400 L11.71636700,26.02000000 L11.70999900,25.94720100 L11.70853900,25.94012900 L11.70859700,25.94011600 L11.70696500,25.93275700 L11.70690600,25.93277200 L11.70524200,25.92575300 L11.70524100,25.92574500 L11.67897400,25.85357600 L11.65481400,25.78066600 L11.65480900,25.78065900 L11.65176000,25.77411800 L11.65181500,25.77409100 L11.64853300,25.76731300 L11.64848000,25.76734000 L11.64523500,25.76088000 L11.60302800,25.69670800 L11.56271000,25.63134200 L11.55823400,25.62568200 L11.55828100,25.62564400 L11.55351900,25.61979900 L11.55347400,25.61983800 L11.54883400,25.61430900 L11.54883200,25.61430700 L11.54883000,25.61430400 L11.51806100,25.58527500 L11.49296600,25.56159800 L11.25631900,25.32495100 L11.22283400,25.26362800 L11.22000000,25.23727000 L11.22000000,13.10000000 L12.22000000,13.10000000 L12.22000000,4.10000200 L30.86508000,4.10000200 L30.88474600,4.46272800 L30.94351700,4.82121400 L30.94351900,4.82122200 L31.04069500,5.17122000 L31.04069700,5.17122700 L31.17515200,5.50868400 L31.17516100,5.50870200 L31.34531600,5.82964700 L31.34531800,5.82965100 L31.54917000,6.13030900 L31.54917700,6.13031900 L31.68096800,6.28547500 L31.68096900,6.28547600 L32.92226500,5.04417900 L33.08513000,5.23487000 L33.27581900,5.39773300 L32.03188900,6.64166300 L32.03188900,6.64166400 L32.04807000,6.65699200 L32.33726600,6.87683200 L32.33728200,6.87684300 L32.64852200,7.06410900 L32.64853500,7.06411600 L32.97820500,7.21663900 L32.97821000,7.21664000 L33.32246100,7.33263200 L33.67723500,7.41072400 L34.03836600,7.44999900 L34.03837400,7.45000000 L34.40162600,7.45000000 L34.40163300,7.44999900 L34.76276400,7.41072400 L35.11753800,7.33263200 L35.46178900,7.21664000 L35.46179400,7.21663900 L35.79146400,7.06411600 L35.79147700,7.06410900 L36.10271700,6.87684300 L36.10273300,6.87683200 L36.39192400,6.65699600 L36.40810900,6.64166300 L35.16418000,5.39773300 L35.35487000,5.23487000 L35.51773300,5.04418000 L36.75902900,6.28547500 L36.75903000,6.28547500 L36.89082200,6.13031900 L36.89082900,6.13030900 L37.09468100,5.82965100 L37.09468300,5.82964700 L37.26483800,5.50870200 L37.26484700,5.50868400 L37.39930200,5.17122700 L37.39930400,5.17122000 L37.49648000,4.82122200 L37.49648200,4.82121400 L37.55525300,4.46272800 L37.57492000,4.10000200 L37.57492000,4.09999700 L37.55525300,3.73727100 L37.49648200,3.37878500 L37.49648000,3.37877700 L37.39930400,3.02877900 L37.39930200,3.02877200 L37.26484700,2.69131500 L37.26483800,2.69129700 L37.09468300,2.37035200 L37.09468100,2.37034800 L36.89082900,2.06969000 L36.89082200,2.06968000 L36.75903000,1.91452300 L36.75902900,1.91452200 L35.51773200,3.15581800 L35.35487000,2.96513000 L35.16417900,2.80226500 L36.40810900,1.55833500 L36.40810900,1.55833400 L36.39192900,1.54300700 L36.10273300,1.32316700 L36.10271700,1.32315600 L35.79147700,1.13589000 L35.79146400,1.13588300 L35.46179400,0.98336000 L35.46178900,0.98335900 L35.11753800,0.86736700 L34.76276400,0.78927500 L34.40163300,0.75000000 L34.03836600,0.75000000 L33.67723500,0.78927500 L33.32246100,0.86736700 L32.97821000,0.98335900 L32.97820500,0.98336000 L32.64853500,1.13588300 L32.64852200,1.13589000 L32.33728200,1.32315600 L32.33726600,1.32316700 L32.04807100,1.54300600 L32.04807000,1.54300700 L32.03188900,1.55833400 L32.03188900,1.55833600 L33.27581900,2.80226600 L33.08513000,2.96513000 L32.92226600,3.15581900 L31.68096900,1.91452200 L31.54917000,2.06969000 L31.54916900,2.06969100 L31.34531300,2.37035700 L31.17516100,2.69129700 L31.17515200,2.69131500 L31.04069700,3.02877200 L31.04069500,3.02877900 L30.94351900,3.37877700 L30.94351700,3.37878500 L30.88474600,3.73727100 L30.86508000,4.09999700 L30.86508000,4.10000200 L12.22000000,4.10000200 L12.22000000,0.10000000 L38.09600000,0.10000000 L38.16303900,0.11968500 Z" fill="#155c82ff" />
<path d="M12.22000000,53.10000000 L11.22000000,53.10000000 L0.34400000,53.10000000 L0.27696100,53.08031500 L0.23120600,53.02751100 L0.22000000,52.97600000 L0.22000000,49.10000200 L0.86508000,49.10000200 L0.88474600,49.46272800 L0.94351700,49.82121400 L0.94351900,49.82122200 L1.04069500,50.17122000 L1.04069700,50.17122700 L1.17515200,50.50868400 L1.17516100,50.50870200 L1.34531600,50.82964700 L1.34531800,50.82965100 L1.54917000,51.13030900 L1.54917700,51.13031900 L1.68096800,51.28547500 L1.68096900,51.28547600 L2.92226500,50.04417900 L3.08513000,50.23487000 L3.27581900,50.39773300 L2.03188900,51.64166300 L2.03188900,51.64166400 L2.04807000,51.65699200 L2.33726600,51.87683200 L2.33728200,51.87684300 L2.64852200,52.06410900 L2.64853500,52.06411600 L2.97820500,52.21663900 L2.97821000,52.21664000 L3.32246100,52.33263200 L3.67723500,52.41072400 L4.03836600,52.44999900 L4.03837400,52.45000000 L4.40162600,52.45000000 L4.40163300,52.44999900 L4.76276400,52.41072400 L5.11753800,52.33263200 L5.46178900,52.21664000 L5.46179400,52.21663900 L5.79146400,52.06411600 L5.79147700,52.06410900 L6.10271700,51.87684300 L6.10273300,51.87683200 L6.39192400,51.65699600 L6.40810900,51.64166300 L5.16418000,50.39773300 L5.35487000,50.23487000 L5.51773300,50.04418000 L6.75902900,51.28547500 L6.75903000,51.28547500 L6.89082200,51.13031900 L6.89082900,51.13030900 L7.09468100,50.82965100 L7.09468300,50.82964700 L7.26483800,50.50870200 L7.26484700,50.50868400 L7.39930200,50.17122700 L7.39930400,50.17122000 L7.49648000,49.82122200 L7.49648200,49.82121400 L7.55525300,49.46272800 L7.57492000,49.10000200 L7.57492000,49.09999700 L7.55525300,48.73727100 L7.49648200,48.37878500 L7.49648000,48.37877700 L7.39930400,48.02877900 L7.39930200,48.02877200 L7.26484700,47.69131500 L7.26483800,47.69129700 L7.09468300,47.37035200 L7.09468100,47.37034800 L6.89082900,47.06969000 L6.89082200,47.06968000 L6.75903000,46.91452300 L6.75902900,46.91452200 L5.51773200,48.15581800 L5.35487000,47.96513000 L5.16417900,47.80226500 L6.40810900,46.55833500 L6.40810900,46.55833400 L6.39192900,46.54300700 L6.10273300,46.32316700 L6.10271700,46.32315600 L5.79147700,46.13589000 L5.79146400,46.13588300 L5.46179400,45.98336000 L5.46178900,45.98335900 L5.11753800,45.86736700 L4.76276400,45.78927500 L4.40163300,45.75000000 L4.03836600,45.75000000 L3.67723500,45.78927500 L3.32246100,45.86736700 L2.97821000,45.98335900 L2.97820500,45.98336000 L2.64853500,46.13588300 L2.64852200,46.13589000 L2.33728200,46.32315600 L2.33726600,46.32316700 L2.04807100,46.54300600 L2.04807000,46.54300700 L2.03188900,46.55833400 L2.03188900,46.55833600 L3.27581900,47.80226600 L3.08513000,47.96513000 L2.92226600,48.15581900 L1.68096900,46.91452200 L1.54917000,47.06969000 L1.54916900,47.06969100 L1.34531300,47.37035700 L1.17516100,47.69129700 L1.17515200,47.69131500 L1.04069700,48.02877200 L1.04069500,48.02877900 L0.94351900,48.37877700 L0.94351700,48.37878500 L0.88474600,48.73727100 L0.86508000,49.09999700 L0.86508000,49.10000200 L0.22000000,49.10000200 L0.22000000,40.22400000 L0.23968500,40.15696100 L0.29248900,40.11120600 L0.34400000,40.10000000 L11.22000000,40.10000000 L12.22000000,40.10000000 L12.22000000,53.10000000 Z" fill="#155c82ff" />
<path d="M12.22000000,13.10000000 L0.34400000,13.10000000 L0.27696100,13.08031500 L0.23120600,13.02751100 L0.22000000,12.97600000 L0.22000000,4.10000200 L0.86508000,4.10000200 L0.88474600,4.46272800 L0.94351700,4.82121400 L0.94351900,4.82122200 L1.04069500,5.17122000 L1.04069700,5.17122700 L1.17515200,5.50868400 L1.17516100,5.50870200 L1.34531600,5.82964700 L1.34531800,5.82965100 L1.54917000,6.13030900 L1.54917700,6.13031900 L1.68096800,6.28547500 L1.68096900,6.28547600 L2.92226500,5.04417900 L3.08513000,5.23487000 L3.27581900,5.39773300 L2.03188900,6.64166300 L2.03188900,6.64166400 L2.04807000,6.65699200 L2.33726600,6.87683200 L2.33728200,6.87684300 L2.64852200,7.06410900 L2.64853500,7.06411600 L2.97820500,7.21663900 L2.97821000,7.21664000 L3.32246100,7.33263200 L3.67723500,7.41072400 L4.03836600,7.44999900 L4.03837400,7.45000000 L4.40162600,7.45000000 L4.40163300,7.44999900 L4.76276400,7.41072400 L5.11753800,7.33263200 L5.46178900,7.21664000 L5.46179400,7.21663900 L5.79146400,7.06411600 L5.79147700,7.06410900 L6.10271700,6.87684300 L6.10273300,6.87683200 L6.39192400,6.65699600 L6.40810900,6.64166300 L5.16418000,5.39773300 L5.35487000,5.23487000 L5.51773300,5.04418000 L6.75902900,6.28547500 L6.75903000,6.28547500 L6.89082200,6.13031900 L6.89082900,6.13030900 L7.09468100,5.82965100 L7.09468300,5.82964700 L7.26483800,5.50870200 L7.26484700,5.50868400 L7.39930200,5.17122700 L7.39930400,5.17122000 L7.49648000,4.82122200 L7.49648200,4.82121400 L7.55525300,4.46272800 L7.57492000,4.10000200 L7.57492000,4.09999700 L7.55525300,3.73727100 L7.49648200,3.37878500 L7.49648000,3.37877700 L7.39930400,3.02877900 L7.39930200,3.02877200 L7.26484700,2.69131500 L7.26483800,2.69129700 L7.09468300,2.37035200 L7.09468100,2.37034800 L6.89082900,2.06969000 L6.89082200,2.06968000 L6.75903000,1.91452300 L6.75902900,1.91452200 L5.51773200,3.15581800 L5.35487000,2.96513000 L5.16417900,2.80226500 L6.40810900,1.55833500 L6.40810900,1.55833400 L6.39192900,1.54300700 L6.10273300,1.32316700 L6.10271700,1.32315600 L5.79147700,1.13589000 L5.79146400,1.13588300 L5.46179400,0.98336000 L5.46178900,0.98335900 L5.11753800,0.86736700 L4.76276400,0.78927500 L4.40163300,0.75000000 L4.03836600,0.75000000 L3.67723500,0.78927500 L3.32246100,0.86736700 L2.97821000,0.98335900 L2.97820500,0.98336000 L2.64853500,1.13588300 L2.64852200,1.13589000 L2.33728200,1.32315600 L2.33726600,1.32316700 L2.04807100,1.54300600 L2.04807000,1.54300700 L2.03188900,1.55833400 L2.03188900,1.55833600 L3.27581900,2.80226600 L3.08513000,2.96513000 L2.92226600,3.15581900 L1.68096900,1.91452200 L1.54917000,2.06969000 L1.54916900,2.06969100 L1.34531300,2.37035700 L1.17516100,2.69129700 L1.17515200,2.69131500 L1.04069700,3.02877200 L1.04069500,3.02877900 L0.94351900,3.37877700 L0.94351700,3.37878500 L0.88474600,3.73727100 L0.86508000,4.09999700 L0.86508000,4.10000200 L0.22000000,4.10000200 L0.22000000,0.22400000 L0.23968500,0.15696100 L0.29248900,0.11120600 L0.34400000,0.10000000 L12.22000000,0.10000000 L12.22000000,13.10000000 Z" fill="#155c82ff" />
<path d="M9.16303900,14.61968500 L9.20879400,14.67248900 L9.22000000,14.72400000 L9.22000000,24.87550000 L9.20031500,24.94253900 L9.14751100,24.98829400 L9.09600000,24.99950000 L8.76342800,24.99950000 L8.75532900,24.99896900 L8.72000000,24.99431800 L8.68063900,24.99950000 L8.56323900,25.01495500 L8.56323700,25.01495600 L8.41715700,25.07546400 L8.29171900,25.17171600 L8.27001900,25.19999400 L8.26466800,25.20609600 L7.72115700,25.74960700 L7.65983400,25.78309200 L7.59014300,25.77810800 L7.53420900,25.73623700 L7.50979200,25.67077200 L7.51004700,25.65552700 L7.51004700,25.65000300 L7.51004700,25.65000000 L7.49190800,25.47742400 L7.43828600,25.31238900 L7.43777100,25.31149700 L7.43762900,25.31091400 L7.43564400,25.30645500 L7.43645900,25.30609100 L7.42130000,25.24359600 L7.43595600,25.19368500 L7.43518400,25.19334100 L7.43775100,25.18757500 L7.43777600,25.18749100 L7.43782700,25.18740100 L7.49141400,25.02247600 L7.49141500,25.02247300 L7.50954300,24.84999900 L7.49141500,24.67752600 L7.49141400,24.67752300 L7.43782800,24.51259900 L7.43748700,24.51200900 L7.43739300,24.51162300 L7.43518500,24.50666400 L7.43609100,24.50626000 L7.42100900,24.44411100 L7.43583200,24.39362400 L7.43518500,24.39333600 L7.43733500,24.38850500 L7.43748700,24.38799100 L7.43782800,24.38740000 L7.49141400,24.22247600 L7.49141500,24.22247300 L7.50954300,24.04999900 L7.49141500,23.87752600 L7.49141400,23.87752300 L7.43782600,23.71259500 L7.41334900,23.67020200 L6.93760400,24.14594700 L6.87628100,24.17943200 L6.84087100,24.17689900 L6.88000000,24.09564900 L6.88000000,24.00435100 L6.84038700,23.92209500 L6.76900800,23.86517300 L6.70253200,23.85000000 L6.65746800,23.85000000 L6.59099200,23.86517300 L6.58976100,23.86615300 L6.58765100,23.86175500 L6.59627700,23.79242000 L6.62235000,23.75409500 L7.06023100,23.31621500 L6.93634000,23.26105600 L6.93634200,23.26105600 L6.82540100,23.23747500 L6.76392000,23.20428200 L6.73014400,23.14311900 L6.73479600,23.07340400 L6.73880100,23.06378000 L6.75626600,23.02632600 L6.75626900,23.02631700 L6.80887200,22.83000000 L6.07588200,22.83000000 L6.11455600,22.73663100 L6.13517700,22.58000000 L6.11455600,22.42336900 L6.07588200,22.33000000 L6.80887200,22.33000000 L6.80887200,22.32999900 L6.75626900,22.13368200 L6.75626500,22.13367300 L6.66013400,21.92751700 L6.52965700,21.74117900 L6.36882000,21.58034200 L6.18248200,21.44986500 L5.97632800,21.35373400 L5.78000000,21.30112700 L5.78000000,22.03411800 L5.68663100,21.99544400 L5.56932300,21.98000000 L5.49067700,21.98000000 L5.37336900,21.99544400 L5.27999900,22.03411800 L5.27999900,21.30112700 L5.08367200,21.35373400 L4.87751700,21.44986500 L4.69117900,21.58034200 L4.53034200,21.74117900 L4.39986500,21.92751700 L4.30373400,22.13367300 L4.30373000,22.13368200 L4.25112700,22.32999900 L4.25112800,22.33000000 L4.98411800,22.33000000 L4.94544400,22.42336900 L4.92482300,22.58000000 L4.94544400,22.73663100 L4.98411800,22.83000000 L4.25112800,22.83000000 L4.30373000,23.02631700 L4.30373400,23.02632600 L4.39986500,23.23248200 L4.53034200,23.41882000 L4.69117900,23.57965700 L4.87751700,23.71013400 L5.08367300,23.80626500 L5.08368200,23.80626900 L5.20018700,23.83748600 L5.25984800,23.87385100 L5.29037700,23.93669700 L5.28208300,24.00607300 L5.27548200,24.01926000 L5.22171200,24.11239200 L5.18594600,24.22247300 L5.16809200,24.27742400 L5.14995300,24.45000000 L5.16809200,24.62257600 L5.16809300,24.62257900 L5.22171300,24.78761000 L5.22171700,24.78762000 L5.22194400,24.78801200 L5.22200500,24.78826700 L5.22435900,24.79355300 L5.22339100,24.79398300 L5.23840900,24.85591400 L5.22366200,24.90613600 L5.22435900,24.90644700 L5.22204400,24.91164600 L5.22194400,24.91198800 L5.22171700,24.91237900 L5.22171300,24.91238900 L5.18193200,25.03482700 L5.16809200,25.07742400 L5.14995300,25.25000000 L5.16809200,25.42257600 L5.16809300,25.42257900 L5.22171300,25.58761000 L5.22171700,25.58762000 L5.22194400,25.58801200 L5.22200500,25.58826700 L5.22435900,25.59355300 L5.22339100,25.59398300 L5.23840900,25.65591400 L5.22366200,25.70613600 L5.22435900,25.70644700 L5.22204400,25.71164600 L5.22194400,25.71198800 L5.22171700,25.71237900 L5.22171300,25.71238900 L5.18366300,25.82950000 L5.16809200,25.87742400 L5.14995300,26.05000000 L5.16809200,26.22257600 L5.16809300,26.22257900 L5.22171200,26.38760800 L5.30847700,26.53788700 L5.30847600,26.53788700 L5.30847800,26.53788900 L5.42459000,26.66684500 L5.53860500,26.74968200 L5.58127000,26.80501200 L5.58724900,26.87462600 L5.55464300,26.93642100 L5.53860500,26.95031800 L5.42458800,27.03315600 L5.30847700,27.16211200 L5.22171200,27.31239100 L5.18994600,27.41016200 L5.16809200,27.47742400 L5.14995300,27.65000000 L5.16809200,27.82257600 L5.16809300,27.82257900 L5.22171300,27.98761000 L5.22171700,27.98762000 L5.22194400,27.98801200 L5.22200500,27.98826700 L5.22435900,27.99355300 L5.22339100,27.99398300 L5.23840900,28.05591400 L5.22366200,28.10613600 L5.22435900,28.10644700 L5.22204400,28.11164600 L5.22194400,28.11198800 L5.22171700,28.11237900 L5.22171300,28.11238900 L5.17753200,28.24836900 L5.16809200,28.27742400 L5.14995300,28.45000000 L5.16809200,28.62257600 L5.16809300,28.62257900 L5.22171300,28.78761000 L5.22171700,28.78762000 L5.22194400,28.78801200 L5.22200500,28.78826700 L5.22435900,28.79355300 L5.22339100,28.79398300 L5.23840900,28.85591400 L5.22366200,28.90613600 L5.22435900,28.90644700 L5.22204400,28.91164600 L5.22194400,28.91198800 L5.22171700,28.91237900 L5.22171300,28.91238900 L5.18594600,29.02247300 L5.16809200,29.07742400 L5.14995300,29.25000000 L5.16809200,29.42257600 L5.16809300,29.42257900 L5.22171200,29.58760800 L5.27548100,29.68073800 L5.29195400,29.74863800 L5.26910100,29.81466500 L5.21418000,29.85785600 L5.20018800,29.86251300 L5.08368000,29.89373100 L5.08367300,29.89373400 L4.87751700,29.98986500 L4.69117900,30.12034200 L4.53034200,30.28117900 L4.39986500,30.46751700 L4.30373400,30.67367300 L4.30373000,30.67368200 L4.25112700,30.86999900 L4.25112800,30.87000000 L4.98411800,30.87000000 L4.94544400,30.96336900 L4.92482300,31.12000000 L4.94544400,31.27663100 L4.98411800,31.37000000 L4.25112800,31.37000000 L4.30373000,31.56631700 L4.30373400,31.56632600 L4.39986500,31.77248200 L4.53034200,31.95882000 L4.69117900,32.11965700 L4.87751700,32.25013400 L5.08367300,32.34626500 L5.08367900,32.34626800 L5.27999800,32.39887100 L5.27999900,32.39887100 L5.27999900,31.66588100 L5.37336900,31.70455600 L5.49067700,31.72000000 L5.56932300,31.72000000 L5.68663100,31.70455600 L5.78000000,31.66588100 L5.78000000,32.39887200 L5.97631700,32.34626900 L5.97632600,32.34626500 L6.18248200,32.25013400 L6.36882000,32.11965700 L6.52965700,31.95882000 L6.66013400,31.77248200 L6.75626500,31.56632600 L6.75626900,31.56631700 L6.80887200,31.37000000 L6.07588200,31.37000000 L6.11455600,31.27663100 L6.13517700,31.12000000 L6.11455600,30.96336900 L6.07588200,30.87000000 L6.80887200,30.87000000 L6.80887200,30.86999900 L6.75626900,30.67368200 L6.75626400,30.67366800 L6.73880100,30.63621800 L6.72830900,30.56714100 L6.75682900,30.50335700 L6.81530600,30.46511800 L6.82540200,30.46252400 L6.93634200,30.43894300 L6.93634700,30.43894100 L7.06023000,30.38378400 L7.06023000,30.38378300 L6.62235000,29.94590300 L6.58886500,29.88458000 L6.59240000,29.83514800 L6.65746800,29.85000000 L6.70253200,29.85000000 L6.76900800,29.83482700 L6.84038700,29.77790500 L6.88000000,29.69564900 L6.88000000,29.60435100 L6.84038700,29.52209500 L6.83872600,29.52077000 L6.84868700,29.51773800 L6.91591900,29.53675300 L6.93760400,29.55405100 L7.41335000,30.02979700 L7.43782700,29.98740200 L7.49141400,29.82247600 L7.49141500,29.82247300 L7.50954300,29.64999900 L7.49141500,29.47752600 L7.49141400,29.47752300 L7.43782800,29.31259900 L7.43748700,29.31200900 L7.43739300,29.31162300 L7.43518500,29.30666400 L7.43609100,29.30626000 L7.42100900,29.24411100 L7.43583200,29.19362400 L7.43518500,29.19333600 L7.43733500,29.18850500 L7.43748700,29.18799100 L7.43782800,29.18740000 L7.49141400,29.02247600 L7.49141500,29.02247300 L7.50954300,28.84999900 L7.49141500,28.67752600 L7.49141400,28.67752300 L7.43782600,28.51259500 L7.43777200,28.51250100 L7.43775600,28.51243800 L7.43518400,28.50666000 L7.43624000,28.50618900 L7.42129900,28.44460100 L7.43621600,28.39380400 L7.43564200,28.39354900 L7.43754800,28.38926600 L7.43777500,28.38849600 L7.43828600,28.38761100 L7.49190800,28.22257600 L7.51004700,28.05000000 L7.51004700,28.04999600 L7.51004700,28.04350100 L7.51153500,28.04350100 L7.52271900,27.98231500 L7.57044700,27.93128700 L7.63818600,27.91416200 L7.70442900,27.93637900 L7.72115700,27.95039200 L7.76466900,27.99390400 L7.77002000,28.00000500 L7.79171800,28.02828200 L7.85325400,28.07550000 L7.91715900,28.12453600 L7.91716100,28.12453600 L7.91716300,28.12453800 L7.99019800,28.15478900 L8.06323800,28.18504400 L8.11018000,28.19122400 L8.21999900,28.20568200 L8.22000000,28.20568200 L8.25532900,28.20103000 L8.26342800,28.20050000 L8.92657200,28.20050000 L8.93467000,28.20103000 L8.97000000,28.20568200 L9.07981600,28.19122400 L9.14884900,28.20198900 L9.20110500,28.24836900 L9.22000000,28.31416300 L9.22000000,38.72600000 L9.20031500,38.79303900 L9.14751100,38.83879400 L9.09600000,38.85000000 L0.34400000,38.85000000 L0.27696100,38.83031500 L0.23120600,38.77751100 L0.22000000,38.72600000 L0.22000000,32.47204900 L0.23968500,32.40501000 L0.29248900,32.35925500 L0.36164700,32.34931100 L0.37609400,32.35227400 L0.54999900,32.39887100 L0.55000000,32.39887100 L0.55000000,31.66588100 L0.64336900,31.70455600 L0.76067700,31.72000000 L0.83932300,31.72000000 L0.95663100,31.70455600 L1.05000000,31.66588100 L1.05000000,32.39887200 L1.24631700,32.34626900 L1.24632600,32.34626500 L1.45248200,32.25013400 L1.63882000,32.11965700 L1.79965700,31.95882000 L1.93013400,31.77248200 L2.02626500,31.56632600 L2.02626900,31.56631700 L2.07887200,31.37000000 L1.34588200,31.37000000 L1.38455600,31.27663100 L1.40517700,31.12000000 L1.38455600,30.96336900 L1.34588200,30.87000000 L2.07887200,30.87000000 L2.07887200,30.86999900 L2.02626900,30.67368200 L2.02626500,30.67367300 L1.93013400,30.46751700 L1.79965700,30.28117900 L1.63882000,30.12034200 L1.45248200,29.98986500 L1.24632800,29.89373400 L1.05000000,29.84112700 L1.05000000,30.57411800 L0.95663100,30.53544400 L0.83932300,30.52000000 L0.76067700,30.52000000 L0.64336900,30.53544400 L0.55000000,30.57411800 L0.55000000,29.84112700 L0.37609400,29.88772600 L0.30624400,29.88606300 L0.24838200,29.84690100 L0.22087700,29.78267300 L0.22000000,29.76795100 L0.22000000,23.93204900 L0.23968500,23.86501000 L0.29248900,23.81925500 L0.36164700,23.80931100 L0.37609400,23.81227400 L0.54999900,23.85887100 L0.55000000,23.85887100 L0.55000000,23.12588100 L0.64336900,23.16455600 L0.76067700,23.18000000 L0.83932300,23.18000000 L0.95663100,23.16455600 L1.05000000,23.12588100 L1.05000000,23.85887200 L1.24631700,23.80626900 L1.24632600,23.80626500 L1.45248200,23.71013400 L1.63882000,23.57965700 L1.79965700,23.41882000 L1.93013400,23.23248200 L2.02626500,23.02632600 L2.02626900,23.02631700 L2.07887200,22.83000000 L1.34588200,22.83000000 L1.38455600,22.73663100 L1.40517700,22.58000000 L1.38455600,22.42336900 L1.34588200,22.33000000 L2.07887200,22.33000000 L2.07887200,22.32999900 L2.02626900,22.13368200 L2.02626500,22.13367300 L1.93013400,21.92751700 L1.79965700,21.74117900 L1.63882000,21.58034200 L1.45248200,21.44986500 L1.24632800,21.35373400 L1.04999900,21.30112700 L1.04999900,22.03411800 L0.95663100,21.99544400 L0.83932300,21.98000000 L0.76067700,21.98000000 L0.64336900,21.99544400 L0.55000000,22.03411800 L0.55000000,21.30112700 L0.37609400,21.34772600 L0.30624400,21.34606300 L0.24838200,21.30690100 L0.22087700,21.24267300 L0.22000000,21.22795100 L0.22000000,14.72400000 L0.23968500,14.65696100 L0.29248900,14.61120600 L0.34400000,14.60000000 L9.09600000,14.60000000 L9.16303900,14.61968500 Z" fill="#155c82ff" />
</g>
</svg>