<?xml version="1.0" encoding="UTF-8"?>
<svg xmlns="http://www.w3.org/2000/svg" xmlns:xlink="http://www.w3.org/1999/xlink"
     width="16.1650635094610967135153600793273653835058212280273437500000" height="15.1160254037844387297337676636920139204298086446362062705582" viewBox="0 0 16.1650635094610967135153600793273653835058212280273437500000 15.1160254037844387297337676636920139204298086446362062705582">
<defs>
<mask id="d0">
<rect x="-8.0825317547305483567576800396636826917529106140136718750000" y="-7.5580127018922193648668838318460069602149043223181031352791" width="32.3301270189221934270307201586547307670116424560546875000000" height="30.2320508075688774594675353273840278408596172892724125411164" fill="white" />
</mask>
<g id="d1">
<circle cx="0" cy="0" r="0.125" fill="black" />
</g>
<mask id="d2">
<rect x="-8.0825317547305483567576800396636826917529106140136718750000" y="-7.5580127018922193648668838318460069602149043223181031352791" width="32.3301270189221934270307201586547307670116424560546875000000" height="30.2320508075688774594675353273840278408596172892724125411164" fill="white" />
<use xlink:href="#d1" x="13.6953935953510074485794945076122530736029148101806640625000" y="2.3785885367079806162213516154401065792475767415600343955582" />
</mask>
<g id="d3">
<circle cx="0" cy="0" r="0.25" fill="black" />
</g>
<mask id="d4">
<rect x="-8.0825317547305483567576800396636826917529106140136718750000" y="-7.5580127018922193648668838318460069602149043223181031352791" width="32.3301270189221934270307201586547307670116424560546875000000" height="30.2320508075688774594675353273840278408596172892724125411164" fill="white" />
<use xlink:href="#d3" x="0.50000000000000000000000000000000000000000000000000000000000" y="3.9999999999999998833452850613133694056008882802563234580582" />
</mask>
<mask id="d5">
<rect x="-8.0825317547305483567576800396636826917529106140136718750000" y="-7.5580127018922193648668838318460069602149043223181031352791" width="32.3301270189221934270307201586547307670116424560546875000000" height="30.2320508075688774594675353273840278408596172892724125411164" fill="white" />
<use xlink:href="#d3" x="15.6650635094610967135153600793273653835058212280273437500000" y="12.6160254037844387297337676636920139204298086446362062705582" />
</mask>
<mask id="d6">
<rect x="-8.0825317547305483567576800396636826917529106140136718750000" y="-7.5580127018922193648668838318460069602149043223181031352791" width="32.3301270189221934270307201586547307670116424560546875000000" height="30.2320508075688774594675353273840278408596172892724125411164" fill="white" />
<use xlink:href="#d3" x="0.66506350946109671351536007932736538350582122802734375000000" y="12.6160254037844387297337676636920139204298086446362062705582" />
</mask>
<g id="d7">
<circle cx="0" cy="0" r="0.5" fill="#133d91ff" />
</g>
<g id="d8">
<circle cx="0" cy="0" r="0.25" fill="#133d91ff" />
</g>
<g id="d9">
<circle cx="0" cy="0" r="0.25" fill="#133d91ff" />
</g>
<g id="d10">
<circle cx="0" cy="0" r="0.125" fill="#133d91ff" />
</g>
</defs>
<g mask="url(#d0)">
<g mask="url(#d2)">
<g mask="url(#d4)">
<g mask="url(#d5)">
<g mask="url(#d6)">
<g></g>
<use xlink:href="#d7" x="0.66506350946109671351536007932736538350582122802734375000000" y="12.6160254037844387297337676636920139204298086446362062705582" />
<use xlink:href="#d7" x="0.66506350946109671351536007932736538350582122802734375000000" y="10.6160254037844387297337676636920139204298086446362062705582" />
</g>
<use xlink:href="#d8" x="2.66506350946109671351536007932736538350582122802734375000000" y="12.6160254037844387297337676636920139204298086446362062705582" />
<path d="M2.66506350946109671351536007932736538350582122802734375000000,12.8660254037844387297337676636920139204298086446362062705582 L2.66506350946109671351536007932736538350582122802734375000000,12.3660254037844387297337676636920139204298086446362062705582 L5.66506350946109671351536007932736538350582122802734375000000,12.3660254037844387297337676636920139204298086446362062705582 L5.66506350946109671351536007932736538350582122802734375000000,12.8660254037844387297337676636920139204298086446362062705582 Z" fill="#133d91ff" />
<use xlink:href="#d8" x="5.66506350946109671351536007932736538350582122802734375000000" y="12.6160254037844387297337676636920139204298086446362062705582" />
<use xlink:href="#d8" x="3.66506350946109671351536007932736538350582122802734375000000" y="10.6160254037844387297337676636920139204298086446362062705582" />
<path d="M3.66506351,10.36602540 A2.25000000,2.25000000,0,0,1,5.91506351,12.61602540 L5.41506351,12.61602540 A1.75000000,1.75000000,0,0,0,3.66506351,10.86602540 Z" fill="#133d91ff" />
<use xlink:href="#d8" x="5.66506350946109671351536007932736538350582122802734375000000" y="12.6160254037844387297337676636920139204298086446362062705582" />
<use xlink:href="#d7" x="15.6650635094610967135153600793273653835058212280273437500000" y="12.6160254037844387297337676636920139204298086446362062705582" />
<use xlink:href="#d7" x="15.6650635094610967135153600793273653835058212280273437500000" y="10.6160254037844387297337676636920139204298086446362062705582" />
</g>
<use xlink:href="#d8" x="13.6650635094610967135153600793273653835058212280273437500000" y="12.6160254037844387297337676636920139204298086446362062705582" />
<path d="M13.6650635094610967135153600793273653835058212280273437500000,12.3660254037844387297337676636920139204298086446362062705582 L13.6650635094610967135153600793273653835058212280273437500000,12.8660254037844387297337676636920139204298086446362062705582 L10.6650635094610967135153600793273653835058212280273437500000,12.8660254037844387297337676636920139204298086446362062705582 L10.6650635094610967135153600793273653835058212280273437500000,12.3660254037844387297337676636920139204298086446362062705582 Z" fill="#133d91ff" />
<use xlink:href="#d8" x="10.6650635094610967135153600793273653835058212280273437500000" y="12.6160254037844387297337676636920139204298086446362062705582" />
<use xlink:href="#d8" x="10.6650635094610967135153600793273653835058212280273437500000" y="12.6160254037844387297337676636920139204298086446362062705582" />
<path d="M10.41506351,12.61602540 A2.25000000,2.25000000,0,0,1,12.66506351,10.36602540 L12.66506351,10.86602540 A1.75000000,1.75000000,0,0,0,10.91506351,12.61602540 Z" fill="#133d91ff" />
<use xlink:href="#d8" x="12.6650635094610967135153600793273653835058212280273437500000" y="10.6160254037844387297337676636920139204298086446362062705582" />
<use xlink:href="#d7" x="0.50000000000000000000000000000000000000000000000000000000000" y="3.9999999999999998833452850613133694056008882802563234580582" />
<use xlink:href="#d7" x="1.49999999999999988897769753748434595763683319091796875000000" y="5.73205080756887729856649410978152332935081198631101095805820" />
</g>
<use xlink:href="#d8" x="2.23205080756887741522120904846815392374992370605468750000000" y="2.9999999999999999943675875238290234479640550893383547080582" />
<path d="M2.35705080756887739822600006846076943798271984999916825271596,3.2165063509461096658707067960584651551149784402448701590835 L2.10705080756887743221641802847553840951712756211020674728404,2.7834936490538903228644682515995817408131317384318392570329 L4.70512701892219355504823160117776929514201312119223799728404,1.2834936490538904893979219453730628043578819520548861320329 L4.95512701892219352105781364116300032360760540908119950271596,1.7165063509461098324041604898319462186597286538679170340835 Z" fill="#133d91ff" />
<use xlink:href="#d8" x="4.83012701892219353805302262117038480937480926513671875000000" y="1.5000000000000001609010412176025045115088053029614015830582" />
<use xlink:href="#d8" x="4.83012701892219353805302262117038480937480926513671875000000" y="1.5000000000000001609010412176025045115088053029614015830582" />
<path d="M5.04663337,1.37500000 A2.25000000,2.25000000,0,0,1,4.22307621,4.44855716 L3.97307621,4.01554446 A1.75000000,1.75000000,0,0,0,4.61362067,1.62500000 Z" fill="#133d91ff" />
<use xlink:href="#d8" x="4.09807621135331601180951111018657684326171875000000000000000" y="4.2320508075688774650999478035550043928955621999340578330582" />
<use xlink:href="#d9" x="13.6953935953510074485794945076122530736029148101806640625000" y="2.3785885367079806162213516154401065792475767415600343955582" />
<use xlink:href="#d9" x="14.4025003765375549102945029744660132564604282379150390625000" y="3.0856953178945281889586625448095208044682569783764406455582" />
</g>
<use xlink:href="#d10" x="12.9882868141644598758421835782428388483822345733642578125000" y="3.0856953178945280779363600822938667621050901692944093955582" />
<path d="M12.8998984665161414422309719368869614388926920373219941040869,2.9973069702462096304473606331235324565086732274924955840147 L13.0766751618127783094533952195987162578717771094065215209131,3.1740836655428465254253595314642010677015071110963232071017 L12.0160149900329569503474288255445949200407567541819121459131,4.2347438373226677179978722317448413419877772526978857071017 L11.8392382947363200831250055428328401010616716820973847290869,4.0579671420260308230198733334041727307949433690940580840147 Z" fill="#133d91ff" />
<use xlink:href="#d10" x="11.9276266423846385167362171841887175105512142181396484375000" y="4.1463554896743492705088727825745070363913603108959718955582" />
<use xlink:href="#d10" x="13.3418402047577335511885365804118919186294078826904296875000" y="4.1463554896743493815311752450901610787545271199780031455582" />
<path d="M13.43022855,4.23474384 A1.12500000,1.12500000,0,0,1,11.83923829,4.23474384 L12.01601499,4.05796714 A0.87500000,0.87500000,0,0,0,13.25345186,4.05796714 Z" fill="#133d91ff" />
<use xlink:href="#d10" x="11.9276266423846385167362171841887175105512142181396484375000" y="4.1463554896743492705088727825745070363913603108959718955582" />
</g>
</svg>