<?xml version="1.0" encoding="UTF-8"?>
<svg xmlns="http://www.w3.org/2000/svg" xmlns:xlink="http://www.w3.org/1999/xlink"
     width="6.000000" height="6.000000" viewBox="0 0 6.000000 6.000000">
<defs>
<mask id="d0">
<rect x="-3.000000" y="-3.000000" width="12.000000" height="12.000000" fill="white" />
</mask>
<g id="d1">
<path d="M0.30000000,0.00000000 L0.09270510,0.28531695 L-0.24270510,0.17633558 L-0.24270510,-0.17633558 L0.09270510,-0.28531695 Z" fill="black" />
</g>
<mask id="d2">
<rect x="-0.30" y="-0.30" width="0.60" height="0.60" fill="white" />
<circle cx="0" cy="0" r="0.15" fill="black" />
</mask>
<g mask="url(#d2)" id="d3">
<path d="M0.00000000,0.30000000 L-0.28531695,0.09270510 L-0.17633558,-0.24270510 L0.17633558,-0.24270510 L0.28531695,0.09270510 Z" fill="black" />
</g>
<mask id="d4">
<rect x="-3.000000" y="-3.000000" width="12.000000" height="12.000000" fill="white" />
<use xlink:href="#d1" x="2.000000" y="4.000000" />
<use xlink:href="#d3" x="2.000000" y="5.000000" />
</mask>
<g id="d5">
<rect x="-0.30" y="-0.15" width="0.60" height="0.30" fill="black" rx="0.15" ry="0.15" transform="rotate(-0.0)" />
</g>
<mask id="d6">
<rect x="-0.30" y="-0.15" width="0.60" height="0.30" fill="white" />
<circle cx="0" cy="0" r="0.10" fill="black" />
</mask>
<g mask="url(#d6)" id="d7">
<rect x="-0.30" y="-0.15" width="0.60" height="0.30" fill="black" rx="0.15" ry="0.15" transform="rotate(-0.0)" />
</g>
<mask id="d8">
<rect x="-3.000000" y="-3.000000" width="12.000000" height="12.000000" fill="white" />
<use xlink:href="#d5" x="1.000000" y="4.000000" />
<use xlink:href="#d7" x="1.000000" y="5.000000" />
</mask>
<g id="d9">
<rect x="-0.30" y="-0.15" width="0.60" height="0.30" fill="black" transform="rotate(-0.0)" />
</g>
<mask id="d10">
<rect x="-0.30" y="-0.15" width="0.60" height="0.30" fill="white" />
<circle cx="0" cy="0" r="0.10" fill="black" />
</mask>
<g mask="url(#d10)" id="d11">
<rect x="-0.30" y="-0.15" width="0.60" height="0.30" fill="black" transform="rotate(-0.0)" />
</g>
<mask id="d12">
<rect x="-3.000000" y="-3.000000" width="12.000000" height="12.000000" fill="white" />
<use xlink:href="#d9" x="5.000000" y="1.000000" />
<use xlink:href="#d11" x="5.000000" y="2.000000" />
</mask>
<g id="d13">
<circle cx="0" cy="0" r="0.25" fill="black" />
</g>
<mask id="d14">
<rect x="-0.25" y="-0.25" width="0.50" height="0.50" fill="white" />
<circle cx="0" cy="0" r="0.125" fill="black" />
</mask>
<g mask="url(#d14)" id="d15">
<circle cx="0" cy="0" r="0.25" fill="black" />
</g>
<mask id="d16">
<rect x="-3.000000" y="-3.000000" width="12.000000" height="12.000000" fill="white" />
<use xlink:href="#d13" x="4.000000" y="1.000000" />
<use xlink:href="#d15" x="4.000000" y="2.000000" />
</mask>
<g id="d17">
<rect x="-1.50" y="-1.50" width="3.00" height="3.00" fill="#133d91ff" transform="rotate(-0.0)" />
</g>
<g id="d18">
<circle cx="0" cy="0" r="0.25" fill="#133d91ff" />
</g>
<mask id="d19">
<rect x="-0.25" y="-0.25" width="0.50" height="0.50" fill="white" />
<circle cx="0" cy="0" r="0.125" fill="black" />
</mask>
<g mask="url(#d19)" id="d20">
<circle cx="0" cy="0" r="0.25" fill="#133d91ff" />
</g>
<g id="d21">
<rect x="-0.30" y="-0.15" width="0.60" height="0.30" fill="#133d91ff" transform="rotate(-0.0)" />
</g>
<mask id="d22">
<rect x="-0.30" y="-0.15" width="0.60" height="0.30" fill="white" />
<circle cx="0" cy="0" r="0.10" fill="black" />
</mask>
<g mask="url(#d22)" id="d23">
<rect x="-0.30" y="-0.15" width="0.60" height="0.30" fill="#133d91ff" transform="rotate(-0.0)" />
</g>
<g id="d24">
<rect x="-0.30" y="-0.15" width="0.60" height="0.30" fill="#133d91ff" rx="0.15" ry="0.15" transform="rotate(-0.0)" />
</g>
<mask id="d25">
<rect x="-0.30" y="-0.15" width="0.60" height="0.30" fill="white" />
<circle cx="0" cy="0" r="0.10" fill="black" />
</mask>
<g mask="url(#d25)" id="d26">
<rect x="-0.30" y="-0.15" width="0.60" height="0.30" fill="#133d91ff" rx="0.15" ry="0.15" transform="rotate(-0.0)" />
</g>
<g id="d27">
<path d="M0.30000000,0.00000000 L0.09270510,0.28531695 L-0.24270510,0.17633558 L-0.24270510,-0.17633558 L0.09270510,-0.28531695 Z" fill="#133d91ff" />
</g>
<mask id="d28">
<rect x="-0.30" y="-0.30" width="0.60" height="0.60" fill="white" />
<circle cx="0" cy="0" r="0.15" fill="black" />
</mask>
<g mask="url(#d28)" id="d29">
<path d="M0.00000000,0.30000000 L-0.28531695,0.09270510 L-0.17633558,-0.24270510 L0.17633558,-0.24270510 L0.28531695,0.09270510 Z" fill="#133d91ff" />
</g>
</defs>
<g mask="url(#d0)">
<g mask="url(#d4)">
<g mask="url(#d8)">
<g mask="url(#d12)">
<g mask="url(#d16)">
<g></g>
<use xlink:href="#d17" x="1.500000" y="4.500000" />
<use xlink:href="#d17" x="4.500000" y="1.500000" />
<use xlink:href="#d18" x="1.000000" y="1.000000" />
<use xlink:href="#d20" x="1.000000" y="2.000000" />
</g>
<use xlink:href="#d21" x="2.000000" y="1.000000" />
<use xlink:href="#d23" x="2.000000" y="2.000000" />
</g>
<use xlink:href="#d24" x="4.000000" y="4.000000" />
<use xlink:href="#d26" x="4.000000" y="5.000000" />
</g>
<use xlink:href="#d27" x="5.000000" y="4.000000" />
<use xlink:href="#d29" x="5.000000" y="5.000000" />
</g>
</g>
</svg>