<?xml version="1.0" encoding="UTF-8"?>
<svg xmlns="http://www.w3.org/2000/svg" xmlns:xlink="http://www.w3.org/1999/xlink"
     width="21.500000" height="8.000000" viewBox="0 0 21.500000 8.000000">
<defs>
<mask id="d0">
<rect x="-10.750000" y="-4.000000" width="43.000000" height="16.000000" fill="white" />
</mask>
<mask id="d1">
<rect x="-1.00" y="-1.00" width="2.00" height="2.00" fill="white" />
<circle cx="0" cy="0" r="0.25" fill="black" />
</mask>
<g mask="url(#d1)" id="d2">
<path d="M1.00000000,0.00000000 L-0.50000000,0.86602540 L-0.50000000,-0.86602540 Z" fill="#133d91ff" />
</g>
<mask id="d3">
<rect x="-2.00" y="-2.00" width="4.00" height="4.00" fill="white" />
<circle cx="0" cy="0" r="0.75" fill="black" />
</mask>
<g mask="url(#d3)" id="d4">
<path d="M2.00000000,0.00000000 L-1.00000000,1.73205081 L-1.00000000,-1.73205081 Z" fill="#133d91ff" />
</g>
<mask id="d5">
<rect x="-3.00" y="-3.00" width="6.00" height="6.00" fill="white" />
<circle cx="0" cy="0" r="1.25" fill="black" />
</mask>
<g mask="url(#d5)" id="d6">
<path d="M3.00000000,0.00000000 L-1.50000000,2.59807621 L-1.50000000,-2.59807621 Z" fill="#133d91ff" />
</g>
<mask id="d7">
<rect x="-4.00" y="-4.00" width="8.00" height="8.00" fill="white" />
<circle cx="0" cy="0" r="1.75" fill="black" />
</mask>
<g mask="url(#d7)" id="d8">
<path d="M4.00000000,0.00000000 L-2.00000000,3.46410162 L-2.00000000,-3.46410162 Z" fill="#133d91ff" />
</g>
</defs>
<g mask="url(#d0)">
<g></g>
<use xlink:href="#d2" x="1.000000" y="4.000000" />
<use xlink:href="#d4" x="4.500000" y="4.000000" />
<use xlink:href="#d6" x="10.000000" y="4.000000" />
<use xlink:href="#d8" x="17.500000" y="4.000000" />
</g>
</svg>