<?xml version="1.0" encoding="UTF-8"?>
<svg xmlns="http://www.w3.org/2000/svg" xmlns:xlink="http://www.w3.org/1999/xlink"
     width="21.500000" height="8.000000" viewBox="0 0 21.500000 8.000000">
<defs>
<mask id="d0">
<rect x="-10.750000" y="-4.000000" width="43.000000" height="16.000000" fill="white" />
</mask>
<mask id="d1">
<rect x="-1.00" y="-1.00" width="2.00" height="2.00" fill="white" />
<circle cx="0" cy="0" r="0.25" fill="black" />
</mask>
<g mask="url(#d1)" id="d2">
<path d="M1.0,0.0 L-0.499999999999999777955395074968691915273666381835937500,0.866025403784438707610604524234076961874961853027343750 L-0.5000000000000004440892098500626161694526672363281250,-0.8660254037844383745436971366871148347854614257812500 Z" fill="#133d91ff" />
</g>
<mask id="d3">
<rect x="-2.00" y="-2.00" width="4.00" height="4.00" fill="white" />
<circle cx="0" cy="0" r="0.75" fill="black" />
</mask>
<g mask="url(#d3)" id="d4">
<path d="M2.0,0.0 L-0.999999999999999555910790149937383830547332763671875000,1.732050807568877415221209048468153923749923706054687500 L-1.0000000000000008881784197001252323389053344726562500,-1.7320508075688767490873942733742296695709228515625000 Z" fill="#133d91ff" />
</g>
<mask id="d5">
<rect x="-3.00" y="-3.00" width="6.00" height="6.00" fill="white" />
<circle cx="0" cy="0" r="1.25" fill="black" />
</mask>
<g mask="url(#d5)" id="d6">
<path d="M3.0,0.0 L-1.499999999999999333866185224906075745820999145507812500,2.598076211353316122831813572702230885624885559082031250 L-1.5000000000000013322676295501878485083580017089843750,-2.5980762113533151236310914100613445043563842773437500 Z" fill="#133d91ff" />
</g>
<mask id="d7">
<rect x="-4.00" y="-4.00" width="8.00" height="8.00" fill="white" />
<circle cx="0" cy="0" r="1.75" fill="black" />
</mask>
<g mask="url(#d7)" id="d8">
<path d="M4.0,0.0 L-1.999999999999999111821580299874767661094665527343750000,3.464101615137754830442418096936307847499847412109375000 L-2.0000000000000017763568394002504646778106689453125000,-3.4641016151377534981747885467484593391418457031250000 Z" fill="#133d91ff" />
</g>
</defs>
<g mask="url(#d0)">
<g></g>
<use xlink:href="#d2" x="1.000000" y="4.000000" />
<use xlink:href="#d4" x="4.500000" y="4.000000" />
<use xlink:href="#d6" x="10.000000" y="4.000000" />
<use xlink:href="#d8" x="17.500000" y="4.000000" />
</g>
</svg>