<?xml version="1.0" encoding="UTF-8"?>
<svg xmlns="http://www.w3.org/2000/svg" xmlns:xlink="http://www.w3.org/1999/xlink"
     width="21.500000" height="8.000000" viewBox="0 0 21.500000 8.000000">
<defs>
<mask id="d0">
<rect x="-10.750000" y="-4.000000" width="43.000000" height="16.000000" fill="white" />
</mask>
<g id="d1">
<path d="M0.00000000,1.00000000 L-0.86602540,0.50000000 L-0.86602540,-0.50000000 L-0.00000000,-1.00000000 L0.86602540,-0.50000000 L0.86602540,0.50000000 Z" fill="#133d91ff" />
</g>
<g id="d2">
<path d="M0.00000000,2.00000000 L-1.73205081,1.00000000 L-1.73205081,-1.00000000 L-0.00000000,-2.00000000 L1.73205081,-1.00000000 L1.73205081,1.00000000 Z" fill="#133d91ff" />
</g>
<g id="d3">
<path d="M0.00000000,3.00000000 L-2.59807621,1.50000000 L-2.59807621,-1.50000000 L-0.00000000,-3.00000000 L2.59807621,-1.50000000 L2.59807621,1.50000000 Z" fill="#133d91ff" />
</g>
<g id="d4">
<path d="M0.00000000,4.00000000 L-3.46410162,2.00000000 L-3.46410162,-2.00000000 L-0.00000000,-4.00000000 L3.46410162,-2.00000000 L3.46410162,2.00000000 Z" fill="#133d91ff" />
</g>
</defs>
<g mask="url(#d0)">
<g></g>
<use xlink:href="#d1" x="1.000000" y="4.000000" />
<use xlink:href="#d2" x="4.500000" y="4.000000" />
<use xlink:href="#d3" x="10.000000" y="4.000000" />
<use xlink:href="#d4" x="17.500000" y="4.000000" />
</g>
</svg>