<?xml version="1.0" encoding="UTF-8"?>
<svg xmlns="http://www.w3.org/2000/svg" xmlns:xlink="http://www.w3.org/1999/xlink"
     width="21.500000" height="8.000000" viewBox="0 0 21.500000 8.000000">
<defs>
<mask id="d0">
<rect x="-10.750000" y="-4.000000" width="43.000000" height="16.000000" fill="white" />
</mask>
<g id="d1">
<path d="M6.12323399573676603586882014729198302312846062338790031898128E-17,1.00000000000000000000000000000000000000000000000000000000000 L-0.8660254037844387076106045242340769618749618530273437500,0.4999999999999999444888487687421729788184165954589843750 L-0.866025403784438596588302061718422919511795043945312500,-0.500000000000000111022302462515654042363166809082031250 L-1.83697019872102968750112960340450031135594986158102170925588E-16,-1.00000000000000000000000000000000000000000000000000000000000 L0.8660254037844383745436971366871148347854614257812500,-0.5000000000000004440892098500626161694526672363281250 L0.86602540378443859658830206171842291951179504394531250,0.50000000000000000000000000000000000000000000000000000 Z" fill="#133d91ff" />
</g>
<g id="d2">
<path d="M1.22464679914735320717376402945839660462569212467758006379626E-16,2.00000000000000000000000000000000000000000000000000000000000 L-1.7320508075688774152212090484681539237499237060546875000,0.9999999999999998889776975374843459576368331909179687500 L-1.732050807568877193176604123436845839023590087890625000,-1.000000000000000222044604925031308084726333618164062500 L-3.67394039744205937500225920680900062271189972316204341851176E-16,-2.00000000000000000000000000000000000000000000000000000000000 L1.7320508075688767490873942733742296695709228515625000,-1.0000000000000008881784197001252323389053344726562500 L1.73205080756887719317660412343684583902359008789062500,1.00000000000000000000000000000000000000000000000000000 Z" fill="#133d91ff" />
</g>
<g id="d3">
<path d="M1.83697019872102981076064604418759490693853818701637009569438E-16,3.00000000000000000000000000000000000000000000000000000000000 L-2.5980762113533161228318135727022308856248855590820312500,1.4999999999999998334665463062265189364552497863769531250 L-2.598076211353315789764906185155268758535385131835937500,-1.500000000000000333066907387546962127089500427246093750 L-5.51091059616308906250338881021350093406784958474306512776764E-16,-3.00000000000000000000000000000000000000000000000000000000000 L2.5980762113533151236310914100613445043563842773437500,-1.5000000000000013322676295501878485083580017089843750 L2.59807621135331578976490618515526875853538513183593750,1.50000000000000000000000000000000000000000000000000000 Z" fill="#133d91ff" />
</g>
<g id="d4">
<path d="M2.44929359829470641434752805891679320925138424935516012759251E-16,4.00000000000000000000000000000000000000000000000000000000000 L-3.4641016151377548304424180969363078474998474121093750000,1.9999999999999997779553950749686919152736663818359375000 L-3.464101615137754386353208246873691678047180175781250000,-2.000000000000000444089209850062616169452667236328125000 L-7.34788079488411875000451841361800124542379944632408683702351E-16,-4.00000000000000000000000000000000000000000000000000000000000 L3.4641016151377534981747885467484593391418457031250000,-2.0000000000000017763568394002504646778106689453125000 L3.46410161513775438635320824687369167804718017578125000,2.00000000000000000000000000000000000000000000000000000 Z" fill="#133d91ff" />
</g>
</defs>
<g mask="url(#d0)">
<g></g>
<use xlink:href="#d1" x="1.000000" y="4.000000" />
<use xlink:href="#d2" x="4.500000" y="4.000000" />
<use xlink:href="#d3" x="10.000000" y="4.000000" />
<use xlink:href="#d4" x="17.500000" y="4.000000" />
</g>
</svg>