<?xml version="1.0" encoding="UTF-8"?>
<svg xmlns="http://www.w3.org/2000/svg" xmlns:xlink="http://www.w3.org/1999/xlink"
     width="21.500000" height="8.000000" viewBox="0 0 21.500000 8.000000">
<defs>
<mask id="d0">
<rect x="-10.750000" y="-4.000000" width="43.000000" height="16.000000" fill="white" />
</mask>
<g id="d1">
<path d="M1.00000000,0.00000000 L0.50000000,0.86602540 L-0.50000000,0.86602540 L-1.00000000,0.00000000 L-0.50000000,-0.86602540 L0.50000000,-0.86602540 Z" fill="#133d91ff" />
</g>
<g id="d2">
<path d="M2.00000000,0.00000000 L1.00000000,1.73205081 L-1.00000000,1.73205081 L-2.00000000,0.00000000 L-1.00000000,-1.73205081 L1.00000000,-1.73205081 Z" fill="#133d91ff" />
</g>
<g id="d3">
<path d="M3.00000000,0.00000000 L1.50000000,2.59807621 L-1.50000000,2.59807621 L-3.00000000,0.00000000 L-1.50000000,-2.59807621 L1.50000000,-2.59807621 Z" fill="#133d91ff" />
</g>
<g id="d4">
<path d="M4.00000000,0.00000000 L2.00000000,3.46410162 L-2.00000000,3.46410162 L-4.00000000,0.00000000 L-2.00000000,-3.46410162 L2.00000000,-3.46410162 Z" fill="#133d91ff" />
</g>
</defs>
<g mask="url(#d0)">
<g></g>
<use xlink:href="#d1" x="1.000000" y="4.000000" />
<use xlink:href="#d2" x="4.500000" y="4.000000" />
<use xlink:href="#d3" x="10.000000" y="4.000000" />
<use xlink:href="#d4" x="17.500000" y="4.000000" />
</g>
</svg>