<?xml version="1.0" encoding="UTF-8"?>
<svg xmlns="http://www.w3.org/2000/svg" xmlns:xlink="http://www.w3.org/1999/xlink"
     width="3.500000" height="3.250000" viewBox="0 0 3.500000 3.250000">
<defs>
<mask id="d0">
<rect x="-1.750000" y="-1.625000" width="7.000000" height="6.500000" fill="white" />
</mask>
<mask id="d1">
<rect x="-0.75" y="-0.50" width="1.50" height="1.00" fill="white" />
<circle cx="0" cy="0" r="0.25" fill="black" />
</mask>
<g mask="url(#d1)" id="d2">
<rect x="-0.75" y="-0.50" width="1.50" height="1.00" fill="#133d91ff" transform="rotate(-0.0)" />
</g>
<mask id="d3">
<rect x="-0.75" y="-0.75" width="1.50" height="1.50" fill="white" />
<circle cx="0" cy="0" r="0.5" fill="black" />
</mask>
<g mask="url(#d3)" id="d4">
<circle cx="0" cy="0" r="0.75" fill="#133d91ff" />
</g>
<mask id="d5">
<rect x="-0.75" y="-0.50" width="1.50" height="1.00" fill="white" />
<circle cx="0" cy="0" r="0.30" fill="black" />
</mask>
<g mask="url(#d5)" id="d6">
<rect x="-0.75" y="-0.50" width="1.50" height="1.00" fill="#133d91ff" rx="0.5" ry="0.5" transform="rotate(-0.0)" />
</g>
<mask id="d7">
<rect x="-0.75" y="-0.75" width="1.50" height="1.50" fill="white" />
<circle cx="0" cy="0" r="0.15" fill="black" />
</mask>
<g mask="url(#d7)" id="d8">
<path d="M0.74714602,0.06536681 L-0.43018233,0.61436403 L-0.31696370,-0.67973084 Z" fill="#133d91ff" />
</g>
</defs>
<g mask="url(#d0)">
<g></g>
<use xlink:href="#d2" x="0.750000" y="2.750000" />
<use xlink:href="#d4" x="0.750000" y="0.750000" />
<use xlink:href="#d6" x="2.750000" y="2.750000" />
<use xlink:href="#d8" x="2.750000" y="0.750000" />
</g>
</svg>