<?xml version="1.0" encoding="UTF-8"?>
<svg xmlns="http://www.w3.org/2000/svg" xmlns:xlink="http://www.w3.org/1999/xlink"
     width="41.745805" height="39.800000" viewBox="0 0 41.745805 39.800000">
<defs>
<mask id="d0">
<rect x="-20.8729025" y="-19.900000" width="83.491610" height="79.600000" fill="white" />
</mask>
<g id="d1">
<circle cx="0" cy="0" r="0.40000" fill="#133d91ff" />
</g>
</defs>
<g mask="url(#d0)">
<g></g>
<use xlink:href="#d1" x="22.345805" y="19.400000" />
<path d="M41.288844,0.419685 L41.334599,0.472489 L41.345805,0.524000 L41.345805,39.276000 L41.326120,39.343039 L41.273316,39.388794 L41.221805,39.400000 L1.469805,39.400000 L1.402766,39.380315 L1.357011,39.327511 L1.345805,39.276000 L1.345805,19.400000 L21.340464,19.400000 L21.359780,19.596129 L21.416993,19.784733 L21.509891,19.958532 L21.509895,19.958539 L21.634921,20.110883 L21.787265,20.235909 L21.787272,20.235913 L21.961071,20.328811 L21.961074,20.328811 L21.961078,20.328814 L22.149673,20.386024 L22.345805,20.405341 L22.541937,20.386024 L22.730532,20.328814 L22.904343,20.235910 L23.056688,20.110883 L23.181715,19.958538 L23.274619,19.784727 L23.331829,19.596132 L23.351146,19.400000 L23.331829,19.203868 L23.274619,19.015273 L23.274616,19.015269 L23.274616,19.015266 L23.181718,18.841467 L23.181714,18.841460 L23.056688,18.689116 L22.904344,18.564090 L22.904337,18.564086 L22.730538,18.471188 L22.730532,18.471186 L22.541937,18.413976 L22.541934,18.413975 L22.345805,18.394659 L22.149675,18.413975 L21.961071,18.471188 L21.787272,18.564086 L21.787265,18.564090 L21.634921,18.689116 L21.509895,18.841460 L21.509891,18.841467 L21.416993,19.015266 L21.359780,19.203870 L21.340464,19.400000 L1.345805,19.400000 L1.345805,7.400000 L1.345804,7.399999 L0.433486,6.487680 L0.400001,6.426357 L0.404985,6.356665 L0.433484,6.312320 L1.345805,5.400000 L1.345804,5.399999 L1.345805,5.399999 L0.433486,4.487680 L0.400001,4.426357 L0.404985,4.356665 L0.433484,4.312320 L1.345805,3.400000 L0.433485,2.487680 L0.400000,2.426357 L0.404984,2.356665 L0.433481,2.312323 L1.345805,1.400000 L1.345804,1.399999 L1.345805,1.399999 L0.557486,0.611681 L0.524001,0.550358 L0.528985,0.480666 L0.570857,0.424733 L0.636321,0.400316 L0.645167,0.400000 L41.221805,0.400000 L41.288844,0.419685 Z" fill="#155c82ff" />
</g>
</svg>