<?xml version="1.0" encoding="UTF-8"?>
<svg xmlns="http://www.w3.org/2000/svg" xmlns:xlink="http://www.w3.org/1999/xlink"
     width="42.650000" height="38.050000" viewBox="0 0 42.650000 38.050000">
<defs>
<mask id="d0">
<rect x="-21.325000" y="-19.025000" width="85.300000" height="76.100000" fill="white" />
</mask>
<mask id="d1">
<rect x="-21.325000" y="-19.025000" width="85.300000" height="76.100000" fill="white" />
<path d="M10.050000,13.000000 L10.050000,8.000000 A2.500000,2.500000,0,0,1,12.550000,5.500000 L30.050000,5.500000 A3.750000,3.750000,0,1,1,30.050000,13.000000 L10.050000,13.000000 Z" fill="black" />
</mask>
<g id="d2">
<circle cx="0" cy="0" r="0.05" fill="#133d91ff" />
</g>
<g id="d3">
<circle cx="0" cy="0" r="0.3" fill="#133d91ff" />
</g>
<g id="d4">
<rect x="-0.30" y="-0.30" width="0.60" height="0.60" fill="#133d91ff" transform="rotate(0.0)" />
</g>
<g id="d5">
<rect x="-0.20" y="-0.500" width="0.40" height="1.000" fill="#133d91ff" transform="rotate(0.0)" />
</g>
<g id="d6">
<rect x="-0.500" y="-0.20" width="1.000" height="0.40" fill="#133d91ff" transform="rotate(0.0)" />
</g>
<g id="d7">
<rect x="-0.20" y="-0.500" width="0.40" height="1.000" fill="#133d91ff" rx="0.2" ry="0.2" transform="rotate(0.0)" />
</g>
<g id="d8">
<path d="M0.50,0.00 L-0.2499999999999998889776975374843459576368331909179687500,0.4330127018922193538053022621170384809374809265136718750 L-0.25000000000000022204460492503130808472633361816406250,-0.43301270189221918727184856834355741739273071289062500 Z" fill="#133d91ff" />
</g>
<g id="d9"></g>
</defs>
<g mask="url(#d0)">
<g mask="url(#d1)">
<g></g>
<use xlink:href="#d2" x="0.050000" y="35.500000" />
<path d="M0.000000,35.500000 L0.100000,35.500000 L0.100000,38.000000 L0.000000,38.000000 Z" fill="#133d91ff" />
<use xlink:href="#d2" x="0.050000" y="38.000000" />
<use xlink:href="#d2" x="0.050000" y="38.000000" />
<path d="M0.050000,38.050000 L0.050000,37.950000 L2.550000,37.950000 L2.550000,38.050000 Z" fill="#133d91ff" />
<use xlink:href="#d2" x="2.550000" y="38.000000" />
<use xlink:href="#d2" x="10.050000" y="28.000000" />
<path d="M10.050000,28.050000 L10.050000,27.950000 L15.050000,27.950000 L15.050000,28.050000 Z" fill="#133d91ff" />
<use xlink:href="#d2" x="15.050000" y="28.000000" />
<use xlink:href="#d2" x="15.050000" y="28.000000" />
<path d="M15.0853553390593273762200422181052424519642417968844237018294,28.0353553390593273762200422181052424519642417968844237018294 L15.0146446609406726237799577818947575480357582031155762981706,27.9646446609406726237799577818947575480357582031155762981706 L20.0146446609406726237799577818947575480357582031155762981706,22.9646446609406726237799577818947575480357582031155762981706 L20.0853553390593273762200422181052424519642417968844237018294,23.0353553390593273762200422181052424519642417968844237018294 Z" fill="#133d91ff" />
<use xlink:href="#d2" x="20.050000" y="23.000000" />
<use xlink:href="#d2" x="25.050000" y="23.000000" />
<path d="M25.000000,23.000000 L25.100000,23.000000 L25.100000,28.000000 L25.000000,28.000000 Z" fill="#133d91ff" />
<use xlink:href="#d2" x="25.050000" y="28.000000" />
<use xlink:href="#d3" x="10.050000" y="28.000000" />
<use xlink:href="#d3" x="20.050000" y="28.000000" />
<use xlink:href="#d3" x="25.050000" y="28.000000" />
<use xlink:href="#d3" x="25.050000" y="23.000000" />
<use xlink:href="#d3" x="20.050000" y="23.000000" />
<use xlink:href="#d4" x="10.050000" y="23.000000" />
<use xlink:href="#d5" x="30.050000" y="23.000000" />
<use xlink:href="#d6" x="30.050000" y="25.500000" />
<use xlink:href="#d7" x="30.050000" y="28.000000" />
<use xlink:href="#d2" x="37.550000" y="28.000000" />
<path d="M37.500000,28.000000 A2.550000,2.550000,0,1,1,42.600000,28.000000 L42.500000,28.000000 A2.450000,2.450000,0,0,0,37.600000,28.000000 Z" fill="#133d91ff" />
<use xlink:href="#d2" x="42.550000" y="28.000000" />
<use xlink:href="#d2" x="42.550000" y="28.000000" />
<path d="M42.600000,28.000000 A2.550000,2.550000,0,1,1,37.500000,28.000000 L37.600000,28.000000 A2.450000,2.450000,0,0,0,42.500000,28.000000 Z" fill="#133d91ff" />
<use xlink:href="#d2" x="37.550000" y="28.000000" />
<use xlink:href="#d8" x="34.050000" y="28.000000" />
<use xlink:href="#d8" x="35.050000" y="29.000000" />
<path d="M5.050000,18.000000 L5.050000,0.500000 L37.550000,0.500000 L37.550000,18.000000 L5.050000,18.000000 Z" fill="#155c82ff" />
</g>
<use xlink:href="#d2" x="15.050000" y="9.250000" />
<path d="M15.050000,9.300000 L15.050000,9.200000 L20.050000,9.200000 L20.050000,9.300000 Z" fill="#133d91ff" />
<use xlink:href="#d2" x="20.050000" y="9.250000" />
<use xlink:href="#d3" x="15.050000" y="9.250000" />
<use xlink:href="#d3" x="20.050000" y="9.250000" />
<use xlink:href="#d9" x="28.800000" y="9.250000" />
</g>
</svg>