<?xml version="1.0" encoding="UTF-8"?>
<svg xmlns="http://www.w3.org/2000/svg" xmlns:xlink="http://www.w3.org/1999/xlink"
     width="36.070000" height="46.150000" viewBox="0 0 36.070000 46.150000">
<defs>
<mask id="d0">
<rect x="-18.035000" y="-23.075000" width="72.140000" height="92.300000" fill="white" />
</mask>
<g id="d1">
<circle cx="0" cy="0" r="0.07500" fill="#133d91ff" />
</g>
<g id="d2">
<circle cx="0" cy="0" r="0.06000" fill="#133d91ff" />
</g>
</defs>
<g mask="url(#d0)">
<g></g>
<use xlink:href="#d1" x="7.866666" y="18.925000" />
<path d="M7.791666,18.925000 L7.941666,18.925000 L7.941666,19.639285 L7.791666,19.639285 Z" fill="#133d91ff" />
<use xlink:href="#d1" x="7.866666" y="19.639285" />
<use xlink:href="#d1" x="7.866666" y="19.639285" />
<path d="M7.795514752646211465030024895250263832991310009365182621396,19.6155679175487371550100082984167546109971033364550608737986 L7.937817247353788534969975104749736167008689990634817378604,19.6630020824512628449899917015832453890028966635449391262014 L7.890198247353788534969975104749736167008689990634817378604,19.8058590824512628449899917015832453890028966635449391262014 L7.747895752646211465030024895250263832991310009365182621396,19.7584249175487371550100082984167546109971033364550608737986 Z" fill="#133d91ff" />
<use xlink:href="#d1" x="7.819047" y="19.782142" />
<use xlink:href="#d1" x="7.819047" y="19.782142" />
<path d="M7.766013712989627996216285279245934085793550784011768117293,19.7291092698338515849982315797606471137118847275560723228380 L7.872080287010372003783714720754065914206449215988231882707,19.8351747301661484150017684202393528862881152724439276771620 L7.776842287010372003783714720754065914206449215988231882707,19.9304137301661484150017684202393528862881152724439276771620 L7.670775712989627996216285279245934085793550784011768117293,19.8243482698338515849982315797606471137118847275560723228380 Z" fill="#133d91ff" />
<use xlink:href="#d1" x="7.723809" y="19.877381" />
<use xlink:href="#d1" x="7.723809" y="19.877381" />
<path d="M7.700091917548737155010008298416754610997103336455060873799,19.8062297526462114650300248952502638329913100093651826213957 L7.747526082451262844989991701583245389002896663544939126201,19.9485322473537885349699751047497361670086899906348173786043 L7.604669082451262844989991701583245389002896663544939126201,19.9961512473537885349699751047497361670086899906348173786043 L7.557234917548737155010008298416754610997103336455060873799,19.8538487526462114650300248952502638329913100093651826213957 Z" fill="#133d91ff" />
<use xlink:href="#d1" x="7.580952" y="19.925000" />
<use xlink:href="#d1" x="7.580952" y="19.925000" />
<path d="M7.580952,19.850000 L7.580952,20.000000 L7.485714,20.000000 L7.485714,19.850000 Z" fill="#133d91ff" />
<use xlink:href="#d1" x="7.485714" y="19.925000" />
<use xlink:href="#d1" x="8.295238" y="19.020238" />
<path d="M8.348271008588991064330063327157863677946362695326635552744,19.0732710085889910643300633271578636779463626953266355527441 L8.242204991411008935669936672842136322053637304673364447256,18.9672049914110089356699366728421363220536373046733644472559 L8.289823991411008935669936672842136322053637304673364447256,18.9195859914110089356699366728421363220536373046733644472559 L8.395890008588991064330063327157863677946362695326635552744,19.0256520085889910643300633271578636779463626953266355527441 Z" fill="#133d91ff" />
<use xlink:href="#d1" x="8.342857" y="18.972619" />
<use xlink:href="#d1" x="8.342857" y="18.972619" />
<path d="M8.376398019662496845446137605030969143531609275394172885864,19.0397010393249936908922752100619382870632185507883457717281 L8.309315980337503154553862394969030856468390724605827114136,18.9055369606750063091077247899380617129367814492116542282719 L8.404553980337503154553862394969030856468390724605827114136,18.8579179606750063091077247899380617129367814492116542282719 L8.471636019662496845446137605030969143531609275394172885864,18.9920820393249936908922752100619382870632185507883457717281 Z" fill="#133d91ff" />
<use xlink:href="#d1" x="8.438095" y="18.925000" />
<use xlink:href="#d1" x="8.438095" y="18.925000" />
<path d="M8.438095,19.000000 L8.438095,18.850000 L8.676190,18.850000 L8.676190,19.000000 Z" fill="#133d91ff" />
<use xlink:href="#d1" x="8.676190" y="18.925000" />
<use xlink:href="#d1" x="8.676190" y="18.925000" />
<path d="M8.642648980337503154553862394969030856468390724605827114136,18.9920820393249936908922752100619382870632185507883457717281 L8.709731019662496845446137605030969143531609275394172885864,18.8579179606750063091077247899380617129367814492116542282719 L8.804969019662496845446137605030969143531609275394172885864,18.9055369606750063091077247899380617129367814492116542282719 L8.737886980337503154553862394969030856468390724605827114136,19.0397010393249936908922752100619382870632185507883457717281 Z" fill="#133d91ff" />
<use xlink:href="#d1" x="8.771428" y="18.972619" />
<use xlink:href="#d1" x="8.771428" y="18.972619" />
<path d="M8.718394991411008935669936672842136322053637304673364447256,19.0256520085889910643300633271578636779463626953266355527441 L8.824461008588991064330063327157863677946362695326635552744,18.9195859914110089356699366728421363220536373046733644472559 L8.872080008588991064330063327157863677946362695326635552744,18.9672049914110089356699366728421363220536373046733644472559 L8.766013991411008935669936672842136322053637304673364447256,19.0732710085889910643300633271578636779463626953266355527441 Z" fill="#133d91ff" />
<use xlink:href="#d1" x="8.819047" y="19.020238" />
<use xlink:href="#d1" x="8.819047" y="19.020238" />
<path d="M8.751964960675006309107724789938061712936781449211654228272,19.0537790196624968454461376050309691435316092753941728858641 L8.886129039324993690892275210061938287063218550788345771728,18.9866969803375031545538623949690308564683907246058271141359 L8.933748039324993690892275210061938287063218550788345771728,19.0819349803375031545538623949690308564683907246058271141359 L8.799583960675006309107724789938061712936781449211654228272,19.1490170196624968454461376050309691435316092753941728858641 Z" fill="#133d91ff" />
<use xlink:href="#d1" x="8.866666" y="19.115476" />
<use xlink:href="#d1" x="8.866666" y="19.115476" />
<path d="M8.791666,19.115476 L8.941666,19.115476 L8.941666,19.210714 L8.791666,19.210714 Z" fill="#133d91ff" />
<use xlink:href="#d1" x="8.866666" y="19.210714" />
<use xlink:href="#d1" x="8.866666" y="19.210714" />
<path d="M8.795514752646211465030024895250263832991310009365182621396,19.1869969175487371550100082984167546109971033364550608737986 L8.937817247353788534969975104749736167008689990634817378604,19.2344310824512628449899917015832453890028966635449391262014 L8.890198247353788534969975104749736167008689990634817378604,19.3772880824512628449899917015832453890028966635449391262014 L8.747895752646211465030024895250263832991310009365182621396,19.3298539175487371550100082984167546109971033364550608737986 Z" fill="#133d91ff" />
<use xlink:href="#d1" x="8.819047" y="19.353571" />
<use xlink:href="#d1" x="8.819047" y="19.353571" />
<path d="M8.766013945007140921538155782406981665275331332011334103934,19.3005380378149175532090693374491961713965375092768701349472 L8.872080054992859078461844217593018334724668667988665896066,19.4066039621850824467909306625508038286034624907231298650528 L8.300652054992859078461844217593018334724668667988665896066,19.9780329621850824467909306625508038286034624907231298650528 L8.194585945007140921538155782406981665275331332011334103934,19.8719670378149175532090693374491961713965375092768701349472 Z" fill="#133d91ff" />
<use xlink:href="#d1" x="8.247619" y="19.925000" />
<use xlink:href="#d1" x="8.247619" y="19.925000" />
<path d="M8.247619,20.000000 L8.247619,19.850000 L8.866666,19.850000 L8.866666,20.000000 Z" fill="#133d91ff" />
<use xlink:href="#d1" x="8.866666" y="19.925000" />
<use xlink:href="#d1" x="2.438095" y="46.075000" />
<path d="M2.513095,46.075000 L2.363095,46.075000 L2.363095,45.075000 L2.513095,45.075000 Z" fill="#133d91ff" />
<use xlink:href="#d1" x="2.438095" y="45.075000" />
<use xlink:href="#d1" x="2.438095" y="45.551190" />
<path d="M2.438095,45.626190 L2.438095,45.476190 L3.009523,45.476190 L3.009523,45.626190 Z" fill="#133d91ff" />
<use xlink:href="#d1" x="3.009523" y="45.551190" />
<use xlink:href="#d1" x="3.009523" y="46.075000" />
<path d="M3.084523,46.075000 L2.934523,46.075000 L2.934523,45.075000 L3.084523,45.075000 Z" fill="#133d91ff" />
<use xlink:href="#d1" x="3.009523" y="45.075000" />
<use xlink:href="#d1" x="3.390476" y="45.075000" />
<path d="M3.390476,45.150000 L3.390476,45.000000 L4.009523,45.000000 L4.009523,45.150000 Z" fill="#133d91ff" />
<use xlink:href="#d1" x="4.009523" y="45.075000" />
<use xlink:href="#d1" x="4.009523" y="45.075000" />
<path d="M3.953079747896984162435402892487100986432032225175667629306,45.025612154409861142130977530926213363128028197028709175642 L4.065966252103015837564597107512899013567967774824332370694,45.124387845590138857869022469073786636871971802971290824358 L3.732633252103015837564597107512899013567967774824332370694,45.505339845590138857869022469073786636871971802971290824358 L3.619746747896984162435402892487100986432032225175667629306,45.406564154409861142130977530926213363128028197028709175642 Z" fill="#133d91ff" />
<use xlink:href="#d1" x="3.676190" y="45.455952" />
<use xlink:href="#d1" x="3.676190" y="45.455952" />
<path d="M3.676190,45.530952 L3.676190,45.380952 L3.819047,45.380952 L3.819047,45.530952 Z" fill="#133d91ff" />
<use xlink:href="#d1" x="3.819047" y="45.455952" />
<use xlink:href="#d1" x="3.819047" y="45.455952" />
<path d="M3.785505980337503154553862394969030856468390724605827114136,45.523034039324993690892275210061938287063218550788345771728 L3.852588019662496845446137605030969143531609275394172885864,45.388869960675006309107724789938061712936781449211654228272 L3.947826019662496845446137605030969143531609275394172885864,45.436488960675006309107724789938061712936781449211654228272 L3.880743980337503154553862394969030856468390724605827114136,45.570653039324993690892275210061938287063218550788345771728 Z" fill="#133d91ff" />
<use xlink:href="#d1" x="3.914285" y="45.503571" />
<use xlink:href="#d1" x="3.914285" y="45.503571" />
<path d="M3.861251991411008935669936672842136322053637304673364447256,45.556604008588991064330063327157863677946362695326635552744 L3.967318008588991064330063327157863677946362695326635552744,45.450537991411008935669936672842136322053637304673364447256 L4.014937008588991064330063327157863677946362695326635552744,45.498156991411008935669936672842136322053637304673364447256 L3.908870991411008935669936672842136322053637304673364447256,45.604223008588991064330063327157863677946362695326635552744 Z" fill="#133d91ff" />
<use xlink:href="#d1" x="3.961904" y="45.551190" />
<use xlink:href="#d1" x="3.961904" y="45.551190" />
<path d="M3.894821960675006309107724789938061712936781449211654228272,45.584731019662496845446137605030969143531609275394172885864 L4.028986039324993690892275210061938287063218550788345771728,45.517648980337503154553862394969030856468390724605827114136 L4.076605039324993690892275210061938287063218550788345771728,45.612886980337503154553862394969030856468390724605827114136 L3.942440960675006309107724789938061712936781449211654228272,45.679969019662496845446137605030969143531609275394172885864 Z" fill="#133d91ff" />
<use xlink:href="#d1" x="4.009523" y="45.646428" />
<use xlink:href="#d1" x="4.009523" y="45.646428" />
<path d="M3.934523,45.646428 L4.084523,45.646428 L4.084523,45.884523 L3.934523,45.884523 Z" fill="#133d91ff" />
<use xlink:href="#d1" x="4.009523" y="45.884523" />
<use xlink:href="#d1" x="4.009523" y="45.884523" />
<path d="M3.942440960675006309107724789938061712936781449211654228272,45.850981980337503154553862394969030856468390724605827114136 L4.076605039324993690892275210061938287063218550788345771728,45.918064019662496845446137605030969143531609275394172885864 L4.028986039324993690892275210061938287063218550788345771728,46.013302019662496845446137605030969143531609275394172885864 L3.894821960675006309107724789938061712936781449211654228272,45.946219980337503154553862394969030856468390724605827114136 Z" fill="#133d91ff" />
<use xlink:href="#d1" x="3.961904" y="45.979761" />
<use xlink:href="#d1" x="3.961904" y="45.979761" />
<path d="M3.908870434572632163364449731700438101474212771967714094824,45.926728548255232486082564715956387273290645484845245222205 L4.014937565427367836635550268299561898525787228032285905176,46.032793451744767513917435284043612726709354515154754777795 L3.967318565427367836635550268299561898525787228032285905176,46.080413451744767513917435284043612726709354515154754777795 L3.861251434572632163364449731700438101474212771967714094824,45.974348548255232486082564715956387273290645484845245222205 Z" fill="#133d91ff" />
<use xlink:href="#d1" x="3.914285" y="46.027381" />
<use xlink:href="#d1" x="3.914285" y="46.027381" />
<path d="M3.880743980337503154553862394969030856468390724605827114136,45.960298960675006309107724789938061712936781449211654228272 L3.947826019662496845446137605030969143531609275394172885864,46.094463039324993690892275210061938287063218550788345771728 L3.852588019662496845446137605030969143531609275394172885864,46.142082039324993690892275210061938287063218550788345771728 L3.785505980337503154553862394969030856468390724605827114136,46.007917960675006309107724789938061712936781449211654228272 Z" fill="#133d91ff" />
<use xlink:href="#d1" x="3.819047" y="46.075000" />
<use xlink:href="#d1" x="3.819047" y="46.075000" />
<path d="M3.819047,46.000000 L3.819047,46.150000 L3.533333,46.150000 L3.533333,46.000000 Z" fill="#133d91ff" />
<use xlink:href="#d1" x="3.533333" y="46.075000" />
<use xlink:href="#d1" x="3.533333" y="46.075000" />
<path d="M3.566874019662496845446137605030969143531609275394172885864,46.007917960675006309107724789938061712936781449211654228272 L3.499791980337503154553862394969030856468390724605827114136,46.142082039324993690892275210061938287063218550788345771728 L3.404553980337503154553862394969030856468390724605827114136,46.094463039324993690892275210061938287063218550788345771728 L3.471636019662496845446137605030969143531609275394172885864,45.960298960675006309107724789938061712936781449211654228272 Z" fill="#133d91ff" />
<use xlink:href="#d1" x="3.438095" y="46.027381" />
<use xlink:href="#d1" x="3.438095" y="46.027381" />
<path d="M3.491128565427367836635550268299561898525787228032285905176,45.974348548255232486082564715956387273290645484845245222205 L3.385061434572632163364449731700438101474212771967714094824,46.080413451744767513917435284043612726709354515154754777795 L3.337442434572632163364449731700438101474212771967714094824,46.032793451744767513917435284043612726709354515154754777795 L3.443509565427367836635550268299561898525787228032285905176,45.926728548255232486082564715956387273290645484845245222205 Z" fill="#133d91ff" />
<use xlink:href="#d1" x="3.390476" y="45.979761" />
<use xlink:href="#d1" x="32.438095" y="1.075000" />
<path d="M32.513095,1.075000 L32.363095,1.075000 L32.363095,0.075000 L32.513095,0.075000 Z" fill="#133d91ff" />
<use xlink:href="#d1" x="32.438095" y="0.075000" />
<use xlink:href="#d1" x="32.438095" y="0.551190" />
<path d="M32.438095,0.626190 L32.438095,0.476190 L33.009523,0.476190 L33.009523,0.626190 Z" fill="#133d91ff" />
<use xlink:href="#d1" x="33.009523" y="0.551190" />
<use xlink:href="#d1" x="33.009523" y="1.075000" />
<path d="M33.084523,1.075000 L32.934523,1.075000 L32.934523,0.075000 L33.084523,0.075000 Z" fill="#133d91ff" />
<use xlink:href="#d1" x="33.009523" y="0.075000" />
<use xlink:href="#d1" x="33.438095" y="0.170238" />
<path d="M33.491128008588991064330063327157863677946362695326635552744,0.2232710085889910643300633271578636779463626953266355527441 L33.385061991411008935669936672842136322053637304673364447256,0.1172049914110089356699366728421363220536373046733644472559 L33.432680991411008935669936672842136322053637304673364447256,0.0695859914110089356699366728421363220536373046733644472559 L33.538747008588991064330063327157863677946362695326635552744,0.1756520085889910643300633271578636779463626953266355527441 Z" fill="#133d91ff" />
<use xlink:href="#d1" x="33.485714" y="0.122619" />
<use xlink:href="#d1" x="33.485714" y="0.122619" />
<path d="M33.519255019662496845446137605030969143531609275394172885864,0.1897010393249936908922752100619382870632185507883457717281 L33.452172980337503154553862394969030856468390724605827114136,0.0555369606750063091077247899380617129367814492116542282719 L33.547410980337503154553862394969030856468390724605827114136,0.0079179606750063091077247899380617129367814492116542282719 L33.614493019662496845446137605030969143531609275394172885864,0.1420820393249936908922752100619382870632185507883457717281 Z" fill="#133d91ff" />
<use xlink:href="#d1" x="33.580952" y="0.075000" />
<use xlink:href="#d1" x="33.580952" y="0.075000" />
<path d="M33.580952,0.150000 L33.580952,0.000000 L33.819047,0.000000 L33.819047,0.150000 Z" fill="#133d91ff" />
<use xlink:href="#d1" x="33.819047" y="0.075000" />
<use xlink:href="#d1" x="33.819047" y="0.075000" />
<path d="M33.785505980337503154553862394969030856468390724605827114136,0.1420820393249936908922752100619382870632185507883457717281 L33.852588019662496845446137605030969143531609275394172885864,0.0079179606750063091077247899380617129367814492116542282719 L33.947826019662496845446137605030969143531609275394172885864,0.0555369606750063091077247899380617129367814492116542282719 L33.880743980337503154553862394969030856468390724605827114136,0.1897010393249936908922752100619382870632185507883457717281 Z" fill="#133d91ff" />
<use xlink:href="#d1" x="33.914285" y="0.122619" />
<use xlink:href="#d1" x="33.914285" y="0.122619" />
<path d="M33.861251991411008935669936672842136322053637304673364447256,0.1756520085889910643300633271578636779463626953266355527441 L33.967318008588991064330063327157863677946362695326635552744,0.0695859914110089356699366728421363220536373046733644472559 L34.014937008588991064330063327157863677946362695326635552744,0.1172049914110089356699366728421363220536373046733644472559 L33.908870991411008935669936672842136322053637304673364447256,0.2232710085889910643300633271578636779463626953266355527441 Z" fill="#133d91ff" />
<use xlink:href="#d1" x="33.961904" y="0.170238" />
<use xlink:href="#d1" x="33.961904" y="0.170238" />
<path d="M33.894821960675006309107724789938061712936781449211654228272,0.2037790196624968454461376050309691435316092753941728858641 L34.028986039324993690892275210061938287063218550788345771728,0.1366969803375031545538623949690308564683907246058271141359 L34.076605039324993690892275210061938287063218550788345771728,0.2319349803375031545538623949690308564683907246058271141359 L33.942440960675006309107724789938061712936781449211654228272,0.2990170196624968454461376050309691435316092753941728858641 Z" fill="#133d91ff" />
<use xlink:href="#d1" x="34.009523" y="0.265476" />
<use xlink:href="#d1" x="34.009523" y="0.265476" />
<path d="M33.934523,0.265476 L34.084523,0.265476 L34.084523,0.360714 L33.934523,0.360714 Z" fill="#133d91ff" />
<use xlink:href="#d1" x="34.009523" y="0.360714" />
<use xlink:href="#d1" x="34.009523" y="0.360714" />
<path d="M33.938371752646211465030024895250263832991310009365182621396,0.3369969175487371550100082984167546109971033364550608737986 L34.080674247353788534969975104749736167008689990634817378604,0.3844310824512628449899917015832453890028966635449391262014 L34.033055247353788534969975104749736167008689990634817378604,0.5272880824512628449899917015832453890028966635449391262014 L33.890752752646211465030024895250263832991310009365182621396,0.4798539175487371550100082984167546109971033364550608737986 Z" fill="#133d91ff" />
<use xlink:href="#d1" x="33.961904" y="0.503571" />
<use xlink:href="#d1" x="33.961904" y="0.503571" />
<path d="M33.908870945007140921538155782406981665275331332011334103934,0.4505380378149175532090693374491961713965375092768701349472 L34.014937054992859078461844217593018334724668667988665896066,0.5566039621850824467909306625508038286034624907231298650528 L33.443509054992859078461844217593018334724668667988665896066,1.1280329621850824467909306625508038286034624907231298650528 L33.337442945007140921538155782406981665275331332011334103934,1.0219670378149175532090693374491961713965375092768701349472 Z" fill="#133d91ff" />
<use xlink:href="#d1" x="33.390476" y="1.075000" />
<use xlink:href="#d1" x="33.390476" y="1.075000" />
<path d="M33.390476,1.150000 L33.390476,1.000000 L34.009523,1.000000 L34.009523,1.150000 Z" fill="#133d91ff" />
<use xlink:href="#d1" x="34.009523" y="1.075000" />
<use xlink:href="#d1" x="10.938095" y="22.925000" />
<path d="M10.863095,22.925000 L11.013095,22.925000 L11.013095,23.734523 L10.863095,23.734523 Z" fill="#133d91ff" />
<use xlink:href="#d1" x="10.938095" y="23.734523" />
<use xlink:href="#d1" x="10.938095" y="23.734523" />
<path d="M10.871012960675006309107724789938061712936781449211654228272,23.7680640196624968454461376050309691435316092753941728858641 L11.005177039324993690892275210061938287063218550788345771728,23.7009819803375031545538623949690308564683907246058271141359 L11.052796039324993690892275210061938287063218550788345771728,23.7962199803375031545538623949690308564683907246058271141359 L10.918631960675006309107724789938061712936781449211654228272,23.8633020196624968454461376050309691435316092753941728858641 Z" fill="#133d91ff" />
<use xlink:href="#d1" x="10.985714" y="23.829761" />
<use xlink:href="#d1" x="10.985714" y="23.829761" />
<path d="M10.932680434572632163364449731700438101474212771967714094824,23.8827934517447675139174352840436127267093545151547547777950 L11.038747565427367836635550268299561898525787228032285905176,23.7767285482552324860825647159563872732906454848452452222050 L11.086366565427367836635550268299561898525787228032285905176,23.8243485482552324860825647159563872732906454848452452222050 L10.980299434572632163364449731700438101474212771967714094824,23.9304134517447675139174352840436127267093545151547547777950 Z" fill="#133d91ff" />
<use xlink:href="#d1" x="11.033333" y="23.877381" />
<use xlink:href="#d1" x="11.033333" y="23.877381" />
<path d="M10.999791980337503154553862394969030856468390724605827114136,23.9444630393249936908922752100619382870632185507883457717281 L11.066874019662496845446137605030969143531609275394172885864,23.8102989606750063091077247899380617129367814492116542282719 L11.162112019662496845446137605030969143531609275394172885864,23.8579179606750063091077247899380617129367814492116542282719 L11.095029980337503154553862394969030856468390724605827114136,23.9920820393249936908922752100619382870632185507883457717281 Z" fill="#133d91ff" />
<use xlink:href="#d1" x="11.128571" y="23.925000" />
<use xlink:href="#d1" x="11.128571" y="23.925000" />
<path d="M11.128571,24.000000 L11.128571,23.850000 L11.319047,23.850000 L11.319047,24.000000 Z" fill="#133d91ff" />
<use xlink:href="#d1" x="11.319047" y="23.925000" />
<use xlink:href="#d1" x="11.319047" y="23.925000" />
<path d="M11.352588019662496845446137605030969143531609275394172885864,23.9920820393249936908922752100619382870632185507883457717281 L11.285505980337503154553862394969030856468390724605827114136,23.8579179606750063091077247899380617129367814492116542282719 L11.380743980337503154553862394969030856468390724605827114136,23.8102989606750063091077247899380617129367814492116542282719 L11.447826019662496845446137605030969143531609275394172885864,23.9444630393249936908922752100619382870632185507883457717281 Z" fill="#133d91ff" />
<use xlink:href="#d1" x="11.414285" y="23.877381" />
<use xlink:href="#d1" x="11.414285" y="23.877381" />
<path d="M11.467318565427367836635550268299561898525787228032285905176,23.9304134517447675139174352840436127267093545151547547777950 L11.361251434572632163364449731700438101474212771967714094824,23.8243485482552324860825647159563872732906454848452452222050 L11.408870434572632163364449731700438101474212771967714094824,23.7767285482552324860825647159563872732906454848452452222050 L11.514937565427367836635550268299561898525787228032285905176,23.8827934517447675139174352840436127267093545151547547777950 Z" fill="#133d91ff" />
<use xlink:href="#d1" x="11.461904" y="23.829761" />
<use xlink:href="#d1" x="11.461904" y="23.829761" />
<path d="M11.528986039324993690892275210061938287063218550788345771728,23.8633020196624968454461376050309691435316092753941728858641 L11.394821960675006309107724789938061712936781449211654228272,23.7962199803375031545538623949690308564683907246058271141359 L11.442440960675006309107724789938061712936781449211654228272,23.7009819803375031545538623949690308564683907246058271141359 L11.576605039324993690892275210061938287063218550788345771728,23.7680640196624968454461376050309691435316092753941728858641 Z" fill="#133d91ff" />
<use xlink:href="#d1" x="11.509523" y="23.734523" />
<use xlink:href="#d1" x="11.509523" y="23.734523" />
<path d="M11.584523,23.734523 L11.434523,23.734523 L11.434523,22.925000 L11.584523,22.925000 Z" fill="#133d91ff" />
<use xlink:href="#d1" x="11.509523" y="22.925000" />
<use xlink:href="#d1" x="12.509523" y="23.925000" />
<path d="M12.509523,23.850000 L12.509523,24.000000 L11.938095,24.000000 L11.938095,23.850000 Z" fill="#133d91ff" />
<use xlink:href="#d1" x="11.938095" y="23.925000" />
<use xlink:href="#d1" x="12.223809" y="23.925000" />
<path d="M12.298809,23.925000 L12.148809,23.925000 L12.148809,22.925000 L12.298809,22.925000 Z" fill="#133d91ff" />
<use xlink:href="#d1" x="12.223809" y="22.925000" />
<use xlink:href="#d1" x="12.223809" y="22.925000" />
<path d="M12.161405227924661723772936554986087570161035251606524584780,22.8833974852831078158486243699907250467740235010710163898533 L12.286212772075338276227063445013912429838964748393475415220,22.9666025147168921841513756300092749532259764989289836101467 L12.190974772075338276227063445013912429838964748393475415220,23.1094595147168921841513756300092749532259764989289836101467 L12.066167227924661723772936554986087570161035251606524584780,23.0262544852831078158486243699907250467740235010710163898533 Z" fill="#133d91ff" />
<use xlink:href="#d1" x="12.128571" y="23.067857" />
<use xlink:href="#d1" x="12.128571" y="23.067857" />
<path d="M12.075537991411008935669936672842136322053637304673364447256,23.0148239914110089356699366728421363220536373046733644472559 L12.181604008588991064330063327157863677946362695326635552744,23.1208900085889910643300633271578636779463626953266355527441 L12.086366008588991064330063327157863677946362695326635552744,23.2161280085889910643300633271578636779463626953266355527441 L11.980299991411008935669936672842136322053637304673364447256,23.1100619914110089356699366728421363220536373046733644472559 Z" fill="#133d91ff" />
<use xlink:href="#d1" x="12.033333" y="23.163095" />
<use xlink:href="#d1" x="12.033333" y="23.163095" />
<path d="M11.999791980337503154553862394969030856468390724605827114136,23.0960129606750063091077247899380617129367814492116542282719 L12.066874019662496845446137605030969143531609275394172885864,23.2301770393249936908922752100619382870632185507883457717281 L11.971636019662496845446137605030969143531609275394172885864,23.2777960393249936908922752100619382870632185507883457717281 L11.904553980337503154553862394969030856468390724605827114136,23.1436319606750063091077247899380617129367814492116542282719 Z" fill="#133d91ff" />
<use xlink:href="#d1" x="11.938095" y="23.210714" />
<use xlink:href="#d1" x="15.533333" y="32.425000" />
<path d="M15.533333,32.350000 L15.533333,32.500000 L15.057143,32.500000 L15.057143,32.350000 Z" fill="#133d91ff" />
<use xlink:href="#d1" x="15.057143" y="32.425000" />
<use xlink:href="#d1" x="15.057143" y="32.425000" />
<path d="M15.132143,32.425000 L14.982143,32.425000 L14.982143,31.425000 L15.132143,31.425000 Z" fill="#133d91ff" />
<use xlink:href="#d1" x="15.057143" y="31.425000" />
<use xlink:href="#d1" x="16.390476" y="32.425000" />
<path d="M16.390476,32.350000 L16.390476,32.500000 L15.819048,32.500000 L15.819048,32.350000 Z" fill="#133d91ff" />
<use xlink:href="#d1" x="15.819048" y="32.425000" />
<use xlink:href="#d1" x="16.104762" y="32.425000" />
<path d="M16.179762,32.425000 L16.029762,32.425000 L16.029762,31.425000 L16.179762,31.425000 Z" fill="#133d91ff" />
<use xlink:href="#d1" x="16.104762" y="31.425000" />
<use xlink:href="#d1" x="16.104762" y="31.425000" />
<path d="M16.042358227924661723772936554986087570161035251606524584780,31.383397485283107815848624369990725046774023501071016389853 L16.167165772075338276227063445013912429838964748393475415220,31.466602514716892184151375630009274953225976498928983610147 L16.071927772075338276227063445013912429838964748393475415220,31.609459514716892184151375630009274953225976498928983610147 L15.947120227924661723772936554986087570161035251606524584780,31.526254485283107815848624369990725046774023501071016389853 Z" fill="#133d91ff" />
<use xlink:href="#d1" x="16.009524" y="31.567857" />
<use xlink:href="#d1" x="16.009524" y="31.567857" />
<path d="M15.956490991411008935669936672842136322053637304673364447256,31.514823991411008935669936672842136322053637304673364447256 L16.062557008588991064330063327157863677946362695326635552744,31.620890008588991064330063327157863677946362695326635552744 L15.967319008588991064330063327157863677946362695326635552744,31.716128008588991064330063327157863677946362695326635552744 L15.861252991411008935669936672842136322053637304673364447256,31.610061991411008935669936672842136322053637304673364447256 Z" fill="#133d91ff" />
<use xlink:href="#d1" x="15.914286" y="31.663095" />
<use xlink:href="#d1" x="15.914286" y="31.663095" />
<path d="M15.880744980337503154553862394969030856468390724605827114136,31.596012960675006309107724789938061712936781449211654228272 L15.947827019662496845446137605030969143531609275394172885864,31.730177039324993690892275210061938287063218550788345771728 L15.852589019662496845446137605030969143531609275394172885864,31.777796039324993690892275210061938287063218550788345771728 L15.785506980337503154553862394969030856468390724605827114136,31.643631960675006309107724789938061712936781449211654228272 Z" fill="#133d91ff" />
<use xlink:href="#d1" x="15.819048" y="31.710714" />
<use xlink:href="#d1" x="2.438095" y="1.075000" />
<path d="M2.513095,1.075000 L2.363095,1.075000 L2.363095,0.075000 L2.513095,0.075000 Z" fill="#133d91ff" />
<use xlink:href="#d1" x="2.438095" y="0.075000" />
<use xlink:href="#d1" x="2.438095" y="0.551190" />
<path d="M2.438095,0.626190 L2.438095,0.476190 L3.009523,0.476190 L3.009523,0.626190 Z" fill="#133d91ff" />
<use xlink:href="#d1" x="3.009523" y="0.551190" />
<use xlink:href="#d1" x="3.009523" y="1.075000" />
<path d="M3.084523,1.075000 L2.934523,1.075000 L2.934523,0.075000 L3.084523,0.075000 Z" fill="#133d91ff" />
<use xlink:href="#d1" x="3.009523" y="0.075000" />
<use xlink:href="#d1" x="4.009523" y="1.075000" />
<path d="M4.009523,1.000000 L4.009523,1.150000 L3.438095,1.150000 L3.438095,1.000000 Z" fill="#133d91ff" />
<use xlink:href="#d1" x="3.438095" y="1.075000" />
<use xlink:href="#d1" x="3.723809" y="1.075000" />
<path d="M3.798809,1.075000 L3.648809,1.075000 L3.648809,0.075000 L3.798809,0.075000 Z" fill="#133d91ff" />
<use xlink:href="#d1" x="3.723809" y="0.075000" />
<use xlink:href="#d1" x="3.723809" y="0.075000" />
<path d="M3.661405227924661723772936554986087570161035251606524584780,0.0333974852831078158486243699907250467740235010710163898533 L3.786212772075338276227063445013912429838964748393475415220,0.1166025147168921841513756300092749532259764989289836101467 L3.690974772075338276227063445013912429838964748393475415220,0.2594595147168921841513756300092749532259764989289836101467 L3.566167227924661723772936554986087570161035251606524584780,0.1762544852831078158486243699907250467740235010710163898533 Z" fill="#133d91ff" />
<use xlink:href="#d1" x="3.628571" y="0.217857" />
<use xlink:href="#d1" x="3.628571" y="0.217857" />
<path d="M3.575537991411008935669936672842136322053637304673364447256,0.1648239914110089356699366728421363220536373046733644472559 L3.681604008588991064330063327157863677946362695326635552744,0.2708900085889910643300633271578636779463626953266355527441 L3.586366008588991064330063327157863677946362695326635552744,0.3661280085889910643300633271578636779463626953266355527441 L3.480299991411008935669936672842136322053637304673364447256,0.2600619914110089356699366728421363220536373046733644472559 Z" fill="#133d91ff" />
<use xlink:href="#d1" x="3.533333" y="0.313095" />
<use xlink:href="#d1" x="3.533333" y="0.313095" />
<path d="M3.499791980337503154553862394969030856468390724605827114136,0.2460129606750063091077247899380617129367814492116542282719 L3.566874019662496845446137605030969143531609275394172885864,0.3801770393249936908922752100619382870632185507883457717281 L3.471636019662496845446137605030969143531609275394172885864,0.4277960393249936908922752100619382870632185507883457717281 L3.404553980337503154553862394969030856468390724605827114136,0.2936319606750063091077247899380617129367814492116542282719 Z" fill="#133d91ff" />
<use xlink:href="#d1" x="3.438095" y="0.360714" />
<use xlink:href="#d1" x="2.154819" y="37.636847" />
<path d="M2.111809384790410407842610402217971991622041275919495545307,37.575404563528754496317437787565522467509941881606023115669 L2.197828615209589592157389597782028008377958724080504454693,37.698289436471245503682562212434477532490058118393976884331 L1.721637615209589592157389597782028008377958724080504454693,38.031622436471245503682562212434477532490058118393976884331 L1.635618384790410407842610402217971991622041275919495545307,37.908737563528754496317437787565522467509941881606023115669 Z" fill="#133d91ff" />
<use xlink:href="#d1" x="1.678628" y="37.970180" />
<use xlink:href="#d1" x="2.154819" y="38.208275" />
<path d="M2.154819,38.133275 L2.154819,38.283275 L1.154819,38.283275 L1.154819,38.133275 Z" fill="#133d91ff" />
<use xlink:href="#d1" x="1.154819" y="38.208275" />
<use xlink:href="#d1" x="1.154819" y="38.208275" />
<path d="M1.229819,38.208275 L1.079819,38.208275 L1.079819,37.827323 L1.229819,37.827323 Z" fill="#133d91ff" />
<use xlink:href="#d1" x="1.154819" y="37.827323" />
<use xlink:href="#d1" x="1.154819" y="37.827323" />
<path d="M1.221901039324993690892275210061938287063218550788345771728,37.860864019662496845446137605030969143531609275394172885864 L1.087736960675006309107724789938061712936781449211654228272,37.793781980337503154553862394969030856468390724605827114136 L1.135355960675006309107724789938061712936781449211654228272,37.698543980337503154553862394969030856468390724605827114136 L1.269520039324993690892275210061938287063218550788345771728,37.765626019662496845446137605030969143531609275394172885864 Z" fill="#133d91ff" />
<use xlink:href="#d1" x="1.202438" y="37.732085" />
<use xlink:href="#d1" x="1.202438" y="37.732085" />
<path d="M1.255471008588991064330063327157863677946362695326635552744,37.785118008588991064330063327157863677946362695326635552744 L1.149404991411008935669936672842136322053637304673364447256,37.679051991411008935669936672842136322053637304673364447256 L1.197023991411008935669936672842136322053637304673364447256,37.631432991411008935669936672842136322053637304673364447256 L1.303090008588991064330063327157863677946362695326635552744,37.737499008588991064330063327157863677946362695326635552744 Z" fill="#133d91ff" />
<use xlink:href="#d1" x="1.250057" y="37.684466" />
<use xlink:href="#d1" x="1.250057" y="37.684466" />
<path d="M1.283598019662496845446137605030969143531609275394172885864,37.751548039324993690892275210061938287063218550788345771728 L1.216515980337503154553862394969030856468390724605827114136,37.617383960675006309107724789938061712936781449211654228272 L1.311753980337503154553862394969030856468390724605827114136,37.569764960675006309107724789938061712936781449211654228272 L1.378836019662496845446137605030969143531609275394172885864,37.703929039324993690892275210061938287063218550788345771728 Z" fill="#133d91ff" />
<use xlink:href="#d1" x="1.345295" y="37.636847" />
<use xlink:href="#d1" x="1.345295" y="37.636847" />
<path d="M1.345295,37.711847 L1.345295,37.561847 L1.488152,37.561847 L1.488152,37.711847 Z" fill="#133d91ff" />
<use xlink:href="#d1" x="1.488152" y="37.636847" />
<use xlink:href="#d1" x="1.488152" y="37.636847" />
<path d="M1.454610980337503154553862394969030856468390724605827114136,37.703929039324993690892275210061938287063218550788345771728 L1.521693019662496845446137605030969143531609275394172885864,37.569764960675006309107724789938061712936781449211654228272 L1.616931019662496845446137605030969143531609275394172885864,37.617383960675006309107724789938061712936781449211654228272 L1.549848980337503154553862394969030856468390724605827114136,37.751548039324993690892275210061938287063218550788345771728 Z" fill="#133d91ff" />
<use xlink:href="#d1" x="1.583390" y="37.684466" />
<use xlink:href="#d1" x="1.583390" y="37.684466" />
<path d="M1.530356991411008935669936672842136322053637304673364447256,37.737499008588991064330063327157863677946362695326635552744 L1.636423008588991064330063327157863677946362695326635552744,37.631432991411008935669936672842136322053637304673364447256 L1.684042008588991064330063327157863677946362695326635552744,37.679051991411008935669936672842136322053637304673364447256 L1.577975991411008935669936672842136322053637304673364447256,37.785118008588991064330063327157863677946362695326635552744 Z" fill="#133d91ff" />
<use xlink:href="#d1" x="1.631009" y="37.732085" />
<use xlink:href="#d1" x="1.631009" y="37.732085" />
<path d="M1.563926960675006309107724789938061712936781449211654228272,37.765626019662496845446137605030969143531609275394172885864 L1.698091039324993690892275210061938287063218550788345771728,37.698543980337503154553862394969030856468390724605827114136 L1.745710039324993690892275210061938287063218550788345771728,37.793781980337503154553862394969030856468390724605827114136 L1.611545960675006309107724789938061712936781449211654228272,37.860864019662496845446137605030969143531609275394172885864 Z" fill="#133d91ff" />
<use xlink:href="#d1" x="1.678628" y="37.827323" />
<use xlink:href="#d1" x="1.678628" y="37.827323" />
<path d="M1.603628,37.827323 L1.753628,37.827323 L1.753628,38.208275 L1.603628,38.208275 Z" fill="#133d91ff" />
<use xlink:href="#d1" x="1.678628" y="38.208275" />
<use xlink:href="#d1" x="2.154819" y="36.684466" />
<path d="M2.079819,36.684466 L2.229819,36.684466 L2.229819,37.255894 L2.079819,37.255894 Z" fill="#133d91ff" />
<use xlink:href="#d1" x="2.154819" y="37.255894" />
<use xlink:href="#d1" x="2.154819" y="36.970180" />
<path d="M2.154819,36.895180 L2.154819,37.045180 L1.154819,37.045180 L1.154819,36.895180 Z" fill="#133d91ff" />
<use xlink:href="#d1" x="1.154819" y="36.970180" />
<use xlink:href="#d1" x="1.154819" y="36.970180" />
<path d="M1.113216485283107815848624369990725046774023501071016389853,37.032583772075338276227063445013912429838964748393475415220 L1.196421514716892184151375630009274953225976498928983610147,36.907776227924661723772936554986087570161035251606524584780 L1.339278514716892184151375630009274953225976498928983610147,37.003014227924661723772936554986087570161035251606524584780 L1.256073485283107815848624369990725046774023501071016389853,37.127821772075338276227063445013912429838964748393475415220 Z" fill="#133d91ff" />
<use xlink:href="#d1" x="1.297676" y="37.065418" />
<use xlink:href="#d1" x="1.297676" y="37.065418" />
<path d="M1.244642991411008935669936672842136322053637304673364447256,37.118451008588991064330063327157863677946362695326635552744 L1.350709008588991064330063327157863677946362695326635552744,37.012384991411008935669936672842136322053637304673364447256 L1.445947008588991064330063327157863677946362695326635552744,37.107622991411008935669936672842136322053637304673364447256 L1.339880991411008935669936672842136322053637304673364447256,37.213689008588991064330063327157863677946362695326635552744 Z" fill="#133d91ff" />
<use xlink:href="#d1" x="1.392914" y="37.160656" />
<use xlink:href="#d1" x="1.392914" y="37.160656" />
<path d="M1.325831960675006309107724789938061712936781449211654228272,37.194197019662496845446137605030969143531609275394172885864 L1.459996039324993690892275210061938287063218550788345771728,37.127114980337503154553862394969030856468390724605827114136 L1.507615039324993690892275210061938287063218550788345771728,37.222352980337503154553862394969030856468390724605827114136 L1.373450960675006309107724789938061712936781449211654228272,37.289435019662496845446137605030969143531609275394172885864 Z" fill="#133d91ff" />
<use xlink:href="#d1" x="1.440533" y="37.255894" />
<use xlink:href="#d1" x="15.061904" y="24.901190" />
<path d="M15.061904,24.826190 L15.061904,24.976190 L14.728571,24.976190 L14.728571,24.826190 Z" fill="#133d91ff" />
<use xlink:href="#d1" x="14.728571" y="24.901190" />
<use xlink:href="#d1" x="14.728571" y="25.425000" />
<path d="M14.803571,25.425000 L14.653571,25.425000 L14.653571,24.425000 L14.803571,24.425000 Z" fill="#133d91ff" />
<use xlink:href="#d1" x="14.728571" y="24.425000" />
<use xlink:href="#d1" x="14.728571" y="24.425000" />
<path d="M14.728571,24.500000 L14.728571,24.350000 L15.204761,24.350000 L15.204761,24.500000 Z" fill="#133d91ff" />
<use xlink:href="#d1" x="15.204761" y="24.425000" />
<use xlink:href="#d1" x="16.061904" y="25.425000" />
<path d="M16.061904,25.350000 L16.061904,25.500000 L15.585714,25.500000 L15.585714,25.350000 Z" fill="#133d91ff" />
<use xlink:href="#d1" x="15.585714" y="25.425000" />
<use xlink:href="#d1" x="15.585714" y="25.425000" />
<path d="M15.660714,25.425000 L15.510714,25.425000 L15.510714,24.425000 L15.660714,24.425000 Z" fill="#133d91ff" />
<use xlink:href="#d1" x="15.585714" y="24.425000" />
<use xlink:href="#d1" x="16.919047" y="25.425000" />
<path d="M16.919047,25.350000 L16.919047,25.500000 L16.347619,25.500000 L16.347619,25.350000 Z" fill="#133d91ff" />
<use xlink:href="#d1" x="16.347619" y="25.425000" />
<use xlink:href="#d1" x="16.633333" y="25.425000" />
<path d="M16.708333,25.425000 L16.558333,25.425000 L16.558333,24.425000 L16.708333,24.425000 Z" fill="#133d91ff" />
<use xlink:href="#d1" x="16.633333" y="24.425000" />
<use xlink:href="#d1" x="16.633333" y="24.425000" />
<path d="M16.570929227924661723772936554986087570161035251606524584780,24.3833974852831078158486243699907250467740235010710163898533 L16.695736772075338276227063445013912429838964748393475415220,24.4666025147168921841513756300092749532259764989289836101467 L16.600498772075338276227063445013912429838964748393475415220,24.6094595147168921841513756300092749532259764989289836101467 L16.475691227924661723772936554986087570161035251606524584780,24.5262544852831078158486243699907250467740235010710163898533 Z" fill="#133d91ff" />
<use xlink:href="#d1" x="16.538095" y="24.567857" />
<use xlink:href="#d1" x="16.538095" y="24.567857" />
<path d="M16.485061991411008935669936672842136322053637304673364447256,24.5148239914110089356699366728421363220536373046733644472559 L16.591128008588991064330063327157863677946362695326635552744,24.6208900085889910643300633271578636779463626953266355527441 L16.495890008588991064330063327157863677946362695326635552744,24.7161280085889910643300633271578636779463626953266355527441 L16.389823991411008935669936672842136322053637304673364447256,24.6100619914110089356699366728421363220536373046733644472559 Z" fill="#133d91ff" />
<use xlink:href="#d1" x="16.442857" y="24.663095" />
<use xlink:href="#d1" x="16.442857" y="24.663095" />
<path d="M16.409315980337503154553862394969030856468390724605827114136,24.5960129606750063091077247899380617129367814492116542282719 L16.476398019662496845446137605030969143531609275394172885864,24.7301770393249936908922752100619382870632185507883457717281 L16.381160019662496845446137605030969143531609275394172885864,24.7777960393249936908922752100619382870632185507883457717281 L16.314077980337503154553862394969030856468390724605827114136,24.6436319606750063091077247899380617129367814492116542282719 Z" fill="#133d91ff" />
<use xlink:href="#d1" x="16.347619" y="24.710714" />
<use xlink:href="#d1" x="32.438095" y="46.075000" />
<path d="M32.513095,46.075000 L32.363095,46.075000 L32.363095,45.075000 L32.513095,45.075000 Z" fill="#133d91ff" />
<use xlink:href="#d1" x="32.438095" y="45.075000" />
<use xlink:href="#d1" x="32.438095" y="45.551190" />
<path d="M32.438095,45.626190 L32.438095,45.476190 L33.009523,45.476190 L33.009523,45.626190 Z" fill="#133d91ff" />
<use xlink:href="#d1" x="33.009523" y="45.551190" />
<use xlink:href="#d1" x="33.009523" y="46.075000" />
<path d="M33.084523,46.075000 L32.934523,46.075000 L32.934523,45.075000 L33.084523,45.075000 Z" fill="#133d91ff" />
<use xlink:href="#d1" x="33.009523" y="45.075000" />
<use xlink:href="#d1" x="33.914285" y="45.408333" />
<path d="M33.839285,45.408333 L33.989285,45.408333 L33.989285,46.075000 L33.839285,46.075000 Z" fill="#133d91ff" />
<use xlink:href="#d1" x="33.914285" y="46.075000" />
<use xlink:href="#d1" x="33.676190" y="45.027381" />
<path d="M33.605038752646211465030024895250263832991310009365182621396,45.003663917548737155010008298416754610997103336455060873799 L33.747341247353788534969975104749736167008689990634817378604,45.051098082451262844989991701583245389002896663544939126201 L33.509246247353788534969975104749736167008689990634817378604,45.765383082451262844989991701583245389002896663544939126201 L33.366943752646211465030024895250263832991310009365182621396,45.717948917548737155010008298416754610997103336455060873799 Z" fill="#133d91ff" />
<use xlink:href="#d1" x="33.438095" y="45.741666" />
<use xlink:href="#d1" x="33.438095" y="45.741666" />
<path d="M33.438095,45.816666 L33.438095,45.666666 L34.057142,45.666666 L34.057142,45.816666 Z" fill="#133d91ff" />
<use xlink:href="#d1" x="34.057142" y="45.741666" />
<use xlink:href="#d1" x="33.616666" y="19.385000" />
<path d="M33.541666,19.385000 L33.691666,19.385000 L33.691666,20.099285 L33.541666,20.099285 Z" fill="#133d91ff" />
<use xlink:href="#d1" x="33.616666" y="20.099285" />
<use xlink:href="#d1" x="33.616666" y="20.099285" />
<path d="M33.545514752646211465030024895250263832991310009365182621396,20.0755679175487371550100082984167546109971033364550608737986 L33.687817247353788534969975104749736167008689990634817378604,20.1230020824512628449899917015832453890028966635449391262014 L33.640198247353788534969975104749736167008689990634817378604,20.2658590824512628449899917015832453890028966635449391262014 L33.497895752646211465030024895250263832991310009365182621396,20.2184249175487371550100082984167546109971033364550608737986 Z" fill="#133d91ff" />
<use xlink:href="#d1" x="33.569047" y="20.242142" />
<use xlink:href="#d1" x="33.569047" y="20.242142" />
<path d="M33.516013712989627996216285279245934085793550784011768117293,20.1891092698338515849982315797606471137118847275560723228380 L33.622080287010372003783714720754065914206449215988231882707,20.2951747301661484150017684202393528862881152724439276771620 L33.526842287010372003783714720754065914206449215988231882707,20.3904137301661484150017684202393528862881152724439276771620 L33.420775712989627996216285279245934085793550784011768117293,20.2843482698338515849982315797606471137118847275560723228380 Z" fill="#133d91ff" />
<use xlink:href="#d1" x="33.473809" y="20.337381" />
<use xlink:href="#d1" x="33.473809" y="20.337381" />
<path d="M33.450091917548737155010008298416754610997103336455060873799,20.2662297526462114650300248952502638329913100093651826213957 L33.497526082451262844989991701583245389002896663544939126201,20.4085322473537885349699751047497361670086899906348173786043 L33.354669082451262844989991701583245389002896663544939126201,20.4561512473537885349699751047497361670086899906348173786043 L33.307234917548737155010008298416754610997103336455060873799,20.3138487526462114650300248952502638329913100093651826213957 Z" fill="#133d91ff" />
<use xlink:href="#d1" x="33.330952" y="20.385000" />
<use xlink:href="#d1" x="33.330952" y="20.385000" />
<path d="M33.330952,20.310000 L33.330952,20.460000 L33.235714,20.460000 L33.235714,20.310000 Z" fill="#133d91ff" />
<use xlink:href="#d1" x="33.235714" y="20.385000" />
<use xlink:href="#d1" x="34.616666" y="20.385000" />
<path d="M34.616666,20.310000 L34.616666,20.460000 L34.045238,20.460000 L34.045238,20.310000 Z" fill="#133d91ff" />
<use xlink:href="#d1" x="34.045238" y="20.385000" />
<use xlink:href="#d1" x="34.330952" y="20.385000" />
<path d="M34.405952,20.385000 L34.255952,20.385000 L34.255952,19.385000 L34.405952,19.385000 Z" fill="#133d91ff" />
<use xlink:href="#d1" x="34.330952" y="19.385000" />
<use xlink:href="#d1" x="34.330952" y="19.385000" />
<path d="M34.268548227924661723772936554986087570161035251606524584780,19.3433974852831078158486243699907250467740235010710163898533 L34.393355772075338276227063445013912429838964748393475415220,19.4266025147168921841513756300092749532259764989289836101467 L34.298117772075338276227063445013912429838964748393475415220,19.5694595147168921841513756300092749532259764989289836101467 L34.173310227924661723772936554986087570161035251606524584780,19.4862544852831078158486243699907250467740235010710163898533 Z" fill="#133d91ff" />
<use xlink:href="#d1" x="34.235714" y="19.527857" />
<use xlink:href="#d1" x="34.235714" y="19.527857" />
<path d="M34.182680991411008935669936672842136322053637304673364447256,19.4748239914110089356699366728421363220536373046733644472559 L34.288747008588991064330063327157863677946362695326635552744,19.5808900085889910643300633271578636779463626953266355527441 L34.193509008588991064330063327157863677946362695326635552744,19.6761280085889910643300633271578636779463626953266355527441 L34.087442991411008935669936672842136322053637304673364447256,19.5700619914110089356699366728421363220536373046733644472559 Z" fill="#133d91ff" />
<use xlink:href="#d1" x="34.140476" y="19.623095" />
<use xlink:href="#d1" x="34.140476" y="19.623095" />
<path d="M34.106934980337503154553862394969030856468390724605827114136,19.5560129606750063091077247899380617129367814492116542282719 L34.174017019662496845446137605030969143531609275394172885864,19.6901770393249936908922752100619382870632185507883457717281 L34.078779019662496845446137605030969143531609275394172885864,19.7377960393249936908922752100619382870632185507883457717281 L34.011696980337503154553862394969030856468390724605827114136,19.6036319606750063091077247899380617129367814492116542282719 Z" fill="#133d91ff" />
<use xlink:href="#d1" x="34.045238" y="19.670714" />
<use xlink:href="#d1" x="4.154819" y="37.636847" />
<path d="M4.111809384790410407842610402217971991622041275919495545307,37.575404563528754496317437787565522467509941881606023115669 L4.197828615209589592157389597782028008377958724080504454693,37.698289436471245503682562212434477532490058118393976884331 L3.721637615209589592157389597782028008377958724080504454693,38.031622436471245503682562212434477532490058118393976884331 L3.635618384790410407842610402217971991622041275919495545307,37.908737563528754496317437787565522467509941881606023115669 Z" fill="#133d91ff" />
<use xlink:href="#d1" x="3.678628" y="37.970180" />
<use xlink:href="#d1" x="4.154819" y="38.208275" />
<path d="M4.154819,38.133275 L4.154819,38.283275 L3.154819,38.283275 L3.154819,38.133275 Z" fill="#133d91ff" />
<use xlink:href="#d1" x="3.154819" y="38.208275" />
<use xlink:href="#d1" x="3.154819" y="38.208275" />
<path d="M3.229819,38.208275 L3.079819,38.208275 L3.079819,37.827323 L3.229819,37.827323 Z" fill="#133d91ff" />
<use xlink:href="#d1" x="3.154819" y="37.827323" />
<use xlink:href="#d1" x="3.154819" y="37.827323" />
<path d="M3.221901039324993690892275210061938287063218550788345771728,37.860864019662496845446137605030969143531609275394172885864 L3.087736960675006309107724789938061712936781449211654228272,37.793781980337503154553862394969030856468390724605827114136 L3.135355960675006309107724789938061712936781449211654228272,37.698543980337503154553862394969030856468390724605827114136 L3.269520039324993690892275210061938287063218550788345771728,37.765626019662496845446137605030969143531609275394172885864 Z" fill="#133d91ff" />
<use xlink:href="#d1" x="3.202438" y="37.732085" />
<use xlink:href="#d1" x="3.202438" y="37.732085" />
<path d="M3.255471008588991064330063327157863677946362695326635552744,37.785118008588991064330063327157863677946362695326635552744 L3.149404991411008935669936672842136322053637304673364447256,37.679051991411008935669936672842136322053637304673364447256 L3.197023991411008935669936672842136322053637304673364447256,37.631432991411008935669936672842136322053637304673364447256 L3.303090008588991064330063327157863677946362695326635552744,37.737499008588991064330063327157863677946362695326635552744 Z" fill="#133d91ff" />
<use xlink:href="#d1" x="3.250057" y="37.684466" />
<use xlink:href="#d1" x="3.250057" y="37.684466" />
<path d="M3.283598019662496845446137605030969143531609275394172885864,37.751548039324993690892275210061938287063218550788345771728 L3.216515980337503154553862394969030856468390724605827114136,37.617383960675006309107724789938061712936781449211654228272 L3.311753980337503154553862394969030856468390724605827114136,37.569764960675006309107724789938061712936781449211654228272 L3.378836019662496845446137605030969143531609275394172885864,37.703929039324993690892275210061938287063218550788345771728 Z" fill="#133d91ff" />
<use xlink:href="#d1" x="3.345295" y="37.636847" />
<use xlink:href="#d1" x="3.345295" y="37.636847" />
<path d="M3.345295,37.711847 L3.345295,37.561847 L3.488152,37.561847 L3.488152,37.711847 Z" fill="#133d91ff" />
<use xlink:href="#d1" x="3.488152" y="37.636847" />
<use xlink:href="#d1" x="3.488152" y="37.636847" />
<path d="M3.454610980337503154553862394969030856468390724605827114136,37.703929039324993690892275210061938287063218550788345771728 L3.521693019662496845446137605030969143531609275394172885864,37.569764960675006309107724789938061712936781449211654228272 L3.616931019662496845446137605030969143531609275394172885864,37.617383960675006309107724789938061712936781449211654228272 L3.549848980337503154553862394969030856468390724605827114136,37.751548039324993690892275210061938287063218550788345771728 Z" fill="#133d91ff" />
<use xlink:href="#d1" x="3.583390" y="37.684466" />
<use xlink:href="#d1" x="3.583390" y="37.684466" />
<path d="M3.530356991411008935669936672842136322053637304673364447256,37.737499008588991064330063327157863677946362695326635552744 L3.636423008588991064330063327157863677946362695326635552744,37.631432991411008935669936672842136322053637304673364447256 L3.684042008588991064330063327157863677946362695326635552744,37.679051991411008935669936672842136322053637304673364447256 L3.577975991411008935669936672842136322053637304673364447256,37.785118008588991064330063327157863677946362695326635552744 Z" fill="#133d91ff" />
<use xlink:href="#d1" x="3.631009" y="37.732085" />
<use xlink:href="#d1" x="3.631009" y="37.732085" />
<path d="M3.563926960675006309107724789938061712936781449211654228272,37.765626019662496845446137605030969143531609275394172885864 L3.698091039324993690892275210061938287063218550788345771728,37.698543980337503154553862394969030856468390724605827114136 L3.745710039324993690892275210061938287063218550788345771728,37.793781980337503154553862394969030856468390724605827114136 L3.611545960675006309107724789938061712936781449211654228272,37.860864019662496845446137605030969143531609275394172885864 Z" fill="#133d91ff" />
<use xlink:href="#d1" x="3.678628" y="37.827323" />
<use xlink:href="#d1" x="3.678628" y="37.827323" />
<path d="M3.603628,37.827323 L3.753628,37.827323 L3.753628,38.208275 L3.603628,38.208275 Z" fill="#133d91ff" />
<use xlink:href="#d1" x="3.678628" y="38.208275" />
<use xlink:href="#d1" x="3.250057" y="37.255894" />
<path d="M3.303090008588991064330063327157863677946362695326635552744,37.202860991411008935669936672842136322053637304673364447256 L3.197023991411008935669936672842136322053637304673364447256,37.308927008588991064330063327157863677946362695326635552744 L3.149404991411008935669936672842136322053637304673364447256,37.261308008588991064330063327157863677946362695326635552744 L3.255471008588991064330063327157863677946362695326635552744,37.155241991411008935669936672842136322053637304673364447256 Z" fill="#133d91ff" />
<use xlink:href="#d1" x="3.202438" y="37.208275" />
<use xlink:href="#d1" x="3.202438" y="37.208275" />
<path d="M3.269520039324993690892275210061938287063218550788345771728,37.174733980337503154553862394969030856468390724605827114136 L3.135355960675006309107724789938061712936781449211654228272,37.241816019662496845446137605030969143531609275394172885864 L3.087736960675006309107724789938061712936781449211654228272,37.146578019662496845446137605030969143531609275394172885864 L3.221901039324993690892275210061938287063218550788345771728,37.079495980337503154553862394969030856468390724605827114136 Z" fill="#133d91ff" />
<use xlink:href="#d1" x="3.154819" y="37.113037" />
<use xlink:href="#d1" x="3.154819" y="37.113037" />
<path d="M3.229819,37.113037 L3.079819,37.113037 L3.079819,36.874942 L3.229819,36.874942 Z" fill="#133d91ff" />
<use xlink:href="#d1" x="3.154819" y="36.874942" />
<use xlink:href="#d1" x="3.154819" y="36.874942" />
<path d="M3.221901039324993690892275210061938287063218550788345771728,36.908483019662496845446137605030969143531609275394172885864 L3.087736960675006309107724789938061712936781449211654228272,36.841400980337503154553862394969030856468390724605827114136 L3.135355960675006309107724789938061712936781449211654228272,36.746162980337503154553862394969030856468390724605827114136 L3.269520039324993690892275210061938287063218550788345771728,36.813245019662496845446137605030969143531609275394172885864 Z" fill="#133d91ff" />
<use xlink:href="#d1" x="3.202438" y="36.779704" />
<use xlink:href="#d1" x="3.202438" y="36.779704" />
<path d="M3.255471008588991064330063327157863677946362695326635552744,36.832737008588991064330063327157863677946362695326635552744 L3.149404991411008935669936672842136322053637304673364447256,36.726670991411008935669936672842136322053637304673364447256 L3.197023991411008935669936672842136322053637304673364447256,36.679051991411008935669936672842136322053637304673364447256 L3.303090008588991064330063327157863677946362695326635552744,36.785118008588991064330063327157863677946362695326635552744 Z" fill="#133d91ff" />
<use xlink:href="#d1" x="3.250057" y="36.732085" />
<use xlink:href="#d1" x="3.250057" y="36.732085" />
<path d="M3.283598019662496845446137605030969143531609275394172885864,36.799167039324993690892275210061938287063218550788345771728 L3.216515980337503154553862394969030856468390724605827114136,36.665002960675006309107724789938061712936781449211654228272 L3.311753980337503154553862394969030856468390724605827114136,36.617383960675006309107724789938061712936781449211654228272 L3.378836019662496845446137605030969143531609275394172885864,36.751548039324993690892275210061938287063218550788345771728 Z" fill="#133d91ff" />
<use xlink:href="#d1" x="3.345295" y="36.684466" />
<use xlink:href="#d1" x="3.345295" y="36.684466" />
<path d="M3.345295,36.759466 L3.345295,36.609466 L3.440533,36.609466 L3.440533,36.759466 Z" fill="#133d91ff" />
<use xlink:href="#d1" x="3.440533" y="36.684466" />
<use xlink:href="#d1" x="3.440533" y="36.684466" />
<path d="M3.416815917548737155010008298416754610997103336455060873799,36.755617247353788534969975104749736167008689990634817378604 L3.464250082451262844989991701583245389002896663544939126201,36.613314752646211465030024895250263832991310009365182621396 L3.607107082451262844989991701583245389002896663544939126201,36.660933752646211465030024895250263832991310009365182621396 L3.559672917548737155010008298416754610997103336455060873799,36.803236247353788534969975104749736167008689990634817378604 Z" fill="#133d91ff" />
<use xlink:href="#d1" x="3.583390" y="36.732085" />
<use xlink:href="#d1" x="3.583390" y="36.732085" />
<path d="M3.530357037814917553209069337449196171396537509276870134947,36.785118054992859078461844217593018334724668667988665896066 L3.636422962185082446790930662550803828603462490723129865053,36.679051945007140921538155782406981665275331332011334103934 L4.207851962185082446790930662550803828603462490723129865053,37.250479945007140921538155782406981665275331332011334103934 L4.101786037814917553209069337449196171396537509276870134947,37.356546054992859078461844217593018334724668667988665896066 Z" fill="#133d91ff" />
<use xlink:href="#d1" x="4.154819" y="37.303513" />
<use xlink:href="#d1" x="4.154819" y="37.303513" />
<path d="M4.229819,37.303513 L4.079819,37.303513 L4.079819,36.684466 L4.229819,36.684466 Z" fill="#133d91ff" />
<use xlink:href="#d1" x="4.154819" y="36.684466" />
<use xlink:href="#d1" x="12.533333" y="36.925000" />
<path d="M12.533333,36.850000 L12.533333,37.000000 L12.057143,37.000000 L12.057143,36.850000 Z" fill="#133d91ff" />
<use xlink:href="#d1" x="12.057143" y="36.925000" />
<use xlink:href="#d1" x="12.057143" y="36.925000" />
<path d="M12.132143,36.925000 L11.982143,36.925000 L11.982143,35.925000 L12.132143,35.925000 Z" fill="#133d91ff" />
<use xlink:href="#d1" x="12.057143" y="35.925000" />
<use xlink:href="#d1" x="12.819048" y="36.020238" />
<path d="M12.872081008588991064330063327157863677946362695326635552744,36.073271008588991064330063327157863677946362695326635552744 L12.766014991411008935669936672842136322053637304673364447256,35.967204991411008935669936672842136322053637304673364447256 L12.813633991411008935669936672842136322053637304673364447256,35.919585991411008935669936672842136322053637304673364447256 L12.919700008588991064330063327157863677946362695326635552744,36.025652008588991064330063327157863677946362695326635552744 Z" fill="#133d91ff" />
<use xlink:href="#d1" x="12.866667" y="35.972619" />
<use xlink:href="#d1" x="12.866667" y="35.972619" />
<path d="M12.900208019662496845446137605030969143531609275394172885864,36.039701039324993690892275210061938287063218550788345771728 L12.833125980337503154553862394969030856468390724605827114136,35.905536960675006309107724789938061712936781449211654228272 L12.928363980337503154553862394969030856468390724605827114136,35.857917960675006309107724789938061712936781449211654228272 L12.995446019662496845446137605030969143531609275394172885864,35.992082039324993690892275210061938287063218550788345771728 Z" fill="#133d91ff" />
<use xlink:href="#d1" x="12.961905" y="35.925000" />
<use xlink:href="#d1" x="12.961905" y="35.925000" />
<path d="M12.961905,36.000000 L12.961905,35.850000 L13.200000,35.850000 L13.200000,36.000000 Z" fill="#133d91ff" />
<use xlink:href="#d1" x="13.200000" y="35.925000" />
<use xlink:href="#d1" x="13.200000" y="35.925000" />
<path d="M13.166458980337503154553862394969030856468390724605827114136,35.992082039324993690892275210061938287063218550788345771728 L13.233541019662496845446137605030969143531609275394172885864,35.857917960675006309107724789938061712936781449211654228272 L13.328779019662496845446137605030969143531609275394172885864,35.905536960675006309107724789938061712936781449211654228272 L13.261696980337503154553862394969030856468390724605827114136,36.039701039324993690892275210061938287063218550788345771728 Z" fill="#133d91ff" />
<use xlink:href="#d1" x="13.295238" y="35.972619" />
<use xlink:href="#d1" x="13.295238" y="35.972619" />
<path d="M13.242204991411008935669936672842136322053637304673364447256,36.025652008588991064330063327157863677946362695326635552744 L13.348271008588991064330063327157863677946362695326635552744,35.919585991411008935669936672842136322053637304673364447256 L13.395890008588991064330063327157863677946362695326635552744,35.967204991411008935669936672842136322053637304673364447256 L13.289823991411008935669936672842136322053637304673364447256,36.073271008588991064330063327157863677946362695326635552744 Z" fill="#133d91ff" />
<use xlink:href="#d1" x="13.342857" y="36.020238" />
<use xlink:href="#d1" x="13.342857" y="36.020238" />
<path d="M13.275774960675006309107724789938061712936781449211654228272,36.053779019662496845446137605030969143531609275394172885864 L13.409939039324993690892275210061938287063218550788345771728,35.986696980337503154553862394969030856468390724605827114136 L13.457558039324993690892275210061938287063218550788345771728,36.081934980337503154553862394969030856468390724605827114136 L13.323393960675006309107724789938061712936781449211654228272,36.149017019662496845446137605030969143531609275394172885864 Z" fill="#133d91ff" />
<use xlink:href="#d1" x="13.390476" y="36.115476" />
<use xlink:href="#d1" x="13.390476" y="36.115476" />
<path d="M13.315476,36.115476 L13.465476,36.115476 L13.465476,36.210714 L13.315476,36.210714 Z" fill="#133d91ff" />
<use xlink:href="#d1" x="13.390476" y="36.210714" />
<use xlink:href="#d1" x="13.390476" y="36.210714" />
<path d="M13.319324752646211465030024895250263832991310009365182621396,36.186996917548737155010008298416754610997103336455060873799 L13.461627247353788534969975104749736167008689990634817378604,36.234431082451262844989991701583245389002896663544939126201 L13.414008247353788534969975104749736167008689990634817378604,36.377288082451262844989991701583245389002896663544939126201 L13.271705752646211465030024895250263832991310009365182621396,36.329853917548737155010008298416754610997103336455060873799 Z" fill="#133d91ff" />
<use xlink:href="#d1" x="13.342857" y="36.353571" />
<use xlink:href="#d1" x="13.342857" y="36.353571" />
<path d="M13.289823945007140921538155782406981665275331332011334103934,36.300538037814917553209069337449196171396537509276870134947 L13.395890054992859078461844217593018334724668667988665896066,36.406603962185082446790930662550803828603462490723129865053 L12.824462054992859078461844217593018334724668667988665896066,36.978032962185082446790930662550803828603462490723129865053 L12.718395945007140921538155782406981665275331332011334103934,36.871967037814917553209069337449196171396537509276870134947 Z" fill="#133d91ff" />
<use xlink:href="#d1" x="12.771429" y="36.925000" />
<use xlink:href="#d1" x="12.771429" y="36.925000" />
<path d="M12.771429,37.000000 L12.771429,36.850000 L13.390476,36.850000 L13.390476,37.000000 Z" fill="#133d91ff" />
<use xlink:href="#d1" x="13.390476" y="36.925000" />
<use xlink:href="#d2" x="7.320000" y="22.470181" />
<path d="M7.260000,22.470181 L7.380000,22.470181 L7.380000,23.970181 L7.260000,23.970181 Z" fill="#133d91ff" />
<use xlink:href="#d2" x="7.320000" y="23.970181" />
<use xlink:href="#d2" x="7.320000" y="31.970181" />
<path d="M7.320000,31.910181 L7.320000,32.030181 L0.060000,32.030181 L0.060000,31.910181 Z" fill="#133d91ff" />
<use xlink:href="#d2" x="0.060000" y="31.970181" />
<use xlink:href="#d2" x="7.320000" y="30.470181" />
<path d="M7.260000,30.470181 L7.380000,30.470181 L7.380000,31.970181 L7.260000,31.970181 Z" fill="#133d91ff" />
<use xlink:href="#d2" x="7.320000" y="31.970181" />
<use xlink:href="#d2" x="7.320000" y="22.470181" />
<path d="M7.320000,22.410181 L7.320000,22.530181 L0.060000,22.530181 L0.060000,22.410181 Z" fill="#133d91ff" />
<use xlink:href="#d2" x="0.060000" y="22.470181" />
<use xlink:href="#d2" x="13.385000" y="27.490181" />
<path d="M13.445000,27.490181 L13.325000,27.490181 L13.325000,24.565181 L13.445000,24.565181 Z" fill="#133d91ff" />
<use xlink:href="#d2" x="13.385000" y="24.565181" />
<use xlink:href="#d2" x="13.385000" y="27.490181" />
<path d="M13.325000,27.490181 L13.445000,27.490181 L13.445000,28.990181 L13.325000,28.990181 Z" fill="#133d91ff" />
<use xlink:href="#d2" x="13.385000" y="28.990181" />
<use xlink:href="#d2" x="10.165000" y="27.490181" />
<path d="M10.225000,27.490181 L10.105000,27.490181 L10.105000,25.990181 L10.225000,25.990181 Z" fill="#133d91ff" />
<use xlink:href="#d2" x="10.165000" y="25.990181" />
<use xlink:href="#d2" x="10.165000" y="27.490181" />
<path d="M10.105000,27.490181 L10.225000,27.490181 L10.225000,28.990181 L10.105000,28.990181 Z" fill="#133d91ff" />
<use xlink:href="#d2" x="10.165000" y="28.990181" />
<use xlink:href="#d2" x="16.177064" y="30.455181" />
<path d="M16.177064,30.395181 L16.177064,30.515181 L15.722936,30.515181 L15.722936,30.395181 Z" fill="#133d91ff" />
<use xlink:href="#d2" x="15.722936" y="30.455181" />
<use xlink:href="#d2" x="16.177064" y="28.985181" />
<path d="M16.177064,28.925181 L16.177064,29.045181 L15.722936,29.045181 L15.722936,28.925181 Z" fill="#133d91ff" />
<use xlink:href="#d2" x="15.722936" y="28.985181" />
<use xlink:href="#d2" x="1.992500" y="34.307923" />
<path d="M1.932500,34.307923 L2.052500,34.307923 L2.052500,34.782439 L1.932500,34.782439 Z" fill="#133d91ff" />
<use xlink:href="#d2" x="1.992500" y="34.782439" />
<use xlink:href="#d2" x="0.947500" y="34.307923" />
<path d="M0.887500,34.307923 L1.007500,34.307923 L1.007500,34.782439 L0.887500,34.782439 Z" fill="#133d91ff" />
<use xlink:href="#d2" x="0.947500" y="34.782439" />
<use xlink:href="#d2" x="15.400000" y="28.010181" />
<path d="M15.400000,28.070181 L15.400000,27.950181 L16.200000,27.950181 L16.200000,28.070181 Z" fill="#133d91ff" />
<use xlink:href="#d2" x="16.200000" y="28.010181" />
<use xlink:href="#d2" x="15.400000" y="26.170181" />
<path d="M15.400000,26.230181 L15.400000,26.110181 L16.200000,26.110181 L16.200000,26.230181 Z" fill="#133d91ff" />
<use xlink:href="#d2" x="16.200000" y="26.170181" />
<use xlink:href="#d2" x="31.890000" y="20.930181" />
<path d="M31.890000,20.990181 L31.890000,20.870181 L32.950000,20.870181 L32.950000,20.990181 Z" fill="#133d91ff" />
<use xlink:href="#d2" x="32.950000" y="20.930181" />
<use xlink:href="#d2" x="31.890000" y="21.990181" />
<path d="M31.950000,21.990181 L31.830000,21.990181 L31.830000,20.930181 L31.950000,20.930181 Z" fill="#133d91ff" />
<use xlink:href="#d2" x="31.890000" y="20.930181" />
<use xlink:href="#d2" x="31.890000" y="22.990181" />
<path d="M31.830000,22.990181 L31.950000,22.990181 L31.950000,31.050181 L31.830000,31.050181 Z" fill="#133d91ff" />
<use xlink:href="#d2" x="31.890000" y="31.050181" />
<use xlink:href="#d2" x="31.890000" y="22.990181" />
<path d="M31.890000,23.050181 L31.890000,22.930181 L33.950000,22.930181 L33.950000,23.050181 Z" fill="#133d91ff" />
<use xlink:href="#d2" x="33.950000" y="22.990181" />
<use xlink:href="#d2" x="31.890000" y="31.050181" />
<path d="M31.890000,31.110181 L31.890000,30.990181 L36.010000,30.990181 L36.010000,31.110181 Z" fill="#133d91ff" />
<use xlink:href="#d2" x="36.010000" y="31.050181" />
<use xlink:href="#d2" x="33.950000" y="20.930181" />
<path d="M33.950000,20.990181 L33.950000,20.870181 L36.010000,20.870181 L36.010000,20.990181 Z" fill="#133d91ff" />
<use xlink:href="#d2" x="36.010000" y="20.930181" />
<use xlink:href="#d2" x="33.950000" y="22.990181" />
<path d="M34.010000,22.990181 L33.890000,22.990181 L33.890000,20.930181 L34.010000,20.930181 Z" fill="#133d91ff" />
<use xlink:href="#d2" x="33.950000" y="20.930181" />
<use xlink:href="#d2" x="36.010000" y="20.930181" />
<path d="M35.950000,20.930181 L36.070000,20.930181 L36.070000,31.050181 L35.950000,31.050181 Z" fill="#133d91ff" />
<use xlink:href="#d2" x="36.010000" y="31.050181" />
<use xlink:href="#d2" x="3.972500" y="34.232923" />
<path d="M3.912500,34.232923 L4.032500,34.232923 L4.032500,34.707439 L3.912500,34.707439 Z" fill="#133d91ff" />
<use xlink:href="#d2" x="3.972500" y="34.707439" />
<use xlink:href="#d2" x="2.927500" y="34.232923" />
<path d="M2.867500,34.232923 L2.987500,34.232923 L2.987500,34.707439 L2.867500,34.707439 Z" fill="#133d91ff" />
<use xlink:href="#d2" x="2.927500" y="34.707439" />
<use xlink:href="#d2" x="9.472936" y="35.735181" />
<path d="M9.472936,35.795181 L9.472936,35.675181 L9.927064,35.675181 L9.927064,35.795181 Z" fill="#133d91ff" />
<use xlink:href="#d2" x="9.927064" y="35.735181" />
<use xlink:href="#d2" x="9.472936" y="37.205181" />
<path d="M9.472936,37.265181 L9.472936,37.145181 L9.927064,37.145181 L9.927064,37.265181 Z" fill="#133d91ff" />
<use xlink:href="#d2" x="9.927064" y="37.205181" />
</g>
</svg>