<?xml version="1.0" encoding="UTF-8"?>
<svg xmlns="http://www.w3.org/2000/svg" xmlns:xlink="http://www.w3.org/1999/xlink"
     width="38.3200000" height="53.200000" viewBox="0 0 38.3200000 53.200000">
<defs>
<mask id="d0">
<rect x="-19.1600000" y="-26.600000" width="76.6400000" height="106.400000" fill="white" />
</mask>
<g id="d1">
<circle cx="0" cy="0" r="0.32500" fill="#133d91ff" />
</g>
<g id="d2">
<rect x="-0.5500000" y="-0.1500000" width="1.1000000" height="0.3000000" fill="#133d91ff" transform="rotate(0.0)" />
</g>
<g id="d3">
<rect x="-0.8000000" y="-0.8000000" width="1.6000000" height="1.6000000" fill="#133d91ff" rx="0.800000" ry="0.800000" transform="rotate(0.0)" />
</g>
<g id="d4">
<circle cx="0" cy="0" r="1.80000" fill="#133d91ff" />
</g>
<g id="d5">
<circle cx="0" cy="0" r="2.85000" fill="#133d91ff" />
</g>
<mask id="d6">
<rect x="-19.1600000" y="-26.600000" width="76.6400000" height="106.400000" fill="white" />
</mask>
<g id="d7">
<circle cx="0" cy="0" r="0.10000" fill="#133d91ff" />
</g>
<g id="d8">
<circle cx="0" cy="0" r="0.10000" fill="#133d91ff" />
</g>
<g id="d9">
<circle cx="0" cy="0" r="0.10000" fill="#133d91ff" />
</g>
<g id="d10">
<circle cx="0" cy="0" r="0.10000" fill="#133d91ff" />
</g>
<g mask="url(#d6)" id="d11">
<g></g>
<path d="M-0.100000,0.712500 L-0.100000,-0.712500 L0.100000,-0.712500 L0.100000,0.712500 L-0.100000,0.712500 L-0.100000,0.712500 Z" fill="#155c82ff" />
<use xlink:href="#d7" x="-0.100000" y="0.712500" />
<use xlink:href="#d8" x="-0.100000" y="-0.712500" />
<use xlink:href="#d9" x="0.100000" y="-0.712500" />
<use xlink:href="#d10" x="0.100000" y="0.712500" />
<path d="M-0.200000,0.712500 L0.000000,0.712500 L0.000000,-0.712500 L-0.200000,-0.712500 Z" fill="#133d91ff" />
<path d="M-0.100000,-0.812500 L-0.100000,-0.612500 L0.100000,-0.612500 L0.100000,-0.812500 Z" fill="#133d91ff" />
<path d="M0.200000,-0.712500 L0.000000,-0.712500 L0.000000,0.712500 L0.200000,0.712500 Z" fill="#133d91ff" />
<path d="M0.100000,0.812500 L0.100000,0.612500 L-0.100000,0.612500 L-0.100000,0.812500 Z" fill="#133d91ff" />
</g>
<mask id="d12">
<rect x="-19.1600000" y="-26.600000" width="76.6400000" height="106.400000" fill="white" />
</mask>
<g id="d13">
<circle cx="0" cy="0" r="0.25000" fill="#133d91ff" />
</g>
<g id="d14">
<circle cx="0" cy="0" r="0.25000" fill="#133d91ff" />
</g>
<g id="d15">
<circle cx="0" cy="0" r="0.25000" fill="#133d91ff" />
</g>
<g id="d16">
<circle cx="0" cy="0" r="0.25000" fill="#133d91ff" />
</g>
<g mask="url(#d12)" id="d17">
<g></g>
<path d="M0.262500,0.450000 L-0.262500,0.450000 L-0.262500,-0.450000 L0.262500,-0.450000 L0.262500,0.450000 L0.262500,0.450000 Z" fill="#155c82ff" />
<use xlink:href="#d13" x="0.262500" y="0.450000" />
<use xlink:href="#d14" x="-0.262500" y="0.450000" />
<use xlink:href="#d15" x="-0.262500" y="-0.450000" />
<use xlink:href="#d16" x="0.262500" y="-0.450000" />
<path d="M0.262500,0.700000 L0.262500,0.200000 L-0.262500,0.200000 L-0.262500,0.700000 Z" fill="#133d91ff" />
<path d="M-0.512500,0.450000 L-0.012500,0.450000 L-0.012500,-0.450000 L-0.512500,-0.450000 Z" fill="#133d91ff" />
<path d="M-0.262500,-0.700000 L-0.262500,-0.200000 L0.262500,-0.200000 L0.262500,-0.700000 Z" fill="#133d91ff" />
<path d="M0.512500,-0.450000 L0.012500,-0.450000 L0.012500,0.450000 L0.512500,0.450000 Z" fill="#133d91ff" />
</g>
<mask id="d18">
<rect x="-19.1600000" y="-26.600000" width="76.6400000" height="106.400000" fill="white" />
</mask>
<g id="d19">
<circle cx="0" cy="0" r="0.20000" fill="#133d91ff" />
</g>
<g id="d20">
<circle cx="0" cy="0" r="0.20000" fill="#133d91ff" />
</g>
<g id="d21">
<circle cx="0" cy="0" r="0.20000" fill="#133d91ff" />
</g>
<g id="d22">
<circle cx="0" cy="0" r="0.20000" fill="#133d91ff" />
</g>
<g mask="url(#d18)" id="d23">
<g></g>
<path d="M-0.275000,0.200000 L-0.275000,-0.200000 L0.275000,-0.200000 L0.275000,0.200000 L-0.275000,0.200000 L-0.275000,0.200000 Z" fill="#155c82ff" />
<use xlink:href="#d19" x="-0.275000" y="0.200000" />
<use xlink:href="#d20" x="-0.275000" y="-0.200000" />
<use xlink:href="#d21" x="0.275000" y="-0.200000" />
<use xlink:href="#d22" x="0.275000" y="0.200000" />
<path d="M-0.475000,0.200000 L-0.075000,0.200000 L-0.075000,-0.200000 L-0.475000,-0.200000 Z" fill="#133d91ff" />
<path d="M-0.275000,-0.400000 L-0.275000,0.000000 L0.275000,0.000000 L0.275000,-0.400000 Z" fill="#133d91ff" />
<path d="M0.475000,-0.200000 L0.075000,-0.200000 L0.075000,0.200000 L0.475000,0.200000 Z" fill="#133d91ff" />
<path d="M0.275000,0.400000 L0.275000,0.000000 L-0.275000,0.000000 L-0.275000,0.400000 Z" fill="#133d91ff" />
</g>
<g id="d24">
<rect x="-0.4500000" y="-0.2000000" width="0.9000000" height="0.4000000" fill="#133d91ff" transform="rotate(0.0)" />
</g>
<g id="d25">
<rect x="-0.6750000" y="-0.6750000" width="1.3500000" height="1.3500000" fill="#133d91ff" transform="rotate(0.0)" />
</g>
<g id="d26">
<rect x="-0.6750000" y="-0.6750000" width="1.3500000" height="1.3500000" fill="#133d91ff" rx="0.675000" ry="0.675000" transform="rotate(0.0)" />
</g>
<mask id="d27">
<rect x="-19.1600000" y="-26.600000" width="76.6400000" height="106.400000" fill="white" />
</mask>
<g id="d28">
<circle cx="0" cy="0" r="0.25000" fill="#133d91ff" />
</g>
<g id="d29">
<circle cx="0" cy="0" r="0.25000" fill="#133d91ff" />
</g>
<g id="d30">
<circle cx="0" cy="0" r="0.25000" fill="#133d91ff" />
</g>
<g id="d31">
<circle cx="0" cy="0" r="0.25000" fill="#133d91ff" />
</g>
<g mask="url(#d27)" id="d32">
<g></g>
<path d="M-0.262500,-0.450000 L0.262500,-0.450000 L0.262500,0.450000 L-0.262500,0.450000 L-0.262500,-0.450000 L-0.262500,-0.450000 Z" fill="#155c82ff" />
<use xlink:href="#d28" x="-0.262500" y="-0.450000" />
<use xlink:href="#d29" x="0.262500" y="-0.450000" />
<use xlink:href="#d30" x="0.262500" y="0.450000" />
<use xlink:href="#d31" x="-0.262500" y="0.450000" />
<path d="M-0.262500,-0.700000 L-0.262500,-0.200000 L0.262500,-0.200000 L0.262500,-0.700000 Z" fill="#133d91ff" />
<path d="M0.512500,-0.450000 L0.012500,-0.450000 L0.012500,0.450000 L0.512500,0.450000 Z" fill="#133d91ff" />
<path d="M0.262500,0.700000 L0.262500,0.200000 L-0.262500,0.200000 L-0.262500,0.700000 Z" fill="#133d91ff" />
<path d="M-0.512500,0.450000 L-0.012500,0.450000 L-0.012500,-0.450000 L-0.512500,-0.450000 Z" fill="#133d91ff" />
</g>
<g id="d33">
<circle cx="0" cy="0" r="0.20000" fill="#133d91ff" />
</g>
<g id="d34">
<circle cx="0" cy="0" r="0.25000" fill="#133d91ff" />
</g>
<g id="d35">
<circle cx="0" cy="0" r="0.15000" fill="#133d91ff" />
</g>
<g id="d36">
<circle cx="0" cy="0" r="0.12500" fill="#133d91ff" />
</g>
<g id="d37">
<circle cx="0" cy="0" r="0.10000" fill="#133d91ff" />
</g>
</defs>
<g mask="url(#d0)">
<g></g>
<use xlink:href="#d1" x="5.9800000" y="28.450000" />
<use xlink:href="#d1" x="5.9800000" y="26.050000" />
<use xlink:href="#d1" x="5.9800000" y="27.650000" />
<use xlink:href="#d1" x="5.9800000" y="25.250000" />
<use xlink:href="#d2" x="7.9900000" y="25.100000" />
<use xlink:href="#d2" x="7.9900000" y="25.600000" />
<use xlink:href="#d2" x="7.9900000" y="28.600000" />
<use xlink:href="#d2" x="7.9900000" y="28.100000" />
<use xlink:href="#d3" x="0.8000000" y="22.580000" />
<use xlink:href="#d1" x="6.6800000" y="29.650000" />
<use xlink:href="#d1" x="5.9800000" y="24.450000" />
<use xlink:href="#d1" x="6.6800000" y="26.450000" />
<use xlink:href="#d2" x="7.9900000" y="24.100000" />
<use xlink:href="#d2" x="7.9900000" y="24.600000" />
<use xlink:href="#d3" x="5.5300000" y="31.120000" />
<use xlink:href="#d3" x="0.8000000" y="31.120000" />
<use xlink:href="#d1" x="6.6800000" y="25.650000" />
<use xlink:href="#d2" x="7.9900000" y="27.600000" />
<use xlink:href="#d2" x="7.9900000" y="29.100000" />
<use xlink:href="#d1" x="5.9800000" y="29.250000" />
<use xlink:href="#d1" x="6.6800000" y="24.050000" />
<use xlink:href="#d2" x="7.9900000" y="26.100000" />
<use xlink:href="#d2" x="7.9900000" y="26.600000" />
<use xlink:href="#d1" x="6.6800000" y="28.050000" />
<use xlink:href="#d1" x="6.6800000" y="27.250000" />
<use xlink:href="#d1" x="6.6800000" y="24.850000" />
<use xlink:href="#d3" x="5.5300000" y="22.580000" />
<use xlink:href="#d1" x="6.6800000" y="28.850000" />
<use xlink:href="#d2" x="7.9900000" y="27.100000" />
<use xlink:href="#d2" x="7.9900000" y="29.600000" />
<use xlink:href="#d4" x="4.2200000" y="49.100000" />
<use xlink:href="#d5" x="4.2200000" y="49.100000" />
<use xlink:href="#d4" x="34.2200000" y="4.100000" />
<use xlink:href="#d5" x="34.2200000" y="4.100000" />
<use xlink:href="#d11" x="13.7700000" y="25.007500" />
<use xlink:href="#d11" x="13.1200000" y="25.007500" />
<use xlink:href="#d11" x="12.4700000" y="25.007500" />
<use xlink:href="#d11" x="11.8200000" y="25.007500" />
<use xlink:href="#d11" x="11.8200000" y="29.232500" />
<use xlink:href="#d11" x="12.4700000" y="29.232500" />
<use xlink:href="#d11" x="13.1200000" y="29.232500" />
<use xlink:href="#d11" x="13.7700000" y="29.232500" />
<use xlink:href="#d17" x="17.8825000" y="29.350000" />
<use xlink:href="#d17" x="16.0575000" y="29.350000" />
<use xlink:href="#d4" x="4.2200000" y="4.100000" />
<use xlink:href="#d5" x="4.2200000" y="4.100000" />
<use xlink:href="#d23" x="2.4900000" y="33.350000" />
<use xlink:href="#d23" x="2.4900000" y="35.000000" />
<use xlink:href="#d24" x="17.6700000" y="27.120000" />
<use xlink:href="#d24" x="17.6700000" y="26.320000" />
<use xlink:href="#d24" x="15.9700000" y="26.320000" />
<use xlink:href="#d24" x="15.9700000" y="27.120000" />
<use xlink:href="#d4" x="34.2200000" y="49.100000" />
<use xlink:href="#d5" x="34.2200000" y="49.100000" />
<use xlink:href="#d25" x="33.9700000" y="21.620000" />
<use xlink:href="#d26" x="35.9700000" y="21.620000" />
<use xlink:href="#d26" x="33.9700000" y="23.620000" />
<use xlink:href="#d26" x="35.9700000" y="23.620000" />
<use xlink:href="#d26" x="33.9700000" y="25.620000" />
<use xlink:href="#d26" x="35.9700000" y="25.620000" />
<use xlink:href="#d26" x="33.9700000" y="27.620000" />
<use xlink:href="#d26" x="35.9700000" y="27.620000" />
<use xlink:href="#d26" x="33.9700000" y="29.620000" />
<use xlink:href="#d26" x="35.9700000" y="29.620000" />
<use xlink:href="#d23" x="4.4700000" y="33.275000" />
<use xlink:href="#d23" x="4.4700000" y="34.925000" />
<use xlink:href="#d32" x="9.8075000" y="36.100000" />
<use xlink:href="#d32" x="11.6325000" y="36.100000" />
<use xlink:href="#d33" x="34.2200000" y="19.100000" />
<use xlink:href="#d33" x="29.2200000" y="24.100000" />
<use xlink:href="#d33" x="24.2200000" y="24.100000" />
<use xlink:href="#d33" x="19.2200000" y="24.100000" />
<use xlink:href="#d33" x="9.2200000" y="49.100000" />
<use xlink:href="#d33" x="4.2200000" y="44.100000" />
<use xlink:href="#d33" x="9.2200000" y="44.100000" />
<use xlink:href="#d33" x="14.2200000" y="49.100000" />
<use xlink:href="#d33" x="19.2200000" y="49.100000" />
<use xlink:href="#d33" x="24.2200000" y="49.100000" />
<use xlink:href="#d33" x="29.2200000" y="49.100000" />
<use xlink:href="#d33" x="34.2200000" y="44.100000" />
<use xlink:href="#d33" x="29.2200000" y="44.100000" />
<use xlink:href="#d33" x="24.2200000" y="44.100000" />
<use xlink:href="#d33" x="19.2200000" y="44.100000" />
<use xlink:href="#d33" x="14.2200000" y="44.100000" />
<use xlink:href="#d33" x="14.2200000" y="39.100000" />
<use xlink:href="#d33" x="19.2200000" y="39.100000" />
<use xlink:href="#d33" x="24.2200000" y="39.100000" />
<use xlink:href="#d33" x="29.2200000" y="39.100000" />
<use xlink:href="#d33" x="34.2200000" y="39.100000" />
<use xlink:href="#d33" x="34.2200000" y="34.100000" />
<use xlink:href="#d33" x="29.2200000" y="34.100000" />
<use xlink:href="#d33" x="24.2200000" y="34.100000" />
<use xlink:href="#d33" x="19.2200000" y="34.100000" />
<use xlink:href="#d33" x="14.2200000" y="34.100000" />
<use xlink:href="#d33" x="29.2200000" y="19.100000" />
<use xlink:href="#d33" x="24.2200000" y="19.100000" />
<use xlink:href="#d33" x="19.2200000" y="19.100000" />
<use xlink:href="#d33" x="14.2200000" y="19.100000" />
<use xlink:href="#d33" x="4.2200000" y="9.100000" />
<use xlink:href="#d33" x="14.2200000" y="14.100000" />
<use xlink:href="#d33" x="19.2200000" y="14.100000" />
<use xlink:href="#d33" x="24.2200000" y="14.100000" />
<use xlink:href="#d33" x="29.2200000" y="14.100000" />
<use xlink:href="#d33" x="34.2200000" y="14.100000" />
<use xlink:href="#d33" x="29.2200000" y="9.100000" />
<use xlink:href="#d33" x="24.2200000" y="9.100000" />
<use xlink:href="#d33" x="19.2200000" y="9.100000" />
<use xlink:href="#d33" x="14.2200000" y="9.100000" />
<use xlink:href="#d33" x="9.2200000" y="9.100000" />
<use xlink:href="#d33" x="29.2200000" y="4.100000" />
<use xlink:href="#d33" x="24.2200000" y="4.100000" />
<use xlink:href="#d33" x="19.2200000" y="4.100000" />
<use xlink:href="#d33" x="14.2200000" y="4.100000" />
<use xlink:href="#d33" x="9.2200000" y="4.100000" />
<use xlink:href="#d33" x="16.9700000" y="28.100000" />
<use xlink:href="#d33" x="16.9700000" y="25.350000" />
<use xlink:href="#d33" x="14.9700000" y="25.350000" />
<use xlink:href="#d33" x="18.9700000" y="25.350000" />
<use xlink:href="#d33" x="20.7200000" y="25.350000" />
<use xlink:href="#d33" x="22.4700000" y="25.350000" />
<use xlink:href="#d33" x="24.2200000" y="25.350000" />
<use xlink:href="#d33" x="25.7200000" y="25.350000" />
<use xlink:href="#d33" x="31.2200000" y="25.350000" />
<use xlink:href="#d33" x="27.2200000" y="25.350000" />
<use xlink:href="#d33" x="28.7200000" y="25.350000" />
<use xlink:href="#d33" x="29.9700000" y="25.350000" />
<use xlink:href="#d33" x="32.2200000" y="25.350000" />
<use xlink:href="#d33" x="32.2200000" y="28.100000" />
<use xlink:href="#d33" x="31.2200000" y="28.100000" />
<use xlink:href="#d33" x="29.9700000" y="28.100000" />
<use xlink:href="#d33" x="28.7200000" y="28.100000" />
<use xlink:href="#d33" x="27.2200000" y="28.100000" />
<use xlink:href="#d33" x="25.7200000" y="28.100000" />
<use xlink:href="#d33" x="24.2200000" y="28.100000" />
<use xlink:href="#d33" x="22.4700000" y="28.100000" />
<use xlink:href="#d33" x="20.7200000" y="28.100000" />
<use xlink:href="#d33" x="18.9700000" y="28.100000" />
<use xlink:href="#d33" x="14.9700000" y="28.100000" />
<use xlink:href="#d33" x="14.7200000" y="29.350000" />
<use xlink:href="#d33" x="10.4450000" y="28.105000" />
<use xlink:href="#d33" x="10.4700000" y="25.600000" />
<use xlink:href="#d33" x="9.7200420" y="27.579034" />
<use xlink:href="#d33" x="9.2200000" y="26.120000" />
<use xlink:href="#d34" x="35.9700000" y="29.620000" />
<path d="M35.7200000,29.620000 L36.2200000,29.620000 L36.2200000,31.100000 L35.7200000,31.100000 Z" fill="#133d91ff" />
<use xlink:href="#d34" x="35.9700000" y="31.100000" />
<use xlink:href="#d34" x="35.2200000" y="31.850000" />
<path d="M35.2200000,31.600000 L35.2200000,32.100000 L21.7200000,32.100000 L21.7200000,31.600000 Z" fill="#133d91ff" />
<use xlink:href="#d34" x="21.7200000" y="31.850000" />
<use xlink:href="#d34" x="35.9700000" y="31.100000" />
<path d="M35.793223304703363118899788909473787740178791015577881490853,30.923223304703363118899788909473787740178791015577881490853 L36.146776695296636881100211090526212259821208984422118509147,31.276776695296636881100211090526212259821208984422118509147 L35.396776695296636881100211090526212259821208984422118509147,32.026776695296636881100211090526212259821208984422118509147 L35.043223304703363118899788909473787740178791015577881490853,31.673223304703363118899788909473787740178791015577881490853 Z" fill="#133d91ff" />
<use xlink:href="#d34" x="35.2200000" y="31.850000" />
<use xlink:href="#d34" x="21.7200000" y="31.850000" />
<path d="M21.896776695296636881100211090526212259821208984422118509147,31.673223304703363118899788909473787740178791015577881490853 L21.543223304703363118899788909473787740178791015577881490853,32.026776695296636881100211090526212259821208984422118509147 L19.043223304703363118899788909473787740178791015577881490853,29.526776695296636881100211090526212259821208984422118509147 L19.396776695296636881100211090526212259821208984422118509147,29.173223304703363118899788909473787740178791015577881490853 Z" fill="#133d91ff" />
<use xlink:href="#d34" x="19.2200000" y="29.350000" />
<use xlink:href="#d34" x="19.2200000" y="29.350000" />
<path d="M19.2200000,29.100000 L19.2200000,29.600000 L17.8825000,29.600000 L17.8825000,29.100000 Z" fill="#133d91ff" />
<use xlink:href="#d34" x="17.8825000" y="29.350000" />
<use xlink:href="#d35" x="14.7200000" y="29.350000" />
<path d="M14.7200000,29.200000 L14.7200000,29.500000 L13.8875000,29.500000 L13.8875000,29.200000 Z" fill="#133d91ff" />
<use xlink:href="#d35" x="13.8875000" y="29.350000" />
<use xlink:href="#d34" x="16.0575000" y="29.350000" />
<path d="M16.0575000,29.100000 L16.0575000,29.600000 L14.7200000,29.600000 L14.7200000,29.100000 Z" fill="#133d91ff" />
<use xlink:href="#d34" x="14.7200000" y="29.350000" />
<use xlink:href="#d36" x="13.8875000" y="29.350000" />
<path d="M13.975888347648318440550105545263106129910604492211059254574,29.261611652351681559449894454736893870089395507788940745426 L13.799111652351681559449894454736893870089395507788940745426,29.438388347648318440550105545263106129910604492211059254574 L13.681611652351681559449894454736893870089395507788940745426,29.320888347648318440550105545263106129910604492211059254574 L13.858388347648318440550105545263106129910604492211059254574,29.144111652351681559449894454736893870089395507788940745426 Z" fill="#133d91ff" />
<use xlink:href="#d36" x="13.7700000" y="29.232500" />
<use xlink:href="#d36" x="6.6800000" y="29.650000" />
<path d="M6.5550000,29.650000 L6.8050000,29.650000 L6.8050000,30.310000 L6.5550000,30.310000 Z" fill="#133d91ff" />
<use xlink:href="#d36" x="6.6800000" y="30.310000" />
<use xlink:href="#d36" x="6.6800000" y="30.310000" />
<path d="M6.591611652351681559449894454736893870089395507788940745426,30.398388347648318440550105545263106129910604492211059254574 L6.768388347648318440550105545263106129910604492211059254574,30.221611652351681559449894454736893870089395507788940745426 L7.058388347648318440550105545263106129910604492211059254574,30.511611652351681559449894454736893870089395507788940745426 L6.881611652351681559449894454736893870089395507788940745426,30.688388347648318440550105545263106129910604492211059254574 Z" fill="#133d91ff" />
<use xlink:href="#d36" x="6.9700000" y="30.600000" />
<use xlink:href="#d36" x="6.9700000" y="30.600000" />
<path d="M6.9700000,30.725000 L6.9700000,30.475000 L12.7200000,30.475000 L12.7200000,30.725000 Z" fill="#133d91ff" />
<use xlink:href="#d36" x="12.7200000" y="30.600000" />
<use xlink:href="#d36" x="12.7200000" y="30.600000" />
<path d="M12.808388347648318440550105545263106129910604492211059254574,30.688388347648318440550105545263106129910604492211059254574 L12.631611652351681559449894454736893870089395507788940745426,30.511611652351681559449894454736893870089395507788940745426 L13.031611652351681559449894454736893870089395507788940745426,30.111611652351681559449894454736893870089395507788940745426 L13.208388347648318440550105545263106129910604492211059254574,30.288388347648318440550105545263106129910604492211059254574 Z" fill="#133d91ff" />
<use xlink:href="#d36" x="13.1200000" y="30.200000" />
<use xlink:href="#d36" x="13.1200000" y="30.200000" />
<path d="M13.2450000,30.200000 L12.9950000,30.200000 L12.9950000,29.232500 L13.2450000,29.232500 Z" fill="#133d91ff" />
<use xlink:href="#d36" x="13.1200000" y="29.232500" />
<use xlink:href="#d36" x="7.9900000" y="24.100000" />
<path d="M7.9900000,23.975000 L7.9900000,24.225000 L6.7300000,24.225000 L6.7300000,23.975000 Z" fill="#133d91ff" />
<use xlink:href="#d36" x="6.7300000" y="24.100000" />
<use xlink:href="#d36" x="6.7300000" y="24.100000" />
<path d="M6.818388347648318440550105545263106129910604492211059254574,24.0116116523516815594498944547368938700893955077889407454265 L6.641611652351681559449894454736893870089395507788940745426,24.1883883476483184405501055452631061299106044922110592545735 L6.591611652351681559449894454736893870089395507788940745426,24.1383883476483184405501055452631061299106044922110592545735 L6.768388347648318440550105545263106129910604492211059254574,23.9616116523516815594498944547368938700893955077889407454265 Z" fill="#133d91ff" />
<use xlink:href="#d36" x="6.6800000" y="24.050000" />
<use xlink:href="#d36" x="7.9900000" y="29.600000" />
<path d="M7.9900000,29.475000 L7.9900000,29.725000 L6.7300000,29.725000 L6.7300000,29.475000 Z" fill="#133d91ff" />
<use xlink:href="#d36" x="6.7300000" y="29.600000" />
<use xlink:href="#d36" x="6.7300000" y="29.600000" />
<path d="M6.641611652351681559449894454736893870089395507788940745426,29.511611652351681559449894454736893870089395507788940745426 L6.818388347648318440550105545263106129910604492211059254574,29.688388347648318440550105545263106129910604492211059254574 L6.768388347648318440550105545263106129910604492211059254574,29.738388347648318440550105545263106129910604492211059254574 L6.591611652351681559449894454736893870089395507788940745426,29.561611652351681559449894454736893870089395507788940745426 Z" fill="#133d91ff" />
<use xlink:href="#d36" x="6.6800000" y="29.650000" />
<use xlink:href="#d37" x="7.9900000" y="27.100000" />
<path d="M7.9900000,27.200000 L7.9900000,27.000000 L8.7900000,27.000000 L8.7900000,27.200000 Z" fill="#133d91ff" />
<use xlink:href="#d37" x="8.7900000" y="27.100000" />
<use xlink:href="#d37" x="8.8100000" y="27.120000" />
<path d="M8.8100000,27.220000 L8.8100000,27.020000 L15.9700000,27.020000 L15.9700000,27.220000 Z" fill="#133d91ff" />
<use xlink:href="#d37" x="15.9700000" y="27.120000" />
<use xlink:href="#d37" x="8.7900000" y="27.100000" />
<path d="M8.719289321881345247559915563789515096071516406231152596341,27.1707106781186547524400844362104849039284835937688474036588 L8.860710678118654752440084436210484903928483593768847403659,27.0292893218813452475599155637895150960715164062311525963412 L8.880710678118654752440084436210484903928483593768847403659,27.0492893218813452475599155637895150960715164062311525963412 L8.739289321881345247559915563789515096071516406231152596341,27.1907106781186547524400844362104849039284835937688474036588 Z" fill="#133d91ff" />
<use xlink:href="#d37" x="8.8100000" y="27.120000" />
<use xlink:href="#d37" x="9.7200420" y="27.579034" />
<path d="M9.8200420,27.579034 L9.6200420,27.579034 L9.6200420,27.120000 L9.8200420,27.120000 Z" fill="#133d91ff" />
<use xlink:href="#d37" x="9.7200420" y="27.120000" />
<use xlink:href="#d35" x="7.9700000" y="28.100000" />
<path d="M7.969696970315333895488869932962161179454739709473080999492,28.2499996939097217330093831837302161699038438108249052512172 L7.970303029684666104511130067037838820545260290526919000508,27.9500003060902782669906168162697838300961561891750947487828 L10.445303029684666104511130067037838820545260290526919000508,27.9550003060902782669906168162697838300961561891750947487828 L10.444696970315333895488869932962161179454739709473080999492,28.2549996939097217330093831837302161699038438108249052512172 Z" fill="#133d91ff" />
<use xlink:href="#d35" x="10.4450000" y="28.105000" />
<use xlink:href="#d36" x="10.4700000" y="25.600000" />
<path d="M10.558388347648318440550105545263106129910604492211059254574,25.5116116523516815594498944547368938700893955077889407454265 L10.381611652351681559449894454736893870089395507788940745426,25.6883883476483184405501055452631061299106044922110592545735 L10.376611652351681559449894454736893870089395507788940745426,25.6833883476483184405501055452631061299106044922110592545735 L10.553388347648318440550105545263106129910604492211059254574,25.5066116523516815594498944547368938700893955077889407454265 Z" fill="#133d91ff" />
<use xlink:href="#d36" x="10.4650000" y="25.595000" />
<use xlink:href="#d35" x="7.9950000" y="25.595000" />
<path d="M7.994696970315333895488869932962161179454739709473080999492,25.7449996939097217330093831837302161699038438108249052512172 L7.995303029684666104511130067037838820545260290526919000508,25.4450003060902782669906168162697838300961561891750947487828 L10.470303029684666104511130067037838820545260290526919000508,25.4500003060902782669906168162697838300961561891750947487828 L10.469696970315333895488869932962161179454739709473080999492,25.7499996939097217330093831837302161699038438108249052512172 Z" fill="#133d91ff" />
<use xlink:href="#d35" x="10.4700000" y="25.600000" />
<use xlink:href="#d36" x="7.9900000" y="25.600000" />
<path d="M8.078388347648318440550105545263106129910604492211059254574,25.6883883476483184405501055452631061299106044922110592545735 L7.901611652351681559449894454736893870089395507788940745426,25.5116116523516815594498944547368938700893955077889407454265 L7.906611652351681559449894454736893870089395507788940745426,25.5066116523516815594498944547368938700893955077889407454265 L8.083388347648318440550105545263106129910604492211059254574,25.6833883476483184405501055452631061299106044922110592545735 Z" fill="#133d91ff" />
<use xlink:href="#d36" x="7.9950000" y="25.595000" />
<use xlink:href="#d36" x="6.6800000" y="25.650000" />
<path d="M6.768388347648318440550105545263106129910604492211059254574,25.7383883476483184405501055452631061299106044922110592545735 L6.591611652351681559449894454736893870089395507788940745426,25.5616116523516815594498944547368938700893955077889407454265 L6.641611652351681559449894454736893870089395507788940745426,25.5116116523516815594498944547368938700893955077889407454265 L6.818388347648318440550105545263106129910604492211059254574,25.6883883476483184405501055452631061299106044922110592545735 Z" fill="#133d91ff" />
<use xlink:href="#d36" x="6.7300000" y="25.600000" />
<use xlink:href="#d36" x="6.7300000" y="25.600000" />
<path d="M6.7300000,25.725000 L6.7300000,25.475000 L7.9900000,25.475000 L7.9900000,25.725000 Z" fill="#133d91ff" />
<use xlink:href="#d36" x="7.9900000" y="25.600000" />
<use xlink:href="#d36" x="6.6800000" y="28.050000" />
<path d="M6.591611652351681559449894454736893870089395507788940745426,28.1383883476483184405501055452631061299106044922110592545735 L6.768388347648318440550105545263106129910604492211059254574,27.9616116523516815594498944547368938700893955077889407454265 L6.818388347648318440550105545263106129910604492211059254574,28.0116116523516815594498944547368938700893955077889407454265 L6.641611652351681559449894454736893870089395507788940745426,28.1883883476483184405501055452631061299106044922110592545735 Z" fill="#133d91ff" />
<use xlink:href="#d36" x="6.7300000" y="28.100000" />
<use xlink:href="#d36" x="6.7300000" y="28.100000" />
<path d="M6.7300000,28.225000 L6.7300000,27.975000 L7.9900000,27.975000 L7.9900000,28.225000 Z" fill="#133d91ff" />
<use xlink:href="#d36" x="7.9900000" y="28.100000" />
<use xlink:href="#d37" x="9.2200000" y="26.120000" />
<path d="M9.1200000,26.120000 L9.3200000,26.120000 L9.3200000,26.600000 L9.1200000,26.600000 Z" fill="#133d91ff" />
<use xlink:href="#d37" x="9.2200000" y="26.600000" />
<use xlink:href="#d37" x="7.9900000" y="26.600000" />
<path d="M7.9900000,26.700000 L7.9900000,26.500000 L9.2200000,26.500000 L9.2200000,26.700000 Z" fill="#133d91ff" />
<use xlink:href="#d37" x="9.2200000" y="26.600000" />
<use xlink:href="#d37" x="9.2200000" y="26.600000" />
<path d="M9.2200000,26.700000 L9.2200000,26.500000 L13.1200000,26.500000 L13.1200000,26.700000 Z" fill="#133d91ff" />
<use xlink:href="#d37" x="13.1200000" y="26.600000" />
<use xlink:href="#d37" x="11.8200000" y="29.232500" />
<path d="M11.9200000,29.232500 L11.7200000,29.232500 L11.7200000,27.120000 L11.9200000,27.120000 Z" fill="#133d91ff" />
<use xlink:href="#d37" x="11.8200000" y="27.120000" />
<use xlink:href="#d37" x="13.1200000" y="26.600000" />
<path d="M13.1200000,26.700000 L13.1200000,26.500000 L14.9500000,26.500000 L14.9500000,26.700000 Z" fill="#133d91ff" />
<use xlink:href="#d37" x="14.9500000" y="26.600000" />
<use xlink:href="#d37" x="14.9500000" y="26.600000" />
<path d="M14.879289321881345247559915563789515096071516406231152596341,26.6707106781186547524400844362104849039284835937688474036588 L15.020710678118654752440084436210484903928483593768847403659,26.5292893218813452475599155637895150960715164062311525963412 L15.040710678118654752440084436210484903928483593768847403659,26.5492893218813452475599155637895150960715164062311525963412 L14.899289321881345247559915563789515096071516406231152596341,26.6907106781186547524400844362104849039284835937688474036588 Z" fill="#133d91ff" />
<use xlink:href="#d37" x="14.9700000" y="26.620000" />
<use xlink:href="#d37" x="14.9700000" y="26.620000" />
<path d="M15.040710678118654752440084436210484903928483593768847403659,26.6907106781186547524400844362104849039284835937688474036588 L14.899289321881345247559915563789515096071516406231152596341,26.5492893218813452475599155637895150960715164062311525963412 L15.199289321881345247559915563789515096071516406231152596341,26.2492893218813452475599155637895150960715164062311525963412 L15.340710678118654752440084436210484903928483593768847403659,26.3907106781186547524400844362104849039284835937688474036588 Z" fill="#133d91ff" />
<use xlink:href="#d37" x="15.2700000" y="26.320000" />
<use xlink:href="#d37" x="15.2700000" y="26.320000" />
<path d="M15.2700000,26.420000 L15.2700000,26.220000 L15.9700000,26.220000 L15.9700000,26.420000 Z" fill="#133d91ff" />
<use xlink:href="#d37" x="15.9700000" y="26.320000" />
<use xlink:href="#d37" x="13.1200000" y="25.007500" />
<path d="M13.0200000,25.007500 L13.2200000,25.007500 L13.2200000,26.600000 L13.0200000,26.600000 Z" fill="#133d91ff" />
<use xlink:href="#d37" x="13.1200000" y="26.600000" />
<use xlink:href="#d37" x="17.6700000" y="27.120000" />
<path d="M17.6700000,27.220000 L17.6700000,27.020000 L33.4700000,27.020000 L33.4700000,27.220000 Z" fill="#133d91ff" />
<use xlink:href="#d37" x="33.4700000" y="27.120000" />
<use xlink:href="#d37" x="33.4700000" y="27.120000" />
<path d="M33.399289321881345247559915563789515096071516406231152596341,27.1907106781186547524400844362104849039284835937688474036588 L33.540710678118654752440084436210484903928483593768847403659,27.0492893218813452475599155637895150960715164062311525963412 L34.040710678118654752440084436210484903928483593768847403659,27.5492893218813452475599155637895150960715164062311525963412 L33.899289321881345247559915563789515096071516406231152596341,27.6907106781186547524400844362104849039284835937688474036588 Z" fill="#133d91ff" />
<use xlink:href="#d37" x="33.9700000" y="27.620000" />
<use xlink:href="#d37" x="17.6700000" y="26.320000" />
<path d="M17.6700000,26.420000 L17.6700000,26.220000 L33.2700000,26.220000 L33.2700000,26.420000 Z" fill="#133d91ff" />
<use xlink:href="#d37" x="33.2700000" y="26.320000" />
<use xlink:href="#d37" x="33.2700000" y="26.320000" />
<path d="M33.340710678118654752440084436210484903928483593768847403659,26.3907106781186547524400844362104849039284835937688474036588 L33.199289321881345247559915563789515096071516406231152596341,26.2492893218813452475599155637895150960715164062311525963412 L33.899289321881345247559915563789515096071516406231152596341,25.5492893218813452475599155637895150960715164062311525963412 L34.040710678118654752440084436210484903928483593768847403659,25.6907106781186547524400844362104849039284835937688474036588 Z" fill="#133d91ff" />
<use xlink:href="#d37" x="33.9700000" y="25.620000" />
<use xlink:href="#d37" x="13.1200000" y="25.970000" />
<path d="M13.2200000,25.970000 L13.0200000,25.970000 L13.0200000,25.007500 L13.2200000,25.007500 Z" fill="#133d91ff" />
<use xlink:href="#d37" x="13.1200000" y="25.007500" />
<path d="M38.1630390,0.119685 L38.2087940,0.172489 L38.2200000,0.224000 L38.2200000,52.976000 L38.2003150,53.043039 L38.1475110,53.088794 L38.0960000,53.100000 L12.2200000,53.100000 L12.2200000,49.100002 L30.8650800,49.100002 L30.8847460,49.462728 L30.9435170,49.821214 L30.9435190,49.821222 L31.0406950,50.171220 L31.0406970,50.171227 L31.1751520,50.508684 L31.1751610,50.508702 L31.3453160,50.829647 L31.3453180,50.829651 L31.5491700,51.130309 L31.5491770,51.130319 L31.6809680,51.285475 L31.6809690,51.285476 L32.9222650,50.044179 L33.0851300,50.234870 L33.2758190,50.397733 L32.0318890,51.641663 L32.0318890,51.641664 L32.0480700,51.656992 L32.3372660,51.876832 L32.3372820,51.876843 L32.6485220,52.064109 L32.6485350,52.064116 L32.9782050,52.216639 L32.9782100,52.216640 L33.3224610,52.332632 L33.6772350,52.410724 L34.0383660,52.449999 L34.0383740,52.450000 L34.4016260,52.450000 L34.4016330,52.449999 L34.7627640,52.410724 L35.1175380,52.332632 L35.4617890,52.216640 L35.4617940,52.216639 L35.7914640,52.064116 L35.7914770,52.064109 L36.1027170,51.876843 L36.1027330,51.876832 L36.3919240,51.656996 L36.4081090,51.641663 L35.1641800,50.397733 L35.3548700,50.234870 L35.5177330,50.044180 L36.7590290,51.285475 L36.7590300,51.285475 L36.8908220,51.130319 L36.8908290,51.130309 L37.0946810,50.829651 L37.0946830,50.829647 L37.2648380,50.508702 L37.2648470,50.508684 L37.3993020,50.171227 L37.3993040,50.171220 L37.4964800,49.821222 L37.4964820,49.821214 L37.5552530,49.462728 L37.5749200,49.100002 L37.5749200,49.099997 L37.5552530,48.737271 L37.4964820,48.378785 L37.4964800,48.378777 L37.3993040,48.028779 L37.3993020,48.028772 L37.2648470,47.691315 L37.2648380,47.691297 L37.0946830,47.370352 L37.0946810,47.370348 L36.8908290,47.069690 L36.8908220,47.069680 L36.7590300,46.914523 L36.7590290,46.914522 L35.5177320,48.155818 L35.3548700,47.965130 L35.1641790,47.802265 L36.4081090,46.558335 L36.4081090,46.558334 L36.3919290,46.543007 L36.1027330,46.323167 L36.1027170,46.323156 L35.7914770,46.135890 L35.7914640,46.135883 L35.4617940,45.983360 L35.4617890,45.983359 L35.1175380,45.867367 L34.7627640,45.789275 L34.4016330,45.750000 L34.0383660,45.750000 L33.6772350,45.789275 L33.3224610,45.867367 L32.9782100,45.983359 L32.9782050,45.983360 L32.6485350,46.135883 L32.6485220,46.135890 L32.3372820,46.323156 L32.3372660,46.323167 L32.0480710,46.543006 L32.0480700,46.543007 L32.0318890,46.558334 L32.0318890,46.558336 L33.2758190,47.802266 L33.0851300,47.965130 L32.9222660,48.155819 L31.6809690,46.914522 L31.5491700,47.069690 L31.5491690,47.069691 L31.3453130,47.370357 L31.1751610,47.691297 L31.1751520,47.691315 L31.0406970,48.028772 L31.0406950,48.028779 L30.9435190,48.378777 L30.9435170,48.378785 L30.8847460,48.737271 L30.8650800,49.099997 L30.8650800,49.100002 L12.2200000,49.100002 L12.2200000,40.100000 L11.2200000,40.100000 L11.2200000,37.423999 L11.2396850,37.356960 L11.2924890,37.311205 L11.3439990,37.299999 L11.3824990,37.299998 L11.3825000,37.299998 L11.3825000,36.350000 L11.8825000,36.350000 L11.8825000,37.299999 L11.9449720,37.299999 L11.9449860,37.299998 L12.0476970,37.289505 L12.2141190,37.234358 L12.2141240,37.234356 L12.3633450,37.142315 L12.4873150,37.018345 L12.5793560,36.869124 L12.5793580,36.869119 L12.6345050,36.702697 L12.6345060,36.702690 L12.6449990,36.599986 L12.6450000,36.599973 L12.6450000,36.350000 L11.8825000,36.350000 L11.3825000,36.350000 L11.3825000,34.900000 L11.8825000,34.900000 L11.8825000,35.850000 L12.6449990,35.850000 L12.6449990,35.600028 L12.6449980,35.600013 L12.6345050,35.497302 L12.5793580,35.330880 L12.5793560,35.330875 L12.4873150,35.181654 L12.3633450,35.057684 L12.2141240,34.965643 L12.2141190,34.965641 L12.0476970,34.910494 L12.0476900,34.910493 L11.9449860,34.900000 L11.8825000,34.900000 L11.3825000,34.900000 L11.3824990,34.899999 L11.3440000,34.900000 L11.2769610,34.880316 L11.2312050,34.827513 L11.2200000,34.776004 L11.2200000,31.349500 L11.2396850,31.282461 L11.2924890,31.236706 L11.3440000,31.225500 L12.6372570,31.225500 L12.6528770,31.227224 L12.6529040,31.226939 L12.6606600,31.227671 L12.6606670,31.227673 L12.7298140,31.225500 L12.7593500,31.225500 L12.7662280,31.224630 L12.7720410,31.224172 L12.8186270,31.222709 L12.8378690,31.217117 L12.8569120,31.213174 L12.8767920,31.210664 L12.9201220,31.193507 L12.9256460,31.191617 L12.9390560,31.187721 L12.9703900,31.178618 L12.9876290,31.168422 L13.0051030,31.159862 L13.0237270,31.152488 L13.0237270,31.152487 L13.0237320,31.152486 L13.0614490,31.125082 L13.0663050,31.121892 L13.1064200,31.098170 L13.1205890,31.083999 L13.1353790,31.071368 L13.1515870,31.059594 L13.1812990,31.023676 L13.1852120,31.019376 L13.5037850,30.700803 L13.5160410,30.690987 L13.5158580,30.690765 L13.5218750,30.685787 L13.5218740,30.685787 L13.5218770,30.685786 L13.5462510,30.659829 L13.5692270,30.635364 L13.5796710,30.624918 L13.5901200,30.614471 L13.5943790,30.608978 L13.5981540,30.604559 L13.6168890,30.584609 L13.6771310,30.549219 L13.7072760,30.545499 L13.9093630,30.545499 L14.0267530,30.530046 L14.0267570,30.530044 L14.0267620,30.530044 L14.1728410,30.469536 L14.2982820,30.373282 L14.3945360,30.247841 L14.4309550,30.159917 L14.4747940,30.105515 L14.5410880,30.083450 L14.5741120,30.086714 L14.6322780,30.100500 L14.6322790,30.100500 L15.0293620,30.100500 L15.0964010,30.120185 L15.1348990,30.159401 L15.2022880,30.268656 L15.3263440,30.392712 L15.4756660,30.484814 L15.6422030,30.539999 L15.7449910,30.550500 L16.3700080,30.550499 L16.3700160,30.550498 L16.3700190,30.550498 L16.4263020,30.544748 L16.4727970,30.539999 L16.6393340,30.484814 L16.7886560,30.392712 L16.8823210,30.299046 L16.9436400,30.265564 L17.0133320,30.270548 L17.0576800,30.299048 L17.1513440,30.392712 L17.3006660,30.484814 L17.4672030,30.539999 L17.5699910,30.550500 L18.1950080,30.550499 L18.1950160,30.550498 L18.1950190,30.550498 L18.2513020,30.544748 L18.2977970,30.539999 L18.4643340,30.484814 L18.6136560,30.392712 L18.7377120,30.268656 L18.7849290,30.192103 L18.8368780,30.145378 L18.9058400,30.134155 L18.9699230,30.161999 L18.9781500,30.169518 L21.1442700,32.335638 L21.1560510,32.349270 L21.1703880,32.368528 L21.1703890,32.368529 L21.1703900,32.368530 L21.1794720,32.376150 L21.2104090,32.402111 L21.2143970,32.405766 L21.2202160,32.411585 L21.2202200,32.411588 L21.2202230,32.411591 L21.2459590,32.431940 L21.3047860,32.481302 L21.3047870,32.481302 L21.3047890,32.481304 L21.3108180,32.485270 L21.3107850,32.485319 L21.3171470,32.489372 L21.3171790,32.489321 L21.3233190,32.493108 L21.3233230,32.493111 L21.3581320,32.509343 L21.3929410,32.525575 L21.4113360,32.534813 L21.4615670,32.560040 L21.4615690,32.560040 L21.4683570,32.562511 L21.4683360,32.562567 L21.4754570,32.565043 L21.4754760,32.564986 L21.4823220,32.567254 L21.4823270,32.567257 L21.4823320,32.567258 L21.4823350,32.567259 L21.5575640,32.582792 L21.5575650,32.582792 L21.6322790,32.600500 L21.6322820,32.600500 L21.6322860,32.600501 L21.6394530,32.601339 L21.6394460,32.601398 L21.6469440,32.602164 L21.6469500,32.602105 L21.6541390,32.602734 L21.6541430,32.602733 L21.6541440,32.602734 L21.7309170,32.600500 L35.1562950,32.600500 L35.1742650,32.601809 L35.1980230,32.605289 L35.2500680,32.600735 L35.2554700,32.600500 L35.2637040,32.600500 L35.2637090,32.600500 L35.2753270,32.599141 L35.2962760,32.596693 L35.3090280,32.595577 L35.3727970,32.589999 L35.3728050,32.589996 L35.3798660,32.588539 L35.3798780,32.588598 L35.3872430,32.586965 L35.3872290,32.586906 L35.3942460,32.585241 L35.3942550,32.585241 L35.4664230,32.558974 L35.5393340,32.534814 L35.5393430,32.534807 L35.5458820,32.531760 L35.5459080,32.531816 L35.5526900,32.528532 L35.5526630,32.528478 L35.5591060,32.525240 L35.5591170,32.525237 L35.6232830,32.483034 L35.6886560,32.442712 L35.6886620,32.442705 L35.6943250,32.438229 L35.6943620,32.438277 L35.7002040,32.433518 L35.7001640,32.433471 L35.7056860,32.428836 L35.7056960,32.428830 L35.7309040,32.402111 L35.7583870,32.372981 L36.1054340,32.025931 L36.4556410,31.675724 L36.4692600,31.663954 L36.4885300,31.649610 L36.5221230,31.609574 L36.5257570,31.605608 L36.5315900,31.599777 L36.5519270,31.574055 L36.6013020,31.515214 L36.6013040,31.515209 L36.6052720,31.509179 L36.6053230,31.509212 L36.6093690,31.502860 L36.6093170,31.502828 L36.6131090,31.496679 L36.6131110,31.496677 L36.6455690,31.427069 L36.6800400,31.358433 L36.6800430,31.358417 L36.6825100,31.351644 L36.6825680,31.351665 L36.6850430,31.344546 L36.6849850,31.344527 L36.6872560,31.337672 L36.7027840,31.262467 L36.7115460,31.225499 L36.7205000,31.187721 L36.7205000,31.187720 L36.7213390,31.180548 L36.7213970,31.180554 L36.7221640,31.173056 L36.7221040,31.173051 L36.7227330,31.165860 L36.7208020,31.099500 L36.7205000,31.089102 L36.7205000,30.581223 L36.7401850,30.514185 L36.7609620,30.489587 L36.7955070,30.458094 L36.8424270,30.415322 L36.9737120,30.241472 L37.0708170,30.046459 L37.1304350,29.836923 L37.1505360,29.620000 L37.1304350,29.403077 L37.0708170,29.193541 L36.9737120,28.998528 L36.9063440,28.909318 L36.8424250,28.824675 L36.7180550,28.711298 L36.6817730,28.651587 L36.6835340,28.581740 L36.7180560,28.528023 L36.8420540,28.414985 L36.9732840,28.241208 L37.0703480,28.046280 L37.1205050,27.870000 L36.2856860,27.870000 L36.2976410,27.858045 L36.3551650,27.745148 L36.3749860,27.620000 L36.3551650,27.494852 L36.2976410,27.381955 L36.2856860,27.370000 L37.1205050,27.370000 L37.1205050,27.369999 L37.0703480,27.193719 L36.9732840,26.998791 L36.8420560,26.825017 L36.7176840,26.711638 L36.6814030,26.651927 L36.6831630,26.582079 L36.7176840,26.528362 L36.8420560,26.414982 L36.9732840,26.241208 L37.0703480,26.046280 L37.1205050,25.870000 L36.2856860,25.870000 L36.2976410,25.858045 L36.3551650,25.745148 L36.3749860,25.620000 L36.3551650,25.494852 L36.2976410,25.381955 L36.2856860,25.370000 L37.1205050,25.370000 L37.1205050,25.369999 L37.0703480,25.193719 L36.9732840,24.998791 L36.8420560,24.825017 L36.7176840,24.711638 L36.6814030,24.651927 L36.6831630,24.582079 L36.7176840,24.528362 L36.8420560,24.414982 L36.9732840,24.241208 L37.0703480,24.046280 L37.1205050,23.870000 L36.2856860,23.870000 L36.2976410,23.858045 L36.3551650,23.745148 L36.3749860,23.620000 L36.3551650,23.494852 L36.2976410,23.381955 L36.2856860,23.370000 L37.1205050,23.370000 L37.1205050,23.369999 L37.0703480,23.193719 L36.9732840,22.998791 L36.8420560,22.825017 L36.7176840,22.711638 L36.6814030,22.651927 L36.6831630,22.582079 L36.7176840,22.528362 L36.8420560,22.414982 L36.9732840,22.241208 L37.0703480,22.046280 L37.1205050,21.870000 L36.2856860,21.870000 L36.2976410,21.858045 L36.3551650,21.745148 L36.3749860,21.620000 L36.3551650,21.494852 L36.2976410,21.381955 L36.2856860,21.370000 L37.1205050,21.370000 L37.1205050,21.369999 L37.0703480,21.193719 L36.9732840,20.998791 L36.8420540,20.825014 L36.6811310,20.678314 L36.4959870,20.563677 L36.4959850,20.563676 L36.2929310,20.485013 L36.2929210,20.485010 L36.2200010,20.471378 L36.2200000,20.471379 L36.2200000,21.304313 L36.2080450,21.292359 L36.0951480,21.234835 L36.0014810,21.220000 L35.9385190,21.220000 L35.8448520,21.234835 L35.7319550,21.292359 L35.7200000,21.304314 L35.7200000,20.471379 L35.7199980,20.471378 L35.6470780,20.485010 L35.6470680,20.485013 L35.4440140,20.563676 L35.4440120,20.563677 L35.2588690,20.678314 L35.2588680,20.678314 L35.2478870,20.688325 L35.1850820,20.718940 L35.1156950,20.710740 L35.0650860,20.670997 L35.0025460,20.587454 L34.9707830,20.563676 L34.8873350,20.501206 L34.8873280,20.501202 L34.7524820,20.450908 L34.7524830,20.450908 L34.6928830,20.444501 L34.6928810,20.444500 L34.6928730,20.444500 L34.6928640,20.444500 L33.2471290,20.444500 L33.2471230,20.444501 L33.1875160,20.450908 L33.0526710,20.501202 L33.0526640,20.501206 L32.9374550,20.587452 L32.9374520,20.587455 L32.8512060,20.702664 L32.8512020,20.702671 L32.8009080,20.837517 L32.7945010,20.897116 L32.7945000,20.897135 L32.7945000,22.342870 L32.7945010,22.342876 L32.8009080,22.402483 L32.8512020,22.537328 L32.8512060,22.537335 L32.9374520,22.652544 L32.9374550,22.652547 L33.0235040,22.716964 L33.0653750,22.772898 L33.0703590,22.842589 L33.0481480,22.890956 L32.9667140,22.998792 L32.8696510,23.193719 L32.8194940,23.369999 L32.8194950,23.370000 L33.6543140,23.370000 L33.6423590,23.381955 L33.5848350,23.494852 L33.5650140,23.620000 L33.5848350,23.745148 L33.6423590,23.858045 L33.6543140,23.870000 L32.8194950,23.870000 L32.8696510,24.046280 L32.9667150,24.241208 L33.0979430,24.414982 L33.2219440,24.528023 L33.2582250,24.587734 L33.2564650,24.657582 L33.2219440,24.711298 L33.0975740,24.824675 L32.9662880,24.998527 L32.8691840,25.193537 L32.8691820,25.193541 L32.8691830,25.193541 L32.8189770,25.369999 L32.8095640,25.403081 L32.7906740,25.606941 L32.7648880,25.671879 L32.7080870,25.712566 L32.6672030,25.719500 L18.4614390,25.719500 L18.3944000,25.699815 L18.3871280,25.694767 L18.3623310,25.676204 L18.3623280,25.676202 L18.2274820,25.625908 L18.2274830,25.625908 L18.1678830,25.619501 L18.1678810,25.619500 L18.1678730,25.619500 L18.1678640,25.619500 L17.1721290,25.619500 L17.1721230,25.619501 L17.1125160,25.625908 L16.9776710,25.676202 L16.9776690,25.676203 L16.8943110,25.738606 L16.8288470,25.763023 L16.7605740,25.748172 L16.7456890,25.738606 L16.7224720,25.721226 L16.6623310,25.676204 L16.6623300,25.676203 L16.6623280,25.676202 L16.5274820,25.625908 L16.5274830,25.625908 L16.4678830,25.619501 L16.4678810,25.619500 L16.4678730,25.619500 L16.4678640,25.619500 L15.4721290,25.619500 L15.4721230,25.619501 L15.4125160,25.625908 L15.2776710,25.676202 L15.2776690,25.676203 L15.2434910,25.701789 L15.1853670,25.725460 L15.1132380,25.734956 L15.1132370,25.734956 L14.9671600,25.795463 L14.8417140,25.891721 L14.8200240,25.919990 L14.8146720,25.926092 L14.7775830,25.963181 L14.7162630,25.996666 L14.6899030,25.999500 L14.5802800,25.999500 L14.5132410,25.979815 L14.4674860,25.927011 L14.4573410,25.859315 L14.4602890,25.836923 L14.4705000,25.759361 L14.4704990,24.255640 L14.4704990,24.255639 L14.4704990,24.255636 L14.4550460,24.138246 L14.4550440,24.138241 L14.4550440,24.138238 L14.3945360,23.992159 L14.2982820,23.866718 L14.1728410,23.770464 L14.0267620,23.709956 L14.0267600,23.709955 L13.9093610,23.694500 L13.6306360,23.694500 L13.5132460,23.709953 L13.5132340,23.709957 L13.4924500,23.718566 L13.4229810,23.726033 L13.3975500,23.718566 L13.3767650,23.709957 L13.3767600,23.709955 L13.2593610,23.694500 L12.9806360,23.694500 L12.8632460,23.709953 L12.8632340,23.709957 L12.8424500,23.718566 L12.7729810,23.726033 L12.7475500,23.718566 L12.7267650,23.709957 L12.7267600,23.709955 L12.6093610,23.694500 L12.3306360,23.694500 L12.2132460,23.709953 L12.2132340,23.709957 L12.1924500,23.718566 L12.1229810,23.726033 L12.0975500,23.718566 L12.0767650,23.709957 L12.0767600,23.709955 L11.9593610,23.694500 L11.6806360,23.694500 L11.5632460,23.709953 L11.5632370,23.709956 L11.4171560,23.770465 L11.4101190,23.774528 L11.4090670,23.772706 L11.3543140,23.793872 L11.2858700,23.779832 L11.2358810,23.731017 L11.2200000,23.670302 L11.2200000,13.100000 L12.2200000,13.100000 L12.2200000,4.100002 L30.8650800,4.100002 L30.8847460,4.462728 L30.9435170,4.821214 L30.9435190,4.821222 L31.0406950,5.171220 L31.0406970,5.171227 L31.1751520,5.508684 L31.1751610,5.508702 L31.3453160,5.829647 L31.3453180,5.829651 L31.5491700,6.130309 L31.5491770,6.130319 L31.6809680,6.285475 L31.6809690,6.285476 L32.9222650,5.044179 L33.0851300,5.234870 L33.2758190,5.397733 L32.0318890,6.641663 L32.0318890,6.641664 L32.0480700,6.656992 L32.3372660,6.876832 L32.3372820,6.876843 L32.6485220,7.064109 L32.6485350,7.064116 L32.9782050,7.216639 L32.9782100,7.216640 L33.3224610,7.332632 L33.6772350,7.410724 L34.0383660,7.449999 L34.0383740,7.450000 L34.4016260,7.450000 L34.4016330,7.449999 L34.7627640,7.410724 L35.1175380,7.332632 L35.4617890,7.216640 L35.4617940,7.216639 L35.7914640,7.064116 L35.7914770,7.064109 L36.1027170,6.876843 L36.1027330,6.876832 L36.3919240,6.656996 L36.4081090,6.641663 L35.1641800,5.397733 L35.3548700,5.234870 L35.5177330,5.044180 L36.7590290,6.285475 L36.7590300,6.285475 L36.8908220,6.130319 L36.8908290,6.130309 L37.0946810,5.829651 L37.0946830,5.829647 L37.2648380,5.508702 L37.2648470,5.508684 L37.3993020,5.171227 L37.3993040,5.171220 L37.4964800,4.821222 L37.4964820,4.821214 L37.5552530,4.462728 L37.5749200,4.100002 L37.5749200,4.099997 L37.5552530,3.737271 L37.4964820,3.378785 L37.4964800,3.378777 L37.3993040,3.028779 L37.3993020,3.028772 L37.2648470,2.691315 L37.2648380,2.691297 L37.0946830,2.370352 L37.0946810,2.370348 L36.8908290,2.069690 L36.8908220,2.069680 L36.7590300,1.914523 L36.7590290,1.914522 L35.5177320,3.155818 L35.3548700,2.965130 L35.1641790,2.802265 L36.4081090,1.558335 L36.4081090,1.558334 L36.3919290,1.543007 L36.1027330,1.323167 L36.1027170,1.323156 L35.7914770,1.135890 L35.7914640,1.135883 L35.4617940,0.983360 L35.4617890,0.983359 L35.1175380,0.867367 L34.7627640,0.789275 L34.4016330,0.750000 L34.0383660,0.750000 L33.6772350,0.789275 L33.3224610,0.867367 L32.9782100,0.983359 L32.9782050,0.983360 L32.6485350,1.135883 L32.6485220,1.135890 L32.3372820,1.323156 L32.3372660,1.323167 L32.0480710,1.543006 L32.0480700,1.543007 L32.0318890,1.558334 L32.0318890,1.558336 L33.2758190,2.802266 L33.0851300,2.965130 L32.9222660,3.155819 L31.6809690,1.914522 L31.5491700,2.069690 L31.5491690,2.069691 L31.3453130,2.370357 L31.1751610,2.691297 L31.1751520,2.691315 L31.0406970,3.028772 L31.0406950,3.028779 L30.9435190,3.378777 L30.9435170,3.378785 L30.8847460,3.737271 L30.8650800,4.099997 L30.8650800,4.100002 L12.2200000,4.100002 L12.2200000,0.100000 L38.0960000,0.100000 L38.1630390,0.119685 Z" fill="#155c82ff" />
<path d="M16.8794260,27.691828 L16.8943110,27.701394 L16.9776690,27.763796 L16.9776710,27.763797 L17.1125170,27.814091 L17.1125160,27.814091 L17.1194440,27.814835 L17.1721270,27.820500 L18.1678720,27.820499 L18.2274830,27.814091 L18.3623310,27.763796 L18.3871270,27.745233 L18.4525920,27.720816 L18.4614390,27.720500 L32.6857360,27.720500 L32.7527750,27.740185 L32.7985300,27.792989 L32.8092070,27.833060 L32.8095640,27.836918 L32.8095640,27.836920 L32.8095650,27.836923 L32.8546740,27.995464 L32.8691840,28.046462 L32.9662880,28.241472 L33.0975740,28.415324 L33.2219440,28.528701 L33.2582260,28.588412 L33.2564650,28.658259 L33.2219440,28.711975 L33.0979450,28.825013 L32.9667150,28.998791 L32.8696510,29.193719 L32.8194940,29.369999 L32.8194950,29.370000 L33.6543140,29.370000 L33.6423590,29.381955 L33.5848350,29.494852 L33.5650140,29.620000 L33.5848350,29.745148 L33.6423590,29.858045 L33.6543140,29.870000 L32.8194950,29.870000 L32.8696510,30.046280 L32.9667150,30.241208 L33.0979450,30.414985 L33.2588680,30.561685 L33.4440120,30.676322 L33.4440230,30.676327 L33.6470600,30.754984 L33.7200000,30.768619 L33.7200000,29.935686 L33.7319550,29.947641 L33.8448520,30.005165 L33.9385190,30.020000 L34.0014810,30.020000 L34.0951480,30.005165 L34.2080450,29.947641 L34.2200000,29.935686 L34.2200000,30.768619 L34.2929390,30.754984 L34.4959760,30.676327 L34.4959870,30.676322 L34.6811300,30.561685 L34.6811310,30.561685 L34.8420550,30.414984 L34.8707300,30.377012 L34.9268380,30.335374 L34.9965500,30.330681 L35.0577330,30.364422 L35.0686400,30.377009 L35.0975740,30.415323 L35.1790380,30.489587 L35.2153190,30.549298 L35.2195000,30.581224 L35.2195000,30.737770 L35.1998150,30.804809 L35.1831810,30.825451 L34.9454510,31.063181 L34.8841280,31.096666 L34.8577700,31.099500 L22.0822290,31.099500 L22.0151900,31.079815 L21.9945480,31.063181 L20.9058670,29.974500 L19.7957290,28.864361 L19.7839490,28.850730 L19.7764820,28.840701 L19.7696120,28.831472 L19.7619160,28.825014 L19.7295870,28.797886 L19.7256120,28.794244 L19.7226900,28.791322 L19.7197800,28.788411 L19.6940400,28.768059 L19.6352090,28.718694 L19.6291800,28.714729 L19.6292120,28.714680 L19.6228530,28.710628 L19.6228220,28.710679 L19.6166800,28.706891 L19.6166780,28.706890 L19.6166770,28.706889 L19.5774740,28.688608 L19.5470580,28.674424 L19.5015840,28.651587 L19.4784330,28.639960 L19.4784310,28.639959 L19.4784300,28.639959 L19.4716450,28.637489 L19.4716650,28.637433 L19.4645490,28.634959 L19.4645310,28.635015 L19.4576710,28.632742 L19.4298410,28.626996 L19.3824340,28.617207 L19.3334720,28.605603 L19.3077190,28.599499 L19.3005470,28.598661 L19.3005530,28.598601 L19.2930550,28.597835 L19.2930500,28.597895 L19.2858600,28.597265 L19.2090830,28.599500 L18.9106380,28.599500 L18.8435990,28.579815 L18.8050990,28.540597 L18.7377120,28.431344 L18.6136560,28.307288 L18.5065230,28.241208 L18.4643360,28.215187 L18.4643310,28.215185 L18.4628620,28.214698 L18.2977970,28.160001 L18.2977950,28.160000 L18.1950100,28.149500 L17.5699980,28.149500 L17.5699800,28.149501 L17.4672030,28.160000 L17.4672000,28.160001 L17.3006680,28.215185 L17.3006630,28.215187 L17.1513420,28.307289 L17.0576810,28.400951 L16.9963580,28.434436 L16.9266660,28.429452 L16.8823190,28.400951 L16.7886570,28.307289 L16.7886560,28.307289 L16.7886560,28.307288 L16.6815230,28.241208 L16.6393360,28.215187 L16.6393310,28.215185 L16.6378620,28.214698 L16.4727970,28.160001 L16.4727950,28.160000 L16.3700100,28.149500 L15.7449980,28.149500 L15.7449800,28.149501 L15.6422030,28.160000 L15.6422000,28.160001 L15.4756680,28.215185 L15.4756630,28.215187 L15.3263420,28.307289 L15.2022890,28.431342 L15.2022870,28.431344 L15.2022880,28.431344 L15.1426570,28.528023 L15.1349010,28.540597 L15.0829530,28.587321 L15.0293620,28.599500 L14.6762910,28.599500 L14.6088930,28.607377 L14.5400230,28.595609 L14.4884470,28.548473 L14.4704990,28.484216 L14.4704990,28.484215 L14.4704990,28.480640 L14.4619010,28.415324 L14.4550460,28.363246 L14.4550440,28.363241 L14.4550440,28.363238 L14.3945360,28.217159 L14.2982820,28.091718 L14.1728410,27.995464 L14.0849550,27.959060 L14.0305530,27.915220 L14.0084880,27.848926 L14.0257670,27.781227 L14.0769040,27.733616 L14.1324090,27.720500 L15.1785610,27.720500 L15.2456000,27.740185 L15.2528720,27.745233 L15.2776680,27.763795 L15.2776710,27.763797 L15.4125170,27.814091 L15.4125160,27.814091 L15.4194440,27.814835 L15.4721270,27.820500 L16.4678720,27.820499 L16.5274830,27.814091 L16.6623310,27.763796 L16.7456890,27.701393 L16.8111530,27.676977 L16.8794260,27.691828 Z" fill="#155c82ff" />
<path d="M36.2200000,27.304314 L36.2080450,27.292359 L36.0951480,27.234835 L36.0014810,27.220000 L35.9385190,27.220000 L35.8448520,27.234835 L35.7319550,27.292359 L35.7200000,27.304313 L35.7200000,25.935686 L35.7319550,25.947641 L35.8448520,26.005165 L35.9385190,26.020000 L36.0014810,26.020000 L36.0951480,26.005165 L36.2080450,25.947641 L36.2200000,25.935686 L36.2200000,27.304314 Z" fill="#155c82ff" />
<path d="M36.2200000,25.304314 L36.2080450,25.292359 L36.0951480,25.234835 L36.0014810,25.220000 L35.9385190,25.220000 L35.8448520,25.234835 L35.7319550,25.292359 L35.7200000,25.304313 L35.7200000,23.935686 L35.7319550,23.947641 L35.8448520,24.005165 L35.9385190,24.020000 L36.0014810,24.020000 L36.0951480,24.005165 L36.2080450,23.947641 L36.2200000,23.935686 L36.2200000,25.304314 Z" fill="#155c82ff" />
<path d="M35.6423590,23.381955 L35.5848350,23.494852 L35.5650140,23.620000 L35.5848350,23.745148 L35.6423590,23.858045 L35.6543140,23.870000 L34.2856860,23.870000 L34.2976410,23.858045 L34.3551650,23.745148 L34.3749860,23.620000 L34.3551650,23.494852 L34.2976410,23.381955 L34.2856860,23.370000 L35.6543140,23.370000 L35.6423590,23.381955 Z" fill="#155c82ff" />
<path d="M36.2200000,23.304314 L36.2080450,23.292359 L36.0951480,23.234835 L36.0014810,23.220000 L35.9385190,23.220000 L35.8448520,23.234835 L35.7319550,23.292359 L35.7200000,23.304314 L35.7200000,21.935686 L35.7319550,21.947641 L35.8448520,22.005165 L35.9385190,22.020000 L36.0014810,22.020000 L36.0951480,22.005165 L36.2080450,21.947641 L36.2200000,21.935686 L36.2200000,23.304314 Z" fill="#155c82ff" />
<path d="M12.2200000,53.100000 L11.2200000,53.100000 L0.3440000,53.100000 L0.2769610,53.080315 L0.2312060,53.027511 L0.2200000,52.976000 L0.2200000,49.100002 L0.8650800,49.100002 L0.8847460,49.462728 L0.9435170,49.821214 L0.9435190,49.821222 L1.0406950,50.171220 L1.0406970,50.171227 L1.1751520,50.508684 L1.1751610,50.508702 L1.3453160,50.829647 L1.3453180,50.829651 L1.5491700,51.130309 L1.5491770,51.130319 L1.6809680,51.285475 L1.6809690,51.285476 L2.9222650,50.044179 L3.0851300,50.234870 L3.2758190,50.397733 L2.0318890,51.641663 L2.0318890,51.641664 L2.0480700,51.656992 L2.3372660,51.876832 L2.3372820,51.876843 L2.6485220,52.064109 L2.6485350,52.064116 L2.9782050,52.216639 L2.9782100,52.216640 L3.3224610,52.332632 L3.6772350,52.410724 L4.0383660,52.449999 L4.0383740,52.450000 L4.4016260,52.450000 L4.4016330,52.449999 L4.7627640,52.410724 L5.1175380,52.332632 L5.4617890,52.216640 L5.4617940,52.216639 L5.7914640,52.064116 L5.7914770,52.064109 L6.1027170,51.876843 L6.1027330,51.876832 L6.3919240,51.656996 L6.4081090,51.641663 L5.1641800,50.397733 L5.3548700,50.234870 L5.5177330,50.044180 L6.7590290,51.285475 L6.7590300,51.285475 L6.8908220,51.130319 L6.8908290,51.130309 L7.0946810,50.829651 L7.0946830,50.829647 L7.2648380,50.508702 L7.2648470,50.508684 L7.3993020,50.171227 L7.3993040,50.171220 L7.4964800,49.821222 L7.4964820,49.821214 L7.5552530,49.462728 L7.5749200,49.100002 L7.5749200,49.099997 L7.5552530,48.737271 L7.4964820,48.378785 L7.4964800,48.378777 L7.3993040,48.028779 L7.3993020,48.028772 L7.2648470,47.691315 L7.2648380,47.691297 L7.0946830,47.370352 L7.0946810,47.370348 L6.8908290,47.069690 L6.8908220,47.069680 L6.7590300,46.914523 L6.7590290,46.914522 L5.5177320,48.155818 L5.3548700,47.965130 L5.1641790,47.802265 L6.4081090,46.558335 L6.4081090,46.558334 L6.3919290,46.543007 L6.1027330,46.323167 L6.1027170,46.323156 L5.7914770,46.135890 L5.7914640,46.135883 L5.4617940,45.983360 L5.4617890,45.983359 L5.1175380,45.867367 L4.7627640,45.789275 L4.4016330,45.750000 L4.0383660,45.750000 L3.6772350,45.789275 L3.3224610,45.867367 L2.9782100,45.983359 L2.9782050,45.983360 L2.6485350,46.135883 L2.6485220,46.135890 L2.3372820,46.323156 L2.3372660,46.323167 L2.0480710,46.543006 L2.0480700,46.543007 L2.0318890,46.558334 L2.0318890,46.558336 L3.2758190,47.802266 L3.0851300,47.965130 L2.9222660,48.155819 L1.6809690,46.914522 L1.5491700,47.069690 L1.5491690,47.069691 L1.3453130,47.370357 L1.1751610,47.691297 L1.1751520,47.691315 L1.0406970,48.028772 L1.0406950,48.028779 L0.9435190,48.378777 L0.9435170,48.378785 L0.8847460,48.737271 L0.8650800,49.099997 L0.8650800,49.100002 L0.2200000,49.100002 L0.2200000,40.224000 L0.2396850,40.156961 L0.2924890,40.111206 L0.3440000,40.100000 L11.2200000,40.100000 L12.2200000,40.100000 L12.2200000,53.100000 Z" fill="#155c82ff" />
<path d="M12.2200000,13.100000 L0.3440000,13.100000 L0.2769610,13.080315 L0.2312060,13.027511 L0.2200000,12.976000 L0.2200000,4.100002 L0.8650800,4.100002 L0.8847460,4.462728 L0.9435170,4.821214 L0.9435190,4.821222 L1.0406950,5.171220 L1.0406970,5.171227 L1.1751520,5.508684 L1.1751610,5.508702 L1.3453160,5.829647 L1.3453180,5.829651 L1.5491700,6.130309 L1.5491770,6.130319 L1.6809680,6.285475 L1.6809690,6.285476 L2.9222650,5.044179 L3.0851300,5.234870 L3.2758190,5.397733 L2.0318890,6.641663 L2.0318890,6.641664 L2.0480700,6.656992 L2.3372660,6.876832 L2.3372820,6.876843 L2.6485220,7.064109 L2.6485350,7.064116 L2.9782050,7.216639 L2.9782100,7.216640 L3.3224610,7.332632 L3.6772350,7.410724 L4.0383660,7.449999 L4.0383740,7.450000 L4.4016260,7.450000 L4.4016330,7.449999 L4.7627640,7.410724 L5.1175380,7.332632 L5.4617890,7.216640 L5.4617940,7.216639 L5.7914640,7.064116 L5.7914770,7.064109 L6.1027170,6.876843 L6.1027330,6.876832 L6.3919240,6.656996 L6.4081090,6.641663 L5.1641800,5.397733 L5.3548700,5.234870 L5.5177330,5.044180 L6.7590290,6.285475 L6.7590300,6.285475 L6.8908220,6.130319 L6.8908290,6.130309 L7.0946810,5.829651 L7.0946830,5.829647 L7.2648380,5.508702 L7.2648470,5.508684 L7.3993020,5.171227 L7.3993040,5.171220 L7.4964800,4.821222 L7.4964820,4.821214 L7.5552530,4.462728 L7.5749200,4.100002 L7.5749200,4.099997 L7.5552530,3.737271 L7.4964820,3.378785 L7.4964800,3.378777 L7.3993040,3.028779 L7.3993020,3.028772 L7.2648470,2.691315 L7.2648380,2.691297 L7.0946830,2.370352 L7.0946810,2.370348 L6.8908290,2.069690 L6.8908220,2.069680 L6.7590300,1.914523 L6.7590290,1.914522 L5.5177320,3.155818 L5.3548700,2.965130 L5.1641790,2.802265 L6.4081090,1.558335 L6.4081090,1.558334 L6.3919290,1.543007 L6.1027330,1.323167 L6.1027170,1.323156 L5.7914770,1.135890 L5.7914640,1.135883 L5.4617940,0.983360 L5.4617890,0.983359 L5.1175380,0.867367 L4.7627640,0.789275 L4.4016330,0.750000 L4.0383660,0.750000 L3.6772350,0.789275 L3.3224610,0.867367 L2.9782100,0.983359 L2.9782050,0.983360 L2.6485350,1.135883 L2.6485220,1.135890 L2.3372820,1.323156 L2.3372660,1.323167 L2.0480710,1.543006 L2.0480700,1.543007 L2.0318890,1.558334 L2.0318890,1.558336 L3.2758190,2.802266 L3.0851300,2.965130 L2.9222660,3.155819 L1.6809690,1.914522 L1.5491700,2.069690 L1.5491690,2.069691 L1.3453130,2.370357 L1.1751610,2.691297 L1.1751520,2.691315 L1.0406970,3.028772 L1.0406950,3.028779 L0.9435190,3.378777 L0.9435170,3.378785 L0.8847460,3.737271 L0.8650800,4.099997 L0.8650800,4.100002 L0.2200000,4.100002 L0.2200000,0.224000 L0.2396850,0.156961 L0.2924890,0.111206 L0.3440000,0.100000 L12.2200000,0.100000 L12.2200000,13.100000 Z" fill="#155c82ff" />
<path d="M1.5205450,34.369685 L1.5663000,34.422489 L1.5762440,34.491647 L1.5718920,34.510890 L1.5214080,34.672898 L1.5150000,34.743427 L1.5150000,34.750000 L3.4550000,34.750000 L3.4913190,34.713681 L3.4933900,34.715752 L3.5274890,34.686206 L3.5790000,34.675000 L5.4449990,34.675000 L5.4449990,34.668417 L5.4385910,34.597897 L5.4385900,34.597892 L5.4114800,34.510891 L5.4103280,34.441030 L5.4471290,34.381638 L5.5101980,34.351570 L5.5298650,34.350000 L10.3460000,34.350000 L10.4130390,34.369685 L10.4587940,34.422489 L10.4700000,34.474000 L10.4700000,34.820722 L10.4503150,34.887761 L10.3975110,34.933516 L10.3283530,34.943460 L10.3069970,34.938428 L10.2227000,34.910495 L10.2226900,34.910493 L10.1199860,34.900000 L10.0575000,34.900000 L10.0575000,37.299999 L10.1199720,37.299999 L10.1199860,37.299998 L10.2226950,37.289506 L10.3069950,37.261571 L10.3768230,37.259169 L10.4368650,37.294900 L10.4680590,37.357420 L10.4700000,37.379277 L10.4700000,38.476000 L10.4503150,38.543039 L10.3975110,38.588794 L10.3460000,38.600000 L0.3440000,38.600000 L0.2769610,38.580315 L0.2312060,38.527511 L0.2200000,38.476000 L0.2200000,36.350000 L8.7950010,36.350000 L8.7950010,36.599986 L8.8054940,36.702697 L8.8606410,36.869119 L8.8606430,36.869124 L8.9526840,37.018345 L9.0766540,37.142315 L9.2258750,37.234356 L9.2258800,37.234358 L9.3923020,37.289505 L9.3923090,37.289506 L9.4950190,37.299999 L9.5574990,37.299998 L9.5575000,37.299998 L9.5575000,36.350000 L8.7950010,36.350000 L0.2200000,36.350000 L0.2200000,35.250000 L1.5150010,35.250000 L1.5150010,35.256582 L1.5214080,35.327102 L1.5214090,35.327107 L1.5719810,35.489396 L1.6599270,35.634877 L1.7801220,35.755072 L1.9256040,35.843019 L1.9256030,35.843019 L2.0878940,35.893590 L2.0878920,35.893590 L2.1584180,35.899999 L2.7400000,35.899999 L2.8215810,35.899999 L2.8921020,35.893591 L2.8921070,35.893590 L3.0319900,35.850000 L8.7950000,35.850000 L9.5575000,35.850000 L9.5575000,34.900000 L9.5574990,34.899999 L9.4950280,34.900000 L9.4950110,34.900001 L9.3923020,34.910494 L9.2258800,34.965641 L9.2258750,34.965643 L9.0766540,35.057684 L8.9526840,35.181654 L8.8606430,35.330875 L8.8606410,35.330880 L8.8054940,35.497302 L8.8054930,35.497309 L8.7950000,35.600013 L8.7950000,35.850000 L3.0319900,35.850000 L3.0543960,35.843018 L3.1998770,35.755072 L3.3200720,35.634877 L3.3965520,35.508364 L3.4480800,35.461177 L3.5169390,35.449338 L3.5812680,35.476607 L3.6087850,35.508363 L3.6399250,35.559874 L3.6399280,35.559878 L3.7601220,35.680072 L3.9056040,35.768019 L3.9056030,35.768019 L4.0678940,35.818590 L4.0678920,35.818590 L4.1384180,35.824999 L4.2199990,35.824998 L4.2200000,35.824998 L4.2200000,35.175000 L4.7200000,35.175000 L4.7200000,35.824999 L4.8015810,35.824999 L4.8721020,35.818591 L4.8721070,35.818590 L5.0343960,35.768018 L5.1798770,35.680072 L5.3000720,35.559877 L5.3880190,35.414395 L5.4385900,35.252106 L5.4450000,35.181572 L5.4450000,35.175000 L4.7200000,35.175000 L4.2200000,35.175000 L3.5050000,35.175000 L3.4686810,35.211319 L3.4666090,35.209247 L3.4325110,35.238794 L3.3810000,35.250000 L2.7400000,35.250000 L2.7400000,35.899999 L2.1584180,35.899999 L2.2399990,35.899998 L2.2400000,35.899998 L2.2400000,35.250000 L1.5150010,35.250000 L0.2200000,35.250000 L0.2200000,34.474000 L0.2396850,34.406961 L0.2924890,34.361206 L0.3440000,34.350000 L1.4535060,34.350000 L1.5205450,34.369685 Z" fill="#155c82ff" />
</g>
</svg>