<?xml version="1.0" encoding="UTF-8"?>
<svg xmlns="http://www.w3.org/2000/svg" xmlns:xlink="http://www.w3.org/1999/xlink"
     width="17.930000" height="43.180000" viewBox="0 0 17.930000 43.180000">
<defs>
<mask id="d0">
<rect x="-8.965000" y="-21.590000" width="35.860000" height="86.360000" fill="white" />
</mask>
<g id="d1">
<circle cx="0" cy="0" r="0.07500" fill="#133d91ff" />
</g>
<g id="d2">
<rect x="-1.0160000" y="-0.8636000" width="2.0320000" height="1.7272000" fill="#133d91ff" rx="0.863600" ry="0.863600" transform="rotate(0.0)" />
</g>
<g id="d3">
<circle cx="0" cy="0" r="1.27000" fill="#133d91ff" />
</g>
</defs>
<g mask="url(#d0)">
<g></g>
<use xlink:href="#d1" x="3.916714" y="4.262380" />
<path d="M3.916714,4.187380 L3.916714,4.337380 L3.345285,4.337380 L3.345285,4.187380 Z" fill="#133d91ff" />
<use xlink:href="#d1" x="3.345285" y="4.262380" />
<use xlink:href="#d1" x="3.631000" y="4.262380" />
<path d="M3.706000,4.262380 L3.556000,4.262380 L3.556000,3.262380 L3.706000,3.262380 Z" fill="#133d91ff" />
<use xlink:href="#d1" x="3.631000" y="3.262380" />
<use xlink:href="#d1" x="3.631000" y="3.262380" />
<path d="M3.568596295128329783205560780071853553353855782464393040375,3.2207773844777821348661916247830941254103226341270795389286 L3.693403704871670216794439219928146446646144217535606959625,3.3039826155222178651338083752169058745896773658729204610714 L3.598164704871670216794439219928146446646144217535606959625,3.4468406155222178651338083752169058745896773658729204610714 L3.473357295128329783205560780071853553353855782464393040375,3.3636353844777821348661916247830941254103226341270795389286 Z" fill="#133d91ff" />
<use xlink:href="#d1" x="3.535761" y="3.405238" />
<use xlink:href="#d1" x="3.535761" y="3.405238" />
<path d="M3.482727991411008935669936672842136322053637304673364447256,3.3522049914110089356699366728421363220536373046733644472559 L3.588794008588991064330063327157863677946362695326635552744,3.4582710085889910643300633271578636779463626953266355527441 L3.493556008588991064330063327157863677946362695326635552744,3.5535090085889910643300633271578636779463626953266355527441 L3.387489991411008935669936672842136322053637304673364447256,3.4474429914110089356699366728421363220536373046733644472559 Z" fill="#133d91ff" />
<use xlink:href="#d1" x="3.440523" y="3.500476" />
<use xlink:href="#d1" x="3.440523" y="3.500476" />
<path d="M3.406981980337503154553862394969030856468390724605827114136,3.4333939606750063091077247899380617129367814492116542282719 L3.474064019662496845446137605030969143531609275394172885864,3.5675580393249936908922752100619382870632185507883457717281 L3.378826019662496845446137605030969143531609275394172885864,3.6151770393249936908922752100619382870632185507883457717281 L3.311743980337503154553862394969030856468390724605827114136,3.4810129606750063091077247899380617129367814492116542282719 Z" fill="#133d91ff" />
<use xlink:href="#d1" x="3.345285" y="3.548095" />
<use xlink:href="#d1" x="4.337380" y="20.931095" />
<path d="M4.337380,20.856095 L4.337380,21.006095 L3.337380,21.006095 L3.337380,20.856095 Z" fill="#133d91ff" />
<use xlink:href="#d1" x="3.337380" y="20.931095" />
<use xlink:href="#d1" x="3.337380" y="20.931095" />
<path d="M3.412380,20.931095 L3.262380,20.931095 L3.262380,20.550142 L3.412380,20.550142 Z" fill="#133d91ff" />
<use xlink:href="#d1" x="3.337380" y="20.550142" />
<use xlink:href="#d1" x="3.337380" y="20.550142" />
<path d="M3.404461757578963476381353682488259406862963005803324828236,20.5836835831486406764661171208980754841010342335659540133202 L3.270298242421036523618646317511740593137036994196675171764,20.5166004168513593235338828791019245158989657664340459866798 L3.317918242421036523618646317511740593137036994196675171764,20.4213624168513593235338828791019245158989657664340459866798 L3.452081757578963476381353682488259406862963005803324828236,20.4884455831486406764661171208980754841010342335659540133202 Z" fill="#133d91ff" />
<use xlink:href="#d1" x="3.385000" y="20.454904" />
<use xlink:href="#d1" x="3.385000" y="20.454904" />
<path d="M3.438033008588991064330063327157863677946362695326635552744,20.5079370085889910643300633271578636779463626953266355527441 L3.331966991411008935669936672842136322053637304673364447256,20.4018709914110089356699366728421363220536373046733644472559 L3.379585991411008935669936672842136322053637304673364447256,20.3542519914110089356699366728421363220536373046733644472559 L3.485652008588991064330063327157863677946362695326635552744,20.4603180085889910643300633271578636779463626953266355527441 Z" fill="#133d91ff" />
<use xlink:href="#d1" x="3.432619" y="20.407285" />
<use xlink:href="#d1" x="3.432619" y="20.407285" />
<path d="M3.466160019662496845446137605030969143531609275394172885864,20.4743670393249936908922752100619382870632185507883457717281 L3.399077980337503154553862394969030856468390724605827114136,20.3402029606750063091077247899380617129367814492116542282719 L3.494315980337503154553862394969030856468390724605827114136,20.2925839606750063091077247899380617129367814492116542282719 L3.561398019662496845446137605030969143531609275394172885864,20.4267480393249936908922752100619382870632185507883457717281 Z" fill="#133d91ff" />
<use xlink:href="#d1" x="3.527857" y="20.359666" />
<use xlink:href="#d1" x="3.527857" y="20.359666" />
<path d="M3.527857,20.434666 L3.527857,20.284666 L3.670714,20.284666 L3.670714,20.434666 Z" fill="#133d91ff" />
<use xlink:href="#d1" x="3.670714" y="20.359666" />
<use xlink:href="#d1" x="3.670714" y="20.359666" />
<path d="M3.637172980337503154553862394969030856468390724605827114136,20.4267480393249936908922752100619382870632185507883457717281 L3.704255019662496845446137605030969143531609275394172885864,20.2925839606750063091077247899380617129367814492116542282719 L3.799493019662496845446137605030969143531609275394172885864,20.3402029606750063091077247899380617129367814492116542282719 L3.732410980337503154553862394969030856468390724605827114136,20.4743670393249936908922752100619382870632185507883457717281 Z" fill="#133d91ff" />
<use xlink:href="#d1" x="3.765952" y="20.407285" />
<use xlink:href="#d1" x="3.765952" y="20.407285" />
<path d="M3.712918991411008935669936672842136322053637304673364447256,20.4603180085889910643300633271578636779463626953266355527441 L3.818985008588991064330063327157863677946362695326635552744,20.3542519914110089356699366728421363220536373046733644472559 L3.866604008588991064330063327157863677946362695326635552744,20.4018709914110089356699366728421363220536373046733644472559 L3.760537991411008935669936672842136322053637304673364447256,20.5079370085889910643300633271578636779463626953266355527441 Z" fill="#133d91ff" />
<use xlink:href="#d1" x="3.813571" y="20.454904" />
<use xlink:href="#d1" x="3.813571" y="20.454904" />
<path d="M3.746488960675006309107724789938061712936781449211654228272,20.4884450196624968454461376050309691435316092753941728858641 L3.880653039324993690892275210061938287063218550788345771728,20.4213629803375031545538623949690308564683907246058271141359 L3.928272039324993690892275210061938287063218550788345771728,20.5166009803375031545538623949690308564683907246058271141359 L3.794107960675006309107724789938061712936781449211654228272,20.5836830196624968454461376050309691435316092753941728858641 Z" fill="#133d91ff" />
<use xlink:href="#d1" x="3.861190" y="20.550142" />
<use xlink:href="#d1" x="3.861190" y="20.550142" />
<path d="M3.786190,20.550142 L3.936190,20.550142 L3.936190,20.931095 L3.786190,20.931095 Z" fill="#133d91ff" />
<use xlink:href="#d1" x="3.861190" y="20.931095" />
<use xlink:href="#d1" x="4.337380" y="19.407285" />
<path d="M4.262380,19.407285 L4.412380,19.407285 L4.412380,19.978714 L4.262380,19.978714 Z" fill="#133d91ff" />
<use xlink:href="#d1" x="4.337380" y="19.978714" />
<use xlink:href="#d1" x="4.337380" y="19.693000" />
<path d="M4.337380,19.618000 L4.337380,19.768000 L3.337380,19.768000 L3.337380,19.618000 Z" fill="#133d91ff" />
<use xlink:href="#d1" x="3.337380" y="19.693000" />
<use xlink:href="#d1" x="3.337380" y="19.693000" />
<path d="M3.295777686894736210376871823020762618973801292027368077616,19.7554039064826201144289133025357514204271477248950445323079 L3.378982313105263789623128176979237381026198707972631922384,19.6305960935173798855710866974642485795728522751049554676921 L3.521840313105263789623128176979237381026198707972631922384,19.7258340935173798855710866974642485795728522751049554676921 L3.438635686894736210376871823020762618973801292027368077616,19.8506419064826201144289133025357514204271477248950445323079 Z" fill="#133d91ff" />
<use xlink:href="#d1" x="3.480238" y="19.788238" />
<use xlink:href="#d1" x="3.480238" y="19.788238" />
<path d="M3.427204991411008935669936672842136322053637304673364447256,19.8412710085889910643300633271578636779463626953266355527441 L3.533271008588991064330063327157863677946362695326635552744,19.7352049914110089356699366728421363220536373046733644472559 L3.628509008588991064330063327157863677946362695326635552744,19.8304429914110089356699366728421363220536373046733644472559 L3.522442991411008935669936672842136322053637304673364447256,19.9365090085889910643300633271578636779463626953266355527441 Z" fill="#133d91ff" />
<use xlink:href="#d1" x="3.575476" y="19.883476" />
<use xlink:href="#d1" x="3.575476" y="19.883476" />
<path d="M3.508393960675006309107724789938061712936781449211654228272,19.9170170196624968454461376050309691435316092753941728858641 L3.642558039324993690892275210061938287063218550788345771728,19.8499349803375031545538623949690308564683907246058271141359 L3.690177039324993690892275210061938287063218550788345771728,19.9451729803375031545538623949690308564683907246058271141359 L3.556012960675006309107724789938061712936781449211654228272,20.0122550196624968454461376050309691435316092753941728858641 Z" fill="#133d91ff" />
<use xlink:href="#d1" x="3.623095" y="19.978714" />
<use xlink:href="#d1" x="14.497380" y="20.931095" />
<path d="M14.497380,20.856095 L14.497380,21.006095 L13.497380,21.006095 L13.497380,20.856095 Z" fill="#133d91ff" />
<use xlink:href="#d1" x="13.497380" y="20.931095" />
<use xlink:href="#d1" x="13.497380" y="20.931095" />
<path d="M13.572380,20.931095 L13.422380,20.931095 L13.422380,20.550142 L13.572380,20.550142 Z" fill="#133d91ff" />
<use xlink:href="#d1" x="13.497380" y="20.550142" />
<use xlink:href="#d1" x="13.497380" y="20.550142" />
<path d="M13.564461757578963476381353682488259406862963005803324828236,20.5836835831486406764661171208980754841010342335659540133202 L13.430298242421036523618646317511740593137036994196675171764,20.5166004168513593235338828791019245158989657664340459866798 L13.477918242421036523618646317511740593137036994196675171764,20.4213624168513593235338828791019245158989657664340459866798 L13.612081757578963476381353682488259406862963005803324828236,20.4884455831486406764661171208980754841010342335659540133202 Z" fill="#133d91ff" />
<use xlink:href="#d1" x="13.545000" y="20.454904" />
<use xlink:href="#d1" x="13.545000" y="20.454904" />
<path d="M13.598033008588991064330063327157863677946362695326635552744,20.5079370085889910643300633271578636779463626953266355527441 L13.491966991411008935669936672842136322053637304673364447256,20.4018709914110089356699366728421363220536373046733644472559 L13.539585991411008935669936672842136322053637304673364447256,20.3542519914110089356699366728421363220536373046733644472559 L13.645652008588991064330063327157863677946362695326635552744,20.4603180085889910643300633271578636779463626953266355527441 Z" fill="#133d91ff" />
<use xlink:href="#d1" x="13.592619" y="20.407285" />
<use xlink:href="#d1" x="13.592619" y="20.407285" />
<path d="M13.626160019662496845446137605030969143531609275394172885864,20.4743670393249936908922752100619382870632185507883457717281 L13.559077980337503154553862394969030856468390724605827114136,20.3402029606750063091077247899380617129367814492116542282719 L13.654315980337503154553862394969030856468390724605827114136,20.2925839606750063091077247899380617129367814492116542282719 L13.721398019662496845446137605030969143531609275394172885864,20.4267480393249936908922752100619382870632185507883457717281 Z" fill="#133d91ff" />
<use xlink:href="#d1" x="13.687857" y="20.359666" />
<use xlink:href="#d1" x="13.687857" y="20.359666" />
<path d="M13.687857,20.434666 L13.687857,20.284666 L13.830714,20.284666 L13.830714,20.434666 Z" fill="#133d91ff" />
<use xlink:href="#d1" x="13.830714" y="20.359666" />
<use xlink:href="#d1" x="13.830714" y="20.359666" />
<path d="M13.797172980337503154553862394969030856468390724605827114136,20.4267480393249936908922752100619382870632185507883457717281 L13.864255019662496845446137605030969143531609275394172885864,20.2925839606750063091077247899380617129367814492116542282719 L13.959493019662496845446137605030969143531609275394172885864,20.3402029606750063091077247899380617129367814492116542282719 L13.892410980337503154553862394969030856468390724605827114136,20.4743670393249936908922752100619382870632185507883457717281 Z" fill="#133d91ff" />
<use xlink:href="#d1" x="13.925952" y="20.407285" />
<use xlink:href="#d1" x="13.925952" y="20.407285" />
<path d="M13.872918991411008935669936672842136322053637304673364447256,20.4603180085889910643300633271578636779463626953266355527441 L13.978985008588991064330063327157863677946362695326635552744,20.3542519914110089356699366728421363220536373046733644472559 L14.026604008588991064330063327157863677946362695326635552744,20.4018709914110089356699366728421363220536373046733644472559 L13.920537991411008935669936672842136322053637304673364447256,20.5079370085889910643300633271578636779463626953266355527441 Z" fill="#133d91ff" />
<use xlink:href="#d1" x="13.973571" y="20.454904" />
<use xlink:href="#d1" x="13.973571" y="20.454904" />
<path d="M13.906488960675006309107724789938061712936781449211654228272,20.4884450196624968454461376050309691435316092753941728858641 L14.040653039324993690892275210061938287063218550788345771728,20.4213629803375031545538623949690308564683907246058271141359 L14.088272039324993690892275210061938287063218550788345771728,20.5166009803375031545538623949690308564683907246058271141359 L13.954107960675006309107724789938061712936781449211654228272,20.5836830196624968454461376050309691435316092753941728858641 Z" fill="#133d91ff" />
<use xlink:href="#d1" x="14.021190" y="20.550142" />
<use xlink:href="#d1" x="14.021190" y="20.550142" />
<path d="M13.946190,20.550142 L14.096190,20.550142 L14.096190,20.931095 L13.946190,20.931095 Z" fill="#133d91ff" />
<use xlink:href="#d1" x="14.021190" y="20.931095" />
<use xlink:href="#d1" x="13.592619" y="19.978714" />
<path d="M13.645652008588991064330063327157863677946362695326635552744,19.9256809914110089356699366728421363220536373046733644472559 L13.539585991411008935669936672842136322053637304673364447256,20.0317470085889910643300633271578636779463626953266355527441 L13.491966991411008935669936672842136322053637304673364447256,19.9841280085889910643300633271578636779463626953266355527441 L13.598033008588991064330063327157863677946362695326635552744,19.8780619914110089356699366728421363220536373046733644472559 Z" fill="#133d91ff" />
<use xlink:href="#d1" x="13.545000" y="19.931095" />
<use xlink:href="#d1" x="13.545000" y="19.931095" />
<path d="M13.612081757578963476381353682488259406862963005803324828236,19.8975534168513593235338828791019245158989657664340459866798 L13.477918242421036523618646317511740593137036994196675171764,19.9646365831486406764661171208980754841010342335659540133202 L13.430298242421036523618646317511740593137036994196675171764,19.8693985831486406764661171208980754841010342335659540133202 L13.564461757578963476381353682488259406862963005803324828236,19.8023154168513593235338828791019245158989657664340459866798 Z" fill="#133d91ff" />
<use xlink:href="#d1" x="13.497380" y="19.835857" />
<use xlink:href="#d1" x="13.497380" y="19.835857" />
<path d="M13.572380,19.835857 L13.422380,19.835857 L13.422380,19.597761 L13.572380,19.597761 Z" fill="#133d91ff" />
<use xlink:href="#d1" x="13.497380" y="19.597761" />
<use xlink:href="#d1" x="13.497380" y="19.597761" />
<path d="M13.564461757578963476381353682488259406862963005803324828236,19.6313025831486406764661171208980754841010342335659540133202 L13.430298242421036523618646317511740593137036994196675171764,19.5642194168513593235338828791019245158989657664340459866798 L13.477918242421036523618646317511740593137036994196675171764,19.4689814168513593235338828791019245158989657664340459866798 L13.612081757578963476381353682488259406862963005803324828236,19.5360645831486406764661171208980754841010342335659540133202 Z" fill="#133d91ff" />
<use xlink:href="#d1" x="13.545000" y="19.502523" />
<use xlink:href="#d1" x="13.545000" y="19.502523" />
<path d="M13.598033008588991064330063327157863677946362695326635552744,19.5555560085889910643300633271578636779463626953266355527441 L13.491966991411008935669936672842136322053637304673364447256,19.4494899914110089356699366728421363220536373046733644472559 L13.539585991411008935669936672842136322053637304673364447256,19.4018709914110089356699366728421363220536373046733644472559 L13.645652008588991064330063327157863677946362695326635552744,19.5079370085889910643300633271578636779463626953266355527441 Z" fill="#133d91ff" />
<use xlink:href="#d1" x="13.592619" y="19.454904" />
<use xlink:href="#d1" x="13.592619" y="19.454904" />
<path d="M13.626160019662496845446137605030969143531609275394172885864,19.5219860393249936908922752100619382870632185507883457717281 L13.559077980337503154553862394969030856468390724605827114136,19.3878219606750063091077247899380617129367814492116542282719 L13.654315980337503154553862394969030856468390724605827114136,19.3402029606750063091077247899380617129367814492116542282719 L13.721398019662496845446137605030969143531609275394172885864,19.4743670393249936908922752100619382870632185507883457717281 Z" fill="#133d91ff" />
<use xlink:href="#d1" x="13.687857" y="19.407285" />
<use xlink:href="#d1" x="13.687857" y="19.407285" />
<path d="M13.687857,19.482285 L13.687857,19.332285 L13.783095,19.332285 L13.783095,19.482285 Z" fill="#133d91ff" />
<use xlink:href="#d1" x="13.783095" y="19.407285" />
<use xlink:href="#d1" x="13.783095" y="19.407285" />
<path d="M13.759377917548737155010008298416754610997103336455060873799,19.4784362473537885349699751047497361670086899906348173786043 L13.806812082451262844989991701583245389002896663544939126201,19.3361337526462114650300248952502638329913100093651826213957 L13.949669082451262844989991701583245389002896663544939126201,19.3837527526462114650300248952502638329913100093651826213957 L13.902234917548737155010008298416754610997103336455060873799,19.5260552473537885349699751047497361670086899906348173786043 Z" fill="#133d91ff" />
<use xlink:href="#d1" x="13.925952" y="19.454904" />
<use xlink:href="#d1" x="13.925952" y="19.454904" />
<path d="M13.872918945007140921538155782406981665275331332011334103934,19.5079369621850824467909306625508038286034624907231298650528 L13.978985054992859078461844217593018334724668667988665896066,19.4018710378149175532090693374491961713965375092768701349472 L14.550413054992859078461844217593018334724668667988665896066,19.9733000378149175532090693374491961713965375092768701349472 L14.444346945007140921538155782406981665275331332011334103934,20.0793659621850824467909306625508038286034624907231298650528 Z" fill="#133d91ff" />
<use xlink:href="#d1" x="14.497380" y="20.026333" />
<use xlink:href="#d1" x="14.497380" y="20.026333" />
<path d="M14.572380,20.026333 L14.422380,20.026333 L14.422380,19.407285 L14.572380,19.407285 Z" fill="#133d91ff" />
<use xlink:href="#d1" x="14.497380" y="19.407285" />
<use xlink:href="#d1" x="2.615000" y="5.080000" />
<path d="M2.540000,5.080000 L2.690000,5.080000 L2.690000,40.640000 L2.540000,40.640000 Z" fill="#133d91ff" />
<use xlink:href="#d1" x="2.615000" y="40.640000" />
<use xlink:href="#d1" x="0.075000" y="2.540000" />
<path d="M0.000000,2.540000 L0.150000,2.540000 L0.150000,5.080000 L0.000000,5.080000 Z" fill="#133d91ff" />
<use xlink:href="#d1" x="0.075000" y="5.080000" />
<use xlink:href="#d1" x="0.075000" y="40.640000" />
<path d="M0.150000,40.640000 L0.000000,40.640000 L0.000000,5.080000 L0.150000,5.080000 Z" fill="#133d91ff" />
<use xlink:href="#d1" x="0.075000" y="5.080000" />
<use xlink:href="#d1" x="2.615000" y="40.640000" />
<path d="M2.615000,40.565000 L2.615000,40.715000 L0.075000,40.715000 L0.075000,40.565000 Z" fill="#133d91ff" />
<use xlink:href="#d1" x="0.075000" y="40.640000" />
<use xlink:href="#d1" x="2.615000" y="5.080000" />
<path d="M2.690000,5.080000 L2.540000,5.080000 L2.540000,2.540000 L2.690000,2.540000 Z" fill="#133d91ff" />
<use xlink:href="#d1" x="2.615000" y="2.540000" />
<use xlink:href="#d1" x="2.615000" y="2.540000" />
<path d="M2.615000,2.465000 L2.615000,2.615000 L0.075000,2.615000 L0.075000,2.465000 Z" fill="#133d91ff" />
<use xlink:href="#d1" x="0.075000" y="2.540000" />
<use xlink:href="#d1" x="0.075000" y="5.080000" />
<path d="M0.075000,5.155000 L0.075000,5.005000 L2.615000,5.005000 L2.615000,5.155000 Z" fill="#133d91ff" />
<use xlink:href="#d1" x="2.615000" y="5.080000" />
<use xlink:href="#d1" x="17.855000" y="2.540000" />
<path d="M17.855000,2.465000 L17.855000,2.615000 L15.315000,2.615000 L15.315000,2.465000 Z" fill="#133d91ff" />
<use xlink:href="#d1" x="15.315000" y="2.540000" />
<use xlink:href="#d1" x="17.855000" y="5.080000" />
<path d="M17.930000,5.080000 L17.780000,5.080000 L17.780000,2.540000 L17.930000,2.540000 Z" fill="#133d91ff" />
<use xlink:href="#d1" x="17.855000" y="2.540000" />
<use xlink:href="#d1" x="17.855000" y="40.640000" />
<path d="M17.855000,40.565000 L17.855000,40.715000 L15.315000,40.715000 L15.315000,40.565000 Z" fill="#133d91ff" />
<use xlink:href="#d1" x="15.315000" y="40.640000" />
<use xlink:href="#d1" x="17.855000" y="5.080000" />
<path d="M17.780000,5.080000 L17.930000,5.080000 L17.930000,40.640000 L17.780000,40.640000 Z" fill="#133d91ff" />
<use xlink:href="#d1" x="17.855000" y="40.640000" />
<use xlink:href="#d1" x="15.315000" y="5.080000" />
<path d="M15.315000,5.155000 L15.315000,5.005000 L17.855000,5.005000 L17.855000,5.155000 Z" fill="#133d91ff" />
<use xlink:href="#d1" x="17.855000" y="5.080000" />
<use xlink:href="#d1" x="15.315000" y="2.540000" />
<path d="M15.240000,2.540000 L15.390000,2.540000 L15.390000,5.080000 L15.240000,5.080000 Z" fill="#133d91ff" />
<use xlink:href="#d1" x="15.315000" y="5.080000" />
<use xlink:href="#d1" x="15.315000" y="40.640000" />
<path d="M15.390000,40.640000 L15.240000,40.640000 L15.240000,5.080000 L15.390000,5.080000 Z" fill="#133d91ff" />
<use xlink:href="#d1" x="15.315000" y="5.080000" />
<use xlink:href="#d2" x="1.345000" y="3.810000" />
<use xlink:href="#d2" x="1.345000" y="6.350000" />
<use xlink:href="#d2" x="1.345000" y="8.890000" />
<use xlink:href="#d2" x="1.345000" y="11.430000" />
<use xlink:href="#d2" x="1.345000" y="13.970000" />
<use xlink:href="#d2" x="1.345000" y="16.510000" />
<use xlink:href="#d2" x="1.345000" y="19.050000" />
<use xlink:href="#d2" x="1.345000" y="21.590000" />
<use xlink:href="#d2" x="1.345000" y="24.130000" />
<use xlink:href="#d2" x="1.345000" y="26.670000" />
<use xlink:href="#d2" x="1.345000" y="29.210000" />
<use xlink:href="#d2" x="1.345000" y="31.750000" />
<use xlink:href="#d2" x="1.345000" y="34.290000" />
<use xlink:href="#d2" x="1.345000" y="36.830000" />
<use xlink:href="#d2" x="1.345000" y="39.370000" />
<use xlink:href="#d2" x="16.585000" y="3.810000" />
<use xlink:href="#d2" x="16.585000" y="6.350000" />
<use xlink:href="#d2" x="16.585000" y="8.890000" />
<use xlink:href="#d2" x="16.585000" y="11.430000" />
<use xlink:href="#d2" x="16.585000" y="13.970000" />
<use xlink:href="#d2" x="16.585000" y="16.510000" />
<use xlink:href="#d2" x="16.585000" y="19.050000" />
<use xlink:href="#d2" x="16.585000" y="21.590000" />
<use xlink:href="#d2" x="16.585000" y="24.130000" />
<use xlink:href="#d2" x="16.585000" y="26.670000" />
<use xlink:href="#d2" x="16.585000" y="29.210000" />
<use xlink:href="#d2" x="16.585000" y="31.750000" />
<use xlink:href="#d2" x="16.585000" y="34.290000" />
<use xlink:href="#d2" x="16.585000" y="36.830000" />
<use xlink:href="#d2" x="16.585000" y="39.370000" />
<use xlink:href="#d3" x="1.345000" y="1.270000" />
<use xlink:href="#d3" x="1.345000" y="41.910000" />
<use xlink:href="#d3" x="16.585000" y="41.910000" />
<use xlink:href="#d3" x="16.585000" y="1.270000" />
</g>
</svg>