<?xml version="1.0" encoding="UTF-8"?>
<svg xmlns="http://www.w3.org/2000/svg" xmlns:xlink="http://www.w3.org/1999/xlink"
     width="89.2038010" height="61.918801" viewBox="0 0 89.2038010 61.918801">
<defs>
<mask id="d0">
<rect x="-44.6019005" y="-30.9594005" width="178.4076020" height="123.837602" fill="white" />
</mask>
<g id="d1">
<circle cx="0" cy="0" r="0.05000" fill="#133d91ff" />
</g>
<g id="d2">
<circle cx="0" cy="0" r="1.70080" fill="#133d91ff" />
</g>
<g id="d3">
<rect x="-1.4508000" y="-1.0508000" width="2.9016000" height="2.1016000" fill="#133d91ff" rx="1.050800" ry="1.050800" transform="rotate(-0.0)" />
</g>
<g id="d4">
<circle cx="0" cy="0" r="0.87580" fill="#133d91ff" />
</g>
<g id="d5">
<rect x="-0.9508000" y="-0.5508000" width="1.9016000" height="1.1016000" fill="#133d91ff" transform="rotate(-0.0)" />
</g>
<g id="d6">
<rect x="-1.2008000" y="-0.7008000" width="2.4016000" height="1.4016000" fill="#133d91ff" rx="0.700800" ry="0.700800" transform="rotate(-0.0)" />
</g>
<g id="d7">
<rect x="-1.4008000" y="-0.7008000" width="2.8016000" height="1.4016000" fill="#133d91ff" rx="0.700800" ry="0.700800" transform="rotate(-0.0)" />
</g>
<g id="d8">
<circle cx="0" cy="0" r="0.40080" fill="#133d91ff" />
</g>
<g id="d9">
<rect x="-0.3008000" y="-0.3258000" width="0.6016000" height="0.6516000" fill="#133d91ff" transform="rotate(-0.0)" />
</g>
<g id="d10">
<rect x="-1.1508000" y="-0.3508000" width="2.3016000" height="0.7016000" fill="#133d91ff" transform="rotate(-0.0)" />
</g>
<g id="d11">
<rect x="-0.3258000" y="-0.3008000" width="0.6516000" height="0.6016000" fill="#133d91ff" transform="rotate(-0.0)" />
</g>
<g id="d12">
<circle cx="0" cy="0" r="0.93980" fill="#133d91ff" />
</g>
<g id="d13">
<rect x="-0.9398000" y="-0.9398000" width="1.8796000" height="1.8796000" fill="#133d91ff" transform="rotate(-0.0)" />
</g>
<g id="d14">
<circle cx="0" cy="0" r="0.90080" fill="#133d91ff" />
</g>
<g id="d15">
<circle cx="0" cy="0" r="2.80080" fill="#133d91ff" />
</g>
<g id="d16">
<rect x="-0.3508000" y="-0.2258000" width="0.7016000" height="0.4516000" fill="#133d91ff" transform="rotate(-0.0)" />
</g>
<g id="d17">
<rect x="-0.4508000" y="-0.5258000" width="0.9016000" height="1.0516000" fill="#133d91ff" transform="rotate(-0.0)" />
</g>
<g id="d18">
<rect x="-0.5008000" y="-0.2258000" width="1.0016000" height="0.4516000" fill="#133d91ff" transform="rotate(-0.0)" />
</g>
<g id="d19">
<circle cx="0" cy="0" r="0.80080" fill="#133d91ff" />
</g>
<g id="d20">
<circle cx="0" cy="0" r="1.15080" fill="#133d91ff" />
</g>
<g id="d21">
<rect x="-0.8008000" y="-0.8008000" width="1.6016000" height="1.6016000" fill="#133d91ff" transform="rotate(-0.0)" />
</g>
<g id="d22">
<rect x="-0.3633000" y="-0.2133000" width="0.7266000" height="0.4266000" fill="#133d91ff" transform="rotate(-0.0)" />
</g>
<g id="d23">
<rect x="-0.3633000" y="-0.1758000" width="0.7266000" height="0.3516000" fill="#133d91ff" transform="rotate(-0.0)" />
</g>
<g id="d24">
<rect x="-0.5588000" y="-0.5588000" width="1.1176000" height="1.1176000" fill="#133d91ff" transform="rotate(-0.0)" />
</g>
<g id="d25">
<rect x="-0.5500000" y="-0.3500000" width="1.1000000" height="0.7000000" fill="#133d91ff" transform="rotate(-0.0)" />
</g>
<g id="d26">
<rect x="-0.8000000" y="-0.7000000" width="1.6000000" height="1.4000000" fill="#133d91ff" transform="rotate(-0.0)" />
</g>
<g id="d27">
<rect x="-0.8000000" y="-0.9000000" width="1.6000000" height="1.8000000" fill="#133d91ff" transform="rotate(-0.0)" />
</g>
<g id="d28">
<rect x="-1.2000000" y="-0.7000000" width="2.4000000" height="1.4000000" fill="#133d91ff" transform="rotate(-0.0)" />
</g>
<g id="d29">
<circle cx="0" cy="0" r="0.55080" fill="#133d91ff" />
</g>
<g id="d30">
<rect x="-0.9508000" y="-0.6508000" width="1.9016000" height="1.3016000" fill="#133d91ff" rx="0.650800" ry="0.650800" transform="rotate(-0.0)" />
</g>
<g id="d31">
<circle cx="0" cy="0" r="0.35080" fill="#133d91ff" />
</g>
<g id="d32">
<rect x="-0.1758000" y="-0.7008000" width="0.3516000" height="1.4016000" fill="#133d91ff" transform="rotate(-0.0)" />
</g>
<g id="d33">
<rect x="-1.2508000" y="-1.3508000" width="2.5016000" height="2.7016000" fill="#133d91ff" transform="rotate(-0.0)" />
</g>
<g id="d34">
<rect x="-0.5008000" y="-0.1758000" width="1.0016000" height="0.3516000" fill="#133d91ff" transform="rotate(-0.0)" />
</g>
<g id="d35">
<rect x="-0.1758000" y="-0.5008000" width="0.3516000" height="1.0016000" fill="#133d91ff" transform="rotate(-0.0)" />
</g>
<g id="d36">
<rect x="-2.0508000" y="-2.0508000" width="4.1016000" height="4.1016000" fill="#133d91ff" transform="rotate(-0.0)" />
</g>
<g id="d37">
<rect x="-0.7620000" y="-0.7620000" width="1.5240000" height="1.5240000" fill="#133d91ff" transform="rotate(-0.0)" />
</g>
<g id="d38">
<circle cx="0" cy="0" r="0.62700" fill="#133d91ff" />
</g>
<g id="d39">
<rect x="-0.3048000" y="-0.5588000" width="0.6096000" height="1.1176000" fill="#133d91ff" transform="rotate(-0.0)" />
</g>
<g id="d40">
<rect x="-0.4318000" y="-0.5588000" width="0.8636000" height="1.1176000" fill="#133d91ff" transform="rotate(-0.0)" />
</g>
<g id="d41">
<rect x="-0.8509000" y="-0.6350000" width="1.7018000" height="1.2700000" fill="#133d91ff" transform="rotate(-0.0)" />
</g>
<g id="d42">
<rect x="-0.8128000" y="-0.6858000" width="1.6256000" height="1.3716000" fill="#133d91ff" transform="rotate(-0.0)" />
</g>
<g id="d43">
<rect x="-0.9008000" y="-1.0508000" width="1.8016000" height="2.1016000" fill="#133d91ff" transform="rotate(-0.0)" />
</g>
<g id="d44">
<rect x="-0.5508000" y="-0.7508000" width="1.1016000" height="1.5016000" fill="#133d91ff" transform="rotate(-0.0)" />
</g>
<g id="d45">
<rect x="-0.7508000" y="-0.5508000" width="1.5016000" height="1.1016000" fill="#133d91ff" transform="rotate(-0.0)" />
</g>
<g id="d46">
<rect x="-0.9508000" y="-0.8508000" width="1.9016000" height="1.7016000" fill="#133d91ff" transform="rotate(-0.0)" />
</g>
<g id="d47">
<rect x="-1.4008000" y="-0.9508000" width="2.8016000" height="1.9016000" fill="#133d91ff" transform="rotate(-0.0)" />
</g>
<g id="d48">
<rect x="-0.6858000" y="-0.8128000" width="1.3716000" height="1.6256000" fill="#133d91ff" transform="rotate(-0.0)" />
</g>
<g id="d49">
<rect x="-0.6350000" y="-0.8509000" width="1.2700000" height="1.7018000" fill="#133d91ff" transform="rotate(-0.0)" />
</g>
<g id="d50">
<rect x="-0.8128000" y="-0.9398000" width="1.6256000" height="1.8796000" fill="#133d91ff" transform="rotate(-0.0)" />
</g>
<g id="d51">
<rect x="-0.5588000" y="-0.4318000" width="1.1176000" height="0.8636000" fill="#133d91ff" transform="rotate(-0.0)" />
</g>
<g id="d52">
<rect x="-0.5588000" y="-0.9398000" width="1.1176000" height="1.8796000" fill="#133d91ff" transform="rotate(-0.0)" />
</g>
<g id="d53">
<rect x="-0.7508000" y="-0.7508000" width="1.5016000" height="1.5016000" fill="#133d91ff" transform="rotate(-0.0)" />
</g>
<g id="d54">
<circle cx="0" cy="0" r="0.75080" fill="#133d91ff" />
</g>
<g id="d55">
<circle cx="0" cy="0" r="0.95080" fill="#133d91ff" />
</g>
<g id="d56">
<rect x="-0.9508000" y="-0.9508000" width="1.9016000" height="1.9016000" fill="#133d91ff" transform="rotate(-0.0)" />
</g>
<g id="d57">
<rect x="-1.9008000" y="-0.8008000" width="3.8016000" height="1.6016000" fill="#133d91ff" rx="0.800800" ry="0.800800" transform="rotate(-0.0)" />
</g>
<g id="d58">
<rect x="-0.8008000" y="-1.8508000" width="1.6016000" height="3.7016000" fill="#133d91ff" rx="0.800800" ry="0.800800" transform="rotate(-0.0)" />
</g>
<g id="d59">
<rect x="-0.8008000" y="-2.0008000" width="1.6016000" height="4.0016000" fill="#133d91ff" rx="0.800800" ry="0.800800" transform="rotate(-0.0)" />
</g>
<g id="d60">
<rect x="-1.1008000" y="-1.2508000" width="2.2016000" height="2.5016000" fill="#133d91ff" transform="rotate(-0.0)" />
</g>
<g id="d61">
<rect x="-1.1938000" y="-0.9398000" width="2.3876000" height="1.8796000" fill="#133d91ff" transform="rotate(-0.0)" />
</g>
</defs>
<g mask="url(#d0)">
<g></g>
<path d="M18.40380000,61.80000100 L16.40379900,61.80000100 L16.40379900,60.80000100 L18.40380000,60.80000100 L18.40380000,61.80000100 Z" fill="#155c82ff" />
<use xlink:href="#d1" x="18.4038000" y="61.800001" />
<path d="M18.40380000,61.75000100 L18.40380000,61.85000100 L16.40379900,61.85000100 L16.40379900,61.75000100 Z" fill="#133d91ff" />
<use xlink:href="#d1" x="16.4037990" y="61.800001" />
<use xlink:href="#d1" x="16.4037990" y="61.800001" />
<path d="M16.45379900,61.80000100 L16.35379900,61.80000100 L16.35379900,60.80000100 L16.45379900,60.80000100 Z" fill="#133d91ff" />
<use xlink:href="#d1" x="16.4037990" y="60.800001" />
<use xlink:href="#d1" x="16.4037990" y="60.800001" />
<path d="M16.40379900,60.85000100 L16.40379900,60.75000100 L18.40380000,60.75000100 L18.40380000,60.85000100 Z" fill="#133d91ff" />
<use xlink:href="#d1" x="18.4038000" y="60.800001" />
<use xlink:href="#d1" x="18.4038000" y="60.800001" />
<path d="M18.35380000,60.80000100 L18.45380000,60.80000100 L18.45380000,61.80000100 L18.35380000,61.80000100 Z" fill="#133d91ff" />
<use xlink:href="#d1" x="18.4038000" y="61.800001" />
<path d="M71.10380000,7.05000100 L69.25379900,7.05000100 L69.25379900,6.05000100 L71.10380000,6.05000100 L71.10380000,7.05000100 Z" fill="#155c82ff" />
<use xlink:href="#d1" x="71.1038000" y="7.050001" />
<path d="M71.10380000,7.00000100 L71.10380000,7.10000100 L69.25379900,7.10000100 L69.25379900,7.00000100 Z" fill="#133d91ff" />
<use xlink:href="#d1" x="69.2537990" y="7.050001" />
<use xlink:href="#d1" x="69.2537990" y="7.050001" />
<path d="M69.30379900,7.05000100 L69.20379900,7.05000100 L69.20379900,6.05000100 L69.30379900,6.05000100 Z" fill="#133d91ff" />
<use xlink:href="#d1" x="69.2537990" y="6.050001" />
<use xlink:href="#d1" x="69.2537990" y="6.050001" />
<path d="M69.25379900,6.10000100 L69.25379900,6.00000100 L71.10380000,6.00000100 L71.10380000,6.10000100 Z" fill="#133d91ff" />
<use xlink:href="#d1" x="71.1038000" y="6.050001" />
<use xlink:href="#d1" x="71.1038000" y="6.050001" />
<path d="M71.05380000,6.05000100 L71.15380000,6.05000100 L71.15380000,7.05000100 L71.05380000,7.05000100 Z" fill="#133d91ff" />
<use xlink:href="#d1" x="71.1038000" y="7.050001" />
<path d="M1.15380000,7.55000200 L0.15380000,7.55000200 L0.15380000,5.55000100 L1.15380000,5.55000100 L1.15380000,7.55000200 Z" fill="#155c82ff" />
<use xlink:href="#d1" x="1.1538000" y="7.550002" />
<path d="M1.15380000,7.50000200 L1.15380000,7.60000200 L0.15380000,7.60000200 L0.15380000,7.50000200 Z" fill="#133d91ff" />
<use xlink:href="#d1" x="0.1538000" y="7.550002" />
<use xlink:href="#d1" x="0.1538000" y="7.550002" />
<path d="M0.20380000,7.55000200 L0.10380000,7.55000200 L0.10380000,5.55000100 L0.20380000,5.55000100 Z" fill="#133d91ff" />
<use xlink:href="#d1" x="0.1538000" y="5.550001" />
<use xlink:href="#d1" x="0.1538000" y="5.550001" />
<path d="M0.15380000,5.60000100 L0.15380000,5.50000100 L1.15380000,5.50000100 L1.15380000,5.60000100 Z" fill="#133d91ff" />
<use xlink:href="#d1" x="1.1538000" y="5.550001" />
<use xlink:href="#d1" x="1.1538000" y="5.550001" />
<path d="M1.10380000,5.55000100 L1.20380000,5.55000100 L1.20380000,7.55000200 L1.10380000,7.55000200 Z" fill="#133d91ff" />
<use xlink:href="#d1" x="1.1538000" y="7.550002" />
<path d="M76.65380000,7.55000100 L75.65380000,7.55000100 L75.65380000,5.55000000 L76.65380000,5.55000000 L76.65380000,7.55000100 Z" fill="#155c82ff" />
<use xlink:href="#d1" x="76.6538000" y="7.550001" />
<path d="M76.65380000,7.50000100 L76.65380000,7.60000100 L75.65380000,7.60000100 L75.65380000,7.50000100 Z" fill="#133d91ff" />
<use xlink:href="#d1" x="75.6538000" y="7.550001" />
<use xlink:href="#d1" x="75.6538000" y="7.550001" />
<path d="M75.70380000,7.55000100 L75.60380000,7.55000100 L75.60380000,5.55000000 L75.70380000,5.55000000 Z" fill="#133d91ff" />
<use xlink:href="#d1" x="75.6538000" y="5.550000" />
<use xlink:href="#d1" x="75.6538000" y="5.550000" />
<path d="M75.65380000,5.60000000 L75.65380000,5.50000000 L76.65380000,5.50000000 L76.65380000,5.60000000 Z" fill="#133d91ff" />
<use xlink:href="#d1" x="76.6538000" y="5.550000" />
<use xlink:href="#d1" x="76.6538000" y="5.550000" />
<path d="M76.60380000,5.55000000 L76.70380000,5.55000000 L76.70380000,7.55000100 L76.60380000,7.55000100 Z" fill="#133d91ff" />
<use xlink:href="#d1" x="76.6538000" y="7.550001" />
<path d="M61.40380000,19.55000200 L60.40380000,19.55000200 L60.40380000,17.55000100 L61.40380000,17.55000100 L61.40380000,19.55000200 Z" fill="#155c82ff" />
<use xlink:href="#d1" x="61.4038000" y="19.550002" />
<path d="M61.40380000,19.50000200 L61.40380000,19.60000200 L60.40380000,19.60000200 L60.40380000,19.50000200 Z" fill="#133d91ff" />
<use xlink:href="#d1" x="60.4038000" y="19.550002" />
<use xlink:href="#d1" x="60.4038000" y="19.550002" />
<path d="M60.45380000,19.55000200 L60.35380000,19.55000200 L60.35380000,17.55000100 L60.45380000,17.55000100 Z" fill="#133d91ff" />
<use xlink:href="#d1" x="60.4038000" y="17.550001" />
<use xlink:href="#d1" x="60.4038000" y="17.550001" />
<path d="M60.40380000,17.60000100 L60.40380000,17.50000100 L61.40380000,17.50000100 L61.40380000,17.60000100 Z" fill="#133d91ff" />
<use xlink:href="#d1" x="61.4038000" y="17.550001" />
<use xlink:href="#d1" x="61.4038000" y="17.550001" />
<path d="M61.35380000,17.55000100 L61.45380000,17.55000100 L61.45380000,19.55000200 L61.35380000,19.55000200 Z" fill="#133d91ff" />
<use xlink:href="#d1" x="61.4038000" y="19.550002" />
<path d="M61.40380000,37.55000200 L60.40380000,37.55000200 L60.40380000,35.55000100 L61.40380000,35.55000100 L61.40380000,37.55000200 Z" fill="#155c82ff" />
<use xlink:href="#d1" x="61.4038000" y="37.550002" />
<path d="M61.40380000,37.50000200 L61.40380000,37.60000200 L60.40380000,37.60000200 L60.40380000,37.50000200 Z" fill="#133d91ff" />
<use xlink:href="#d1" x="60.4038000" y="37.550002" />
<use xlink:href="#d1" x="60.4038000" y="37.550002" />
<path d="M60.45380000,37.55000200 L60.35380000,37.55000200 L60.35380000,35.55000100 L60.45380000,35.55000100 Z" fill="#133d91ff" />
<use xlink:href="#d1" x="60.4038000" y="35.550001" />
<use xlink:href="#d1" x="60.4038000" y="35.550001" />
<path d="M60.40380000,35.60000100 L60.40380000,35.50000100 L61.40380000,35.50000100 L61.40380000,35.60000100 Z" fill="#133d91ff" />
<use xlink:href="#d1" x="61.4038000" y="35.550001" />
<use xlink:href="#d1" x="61.4038000" y="35.550001" />
<path d="M61.35380000,35.55000100 L61.45380000,35.55000100 L61.45380000,37.55000200 L61.35380000,37.55000200 Z" fill="#133d91ff" />
<use xlink:href="#d1" x="61.4038000" y="37.550002" />
<path d="M16.65380000,39.55000200 L15.65380000,39.55000200 L15.65380000,37.55000100 L16.65380000,37.55000100 L16.65380000,39.55000200 Z" fill="#155c82ff" />
<use xlink:href="#d1" x="16.6538000" y="39.550002" />
<path d="M16.65380000,39.50000200 L16.65380000,39.60000200 L15.65380000,39.60000200 L15.65380000,39.50000200 Z" fill="#133d91ff" />
<use xlink:href="#d1" x="15.6538000" y="39.550002" />
<use xlink:href="#d1" x="15.6538000" y="39.550002" />
<path d="M15.70380000,39.55000200 L15.60380000,39.55000200 L15.60380000,37.55000100 L15.70380000,37.55000100 Z" fill="#133d91ff" />
<use xlink:href="#d1" x="15.6538000" y="37.550001" />
<use xlink:href="#d1" x="15.6538000" y="37.550001" />
<path d="M15.65380000,37.60000100 L15.65380000,37.50000100 L16.65380000,37.50000100 L16.65380000,37.60000100 Z" fill="#133d91ff" />
<use xlink:href="#d1" x="16.6538000" y="37.550001" />
<use xlink:href="#d1" x="16.6538000" y="37.550001" />
<path d="M16.60380000,37.55000100 L16.70380000,37.55000100 L16.70380000,39.55000200 L16.60380000,39.55000200 Z" fill="#133d91ff" />
<use xlink:href="#d1" x="16.6538000" y="39.550002" />
<path d="M16.65380000,19.55000200 L15.65380000,19.55000200 L15.65380000,17.55000100 L16.65380000,17.55000100 L16.65380000,19.55000200 Z" fill="#155c82ff" />
<use xlink:href="#d1" x="16.6538000" y="19.550002" />
<path d="M16.65380000,19.50000200 L16.65380000,19.60000200 L15.65380000,19.60000200 L15.65380000,19.50000200 Z" fill="#133d91ff" />
<use xlink:href="#d1" x="15.6538000" y="19.550002" />
<use xlink:href="#d1" x="15.6538000" y="19.550002" />
<path d="M15.70380000,19.55000200 L15.60380000,19.55000200 L15.60380000,17.55000100 L15.70380000,17.55000100 Z" fill="#133d91ff" />
<use xlink:href="#d1" x="15.6538000" y="17.550001" />
<use xlink:href="#d1" x="15.6538000" y="17.550001" />
<path d="M15.65380000,17.60000100 L15.65380000,17.50000100 L16.65380000,17.50000100 L16.65380000,17.60000100 Z" fill="#133d91ff" />
<use xlink:href="#d1" x="16.6538000" y="17.550001" />
<use xlink:href="#d1" x="16.6538000" y="17.550001" />
<path d="M16.60380000,17.55000100 L16.70380000,17.55000100 L16.70380000,19.55000200 L16.60380000,19.55000200 Z" fill="#133d91ff" />
<use xlink:href="#d1" x="16.6538000" y="19.550002" />
<path d="M16.65380000,7.55000100 L15.65380000,7.55000100 L15.65380000,5.55000000 L16.65380000,5.55000000 L16.65380000,7.55000100 Z" fill="#155c82ff" />
<use xlink:href="#d1" x="16.6538000" y="7.550001" />
<path d="M16.65380000,7.50000100 L16.65380000,7.60000100 L15.65380000,7.60000100 L15.65380000,7.50000100 Z" fill="#133d91ff" />
<use xlink:href="#d1" x="15.6538000" y="7.550001" />
<use xlink:href="#d1" x="15.6538000" y="7.550001" />
<path d="M15.70380000,7.55000100 L15.60380000,7.55000100 L15.60380000,5.55000000 L15.70380000,5.55000000 Z" fill="#133d91ff" />
<use xlink:href="#d1" x="15.6538000" y="5.550000" />
<use xlink:href="#d1" x="15.6538000" y="5.550000" />
<path d="M15.65380000,5.60000000 L15.65380000,5.50000000 L16.65380000,5.50000000 L16.65380000,5.60000000 Z" fill="#133d91ff" />
<use xlink:href="#d1" x="16.6538000" y="5.550000" />
<use xlink:href="#d1" x="16.6538000" y="5.550000" />
<path d="M16.60380000,5.55000000 L16.70380000,5.55000000 L16.70380000,7.55000100 L16.60380000,7.55000100 Z" fill="#133d91ff" />
<use xlink:href="#d1" x="16.6538000" y="7.550001" />
<path d="M16.65380000,2.05000100 L15.65380000,2.05000100 L15.65380000,0.05000000 L16.65380000,0.05000000 L16.65380000,2.05000100 Z" fill="#155c82ff" />
<use xlink:href="#d1" x="16.6538000" y="2.050001" />
<path d="M16.65380000,2.00000100 L16.65380000,2.10000100 L15.65380000,2.10000100 L15.65380000,2.00000100 Z" fill="#133d91ff" />
<use xlink:href="#d1" x="15.6538000" y="2.050001" />
<use xlink:href="#d1" x="15.6538000" y="2.050001" />
<path d="M15.70380000,2.05000100 L15.60380000,2.05000100 L15.60380000,0.05000000 L15.70380000,0.05000000 Z" fill="#133d91ff" />
<use xlink:href="#d1" x="15.6538000" y="0.050000" />
<use xlink:href="#d1" x="15.6538000" y="0.050000" />
<path d="M15.65380000,0.10000000 L15.65380000,0.00000000 L16.65380000,0.00000000 L16.65380000,0.10000000 Z" fill="#133d91ff" />
<use xlink:href="#d1" x="16.6538000" y="0.050000" />
<use xlink:href="#d1" x="16.6538000" y="0.050000" />
<path d="M16.60380000,0.05000000 L16.70380000,0.05000000 L16.70380000,2.05000100 L16.60380000,2.05000100 Z" fill="#133d91ff" />
<use xlink:href="#d1" x="16.6538000" y="2.050001" />
<path d="M16.65380000,6.55000100 L14.65379900,6.55000100 L14.65379900,5.55000100 L16.65380000,5.55000100 L16.65380000,6.55000100 Z" fill="#155c82ff" />
<use xlink:href="#d1" x="16.6538000" y="6.550001" />
<path d="M16.65380000,6.50000100 L16.65380000,6.60000100 L14.65379900,6.60000100 L14.65379900,6.50000100 Z" fill="#133d91ff" />
<use xlink:href="#d1" x="14.6537990" y="6.550001" />
<use xlink:href="#d1" x="14.6537990" y="6.550001" />
<path d="M14.70379900,6.55000100 L14.60379900,6.55000100 L14.60379900,5.55000100 L14.70379900,5.55000100 Z" fill="#133d91ff" />
<use xlink:href="#d1" x="14.6537990" y="5.550001" />
<use xlink:href="#d1" x="14.6537990" y="5.550001" />
<path d="M14.65379900,5.60000100 L14.65379900,5.50000100 L16.65380000,5.50000100 L16.65380000,5.60000100 Z" fill="#133d91ff" />
<use xlink:href="#d1" x="16.6538000" y="5.550001" />
<use xlink:href="#d1" x="16.6538000" y="5.550001" />
<path d="M16.60380000,5.55000100 L16.70380000,5.55000100 L16.70380000,6.55000100 L16.60380000,6.55000100 Z" fill="#133d91ff" />
<use xlink:href="#d1" x="16.6538000" y="6.550001" />
<path d="M76.65380100,6.55000100 L74.65380000,6.55000100 L74.65380000,5.55000100 L76.65380100,5.55000100 L76.65380100,6.55000100 Z" fill="#155c82ff" />
<use xlink:href="#d1" x="76.6538010" y="6.550001" />
<path d="M76.65380100,6.50000100 L76.65380100,6.60000100 L74.65380000,6.60000100 L74.65380000,6.50000100 Z" fill="#133d91ff" />
<use xlink:href="#d1" x="74.6538000" y="6.550001" />
<use xlink:href="#d1" x="74.6538000" y="6.550001" />
<path d="M74.70380000,6.55000100 L74.60380000,6.55000100 L74.60380000,5.55000100 L74.70380000,5.55000100 Z" fill="#133d91ff" />
<use xlink:href="#d1" x="74.6538000" y="5.550001" />
<use xlink:href="#d1" x="74.6538000" y="5.550001" />
<path d="M74.65380000,5.60000100 L74.65380000,5.50000100 L76.65380100,5.50000100 L76.65380100,5.60000100 Z" fill="#133d91ff" />
<use xlink:href="#d1" x="76.6538010" y="5.550001" />
<use xlink:href="#d1" x="76.6538010" y="5.550001" />
<path d="M76.60380100,5.55000100 L76.70380100,5.55000100 L76.70380100,6.55000100 L76.60380100,6.55000100 Z" fill="#133d91ff" />
<use xlink:href="#d1" x="76.6538010" y="6.550001" />
<path d="M89.15380100,6.55000100 L87.15380000,6.55000100 L87.15380000,5.55000100 L89.15380100,5.55000100 L89.15380100,6.55000100 Z" fill="#155c82ff" />
<use xlink:href="#d1" x="89.1538010" y="6.550001" />
<path d="M89.15380100,6.50000100 L89.15380100,6.60000100 L87.15380000,6.60000100 L87.15380000,6.50000100 Z" fill="#133d91ff" />
<use xlink:href="#d1" x="87.1538000" y="6.550001" />
<use xlink:href="#d1" x="87.1538000" y="6.550001" />
<path d="M87.20380000,6.55000100 L87.10380000,6.55000100 L87.10380000,5.55000100 L87.20380000,5.55000100 Z" fill="#133d91ff" />
<use xlink:href="#d1" x="87.1538000" y="5.550001" />
<use xlink:href="#d1" x="87.1538000" y="5.550001" />
<path d="M87.15380000,5.60000100 L87.15380000,5.50000100 L89.15380100,5.50000100 L89.15380100,5.60000100 Z" fill="#133d91ff" />
<use xlink:href="#d1" x="89.1538010" y="5.550001" />
<use xlink:href="#d1" x="89.1538010" y="5.550001" />
<path d="M89.10380100,5.55000100 L89.20380100,5.55000100 L89.20380100,6.55000100 L89.10380100,6.55000100 Z" fill="#133d91ff" />
<use xlink:href="#d1" x="89.1538010" y="6.550001" />
<path d="M89.15380000,7.55000100 L88.15380000,7.55000100 L88.15380000,5.55000000 L89.15380000,5.55000000 L89.15380000,7.55000100 Z" fill="#155c82ff" />
<use xlink:href="#d1" x="89.1538000" y="7.550001" />
<path d="M89.15380000,7.50000100 L89.15380000,7.60000100 L88.15380000,7.60000100 L88.15380000,7.50000100 Z" fill="#133d91ff" />
<use xlink:href="#d1" x="88.1538000" y="7.550001" />
<use xlink:href="#d1" x="88.1538000" y="7.550001" />
<path d="M88.20380000,7.55000100 L88.10380000,7.55000100 L88.10380000,5.55000000 L88.20380000,5.55000000 Z" fill="#133d91ff" />
<use xlink:href="#d1" x="88.1538000" y="5.550000" />
<use xlink:href="#d1" x="88.1538000" y="5.550000" />
<path d="M88.15380000,5.60000000 L88.15380000,5.50000000 L89.15380000,5.50000000 L89.15380000,5.60000000 Z" fill="#133d91ff" />
<use xlink:href="#d1" x="89.1538000" y="5.550000" />
<use xlink:href="#d1" x="89.1538000" y="5.550000" />
<path d="M89.10380000,5.55000000 L89.20380000,5.55000000 L89.20380000,7.55000100 L89.10380000,7.55000100 Z" fill="#133d91ff" />
<use xlink:href="#d1" x="89.1538000" y="7.550001" />
<path d="M89.15380000,19.55000200 L88.15380000,19.55000200 L88.15380000,17.55000100 L89.15380000,17.55000100 L89.15380000,19.55000200 Z" fill="#155c82ff" />
<use xlink:href="#d1" x="89.1538000" y="19.550002" />
<path d="M89.15380000,19.50000200 L89.15380000,19.60000200 L88.15380000,19.60000200 L88.15380000,19.50000200 Z" fill="#133d91ff" />
<use xlink:href="#d1" x="88.1538000" y="19.550002" />
<use xlink:href="#d1" x="88.1538000" y="19.550002" />
<path d="M88.20380000,19.55000200 L88.10380000,19.55000200 L88.10380000,17.55000100 L88.20380000,17.55000100 Z" fill="#133d91ff" />
<use xlink:href="#d1" x="88.1538000" y="17.550001" />
<use xlink:href="#d1" x="88.1538000" y="17.550001" />
<path d="M88.15380000,17.60000100 L88.15380000,17.50000100 L89.15380000,17.50000100 L89.15380000,17.60000100 Z" fill="#133d91ff" />
<use xlink:href="#d1" x="89.1538000" y="17.550001" />
<use xlink:href="#d1" x="89.1538000" y="17.550001" />
<path d="M89.10380000,17.55000100 L89.20380000,17.55000100 L89.20380000,19.55000200 L89.10380000,19.55000200 Z" fill="#133d91ff" />
<use xlink:href="#d1" x="89.1538000" y="19.550002" />
<path d="M89.15380000,26.30000200 L88.15380000,26.30000200 L88.15380000,24.30000100 L89.15380000,24.30000100 L89.15380000,26.30000200 Z" fill="#155c82ff" />
<use xlink:href="#d1" x="89.1538000" y="26.300002" />
<path d="M89.15380000,26.25000200 L89.15380000,26.35000200 L88.15380000,26.35000200 L88.15380000,26.25000200 Z" fill="#133d91ff" />
<use xlink:href="#d1" x="88.1538000" y="26.300002" />
<use xlink:href="#d1" x="88.1538000" y="26.300002" />
<path d="M88.20380000,26.30000200 L88.10380000,26.30000200 L88.10380000,24.30000100 L88.20380000,24.30000100 Z" fill="#133d91ff" />
<use xlink:href="#d1" x="88.1538000" y="24.300001" />
<use xlink:href="#d1" x="88.1538000" y="24.300001" />
<path d="M88.15380000,24.35000100 L88.15380000,24.25000100 L89.15380000,24.25000100 L89.15380000,24.35000100 Z" fill="#133d91ff" />
<use xlink:href="#d1" x="89.1538000" y="24.300001" />
<use xlink:href="#d1" x="89.1538000" y="24.300001" />
<path d="M89.10380000,24.30000100 L89.20380000,24.30000100 L89.20380000,26.30000200 L89.10380000,26.30000200 Z" fill="#133d91ff" />
<use xlink:href="#d1" x="89.1538000" y="26.300002" />
<path d="M89.15380000,54.05000200 L88.15380000,54.05000200 L88.15380000,52.05000100 L89.15380000,52.05000100 L89.15380000,54.05000200 Z" fill="#155c82ff" />
<use xlink:href="#d1" x="89.1538000" y="54.050002" />
<path d="M89.15380000,54.00000200 L89.15380000,54.10000200 L88.15380000,54.10000200 L88.15380000,54.00000200 Z" fill="#133d91ff" />
<use xlink:href="#d1" x="88.1538000" y="54.050002" />
<use xlink:href="#d1" x="88.1538000" y="54.050002" />
<path d="M88.20380000,54.05000200 L88.10380000,54.05000200 L88.10380000,52.05000100 L88.20380000,52.05000100 Z" fill="#133d91ff" />
<use xlink:href="#d1" x="88.1538000" y="52.050001" />
<use xlink:href="#d1" x="88.1538000" y="52.050001" />
<path d="M88.15380000,52.10000100 L88.15380000,52.00000100 L89.15380000,52.00000100 L89.15380000,52.10000100 Z" fill="#133d91ff" />
<use xlink:href="#d1" x="89.1538000" y="52.050001" />
<use xlink:href="#d1" x="89.1538000" y="52.050001" />
<path d="M89.10380000,52.05000100 L89.20380000,52.05000100 L89.20380000,54.05000200 L89.10380000,54.05000200 Z" fill="#133d91ff" />
<use xlink:href="#d1" x="89.1538000" y="54.050002" />
<path d="M76.65380000,61.80000200 L75.65380000,61.80000200 L75.65380000,59.80000100 L76.65380000,59.80000100 L76.65380000,61.80000200 Z" fill="#155c82ff" />
<use xlink:href="#d1" x="76.6538000" y="61.800002" />
<path d="M76.65380000,61.75000200 L76.65380000,61.85000200 L75.65380000,61.85000200 L75.65380000,61.75000200 Z" fill="#133d91ff" />
<use xlink:href="#d1" x="75.6538000" y="61.800002" />
<use xlink:href="#d1" x="75.6538000" y="61.800002" />
<path d="M75.70380000,61.80000200 L75.60380000,61.80000200 L75.60380000,59.80000100 L75.70380000,59.80000100 Z" fill="#133d91ff" />
<use xlink:href="#d1" x="75.6538000" y="59.800001" />
<use xlink:href="#d1" x="75.6538000" y="59.800001" />
<path d="M75.65380000,59.85000100 L75.65380000,59.75000100 L76.65380000,59.75000100 L76.65380000,59.85000100 Z" fill="#133d91ff" />
<use xlink:href="#d1" x="76.6538000" y="59.800001" />
<use xlink:href="#d1" x="76.6538000" y="59.800001" />
<path d="M76.60380000,59.80000100 L76.70380000,59.80000100 L76.70380000,61.80000200 L76.60380000,61.80000200 Z" fill="#133d91ff" />
<use xlink:href="#d1" x="76.6538000" y="61.800002" />
<path d="M76.65380000,61.80000100 L74.65379900,61.80000100 L74.65379900,60.80000100 L76.65380000,60.80000100 L76.65380000,61.80000100 Z" fill="#155c82ff" />
<use xlink:href="#d1" x="76.6538000" y="61.800001" />
<path d="M76.65380000,61.75000100 L76.65380000,61.85000100 L74.65379900,61.85000100 L74.65379900,61.75000100 Z" fill="#133d91ff" />
<use xlink:href="#d1" x="74.6537990" y="61.800001" />
<use xlink:href="#d1" x="74.6537990" y="61.800001" />
<path d="M74.70379900,61.80000100 L74.60379900,61.80000100 L74.60379900,60.80000100 L74.70379900,60.80000100 Z" fill="#133d91ff" />
<use xlink:href="#d1" x="74.6537990" y="60.800001" />
<use xlink:href="#d1" x="74.6537990" y="60.800001" />
<path d="M74.65379900,60.85000100 L74.65379900,60.75000100 L76.65380000,60.75000100 L76.65380000,60.85000100 Z" fill="#133d91ff" />
<use xlink:href="#d1" x="76.6538000" y="60.800001" />
<use xlink:href="#d1" x="76.6538000" y="60.800001" />
<path d="M76.60380000,60.80000100 L76.70380000,60.80000100 L76.70380000,61.80000100 L76.60380000,61.80000100 Z" fill="#133d91ff" />
<use xlink:href="#d1" x="76.6538000" y="61.800001" />
<path d="M70.40380000,61.80000100 L68.40379900,61.80000100 L68.40379900,60.80000100 L70.40380000,60.80000100 L70.40380000,61.80000100 Z" fill="#155c82ff" />
<use xlink:href="#d1" x="70.4038000" y="61.800001" />
<path d="M70.40380000,61.75000100 L70.40380000,61.85000100 L68.40379900,61.85000100 L68.40379900,61.75000100 Z" fill="#133d91ff" />
<use xlink:href="#d1" x="68.4037990" y="61.800001" />
<use xlink:href="#d1" x="68.4037990" y="61.800001" />
<path d="M68.45379900,61.80000100 L68.35379900,61.80000100 L68.35379900,60.80000100 L68.45379900,60.80000100 Z" fill="#133d91ff" />
<use xlink:href="#d1" x="68.4037990" y="60.800001" />
<use xlink:href="#d1" x="68.4037990" y="60.800001" />
<path d="M68.40379900,60.85000100 L68.40379900,60.75000100 L70.40380000,60.75000100 L70.40380000,60.85000100 Z" fill="#133d91ff" />
<use xlink:href="#d1" x="70.4038000" y="60.800001" />
<use xlink:href="#d1" x="70.4038000" y="60.800001" />
<path d="M70.35380000,60.80000100 L70.45380000,60.80000100 L70.45380000,61.80000100 L70.35380000,61.80000100 Z" fill="#133d91ff" />
<use xlink:href="#d1" x="70.4038000" y="61.800001" />
<path d="M44.15380000,61.80000100 L42.15379900,61.80000100 L42.15379900,60.80000100 L44.15380000,60.80000100 L44.15380000,61.80000100 Z" fill="#155c82ff" />
<use xlink:href="#d1" x="44.1538000" y="61.800001" />
<path d="M44.15380000,61.75000100 L44.15380000,61.85000100 L42.15379900,61.85000100 L42.15379900,61.75000100 Z" fill="#133d91ff" />
<use xlink:href="#d1" x="42.1537990" y="61.800001" />
<use xlink:href="#d1" x="42.1537990" y="61.800001" />
<path d="M42.20379900,61.80000100 L42.10379900,61.80000100 L42.10379900,60.80000100 L42.20379900,60.80000100 Z" fill="#133d91ff" />
<use xlink:href="#d1" x="42.1537990" y="60.800001" />
<use xlink:href="#d1" x="42.1537990" y="60.800001" />
<path d="M42.15379900,60.85000100 L42.15379900,60.75000100 L44.15380000,60.75000100 L44.15380000,60.85000100 Z" fill="#133d91ff" />
<use xlink:href="#d1" x="44.1538000" y="60.800001" />
<use xlink:href="#d1" x="44.1538000" y="60.800001" />
<path d="M44.10380000,60.80000100 L44.20380000,60.80000100 L44.20380000,61.80000100 L44.10380000,61.80000100 Z" fill="#133d91ff" />
<use xlink:href="#d1" x="44.1538000" y="61.800001" />
<path d="M11.65380000,61.80000100 L9.65379900,61.80000100 L9.65379900,60.80000100 L11.65380000,60.80000100 L11.65380000,61.80000100 Z" fill="#155c82ff" />
<use xlink:href="#d1" x="11.6538000" y="61.800001" />
<path d="M11.65380000,61.75000100 L11.65380000,61.85000100 L9.65379900,61.85000100 L9.65379900,61.75000100 Z" fill="#133d91ff" />
<use xlink:href="#d1" x="9.6537990" y="61.800001" />
<use xlink:href="#d1" x="9.6537990" y="61.800001" />
<path d="M9.70379900,61.80000100 L9.60379900,61.80000100 L9.60379900,60.80000100 L9.70379900,60.80000100 Z" fill="#133d91ff" />
<use xlink:href="#d1" x="9.6537990" y="60.800001" />
<use xlink:href="#d1" x="9.6537990" y="60.800001" />
<path d="M9.65379900,60.85000100 L9.65379900,60.75000100 L11.65380000,60.75000100 L11.65380000,60.85000100 Z" fill="#133d91ff" />
<use xlink:href="#d1" x="11.6538000" y="60.800001" />
<use xlink:href="#d1" x="11.6538000" y="60.800001" />
<path d="M11.60380000,60.80000100 L11.70380000,60.80000100 L11.70380000,61.80000100 L11.60380000,61.80000100 Z" fill="#133d91ff" />
<use xlink:href="#d1" x="11.6538000" y="61.800001" />
<path d="M2.15380100,61.80000100 L0.15380000,61.80000100 L0.15380000,60.80000100 L2.15380100,60.80000100 L2.15380100,61.80000100 Z" fill="#155c82ff" />
<use xlink:href="#d1" x="2.1538010" y="61.800001" />
<path d="M2.15380100,61.75000100 L2.15380100,61.85000100 L0.15380000,61.85000100 L0.15380000,61.75000100 Z" fill="#133d91ff" />
<use xlink:href="#d1" x="0.1538000" y="61.800001" />
<use xlink:href="#d1" x="0.1538000" y="61.800001" />
<path d="M0.20380000,61.80000100 L0.10380000,61.80000100 L0.10380000,60.80000100 L0.20380000,60.80000100 Z" fill="#133d91ff" />
<use xlink:href="#d1" x="0.1538000" y="60.800001" />
<use xlink:href="#d1" x="0.1538000" y="60.800001" />
<path d="M0.15380000,60.85000100 L0.15380000,60.75000100 L2.15380100,60.75000100 L2.15380100,60.85000100 Z" fill="#133d91ff" />
<use xlink:href="#d1" x="2.1538010" y="60.800001" />
<use xlink:href="#d1" x="2.1538010" y="60.800001" />
<path d="M2.10380100,60.80000100 L2.20380100,60.80000100 L2.20380100,61.80000100 L2.10380100,61.80000100 Z" fill="#133d91ff" />
<use xlink:href="#d1" x="2.1538010" y="61.800001" />
<path d="M1.15380000,61.80000200 L0.15380000,61.80000100 L0.15380000,59.80000100 L1.15380000,59.80000100 L1.15380000,61.80000200 Z" fill="#155c82ff" />
<use xlink:href="#d1" x="1.1538000" y="61.800002" />
<path d="M1.15380005,61.75000200 L1.15379995,61.85000200 L0.15379995,61.85000100 L0.15380005,61.75000100 Z" fill="#133d91ff" />
<use xlink:href="#d1" x="0.1538000" y="61.800001" />
<use xlink:href="#d1" x="0.1538000" y="61.800001" />
<path d="M0.20380000,61.80000100 L0.10380000,61.80000100 L0.10380000,59.80000100 L0.20380000,59.80000100 Z" fill="#133d91ff" />
<use xlink:href="#d1" x="0.1538000" y="59.800001" />
<use xlink:href="#d1" x="0.1538000" y="59.800001" />
<path d="M0.15380000,59.85000100 L0.15380000,59.75000100 L1.15380000,59.75000100 L1.15380000,59.85000100 Z" fill="#133d91ff" />
<use xlink:href="#d1" x="1.1538000" y="59.800001" />
<use xlink:href="#d1" x="1.1538000" y="59.800001" />
<path d="M1.10380000,59.80000100 L1.20380000,59.80000100 L1.20380000,61.80000200 L1.10380000,61.80000200 Z" fill="#133d91ff" />
<use xlink:href="#d1" x="1.1538000" y="61.800002" />
<path d="M1.15380000,37.30000100 L0.15380000,37.30000200 L0.15380000,35.30000100 L1.15380000,35.30000100 L1.15380000,37.30000100 Z" fill="#155c82ff" />
<use xlink:href="#d1" x="1.1538000" y="37.300001" />
<path d="M1.15379995,37.25000100 L1.15380005,37.35000100 L0.15380005,37.35000200 L0.15379995,37.25000200 Z" fill="#133d91ff" />
<use xlink:href="#d1" x="0.1538000" y="37.300002" />
<use xlink:href="#d1" x="0.1538000" y="37.300002" />
<path d="M0.20380000,37.30000200 L0.10380000,37.30000200 L0.10380000,35.30000100 L0.20380000,35.30000100 Z" fill="#133d91ff" />
<use xlink:href="#d1" x="0.1538000" y="35.300001" />
<use xlink:href="#d1" x="0.1538000" y="35.300001" />
<path d="M0.15380000,35.35000100 L0.15380000,35.25000100 L1.15380000,35.25000100 L1.15380000,35.35000100 Z" fill="#133d91ff" />
<use xlink:href="#d1" x="1.1538000" y="35.300001" />
<use xlink:href="#d1" x="1.1538000" y="35.300001" />
<path d="M1.10380000,35.30000100 L1.20380000,35.30000100 L1.20380000,37.30000100 L1.10380000,37.30000100 Z" fill="#133d91ff" />
<use xlink:href="#d1" x="1.1538000" y="37.300001" />
<path d="M1.15380000,17.80000100 L1.15380000,19.80000100 L0.15380000,19.80000100 L0.15380000,17.80000000 L1.15380000,17.80000100 Z" fill="#155c82ff" />
<use xlink:href="#d1" x="1.1538000" y="17.800001" />
<path d="M1.10380000,17.80000100 L1.20380000,17.80000100 L1.20380000,19.80000100 L1.10380000,19.80000100 Z" fill="#133d91ff" />
<use xlink:href="#d1" x="1.1538000" y="19.800001" />
<use xlink:href="#d1" x="1.1538000" y="19.800001" />
<path d="M1.15380000,19.75000100 L1.15380000,19.85000100 L0.15380000,19.85000100 L0.15380000,19.75000100 Z" fill="#133d91ff" />
<use xlink:href="#d1" x="0.1538000" y="19.800001" />
<use xlink:href="#d1" x="0.1538000" y="19.800001" />
<path d="M0.20380000,19.80000100 L0.10380000,19.80000100 L0.10380000,17.80000000 L0.20380000,17.80000000 Z" fill="#133d91ff" />
<use xlink:href="#d1" x="0.1538000" y="17.800000" />
<use xlink:href="#d1" x="0.1538000" y="17.800000" />
<path d="M0.15379995,17.85000000 L0.15380005,17.75000000 L1.15380005,17.75000100 L1.15379995,17.85000100 Z" fill="#133d91ff" />
<use xlink:href="#d1" x="1.1538000" y="17.800001" />
<path d="M2.15380000,1.05000100 L0.15380000,1.05000100 L0.15380000,0.05000100 L2.15380000,0.05000100 L2.15380000,1.05000100 Z" fill="#155c82ff" />
<use xlink:href="#d1" x="2.1538000" y="1.050001" />
<path d="M2.15380000,1.00000100 L2.15380000,1.10000100 L0.15380000,1.10000100 L0.15380000,1.00000100 Z" fill="#133d91ff" />
<use xlink:href="#d1" x="0.1538000" y="1.050001" />
<use xlink:href="#d1" x="0.1538000" y="1.050001" />
<path d="M0.20380000,1.05000100 L0.10380000,1.05000100 L0.10380000,0.05000100 L0.20380000,0.05000100 Z" fill="#133d91ff" />
<use xlink:href="#d1" x="0.1538000" y="0.050001" />
<use xlink:href="#d1" x="0.1538000" y="0.050001" />
<path d="M0.15380000,0.10000100 L0.15380000,0.00000100 L2.15380000,0.00000100 L2.15380000,0.10000100 Z" fill="#133d91ff" />
<use xlink:href="#d1" x="2.1538000" y="0.050001" />
<use xlink:href="#d1" x="2.1538000" y="0.050001" />
<path d="M2.10380000,0.05000100 L2.20380000,0.05000100 L2.20380000,1.05000100 L2.10380000,1.05000100 Z" fill="#133d91ff" />
<use xlink:href="#d1" x="2.1538000" y="1.050001" />
<path d="M10.65380000,1.05000100 L8.65380000,1.05000100 L8.65380000,0.05000100 L10.65380000,0.05000100 L10.65380000,1.05000100 Z" fill="#155c82ff" />
<use xlink:href="#d1" x="10.6538000" y="1.050001" />
<path d="M10.65380000,1.00000100 L10.65380000,1.10000100 L8.65380000,1.10000100 L8.65380000,1.00000100 Z" fill="#133d91ff" />
<use xlink:href="#d1" x="8.6538000" y="1.050001" />
<use xlink:href="#d1" x="8.6538000" y="1.050001" />
<path d="M8.70380000,1.05000100 L8.60380000,1.05000100 L8.60380000,0.05000100 L8.70380000,0.05000100 Z" fill="#133d91ff" />
<use xlink:href="#d1" x="8.6538000" y="0.050001" />
<use xlink:href="#d1" x="8.6538000" y="0.050001" />
<path d="M8.65380000,0.10000100 L8.65380000,0.00000100 L10.65380000,0.00000100 L10.65380000,0.10000100 Z" fill="#133d91ff" />
<use xlink:href="#d1" x="10.6538000" y="0.050001" />
<use xlink:href="#d1" x="10.6538000" y="0.050001" />
<path d="M10.60380000,0.05000100 L10.70380000,0.05000100 L10.70380000,1.05000100 L10.60380000,1.05000100 Z" fill="#133d91ff" />
<use xlink:href="#d1" x="10.6538000" y="1.050001" />
<path d="M16.65380000,1.05000100 L14.65380000,1.05000100 L14.65380000,0.05000100 L16.65380000,0.05000100 L16.65380000,1.05000100 Z" fill="#155c82ff" />
<use xlink:href="#d1" x="16.6538000" y="1.050001" />
<path d="M16.65380000,1.00000100 L16.65380000,1.10000100 L14.65380000,1.10000100 L14.65380000,1.00000100 Z" fill="#133d91ff" />
<use xlink:href="#d1" x="14.6538000" y="1.050001" />
<use xlink:href="#d1" x="14.6538000" y="1.050001" />
<path d="M14.70380000,1.05000100 L14.60380000,1.05000100 L14.60380000,0.05000100 L14.70380000,0.05000100 Z" fill="#133d91ff" />
<use xlink:href="#d1" x="14.6538000" y="0.050001" />
<use xlink:href="#d1" x="14.6538000" y="0.050001" />
<path d="M14.65380000,0.10000100 L14.65380000,0.00000100 L16.65380000,0.00000100 L16.65380000,0.10000100 Z" fill="#133d91ff" />
<use xlink:href="#d1" x="16.6538000" y="0.050001" />
<use xlink:href="#d1" x="16.6538000" y="0.050001" />
<path d="M16.60380000,0.05000100 L16.70380000,0.05000100 L16.70380000,1.05000100 L16.60380000,1.05000100 Z" fill="#133d91ff" />
<use xlink:href="#d1" x="16.6538000" y="1.050001" />
<use xlink:href="#d2" x="83.6768000" y="40.151001" />
<use xlink:href="#d2" x="83.6768000" y="28.721001" />
<use xlink:href="#d3" x="80.4768000" y="42.336001" />
<use xlink:href="#d3" x="80.4768000" y="26.536001" />
<use xlink:href="#d4" x="88.2488000" y="41.167001" />
<use xlink:href="#d4" x="86.2168000" y="41.167001" />
<use xlink:href="#d4" x="88.2488000" y="27.705001" />
<use xlink:href="#d4" x="86.2168000" y="27.705001" />
<use xlink:href="#d4" x="74.7868000" y="40.151001" />
<use xlink:href="#d4" x="77.3268000" y="38.881001" />
<use xlink:href="#d4" x="74.7868000" y="37.611001" />
<use xlink:href="#d4" x="77.3268000" y="36.341001" />
<use xlink:href="#d4" x="74.7868000" y="35.071001" />
<use xlink:href="#d4" x="77.3268000" y="33.801001" />
<use xlink:href="#d4" x="74.7868000" y="32.531001" />
<use xlink:href="#d4" x="77.3268000" y="31.261001" />
<use xlink:href="#d4" x="74.7868000" y="29.991001" />
<use xlink:href="#d4" x="77.3268000" y="28.721001" />
<use xlink:href="#d5" x="31.6068000" y="24.510001" />
<use xlink:href="#d5" x="31.6068000" y="22.010001" />
<use xlink:href="#d6" x="1.2008000" y="1.482001" />
<use xlink:href="#d6" x="1.2008000" y="16.082001" />
<use xlink:href="#d7" x="7.2508000" y="16.082001" />
<use xlink:href="#d7" x="7.2508000" y="1.482001" />
<use xlink:href="#d8" x="22.7168000" y="26.043001" />
<use xlink:href="#d8" x="22.7168000" y="27.843001" />
<use xlink:href="#d8" x="85.8358000" y="9.025001" />
<use xlink:href="#d8" x="85.8358000" y="10.825001" />
<use xlink:href="#d8" x="85.8358000" y="12.454001" />
<use xlink:href="#d8" x="85.8358000" y="14.254001" />
<use xlink:href="#d9" x="44.0528000" y="12.973001" />
<use xlink:href="#d9" x="43.0368000" y="12.973001" />
<use xlink:href="#d10" x="53.3033010" y="53.867002" />
<use xlink:href="#d10" x="53.3033010" y="52.597002" />
<use xlink:href="#d10" x="53.3033010" y="51.327002" />
<use xlink:href="#d10" x="53.3033010" y="50.057002" />
<use xlink:href="#d10" x="48.3033010" y="50.057002" />
<use xlink:href="#d10" x="48.3033010" y="51.327002" />
<use xlink:href="#d10" x="48.3033010" y="52.597002" />
<use xlink:href="#d10" x="48.3033010" y="53.867002" />
<use xlink:href="#d11" x="55.1018000" y="52.724001" />
<use xlink:href="#d11" x="55.1018000" y="53.740001" />
<use xlink:href="#d9" x="44.8148000" y="12.973001" />
<use xlink:href="#d9" x="45.8308000" y="12.973001" />
<use xlink:href="#d11" x="42.4653000" y="19.259501" />
<use xlink:href="#d11" x="42.4653000" y="18.243501" />
<use xlink:href="#d12" x="48.2438000" y="58.439001" />
<use xlink:href="#d12" x="48.2438000" y="60.979001" />
<use xlink:href="#d12" x="45.7038000" y="58.439001" />
<use xlink:href="#d13" x="45.7038000" y="60.979001" />
<use xlink:href="#d12" x="50.7838000" y="60.979001" />
<use xlink:href="#d12" x="50.7838000" y="58.439001" />
<use xlink:href="#d12" x="53.3238000" y="58.439001" />
<use xlink:href="#d12" x="53.3238000" y="60.979001" />
<use xlink:href="#d12" x="55.8638000" y="60.979001" />
<use xlink:href="#d12" x="55.8638000" y="58.439001" />
<use xlink:href="#d14" x="1.6348000" y="40.532001" />
<use xlink:href="#d14" x="7.6348000" y="40.532001" />
<use xlink:href="#d15" x="14.1538000" y="58.900001" />
<use xlink:href="#d15" x="12.6538000" y="3.200001" />
<use xlink:href="#d15" x="72.4538000" y="58.900001" />
<use xlink:href="#d9" x="35.6708000" y="55.327501" />
<use xlink:href="#d9" x="36.6868000" y="55.327501" />
<use xlink:href="#d9" x="31.9878000" y="55.264001" />
<use xlink:href="#d9" x="33.0038000" y="55.264001" />
<use xlink:href="#d9" x="34.8453000" y="55.327501" />
<use xlink:href="#d9" x="33.8293000" y="55.327501" />
<use xlink:href="#d9" x="33.0038000" y="54.375001" />
<use xlink:href="#d9" x="31.9878000" y="54.375001" />
<use xlink:href="#d9" x="36.6868000" y="56.216501" />
<use xlink:href="#d9" x="35.6708000" y="56.216501" />
<use xlink:href="#d9" x="33.0038000" y="56.216501" />
<use xlink:href="#d9" x="31.9878000" y="56.216501" />
<use xlink:href="#d9" x="30.2098000" y="54.375001" />
<use xlink:href="#d9" x="31.2258000" y="54.375001" />
<use xlink:href="#d9" x="34.8453000" y="56.216501" />
<use xlink:href="#d9" x="33.8293000" y="56.216501" />
<use xlink:href="#d9" x="45.8308000" y="12.084001" />
<use xlink:href="#d9" x="44.8148000" y="12.084001" />
<use xlink:href="#d16" x="74.4058000" y="45.089001" />
<use xlink:href="#d17" x="74.4058000" y="46.089001" />
<use xlink:href="#d18" x="75.5058000" y="46.389001" />
<use xlink:href="#d18" x="75.5058000" y="45.739001" />
<use xlink:href="#d18" x="75.5058000" y="45.089001" />
<use xlink:href="#d18" x="73.3058000" y="45.089001" />
<use xlink:href="#d18" x="73.3058000" y="45.739001" />
<use xlink:href="#d18" x="73.3058000" y="46.389001" />
<use xlink:href="#d19" x="14.3658000" y="27.832001" />
<use xlink:href="#d19" x="12.3658000" y="27.832001" />
<use xlink:href="#d19" x="10.3658000" y="27.832001" />
<use xlink:href="#d19" x="8.3658000" y="27.832001" />
<use xlink:href="#d20" x="7.8658000" y="30.682001" />
<use xlink:href="#d20" x="7.8658000" y="24.982001" />
<use xlink:href="#d20" x="14.8658000" y="30.682001" />
<use xlink:href="#d20" x="14.8658000" y="24.982001" />
<use xlink:href="#d19" x="24.4468000" y="8.020001" />
<use xlink:href="#d19" x="22.4468000" y="8.020001" />
<use xlink:href="#d19" x="20.4468000" y="8.020001" />
<use xlink:href="#d21" x="18.4468000" y="8.020001" />
<use xlink:href="#d22" x="60.0503000" y="31.670001" />
<use xlink:href="#d22" x="61.0753000" y="31.670001" />
<use xlink:href="#d23" x="60.0503000" y="31.130001" />
<use xlink:href="#d23" x="61.0753000" y="31.130001" />
<use xlink:href="#d23" x="60.0503000" y="30.630001" />
<use xlink:href="#d23" x="61.0753000" y="30.630001" />
<use xlink:href="#d22" x="60.0503000" y="30.090001" />
<use xlink:href="#d22" x="61.0753000" y="30.090001" />
<use xlink:href="#d9" x="43.0368000" y="12.084001" />
<use xlink:href="#d9" x="44.0528000" y="12.084001" />
<use xlink:href="#d24" x="60.9438000" y="41.802001" />
<use xlink:href="#d24" x="60.9438000" y="40.024001" />
<use xlink:href="#d10" x="51.4858000" y="7.893001" />
<use xlink:href="#d10" x="51.4858000" y="9.163001" />
<use xlink:href="#d10" x="51.4858000" y="10.433001" />
<use xlink:href="#d10" x="51.4858000" y="11.703001" />
<use xlink:href="#d10" x="57.9558000" y="11.703001" />
<use xlink:href="#d10" x="57.9558000" y="10.433001" />
<use xlink:href="#d10" x="57.9558000" y="9.163001" />
<use xlink:href="#d10" x="57.9558000" y="7.893001" />
<use xlink:href="#d25" x="14.2188000" y="53.432001" />
<use xlink:href="#d25" x="14.2188000" y="52.332001" />
<use xlink:href="#d25" x="14.2188000" y="51.232001" />
<use xlink:href="#d25" x="14.2188000" y="50.132001" />
<use xlink:href="#d25" x="14.2188000" y="49.032001" />
<use xlink:href="#d25" x="14.2188000" y="47.932001" />
<use xlink:href="#d25" x="14.2188000" y="46.832001" />
<use xlink:href="#d25" x="14.2188000" y="45.732001" />
<use xlink:href="#d25" x="14.2188000" y="44.632001" />
<use xlink:href="#d26" x="13.3388000" y="54.632001" />
<use xlink:href="#d27" x="13.3388000" y="40.032001" />
<use xlink:href="#d28" x="3.7388000" y="54.632001" />
<use xlink:href="#d28" x="3.7388000" y="39.132001" />
<use xlink:href="#d29" x="3.3366000" y="43.834001" />
<use xlink:href="#d29" x="3.3366000" y="51.835001" />
<use xlink:href="#d30" x="87.4958000" y="15.850001" />
<use xlink:href="#d30" x="84.0258000" y="15.850001" />
<use xlink:href="#d30" x="84.0258000" y="23.050001" />
<use xlink:href="#d30" x="87.4958000" y="23.050001" />
<use xlink:href="#d31" x="85.3458000" y="17.450001" />
<use xlink:href="#d31" x="85.3458000" y="21.450001" />
<use xlink:href="#d14" x="1.6348000" y="55.010001" />
<use xlink:href="#d14" x="7.6348000" y="55.010001" />
<use xlink:href="#d32" x="21.0148000" y="56.070001" />
<use xlink:href="#d32" x="21.5148000" y="56.070001" />
<use xlink:href="#d32" x="22.0148000" y="56.070001" />
<use xlink:href="#d32" x="22.5148000" y="56.070001" />
<use xlink:href="#d32" x="23.0148000" y="56.070001" />
<use xlink:href="#d32" x="23.5148000" y="56.070001" />
<use xlink:href="#d32" x="24.0148000" y="56.070001" />
<use xlink:href="#d32" x="24.5148000" y="56.070001" />
<use xlink:href="#d32" x="25.0148000" y="56.070001" />
<use xlink:href="#d32" x="25.5148000" y="56.070001" />
<use xlink:href="#d32" x="26.0148000" y="56.070001" />
<use xlink:href="#d32" x="26.5148000" y="56.070001" />
<use xlink:href="#d32" x="27.0148000" y="56.070001" />
<use xlink:href="#d32" x="27.5148000" y="56.070001" />
<use xlink:href="#d32" x="28.0148000" y="56.070001" />
<use xlink:href="#d32" x="28.5148000" y="56.070001" />
<use xlink:href="#d32" x="29.0148000" y="56.070001" />
<use xlink:href="#d32" x="29.5148000" y="56.070001" />
<use xlink:href="#d32" x="30.0148000" y="56.070001" />
<use xlink:href="#d32" x="30.5148000" y="56.070001" />
<use xlink:href="#d33" x="18.8648000" y="58.170001" />
<use xlink:href="#d33" x="32.6648000" y="58.170001" />
<use xlink:href="#d34" x="69.8778000" y="26.860001" />
<use xlink:href="#d34" x="69.8778000" y="27.360001" />
<use xlink:href="#d34" x="69.8778000" y="27.860001" />
<use xlink:href="#d34" x="69.8778000" y="28.360001" />
<use xlink:href="#d34" x="69.8778000" y="28.860001" />
<use xlink:href="#d34" x="69.8778000" y="29.360001" />
<use xlink:href="#d34" x="69.8778000" y="29.860001" />
<use xlink:href="#d34" x="69.8778000" y="30.360001" />
<use xlink:href="#d34" x="69.8778000" y="30.860001" />
<use xlink:href="#d34" x="69.8778000" y="31.360001" />
<use xlink:href="#d34" x="69.8778000" y="31.860001" />
<use xlink:href="#d34" x="69.8778000" y="32.360001" />
<use xlink:href="#d35" x="69.0278000" y="33.210001" />
<use xlink:href="#d35" x="68.5278000" y="33.210001" />
<use xlink:href="#d35" x="68.0278000" y="33.210001" />
<use xlink:href="#d35" x="67.5278000" y="33.210001" />
<use xlink:href="#d35" x="67.0278000" y="33.210001" />
<use xlink:href="#d35" x="66.5278000" y="33.210001" />
<use xlink:href="#d35" x="66.0278000" y="33.210001" />
<use xlink:href="#d35" x="65.5278000" y="33.210001" />
<use xlink:href="#d35" x="65.0278000" y="33.210001" />
<use xlink:href="#d35" x="64.5278000" y="33.210001" />
<use xlink:href="#d35" x="64.0278000" y="33.210001" />
<use xlink:href="#d35" x="63.5278000" y="33.210001" />
<use xlink:href="#d34" x="62.6778000" y="32.360001" />
<use xlink:href="#d34" x="62.6778000" y="31.860001" />
<use xlink:href="#d34" x="62.6778000" y="31.360001" />
<use xlink:href="#d34" x="62.6778000" y="30.860001" />
<use xlink:href="#d34" x="62.6778000" y="30.360001" />
<use xlink:href="#d34" x="62.6778000" y="29.860001" />
<use xlink:href="#d34" x="62.6778000" y="29.360001" />
<use xlink:href="#d34" x="62.6778000" y="28.860001" />
<use xlink:href="#d34" x="62.6778000" y="28.360001" />
<use xlink:href="#d34" x="62.6778000" y="27.860001" />
<use xlink:href="#d34" x="62.6778000" y="27.360001" />
<use xlink:href="#d34" x="62.6778000" y="26.860001" />
<use xlink:href="#d35" x="63.5278000" y="26.010001" />
<use xlink:href="#d35" x="64.0278000" y="26.010001" />
<use xlink:href="#d35" x="64.5278000" y="26.010001" />
<use xlink:href="#d35" x="65.0278000" y="26.010001" />
<use xlink:href="#d35" x="65.5278000" y="26.010001" />
<use xlink:href="#d35" x="66.0278000" y="26.010001" />
<use xlink:href="#d35" x="66.5278000" y="26.010001" />
<use xlink:href="#d35" x="67.0278000" y="26.010001" />
<use xlink:href="#d35" x="67.5278000" y="26.010001" />
<use xlink:href="#d35" x="68.0278000" y="26.010001" />
<use xlink:href="#d35" x="68.5278000" y="26.010001" />
<use xlink:href="#d35" x="69.0278000" y="26.010001" />
<use xlink:href="#d36" x="66.2778000" y="29.610001" />
<use xlink:href="#d37" x="66.2778000" y="29.610001" />
<use xlink:href="#d38" x="4.0478000" y="1.416001" />
<use xlink:href="#d38" x="4.0478000" y="60.852001" />
<use xlink:href="#d38" x="87.3598000" y="60.852001" />
<use xlink:href="#d37" x="65.5158000" y="46.945501" />
<use xlink:href="#d39" x="77.3268000" y="14.878001" />
<use xlink:href="#d39" x="78.0888000" y="14.878001" />
<use xlink:href="#d39" x="77.3268000" y="13.354001" />
<use xlink:href="#d39" x="78.0888000" y="13.354001" />
<use xlink:href="#d40" x="76.4378000" y="14.878001" />
<use xlink:href="#d40" x="76.4378000" y="13.354001" />
<use xlink:href="#d40" x="78.9778000" y="14.878001" />
<use xlink:href="#d40" x="78.9778000" y="13.354001" />
<use xlink:href="#d11" x="33.2578000" y="23.768001" />
<use xlink:href="#d11" x="33.2578000" y="22.752001" />
<use xlink:href="#d11" x="10.9058000" y="7.512001" />
<use xlink:href="#d11" x="10.9058000" y="6.496001" />
<use xlink:href="#d41" x="58.6578000" y="56.153001" />
<use xlink:href="#d41" x="58.6578000" y="54.629001" />
<use xlink:href="#d41" x="58.6578000" y="54.629001" />
<use xlink:href="#d11" x="35.0538000" y="48.208001" />
<use xlink:href="#d11" x="35.0538000" y="47.192001" />
<use xlink:href="#d9" x="34.0198000" y="45.866001" />
<use xlink:href="#d9" x="35.0358000" y="45.866001" />
<use xlink:href="#d9" x="32.1148000" y="45.866001" />
<use xlink:href="#d9" x="33.1308000" y="45.866001" />
<use xlink:href="#d9" x="30.2098000" y="45.866001" />
<use xlink:href="#d9" x="31.2258000" y="45.866001" />
<use xlink:href="#d24" x="35.7978000" y="53.676501" />
<use xlink:href="#d24" x="34.0198000" y="53.676501" />
<use xlink:href="#d11" x="28.8128000" y="53.994001" />
<use xlink:href="#d11" x="28.8128000" y="52.978001" />
<use xlink:href="#d11" x="24.4948000" y="53.994001" />
<use xlink:href="#d11" x="24.4948000" y="52.978001" />
<use xlink:href="#d11" x="24.8538000" y="43.492001" />
<use xlink:href="#d11" x="24.8538000" y="44.508001" />
<use xlink:href="#d11" x="29.0668000" y="36.976001" />
<use xlink:href="#d11" x="29.0668000" y="37.992001" />
<use xlink:href="#d24" x="25.1428000" y="30.800001" />
<use xlink:href="#d24" x="23.3648000" y="30.800001" />
<use xlink:href="#d11" x="18.7538000" y="43.092001" />
<use xlink:href="#d11" x="18.7538000" y="44.108001" />
<use xlink:href="#d9" x="33.6618000" y="48.000001" />
<use xlink:href="#d9" x="32.6458000" y="48.000001" />
<use xlink:href="#d9" x="31.9878000" y="53.486001" />
<use xlink:href="#d9" x="33.0038000" y="53.486001" />
<use xlink:href="#d9" x="30.2098000" y="53.486001" />
<use xlink:href="#d9" x="31.2258000" y="53.486001" />
<use xlink:href="#d11" x="33.0538000" y="34.108001" />
<use xlink:href="#d11" x="33.0538000" y="33.092001" />
<use xlink:href="#d24" x="21.5648000" y="53.800001" />
<use xlink:href="#d24" x="23.3428000" y="53.800001" />
<use xlink:href="#d9" x="44.2618000" y="37.400001" />
<use xlink:href="#d9" x="43.2458000" y="37.400001" />
<use xlink:href="#d9" x="46.3618000" y="38.000001" />
<use xlink:href="#d9" x="45.3458000" y="38.000001" />
<use xlink:href="#d9" x="29.1938000" y="38.881001" />
<use xlink:href="#d9" x="30.2098000" y="38.881001" />
<use xlink:href="#d9" x="28.3618000" y="32.500001" />
<use xlink:href="#d9" x="27.3458000" y="32.500001" />
<use xlink:href="#d24" x="31.0988000" y="30.499001" />
<use xlink:href="#d24" x="32.8768000" y="30.499001" />
<use xlink:href="#d9" x="40.5458000" y="37.300001" />
<use xlink:href="#d9" x="41.5618000" y="37.300001" />
<use xlink:href="#d9" x="17.7458000" y="40.800001" />
<use xlink:href="#d9" x="18.7618000" y="40.800001" />
<use xlink:href="#d11" x="26.8538000" y="53.008001" />
<use xlink:href="#d11" x="26.8538000" y="51.992001" />
<use xlink:href="#d9" x="28.0618000" y="30.600001" />
<use xlink:href="#d9" x="27.0458000" y="30.600001" />
<use xlink:href="#d24" x="20.2648000" y="30.800001" />
<use xlink:href="#d24" x="22.0428000" y="30.800001" />
<use xlink:href="#d24" x="36.3058000" y="45.739001" />
<use xlink:href="#d24" x="36.3058000" y="47.517001" />
<use xlink:href="#d11" x="27.5538000" y="37.608001" />
<use xlink:href="#d11" x="27.5538000" y="36.592001" />
<use xlink:href="#d9" x="42.3458000" y="38.300001" />
<use xlink:href="#d9" x="43.3618000" y="38.300001" />
<use xlink:href="#d9" x="33.9618000" y="37.400001" />
<use xlink:href="#d9" x="32.9458000" y="37.400001" />
<use xlink:href="#d11" x="26.5538000" y="37.392001" />
<use xlink:href="#d11" x="26.5538000" y="38.408001" />
<use xlink:href="#d9" x="47.2458000" y="31.500001" />
<use xlink:href="#d9" x="48.2618000" y="31.500001" />
<use xlink:href="#d9" x="46.5458000" y="14.050001" />
<use xlink:href="#d9" x="47.5618000" y="14.050001" />
<use xlink:href="#d24" x="45.7673000" y="15.259001" />
<use xlink:href="#d24" x="47.5453000" y="15.259001" />
<use xlink:href="#d9" x="39.8958000" y="14.800001" />
<use xlink:href="#d9" x="40.9118000" y="14.800001" />
<use xlink:href="#d24" x="39.5148000" y="16.050001" />
<use xlink:href="#d24" x="41.2928000" y="16.050001" />
<use xlink:href="#d24" x="41.7648000" y="8.800001" />
<use xlink:href="#d24" x="43.5428000" y="8.800001" />
<use xlink:href="#d24" x="41.7648000" y="10.350001" />
<use xlink:href="#d24" x="43.5428000" y="10.350001" />
<use xlink:href="#d9" x="42.1618000" y="13.950001" />
<use xlink:href="#d9" x="41.1458000" y="13.950001" />
<use xlink:href="#d9" x="39.5458000" y="32.800001" />
<use xlink:href="#d9" x="40.5618000" y="32.800001" />
<use xlink:href="#d11" x="39.0788000" y="34.633001" />
<use xlink:href="#d11" x="39.0788000" y="33.617001" />
<use xlink:href="#d9" x="36.7458000" y="34.800001" />
<use xlink:href="#d9" x="37.7618000" y="34.800001" />
<use xlink:href="#d24" x="34.2738000" y="32.277001" />
<use xlink:href="#d24" x="36.0518000" y="32.277001" />
<use xlink:href="#d24" x="36.0518000" y="28.086001" />
<use xlink:href="#d24" x="34.2738000" y="28.086001" />
<use xlink:href="#d24" x="34.2738000" y="30.880001" />
<use xlink:href="#d24" x="36.0518000" y="30.880001" />
<use xlink:href="#d24" x="36.0518000" y="29.483001" />
<use xlink:href="#d24" x="34.2738000" y="29.483001" />
<use xlink:href="#d24" x="36.0518000" y="33.674001" />
<use xlink:href="#d24" x="34.2738000" y="33.674001" />
<use xlink:href="#d24" x="40.7038000" y="35.664001" />
<use xlink:href="#d24" x="40.7038000" y="33.886001" />
<use xlink:href="#d42" x="16.4938000" y="50.311001" />
<use xlink:href="#d42" x="16.4938000" y="48.279001" />
<use xlink:href="#d11" x="79.6128000" y="22.371001" />
<use xlink:href="#d11" x="79.6128000" y="23.387001" />
<use xlink:href="#d11" x="44.2788000" y="29.758001" />
<use xlink:href="#d11" x="44.2788000" y="28.742001" />
<use xlink:href="#d9" x="44.4618000" y="30.800001" />
<use xlink:href="#d9" x="43.4458000" y="30.800001" />
<use xlink:href="#d11" x="47.5538000" y="33.508001" />
<use xlink:href="#d11" x="47.5538000" y="32.492001" />
<use xlink:href="#d11" x="42.3538000" y="30.192001" />
<use xlink:href="#d11" x="42.3538000" y="31.208001" />
<use xlink:href="#d9" x="47.2458000" y="30.600001" />
<use xlink:href="#d9" x="48.2618000" y="30.600001" />
<use xlink:href="#d11" x="48.4538000" y="32.492001" />
<use xlink:href="#d11" x="48.4538000" y="33.508001" />
<use xlink:href="#d24" x="43.4178000" y="21.609001" />
<use xlink:href="#d24" x="45.1958000" y="21.609001" />
<use xlink:href="#d11" x="42.2538000" y="32.092001" />
<use xlink:href="#d11" x="42.2538000" y="33.108001" />
<use xlink:href="#d42" x="80.1208000" y="54.375001" />
<use xlink:href="#d42" x="80.1208000" y="52.343001" />
<use xlink:href="#d42" x="78.0888000" y="54.375001" />
<use xlink:href="#d42" x="78.0888000" y="52.343001" />
<use xlink:href="#d24" x="45.1958000" y="18.180001" />
<use xlink:href="#d24" x="46.9738000" y="18.180001" />
<use xlink:href="#d24" x="67.6748000" y="47.009001" />
<use xlink:href="#d24" x="69.4528000" y="47.009001" />
<use xlink:href="#d9" x="49.1618000" y="39.700001" />
<use xlink:href="#d9" x="48.1458000" y="39.700001" />
<use xlink:href="#d24" x="59.6738000" y="42.564001" />
<use xlink:href="#d24" x="57.8958000" y="42.564001" />
<use xlink:href="#d24" x="61.4518000" y="45.231001" />
<use xlink:href="#d24" x="63.2298000" y="45.231001" />
<use xlink:href="#d9" x="51.9268000" y="42.056001" />
<use xlink:href="#d9" x="52.9428000" y="42.056001" />
<use xlink:href="#d24" x="67.6748000" y="48.660001" />
<use xlink:href="#d24" x="69.4528000" y="48.660001" />
<use xlink:href="#d9" x="51.9268000" y="41.167001" />
<use xlink:href="#d9" x="52.9428000" y="41.167001" />
<use xlink:href="#d11" x="48.8538000" y="38.008001" />
<use xlink:href="#d11" x="48.8538000" y="36.992001" />
<use xlink:href="#d24" x="65.5158000" y="50.819001" />
<use xlink:href="#d24" x="65.5158000" y="49.041001" />
<use xlink:href="#d9" x="49.1618000" y="41.000001" />
<use xlink:href="#d9" x="48.1458000" y="41.000001" />
<use xlink:href="#d24" x="79.1048000" y="47.263001" />
<use xlink:href="#d24" x="77.3268000" y="47.263001" />
<use xlink:href="#d24" x="51.4188000" y="43.326001" />
<use xlink:href="#d24" x="51.4188000" y="45.104001" />
<use xlink:href="#d24" x="48.3708000" y="43.199001" />
<use xlink:href="#d24" x="46.5928000" y="43.199001" />
<use xlink:href="#d24" x="63.8648000" y="50.819001" />
<use xlink:href="#d24" x="63.8648000" y="49.041001" />
<use xlink:href="#d24" x="72.1198000" y="41.294001" />
<use xlink:href="#d24" x="72.1198000" y="43.072001" />
<use xlink:href="#d24" x="49.7678000" y="44.723001" />
<use xlink:href="#d24" x="47.9898000" y="44.723001" />
<use xlink:href="#d24" x="62.3408000" y="49.041001" />
<use xlink:href="#d24" x="62.3408000" y="50.819001" />
<use xlink:href="#d24" x="58.1498000" y="51.708001" />
<use xlink:href="#d24" x="59.9278000" y="51.708001" />
<use xlink:href="#d24" x="67.0398000" y="52.851001" />
<use xlink:href="#d24" x="68.8178000" y="52.851001" />
<use xlink:href="#d24" x="66.2778000" y="40.024001" />
<use xlink:href="#d24" x="66.2778000" y="38.246001" />
<use xlink:href="#d11" x="41.8538000" y="34.692001" />
<use xlink:href="#d11" x="41.8538000" y="35.708001" />
<use xlink:href="#d9" x="84.9468000" y="9.925001" />
<use xlink:href="#d9" x="83.9308000" y="9.925001" />
<use xlink:href="#d24" x="65.5158000" y="43.199001" />
<use xlink:href="#d24" x="65.5158000" y="44.977001" />
<use xlink:href="#d11" x="44.5538000" y="33.192001" />
<use xlink:href="#d11" x="44.5538000" y="34.208001" />
<use xlink:href="#d24" x="59.6738000" y="44.469001" />
<use xlink:href="#d24" x="57.8958000" y="44.469001" />
<use xlink:href="#d24" x="57.7688000" y="38.627001" />
<use xlink:href="#d24" x="57.7688000" y="40.405001" />
<use xlink:href="#d24" x="62.4678000" y="42.945001" />
<use xlink:href="#d24" x="64.2458000" y="42.945001" />
<use xlink:href="#d24" x="63.2298000" y="40.024001" />
<use xlink:href="#d24" x="63.2298000" y="38.246001" />
<use xlink:href="#d24" x="64.7538000" y="40.024001" />
<use xlink:href="#d24" x="64.7538000" y="38.246001" />
<use xlink:href="#d24" x="67.8018000" y="41.548001" />
<use xlink:href="#d24" x="66.0238000" y="41.548001" />
<use xlink:href="#d24" x="59.2928000" y="38.627001" />
<use xlink:href="#d24" x="59.2928000" y="40.405001" />
<use xlink:href="#d24" x="68.8178000" y="43.072001" />
<use xlink:href="#d24" x="67.0398000" y="43.072001" />
<use xlink:href="#d24" x="63.2298000" y="47.009001" />
<use xlink:href="#d24" x="61.4518000" y="47.009001" />
<use xlink:href="#d24" x="56.4988000" y="47.898001" />
<use xlink:href="#d24" x="58.2768000" y="47.898001" />
<use xlink:href="#d24" x="70.8498000" y="40.913001" />
<use xlink:href="#d24" x="70.8498000" y="39.135001" />
<use xlink:href="#d24" x="69.3258000" y="44.596001" />
<use xlink:href="#d24" x="67.5478000" y="44.596001" />
<use xlink:href="#d9" x="84.8198000" y="13.354001" />
<use xlink:href="#d9" x="83.8038000" y="13.354001" />
<use xlink:href="#d24" x="69.3258000" y="39.643001" />
<use xlink:href="#d24" x="69.3258000" y="37.865001" />
<use xlink:href="#d24" x="67.8018000" y="39.643001" />
<use xlink:href="#d24" x="67.8018000" y="37.865001" />
<use xlink:href="#d42" x="85.4548000" y="50.184001" />
<use xlink:href="#d42" x="85.4548000" y="48.152001" />
<use xlink:href="#d24" x="69.3258000" y="50.184001" />
<use xlink:href="#d24" x="67.5478000" y="50.184001" />
<use xlink:href="#d9" x="30.9718000" y="20.847001" />
<use xlink:href="#d9" x="31.9878000" y="20.847001" />
<use xlink:href="#d9" x="30.9718000" y="25.673001" />
<use xlink:href="#d9" x="31.9878000" y="25.673001" />
<use xlink:href="#d24" x="45.1958000" y="19.577001" />
<use xlink:href="#d24" x="46.9738000" y="19.577001" />
<use xlink:href="#d9" x="41.3618000" y="30.800001" />
<use xlink:href="#d9" x="40.3458000" y="30.800001" />
<use xlink:href="#d24" x="17.5098000" y="26.943001" />
<use xlink:href="#d24" x="19.2878000" y="26.943001" />
<use xlink:href="#d11" x="45.6538000" y="31.134001" />
<use xlink:href="#d11" x="45.6538000" y="30.118001" />
<use xlink:href="#d24" x="36.0518000" y="26.435001" />
<use xlink:href="#d24" x="34.2738000" y="26.435001" />
<use xlink:href="#d24" x="50.5298000" y="24.911001" />
<use xlink:href="#d24" x="52.3078000" y="24.911001" />
<use xlink:href="#d43" x="61.5788000" y="58.653001" />
<use xlink:href="#d43" x="61.5788000" y="53.653001" />
<use xlink:href="#d44" x="68.1778000" y="58.820001" />
<use xlink:href="#d44" x="64.3778000" y="58.820001" />
<use xlink:href="#d45" x="9.4732400" y="6.181041" />
<use xlink:href="#d45" x="9.4732400" y="8.083501" />
<use xlink:href="#d45" x="7.2634400" y="7.128461" />
<use xlink:href="#d45" x="66.2422400" y="54.949041" />
<use xlink:href="#d45" x="66.2422400" y="56.851501" />
<use xlink:href="#d45" x="64.0324400" y="55.896461" />
<use xlink:href="#d46" x="4.1748000" y="4.715001" />
<use xlink:href="#d46" x="4.1748000" y="7.515001" />
<use xlink:href="#d47" x="78.5968000" y="60.893001" />
<use xlink:href="#d47" x="78.5968000" y="56.493001" />
<use xlink:href="#d42" x="47.7358000" y="7.893001" />
<use xlink:href="#d42" x="45.7038000" y="7.893001" />
<use xlink:href="#d48" x="18.3988000" y="50.311001" />
<use xlink:href="#d48" x="18.3988000" y="48.279001" />
<use xlink:href="#d9" x="27.7618000" y="34.800001" />
<use xlink:href="#d9" x="26.7458000" y="34.800001" />
<use xlink:href="#d11" x="40.4968000" y="44.342001" />
<use xlink:href="#d11" x="40.4968000" y="45.358001" />
<use xlink:href="#d11" x="39.6078000" y="44.342001" />
<use xlink:href="#d11" x="39.6078000" y="45.358001" />
<use xlink:href="#d9" x="67.6748000" y="13.735001" />
<use xlink:href="#d9" x="68.6908000" y="13.735001" />
<use xlink:href="#d11" x="69.4528000" y="16.148001" />
<use xlink:href="#d11" x="69.4528000" y="17.164001" />
<use xlink:href="#d9" x="37.5758000" y="26.435001" />
<use xlink:href="#d9" x="38.5918000" y="26.435001" />
<use xlink:href="#d11" x="51.4188000" y="34.436001" />
<use xlink:href="#d11" x="51.4188000" y="35.452001" />
<use xlink:href="#d9" x="53.0698000" y="35.071001" />
<use xlink:href="#d9" x="54.0858000" y="35.071001" />
<use xlink:href="#d39" x="18.0178000" y="55.137001" />
<use xlink:href="#d39" x="18.7798000" y="55.137001" />
<use xlink:href="#d39" x="18.0178000" y="53.613001" />
<use xlink:href="#d39" x="18.7798000" y="53.613001" />
<use xlink:href="#d40" x="17.1288000" y="55.137001" />
<use xlink:href="#d40" x="17.1288000" y="53.613001" />
<use xlink:href="#d40" x="19.6688000" y="55.137001" />
<use xlink:href="#d40" x="19.6688000" y="53.613001" />
<use xlink:href="#d39" x="73.0088000" y="14.878001" />
<use xlink:href="#d39" x="73.7708000" y="14.878001" />
<use xlink:href="#d39" x="73.0088000" y="13.354001" />
<use xlink:href="#d39" x="73.7708000" y="13.354001" />
<use xlink:href="#d40" x="72.1198000" y="14.878001" />
<use xlink:href="#d40" x="72.1198000" y="13.354001" />
<use xlink:href="#d40" x="74.6598000" y="14.878001" />
<use xlink:href="#d40" x="74.6598000" y="13.354001" />
<use xlink:href="#d9" x="84.6928000" y="18.561001" />
<use xlink:href="#d9" x="83.6768000" y="18.561001" />
<use xlink:href="#d11" x="81.5178000" y="23.387001" />
<use xlink:href="#d11" x="81.5178000" y="22.371001" />
<use xlink:href="#d9" x="73.1358000" y="21.863001" />
<use xlink:href="#d9" x="74.1518000" y="21.863001" />
<use xlink:href="#d11" x="80.6288000" y="22.371001" />
<use xlink:href="#d11" x="80.6288000" y="23.387001" />
<use xlink:href="#d9" x="70.4688000" y="14.878001" />
<use xlink:href="#d9" x="69.4528000" y="14.878001" />
<use xlink:href="#d49" x="26.5268000" y="6.369001" />
<use xlink:href="#d49" x="28.0508000" y="6.369001" />
<use xlink:href="#d49" x="28.0508000" y="6.369001" />
<use xlink:href="#d11" x="43.3538000" y="32.908001" />
<use xlink:href="#d11" x="43.3538000" y="31.892001" />
<use xlink:href="#d11" x="70.0878000" y="52.978001" />
<use xlink:href="#d11" x="70.0878000" y="51.962001" />
<use xlink:href="#d11" x="70.8498000" y="46.120001" />
<use xlink:href="#d11" x="70.8498000" y="45.104001" />
<use xlink:href="#d50" x="80.6288000" y="49.168001" />
<use xlink:href="#d50" x="77.8348000" y="49.168001" />
<use xlink:href="#d9" x="68.6908000" y="45.866001" />
<use xlink:href="#d9" x="69.7068000" y="45.866001" />
<use xlink:href="#d11" x="56.7528000" y="49.168001" />
<use xlink:href="#d11" x="56.7528000" y="50.184001" />
<use xlink:href="#d11" x="57.6418000" y="49.168001" />
<use xlink:href="#d11" x="57.6418000" y="50.184001" />
<use xlink:href="#d9" x="86.7248000" y="9.925001" />
<use xlink:href="#d9" x="87.7408000" y="9.925001" />
<use xlink:href="#d11" x="58.5308000" y="50.184001" />
<use xlink:href="#d11" x="58.5308000" y="49.168001" />
<use xlink:href="#d9" x="86.8518000" y="13.354001" />
<use xlink:href="#d9" x="87.8678000" y="13.354001" />
<use xlink:href="#d11" x="58.1498000" y="61.360001" />
<use xlink:href="#d11" x="58.1498000" y="60.344001" />
<use xlink:href="#d9" x="16.6208000" y="45.866001" />
<use xlink:href="#d9" x="15.6048000" y="45.866001" />
<use xlink:href="#d9" x="16.6208000" y="46.755001" />
<use xlink:href="#d9" x="15.6048000" y="46.755001" />
<use xlink:href="#d9" x="45.4498000" y="14.052501" />
<use xlink:href="#d9" x="44.4338000" y="14.052501" />
<use xlink:href="#d9" x="44.4338000" y="15.250001" />
<use xlink:href="#d9" x="43.4178000" y="15.250001" />
<use xlink:href="#d9" x="35.9248000" y="34.817001" />
<use xlink:href="#d9" x="34.9088000" y="34.817001" />
<use xlink:href="#d11" x="19.6538000" y="32.292001" />
<use xlink:href="#d11" x="19.6538000" y="33.308001" />
<use xlink:href="#d11" x="17.8538000" y="44.108001" />
<use xlink:href="#d11" x="17.8538000" y="43.092001" />
<use xlink:href="#d9" x="18.7618000" y="41.700001" />
<use xlink:href="#d9" x="17.7458000" y="41.700001" />
<use xlink:href="#d11" x="27.7333000" y="53.994001" />
<use xlink:href="#d11" x="27.7333000" y="52.978001" />
<use xlink:href="#d9" x="26.5618000" y="53.900001" />
<use xlink:href="#d9" x="25.5458000" y="53.900001" />
<use xlink:href="#d51" x="51.5458000" y="18.815001" />
<use xlink:href="#d51" x="51.5458000" y="19.958001" />
<use xlink:href="#d51" x="51.5458000" y="21.101001" />
<use xlink:href="#d9" x="82.0258000" y="19.069001" />
<use xlink:href="#d9" x="81.0098000" y="19.069001" />
<use xlink:href="#d9" x="82.0258000" y="19.958001" />
<use xlink:href="#d9" x="81.0098000" y="19.958001" />
<use xlink:href="#d24" x="32.8768000" y="28.848001" />
<use xlink:href="#d24" x="31.0988000" y="28.848001" />
<use xlink:href="#d52" x="82.5338000" y="43.453001" />
<use xlink:href="#d52" x="86.0898000" y="43.453001" />
<use xlink:href="#d48" x="73.6438000" y="25.165001" />
<use xlink:href="#d48" x="71.6118000" y="25.165001" />
<use xlink:href="#d24" x="61.8328000" y="22.498001" />
<use xlink:href="#d24" x="61.8328000" y="20.720001" />
<use xlink:href="#d9" x="61.0708000" y="29.356001" />
<use xlink:href="#d9" x="60.0548000" y="29.356001" />
<use xlink:href="#d9" x="63.6108000" y="23.704501" />
<use xlink:href="#d9" x="62.5948000" y="23.704501" />
<use xlink:href="#d9" x="65.3888000" y="24.022001" />
<use xlink:href="#d9" x="64.3728000" y="24.022001" />
<use xlink:href="#d11" x="88.6298000" y="44.215001" />
<use xlink:href="#d11" x="88.6298000" y="43.199001" />
<use xlink:href="#d24" x="73.1358000" y="23.387001" />
<use xlink:href="#d24" x="71.3578000" y="23.387001" />
<use xlink:href="#d9" x="62.5948000" y="24.657001" />
<use xlink:href="#d9" x="61.5788000" y="24.657001" />
<use xlink:href="#d11" x="71.1038000" y="33.039001" />
<use xlink:href="#d11" x="71.1038000" y="34.055001" />
<use xlink:href="#d11" x="48.2438000" y="9.099501" />
<use xlink:href="#d11" x="48.2438000" y="10.115501" />
<use xlink:href="#d9" x="60.9438000" y="8.274001" />
<use xlink:href="#d9" x="59.9278000" y="8.274001" />
<use xlink:href="#d9" x="60.9438000" y="10.560001" />
<use xlink:href="#d9" x="59.9278000" y="10.560001" />
<use xlink:href="#d9" x="60.9438000" y="9.671001" />
<use xlink:href="#d9" x="59.9278000" y="9.671001" />
<use xlink:href="#d11" x="49.1328000" y="9.099501" />
<use xlink:href="#d11" x="49.1328000" y="10.115501" />
<use xlink:href="#d29" x="10.3978000" y="33.293001" />
<use xlink:href="#d29" x="9.7628000" y="36.849001" />
<use xlink:href="#d29" x="12.3028000" y="7.258001" />
<use xlink:href="#d29" x="77.7078000" y="16.275001" />
<use xlink:href="#d29" x="56.6258000" y="38.754001" />
<use xlink:href="#d29" x="16.8748000" y="28.213001" />
<use xlink:href="#d29" x="81.7718000" y="47.263001" />
<use xlink:href="#d29" x="68.1828000" y="11.322001" />
<use xlink:href="#d29" x="58.2768000" y="46.501001" />
<use xlink:href="#d12" x="40.6238000" y="1.289001" />
<use xlink:href="#d12" x="40.6238000" y="3.829001" />
<use xlink:href="#d12" x="38.0838000" y="1.289001" />
<use xlink:href="#d12" x="38.0838000" y="3.829001" />
<use xlink:href="#d12" x="35.5438000" y="1.289001" />
<use xlink:href="#d12" x="35.5438000" y="3.829001" />
<use xlink:href="#d12" x="33.0038000" y="1.289001" />
<use xlink:href="#d12" x="33.0038000" y="3.829001" />
<use xlink:href="#d12" x="30.4638000" y="1.289001" />
<use xlink:href="#d12" x="30.4638000" y="3.829001" />
<use xlink:href="#d12" x="20.3038000" y="1.289001" />
<use xlink:href="#d12" x="20.3038000" y="3.829001" />
<use xlink:href="#d12" x="17.7638000" y="1.289001" />
<use xlink:href="#d13" x="17.7638000" y="3.829001" />
<use xlink:href="#d12" x="22.8438000" y="3.829001" />
<use xlink:href="#d12" x="22.8438000" y="1.289001" />
<use xlink:href="#d12" x="25.3838000" y="1.289001" />
<use xlink:href="#d12" x="25.3838000" y="3.829001" />
<use xlink:href="#d12" x="27.9238000" y="3.829001" />
<use xlink:href="#d12" x="27.9238000" y="1.289001" />
<use xlink:href="#d12" x="53.3238000" y="1.289001" />
<use xlink:href="#d12" x="53.3238000" y="3.829001" />
<use xlink:href="#d12" x="50.7838000" y="3.829001" />
<use xlink:href="#d12" x="50.7838000" y="1.289001" />
<use xlink:href="#d12" x="48.2438000" y="1.289001" />
<use xlink:href="#d12" x="48.2438000" y="3.829001" />
<use xlink:href="#d12" x="43.1638000" y="3.829001" />
<use xlink:href="#d12" x="43.1638000" y="1.289001" />
<use xlink:href="#d12" x="45.7038000" y="3.829001" />
<use xlink:href="#d12" x="45.7038000" y="1.289001" />
<use xlink:href="#d12" x="55.8638000" y="3.829001" />
<use xlink:href="#d12" x="55.8638000" y="1.289001" />
<use xlink:href="#d12" x="58.4038000" y="3.829001" />
<use xlink:href="#d12" x="58.4038000" y="1.289001" />
<use xlink:href="#d12" x="60.9438000" y="3.829001" />
<use xlink:href="#d12" x="60.9438000" y="1.289001" />
<use xlink:href="#d12" x="63.4838000" y="3.829001" />
<use xlink:href="#d12" x="63.4838000" y="1.289001" />
<use xlink:href="#d12" x="66.0238000" y="3.829001" />
<use xlink:href="#d12" x="66.0238000" y="1.289001" />
<use xlink:href="#d12" x="67.2938000" y="60.979001" />
<use xlink:href="#d12" x="64.7538000" y="60.979001" />
<use xlink:href="#d13" x="62.2138000" y="60.979001" />
<use xlink:href="#d53" x="87.6366600" y="50.049381" />
<use xlink:href="#d54" x="87.6341200" y="48.037701" />
<use xlink:href="#d55" x="60.1818000" y="27.324001" />
<use xlink:href="#d56" x="57.6418000" y="27.324001" />
<use xlink:href="#d9" x="12.6838000" y="36.214001" />
<use xlink:href="#d9" x="11.6678000" y="36.214001" />
<use xlink:href="#d9" x="12.6838000" y="37.103001" />
<use xlink:href="#d9" x="11.6678000" y="37.103001" />
<use xlink:href="#d57" x="85.3488000" y="53.024001" />
<use xlink:href="#d58" x="88.0948000" y="57.624001" />
<use xlink:href="#d59" x="82.0948000" y="57.474001" />
<use xlink:href="#d2" x="70.9538000" y="3.200001" />
<use xlink:href="#d11" x="66.0238000" y="6.877001" />
<use xlink:href="#d11" x="66.0238000" y="5.861001" />
<use xlink:href="#d11" x="65.1348000" y="6.877001" />
<use xlink:href="#d11" x="65.1348000" y="5.861001" />
<use xlink:href="#d40" x="69.0718000" y="9.925001" />
<use xlink:href="#d40" x="67.9288000" y="9.925001" />
<use xlink:href="#d40" x="66.7858000" y="9.925001" />
<use xlink:href="#d60" x="65.5708000" y="21.228001" />
<use xlink:href="#d60" x="69.2708000" y="21.228001" />
<use xlink:href="#d9" x="69.2623000" y="19.069001" />
<use xlink:href="#d9" x="68.2463000" y="19.069001" />
<use xlink:href="#d9" x="65.6428000" y="19.069001" />
<use xlink:href="#d9" x="66.6588000" y="19.069001" />
<use xlink:href="#d61" x="84.6928000" y="55.119001" />
<use xlink:href="#d61" x="84.6928000" y="59.473001" />
<use xlink:href="#d11" x="39.0038000" y="13.792001" />
<use xlink:href="#d11" x="39.0038000" y="14.808001" />
<use xlink:href="#d41" x="57.7688000" y="13.862001" />
<use xlink:href="#d41" x="57.7688000" y="15.386001" />
<use xlink:href="#d41" x="57.7688000" y="15.386001" />
<use xlink:href="#d11" x="41.5763000" y="19.259501" />
<use xlink:href="#d11" x="41.5763000" y="18.243501" />
<use xlink:href="#d9" x="54.0858000" y="34.055001" />
<use xlink:href="#d9" x="53.0698000" y="34.055001" />
<use xlink:href="#d9" x="61.8328000" y="23.704501" />
<use xlink:href="#d9" x="60.8168000" y="23.704501" />
</g>
</svg>