<?xml version="1.0" encoding="UTF-8"?>
<svg xmlns="http://www.w3.org/2000/svg" xmlns:xlink="http://www.w3.org/1999/xlink"
     width="80.05080" height="30.05080" viewBox="0 0 80.05080 30.05080">
<defs>
<mask id="d0">
<rect x="-40.02540" y="-15.02540" width="160.10160" height="60.10160" fill="white" />
</mask>
<g id="d1">
<circle cx="0" cy="0" r="0.0127" fill="#133d91ff" />
</g>
</defs>
<g mask="url(#d0)">
<g></g>
<use xlink:href="#d1" x="2.02540" y="30.02540" />
<path d="M2.02540000,30.03810000 A2.01270000,2.01270000,0,0,1,0.01270000,28.02540000 L0.03810000,28.02540000 A1.98730000,1.98730000,0,0,0,2.02540000,30.01270000 Z" fill="#133d91ff" />
<use xlink:href="#d1" x="0.02540" y="28.02540" />
<use xlink:href="#d1" x="0.02540" y="28.02540" />
<path d="M0.03810,28.02540 L0.01270,28.02540 L0.01270,2.02540 L0.03810,2.02540 Z" fill="#133d91ff" />
<use xlink:href="#d1" x="0.02540" y="2.02540" />
<use xlink:href="#d1" x="0.02540" y="2.02540" />
<path d="M0.01270000,2.02540000 A2.01270000,2.01270000,0,0,1,2.02540000,0.01270000 L2.02540000,0.03810000 A1.98730000,1.98730000,0,0,0,0.03810000,2.02540000 Z" fill="#133d91ff" />
<use xlink:href="#d1" x="2.02540" y="0.02540" />
<use xlink:href="#d1" x="2.02540" y="0.02540" />
<path d="M2.02540,0.03810 L2.02540,0.01270 L78.02540,0.01270 L78.02540,0.03810 Z" fill="#133d91ff" />
<use xlink:href="#d1" x="78.02540" y="0.02540" />
<use xlink:href="#d1" x="78.02540" y="0.02540" />
<path d="M78.02540000,0.01270000 A2.01270000,2.01270000,0,0,1,80.03810000,2.02540000 L80.01270000,2.02540000 A1.98730000,1.98730000,0,0,0,78.02540000,0.03810000 Z" fill="#133d91ff" />
<use xlink:href="#d1" x="80.02540" y="2.02540" />
<use xlink:href="#d1" x="80.02540" y="2.02540" />
<path d="M80.0127000000000009393491124259312852316095503285335611978790,2.0253999951153846153849766727355484351097044652116648206005 L80.0380999999999990606508875740687147683904496714664388021210,2.0254000048846153846150233272644515648902955347883351793995 L80.0380899999999990606508875740687147683904496714664388021210,28.0254000048846153846150233272644515648902955347883351793995 L80.0126900000000009393491124259312852316095503285335611978790,28.0253999951153846153849766727355484351097044652116648206005 Z" fill="#133d91ff" />
<use xlink:href="#d1" x="80.02539" y="28.02540" />
<use xlink:href="#d1" x="80.02539" y="28.02540" />
<path d="M80.03809000,28.02540000 A2.01270000,2.01270000,0,0,1,78.02540006,30.03810000 L78.02539994,30.01270000 A1.98730000,1.98730000,0,0,0,80.01269000,28.02540000 Z" fill="#133d91ff" />
<use xlink:href="#d1" x="78.02540" y="30.02540" />
<use xlink:href="#d1" x="78.02540" y="30.02540" />
<path d="M78.02540,30.01270 L78.02540,30.03810 L2.02540,30.03810 L2.02540,30.01270 Z" fill="#133d91ff" />
<use xlink:href="#d1" x="2.02540" y="30.02540" />
</g>
</svg>