<?xml version="1.0" encoding="UTF-8"?>
<svg xmlns="http://www.w3.org/2000/svg" xmlns:xlink="http://www.w3.org/1999/xlink"
     width="17.930000" height="43.180000" viewBox="0 0 17.930000 43.180000">
<defs>
<mask id="d0">
<rect x="-8.965000" y="-21.590000" width="35.860000" height="86.360000" fill="white" />
</mask>
<g id="d1">
<circle cx="0" cy="0" r="0.07500" fill="#133d91ff" />
</g>
<g id="d2">
<rect x="-1.0160000" y="-0.8636000" width="2.0320000" height="1.7272000" fill="#133d91ff" rx="0.863600" ry="0.863600" transform="rotate(-0.0)" />
</g>
<g id="d3">
<circle cx="0" cy="0" r="1.27000" fill="#133d91ff" />
</g>
</defs>
<g mask="url(#d0)">
<g></g>
<use xlink:href="#d1" x="3.916714" y="4.262380" />
<path d="M3.91671400,4.18738000 L3.91671400,4.33738000 L3.34528500,4.33738000 L3.34528500,4.18738000 Z" fill="#133d91ff" />
<use xlink:href="#d1" x="3.345285" y="4.262380" />
<use xlink:href="#d1" x="3.631000" y="4.262380" />
<path d="M3.70600000,4.26238000 L3.55600000,4.26238000 L3.55600000,3.26238000 L3.70600000,3.26238000 Z" fill="#133d91ff" />
<use xlink:href="#d1" x="3.631000" y="3.262380" />
<use xlink:href="#d1" x="3.631000" y="3.262380" />
<path d="M3.56859630,3.22077738 L3.69340370,3.30398262 L3.59816470,3.44684062 L3.47335730,3.36363538 Z" fill="#133d91ff" />
<use xlink:href="#d1" x="3.535761" y="3.405238" />
<use xlink:href="#d1" x="3.535761" y="3.405238" />
<path d="M3.48272799,3.35220499 L3.58879401,3.45827101 L3.49355601,3.55350901 L3.38748999,3.44744299 Z" fill="#133d91ff" />
<use xlink:href="#d1" x="3.440523" y="3.500476" />
<use xlink:href="#d1" x="3.440523" y="3.500476" />
<path d="M3.40698198,3.43339396 L3.47406402,3.56755804 L3.37882602,3.61517704 L3.31174398,3.48101296 Z" fill="#133d91ff" />
<use xlink:href="#d1" x="3.345285" y="3.548095" />
<use xlink:href="#d1" x="4.337380" y="20.931095" />
<path d="M4.33738000,20.85609500 L4.33738000,21.00609500 L3.33738000,21.00609500 L3.33738000,20.85609500 Z" fill="#133d91ff" />
<use xlink:href="#d1" x="3.337380" y="20.931095" />
<use xlink:href="#d1" x="3.337380" y="20.931095" />
<path d="M3.41238000,20.93109500 L3.26238000,20.93109500 L3.26238000,20.55014200 L3.41238000,20.55014200 Z" fill="#133d91ff" />
<use xlink:href="#d1" x="3.337380" y="20.550142" />
<use xlink:href="#d1" x="3.337380" y="20.550142" />
<path d="M3.40446176,20.58368358 L3.27029824,20.51660042 L3.31791824,20.42136242 L3.45208176,20.48844558 Z" fill="#133d91ff" />
<use xlink:href="#d1" x="3.385000" y="20.454904" />
<use xlink:href="#d1" x="3.385000" y="20.454904" />
<path d="M3.43803301,20.50793701 L3.33196699,20.40187099 L3.37958599,20.35425199 L3.48565201,20.46031801 Z" fill="#133d91ff" />
<use xlink:href="#d1" x="3.432619" y="20.407285" />
<use xlink:href="#d1" x="3.432619" y="20.407285" />
<path d="M3.46616002,20.47436704 L3.39907798,20.34020296 L3.49431598,20.29258396 L3.56139802,20.42674804 Z" fill="#133d91ff" />
<use xlink:href="#d1" x="3.527857" y="20.359666" />
<use xlink:href="#d1" x="3.527857" y="20.359666" />
<path d="M3.52785700,20.43466600 L3.52785700,20.28466600 L3.67071400,20.28466600 L3.67071400,20.43466600 Z" fill="#133d91ff" />
<use xlink:href="#d1" x="3.670714" y="20.359666" />
<use xlink:href="#d1" x="3.670714" y="20.359666" />
<path d="M3.63717298,20.42674804 L3.70425502,20.29258396 L3.79949302,20.34020296 L3.73241098,20.47436704 Z" fill="#133d91ff" />
<use xlink:href="#d1" x="3.765952" y="20.407285" />
<use xlink:href="#d1" x="3.765952" y="20.407285" />
<path d="M3.71291899,20.46031801 L3.81898501,20.35425199 L3.86660401,20.40187099 L3.76053799,20.50793701 Z" fill="#133d91ff" />
<use xlink:href="#d1" x="3.813571" y="20.454904" />
<use xlink:href="#d1" x="3.813571" y="20.454904" />
<path d="M3.74648896,20.48844502 L3.88065304,20.42136298 L3.92827204,20.51660098 L3.79410796,20.58368302 Z" fill="#133d91ff" />
<use xlink:href="#d1" x="3.861190" y="20.550142" />
<use xlink:href="#d1" x="3.861190" y="20.550142" />
<path d="M3.78619000,20.55014200 L3.93619000,20.55014200 L3.93619000,20.93109500 L3.78619000,20.93109500 Z" fill="#133d91ff" />
<use xlink:href="#d1" x="3.861190" y="20.931095" />
<use xlink:href="#d1" x="4.337380" y="19.407285" />
<path d="M4.26238000,19.40728500 L4.41238000,19.40728500 L4.41238000,19.97871400 L4.26238000,19.97871400 Z" fill="#133d91ff" />
<use xlink:href="#d1" x="4.337380" y="19.978714" />
<use xlink:href="#d1" x="4.337380" y="19.693000" />
<path d="M4.33738000,19.61800000 L4.33738000,19.76800000 L3.33738000,19.76800000 L3.33738000,19.61800000 Z" fill="#133d91ff" />
<use xlink:href="#d1" x="3.337380" y="19.693000" />
<use xlink:href="#d1" x="3.337380" y="19.693000" />
<path d="M3.29577769,19.75540391 L3.37898231,19.63059609 L3.52184031,19.72583409 L3.43863569,19.85064191 Z" fill="#133d91ff" />
<use xlink:href="#d1" x="3.480238" y="19.788238" />
<use xlink:href="#d1" x="3.480238" y="19.788238" />
<path d="M3.42720499,19.84127101 L3.53327101,19.73520499 L3.62850901,19.83044299 L3.52244299,19.93650901 Z" fill="#133d91ff" />
<use xlink:href="#d1" x="3.575476" y="19.883476" />
<use xlink:href="#d1" x="3.575476" y="19.883476" />
<path d="M3.50839396,19.91701702 L3.64255804,19.84993498 L3.69017704,19.94517298 L3.55601296,20.01225502 Z" fill="#133d91ff" />
<use xlink:href="#d1" x="3.623095" y="19.978714" />
<use xlink:href="#d1" x="14.497380" y="20.931095" />
<path d="M14.49738000,20.85609500 L14.49738000,21.00609500 L13.49738000,21.00609500 L13.49738000,20.85609500 Z" fill="#133d91ff" />
<use xlink:href="#d1" x="13.497380" y="20.931095" />
<use xlink:href="#d1" x="13.497380" y="20.931095" />
<path d="M13.57238000,20.93109500 L13.42238000,20.93109500 L13.42238000,20.55014200 L13.57238000,20.55014200 Z" fill="#133d91ff" />
<use xlink:href="#d1" x="13.497380" y="20.550142" />
<use xlink:href="#d1" x="13.497380" y="20.550142" />
<path d="M13.56446176,20.58368358 L13.43029824,20.51660042 L13.47791824,20.42136242 L13.61208176,20.48844558 Z" fill="#133d91ff" />
<use xlink:href="#d1" x="13.545000" y="20.454904" />
<use xlink:href="#d1" x="13.545000" y="20.454904" />
<path d="M13.59803301,20.50793701 L13.49196699,20.40187099 L13.53958599,20.35425199 L13.64565201,20.46031801 Z" fill="#133d91ff" />
<use xlink:href="#d1" x="13.592619" y="20.407285" />
<use xlink:href="#d1" x="13.592619" y="20.407285" />
<path d="M13.62616002,20.47436704 L13.55907798,20.34020296 L13.65431598,20.29258396 L13.72139802,20.42674804 Z" fill="#133d91ff" />
<use xlink:href="#d1" x="13.687857" y="20.359666" />
<use xlink:href="#d1" x="13.687857" y="20.359666" />
<path d="M13.68785700,20.43466600 L13.68785700,20.28466600 L13.83071400,20.28466600 L13.83071400,20.43466600 Z" fill="#133d91ff" />
<use xlink:href="#d1" x="13.830714" y="20.359666" />
<use xlink:href="#d1" x="13.830714" y="20.359666" />
<path d="M13.79717298,20.42674804 L13.86425502,20.29258396 L13.95949302,20.34020296 L13.89241098,20.47436704 Z" fill="#133d91ff" />
<use xlink:href="#d1" x="13.925952" y="20.407285" />
<use xlink:href="#d1" x="13.925952" y="20.407285" />
<path d="M13.87291899,20.46031801 L13.97898501,20.35425199 L14.02660401,20.40187099 L13.92053799,20.50793701 Z" fill="#133d91ff" />
<use xlink:href="#d1" x="13.973571" y="20.454904" />
<use xlink:href="#d1" x="13.973571" y="20.454904" />
<path d="M13.90648896,20.48844502 L14.04065304,20.42136298 L14.08827204,20.51660098 L13.95410796,20.58368302 Z" fill="#133d91ff" />
<use xlink:href="#d1" x="14.021190" y="20.550142" />
<use xlink:href="#d1" x="14.021190" y="20.550142" />
<path d="M13.94619000,20.55014200 L14.09619000,20.55014200 L14.09619000,20.93109500 L13.94619000,20.93109500 Z" fill="#133d91ff" />
<use xlink:href="#d1" x="14.021190" y="20.931095" />
<use xlink:href="#d1" x="13.592619" y="19.978714" />
<path d="M13.64565201,19.92568099 L13.53958599,20.03174701 L13.49196699,19.98412801 L13.59803301,19.87806199 Z" fill="#133d91ff" />
<use xlink:href="#d1" x="13.545000" y="19.931095" />
<use xlink:href="#d1" x="13.545000" y="19.931095" />
<path d="M13.61208176,19.89755342 L13.47791824,19.96463658 L13.43029824,19.86939858 L13.56446176,19.80231542 Z" fill="#133d91ff" />
<use xlink:href="#d1" x="13.497380" y="19.835857" />
<use xlink:href="#d1" x="13.497380" y="19.835857" />
<path d="M13.57238000,19.83585700 L13.42238000,19.83585700 L13.42238000,19.59776100 L13.57238000,19.59776100 Z" fill="#133d91ff" />
<use xlink:href="#d1" x="13.497380" y="19.597761" />
<use xlink:href="#d1" x="13.497380" y="19.597761" />
<path d="M13.56446176,19.63130258 L13.43029824,19.56421942 L13.47791824,19.46898142 L13.61208176,19.53606458 Z" fill="#133d91ff" />
<use xlink:href="#d1" x="13.545000" y="19.502523" />
<use xlink:href="#d1" x="13.545000" y="19.502523" />
<path d="M13.59803301,19.55555601 L13.49196699,19.44948999 L13.53958599,19.40187099 L13.64565201,19.50793701 Z" fill="#133d91ff" />
<use xlink:href="#d1" x="13.592619" y="19.454904" />
<use xlink:href="#d1" x="13.592619" y="19.454904" />
<path d="M13.62616002,19.52198604 L13.55907798,19.38782196 L13.65431598,19.34020296 L13.72139802,19.47436704 Z" fill="#133d91ff" />
<use xlink:href="#d1" x="13.687857" y="19.407285" />
<use xlink:href="#d1" x="13.687857" y="19.407285" />
<path d="M13.68785700,19.48228500 L13.68785700,19.33228500 L13.78309500,19.33228500 L13.78309500,19.48228500 Z" fill="#133d91ff" />
<use xlink:href="#d1" x="13.783095" y="19.407285" />
<use xlink:href="#d1" x="13.783095" y="19.407285" />
<path d="M13.75937792,19.47843625 L13.80681208,19.33613375 L13.94966908,19.38375275 L13.90223492,19.52605525 Z" fill="#133d91ff" />
<use xlink:href="#d1" x="13.925952" y="19.454904" />
<use xlink:href="#d1" x="13.925952" y="19.454904" />
<path d="M13.87291895,19.50793696 L13.97898505,19.40187104 L14.55041305,19.97330004 L14.44434695,20.07936596 Z" fill="#133d91ff" />
<use xlink:href="#d1" x="14.497380" y="20.026333" />
<use xlink:href="#d1" x="14.497380" y="20.026333" />
<path d="M14.57238000,20.02633300 L14.42238000,20.02633300 L14.42238000,19.40728500 L14.57238000,19.40728500 Z" fill="#133d91ff" />
<use xlink:href="#d1" x="14.497380" y="19.407285" />
<use xlink:href="#d1" x="2.615000" y="5.080000" />
<path d="M2.54000000,5.08000000 L2.69000000,5.08000000 L2.69000000,40.64000000 L2.54000000,40.64000000 Z" fill="#133d91ff" />
<use xlink:href="#d1" x="2.615000" y="40.640000" />
<use xlink:href="#d1" x="0.075000" y="2.540000" />
<path d="M0.00000000,2.54000000 L0.15000000,2.54000000 L0.15000000,5.08000000 L0.00000000,5.08000000 Z" fill="#133d91ff" />
<use xlink:href="#d1" x="0.075000" y="5.080000" />
<use xlink:href="#d1" x="0.075000" y="40.640000" />
<path d="M0.15000000,40.64000000 L0.00000000,40.64000000 L0.00000000,5.08000000 L0.15000000,5.08000000 Z" fill="#133d91ff" />
<use xlink:href="#d1" x="0.075000" y="5.080000" />
<use xlink:href="#d1" x="2.615000" y="40.640000" />
<path d="M2.61500000,40.56500000 L2.61500000,40.71500000 L0.07500000,40.71500000 L0.07500000,40.56500000 Z" fill="#133d91ff" />
<use xlink:href="#d1" x="0.075000" y="40.640000" />
<use xlink:href="#d1" x="2.615000" y="5.080000" />
<path d="M2.69000000,5.08000000 L2.54000000,5.08000000 L2.54000000,2.54000000 L2.69000000,2.54000000 Z" fill="#133d91ff" />
<use xlink:href="#d1" x="2.615000" y="2.540000" />
<use xlink:href="#d1" x="2.615000" y="2.540000" />
<path d="M2.61500000,2.46500000 L2.61500000,2.61500000 L0.07500000,2.61500000 L0.07500000,2.46500000 Z" fill="#133d91ff" />
<use xlink:href="#d1" x="0.075000" y="2.540000" />
<use xlink:href="#d1" x="0.075000" y="5.080000" />
<path d="M0.07500000,5.15500000 L0.07500000,5.00500000 L2.61500000,5.00500000 L2.61500000,5.15500000 Z" fill="#133d91ff" />
<use xlink:href="#d1" x="2.615000" y="5.080000" />
<use xlink:href="#d1" x="17.855000" y="2.540000" />
<path d="M17.85500000,2.46500000 L17.85500000,2.61500000 L15.31500000,2.61500000 L15.31500000,2.46500000 Z" fill="#133d91ff" />
<use xlink:href="#d1" x="15.315000" y="2.540000" />
<use xlink:href="#d1" x="17.855000" y="5.080000" />
<path d="M17.93000000,5.08000000 L17.78000000,5.08000000 L17.78000000,2.54000000 L17.93000000,2.54000000 Z" fill="#133d91ff" />
<use xlink:href="#d1" x="17.855000" y="2.540000" />
<use xlink:href="#d1" x="17.855000" y="40.640000" />
<path d="M17.85500000,40.56500000 L17.85500000,40.71500000 L15.31500000,40.71500000 L15.31500000,40.56500000 Z" fill="#133d91ff" />
<use xlink:href="#d1" x="15.315000" y="40.640000" />
<use xlink:href="#d1" x="17.855000" y="5.080000" />
<path d="M17.78000000,5.08000000 L17.93000000,5.08000000 L17.93000000,40.64000000 L17.78000000,40.64000000 Z" fill="#133d91ff" />
<use xlink:href="#d1" x="17.855000" y="40.640000" />
<use xlink:href="#d1" x="15.315000" y="5.080000" />
<path d="M15.31500000,5.15500000 L15.31500000,5.00500000 L17.85500000,5.00500000 L17.85500000,5.15500000 Z" fill="#133d91ff" />
<use xlink:href="#d1" x="17.855000" y="5.080000" />
<use xlink:href="#d1" x="15.315000" y="2.540000" />
<path d="M15.24000000,2.54000000 L15.39000000,2.54000000 L15.39000000,5.08000000 L15.24000000,5.08000000 Z" fill="#133d91ff" />
<use xlink:href="#d1" x="15.315000" y="5.080000" />
<use xlink:href="#d1" x="15.315000" y="40.640000" />
<path d="M15.39000000,40.64000000 L15.24000000,40.64000000 L15.24000000,5.08000000 L15.39000000,5.08000000 Z" fill="#133d91ff" />
<use xlink:href="#d1" x="15.315000" y="5.080000" />
<use xlink:href="#d2" x="1.345000" y="3.810000" />
<use xlink:href="#d2" x="1.345000" y="6.350000" />
<use xlink:href="#d2" x="1.345000" y="8.890000" />
<use xlink:href="#d2" x="1.345000" y="11.430000" />
<use xlink:href="#d2" x="1.345000" y="13.970000" />
<use xlink:href="#d2" x="1.345000" y="16.510000" />
<use xlink:href="#d2" x="1.345000" y="19.050000" />
<use xlink:href="#d2" x="1.345000" y="21.590000" />
<use xlink:href="#d2" x="1.345000" y="24.130000" />
<use xlink:href="#d2" x="1.345000" y="26.670000" />
<use xlink:href="#d2" x="1.345000" y="29.210000" />
<use xlink:href="#d2" x="1.345000" y="31.750000" />
<use xlink:href="#d2" x="1.345000" y="34.290000" />
<use xlink:href="#d2" x="1.345000" y="36.830000" />
<use xlink:href="#d2" x="1.345000" y="39.370000" />
<use xlink:href="#d2" x="16.585000" y="3.810000" />
<use xlink:href="#d2" x="16.585000" y="6.350000" />
<use xlink:href="#d2" x="16.585000" y="8.890000" />
<use xlink:href="#d2" x="16.585000" y="11.430000" />
<use xlink:href="#d2" x="16.585000" y="13.970000" />
<use xlink:href="#d2" x="16.585000" y="16.510000" />
<use xlink:href="#d2" x="16.585000" y="19.050000" />
<use xlink:href="#d2" x="16.585000" y="21.590000" />
<use xlink:href="#d2" x="16.585000" y="24.130000" />
<use xlink:href="#d2" x="16.585000" y="26.670000" />
<use xlink:href="#d2" x="16.585000" y="29.210000" />
<use xlink:href="#d2" x="16.585000" y="31.750000" />
<use xlink:href="#d2" x="16.585000" y="34.290000" />
<use xlink:href="#d2" x="16.585000" y="36.830000" />
<use xlink:href="#d2" x="16.585000" y="39.370000" />
<use xlink:href="#d3" x="1.345000" y="1.270000" />
<use xlink:href="#d3" x="1.345000" y="41.910000" />
<use xlink:href="#d3" x="16.585000" y="41.910000" />
<use xlink:href="#d3" x="16.585000" y="1.270000" />
</g>
</svg>