<?xml version="1.0" encoding="UTF-8"?>
<svg xmlns="http://www.w3.org/2000/svg" xmlns:xlink="http://www.w3.org/1999/xlink"
     width="7.770000" height="45.235000" viewBox="0 0 7.770000 45.235000">
<defs>
<mask id="d0">
<rect x="-3.885000" y="-22.617500" width="15.540000" height="90.470000" fill="white" />
</mask>
<g id="d1">
<circle cx="0" cy="0" r="0.07500" fill="#133d91ff" />
</g>
</defs>
<g mask="url(#d0)">
<g></g>
<use xlink:href="#d1" x="0.329000" y="35.635000" />
<path d="M0.32900000,35.71000000 L0.32900000,35.56000000 L7.44100000,35.56000000 L7.44100000,35.71000000 Z" fill="#133d91ff" />
<use xlink:href="#d1" x="7.441000" y="35.635000" />
<use xlink:href="#d1" x="2.361000" y="20.395000" />
<path d="M2.43600000,20.39500000 L2.28600000,20.39500000 L2.28600000,17.85500000 L2.43600000,17.85500000 Z" fill="#133d91ff" />
<use xlink:href="#d1" x="2.361000" y="17.855000" />
<use xlink:href="#d1" x="0.329000" y="45.160000" />
<path d="M0.32900000,45.23500000 L0.32900000,45.08500000 L7.44100000,45.08500000 L7.44100000,45.23500000 Z" fill="#133d91ff" />
<use xlink:href="#d1" x="7.441000" y="45.160000" />
<use xlink:href="#d1" x="0.329000" y="43.255000" />
<path d="M0.25400000,43.25500000 L0.40400000,43.25500000 L0.40400000,45.16000000 L0.25400000,45.16000000 Z" fill="#133d91ff" />
<use xlink:href="#d1" x="0.329000" y="45.160000" />
<use xlink:href="#d1" x="7.441000" y="35.635000" />
<path d="M7.36600000,35.63500000 L7.51600000,35.63500000 L7.51600000,43.25500000 L7.36600000,43.25500000 Z" fill="#133d91ff" />
<use xlink:href="#d1" x="7.441000" y="43.255000" />
<use xlink:href="#d1" x="7.695000" y="5.155000" />
<path d="M7.77000000,5.15500000 L7.62000000,5.15500000 L7.62000000,0.07500000 L7.77000000,0.07500000 Z" fill="#133d91ff" />
<use xlink:href="#d1" x="7.695000" y="0.075000" />
<use xlink:href="#d1" x="6.298000" y="20.395000" />
<path d="M6.29800000,20.32000000 L6.29800000,20.47000000 L2.36100000,20.47000000 L2.36100000,20.32000000 Z" fill="#133d91ff" />
<use xlink:href="#d1" x="2.361000" y="20.395000" />
<use xlink:href="#d1" x="0.075000" y="0.075000" />
<path d="M0.00000000,0.07500000 L0.15000000,0.07500000 L0.15000000,5.15500000 L0.00000000,5.15500000 Z" fill="#133d91ff" />
<use xlink:href="#d1" x="0.075000" y="5.155000" />
<use xlink:href="#d1" x="0.075000" y="5.155000" />
<path d="M0.07500000,5.23000000 L0.07500000,5.08000000 L7.69500000,5.08000000 L7.69500000,5.23000000 Z" fill="#133d91ff" />
<use xlink:href="#d1" x="7.695000" y="5.155000" />
<use xlink:href="#d1" x="7.441000" y="45.160000" />
<path d="M7.51600000,45.16000000 L7.36600000,45.16000000 L7.36600000,43.25500000 L7.51600000,43.25500000 Z" fill="#133d91ff" />
<use xlink:href="#d1" x="7.441000" y="43.255000" />
<use xlink:href="#d1" x="0.329000" y="43.255000" />
<path d="M0.40400000,43.25500000 L0.25400000,43.25500000 L0.25400000,35.63500000 L0.40400000,35.63500000 Z" fill="#133d91ff" />
<use xlink:href="#d1" x="0.329000" y="35.635000" />
<use xlink:href="#d1" x="6.298000" y="17.855000" />
<path d="M6.22300000,17.85500000 L6.37300000,17.85500000 L6.37300000,20.39500000 L6.22300000,20.39500000 Z" fill="#133d91ff" />
<use xlink:href="#d1" x="6.298000" y="20.395000" />
<use xlink:href="#d1" x="2.361000" y="17.855000" />
<path d="M2.36100000,17.93000000 L2.36100000,17.78000000 L6.29800000,17.78000000 L6.29800000,17.93000000 Z" fill="#133d91ff" />
<use xlink:href="#d1" x="6.298000" y="17.855000" />
<use xlink:href="#d1" x="5.155000" y="19.125000" />
<path d="M5.23000000,19.12500000 A0.83700000,0.83700000,0,1,1,3.55600000,19.12500000 L3.70600000,19.12500000 A0.68700000,0.68700000,0,0,0,5.08000000,19.12500000 Z" fill="#133d91ff" />
<use xlink:href="#d1" x="3.631000" y="19.125000" />
<use xlink:href="#d1" x="3.631000" y="19.125000" />
<path d="M3.55600000,19.12500000 A0.83700000,0.83700000,0,1,1,5.23000000,19.12500000 L5.08000000,19.12500000 A0.68700000,0.68700000,0,0,0,3.70600000,19.12500000 Z" fill="#133d91ff" />
<use xlink:href="#d1" x="5.155000" y="19.125000" />
<use xlink:href="#d1" x="7.695000" y="0.075000" />
<path d="M7.69500000,0.00000000 L7.69500000,0.15000000 L0.07500000,0.15000000 L0.07500000,0.00000000 Z" fill="#133d91ff" />
<use xlink:href="#d1" x="0.075000" y="0.075000" />
</g>
</svg>