<?xml version="1.0" encoding="UTF-8"?>
<svg xmlns="http://www.w3.org/2000/svg" xmlns:xlink="http://www.w3.org/1999/xlink"
     width="7.770000" height="45.235000" viewBox="0 0 7.770000 45.235000">
<defs>
<mask id="d0">
<rect x="-3.885000" y="-22.617500" width="15.540000" height="90.470000" fill="white" />
</mask>
<g id="d1">
<circle cx="0" cy="0" r="0.07500" fill="#133d91ff" />
</g>
</defs>
<g mask="url(#d0)">
<g></g>
<use xlink:href="#d1" x="0.329000" y="35.635000" />
<path d="M0.329000,35.710000 L0.329000,35.560000 L7.441000,35.560000 L7.441000,35.710000 Z" fill="#133d91ff" />
<use xlink:href="#d1" x="7.441000" y="35.635000" />
<use xlink:href="#d1" x="2.361000" y="20.395000" />
<path d="M2.436000,20.395000 L2.286000,20.395000 L2.286000,17.855000 L2.436000,17.855000 Z" fill="#133d91ff" />
<use xlink:href="#d1" x="2.361000" y="17.855000" />
<use xlink:href="#d1" x="0.329000" y="45.160000" />
<path d="M0.329000,45.235000 L0.329000,45.085000 L7.441000,45.085000 L7.441000,45.235000 Z" fill="#133d91ff" />
<use xlink:href="#d1" x="7.441000" y="45.160000" />
<use xlink:href="#d1" x="0.329000" y="43.255000" />
<path d="M0.254000,43.255000 L0.404000,43.255000 L0.404000,45.160000 L0.254000,45.160000 Z" fill="#133d91ff" />
<use xlink:href="#d1" x="0.329000" y="45.160000" />
<use xlink:href="#d1" x="7.441000" y="35.635000" />
<path d="M7.366000,35.635000 L7.516000,35.635000 L7.516000,43.255000 L7.366000,43.255000 Z" fill="#133d91ff" />
<use xlink:href="#d1" x="7.441000" y="43.255000" />
<use xlink:href="#d1" x="7.695000" y="5.155000" />
<path d="M7.770000,5.155000 L7.620000,5.155000 L7.620000,0.075000 L7.770000,0.075000 Z" fill="#133d91ff" />
<use xlink:href="#d1" x="7.695000" y="0.075000" />
<use xlink:href="#d1" x="6.298000" y="20.395000" />
<path d="M6.298000,20.320000 L6.298000,20.470000 L2.361000,20.470000 L2.361000,20.320000 Z" fill="#133d91ff" />
<use xlink:href="#d1" x="2.361000" y="20.395000" />
<use xlink:href="#d1" x="0.075000" y="0.075000" />
<path d="M0.000000,0.075000 L0.150000,0.075000 L0.150000,5.155000 L0.000000,5.155000 Z" fill="#133d91ff" />
<use xlink:href="#d1" x="0.075000" y="5.155000" />
<use xlink:href="#d1" x="0.075000" y="5.155000" />
<path d="M0.075000,5.230000 L0.075000,5.080000 L7.695000,5.080000 L7.695000,5.230000 Z" fill="#133d91ff" />
<use xlink:href="#d1" x="7.695000" y="5.155000" />
<use xlink:href="#d1" x="7.441000" y="45.160000" />
<path d="M7.516000,45.160000 L7.366000,45.160000 L7.366000,43.255000 L7.516000,43.255000 Z" fill="#133d91ff" />
<use xlink:href="#d1" x="7.441000" y="43.255000" />
<use xlink:href="#d1" x="0.329000" y="43.255000" />
<path d="M0.404000,43.255000 L0.254000,43.255000 L0.254000,35.635000 L0.404000,35.635000 Z" fill="#133d91ff" />
<use xlink:href="#d1" x="0.329000" y="35.635000" />
<use xlink:href="#d1" x="6.298000" y="17.855000" />
<path d="M6.223000,17.855000 L6.373000,17.855000 L6.373000,20.395000 L6.223000,20.395000 Z" fill="#133d91ff" />
<use xlink:href="#d1" x="6.298000" y="20.395000" />
<use xlink:href="#d1" x="2.361000" y="17.855000" />
<path d="M2.361000,17.930000 L2.361000,17.780000 L6.298000,17.780000 L6.298000,17.930000 Z" fill="#133d91ff" />
<use xlink:href="#d1" x="6.298000" y="17.855000" />
<use xlink:href="#d1" x="5.155000" y="19.125000" />
<path d="M5.23000000,19.12500000 A0.83700000,0.83700000,0,1,1,3.55600000,19.12500000 L3.70600000,19.12500000 A0.68700000,0.68700000,0,0,0,5.08000000,19.12500000 Z" fill="#133d91ff" />
<use xlink:href="#d1" x="3.631000" y="19.125000" />
<use xlink:href="#d1" x="3.631000" y="19.125000" />
<path d="M3.55600000,19.12500000 A0.83700000,0.83700000,0,1,1,5.23000000,19.12500000 L5.08000000,19.12500000 A0.68700000,0.68700000,0,0,0,3.70600000,19.12500000 Z" fill="#133d91ff" />
<use xlink:href="#d1" x="5.155000" y="19.125000" />
<use xlink:href="#d1" x="7.695000" y="0.075000" />
<path d="M7.695000,0.000000 L7.695000,0.150000 L0.075000,0.150000 L0.075000,0.000000 Z" fill="#133d91ff" />
<use xlink:href="#d1" x="0.075000" y="0.075000" />
</g>
</svg>