<?xml version="1.0" encoding="UTF-8"?>
<svg xmlns="http://www.w3.org/2000/svg" xmlns:xlink="http://www.w3.org/1999/xlink"
     width="19.000000" height="8.000000" viewBox="0 0 19.000000 8.000000">
<defs>
<mask id="d0">
<rect x="-9.500000" y="-4.000000" width="38.000000" height="16.000000" fill="white" />
</mask>
<mask id="d1">
<rect x="-0.50" y="-1.00" width="1.00" height="2.00" fill="white" />
<circle cx="0" cy="0" r="0.25" fill="black" />
</mask>
<g mask="url(#d1)" id="d2">
<rect x="-0.50" y="-1.00" width="1.00" height="2.00" fill="#133d91ff" rx="0.5" ry="0.5" transform="rotate(0.0)" />
</g>
<mask id="d3">
<rect x="-1.00" y="-2.00" width="2.00" height="4.00" fill="white" />
<circle cx="0" cy="0" r="0.75" fill="black" />
</mask>
<g mask="url(#d3)" id="d4">
<rect x="-1.00" y="-2.00" width="2.00" height="4.00" fill="#133d91ff" rx="1.0" ry="1.0" transform="rotate(0.0)" />
</g>
<mask id="d5">
<rect x="-1.50" y="-3.00" width="3.00" height="6.00" fill="white" />
<circle cx="0" cy="0" r="1.25" fill="black" />
</mask>
<g mask="url(#d5)" id="d6">
<rect x="-1.50" y="-3.00" width="3.00" height="6.00" fill="#133d91ff" rx="1.5" ry="1.5" transform="rotate(0.0)" />
</g>
<mask id="d7">
<rect x="-2.00" y="-4.00" width="4.00" height="8.00" fill="white" />
<circle cx="0" cy="0" r="1.75" fill="black" />
</mask>
<g mask="url(#d7)" id="d8">
<rect x="-2.00" y="-4.00" width="4.00" height="8.00" fill="#133d91ff" rx="2.0" ry="2.0" transform="rotate(0.0)" />
</g>
</defs>
<g mask="url(#d0)">
<g></g>
<use xlink:href="#d2" x="0.500000" y="4.000000" />
<use xlink:href="#d4" x="4.000000" y="4.000000" />
<use xlink:href="#d6" x="9.500000" y="4.000000" />
<use xlink:href="#d8" x="17.000000" y="4.000000" />
</g>
</svg>