<?xml version="1.0" encoding="UTF-8"?>
<svg xmlns="http://www.w3.org/2000/svg" xmlns:xlink="http://www.w3.org/1999/xlink"
     width="14.000000" height="14.000000" viewBox="0 0 14.000000 14.000000">
<defs>
<mask id="d0">
<rect x="-7.000000" y="-7.000000" width="28.000000" height="28.000000" fill="white" />
</mask>
<g id="d1">
<circle cx="0" cy="0" r="0.25" fill="black" />
</g>
<mask id="d2">
<rect x="-7.000000" y="-7.000000" width="28.000000" height="28.000000" fill="white" />
<use xlink:href="#d1" x="4.000000" y="10.000000" />
<path d="M4.17677669529663688110021109052621225982120898442211850914708,10.1767766952966368811002110905262122598212089844221185091471 L3.82322330470336311889978890947378774017879101557788149085292,9.82322330470336311889978890947378774017879101557788149085292 L9.82322330470336311889978890947378774017879101557788149085292,3.8232233047033631188997889094737877401787910155778814908529 L10.1767766952966368811002110905262122598212089844221185091471,4.17677669529663688110021109052621225982120898442211850914708 Z" fill="black" />
<use xlink:href="#d1" x="10.000000" y="4.000000" />
</mask>
<mask id="d3">
<rect x="-7.000000" y="-7.000000" width="28.000000" height="28.000000" fill="white" />
<use xlink:href="#d1" x="10.000000" y="10.000000" />
<path d="M10.1767766952966368811002110905262122598212089844221185091471,9.82322330470336311889978890947378774017879101557788149085292 L9.82322330470336311889978890947378774017879101557788149085292,10.1767766952966368811002110905262122598212089844221185091471 L3.82322330470336311889978890947378774017879101557788149085292,4.17677669529663688110021109052621225982120898442211850914708 L4.17677669529663688110021109052621225982120898442211850914708,3.8232233047033631188997889094737877401787910155778814908529 Z" fill="black" />
<use xlink:href="#d1" x="4.000000" y="4.000000" />
</mask>
<g id="d4">
<circle cx="0" cy="0" r="1.5" fill="black" />
</g>
<mask id="d5">
<rect x="-7.000000" y="-7.000000" width="28.000000" height="28.000000" fill="white" />
<use xlink:href="#d4" x="2.000000" y="12.000000" />
<path d="M3.06066017177982128660126654315727355892725390653271105488251,13.0606601717798212866012665431572735589272539065327110548825 L0.93933982822017871339873345684272644107274609346728894511749,10.9393398282201787133987334568427264410727460934672889451175 L10.9393398282201787133987334568427264410727460934672889451175,0.9393398282201787133987334568427264410727460934672889451175 L13.0606601717798212866012665431572735589272539065327110548825,3.0606601717798212866012665431572735589272539065327110548825 Z" fill="black" />
<use xlink:href="#d4" x="12.000000" y="2.000000" />
</mask>
<mask id="d6">
<rect x="-7.000000" y="-7.000000" width="28.000000" height="28.000000" fill="white" />
<use xlink:href="#d4" x="12.000000" y="12.000000" />
<path d="M13.0606601717798212866012665431572735589272539065327110548825,10.9393398282201787133987334568427264410727460934672889451175 L10.9393398282201787133987334568427264410727460934672889451175,13.0606601717798212866012665431572735589272539065327110548825 L0.93933982822017871339873345684272644107274609346728894511749,3.0606601717798212866012665431572735589272539065327110548825 L3.06066017177982128660126654315727355892725390653271105488251,0.9393398282201787133987334568427264410727460934672889451175 Z" fill="black" />
<use xlink:href="#d4" x="2.000000" y="2.000000" />
</mask>
<g id="d7">
<circle cx="0" cy="0" r="2" fill="#133d91ff" />
</g>
<g id="d8">
<circle cx="0" cy="0" r="0.75" fill="#133d91ff" />
</g>
</defs>
<g mask="url(#d0)">
<g mask="url(#d2)">
<g mask="url(#d3)">
<g mask="url(#d5)">
<g mask="url(#d6)">
<g></g>
<use xlink:href="#d7" x="12.000000" y="12.000000" />
<path d="M13.4142135623730950488016887242096980785696718753769480731767,10.5857864376269049511983112757903019214303281246230519268233 L10.5857864376269049511983112757903019214303281246230519268233,13.4142135623730950488016887242096980785696718753769480731767 L0.58578643762690495119831127579030192143032812462305192682332,3.4142135623730950488016887242096980785696718753769480731767 L3.41421356237309504880168872420969807856967187537694807317668,0.5857864376269049511983112757903019214303281246230519268233 Z" fill="#133d91ff" />
<use xlink:href="#d7" x="2.000000" y="2.000000" />
</g>
<use xlink:href="#d7" x="2.000000" y="12.000000" />
<path d="M3.41421356237309504880168872420969807856967187537694807317668,13.4142135623730950488016887242096980785696718753769480731767 L0.58578643762690495119831127579030192143032812462305192682332,10.5857864376269049511983112757903019214303281246230519268233 L10.5857864376269049511983112757903019214303281246230519268233,0.5857864376269049511983112757903019214303281246230519268233 L13.4142135623730950488016887242096980785696718753769480731767,3.4142135623730950488016887242096980785696718753769480731767 Z" fill="#133d91ff" />
<use xlink:href="#d7" x="12.000000" y="2.000000" />
</g>
<use xlink:href="#d8" x="10.000000" y="10.000000" />
<path d="M10.5303300858899106433006332715786367794636269532663555274413,9.46966991411008935669936672842136322053637304673364447255874 L9.46966991411008935669936672842136322053637304673364447255874,10.5303300858899106433006332715786367794636269532663555274413 L3.46966991411008935669936672842136322053637304673364447255874,4.53033008588991064330063327157863677946362695326635552744126 L4.53033008588991064330063327157863677946362695326635552744126,3.4696699141100893566993667284213632205363730467336444725587 Z" fill="#133d91ff" />
<use xlink:href="#d8" x="4.000000" y="4.000000" />
</g>
<use xlink:href="#d8" x="4.000000" y="10.000000" />
<path d="M4.53033008588991064330063327157863677946362695326635552744126,10.5303300858899106433006332715786367794636269532663555274413 L3.46966991411008935669936672842136322053637304673364447255874,9.46966991411008935669936672842136322053637304673364447255874 L9.46966991411008935669936672842136322053637304673364447255874,3.4696699141100893566993667284213632205363730467336444725587 L10.5303300858899106433006332715786367794636269532663555274413,4.53033008588991064330063327157863677946362695326635552744126 Z" fill="#133d91ff" />
<use xlink:href="#d8" x="10.000000" y="4.000000" />
</g>
</g>
</svg>