<?xml version="1.0" encoding="UTF-8"?>
<svg xmlns="http://www.w3.org/2000/svg" xmlns:xlink="http://www.w3.org/1999/xlink"
     width="6.500000" height="6.500000" viewBox="0 0 6.500000 6.500000">
<defs>
<mask id="d0">
<rect x="-3.250000" y="-3.250000" width="13.000000" height="13.000000" fill="white" />
</mask>
<g id="d1">
<circle cx="0" cy="0" r="0.25" fill="black" />
</g>
<mask id="d2">
<rect x="-3.250000" y="-3.250000" width="13.000000" height="13.000000" fill="white" />
<use xlink:href="#d1" x="0.750000" y="5.750000" />
<path d="M0.926776695296636881100211090526212259821208984422118509147085,5.92677669529663688110021109052621225982120898442211850914708 L0.573223304703363118899788909473787740178791015577881490852915,5.57322330470336311889978890947378774017879101557788149085292 L5.57322330470336311889978890947378774017879101557788149085292,0.57322330470336311889978890947378774017879101557788149085292 L5.92677669529663688110021109052621225982120898442211850914708,0.92677669529663688110021109052621225982120898442211850914708 Z" fill="black" />
<use xlink:href="#d1" x="5.750000" y="0.750000" />
</mask>
<mask id="d3">
<rect x="-3.250000" y="-3.250000" width="13.000000" height="13.000000" fill="white" />
<use xlink:href="#d1" x="5.750000" y="5.750000" />
<path d="M5.92677669529663688110021109052621225982120898442211850914708,5.57322330470336311889978890947378774017879101557788149085292 L5.57322330470336311889978890947378774017879101557788149085292,5.92677669529663688110021109052621225982120898442211850914708 L0.573223304703363118899788909473787740178791015577881490852915,0.92677669529663688110021109052621225982120898442211850914708 L0.926776695296636881100211090526212259821208984422118509147085,0.57322330470336311889978890947378774017879101557788149085292 Z" fill="black" />
<use xlink:href="#d1" x="0.750000" y="0.750000" />
</mask>
<g id="d4">
<circle cx="0" cy="0" r="0.75" fill="#133d91ff" />
</g>
</defs>
<g mask="url(#d0)">
<g mask="url(#d2)">
<g mask="url(#d3)">
<g></g>
<use xlink:href="#d4" x="5.750000" y="5.750000" />
<path d="M6.28033008588991064330063327157863677946362695326635552744126,5.21966991411008935669936672842136322053637304673364447255874 L5.21966991411008935669936672842136322053637304673364447255874,6.28033008588991064330063327157863677946362695326635552744126 L0.219669914110089356699366728421363220536373046733644472558745,1.28033008588991064330063327157863677946362695326635552744126 L1.28033008588991064330063327157863677946362695326635552744126,0.21966991411008935669936672842136322053637304673364447255874 Z" fill="#133d91ff" />
<use xlink:href="#d4" x="0.750000" y="0.750000" />
</g>
<use xlink:href="#d4" x="0.750000" y="5.750000" />
<path d="M1.28033008588991064330063327157863677946362695326635552744126,6.28033008588991064330063327157863677946362695326635552744126 L0.219669914110089356699366728421363220536373046733644472558745,5.21966991411008935669936672842136322053637304673364447255874 L5.21966991411008935669936672842136322053637304673364447255874,0.21966991411008935669936672842136322053637304673364447255874 L6.28033008588991064330063327157863677946362695326635552744126,1.28033008588991064330063327157863677946362695326635552744126 Z" fill="#133d91ff" />
<use xlink:href="#d4" x="5.750000" y="0.750000" />
</g>
</g>
</svg>