<?xml version="1.0" encoding="UTF-8"?>
<svg xmlns="http://www.w3.org/2000/svg" xmlns:xlink="http://www.w3.org/1999/xlink"
     width="7.500000" height="7.500000" viewBox="0 0 7.500000 7.500000">
<defs>
<mask id="d0">
<rect x="-3.750000" y="-3.750000" width="15.000000" height="15.000000" fill="white" />
</mask>
<g id="d1">
<circle cx="0" cy="0" r="0.75" fill="black" />
</g>
<mask id="d2">
<rect x="-3.750000" y="-3.750000" width="15.000000" height="15.000000" fill="white" />
<use xlink:href="#d1" x="1.250000" y="6.250000" />
<path d="M1.78033008588991064330063327157863677946362695326635552744126,6.78033008588991064330063327157863677946362695326635552744126 L0.719669914110089356699366728421363220536373046733644472558745,5.71966991411008935669936672842136322053637304673364447255874 L5.71966991411008935669936672842136322053637304673364447255874,0.71966991411008935669936672842136322053637304673364447255874 L6.78033008588991064330063327157863677946362695326635552744126,1.78033008588991064330063327157863677946362695326635552744126 Z" fill="black" />
<use xlink:href="#d1" x="6.250000" y="1.250000" />
</mask>
<mask id="d3">
<rect x="-3.750000" y="-3.750000" width="15.000000" height="15.000000" fill="white" />
<use xlink:href="#d1" x="6.250000" y="6.250000" />
<path d="M6.78033008588991064330063327157863677946362695326635552744126,5.71966991411008935669936672842136322053637304673364447255874 L5.71966991411008935669936672842136322053637304673364447255874,6.78033008588991064330063327157863677946362695326635552744126 L0.719669914110089356699366728421363220536373046733644472558745,1.78033008588991064330063327157863677946362695326635552744126 L1.78033008588991064330063327157863677946362695326635552744126,0.71966991411008935669936672842136322053637304673364447255874 Z" fill="black" />
<use xlink:href="#d1" x="1.250000" y="1.250000" />
</mask>
<g id="d4">
<circle cx="0" cy="0" r="1.25" fill="#133d91ff" />
</g>
</defs>
<g mask="url(#d0)">
<g mask="url(#d2)">
<g mask="url(#d3)">
<g></g>
<use xlink:href="#d4" x="6.250000" y="6.250000" />
<path d="M7.13388347648318440550105545263106129910604492211059254573542,5.36611652351681559449894454736893870089395507788940745426458 L5.36611652351681559449894454736893870089395507788940745426458,7.13388347648318440550105545263106129910604492211059254573542 L0.366116523516815594498944547368938700893955077889407454264575,2.13388347648318440550105545263106129910604492211059254573542 L2.13388347648318440550105545263106129910604492211059254573542,0.36611652351681559449894454736893870089395507788940745426458 Z" fill="#133d91ff" />
<use xlink:href="#d4" x="1.250000" y="1.250000" />
</g>
<use xlink:href="#d4" x="1.250000" y="6.250000" />
<path d="M2.13388347648318440550105545263106129910604492211059254573542,7.13388347648318440550105545263106129910604492211059254573542 L0.366116523516815594498944547368938700893955077889407454264575,5.36611652351681559449894454736893870089395507788940745426458 L5.36611652351681559449894454736893870089395507788940745426458,0.36611652351681559449894454736893870089395507788940745426458 L7.13388347648318440550105545263106129910604492211059254573542,2.13388347648318440550105545263106129910604492211059254573542 Z" fill="#133d91ff" />
<use xlink:href="#d4" x="6.250000" y="1.250000" />
</g>
</g>
</svg>