<?xml version="1.0" encoding="UTF-8"?>
<svg xmlns="http://www.w3.org/2000/svg" xmlns:xlink="http://www.w3.org/1999/xlink"
     width="7.000000" height="7.000000" viewBox="0 0 7.000000 7.000000">
<defs>
<mask id="d0">
<rect x="-3.500000" y="-3.500000" width="14.000000" height="14.000000" fill="white" />
</mask>
<g id="d1">
<circle cx="0" cy="0" r="0.5" fill="black" />
</g>
<mask id="d2">
<rect x="-3.500000" y="-3.500000" width="14.000000" height="14.000000" fill="white" />
<use xlink:href="#d1" x="1.000000" y="6.000000" />
<path d="M1.35355339059327376220042218105242451964241796884423701829417,6.35355339059327376220042218105242451964241796884423701829417 L0.646446609406726237799577818947575480357582031155762981705830,5.64644660940672623779957781894757548035758203115576298170583 L5.64644660940672623779957781894757548035758203115576298170583,0.64644660940672623779957781894757548035758203115576298170583 L6.35355339059327376220042218105242451964241796884423701829417,1.35355339059327376220042218105242451964241796884423701829417 Z" fill="black" />
<use xlink:href="#d1" x="6.000000" y="1.000000" />
</mask>
<mask id="d3">
<rect x="-3.500000" y="-3.500000" width="14.000000" height="14.000000" fill="white" />
<use xlink:href="#d1" x="6.000000" y="6.000000" />
<path d="M6.35355339059327376220042218105242451964241796884423701829417,5.64644660940672623779957781894757548035758203115576298170583 L5.64644660940672623779957781894757548035758203115576298170583,6.35355339059327376220042218105242451964241796884423701829417 L0.646446609406726237799577818947575480357582031155762981705830,1.35355339059327376220042218105242451964241796884423701829417 L1.35355339059327376220042218105242451964241796884423701829417,0.64644660940672623779957781894757548035758203115576298170583 Z" fill="black" />
<use xlink:href="#d1" x="1.000000" y="1.000000" />
</mask>
<g id="d4">
<circle cx="0" cy="0" r="1" fill="#133d91ff" />
</g>
</defs>
<g mask="url(#d0)">
<g mask="url(#d2)">
<g mask="url(#d3)">
<g></g>
<use xlink:href="#d4" x="6.000000" y="6.000000" />
<path d="M6.70710678118654752440084436210484903928483593768847403658834,5.29289321881345247559915563789515096071516406231152596341166 L5.29289321881345247559915563789515096071516406231152596341166,6.70710678118654752440084436210484903928483593768847403658834 L0.292893218813452475599155637895150960715164062311525963411660,1.70710678118654752440084436210484903928483593768847403658834 L1.70710678118654752440084436210484903928483593768847403658834,0.29289321881345247559915563789515096071516406231152596341166 Z" fill="#133d91ff" />
<use xlink:href="#d4" x="1.000000" y="1.000000" />
</g>
<use xlink:href="#d4" x="1.000000" y="6.000000" />
<path d="M1.70710678118654752440084436210484903928483593768847403658834,6.70710678118654752440084436210484903928483593768847403658834 L0.292893218813452475599155637895150960715164062311525963411660,5.29289321881345247559915563789515096071516406231152596341166 L5.29289321881345247559915563789515096071516406231152596341166,0.29289321881345247559915563789515096071516406231152596341166 L6.70710678118654752440084436210484903928483593768847403658834,1.70710678118654752440084436210484903928483593768847403658834 Z" fill="#133d91ff" />
<use xlink:href="#d4" x="6.000000" y="1.000000" />
</g>
</g>
</svg>