<?xml version="1.0" encoding="UTF-8"?>
<svg xmlns="http://www.w3.org/2000/svg" xmlns:xlink="http://www.w3.org/1999/xlink"
     width="41.745805" height="39.800000" viewBox="0 0 41.745805 39.800000">
<defs>
<mask id="d0">
<rect x="-20.8729025" y="-19.900000" width="83.491610" height="79.600000" fill="white" />
</mask>
<g id="d1">
<circle cx="0" cy="0" r="0.40000" fill="#133d91ff" />
</g>
</defs>
<g mask="url(#d0)">
<g></g>
<use xlink:href="#d1" x="22.345805" y="19.400000" />
<path d="M41.28884400,0.41968500 L41.33459900,0.47248900 L41.34580500,0.52400000 L41.34580500,39.27600000 L41.32612000,39.34303900 L41.27331600,39.38879400 L41.22180500,39.40000000 L1.46980500,39.40000000 L1.40276600,39.38031500 L1.35701100,39.32751100 L1.34580500,39.27600000 L1.34580500,19.40000000 L21.34046400,19.40000000 L21.35978000,19.59612900 L21.41699300,19.78473300 L21.50989100,19.95853200 L21.50989500,19.95853900 L21.63492100,20.11088300 L21.78726500,20.23590900 L21.78727200,20.23591300 L21.96107100,20.32881100 L21.96107400,20.32881100 L21.96107800,20.32881400 L22.14967300,20.38602400 L22.34580500,20.40534100 L22.54193700,20.38602400 L22.73053200,20.32881400 L22.90434300,20.23591000 L23.05668800,20.11088300 L23.18171500,19.95853800 L23.27461900,19.78472700 L23.33182900,19.59613200 L23.35114600,19.40000000 L23.33182900,19.20386800 L23.27461900,19.01527300 L23.27461600,19.01526900 L23.27461600,19.01526600 L23.18171800,18.84146700 L23.18171400,18.84146000 L23.05668800,18.68911600 L22.90434400,18.56409000 L22.90433700,18.56408600 L22.73053800,18.47118800 L22.73053200,18.47118600 L22.54193700,18.41397600 L22.54193400,18.41397500 L22.34580500,18.39465900 L22.14967500,18.41397500 L21.96107100,18.47118800 L21.78727200,18.56408600 L21.78726500,18.56409000 L21.63492100,18.68911600 L21.50989500,18.84146000 L21.50989100,18.84146700 L21.41699300,19.01526600 L21.35978000,19.20387000 L21.34046400,19.40000000 L1.34580500,19.40000000 L1.34580500,7.40000000 L1.34580400,7.39999900 L0.43348600,6.48768000 L0.40000100,6.42635700 L0.40498500,6.35666500 L0.43348400,6.31232000 L1.34580500,5.40000000 L1.34580400,5.39999900 L1.34580500,5.39999900 L0.43348600,4.48768000 L0.40000100,4.42635700 L0.40498500,4.35666500 L0.43348400,4.31232000 L1.34580500,3.40000000 L0.43348500,2.48768000 L0.40000000,2.42635700 L0.40498400,2.35666500 L0.43348100,2.31232300 L1.34580500,1.40000000 L1.34580400,1.39999900 L1.34580500,1.39999900 L0.55748600,0.61168100 L0.52400100,0.55035800 L0.52898500,0.48066600 L0.57085700,0.42473300 L0.63632100,0.40031600 L0.64516700,0.40000000 L41.22180500,0.40000000 L41.28884400,0.41968500 Z" fill="#155c82ff" />
</g>
</svg>