<?xml version="1.0" encoding="UTF-8"?>
<svg xmlns="http://www.w3.org/2000/svg" xmlns:xlink="http://www.w3.org/1999/xlink"
     width="1434.282000" height="1019.615375" viewBox="0 0 1434.282000 1019.615375">
<defs>
<mask id="d0">
<rect x="-717.141000" y="-509.8076875" width="2868.564000" height="2039.230750" fill="white" />
</mask>
<g id="d1">
<rect x="-5.0" y="-10.0" width="10.0" height="20.0" fill="#133d91ff" transform="rotate(-0.0)" />
</g>
<g id="d2">
<circle cx="0" cy="0" r="3.75000" fill="#133d91ff" />
</g>
<g id="d3">
<circle cx="0" cy="0" r="7.5" fill="#133d91ff" />
</g>
<g id="d4">
<rect x="-10.0" y="-5.0" width="20.0" height="10.0" fill="#133d91ff" transform="rotate(-0.0)" />
</g>
</defs>
<g mask="url(#d0)">
<g></g>
<use xlink:href="#d1" x="5.000000" y="969.615375" />
<use xlink:href="#d1" x="178.000000" y="1009.615375" />
<use xlink:href="#d2" x="100.532000" y="962.010000" />
<path d="M104.28200000,962.01000000 L96.78200000,962.01000000 L96.78200000,913.75000000 L104.28200000,913.75000000 Z" fill="#133d91ff" />
<use xlink:href="#d2" x="100.532000" y="913.750000" />
<use xlink:href="#d2" x="100.532000" y="913.750000" />
<path d="M100.53200000,910.00000000 L100.53200000,917.50000000 L31.44400000,917.50000000 L31.44400000,910.00000000 Z" fill="#133d91ff" />
<use xlink:href="#d2" x="31.444000" y="913.750000" />
<use xlink:href="#d3" x="31.444000" y="962.010000" />
<use xlink:href="#d2" x="100.532000" y="892.010000" />
<path d="M104.28200000,892.01000000 L96.78200000,892.01000000 L96.78200000,843.75000000 L104.28200000,843.75000000 Z" fill="#133d91ff" />
<use xlink:href="#d2" x="100.532000" y="843.750000" />
<use xlink:href="#d2" x="100.532000" y="843.750000" />
<path d="M100.53200000,840.00000000 L100.53200000,847.50000000 L31.44400000,847.50000000 L31.44400000,840.00000000 Z" fill="#133d91ff" />
<use xlink:href="#d2" x="31.444000" y="843.750000" />
<use xlink:href="#d3" x="31.444000" y="892.010000" />
<use xlink:href="#d2" x="200.532000" y="962.010000" />
<path d="M204.28200000,962.01000000 L196.78200000,962.01000000 L196.78200000,913.75000000 L204.28200000,913.75000000 Z" fill="#133d91ff" />
<use xlink:href="#d2" x="200.532000" y="913.750000" />
<use xlink:href="#d2" x="200.532000" y="913.750000" />
<path d="M200.53200000,910.00000000 L200.53200000,917.50000000 L131.44400000,917.50000000 L131.44400000,910.00000000 Z" fill="#133d91ff" />
<use xlink:href="#d2" x="131.444000" y="913.750000" />
<use xlink:href="#d3" x="131.444000" y="962.010000" />
<use xlink:href="#d2" x="200.532000" y="892.010000" />
<path d="M204.28200000,892.01000000 L196.78200000,892.01000000 L196.78200000,843.75000000 L204.28200000,843.75000000 Z" fill="#133d91ff" />
<use xlink:href="#d2" x="200.532000" y="843.750000" />
<use xlink:href="#d2" x="200.532000" y="843.750000" />
<path d="M200.53200000,840.00000000 L200.53200000,847.50000000 L131.44400000,847.50000000 L131.44400000,840.00000000 Z" fill="#133d91ff" />
<use xlink:href="#d2" x="131.444000" y="843.750000" />
<use xlink:href="#d3" x="131.444000" y="892.010000" />
<use xlink:href="#d2" x="100.532000" y="802.010000" />
<path d="M104.28200000,802.01000000 L96.78200000,802.01000000 L96.78200000,753.75000000 L104.28200000,753.75000000 Z" fill="#133d91ff" />
<use xlink:href="#d2" x="100.532000" y="753.750000" />
<use xlink:href="#d2" x="100.532000" y="753.750000" />
<path d="M100.53200000,750.00000000 L100.53200000,757.50000000 L31.44400000,757.50000000 L31.44400000,750.00000000 Z" fill="#133d91ff" />
<use xlink:href="#d2" x="31.444000" y="753.750000" />
<use xlink:href="#d3" x="31.444000" y="802.010000" />
<use xlink:href="#d2" x="100.532000" y="732.010000" />
<path d="M104.28200000,732.01000000 L96.78200000,732.01000000 L96.78200000,683.75000000 L104.28200000,683.75000000 Z" fill="#133d91ff" />
<use xlink:href="#d2" x="100.532000" y="683.750000" />
<use xlink:href="#d2" x="100.532000" y="683.750000" />
<path d="M100.53200000,680.00000000 L100.53200000,687.50000000 L31.44400000,687.50000000 L31.44400000,680.00000000 Z" fill="#133d91ff" />
<use xlink:href="#d2" x="31.444000" y="683.750000" />
<use xlink:href="#d3" x="31.444000" y="732.010000" />
<use xlink:href="#d2" x="200.532000" y="802.010000" />
<path d="M204.28200000,802.01000000 L196.78200000,802.01000000 L196.78200000,753.75000000 L204.28200000,753.75000000 Z" fill="#133d91ff" />
<use xlink:href="#d2" x="200.532000" y="753.750000" />
<use xlink:href="#d2" x="200.532000" y="753.750000" />
<path d="M200.53200000,750.00000000 L200.53200000,757.50000000 L131.44400000,757.50000000 L131.44400000,750.00000000 Z" fill="#133d91ff" />
<use xlink:href="#d2" x="131.444000" y="753.750000" />
<use xlink:href="#d3" x="131.444000" y="802.010000" />
<use xlink:href="#d2" x="200.532000" y="732.010000" />
<path d="M204.28200000,732.01000000 L196.78200000,732.01000000 L196.78200000,683.75000000 L204.28200000,683.75000000 Z" fill="#133d91ff" />
<use xlink:href="#d2" x="200.532000" y="683.750000" />
<use xlink:href="#d2" x="200.532000" y="683.750000" />
<path d="M200.53200000,680.00000000 L200.53200000,687.50000000 L131.44400000,687.50000000 L131.44400000,680.00000000 Z" fill="#133d91ff" />
<use xlink:href="#d2" x="131.444000" y="683.750000" />
<use xlink:href="#d3" x="131.444000" y="732.010000" />
<use xlink:href="#d2" x="100.532000" y="642.010000" />
<path d="M104.28200000,642.01000000 L96.78200000,642.01000000 L96.78200000,593.75000000 L104.28200000,593.75000000 Z" fill="#133d91ff" />
<use xlink:href="#d2" x="100.532000" y="593.750000" />
<use xlink:href="#d2" x="100.532000" y="593.750000" />
<path d="M100.53200000,590.00000000 L100.53200000,597.50000000 L31.44400000,597.50000000 L31.44400000,590.00000000 Z" fill="#133d91ff" />
<use xlink:href="#d2" x="31.444000" y="593.750000" />
<use xlink:href="#d3" x="31.444000" y="642.010000" />
<use xlink:href="#d2" x="100.532000" y="572.010000" />
<path d="M104.28200000,572.01000000 L96.78200000,572.01000000 L96.78200000,523.75000000 L104.28200000,523.75000000 Z" fill="#133d91ff" />
<use xlink:href="#d2" x="100.532000" y="523.750000" />
<use xlink:href="#d2" x="100.532000" y="523.750000" />
<path d="M100.53200000,520.00000000 L100.53200000,527.50000000 L31.44400000,527.50000000 L31.44400000,520.00000000 Z" fill="#133d91ff" />
<use xlink:href="#d2" x="31.444000" y="523.750000" />
<use xlink:href="#d3" x="31.444000" y="572.010000" />
<use xlink:href="#d2" x="200.532000" y="642.010000" />
<path d="M204.28200000,642.01000000 L196.78200000,642.01000000 L196.78200000,593.75000000 L204.28200000,593.75000000 Z" fill="#133d91ff" />
<use xlink:href="#d2" x="200.532000" y="593.750000" />
<use xlink:href="#d2" x="200.532000" y="593.750000" />
<path d="M200.53200000,590.00000000 L200.53200000,597.50000000 L131.44400000,597.50000000 L131.44400000,590.00000000 Z" fill="#133d91ff" />
<use xlink:href="#d2" x="131.444000" y="593.750000" />
<use xlink:href="#d3" x="131.444000" y="642.010000" />
<use xlink:href="#d2" x="200.532000" y="572.010000" />
<path d="M204.28200000,572.01000000 L196.78200000,572.01000000 L196.78200000,523.75000000 L204.28200000,523.75000000 Z" fill="#133d91ff" />
<use xlink:href="#d2" x="200.532000" y="523.750000" />
<use xlink:href="#d2" x="200.532000" y="523.750000" />
<path d="M200.53200000,520.00000000 L200.53200000,527.50000000 L131.44400000,527.50000000 L131.44400000,520.00000000 Z" fill="#133d91ff" />
<use xlink:href="#d2" x="131.444000" y="523.750000" />
<use xlink:href="#d3" x="131.444000" y="572.010000" />
<use xlink:href="#d2" x="330.532000" y="962.010000" />
<path d="M334.28200000,962.01000000 L326.78200000,962.01000000 L326.78200000,913.75000000 L334.28200000,913.75000000 Z" fill="#133d91ff" />
<use xlink:href="#d2" x="330.532000" y="913.750000" />
<use xlink:href="#d2" x="330.532000" y="913.750000" />
<path d="M330.53200000,910.00000000 L330.53200000,917.50000000 L261.44400000,917.50000000 L261.44400000,910.00000000 Z" fill="#133d91ff" />
<use xlink:href="#d2" x="261.444000" y="913.750000" />
<use xlink:href="#d3" x="261.444000" y="962.010000" />
<use xlink:href="#d2" x="330.532000" y="892.010000" />
<path d="M334.28200000,892.01000000 L326.78200000,892.01000000 L326.78200000,843.75000000 L334.28200000,843.75000000 Z" fill="#133d91ff" />
<use xlink:href="#d2" x="330.532000" y="843.750000" />
<use xlink:href="#d2" x="330.532000" y="843.750000" />
<path d="M330.53200000,840.00000000 L330.53200000,847.50000000 L261.44400000,847.50000000 L261.44400000,840.00000000 Z" fill="#133d91ff" />
<use xlink:href="#d2" x="261.444000" y="843.750000" />
<use xlink:href="#d3" x="261.444000" y="892.010000" />
<use xlink:href="#d2" x="430.532000" y="962.010000" />
<path d="M434.28200000,962.01000000 L426.78200000,962.01000000 L426.78200000,913.75000000 L434.28200000,913.75000000 Z" fill="#133d91ff" />
<use xlink:href="#d2" x="430.532000" y="913.750000" />
<use xlink:href="#d2" x="430.532000" y="913.750000" />
<path d="M430.53200000,910.00000000 L430.53200000,917.50000000 L361.44400000,917.50000000 L361.44400000,910.00000000 Z" fill="#133d91ff" />
<use xlink:href="#d2" x="361.444000" y="913.750000" />
<use xlink:href="#d3" x="361.444000" y="962.010000" />
<use xlink:href="#d2" x="430.532000" y="892.010000" />
<path d="M434.28200000,892.01000000 L426.78200000,892.01000000 L426.78200000,843.75000000 L434.28200000,843.75000000 Z" fill="#133d91ff" />
<use xlink:href="#d2" x="430.532000" y="843.750000" />
<use xlink:href="#d2" x="430.532000" y="843.750000" />
<path d="M430.53200000,840.00000000 L430.53200000,847.50000000 L361.44400000,847.50000000 L361.44400000,840.00000000 Z" fill="#133d91ff" />
<use xlink:href="#d2" x="361.444000" y="843.750000" />
<use xlink:href="#d3" x="361.444000" y="892.010000" />
<use xlink:href="#d2" x="330.532000" y="802.010000" />
<path d="M334.28200000,802.01000000 L326.78200000,802.01000000 L326.78200000,753.75000000 L334.28200000,753.75000000 Z" fill="#133d91ff" />
<use xlink:href="#d2" x="330.532000" y="753.750000" />
<use xlink:href="#d2" x="330.532000" y="753.750000" />
<path d="M330.53200000,750.00000000 L330.53200000,757.50000000 L261.44400000,757.50000000 L261.44400000,750.00000000 Z" fill="#133d91ff" />
<use xlink:href="#d2" x="261.444000" y="753.750000" />
<use xlink:href="#d3" x="261.444000" y="802.010000" />
<use xlink:href="#d2" x="330.532000" y="732.010000" />
<path d="M334.28200000,732.01000000 L326.78200000,732.01000000 L326.78200000,683.75000000 L334.28200000,683.75000000 Z" fill="#133d91ff" />
<use xlink:href="#d2" x="330.532000" y="683.750000" />
<use xlink:href="#d2" x="330.532000" y="683.750000" />
<path d="M330.53200000,680.00000000 L330.53200000,687.50000000 L261.44400000,687.50000000 L261.44400000,680.00000000 Z" fill="#133d91ff" />
<use xlink:href="#d2" x="261.444000" y="683.750000" />
<use xlink:href="#d3" x="261.444000" y="732.010000" />
<use xlink:href="#d2" x="430.532000" y="802.010000" />
<path d="M434.28200000,802.01000000 L426.78200000,802.01000000 L426.78200000,753.75000000 L434.28200000,753.75000000 Z" fill="#133d91ff" />
<use xlink:href="#d2" x="430.532000" y="753.750000" />
<use xlink:href="#d2" x="430.532000" y="753.750000" />
<path d="M430.53200000,750.00000000 L430.53200000,757.50000000 L361.44400000,757.50000000 L361.44400000,750.00000000 Z" fill="#133d91ff" />
<use xlink:href="#d2" x="361.444000" y="753.750000" />
<use xlink:href="#d3" x="361.444000" y="802.010000" />
<use xlink:href="#d2" x="430.532000" y="732.010000" />
<path d="M434.28200000,732.01000000 L426.78200000,732.01000000 L426.78200000,683.75000000 L434.28200000,683.75000000 Z" fill="#133d91ff" />
<use xlink:href="#d2" x="430.532000" y="683.750000" />
<use xlink:href="#d2" x="430.532000" y="683.750000" />
<path d="M430.53200000,680.00000000 L430.53200000,687.50000000 L361.44400000,687.50000000 L361.44400000,680.00000000 Z" fill="#133d91ff" />
<use xlink:href="#d2" x="361.444000" y="683.750000" />
<use xlink:href="#d3" x="361.444000" y="732.010000" />
<use xlink:href="#d2" x="330.532000" y="642.010000" />
<path d="M334.28200000,642.01000000 L326.78200000,642.01000000 L326.78200000,593.75000000 L334.28200000,593.75000000 Z" fill="#133d91ff" />
<use xlink:href="#d2" x="330.532000" y="593.750000" />
<use xlink:href="#d2" x="330.532000" y="593.750000" />
<path d="M330.53200000,590.00000000 L330.53200000,597.50000000 L261.44400000,597.50000000 L261.44400000,590.00000000 Z" fill="#133d91ff" />
<use xlink:href="#d2" x="261.444000" y="593.750000" />
<use xlink:href="#d3" x="261.444000" y="642.010000" />
<use xlink:href="#d2" x="330.532000" y="572.010000" />
<path d="M334.28200000,572.01000000 L326.78200000,572.01000000 L326.78200000,523.75000000 L334.28200000,523.75000000 Z" fill="#133d91ff" />
<use xlink:href="#d2" x="330.532000" y="523.750000" />
<use xlink:href="#d2" x="330.532000" y="523.750000" />
<path d="M330.53200000,520.00000000 L330.53200000,527.50000000 L261.44400000,527.50000000 L261.44400000,520.00000000 Z" fill="#133d91ff" />
<use xlink:href="#d2" x="261.444000" y="523.750000" />
<use xlink:href="#d3" x="261.444000" y="572.010000" />
<use xlink:href="#d2" x="430.532000" y="642.010000" />
<path d="M434.28200000,642.01000000 L426.78200000,642.01000000 L426.78200000,593.75000000 L434.28200000,593.75000000 Z" fill="#133d91ff" />
<use xlink:href="#d2" x="430.532000" y="593.750000" />
<use xlink:href="#d2" x="430.532000" y="593.750000" />
<path d="M430.53200000,590.00000000 L430.53200000,597.50000000 L361.44400000,597.50000000 L361.44400000,590.00000000 Z" fill="#133d91ff" />
<use xlink:href="#d2" x="361.444000" y="593.750000" />
<use xlink:href="#d3" x="361.444000" y="642.010000" />
<use xlink:href="#d2" x="430.532000" y="572.010000" />
<path d="M434.28200000,572.01000000 L426.78200000,572.01000000 L426.78200000,523.75000000 L434.28200000,523.75000000 Z" fill="#133d91ff" />
<use xlink:href="#d2" x="430.532000" y="523.750000" />
<use xlink:href="#d2" x="430.532000" y="523.750000" />
<path d="M430.53200000,520.00000000 L430.53200000,527.50000000 L361.44400000,527.50000000 L361.44400000,520.00000000 Z" fill="#133d91ff" />
<use xlink:href="#d2" x="361.444000" y="523.750000" />
<use xlink:href="#d3" x="361.444000" y="572.010000" />
<use xlink:href="#d4" x="54.500000" y="989.615375" />
<use xlink:href="#d2" x="100.532000" y="442.010000" />
<path d="M104.28200000,442.01000000 L96.78200000,442.01000000 L96.78200000,393.75000000 L104.28200000,393.75000000 Z" fill="#133d91ff" />
<use xlink:href="#d2" x="100.532000" y="393.750000" />
<use xlink:href="#d2" x="100.532000" y="393.750000" />
<path d="M100.53200000,390.00000000 L100.53200000,397.50000000 L31.44400000,397.50000000 L31.44400000,390.00000000 Z" fill="#133d91ff" />
<use xlink:href="#d2" x="31.444000" y="393.750000" />
<use xlink:href="#d3" x="31.444000" y="442.010000" />
<use xlink:href="#d2" x="100.532000" y="372.010000" />
<path d="M104.28200000,372.01000000 L96.78200000,372.01000000 L96.78200000,323.75000000 L104.28200000,323.75000000 Z" fill="#133d91ff" />
<use xlink:href="#d2" x="100.532000" y="323.750000" />
<use xlink:href="#d2" x="100.532000" y="323.750000" />
<path d="M100.53200000,320.00000000 L100.53200000,327.50000000 L31.44400000,327.50000000 L31.44400000,320.00000000 Z" fill="#133d91ff" />
<use xlink:href="#d2" x="31.444000" y="323.750000" />
<use xlink:href="#d3" x="31.444000" y="372.010000" />
<use xlink:href="#d2" x="200.532000" y="442.010000" />
<path d="M204.28200000,442.01000000 L196.78200000,442.01000000 L196.78200000,393.75000000 L204.28200000,393.75000000 Z" fill="#133d91ff" />
<use xlink:href="#d2" x="200.532000" y="393.750000" />
<use xlink:href="#d2" x="200.532000" y="393.750000" />
<path d="M200.53200000,390.00000000 L200.53200000,397.50000000 L131.44400000,397.50000000 L131.44400000,390.00000000 Z" fill="#133d91ff" />
<use xlink:href="#d2" x="131.444000" y="393.750000" />
<use xlink:href="#d3" x="131.444000" y="442.010000" />
<use xlink:href="#d2" x="200.532000" y="372.010000" />
<path d="M204.28200000,372.01000000 L196.78200000,372.01000000 L196.78200000,323.75000000 L204.28200000,323.75000000 Z" fill="#133d91ff" />
<use xlink:href="#d2" x="200.532000" y="323.750000" />
<use xlink:href="#d2" x="200.532000" y="323.750000" />
<path d="M200.53200000,320.00000000 L200.53200000,327.50000000 L131.44400000,327.50000000 L131.44400000,320.00000000 Z" fill="#133d91ff" />
<use xlink:href="#d2" x="131.444000" y="323.750000" />
<use xlink:href="#d3" x="131.444000" y="372.010000" />
<use xlink:href="#d2" x="100.532000" y="282.010000" />
<path d="M104.28200000,282.01000000 L96.78200000,282.01000000 L96.78200000,233.75000000 L104.28200000,233.75000000 Z" fill="#133d91ff" />
<use xlink:href="#d2" x="100.532000" y="233.750000" />
<use xlink:href="#d2" x="100.532000" y="233.750000" />
<path d="M100.53200000,230.00000000 L100.53200000,237.50000000 L31.44400000,237.50000000 L31.44400000,230.00000000 Z" fill="#133d91ff" />
<use xlink:href="#d2" x="31.444000" y="233.750000" />
<use xlink:href="#d3" x="31.444000" y="282.010000" />
<use xlink:href="#d2" x="100.532000" y="212.010000" />
<path d="M104.28200000,212.01000000 L96.78200000,212.01000000 L96.78200000,163.75000000 L104.28200000,163.75000000 Z" fill="#133d91ff" />
<use xlink:href="#d2" x="100.532000" y="163.750000" />
<use xlink:href="#d2" x="100.532000" y="163.750000" />
<path d="M100.53200000,160.00000000 L100.53200000,167.50000000 L31.44400000,167.50000000 L31.44400000,160.00000000 Z" fill="#133d91ff" />
<use xlink:href="#d2" x="31.444000" y="163.750000" />
<use xlink:href="#d3" x="31.444000" y="212.010000" />
<use xlink:href="#d2" x="200.532000" y="282.010000" />
<path d="M204.28200000,282.01000000 L196.78200000,282.01000000 L196.78200000,233.75000000 L204.28200000,233.75000000 Z" fill="#133d91ff" />
<use xlink:href="#d2" x="200.532000" y="233.750000" />
<use xlink:href="#d2" x="200.532000" y="233.750000" />
<path d="M200.53200000,230.00000000 L200.53200000,237.50000000 L131.44400000,237.50000000 L131.44400000,230.00000000 Z" fill="#133d91ff" />
<use xlink:href="#d2" x="131.444000" y="233.750000" />
<use xlink:href="#d3" x="131.444000" y="282.010000" />
<use xlink:href="#d2" x="200.532000" y="212.010000" />
<path d="M204.28200000,212.01000000 L196.78200000,212.01000000 L196.78200000,163.75000000 L204.28200000,163.75000000 Z" fill="#133d91ff" />
<use xlink:href="#d2" x="200.532000" y="163.750000" />
<use xlink:href="#d2" x="200.532000" y="163.750000" />
<path d="M200.53200000,160.00000000 L200.53200000,167.50000000 L131.44400000,167.50000000 L131.44400000,160.00000000 Z" fill="#133d91ff" />
<use xlink:href="#d2" x="131.444000" y="163.750000" />
<use xlink:href="#d3" x="131.444000" y="212.010000" />
<use xlink:href="#d2" x="100.532000" y="122.010000" />
<path d="M104.28200000,122.01000000 L96.78200000,122.01000000 L96.78200000,73.75000000 L104.28200000,73.75000000 Z" fill="#133d91ff" />
<use xlink:href="#d2" x="100.532000" y="73.750000" />
<use xlink:href="#d2" x="100.532000" y="73.750000" />
<path d="M100.53200000,70.00000000 L100.53200000,77.50000000 L31.44400000,77.50000000 L31.44400000,70.00000000 Z" fill="#133d91ff" />
<use xlink:href="#d2" x="31.444000" y="73.750000" />
<use xlink:href="#d3" x="31.444000" y="122.010000" />
<use xlink:href="#d2" x="100.532000" y="52.010000" />
<path d="M104.28200000,52.01000000 L96.78200000,52.01000000 L96.78200000,3.75000000 L104.28200000,3.75000000 Z" fill="#133d91ff" />
<use xlink:href="#d2" x="100.532000" y="3.750000" />
<use xlink:href="#d2" x="100.532000" y="3.750000" />
<path d="M100.53200000,0.00000000 L100.53200000,7.50000000 L31.44400000,7.50000000 L31.44400000,0.00000000 Z" fill="#133d91ff" />
<use xlink:href="#d2" x="31.444000" y="3.750000" />
<use xlink:href="#d3" x="31.444000" y="52.010000" />
<use xlink:href="#d2" x="200.532000" y="122.010000" />
<path d="M204.28200000,122.01000000 L196.78200000,122.01000000 L196.78200000,73.75000000 L204.28200000,73.75000000 Z" fill="#133d91ff" />
<use xlink:href="#d2" x="200.532000" y="73.750000" />
<use xlink:href="#d2" x="200.532000" y="73.750000" />
<path d="M200.53200000,70.00000000 L200.53200000,77.50000000 L131.44400000,77.50000000 L131.44400000,70.00000000 Z" fill="#133d91ff" />
<use xlink:href="#d2" x="131.444000" y="73.750000" />
<use xlink:href="#d3" x="131.444000" y="122.010000" />
<use xlink:href="#d2" x="200.532000" y="52.010000" />
<path d="M204.28200000,52.01000000 L196.78200000,52.01000000 L196.78200000,3.75000000 L204.28200000,3.75000000 Z" fill="#133d91ff" />
<use xlink:href="#d2" x="200.532000" y="3.750000" />
<use xlink:href="#d2" x="200.532000" y="3.750000" />
<path d="M200.53200000,0.00000000 L200.53200000,7.50000000 L131.44400000,7.50000000 L131.44400000,0.00000000 Z" fill="#133d91ff" />
<use xlink:href="#d2" x="131.444000" y="3.750000" />
<use xlink:href="#d3" x="131.444000" y="52.010000" />
<use xlink:href="#d2" x="330.532000" y="442.010000" />
<path d="M334.28200000,442.01000000 L326.78200000,442.01000000 L326.78200000,393.75000000 L334.28200000,393.75000000 Z" fill="#133d91ff" />
<use xlink:href="#d2" x="330.532000" y="393.750000" />
<use xlink:href="#d2" x="330.532000" y="393.750000" />
<path d="M330.53200000,390.00000000 L330.53200000,397.50000000 L261.44400000,397.50000000 L261.44400000,390.00000000 Z" fill="#133d91ff" />
<use xlink:href="#d2" x="261.444000" y="393.750000" />
<use xlink:href="#d3" x="261.444000" y="442.010000" />
<use xlink:href="#d2" x="330.532000" y="372.010000" />
<path d="M334.28200000,372.01000000 L326.78200000,372.01000000 L326.78200000,323.75000000 L334.28200000,323.75000000 Z" fill="#133d91ff" />
<use xlink:href="#d2" x="330.532000" y="323.750000" />
<use xlink:href="#d2" x="330.532000" y="323.750000" />
<path d="M330.53200000,320.00000000 L330.53200000,327.50000000 L261.44400000,327.50000000 L261.44400000,320.00000000 Z" fill="#133d91ff" />
<use xlink:href="#d2" x="261.444000" y="323.750000" />
<use xlink:href="#d3" x="261.444000" y="372.010000" />
<use xlink:href="#d2" x="430.532000" y="442.010000" />
<path d="M434.28200000,442.01000000 L426.78200000,442.01000000 L426.78200000,393.75000000 L434.28200000,393.75000000 Z" fill="#133d91ff" />
<use xlink:href="#d2" x="430.532000" y="393.750000" />
<use xlink:href="#d2" x="430.532000" y="393.750000" />
<path d="M430.53200000,390.00000000 L430.53200000,397.50000000 L361.44400000,397.50000000 L361.44400000,390.00000000 Z" fill="#133d91ff" />
<use xlink:href="#d2" x="361.444000" y="393.750000" />
<use xlink:href="#d3" x="361.444000" y="442.010000" />
<use xlink:href="#d2" x="430.532000" y="372.010000" />
<path d="M434.28200000,372.01000000 L426.78200000,372.01000000 L426.78200000,323.75000000 L434.28200000,323.75000000 Z" fill="#133d91ff" />
<use xlink:href="#d2" x="430.532000" y="323.750000" />
<use xlink:href="#d2" x="430.532000" y="323.750000" />
<path d="M430.53200000,320.00000000 L430.53200000,327.50000000 L361.44400000,327.50000000 L361.44400000,320.00000000 Z" fill="#133d91ff" />
<use xlink:href="#d2" x="361.444000" y="323.750000" />
<use xlink:href="#d3" x="361.444000" y="372.010000" />
<use xlink:href="#d2" x="330.532000" y="282.010000" />
<path d="M334.28200000,282.01000000 L326.78200000,282.01000000 L326.78200000,233.75000000 L334.28200000,233.75000000 Z" fill="#133d91ff" />
<use xlink:href="#d2" x="330.532000" y="233.750000" />
<use xlink:href="#d2" x="330.532000" y="233.750000" />
<path d="M330.53200000,230.00000000 L330.53200000,237.50000000 L261.44400000,237.50000000 L261.44400000,230.00000000 Z" fill="#133d91ff" />
<use xlink:href="#d2" x="261.444000" y="233.750000" />
<use xlink:href="#d3" x="261.444000" y="282.010000" />
<use xlink:href="#d2" x="330.532000" y="212.010000" />
<path d="M334.28200000,212.01000000 L326.78200000,212.01000000 L326.78200000,163.75000000 L334.28200000,163.75000000 Z" fill="#133d91ff" />
<use xlink:href="#d2" x="330.532000" y="163.750000" />
<use xlink:href="#d2" x="330.532000" y="163.750000" />
<path d="M330.53200000,160.00000000 L330.53200000,167.50000000 L261.44400000,167.50000000 L261.44400000,160.00000000 Z" fill="#133d91ff" />
<use xlink:href="#d2" x="261.444000" y="163.750000" />
<use xlink:href="#d3" x="261.444000" y="212.010000" />
<use xlink:href="#d2" x="430.532000" y="282.010000" />
<path d="M434.28200000,282.01000000 L426.78200000,282.01000000 L426.78200000,233.75000000 L434.28200000,233.75000000 Z" fill="#133d91ff" />
<use xlink:href="#d2" x="430.532000" y="233.750000" />
<use xlink:href="#d2" x="430.532000" y="233.750000" />
<path d="M430.53200000,230.00000000 L430.53200000,237.50000000 L361.44400000,237.50000000 L361.44400000,230.00000000 Z" fill="#133d91ff" />
<use xlink:href="#d2" x="361.444000" y="233.750000" />
<use xlink:href="#d3" x="361.444000" y="282.010000" />
<use xlink:href="#d2" x="430.532000" y="212.010000" />
<path d="M434.28200000,212.01000000 L426.78200000,212.01000000 L426.78200000,163.75000000 L434.28200000,163.75000000 Z" fill="#133d91ff" />
<use xlink:href="#d2" x="430.532000" y="163.750000" />
<use xlink:href="#d2" x="430.532000" y="163.750000" />
<path d="M430.53200000,160.00000000 L430.53200000,167.50000000 L361.44400000,167.50000000 L361.44400000,160.00000000 Z" fill="#133d91ff" />
<use xlink:href="#d2" x="361.444000" y="163.750000" />
<use xlink:href="#d3" x="361.444000" y="212.010000" />
<use xlink:href="#d2" x="330.532000" y="122.010000" />
<path d="M334.28200000,122.01000000 L326.78200000,122.01000000 L326.78200000,73.75000000 L334.28200000,73.75000000 Z" fill="#133d91ff" />
<use xlink:href="#d2" x="330.532000" y="73.750000" />
<use xlink:href="#d2" x="330.532000" y="73.750000" />
<path d="M330.53200000,70.00000000 L330.53200000,77.50000000 L261.44400000,77.50000000 L261.44400000,70.00000000 Z" fill="#133d91ff" />
<use xlink:href="#d2" x="261.444000" y="73.750000" />
<use xlink:href="#d3" x="261.444000" y="122.010000" />
<use xlink:href="#d2" x="330.532000" y="52.010000" />
<path d="M334.28200000,52.01000000 L326.78200000,52.01000000 L326.78200000,3.75000000 L334.28200000,3.75000000 Z" fill="#133d91ff" />
<use xlink:href="#d2" x="330.532000" y="3.750000" />
<use xlink:href="#d2" x="330.532000" y="3.750000" />
<path d="M330.53200000,0.00000000 L330.53200000,7.50000000 L261.44400000,7.50000000 L261.44400000,0.00000000 Z" fill="#133d91ff" />
<use xlink:href="#d2" x="261.444000" y="3.750000" />
<use xlink:href="#d3" x="261.444000" y="52.010000" />
<use xlink:href="#d2" x="430.532000" y="122.010000" />
<path d="M434.28200000,122.01000000 L426.78200000,122.01000000 L426.78200000,73.75000000 L434.28200000,73.75000000 Z" fill="#133d91ff" />
<use xlink:href="#d2" x="430.532000" y="73.750000" />
<use xlink:href="#d2" x="430.532000" y="73.750000" />
<path d="M430.53200000,70.00000000 L430.53200000,77.50000000 L361.44400000,77.50000000 L361.44400000,70.00000000 Z" fill="#133d91ff" />
<use xlink:href="#d2" x="361.444000" y="73.750000" />
<use xlink:href="#d3" x="361.444000" y="122.010000" />
<use xlink:href="#d2" x="430.532000" y="52.010000" />
<path d="M434.28200000,52.01000000 L426.78200000,52.01000000 L426.78200000,3.75000000 L434.28200000,3.75000000 Z" fill="#133d91ff" />
<use xlink:href="#d2" x="430.532000" y="3.750000" />
<use xlink:href="#d2" x="430.532000" y="3.750000" />
<path d="M430.53200000,0.00000000 L430.53200000,7.50000000 L361.44400000,7.50000000 L361.44400000,0.00000000 Z" fill="#133d91ff" />
<use xlink:href="#d2" x="361.444000" y="3.750000" />
<use xlink:href="#d3" x="361.444000" y="52.010000" />
<use xlink:href="#d4" x="54.500000" y="469.615375" />
<use xlink:href="#d2" x="600.532000" y="962.010000" />
<path d="M604.28200000,962.01000000 L596.78200000,962.01000000 L596.78200000,913.75000000 L604.28200000,913.75000000 Z" fill="#133d91ff" />
<use xlink:href="#d2" x="600.532000" y="913.750000" />
<use xlink:href="#d2" x="600.532000" y="913.750000" />
<path d="M600.53200000,910.00000000 L600.53200000,917.50000000 L531.44400000,917.50000000 L531.44400000,910.00000000 Z" fill="#133d91ff" />
<use xlink:href="#d2" x="531.444000" y="913.750000" />
<use xlink:href="#d3" x="531.444000" y="962.010000" />
<use xlink:href="#d2" x="600.532000" y="892.010000" />
<path d="M604.28200000,892.01000000 L596.78200000,892.01000000 L596.78200000,843.75000000 L604.28200000,843.75000000 Z" fill="#133d91ff" />
<use xlink:href="#d2" x="600.532000" y="843.750000" />
<use xlink:href="#d2" x="600.532000" y="843.750000" />
<path d="M600.53200000,840.00000000 L600.53200000,847.50000000 L531.44400000,847.50000000 L531.44400000,840.00000000 Z" fill="#133d91ff" />
<use xlink:href="#d2" x="531.444000" y="843.750000" />
<use xlink:href="#d3" x="531.444000" y="892.010000" />
<use xlink:href="#d2" x="700.532000" y="962.010000" />
<path d="M704.28200000,962.01000000 L696.78200000,962.01000000 L696.78200000,913.75000000 L704.28200000,913.75000000 Z" fill="#133d91ff" />
<use xlink:href="#d2" x="700.532000" y="913.750000" />
<use xlink:href="#d2" x="700.532000" y="913.750000" />
<path d="M700.53200000,910.00000000 L700.53200000,917.50000000 L631.44400000,917.50000000 L631.44400000,910.00000000 Z" fill="#133d91ff" />
<use xlink:href="#d2" x="631.444000" y="913.750000" />
<use xlink:href="#d3" x="631.444000" y="962.010000" />
<use xlink:href="#d2" x="700.532000" y="892.010000" />
<path d="M704.28200000,892.01000000 L696.78200000,892.01000000 L696.78200000,843.75000000 L704.28200000,843.75000000 Z" fill="#133d91ff" />
<use xlink:href="#d2" x="700.532000" y="843.750000" />
<use xlink:href="#d2" x="700.532000" y="843.750000" />
<path d="M700.53200000,840.00000000 L700.53200000,847.50000000 L631.44400000,847.50000000 L631.44400000,840.00000000 Z" fill="#133d91ff" />
<use xlink:href="#d2" x="631.444000" y="843.750000" />
<use xlink:href="#d3" x="631.444000" y="892.010000" />
<use xlink:href="#d2" x="600.532000" y="802.010000" />
<path d="M604.28200000,802.01000000 L596.78200000,802.01000000 L596.78200000,753.75000000 L604.28200000,753.75000000 Z" fill="#133d91ff" />
<use xlink:href="#d2" x="600.532000" y="753.750000" />
<use xlink:href="#d2" x="600.532000" y="753.750000" />
<path d="M600.53200000,750.00000000 L600.53200000,757.50000000 L531.44400000,757.50000000 L531.44400000,750.00000000 Z" fill="#133d91ff" />
<use xlink:href="#d2" x="531.444000" y="753.750000" />
<use xlink:href="#d3" x="531.444000" y="802.010000" />
<use xlink:href="#d2" x="600.532000" y="732.010000" />
<path d="M604.28200000,732.01000000 L596.78200000,732.01000000 L596.78200000,683.75000000 L604.28200000,683.75000000 Z" fill="#133d91ff" />
<use xlink:href="#d2" x="600.532000" y="683.750000" />
<use xlink:href="#d2" x="600.532000" y="683.750000" />
<path d="M600.53200000,680.00000000 L600.53200000,687.50000000 L531.44400000,687.50000000 L531.44400000,680.00000000 Z" fill="#133d91ff" />
<use xlink:href="#d2" x="531.444000" y="683.750000" />
<use xlink:href="#d3" x="531.444000" y="732.010000" />
<use xlink:href="#d2" x="700.532000" y="802.010000" />
<path d="M704.28200000,802.01000000 L696.78200000,802.01000000 L696.78200000,753.75000000 L704.28200000,753.75000000 Z" fill="#133d91ff" />
<use xlink:href="#d2" x="700.532000" y="753.750000" />
<use xlink:href="#d2" x="700.532000" y="753.750000" />
<path d="M700.53200000,750.00000000 L700.53200000,757.50000000 L631.44400000,757.50000000 L631.44400000,750.00000000 Z" fill="#133d91ff" />
<use xlink:href="#d2" x="631.444000" y="753.750000" />
<use xlink:href="#d3" x="631.444000" y="802.010000" />
<use xlink:href="#d2" x="700.532000" y="732.010000" />
<path d="M704.28200000,732.01000000 L696.78200000,732.01000000 L696.78200000,683.75000000 L704.28200000,683.75000000 Z" fill="#133d91ff" />
<use xlink:href="#d2" x="700.532000" y="683.750000" />
<use xlink:href="#d2" x="700.532000" y="683.750000" />
<path d="M700.53200000,680.00000000 L700.53200000,687.50000000 L631.44400000,687.50000000 L631.44400000,680.00000000 Z" fill="#133d91ff" />
<use xlink:href="#d2" x="631.444000" y="683.750000" />
<use xlink:href="#d3" x="631.444000" y="732.010000" />
<use xlink:href="#d2" x="600.532000" y="642.010000" />
<path d="M604.28200000,642.01000000 L596.78200000,642.01000000 L596.78200000,593.75000000 L604.28200000,593.75000000 Z" fill="#133d91ff" />
<use xlink:href="#d2" x="600.532000" y="593.750000" />
<use xlink:href="#d2" x="600.532000" y="593.750000" />
<path d="M600.53200000,590.00000000 L600.53200000,597.50000000 L531.44400000,597.50000000 L531.44400000,590.00000000 Z" fill="#133d91ff" />
<use xlink:href="#d2" x="531.444000" y="593.750000" />
<use xlink:href="#d3" x="531.444000" y="642.010000" />
<use xlink:href="#d2" x="600.532000" y="572.010000" />
<path d="M604.28200000,572.01000000 L596.78200000,572.01000000 L596.78200000,523.75000000 L604.28200000,523.75000000 Z" fill="#133d91ff" />
<use xlink:href="#d2" x="600.532000" y="523.750000" />
<use xlink:href="#d2" x="600.532000" y="523.750000" />
<path d="M600.53200000,520.00000000 L600.53200000,527.50000000 L531.44400000,527.50000000 L531.44400000,520.00000000 Z" fill="#133d91ff" />
<use xlink:href="#d2" x="531.444000" y="523.750000" />
<use xlink:href="#d3" x="531.444000" y="572.010000" />
<use xlink:href="#d2" x="700.532000" y="642.010000" />
<path d="M704.28200000,642.01000000 L696.78200000,642.01000000 L696.78200000,593.75000000 L704.28200000,593.75000000 Z" fill="#133d91ff" />
<use xlink:href="#d2" x="700.532000" y="593.750000" />
<use xlink:href="#d2" x="700.532000" y="593.750000" />
<path d="M700.53200000,590.00000000 L700.53200000,597.50000000 L631.44400000,597.50000000 L631.44400000,590.00000000 Z" fill="#133d91ff" />
<use xlink:href="#d2" x="631.444000" y="593.750000" />
<use xlink:href="#d3" x="631.444000" y="642.010000" />
<use xlink:href="#d2" x="700.532000" y="572.010000" />
<path d="M704.28200000,572.01000000 L696.78200000,572.01000000 L696.78200000,523.75000000 L704.28200000,523.75000000 Z" fill="#133d91ff" />
<use xlink:href="#d2" x="700.532000" y="523.750000" />
<use xlink:href="#d2" x="700.532000" y="523.750000" />
<path d="M700.53200000,520.00000000 L700.53200000,527.50000000 L631.44400000,527.50000000 L631.44400000,520.00000000 Z" fill="#133d91ff" />
<use xlink:href="#d2" x="631.444000" y="523.750000" />
<use xlink:href="#d3" x="631.444000" y="572.010000" />
<use xlink:href="#d2" x="830.532000" y="962.010000" />
<path d="M834.28200000,962.01000000 L826.78200000,962.01000000 L826.78200000,913.75000000 L834.28200000,913.75000000 Z" fill="#133d91ff" />
<use xlink:href="#d2" x="830.532000" y="913.750000" />
<use xlink:href="#d2" x="830.532000" y="913.750000" />
<path d="M830.53200000,910.00000000 L830.53200000,917.50000000 L761.44400000,917.50000000 L761.44400000,910.00000000 Z" fill="#133d91ff" />
<use xlink:href="#d2" x="761.444000" y="913.750000" />
<use xlink:href="#d3" x="761.444000" y="962.010000" />
<use xlink:href="#d2" x="830.532000" y="892.010000" />
<path d="M834.28200000,892.01000000 L826.78200000,892.01000000 L826.78200000,843.75000000 L834.28200000,843.75000000 Z" fill="#133d91ff" />
<use xlink:href="#d2" x="830.532000" y="843.750000" />
<use xlink:href="#d2" x="830.532000" y="843.750000" />
<path d="M830.53200000,840.00000000 L830.53200000,847.50000000 L761.44400000,847.50000000 L761.44400000,840.00000000 Z" fill="#133d91ff" />
<use xlink:href="#d2" x="761.444000" y="843.750000" />
<use xlink:href="#d3" x="761.444000" y="892.010000" />
<use xlink:href="#d2" x="930.532000" y="962.010000" />
<path d="M934.28200000,962.01000000 L926.78200000,962.01000000 L926.78200000,913.75000000 L934.28200000,913.75000000 Z" fill="#133d91ff" />
<use xlink:href="#d2" x="930.532000" y="913.750000" />
<use xlink:href="#d2" x="930.532000" y="913.750000" />
<path d="M930.53200000,910.00000000 L930.53200000,917.50000000 L861.44400000,917.50000000 L861.44400000,910.00000000 Z" fill="#133d91ff" />
<use xlink:href="#d2" x="861.444000" y="913.750000" />
<use xlink:href="#d3" x="861.444000" y="962.010000" />
<use xlink:href="#d2" x="930.532000" y="892.010000" />
<path d="M934.28200000,892.01000000 L926.78200000,892.01000000 L926.78200000,843.75000000 L934.28200000,843.75000000 Z" fill="#133d91ff" />
<use xlink:href="#d2" x="930.532000" y="843.750000" />
<use xlink:href="#d2" x="930.532000" y="843.750000" />
<path d="M930.53200000,840.00000000 L930.53200000,847.50000000 L861.44400000,847.50000000 L861.44400000,840.00000000 Z" fill="#133d91ff" />
<use xlink:href="#d2" x="861.444000" y="843.750000" />
<use xlink:href="#d3" x="861.444000" y="892.010000" />
<use xlink:href="#d2" x="830.532000" y="802.010000" />
<path d="M834.28200000,802.01000000 L826.78200000,802.01000000 L826.78200000,753.75000000 L834.28200000,753.75000000 Z" fill="#133d91ff" />
<use xlink:href="#d2" x="830.532000" y="753.750000" />
<use xlink:href="#d2" x="830.532000" y="753.750000" />
<path d="M830.53200000,750.00000000 L830.53200000,757.50000000 L761.44400000,757.50000000 L761.44400000,750.00000000 Z" fill="#133d91ff" />
<use xlink:href="#d2" x="761.444000" y="753.750000" />
<use xlink:href="#d3" x="761.444000" y="802.010000" />
<use xlink:href="#d2" x="830.532000" y="732.010000" />
<path d="M834.28200000,732.01000000 L826.78200000,732.01000000 L826.78200000,683.75000000 L834.28200000,683.75000000 Z" fill="#133d91ff" />
<use xlink:href="#d2" x="830.532000" y="683.750000" />
<use xlink:href="#d2" x="830.532000" y="683.750000" />
<path d="M830.53200000,680.00000000 L830.53200000,687.50000000 L761.44400000,687.50000000 L761.44400000,680.00000000 Z" fill="#133d91ff" />
<use xlink:href="#d2" x="761.444000" y="683.750000" />
<use xlink:href="#d3" x="761.444000" y="732.010000" />
<use xlink:href="#d2" x="930.532000" y="802.010000" />
<path d="M934.28200000,802.01000000 L926.78200000,802.01000000 L926.78200000,753.75000000 L934.28200000,753.75000000 Z" fill="#133d91ff" />
<use xlink:href="#d2" x="930.532000" y="753.750000" />
<use xlink:href="#d2" x="930.532000" y="753.750000" />
<path d="M930.53200000,750.00000000 L930.53200000,757.50000000 L861.44400000,757.50000000 L861.44400000,750.00000000 Z" fill="#133d91ff" />
<use xlink:href="#d2" x="861.444000" y="753.750000" />
<use xlink:href="#d3" x="861.444000" y="802.010000" />
<use xlink:href="#d2" x="930.532000" y="732.010000" />
<path d="M934.28200000,732.01000000 L926.78200000,732.01000000 L926.78200000,683.75000000 L934.28200000,683.75000000 Z" fill="#133d91ff" />
<use xlink:href="#d2" x="930.532000" y="683.750000" />
<use xlink:href="#d2" x="930.532000" y="683.750000" />
<path d="M930.53200000,680.00000000 L930.53200000,687.50000000 L861.44400000,687.50000000 L861.44400000,680.00000000 Z" fill="#133d91ff" />
<use xlink:href="#d2" x="861.444000" y="683.750000" />
<use xlink:href="#d3" x="861.444000" y="732.010000" />
<use xlink:href="#d2" x="830.532000" y="642.010000" />
<path d="M834.28200000,642.01000000 L826.78200000,642.01000000 L826.78200000,593.75000000 L834.28200000,593.75000000 Z" fill="#133d91ff" />
<use xlink:href="#d2" x="830.532000" y="593.750000" />
<use xlink:href="#d2" x="830.532000" y="593.750000" />
<path d="M830.53200000,590.00000000 L830.53200000,597.50000000 L761.44400000,597.50000000 L761.44400000,590.00000000 Z" fill="#133d91ff" />
<use xlink:href="#d2" x="761.444000" y="593.750000" />
<use xlink:href="#d3" x="761.444000" y="642.010000" />
<use xlink:href="#d2" x="830.532000" y="572.010000" />
<path d="M834.28200000,572.01000000 L826.78200000,572.01000000 L826.78200000,523.75000000 L834.28200000,523.75000000 Z" fill="#133d91ff" />
<use xlink:href="#d2" x="830.532000" y="523.750000" />
<use xlink:href="#d2" x="830.532000" y="523.750000" />
<path d="M830.53200000,520.00000000 L830.53200000,527.50000000 L761.44400000,527.50000000 L761.44400000,520.00000000 Z" fill="#133d91ff" />
<use xlink:href="#d2" x="761.444000" y="523.750000" />
<use xlink:href="#d3" x="761.444000" y="572.010000" />
<use xlink:href="#d2" x="930.532000" y="642.010000" />
<path d="M934.28200000,642.01000000 L926.78200000,642.01000000 L926.78200000,593.75000000 L934.28200000,593.75000000 Z" fill="#133d91ff" />
<use xlink:href="#d2" x="930.532000" y="593.750000" />
<use xlink:href="#d2" x="930.532000" y="593.750000" />
<path d="M930.53200000,590.00000000 L930.53200000,597.50000000 L861.44400000,597.50000000 L861.44400000,590.00000000 Z" fill="#133d91ff" />
<use xlink:href="#d2" x="861.444000" y="593.750000" />
<use xlink:href="#d3" x="861.444000" y="642.010000" />
<use xlink:href="#d2" x="930.532000" y="572.010000" />
<path d="M934.28200000,572.01000000 L926.78200000,572.01000000 L926.78200000,523.75000000 L934.28200000,523.75000000 Z" fill="#133d91ff" />
<use xlink:href="#d2" x="930.532000" y="523.750000" />
<use xlink:href="#d2" x="930.532000" y="523.750000" />
<path d="M930.53200000,520.00000000 L930.53200000,527.50000000 L861.44400000,527.50000000 L861.44400000,520.00000000 Z" fill="#133d91ff" />
<use xlink:href="#d2" x="861.444000" y="523.750000" />
<use xlink:href="#d3" x="861.444000" y="572.010000" />
<use xlink:href="#d4" x="554.500000" y="989.615375" />
<use xlink:href="#d2" x="600.532000" y="442.010000" />
<path d="M604.28200000,442.01000000 L596.78200000,442.01000000 L596.78200000,393.75000000 L604.28200000,393.75000000 Z" fill="#133d91ff" />
<use xlink:href="#d2" x="600.532000" y="393.750000" />
<use xlink:href="#d2" x="600.532000" y="393.750000" />
<path d="M600.53200000,390.00000000 L600.53200000,397.50000000 L531.44400000,397.50000000 L531.44400000,390.00000000 Z" fill="#133d91ff" />
<use xlink:href="#d2" x="531.444000" y="393.750000" />
<use xlink:href="#d3" x="531.444000" y="442.010000" />
<use xlink:href="#d2" x="600.532000" y="372.010000" />
<path d="M604.28200000,372.01000000 L596.78200000,372.01000000 L596.78200000,323.75000000 L604.28200000,323.75000000 Z" fill="#133d91ff" />
<use xlink:href="#d2" x="600.532000" y="323.750000" />
<use xlink:href="#d2" x="600.532000" y="323.750000" />
<path d="M600.53200000,320.00000000 L600.53200000,327.50000000 L531.44400000,327.50000000 L531.44400000,320.00000000 Z" fill="#133d91ff" />
<use xlink:href="#d2" x="531.444000" y="323.750000" />
<use xlink:href="#d3" x="531.444000" y="372.010000" />
<use xlink:href="#d2" x="700.532000" y="442.010000" />
<path d="M704.28200000,442.01000000 L696.78200000,442.01000000 L696.78200000,393.75000000 L704.28200000,393.75000000 Z" fill="#133d91ff" />
<use xlink:href="#d2" x="700.532000" y="393.750000" />
<use xlink:href="#d2" x="700.532000" y="393.750000" />
<path d="M700.53200000,390.00000000 L700.53200000,397.50000000 L631.44400000,397.50000000 L631.44400000,390.00000000 Z" fill="#133d91ff" />
<use xlink:href="#d2" x="631.444000" y="393.750000" />
<use xlink:href="#d3" x="631.444000" y="442.010000" />
<use xlink:href="#d2" x="700.532000" y="372.010000" />
<path d="M704.28200000,372.01000000 L696.78200000,372.01000000 L696.78200000,323.75000000 L704.28200000,323.75000000 Z" fill="#133d91ff" />
<use xlink:href="#d2" x="700.532000" y="323.750000" />
<use xlink:href="#d2" x="700.532000" y="323.750000" />
<path d="M700.53200000,320.00000000 L700.53200000,327.50000000 L631.44400000,327.50000000 L631.44400000,320.00000000 Z" fill="#133d91ff" />
<use xlink:href="#d2" x="631.444000" y="323.750000" />
<use xlink:href="#d3" x="631.444000" y="372.010000" />
<use xlink:href="#d2" x="600.532000" y="282.010000" />
<path d="M604.28200000,282.01000000 L596.78200000,282.01000000 L596.78200000,233.75000000 L604.28200000,233.75000000 Z" fill="#133d91ff" />
<use xlink:href="#d2" x="600.532000" y="233.750000" />
<use xlink:href="#d2" x="600.532000" y="233.750000" />
<path d="M600.53200000,230.00000000 L600.53200000,237.50000000 L531.44400000,237.50000000 L531.44400000,230.00000000 Z" fill="#133d91ff" />
<use xlink:href="#d2" x="531.444000" y="233.750000" />
<use xlink:href="#d3" x="531.444000" y="282.010000" />
<use xlink:href="#d2" x="600.532000" y="212.010000" />
<path d="M604.28200000,212.01000000 L596.78200000,212.01000000 L596.78200000,163.75000000 L604.28200000,163.75000000 Z" fill="#133d91ff" />
<use xlink:href="#d2" x="600.532000" y="163.750000" />
<use xlink:href="#d2" x="600.532000" y="163.750000" />
<path d="M600.53200000,160.00000000 L600.53200000,167.50000000 L531.44400000,167.50000000 L531.44400000,160.00000000 Z" fill="#133d91ff" />
<use xlink:href="#d2" x="531.444000" y="163.750000" />
<use xlink:href="#d3" x="531.444000" y="212.010000" />
<use xlink:href="#d2" x="700.532000" y="282.010000" />
<path d="M704.28200000,282.01000000 L696.78200000,282.01000000 L696.78200000,233.75000000 L704.28200000,233.75000000 Z" fill="#133d91ff" />
<use xlink:href="#d2" x="700.532000" y="233.750000" />
<use xlink:href="#d2" x="700.532000" y="233.750000" />
<path d="M700.53200000,230.00000000 L700.53200000,237.50000000 L631.44400000,237.50000000 L631.44400000,230.00000000 Z" fill="#133d91ff" />
<use xlink:href="#d2" x="631.444000" y="233.750000" />
<use xlink:href="#d3" x="631.444000" y="282.010000" />
<use xlink:href="#d2" x="700.532000" y="212.010000" />
<path d="M704.28200000,212.01000000 L696.78200000,212.01000000 L696.78200000,163.75000000 L704.28200000,163.75000000 Z" fill="#133d91ff" />
<use xlink:href="#d2" x="700.532000" y="163.750000" />
<use xlink:href="#d2" x="700.532000" y="163.750000" />
<path d="M700.53200000,160.00000000 L700.53200000,167.50000000 L631.44400000,167.50000000 L631.44400000,160.00000000 Z" fill="#133d91ff" />
<use xlink:href="#d2" x="631.444000" y="163.750000" />
<use xlink:href="#d3" x="631.444000" y="212.010000" />
<use xlink:href="#d2" x="600.532000" y="122.010000" />
<path d="M604.28200000,122.01000000 L596.78200000,122.01000000 L596.78200000,73.75000000 L604.28200000,73.75000000 Z" fill="#133d91ff" />
<use xlink:href="#d2" x="600.532000" y="73.750000" />
<use xlink:href="#d2" x="600.532000" y="73.750000" />
<path d="M600.53200000,70.00000000 L600.53200000,77.50000000 L531.44400000,77.50000000 L531.44400000,70.00000000 Z" fill="#133d91ff" />
<use xlink:href="#d2" x="531.444000" y="73.750000" />
<use xlink:href="#d3" x="531.444000" y="122.010000" />
<use xlink:href="#d2" x="600.532000" y="52.010000" />
<path d="M604.28200000,52.01000000 L596.78200000,52.01000000 L596.78200000,3.75000000 L604.28200000,3.75000000 Z" fill="#133d91ff" />
<use xlink:href="#d2" x="600.532000" y="3.750000" />
<use xlink:href="#d2" x="600.532000" y="3.750000" />
<path d="M600.53200000,0.00000000 L600.53200000,7.50000000 L531.44400000,7.50000000 L531.44400000,0.00000000 Z" fill="#133d91ff" />
<use xlink:href="#d2" x="531.444000" y="3.750000" />
<use xlink:href="#d3" x="531.444000" y="52.010000" />
<use xlink:href="#d2" x="700.532000" y="122.010000" />
<path d="M704.28200000,122.01000000 L696.78200000,122.01000000 L696.78200000,73.75000000 L704.28200000,73.75000000 Z" fill="#133d91ff" />
<use xlink:href="#d2" x="700.532000" y="73.750000" />
<use xlink:href="#d2" x="700.532000" y="73.750000" />
<path d="M700.53200000,70.00000000 L700.53200000,77.50000000 L631.44400000,77.50000000 L631.44400000,70.00000000 Z" fill="#133d91ff" />
<use xlink:href="#d2" x="631.444000" y="73.750000" />
<use xlink:href="#d3" x="631.444000" y="122.010000" />
<use xlink:href="#d2" x="700.532000" y="52.010000" />
<path d="M704.28200000,52.01000000 L696.78200000,52.01000000 L696.78200000,3.75000000 L704.28200000,3.75000000 Z" fill="#133d91ff" />
<use xlink:href="#d2" x="700.532000" y="3.750000" />
<use xlink:href="#d2" x="700.532000" y="3.750000" />
<path d="M700.53200000,0.00000000 L700.53200000,7.50000000 L631.44400000,7.50000000 L631.44400000,0.00000000 Z" fill="#133d91ff" />
<use xlink:href="#d2" x="631.444000" y="3.750000" />
<use xlink:href="#d3" x="631.444000" y="52.010000" />
<use xlink:href="#d2" x="830.532000" y="442.010000" />
<path d="M834.28200000,442.01000000 L826.78200000,442.01000000 L826.78200000,393.75000000 L834.28200000,393.75000000 Z" fill="#133d91ff" />
<use xlink:href="#d2" x="830.532000" y="393.750000" />
<use xlink:href="#d2" x="830.532000" y="393.750000" />
<path d="M830.53200000,390.00000000 L830.53200000,397.50000000 L761.44400000,397.50000000 L761.44400000,390.00000000 Z" fill="#133d91ff" />
<use xlink:href="#d2" x="761.444000" y="393.750000" />
<use xlink:href="#d3" x="761.444000" y="442.010000" />
<use xlink:href="#d2" x="830.532000" y="372.010000" />
<path d="M834.28200000,372.01000000 L826.78200000,372.01000000 L826.78200000,323.75000000 L834.28200000,323.75000000 Z" fill="#133d91ff" />
<use xlink:href="#d2" x="830.532000" y="323.750000" />
<use xlink:href="#d2" x="830.532000" y="323.750000" />
<path d="M830.53200000,320.00000000 L830.53200000,327.50000000 L761.44400000,327.50000000 L761.44400000,320.00000000 Z" fill="#133d91ff" />
<use xlink:href="#d2" x="761.444000" y="323.750000" />
<use xlink:href="#d3" x="761.444000" y="372.010000" />
<use xlink:href="#d2" x="930.532000" y="442.010000" />
<path d="M934.28200000,442.01000000 L926.78200000,442.01000000 L926.78200000,393.75000000 L934.28200000,393.75000000 Z" fill="#133d91ff" />
<use xlink:href="#d2" x="930.532000" y="393.750000" />
<use xlink:href="#d2" x="930.532000" y="393.750000" />
<path d="M930.53200000,390.00000000 L930.53200000,397.50000000 L861.44400000,397.50000000 L861.44400000,390.00000000 Z" fill="#133d91ff" />
<use xlink:href="#d2" x="861.444000" y="393.750000" />
<use xlink:href="#d3" x="861.444000" y="442.010000" />
<use xlink:href="#d2" x="930.532000" y="372.010000" />
<path d="M934.28200000,372.01000000 L926.78200000,372.01000000 L926.78200000,323.75000000 L934.28200000,323.75000000 Z" fill="#133d91ff" />
<use xlink:href="#d2" x="930.532000" y="323.750000" />
<use xlink:href="#d2" x="930.532000" y="323.750000" />
<path d="M930.53200000,320.00000000 L930.53200000,327.50000000 L861.44400000,327.50000000 L861.44400000,320.00000000 Z" fill="#133d91ff" />
<use xlink:href="#d2" x="861.444000" y="323.750000" />
<use xlink:href="#d3" x="861.444000" y="372.010000" />
<use xlink:href="#d2" x="830.532000" y="282.010000" />
<path d="M834.28200000,282.01000000 L826.78200000,282.01000000 L826.78200000,233.75000000 L834.28200000,233.75000000 Z" fill="#133d91ff" />
<use xlink:href="#d2" x="830.532000" y="233.750000" />
<use xlink:href="#d2" x="830.532000" y="233.750000" />
<path d="M830.53200000,230.00000000 L830.53200000,237.50000000 L761.44400000,237.50000000 L761.44400000,230.00000000 Z" fill="#133d91ff" />
<use xlink:href="#d2" x="761.444000" y="233.750000" />
<use xlink:href="#d3" x="761.444000" y="282.010000" />
<use xlink:href="#d2" x="830.532000" y="212.010000" />
<path d="M834.28200000,212.01000000 L826.78200000,212.01000000 L826.78200000,163.75000000 L834.28200000,163.75000000 Z" fill="#133d91ff" />
<use xlink:href="#d2" x="830.532000" y="163.750000" />
<use xlink:href="#d2" x="830.532000" y="163.750000" />
<path d="M830.53200000,160.00000000 L830.53200000,167.50000000 L761.44400000,167.50000000 L761.44400000,160.00000000 Z" fill="#133d91ff" />
<use xlink:href="#d2" x="761.444000" y="163.750000" />
<use xlink:href="#d3" x="761.444000" y="212.010000" />
<use xlink:href="#d2" x="930.532000" y="282.010000" />
<path d="M934.28200000,282.01000000 L926.78200000,282.01000000 L926.78200000,233.75000000 L934.28200000,233.75000000 Z" fill="#133d91ff" />
<use xlink:href="#d2" x="930.532000" y="233.750000" />
<use xlink:href="#d2" x="930.532000" y="233.750000" />
<path d="M930.53200000,230.00000000 L930.53200000,237.50000000 L861.44400000,237.50000000 L861.44400000,230.00000000 Z" fill="#133d91ff" />
<use xlink:href="#d2" x="861.444000" y="233.750000" />
<use xlink:href="#d3" x="861.444000" y="282.010000" />
<use xlink:href="#d2" x="930.532000" y="212.010000" />
<path d="M934.28200000,212.01000000 L926.78200000,212.01000000 L926.78200000,163.75000000 L934.28200000,163.75000000 Z" fill="#133d91ff" />
<use xlink:href="#d2" x="930.532000" y="163.750000" />
<use xlink:href="#d2" x="930.532000" y="163.750000" />
<path d="M930.53200000,160.00000000 L930.53200000,167.50000000 L861.44400000,167.50000000 L861.44400000,160.00000000 Z" fill="#133d91ff" />
<use xlink:href="#d2" x="861.444000" y="163.750000" />
<use xlink:href="#d3" x="861.444000" y="212.010000" />
<use xlink:href="#d2" x="830.532000" y="122.010000" />
<path d="M834.28200000,122.01000000 L826.78200000,122.01000000 L826.78200000,73.75000000 L834.28200000,73.75000000 Z" fill="#133d91ff" />
<use xlink:href="#d2" x="830.532000" y="73.750000" />
<use xlink:href="#d2" x="830.532000" y="73.750000" />
<path d="M830.53200000,70.00000000 L830.53200000,77.50000000 L761.44400000,77.50000000 L761.44400000,70.00000000 Z" fill="#133d91ff" />
<use xlink:href="#d2" x="761.444000" y="73.750000" />
<use xlink:href="#d3" x="761.444000" y="122.010000" />
<use xlink:href="#d2" x="830.532000" y="52.010000" />
<path d="M834.28200000,52.01000000 L826.78200000,52.01000000 L826.78200000,3.75000000 L834.28200000,3.75000000 Z" fill="#133d91ff" />
<use xlink:href="#d2" x="830.532000" y="3.750000" />
<use xlink:href="#d2" x="830.532000" y="3.750000" />
<path d="M830.53200000,0.00000000 L830.53200000,7.50000000 L761.44400000,7.50000000 L761.44400000,0.00000000 Z" fill="#133d91ff" />
<use xlink:href="#d2" x="761.444000" y="3.750000" />
<use xlink:href="#d3" x="761.444000" y="52.010000" />
<use xlink:href="#d2" x="930.532000" y="122.010000" />
<path d="M934.28200000,122.01000000 L926.78200000,122.01000000 L926.78200000,73.75000000 L934.28200000,73.75000000 Z" fill="#133d91ff" />
<use xlink:href="#d2" x="930.532000" y="73.750000" />
<use xlink:href="#d2" x="930.532000" y="73.750000" />
<path d="M930.53200000,70.00000000 L930.53200000,77.50000000 L861.44400000,77.50000000 L861.44400000,70.00000000 Z" fill="#133d91ff" />
<use xlink:href="#d2" x="861.444000" y="73.750000" />
<use xlink:href="#d3" x="861.444000" y="122.010000" />
<use xlink:href="#d2" x="930.532000" y="52.010000" />
<path d="M934.28200000,52.01000000 L926.78200000,52.01000000 L926.78200000,3.75000000 L934.28200000,3.75000000 Z" fill="#133d91ff" />
<use xlink:href="#d2" x="930.532000" y="3.750000" />
<use xlink:href="#d2" x="930.532000" y="3.750000" />
<path d="M930.53200000,0.00000000 L930.53200000,7.50000000 L861.44400000,7.50000000 L861.44400000,0.00000000 Z" fill="#133d91ff" />
<use xlink:href="#d2" x="861.444000" y="3.750000" />
<use xlink:href="#d3" x="861.444000" y="52.010000" />
<use xlink:href="#d4" x="554.500000" y="469.615375" />
<use xlink:href="#d2" x="1100.532000" y="962.010000" />
<path d="M1104.28200000,962.01000000 L1096.78200000,962.01000000 L1096.78200000,913.75000000 L1104.28200000,913.75000000 Z" fill="#133d91ff" />
<use xlink:href="#d2" x="1100.532000" y="913.750000" />
<use xlink:href="#d2" x="1100.532000" y="913.750000" />
<path d="M1100.53200000,910.00000000 L1100.53200000,917.50000000 L1031.44400000,917.50000000 L1031.44400000,910.00000000 Z" fill="#133d91ff" />
<use xlink:href="#d2" x="1031.444000" y="913.750000" />
<use xlink:href="#d3" x="1031.444000" y="962.010000" />
<use xlink:href="#d2" x="1100.532000" y="892.010000" />
<path d="M1104.28200000,892.01000000 L1096.78200000,892.01000000 L1096.78200000,843.75000000 L1104.28200000,843.75000000 Z" fill="#133d91ff" />
<use xlink:href="#d2" x="1100.532000" y="843.750000" />
<use xlink:href="#d2" x="1100.532000" y="843.750000" />
<path d="M1100.53200000,840.00000000 L1100.53200000,847.50000000 L1031.44400000,847.50000000 L1031.44400000,840.00000000 Z" fill="#133d91ff" />
<use xlink:href="#d2" x="1031.444000" y="843.750000" />
<use xlink:href="#d3" x="1031.444000" y="892.010000" />
<use xlink:href="#d2" x="1200.532000" y="962.010000" />
<path d="M1204.28200000,962.01000000 L1196.78200000,962.01000000 L1196.78200000,913.75000000 L1204.28200000,913.75000000 Z" fill="#133d91ff" />
<use xlink:href="#d2" x="1200.532000" y="913.750000" />
<use xlink:href="#d2" x="1200.532000" y="913.750000" />
<path d="M1200.53200000,910.00000000 L1200.53200000,917.50000000 L1131.44400000,917.50000000 L1131.44400000,910.00000000 Z" fill="#133d91ff" />
<use xlink:href="#d2" x="1131.444000" y="913.750000" />
<use xlink:href="#d3" x="1131.444000" y="962.010000" />
<use xlink:href="#d2" x="1200.532000" y="892.010000" />
<path d="M1204.28200000,892.01000000 L1196.78200000,892.01000000 L1196.78200000,843.75000000 L1204.28200000,843.75000000 Z" fill="#133d91ff" />
<use xlink:href="#d2" x="1200.532000" y="843.750000" />
<use xlink:href="#d2" x="1200.532000" y="843.750000" />
<path d="M1200.53200000,840.00000000 L1200.53200000,847.50000000 L1131.44400000,847.50000000 L1131.44400000,840.00000000 Z" fill="#133d91ff" />
<use xlink:href="#d2" x="1131.444000" y="843.750000" />
<use xlink:href="#d3" x="1131.444000" y="892.010000" />
<use xlink:href="#d2" x="1100.532000" y="802.010000" />
<path d="M1104.28200000,802.01000000 L1096.78200000,802.01000000 L1096.78200000,753.75000000 L1104.28200000,753.75000000 Z" fill="#133d91ff" />
<use xlink:href="#d2" x="1100.532000" y="753.750000" />
<use xlink:href="#d2" x="1100.532000" y="753.750000" />
<path d="M1100.53200000,750.00000000 L1100.53200000,757.50000000 L1031.44400000,757.50000000 L1031.44400000,750.00000000 Z" fill="#133d91ff" />
<use xlink:href="#d2" x="1031.444000" y="753.750000" />
<use xlink:href="#d3" x="1031.444000" y="802.010000" />
<use xlink:href="#d2" x="1100.532000" y="732.010000" />
<path d="M1104.28200000,732.01000000 L1096.78200000,732.01000000 L1096.78200000,683.75000000 L1104.28200000,683.75000000 Z" fill="#133d91ff" />
<use xlink:href="#d2" x="1100.532000" y="683.750000" />
<use xlink:href="#d2" x="1100.532000" y="683.750000" />
<path d="M1100.53200000,680.00000000 L1100.53200000,687.50000000 L1031.44400000,687.50000000 L1031.44400000,680.00000000 Z" fill="#133d91ff" />
<use xlink:href="#d2" x="1031.444000" y="683.750000" />
<use xlink:href="#d3" x="1031.444000" y="732.010000" />
<use xlink:href="#d2" x="1200.532000" y="802.010000" />
<path d="M1204.28200000,802.01000000 L1196.78200000,802.01000000 L1196.78200000,753.75000000 L1204.28200000,753.75000000 Z" fill="#133d91ff" />
<use xlink:href="#d2" x="1200.532000" y="753.750000" />
<use xlink:href="#d2" x="1200.532000" y="753.750000" />
<path d="M1200.53200000,750.00000000 L1200.53200000,757.50000000 L1131.44400000,757.50000000 L1131.44400000,750.00000000 Z" fill="#133d91ff" />
<use xlink:href="#d2" x="1131.444000" y="753.750000" />
<use xlink:href="#d3" x="1131.444000" y="802.010000" />
<use xlink:href="#d2" x="1200.532000" y="732.010000" />
<path d="M1204.28200000,732.01000000 L1196.78200000,732.01000000 L1196.78200000,683.75000000 L1204.28200000,683.75000000 Z" fill="#133d91ff" />
<use xlink:href="#d2" x="1200.532000" y="683.750000" />
<use xlink:href="#d2" x="1200.532000" y="683.750000" />
<path d="M1200.53200000,680.00000000 L1200.53200000,687.50000000 L1131.44400000,687.50000000 L1131.44400000,680.00000000 Z" fill="#133d91ff" />
<use xlink:href="#d2" x="1131.444000" y="683.750000" />
<use xlink:href="#d3" x="1131.444000" y="732.010000" />
<use xlink:href="#d2" x="1100.532000" y="642.010000" />
<path d="M1104.28200000,642.01000000 L1096.78200000,642.01000000 L1096.78200000,593.75000000 L1104.28200000,593.75000000 Z" fill="#133d91ff" />
<use xlink:href="#d2" x="1100.532000" y="593.750000" />
<use xlink:href="#d2" x="1100.532000" y="593.750000" />
<path d="M1100.53200000,590.00000000 L1100.53200000,597.50000000 L1031.44400000,597.50000000 L1031.44400000,590.00000000 Z" fill="#133d91ff" />
<use xlink:href="#d2" x="1031.444000" y="593.750000" />
<use xlink:href="#d3" x="1031.444000" y="642.010000" />
<use xlink:href="#d2" x="1100.532000" y="572.010000" />
<path d="M1104.28200000,572.01000000 L1096.78200000,572.01000000 L1096.78200000,523.75000000 L1104.28200000,523.75000000 Z" fill="#133d91ff" />
<use xlink:href="#d2" x="1100.532000" y="523.750000" />
<use xlink:href="#d2" x="1100.532000" y="523.750000" />
<path d="M1100.53200000,520.00000000 L1100.53200000,527.50000000 L1031.44400000,527.50000000 L1031.44400000,520.00000000 Z" fill="#133d91ff" />
<use xlink:href="#d2" x="1031.444000" y="523.750000" />
<use xlink:href="#d3" x="1031.444000" y="572.010000" />
<use xlink:href="#d2" x="1200.532000" y="642.010000" />
<path d="M1204.28200000,642.01000000 L1196.78200000,642.01000000 L1196.78200000,593.75000000 L1204.28200000,593.75000000 Z" fill="#133d91ff" />
<use xlink:href="#d2" x="1200.532000" y="593.750000" />
<use xlink:href="#d2" x="1200.532000" y="593.750000" />
<path d="M1200.53200000,590.00000000 L1200.53200000,597.50000000 L1131.44400000,597.50000000 L1131.44400000,590.00000000 Z" fill="#133d91ff" />
<use xlink:href="#d2" x="1131.444000" y="593.750000" />
<use xlink:href="#d3" x="1131.444000" y="642.010000" />
<use xlink:href="#d2" x="1200.532000" y="572.010000" />
<path d="M1204.28200000,572.01000000 L1196.78200000,572.01000000 L1196.78200000,523.75000000 L1204.28200000,523.75000000 Z" fill="#133d91ff" />
<use xlink:href="#d2" x="1200.532000" y="523.750000" />
<use xlink:href="#d2" x="1200.532000" y="523.750000" />
<path d="M1200.53200000,520.00000000 L1200.53200000,527.50000000 L1131.44400000,527.50000000 L1131.44400000,520.00000000 Z" fill="#133d91ff" />
<use xlink:href="#d2" x="1131.444000" y="523.750000" />
<use xlink:href="#d3" x="1131.444000" y="572.010000" />
<use xlink:href="#d2" x="1330.532000" y="962.010000" />
<path d="M1334.28200000,962.01000000 L1326.78200000,962.01000000 L1326.78200000,913.75000000 L1334.28200000,913.75000000 Z" fill="#133d91ff" />
<use xlink:href="#d2" x="1330.532000" y="913.750000" />
<use xlink:href="#d2" x="1330.532000" y="913.750000" />
<path d="M1330.53200000,910.00000000 L1330.53200000,917.50000000 L1261.44400000,917.50000000 L1261.44400000,910.00000000 Z" fill="#133d91ff" />
<use xlink:href="#d2" x="1261.444000" y="913.750000" />
<use xlink:href="#d3" x="1261.444000" y="962.010000" />
<use xlink:href="#d2" x="1330.532000" y="892.010000" />
<path d="M1334.28200000,892.01000000 L1326.78200000,892.01000000 L1326.78200000,843.75000000 L1334.28200000,843.75000000 Z" fill="#133d91ff" />
<use xlink:href="#d2" x="1330.532000" y="843.750000" />
<use xlink:href="#d2" x="1330.532000" y="843.750000" />
<path d="M1330.53200000,840.00000000 L1330.53200000,847.50000000 L1261.44400000,847.50000000 L1261.44400000,840.00000000 Z" fill="#133d91ff" />
<use xlink:href="#d2" x="1261.444000" y="843.750000" />
<use xlink:href="#d3" x="1261.444000" y="892.010000" />
<use xlink:href="#d2" x="1430.532000" y="962.010000" />
<path d="M1434.28200000,962.01000000 L1426.78200000,962.01000000 L1426.78200000,913.75000000 L1434.28200000,913.75000000 Z" fill="#133d91ff" />
<use xlink:href="#d2" x="1430.532000" y="913.750000" />
<use xlink:href="#d2" x="1430.532000" y="913.750000" />
<path d="M1430.53200000,910.00000000 L1430.53200000,917.50000000 L1361.44400000,917.50000000 L1361.44400000,910.00000000 Z" fill="#133d91ff" />
<use xlink:href="#d2" x="1361.444000" y="913.750000" />
<use xlink:href="#d3" x="1361.444000" y="962.010000" />
<use xlink:href="#d2" x="1430.532000" y="892.010000" />
<path d="M1434.28200000,892.01000000 L1426.78200000,892.01000000 L1426.78200000,843.75000000 L1434.28200000,843.75000000 Z" fill="#133d91ff" />
<use xlink:href="#d2" x="1430.532000" y="843.750000" />
<use xlink:href="#d2" x="1430.532000" y="843.750000" />
<path d="M1430.53200000,840.00000000 L1430.53200000,847.50000000 L1361.44400000,847.50000000 L1361.44400000,840.00000000 Z" fill="#133d91ff" />
<use xlink:href="#d2" x="1361.444000" y="843.750000" />
<use xlink:href="#d3" x="1361.444000" y="892.010000" />
<use xlink:href="#d2" x="1330.532000" y="802.010000" />
<path d="M1334.28200000,802.01000000 L1326.78200000,802.01000000 L1326.78200000,753.75000000 L1334.28200000,753.75000000 Z" fill="#133d91ff" />
<use xlink:href="#d2" x="1330.532000" y="753.750000" />
<use xlink:href="#d2" x="1330.532000" y="753.750000" />
<path d="M1330.53200000,750.00000000 L1330.53200000,757.50000000 L1261.44400000,757.50000000 L1261.44400000,750.00000000 Z" fill="#133d91ff" />
<use xlink:href="#d2" x="1261.444000" y="753.750000" />
<use xlink:href="#d3" x="1261.444000" y="802.010000" />
<use xlink:href="#d2" x="1330.532000" y="732.010000" />
<path d="M1334.28200000,732.01000000 L1326.78200000,732.01000000 L1326.78200000,683.75000000 L1334.28200000,683.75000000 Z" fill="#133d91ff" />
<use xlink:href="#d2" x="1330.532000" y="683.750000" />
<use xlink:href="#d2" x="1330.532000" y="683.750000" />
<path d="M1330.53200000,680.00000000 L1330.53200000,687.50000000 L1261.44400000,687.50000000 L1261.44400000,680.00000000 Z" fill="#133d91ff" />
<use xlink:href="#d2" x="1261.444000" y="683.750000" />
<use xlink:href="#d3" x="1261.444000" y="732.010000" />
<use xlink:href="#d2" x="1430.532000" y="802.010000" />
<path d="M1434.28200000,802.01000000 L1426.78200000,802.01000000 L1426.78200000,753.75000000 L1434.28200000,753.75000000 Z" fill="#133d91ff" />
<use xlink:href="#d2" x="1430.532000" y="753.750000" />
<use xlink:href="#d2" x="1430.532000" y="753.750000" />
<path d="M1430.53200000,750.00000000 L1430.53200000,757.50000000 L1361.44400000,757.50000000 L1361.44400000,750.00000000 Z" fill="#133d91ff" />
<use xlink:href="#d2" x="1361.444000" y="753.750000" />
<use xlink:href="#d3" x="1361.444000" y="802.010000" />
<use xlink:href="#d2" x="1430.532000" y="732.010000" />
<path d="M1434.28200000,732.01000000 L1426.78200000,732.01000000 L1426.78200000,683.75000000 L1434.28200000,683.75000000 Z" fill="#133d91ff" />
<use xlink:href="#d2" x="1430.532000" y="683.750000" />
<use xlink:href="#d2" x="1430.532000" y="683.750000" />
<path d="M1430.53200000,680.00000000 L1430.53200000,687.50000000 L1361.44400000,687.50000000 L1361.44400000,680.00000000 Z" fill="#133d91ff" />
<use xlink:href="#d2" x="1361.444000" y="683.750000" />
<use xlink:href="#d3" x="1361.444000" y="732.010000" />
<use xlink:href="#d2" x="1330.532000" y="642.010000" />
<path d="M1334.28200000,642.01000000 L1326.78200000,642.01000000 L1326.78200000,593.75000000 L1334.28200000,593.75000000 Z" fill="#133d91ff" />
<use xlink:href="#d2" x="1330.532000" y="593.750000" />
<use xlink:href="#d2" x="1330.532000" y="593.750000" />
<path d="M1330.53200000,590.00000000 L1330.53200000,597.50000000 L1261.44400000,597.50000000 L1261.44400000,590.00000000 Z" fill="#133d91ff" />
<use xlink:href="#d2" x="1261.444000" y="593.750000" />
<use xlink:href="#d3" x="1261.444000" y="642.010000" />
<use xlink:href="#d2" x="1330.532000" y="572.010000" />
<path d="M1334.28200000,572.01000000 L1326.78200000,572.01000000 L1326.78200000,523.75000000 L1334.28200000,523.75000000 Z" fill="#133d91ff" />
<use xlink:href="#d2" x="1330.532000" y="523.750000" />
<use xlink:href="#d2" x="1330.532000" y="523.750000" />
<path d="M1330.53200000,520.00000000 L1330.53200000,527.50000000 L1261.44400000,527.50000000 L1261.44400000,520.00000000 Z" fill="#133d91ff" />
<use xlink:href="#d2" x="1261.444000" y="523.750000" />
<use xlink:href="#d3" x="1261.444000" y="572.010000" />
<use xlink:href="#d2" x="1430.532000" y="642.010000" />
<path d="M1434.28200000,642.01000000 L1426.78200000,642.01000000 L1426.78200000,593.75000000 L1434.28200000,593.75000000 Z" fill="#133d91ff" />
<use xlink:href="#d2" x="1430.532000" y="593.750000" />
<use xlink:href="#d2" x="1430.532000" y="593.750000" />
<path d="M1430.53200000,590.00000000 L1430.53200000,597.50000000 L1361.44400000,597.50000000 L1361.44400000,590.00000000 Z" fill="#133d91ff" />
<use xlink:href="#d2" x="1361.444000" y="593.750000" />
<use xlink:href="#d3" x="1361.444000" y="642.010000" />
<use xlink:href="#d2" x="1430.532000" y="572.010000" />
<path d="M1434.28200000,572.01000000 L1426.78200000,572.01000000 L1426.78200000,523.75000000 L1434.28200000,523.75000000 Z" fill="#133d91ff" />
<use xlink:href="#d2" x="1430.532000" y="523.750000" />
<use xlink:href="#d2" x="1430.532000" y="523.750000" />
<path d="M1430.53200000,520.00000000 L1430.53200000,527.50000000 L1361.44400000,527.50000000 L1361.44400000,520.00000000 Z" fill="#133d91ff" />
<use xlink:href="#d2" x="1361.444000" y="523.750000" />
<use xlink:href="#d3" x="1361.444000" y="572.010000" />
<use xlink:href="#d4" x="1054.500000" y="989.615375" />
<use xlink:href="#d2" x="1100.532000" y="442.010000" />
<path d="M1104.28200000,442.01000000 L1096.78200000,442.01000000 L1096.78200000,393.75000000 L1104.28200000,393.75000000 Z" fill="#133d91ff" />
<use xlink:href="#d2" x="1100.532000" y="393.750000" />
<use xlink:href="#d2" x="1100.532000" y="393.750000" />
<path d="M1100.53200000,390.00000000 L1100.53200000,397.50000000 L1031.44400000,397.50000000 L1031.44400000,390.00000000 Z" fill="#133d91ff" />
<use xlink:href="#d2" x="1031.444000" y="393.750000" />
<use xlink:href="#d3" x="1031.444000" y="442.010000" />
<use xlink:href="#d2" x="1100.532000" y="372.010000" />
<path d="M1104.28200000,372.01000000 L1096.78200000,372.01000000 L1096.78200000,323.75000000 L1104.28200000,323.75000000 Z" fill="#133d91ff" />
<use xlink:href="#d2" x="1100.532000" y="323.750000" />
<use xlink:href="#d2" x="1100.532000" y="323.750000" />
<path d="M1100.53200000,320.00000000 L1100.53200000,327.50000000 L1031.44400000,327.50000000 L1031.44400000,320.00000000 Z" fill="#133d91ff" />
<use xlink:href="#d2" x="1031.444000" y="323.750000" />
<use xlink:href="#d3" x="1031.444000" y="372.010000" />
<use xlink:href="#d2" x="1200.532000" y="442.010000" />
<path d="M1204.28200000,442.01000000 L1196.78200000,442.01000000 L1196.78200000,393.75000000 L1204.28200000,393.75000000 Z" fill="#133d91ff" />
<use xlink:href="#d2" x="1200.532000" y="393.750000" />
<use xlink:href="#d2" x="1200.532000" y="393.750000" />
<path d="M1200.53200000,390.00000000 L1200.53200000,397.50000000 L1131.44400000,397.50000000 L1131.44400000,390.00000000 Z" fill="#133d91ff" />
<use xlink:href="#d2" x="1131.444000" y="393.750000" />
<use xlink:href="#d3" x="1131.444000" y="442.010000" />
<use xlink:href="#d2" x="1200.532000" y="372.010000" />
<path d="M1204.28200000,372.01000000 L1196.78200000,372.01000000 L1196.78200000,323.75000000 L1204.28200000,323.75000000 Z" fill="#133d91ff" />
<use xlink:href="#d2" x="1200.532000" y="323.750000" />
<use xlink:href="#d2" x="1200.532000" y="323.750000" />
<path d="M1200.53200000,320.00000000 L1200.53200000,327.50000000 L1131.44400000,327.50000000 L1131.44400000,320.00000000 Z" fill="#133d91ff" />
<use xlink:href="#d2" x="1131.444000" y="323.750000" />
<use xlink:href="#d3" x="1131.444000" y="372.010000" />
<use xlink:href="#d2" x="1100.532000" y="282.010000" />
<path d="M1104.28200000,282.01000000 L1096.78200000,282.01000000 L1096.78200000,233.75000000 L1104.28200000,233.75000000 Z" fill="#133d91ff" />
<use xlink:href="#d2" x="1100.532000" y="233.750000" />
<use xlink:href="#d2" x="1100.532000" y="233.750000" />
<path d="M1100.53200000,230.00000000 L1100.53200000,237.50000000 L1031.44400000,237.50000000 L1031.44400000,230.00000000 Z" fill="#133d91ff" />
<use xlink:href="#d2" x="1031.444000" y="233.750000" />
<use xlink:href="#d3" x="1031.444000" y="282.010000" />
<use xlink:href="#d2" x="1100.532000" y="212.010000" />
<path d="M1104.28200000,212.01000000 L1096.78200000,212.01000000 L1096.78200000,163.75000000 L1104.28200000,163.75000000 Z" fill="#133d91ff" />
<use xlink:href="#d2" x="1100.532000" y="163.750000" />
<use xlink:href="#d2" x="1100.532000" y="163.750000" />
<path d="M1100.53200000,160.00000000 L1100.53200000,167.50000000 L1031.44400000,167.50000000 L1031.44400000,160.00000000 Z" fill="#133d91ff" />
<use xlink:href="#d2" x="1031.444000" y="163.750000" />
<use xlink:href="#d3" x="1031.444000" y="212.010000" />
<use xlink:href="#d2" x="1200.532000" y="282.010000" />
<path d="M1204.28200000,282.01000000 L1196.78200000,282.01000000 L1196.78200000,233.75000000 L1204.28200000,233.75000000 Z" fill="#133d91ff" />
<use xlink:href="#d2" x="1200.532000" y="233.750000" />
<use xlink:href="#d2" x="1200.532000" y="233.750000" />
<path d="M1200.53200000,230.00000000 L1200.53200000,237.50000000 L1131.44400000,237.50000000 L1131.44400000,230.00000000 Z" fill="#133d91ff" />
<use xlink:href="#d2" x="1131.444000" y="233.750000" />
<use xlink:href="#d3" x="1131.444000" y="282.010000" />
<use xlink:href="#d2" x="1200.532000" y="212.010000" />
<path d="M1204.28200000,212.01000000 L1196.78200000,212.01000000 L1196.78200000,163.75000000 L1204.28200000,163.75000000 Z" fill="#133d91ff" />
<use xlink:href="#d2" x="1200.532000" y="163.750000" />
<use xlink:href="#d2" x="1200.532000" y="163.750000" />
<path d="M1200.53200000,160.00000000 L1200.53200000,167.50000000 L1131.44400000,167.50000000 L1131.44400000,160.00000000 Z" fill="#133d91ff" />
<use xlink:href="#d2" x="1131.444000" y="163.750000" />
<use xlink:href="#d3" x="1131.444000" y="212.010000" />
<use xlink:href="#d2" x="1100.532000" y="122.010000" />
<path d="M1104.28200000,122.01000000 L1096.78200000,122.01000000 L1096.78200000,73.75000000 L1104.28200000,73.75000000 Z" fill="#133d91ff" />
<use xlink:href="#d2" x="1100.532000" y="73.750000" />
<use xlink:href="#d2" x="1100.532000" y="73.750000" />
<path d="M1100.53200000,70.00000000 L1100.53200000,77.50000000 L1031.44400000,77.50000000 L1031.44400000,70.00000000 Z" fill="#133d91ff" />
<use xlink:href="#d2" x="1031.444000" y="73.750000" />
<use xlink:href="#d3" x="1031.444000" y="122.010000" />
<use xlink:href="#d2" x="1100.532000" y="52.010000" />
<path d="M1104.28200000,52.01000000 L1096.78200000,52.01000000 L1096.78200000,3.75000000 L1104.28200000,3.75000000 Z" fill="#133d91ff" />
<use xlink:href="#d2" x="1100.532000" y="3.750000" />
<use xlink:href="#d2" x="1100.532000" y="3.750000" />
<path d="M1100.53200000,0.00000000 L1100.53200000,7.50000000 L1031.44400000,7.50000000 L1031.44400000,0.00000000 Z" fill="#133d91ff" />
<use xlink:href="#d2" x="1031.444000" y="3.750000" />
<use xlink:href="#d3" x="1031.444000" y="52.010000" />
<use xlink:href="#d2" x="1200.532000" y="122.010000" />
<path d="M1204.28200000,122.01000000 L1196.78200000,122.01000000 L1196.78200000,73.75000000 L1204.28200000,73.75000000 Z" fill="#133d91ff" />
<use xlink:href="#d2" x="1200.532000" y="73.750000" />
<use xlink:href="#d2" x="1200.532000" y="73.750000" />
<path d="M1200.53200000,70.00000000 L1200.53200000,77.50000000 L1131.44400000,77.50000000 L1131.44400000,70.00000000 Z" fill="#133d91ff" />
<use xlink:href="#d2" x="1131.444000" y="73.750000" />
<use xlink:href="#d3" x="1131.444000" y="122.010000" />
<use xlink:href="#d2" x="1200.532000" y="52.010000" />
<path d="M1204.28200000,52.01000000 L1196.78200000,52.01000000 L1196.78200000,3.75000000 L1204.28200000,3.75000000 Z" fill="#133d91ff" />
<use xlink:href="#d2" x="1200.532000" y="3.750000" />
<use xlink:href="#d2" x="1200.532000" y="3.750000" />
<path d="M1200.53200000,0.00000000 L1200.53200000,7.50000000 L1131.44400000,7.50000000 L1131.44400000,0.00000000 Z" fill="#133d91ff" />
<use xlink:href="#d2" x="1131.444000" y="3.750000" />
<use xlink:href="#d3" x="1131.444000" y="52.010000" />
<use xlink:href="#d2" x="1330.532000" y="442.010000" />
<path d="M1334.28200000,442.01000000 L1326.78200000,442.01000000 L1326.78200000,393.75000000 L1334.28200000,393.75000000 Z" fill="#133d91ff" />
<use xlink:href="#d2" x="1330.532000" y="393.750000" />
<use xlink:href="#d2" x="1330.532000" y="393.750000" />
<path d="M1330.53200000,390.00000000 L1330.53200000,397.50000000 L1261.44400000,397.50000000 L1261.44400000,390.00000000 Z" fill="#133d91ff" />
<use xlink:href="#d2" x="1261.444000" y="393.750000" />
<use xlink:href="#d3" x="1261.444000" y="442.010000" />
<use xlink:href="#d2" x="1330.532000" y="372.010000" />
<path d="M1334.28200000,372.01000000 L1326.78200000,372.01000000 L1326.78200000,323.75000000 L1334.28200000,323.75000000 Z" fill="#133d91ff" />
<use xlink:href="#d2" x="1330.532000" y="323.750000" />
<use xlink:href="#d2" x="1330.532000" y="323.750000" />
<path d="M1330.53200000,320.00000000 L1330.53200000,327.50000000 L1261.44400000,327.50000000 L1261.44400000,320.00000000 Z" fill="#133d91ff" />
<use xlink:href="#d2" x="1261.444000" y="323.750000" />
<use xlink:href="#d3" x="1261.444000" y="372.010000" />
<use xlink:href="#d2" x="1430.532000" y="442.010000" />
<path d="M1434.28200000,442.01000000 L1426.78200000,442.01000000 L1426.78200000,393.75000000 L1434.28200000,393.75000000 Z" fill="#133d91ff" />
<use xlink:href="#d2" x="1430.532000" y="393.750000" />
<use xlink:href="#d2" x="1430.532000" y="393.750000" />
<path d="M1430.53200000,390.00000000 L1430.53200000,397.50000000 L1361.44400000,397.50000000 L1361.44400000,390.00000000 Z" fill="#133d91ff" />
<use xlink:href="#d2" x="1361.444000" y="393.750000" />
<use xlink:href="#d3" x="1361.444000" y="442.010000" />
<use xlink:href="#d2" x="1430.532000" y="372.010000" />
<path d="M1434.28200000,372.01000000 L1426.78200000,372.01000000 L1426.78200000,323.75000000 L1434.28200000,323.75000000 Z" fill="#133d91ff" />
<use xlink:href="#d2" x="1430.532000" y="323.750000" />
<use xlink:href="#d2" x="1430.532000" y="323.750000" />
<path d="M1430.53200000,320.00000000 L1430.53200000,327.50000000 L1361.44400000,327.50000000 L1361.44400000,320.00000000 Z" fill="#133d91ff" />
<use xlink:href="#d2" x="1361.444000" y="323.750000" />
<use xlink:href="#d3" x="1361.444000" y="372.010000" />
<use xlink:href="#d2" x="1330.532000" y="282.010000" />
<path d="M1334.28200000,282.01000000 L1326.78200000,282.01000000 L1326.78200000,233.75000000 L1334.28200000,233.75000000 Z" fill="#133d91ff" />
<use xlink:href="#d2" x="1330.532000" y="233.750000" />
<use xlink:href="#d2" x="1330.532000" y="233.750000" />
<path d="M1330.53200000,230.00000000 L1330.53200000,237.50000000 L1261.44400000,237.50000000 L1261.44400000,230.00000000 Z" fill="#133d91ff" />
<use xlink:href="#d2" x="1261.444000" y="233.750000" />
<use xlink:href="#d3" x="1261.444000" y="282.010000" />
<use xlink:href="#d2" x="1330.532000" y="212.010000" />
<path d="M1334.28200000,212.01000000 L1326.78200000,212.01000000 L1326.78200000,163.75000000 L1334.28200000,163.75000000 Z" fill="#133d91ff" />
<use xlink:href="#d2" x="1330.532000" y="163.750000" />
<use xlink:href="#d2" x="1330.532000" y="163.750000" />
<path d="M1330.53200000,160.00000000 L1330.53200000,167.50000000 L1261.44400000,167.50000000 L1261.44400000,160.00000000 Z" fill="#133d91ff" />
<use xlink:href="#d2" x="1261.444000" y="163.750000" />
<use xlink:href="#d3" x="1261.444000" y="212.010000" />
<use xlink:href="#d2" x="1430.532000" y="282.010000" />
<path d="M1434.28200000,282.01000000 L1426.78200000,282.01000000 L1426.78200000,233.75000000 L1434.28200000,233.75000000 Z" fill="#133d91ff" />
<use xlink:href="#d2" x="1430.532000" y="233.750000" />
<use xlink:href="#d2" x="1430.532000" y="233.750000" />
<path d="M1430.53200000,230.00000000 L1430.53200000,237.50000000 L1361.44400000,237.50000000 L1361.44400000,230.00000000 Z" fill="#133d91ff" />
<use xlink:href="#d2" x="1361.444000" y="233.750000" />
<use xlink:href="#d3" x="1361.444000" y="282.010000" />
<use xlink:href="#d2" x="1430.532000" y="212.010000" />
<path d="M1434.28200000,212.01000000 L1426.78200000,212.01000000 L1426.78200000,163.75000000 L1434.28200000,163.75000000 Z" fill="#133d91ff" />
<use xlink:href="#d2" x="1430.532000" y="163.750000" />
<use xlink:href="#d2" x="1430.532000" y="163.750000" />
<path d="M1430.53200000,160.00000000 L1430.53200000,167.50000000 L1361.44400000,167.50000000 L1361.44400000,160.00000000 Z" fill="#133d91ff" />
<use xlink:href="#d2" x="1361.444000" y="163.750000" />
<use xlink:href="#d3" x="1361.444000" y="212.010000" />
<use xlink:href="#d2" x="1330.532000" y="122.010000" />
<path d="M1334.28200000,122.01000000 L1326.78200000,122.01000000 L1326.78200000,73.75000000 L1334.28200000,73.75000000 Z" fill="#133d91ff" />
<use xlink:href="#d2" x="1330.532000" y="73.750000" />
<use xlink:href="#d2" x="1330.532000" y="73.750000" />
<path d="M1330.53200000,70.00000000 L1330.53200000,77.50000000 L1261.44400000,77.50000000 L1261.44400000,70.00000000 Z" fill="#133d91ff" />
<use xlink:href="#d2" x="1261.444000" y="73.750000" />
<use xlink:href="#d3" x="1261.444000" y="122.010000" />
<use xlink:href="#d2" x="1330.532000" y="52.010000" />
<path d="M1334.28200000,52.01000000 L1326.78200000,52.01000000 L1326.78200000,3.75000000 L1334.28200000,3.75000000 Z" fill="#133d91ff" />
<use xlink:href="#d2" x="1330.532000" y="3.750000" />
<use xlink:href="#d2" x="1330.532000" y="3.750000" />
<path d="M1330.53200000,0.00000000 L1330.53200000,7.50000000 L1261.44400000,7.50000000 L1261.44400000,0.00000000 Z" fill="#133d91ff" />
<use xlink:href="#d2" x="1261.444000" y="3.750000" />
<use xlink:href="#d3" x="1261.444000" y="52.010000" />
<use xlink:href="#d2" x="1430.532000" y="122.010000" />
<path d="M1434.28200000,122.01000000 L1426.78200000,122.01000000 L1426.78200000,73.75000000 L1434.28200000,73.75000000 Z" fill="#133d91ff" />
<use xlink:href="#d2" x="1430.532000" y="73.750000" />
<use xlink:href="#d2" x="1430.532000" y="73.750000" />
<path d="M1430.53200000,70.00000000 L1430.53200000,77.50000000 L1361.44400000,77.50000000 L1361.44400000,70.00000000 Z" fill="#133d91ff" />
<use xlink:href="#d2" x="1361.444000" y="73.750000" />
<use xlink:href="#d3" x="1361.444000" y="122.010000" />
<use xlink:href="#d2" x="1430.532000" y="52.010000" />
<path d="M1434.28200000,52.01000000 L1426.78200000,52.01000000 L1426.78200000,3.75000000 L1434.28200000,3.75000000 Z" fill="#133d91ff" />
<use xlink:href="#d2" x="1430.532000" y="3.750000" />
<use xlink:href="#d2" x="1430.532000" y="3.750000" />
<path d="M1430.53200000,0.00000000 L1430.53200000,7.50000000 L1361.44400000,7.50000000 L1361.44400000,0.00000000 Z" fill="#133d91ff" />
<use xlink:href="#d2" x="1361.444000" y="3.750000" />
<use xlink:href="#d3" x="1361.444000" y="52.010000" />
<use xlink:href="#d4" x="1054.500000" y="469.615375" />
</g>
</svg>