<?xml version="1.0" encoding="UTF-8"?>
<svg xmlns="http://www.w3.org/2000/svg" xmlns:xlink="http://www.w3.org/1999/xlink"
     width="1434.282000" height="1019.615375" viewBox="0 0 1434.282000 1019.615375">
<defs>
<mask id="d0">
<rect x="-717.141000" y="-509.8076875" width="2868.564000" height="2039.230750" fill="white" />
</mask>
<g id="d1">
<rect x="-5.0" y="-10.0" width="10.0" height="20.0" fill="#133d91ff" transform="rotate(0.0)" />
</g>
<g id="d2">
<circle cx="0" cy="0" r="3.75000" fill="#133d91ff" />
</g>
<g id="d3">
<circle cx="0" cy="0" r="7.5" fill="#133d91ff" />
</g>
<g id="d4">
<rect x="-10.0" y="-5.0" width="20.0" height="10.0" fill="#133d91ff" transform="rotate(0.0)" />
</g>
</defs>
<g mask="url(#d0)">
<g></g>
<use xlink:href="#d1" x="5.000000" y="969.615375" />
<use xlink:href="#d1" x="178.000000" y="1009.615375" />
<use xlink:href="#d2" x="100.532000" y="962.010000" />
<path d="M104.282000,962.010000 L96.782000,962.010000 L96.782000,913.750000 L104.282000,913.750000 Z" fill="#133d91ff" />
<use xlink:href="#d2" x="100.532000" y="913.750000" />
<use xlink:href="#d2" x="100.532000" y="913.750000" />
<path d="M100.532000,910.000000 L100.532000,917.500000 L31.444000,917.500000 L31.444000,910.000000 Z" fill="#133d91ff" />
<use xlink:href="#d2" x="31.444000" y="913.750000" />
<use xlink:href="#d3" x="31.444000" y="962.010000" />
<use xlink:href="#d2" x="100.532000" y="892.010000" />
<path d="M104.282000,892.010000 L96.782000,892.010000 L96.782000,843.750000 L104.282000,843.750000 Z" fill="#133d91ff" />
<use xlink:href="#d2" x="100.532000" y="843.750000" />
<use xlink:href="#d2" x="100.532000" y="843.750000" />
<path d="M100.532000,840.000000 L100.532000,847.500000 L31.444000,847.500000 L31.444000,840.000000 Z" fill="#133d91ff" />
<use xlink:href="#d2" x="31.444000" y="843.750000" />
<use xlink:href="#d3" x="31.444000" y="892.010000" />
<use xlink:href="#d2" x="200.532000" y="962.010000" />
<path d="M204.282000,962.010000 L196.782000,962.010000 L196.782000,913.750000 L204.282000,913.750000 Z" fill="#133d91ff" />
<use xlink:href="#d2" x="200.532000" y="913.750000" />
<use xlink:href="#d2" x="200.532000" y="913.750000" />
<path d="M200.532000,910.000000 L200.532000,917.500000 L131.444000,917.500000 L131.444000,910.000000 Z" fill="#133d91ff" />
<use xlink:href="#d2" x="131.444000" y="913.750000" />
<use xlink:href="#d3" x="131.444000" y="962.010000" />
<use xlink:href="#d2" x="200.532000" y="892.010000" />
<path d="M204.282000,892.010000 L196.782000,892.010000 L196.782000,843.750000 L204.282000,843.750000 Z" fill="#133d91ff" />
<use xlink:href="#d2" x="200.532000" y="843.750000" />
<use xlink:href="#d2" x="200.532000" y="843.750000" />
<path d="M200.532000,840.000000 L200.532000,847.500000 L131.444000,847.500000 L131.444000,840.000000 Z" fill="#133d91ff" />
<use xlink:href="#d2" x="131.444000" y="843.750000" />
<use xlink:href="#d3" x="131.444000" y="892.010000" />
<use xlink:href="#d2" x="100.532000" y="802.010000" />
<path d="M104.282000,802.010000 L96.782000,802.010000 L96.782000,753.750000 L104.282000,753.750000 Z" fill="#133d91ff" />
<use xlink:href="#d2" x="100.532000" y="753.750000" />
<use xlink:href="#d2" x="100.532000" y="753.750000" />
<path d="M100.532000,750.000000 L100.532000,757.500000 L31.444000,757.500000 L31.444000,750.000000 Z" fill="#133d91ff" />
<use xlink:href="#d2" x="31.444000" y="753.750000" />
<use xlink:href="#d3" x="31.444000" y="802.010000" />
<use xlink:href="#d2" x="100.532000" y="732.010000" />
<path d="M104.282000,732.010000 L96.782000,732.010000 L96.782000,683.750000 L104.282000,683.750000 Z" fill="#133d91ff" />
<use xlink:href="#d2" x="100.532000" y="683.750000" />
<use xlink:href="#d2" x="100.532000" y="683.750000" />
<path d="M100.532000,680.000000 L100.532000,687.500000 L31.444000,687.500000 L31.444000,680.000000 Z" fill="#133d91ff" />
<use xlink:href="#d2" x="31.444000" y="683.750000" />
<use xlink:href="#d3" x="31.444000" y="732.010000" />
<use xlink:href="#d2" x="200.532000" y="802.010000" />
<path d="M204.282000,802.010000 L196.782000,802.010000 L196.782000,753.750000 L204.282000,753.750000 Z" fill="#133d91ff" />
<use xlink:href="#d2" x="200.532000" y="753.750000" />
<use xlink:href="#d2" x="200.532000" y="753.750000" />
<path d="M200.532000,750.000000 L200.532000,757.500000 L131.444000,757.500000 L131.444000,750.000000 Z" fill="#133d91ff" />
<use xlink:href="#d2" x="131.444000" y="753.750000" />
<use xlink:href="#d3" x="131.444000" y="802.010000" />
<use xlink:href="#d2" x="200.532000" y="732.010000" />
<path d="M204.282000,732.010000 L196.782000,732.010000 L196.782000,683.750000 L204.282000,683.750000 Z" fill="#133d91ff" />
<use xlink:href="#d2" x="200.532000" y="683.750000" />
<use xlink:href="#d2" x="200.532000" y="683.750000" />
<path d="M200.532000,680.000000 L200.532000,687.500000 L131.444000,687.500000 L131.444000,680.000000 Z" fill="#133d91ff" />
<use xlink:href="#d2" x="131.444000" y="683.750000" />
<use xlink:href="#d3" x="131.444000" y="732.010000" />
<use xlink:href="#d2" x="100.532000" y="642.010000" />
<path d="M104.282000,642.010000 L96.782000,642.010000 L96.782000,593.750000 L104.282000,593.750000 Z" fill="#133d91ff" />
<use xlink:href="#d2" x="100.532000" y="593.750000" />
<use xlink:href="#d2" x="100.532000" y="593.750000" />
<path d="M100.532000,590.000000 L100.532000,597.500000 L31.444000,597.500000 L31.444000,590.000000 Z" fill="#133d91ff" />
<use xlink:href="#d2" x="31.444000" y="593.750000" />
<use xlink:href="#d3" x="31.444000" y="642.010000" />
<use xlink:href="#d2" x="100.532000" y="572.010000" />
<path d="M104.282000,572.010000 L96.782000,572.010000 L96.782000,523.750000 L104.282000,523.750000 Z" fill="#133d91ff" />
<use xlink:href="#d2" x="100.532000" y="523.750000" />
<use xlink:href="#d2" x="100.532000" y="523.750000" />
<path d="M100.532000,520.000000 L100.532000,527.500000 L31.444000,527.500000 L31.444000,520.000000 Z" fill="#133d91ff" />
<use xlink:href="#d2" x="31.444000" y="523.750000" />
<use xlink:href="#d3" x="31.444000" y="572.010000" />
<use xlink:href="#d2" x="200.532000" y="642.010000" />
<path d="M204.282000,642.010000 L196.782000,642.010000 L196.782000,593.750000 L204.282000,593.750000 Z" fill="#133d91ff" />
<use xlink:href="#d2" x="200.532000" y="593.750000" />
<use xlink:href="#d2" x="200.532000" y="593.750000" />
<path d="M200.532000,590.000000 L200.532000,597.500000 L131.444000,597.500000 L131.444000,590.000000 Z" fill="#133d91ff" />
<use xlink:href="#d2" x="131.444000" y="593.750000" />
<use xlink:href="#d3" x="131.444000" y="642.010000" />
<use xlink:href="#d2" x="200.532000" y="572.010000" />
<path d="M204.282000,572.010000 L196.782000,572.010000 L196.782000,523.750000 L204.282000,523.750000 Z" fill="#133d91ff" />
<use xlink:href="#d2" x="200.532000" y="523.750000" />
<use xlink:href="#d2" x="200.532000" y="523.750000" />
<path d="M200.532000,520.000000 L200.532000,527.500000 L131.444000,527.500000 L131.444000,520.000000 Z" fill="#133d91ff" />
<use xlink:href="#d2" x="131.444000" y="523.750000" />
<use xlink:href="#d3" x="131.444000" y="572.010000" />
<use xlink:href="#d2" x="330.532000" y="962.010000" />
<path d="M334.282000,962.010000 L326.782000,962.010000 L326.782000,913.750000 L334.282000,913.750000 Z" fill="#133d91ff" />
<use xlink:href="#d2" x="330.532000" y="913.750000" />
<use xlink:href="#d2" x="330.532000" y="913.750000" />
<path d="M330.532000,910.000000 L330.532000,917.500000 L261.444000,917.500000 L261.444000,910.000000 Z" fill="#133d91ff" />
<use xlink:href="#d2" x="261.444000" y="913.750000" />
<use xlink:href="#d3" x="261.444000" y="962.010000" />
<use xlink:href="#d2" x="330.532000" y="892.010000" />
<path d="M334.282000,892.010000 L326.782000,892.010000 L326.782000,843.750000 L334.282000,843.750000 Z" fill="#133d91ff" />
<use xlink:href="#d2" x="330.532000" y="843.750000" />
<use xlink:href="#d2" x="330.532000" y="843.750000" />
<path d="M330.532000,840.000000 L330.532000,847.500000 L261.444000,847.500000 L261.444000,840.000000 Z" fill="#133d91ff" />
<use xlink:href="#d2" x="261.444000" y="843.750000" />
<use xlink:href="#d3" x="261.444000" y="892.010000" />
<use xlink:href="#d2" x="430.532000" y="962.010000" />
<path d="M434.282000,962.010000 L426.782000,962.010000 L426.782000,913.750000 L434.282000,913.750000 Z" fill="#133d91ff" />
<use xlink:href="#d2" x="430.532000" y="913.750000" />
<use xlink:href="#d2" x="430.532000" y="913.750000" />
<path d="M430.532000,910.000000 L430.532000,917.500000 L361.444000,917.500000 L361.444000,910.000000 Z" fill="#133d91ff" />
<use xlink:href="#d2" x="361.444000" y="913.750000" />
<use xlink:href="#d3" x="361.444000" y="962.010000" />
<use xlink:href="#d2" x="430.532000" y="892.010000" />
<path d="M434.282000,892.010000 L426.782000,892.010000 L426.782000,843.750000 L434.282000,843.750000 Z" fill="#133d91ff" />
<use xlink:href="#d2" x="430.532000" y="843.750000" />
<use xlink:href="#d2" x="430.532000" y="843.750000" />
<path d="M430.532000,840.000000 L430.532000,847.500000 L361.444000,847.500000 L361.444000,840.000000 Z" fill="#133d91ff" />
<use xlink:href="#d2" x="361.444000" y="843.750000" />
<use xlink:href="#d3" x="361.444000" y="892.010000" />
<use xlink:href="#d2" x="330.532000" y="802.010000" />
<path d="M334.282000,802.010000 L326.782000,802.010000 L326.782000,753.750000 L334.282000,753.750000 Z" fill="#133d91ff" />
<use xlink:href="#d2" x="330.532000" y="753.750000" />
<use xlink:href="#d2" x="330.532000" y="753.750000" />
<path d="M330.532000,750.000000 L330.532000,757.500000 L261.444000,757.500000 L261.444000,750.000000 Z" fill="#133d91ff" />
<use xlink:href="#d2" x="261.444000" y="753.750000" />
<use xlink:href="#d3" x="261.444000" y="802.010000" />
<use xlink:href="#d2" x="330.532000" y="732.010000" />
<path d="M334.282000,732.010000 L326.782000,732.010000 L326.782000,683.750000 L334.282000,683.750000 Z" fill="#133d91ff" />
<use xlink:href="#d2" x="330.532000" y="683.750000" />
<use xlink:href="#d2" x="330.532000" y="683.750000" />
<path d="M330.532000,680.000000 L330.532000,687.500000 L261.444000,687.500000 L261.444000,680.000000 Z" fill="#133d91ff" />
<use xlink:href="#d2" x="261.444000" y="683.750000" />
<use xlink:href="#d3" x="261.444000" y="732.010000" />
<use xlink:href="#d2" x="430.532000" y="802.010000" />
<path d="M434.282000,802.010000 L426.782000,802.010000 L426.782000,753.750000 L434.282000,753.750000 Z" fill="#133d91ff" />
<use xlink:href="#d2" x="430.532000" y="753.750000" />
<use xlink:href="#d2" x="430.532000" y="753.750000" />
<path d="M430.532000,750.000000 L430.532000,757.500000 L361.444000,757.500000 L361.444000,750.000000 Z" fill="#133d91ff" />
<use xlink:href="#d2" x="361.444000" y="753.750000" />
<use xlink:href="#d3" x="361.444000" y="802.010000" />
<use xlink:href="#d2" x="430.532000" y="732.010000" />
<path d="M434.282000,732.010000 L426.782000,732.010000 L426.782000,683.750000 L434.282000,683.750000 Z" fill="#133d91ff" />
<use xlink:href="#d2" x="430.532000" y="683.750000" />
<use xlink:href="#d2" x="430.532000" y="683.750000" />
<path d="M430.532000,680.000000 L430.532000,687.500000 L361.444000,687.500000 L361.444000,680.000000 Z" fill="#133d91ff" />
<use xlink:href="#d2" x="361.444000" y="683.750000" />
<use xlink:href="#d3" x="361.444000" y="732.010000" />
<use xlink:href="#d2" x="330.532000" y="642.010000" />
<path d="M334.282000,642.010000 L326.782000,642.010000 L326.782000,593.750000 L334.282000,593.750000 Z" fill="#133d91ff" />
<use xlink:href="#d2" x="330.532000" y="593.750000" />
<use xlink:href="#d2" x="330.532000" y="593.750000" />
<path d="M330.532000,590.000000 L330.532000,597.500000 L261.444000,597.500000 L261.444000,590.000000 Z" fill="#133d91ff" />
<use xlink:href="#d2" x="261.444000" y="593.750000" />
<use xlink:href="#d3" x="261.444000" y="642.010000" />
<use xlink:href="#d2" x="330.532000" y="572.010000" />
<path d="M334.282000,572.010000 L326.782000,572.010000 L326.782000,523.750000 L334.282000,523.750000 Z" fill="#133d91ff" />
<use xlink:href="#d2" x="330.532000" y="523.750000" />
<use xlink:href="#d2" x="330.532000" y="523.750000" />
<path d="M330.532000,520.000000 L330.532000,527.500000 L261.444000,527.500000 L261.444000,520.000000 Z" fill="#133d91ff" />
<use xlink:href="#d2" x="261.444000" y="523.750000" />
<use xlink:href="#d3" x="261.444000" y="572.010000" />
<use xlink:href="#d2" x="430.532000" y="642.010000" />
<path d="M434.282000,642.010000 L426.782000,642.010000 L426.782000,593.750000 L434.282000,593.750000 Z" fill="#133d91ff" />
<use xlink:href="#d2" x="430.532000" y="593.750000" />
<use xlink:href="#d2" x="430.532000" y="593.750000" />
<path d="M430.532000,590.000000 L430.532000,597.500000 L361.444000,597.500000 L361.444000,590.000000 Z" fill="#133d91ff" />
<use xlink:href="#d2" x="361.444000" y="593.750000" />
<use xlink:href="#d3" x="361.444000" y="642.010000" />
<use xlink:href="#d2" x="430.532000" y="572.010000" />
<path d="M434.282000,572.010000 L426.782000,572.010000 L426.782000,523.750000 L434.282000,523.750000 Z" fill="#133d91ff" />
<use xlink:href="#d2" x="430.532000" y="523.750000" />
<use xlink:href="#d2" x="430.532000" y="523.750000" />
<path d="M430.532000,520.000000 L430.532000,527.500000 L361.444000,527.500000 L361.444000,520.000000 Z" fill="#133d91ff" />
<use xlink:href="#d2" x="361.444000" y="523.750000" />
<use xlink:href="#d3" x="361.444000" y="572.010000" />
<use xlink:href="#d4" x="54.500000" y="989.615375" />
<use xlink:href="#d2" x="100.532000" y="442.010000" />
<path d="M104.282000,442.010000 L96.782000,442.010000 L96.782000,393.750000 L104.282000,393.750000 Z" fill="#133d91ff" />
<use xlink:href="#d2" x="100.532000" y="393.750000" />
<use xlink:href="#d2" x="100.532000" y="393.750000" />
<path d="M100.532000,390.000000 L100.532000,397.500000 L31.444000,397.500000 L31.444000,390.000000 Z" fill="#133d91ff" />
<use xlink:href="#d2" x="31.444000" y="393.750000" />
<use xlink:href="#d3" x="31.444000" y="442.010000" />
<use xlink:href="#d2" x="100.532000" y="372.010000" />
<path d="M104.282000,372.010000 L96.782000,372.010000 L96.782000,323.750000 L104.282000,323.750000 Z" fill="#133d91ff" />
<use xlink:href="#d2" x="100.532000" y="323.750000" />
<use xlink:href="#d2" x="100.532000" y="323.750000" />
<path d="M100.532000,320.000000 L100.532000,327.500000 L31.444000,327.500000 L31.444000,320.000000 Z" fill="#133d91ff" />
<use xlink:href="#d2" x="31.444000" y="323.750000" />
<use xlink:href="#d3" x="31.444000" y="372.010000" />
<use xlink:href="#d2" x="200.532000" y="442.010000" />
<path d="M204.282000,442.010000 L196.782000,442.010000 L196.782000,393.750000 L204.282000,393.750000 Z" fill="#133d91ff" />
<use xlink:href="#d2" x="200.532000" y="393.750000" />
<use xlink:href="#d2" x="200.532000" y="393.750000" />
<path d="M200.532000,390.000000 L200.532000,397.500000 L131.444000,397.500000 L131.444000,390.000000 Z" fill="#133d91ff" />
<use xlink:href="#d2" x="131.444000" y="393.750000" />
<use xlink:href="#d3" x="131.444000" y="442.010000" />
<use xlink:href="#d2" x="200.532000" y="372.010000" />
<path d="M204.282000,372.010000 L196.782000,372.010000 L196.782000,323.750000 L204.282000,323.750000 Z" fill="#133d91ff" />
<use xlink:href="#d2" x="200.532000" y="323.750000" />
<use xlink:href="#d2" x="200.532000" y="323.750000" />
<path d="M200.532000,320.000000 L200.532000,327.500000 L131.444000,327.500000 L131.444000,320.000000 Z" fill="#133d91ff" />
<use xlink:href="#d2" x="131.444000" y="323.750000" />
<use xlink:href="#d3" x="131.444000" y="372.010000" />
<use xlink:href="#d2" x="100.532000" y="282.010000" />
<path d="M104.282000,282.010000 L96.782000,282.010000 L96.782000,233.750000 L104.282000,233.750000 Z" fill="#133d91ff" />
<use xlink:href="#d2" x="100.532000" y="233.750000" />
<use xlink:href="#d2" x="100.532000" y="233.750000" />
<path d="M100.532000,230.000000 L100.532000,237.500000 L31.444000,237.500000 L31.444000,230.000000 Z" fill="#133d91ff" />
<use xlink:href="#d2" x="31.444000" y="233.750000" />
<use xlink:href="#d3" x="31.444000" y="282.010000" />
<use xlink:href="#d2" x="100.532000" y="212.010000" />
<path d="M104.282000,212.010000 L96.782000,212.010000 L96.782000,163.750000 L104.282000,163.750000 Z" fill="#133d91ff" />
<use xlink:href="#d2" x="100.532000" y="163.750000" />
<use xlink:href="#d2" x="100.532000" y="163.750000" />
<path d="M100.532000,160.000000 L100.532000,167.500000 L31.444000,167.500000 L31.444000,160.000000 Z" fill="#133d91ff" />
<use xlink:href="#d2" x="31.444000" y="163.750000" />
<use xlink:href="#d3" x="31.444000" y="212.010000" />
<use xlink:href="#d2" x="200.532000" y="282.010000" />
<path d="M204.282000,282.010000 L196.782000,282.010000 L196.782000,233.750000 L204.282000,233.750000 Z" fill="#133d91ff" />
<use xlink:href="#d2" x="200.532000" y="233.750000" />
<use xlink:href="#d2" x="200.532000" y="233.750000" />
<path d="M200.532000,230.000000 L200.532000,237.500000 L131.444000,237.500000 L131.444000,230.000000 Z" fill="#133d91ff" />
<use xlink:href="#d2" x="131.444000" y="233.750000" />
<use xlink:href="#d3" x="131.444000" y="282.010000" />
<use xlink:href="#d2" x="200.532000" y="212.010000" />
<path d="M204.282000,212.010000 L196.782000,212.010000 L196.782000,163.750000 L204.282000,163.750000 Z" fill="#133d91ff" />
<use xlink:href="#d2" x="200.532000" y="163.750000" />
<use xlink:href="#d2" x="200.532000" y="163.750000" />
<path d="M200.532000,160.000000 L200.532000,167.500000 L131.444000,167.500000 L131.444000,160.000000 Z" fill="#133d91ff" />
<use xlink:href="#d2" x="131.444000" y="163.750000" />
<use xlink:href="#d3" x="131.444000" y="212.010000" />
<use xlink:href="#d2" x="100.532000" y="122.010000" />
<path d="M104.282000,122.010000 L96.782000,122.010000 L96.782000,73.750000 L104.282000,73.750000 Z" fill="#133d91ff" />
<use xlink:href="#d2" x="100.532000" y="73.750000" />
<use xlink:href="#d2" x="100.532000" y="73.750000" />
<path d="M100.532000,70.000000 L100.532000,77.500000 L31.444000,77.500000 L31.444000,70.000000 Z" fill="#133d91ff" />
<use xlink:href="#d2" x="31.444000" y="73.750000" />
<use xlink:href="#d3" x="31.444000" y="122.010000" />
<use xlink:href="#d2" x="100.532000" y="52.010000" />
<path d="M104.282000,52.010000 L96.782000,52.010000 L96.782000,3.750000 L104.282000,3.750000 Z" fill="#133d91ff" />
<use xlink:href="#d2" x="100.532000" y="3.750000" />
<use xlink:href="#d2" x="100.532000" y="3.750000" />
<path d="M100.532000,0.000000 L100.532000,7.500000 L31.444000,7.500000 L31.444000,0.000000 Z" fill="#133d91ff" />
<use xlink:href="#d2" x="31.444000" y="3.750000" />
<use xlink:href="#d3" x="31.444000" y="52.010000" />
<use xlink:href="#d2" x="200.532000" y="122.010000" />
<path d="M204.282000,122.010000 L196.782000,122.010000 L196.782000,73.750000 L204.282000,73.750000 Z" fill="#133d91ff" />
<use xlink:href="#d2" x="200.532000" y="73.750000" />
<use xlink:href="#d2" x="200.532000" y="73.750000" />
<path d="M200.532000,70.000000 L200.532000,77.500000 L131.444000,77.500000 L131.444000,70.000000 Z" fill="#133d91ff" />
<use xlink:href="#d2" x="131.444000" y="73.750000" />
<use xlink:href="#d3" x="131.444000" y="122.010000" />
<use xlink:href="#d2" x="200.532000" y="52.010000" />
<path d="M204.282000,52.010000 L196.782000,52.010000 L196.782000,3.750000 L204.282000,3.750000 Z" fill="#133d91ff" />
<use xlink:href="#d2" x="200.532000" y="3.750000" />
<use xlink:href="#d2" x="200.532000" y="3.750000" />
<path d="M200.532000,0.000000 L200.532000,7.500000 L131.444000,7.500000 L131.444000,0.000000 Z" fill="#133d91ff" />
<use xlink:href="#d2" x="131.444000" y="3.750000" />
<use xlink:href="#d3" x="131.444000" y="52.010000" />
<use xlink:href="#d2" x="330.532000" y="442.010000" />
<path d="M334.282000,442.010000 L326.782000,442.010000 L326.782000,393.750000 L334.282000,393.750000 Z" fill="#133d91ff" />
<use xlink:href="#d2" x="330.532000" y="393.750000" />
<use xlink:href="#d2" x="330.532000" y="393.750000" />
<path d="M330.532000,390.000000 L330.532000,397.500000 L261.444000,397.500000 L261.444000,390.000000 Z" fill="#133d91ff" />
<use xlink:href="#d2" x="261.444000" y="393.750000" />
<use xlink:href="#d3" x="261.444000" y="442.010000" />
<use xlink:href="#d2" x="330.532000" y="372.010000" />
<path d="M334.282000,372.010000 L326.782000,372.010000 L326.782000,323.750000 L334.282000,323.750000 Z" fill="#133d91ff" />
<use xlink:href="#d2" x="330.532000" y="323.750000" />
<use xlink:href="#d2" x="330.532000" y="323.750000" />
<path d="M330.532000,320.000000 L330.532000,327.500000 L261.444000,327.500000 L261.444000,320.000000 Z" fill="#133d91ff" />
<use xlink:href="#d2" x="261.444000" y="323.750000" />
<use xlink:href="#d3" x="261.444000" y="372.010000" />
<use xlink:href="#d2" x="430.532000" y="442.010000" />
<path d="M434.282000,442.010000 L426.782000,442.010000 L426.782000,393.750000 L434.282000,393.750000 Z" fill="#133d91ff" />
<use xlink:href="#d2" x="430.532000" y="393.750000" />
<use xlink:href="#d2" x="430.532000" y="393.750000" />
<path d="M430.532000,390.000000 L430.532000,397.500000 L361.444000,397.500000 L361.444000,390.000000 Z" fill="#133d91ff" />
<use xlink:href="#d2" x="361.444000" y="393.750000" />
<use xlink:href="#d3" x="361.444000" y="442.010000" />
<use xlink:href="#d2" x="430.532000" y="372.010000" />
<path d="M434.282000,372.010000 L426.782000,372.010000 L426.782000,323.750000 L434.282000,323.750000 Z" fill="#133d91ff" />
<use xlink:href="#d2" x="430.532000" y="323.750000" />
<use xlink:href="#d2" x="430.532000" y="323.750000" />
<path d="M430.532000,320.000000 L430.532000,327.500000 L361.444000,327.500000 L361.444000,320.000000 Z" fill="#133d91ff" />
<use xlink:href="#d2" x="361.444000" y="323.750000" />
<use xlink:href="#d3" x="361.444000" y="372.010000" />
<use xlink:href="#d2" x="330.532000" y="282.010000" />
<path d="M334.282000,282.010000 L326.782000,282.010000 L326.782000,233.750000 L334.282000,233.750000 Z" fill="#133d91ff" />
<use xlink:href="#d2" x="330.532000" y="233.750000" />
<use xlink:href="#d2" x="330.532000" y="233.750000" />
<path d="M330.532000,230.000000 L330.532000,237.500000 L261.444000,237.500000 L261.444000,230.000000 Z" fill="#133d91ff" />
<use xlink:href="#d2" x="261.444000" y="233.750000" />
<use xlink:href="#d3" x="261.444000" y="282.010000" />
<use xlink:href="#d2" x="330.532000" y="212.010000" />
<path d="M334.282000,212.010000 L326.782000,212.010000 L326.782000,163.750000 L334.282000,163.750000 Z" fill="#133d91ff" />
<use xlink:href="#d2" x="330.532000" y="163.750000" />
<use xlink:href="#d2" x="330.532000" y="163.750000" />
<path d="M330.532000,160.000000 L330.532000,167.500000 L261.444000,167.500000 L261.444000,160.000000 Z" fill="#133d91ff" />
<use xlink:href="#d2" x="261.444000" y="163.750000" />
<use xlink:href="#d3" x="261.444000" y="212.010000" />
<use xlink:href="#d2" x="430.532000" y="282.010000" />
<path d="M434.282000,282.010000 L426.782000,282.010000 L426.782000,233.750000 L434.282000,233.750000 Z" fill="#133d91ff" />
<use xlink:href="#d2" x="430.532000" y="233.750000" />
<use xlink:href="#d2" x="430.532000" y="233.750000" />
<path d="M430.532000,230.000000 L430.532000,237.500000 L361.444000,237.500000 L361.444000,230.000000 Z" fill="#133d91ff" />
<use xlink:href="#d2" x="361.444000" y="233.750000" />
<use xlink:href="#d3" x="361.444000" y="282.010000" />
<use xlink:href="#d2" x="430.532000" y="212.010000" />
<path d="M434.282000,212.010000 L426.782000,212.010000 L426.782000,163.750000 L434.282000,163.750000 Z" fill="#133d91ff" />
<use xlink:href="#d2" x="430.532000" y="163.750000" />
<use xlink:href="#d2" x="430.532000" y="163.750000" />
<path d="M430.532000,160.000000 L430.532000,167.500000 L361.444000,167.500000 L361.444000,160.000000 Z" fill="#133d91ff" />
<use xlink:href="#d2" x="361.444000" y="163.750000" />
<use xlink:href="#d3" x="361.444000" y="212.010000" />
<use xlink:href="#d2" x="330.532000" y="122.010000" />
<path d="M334.282000,122.010000 L326.782000,122.010000 L326.782000,73.750000 L334.282000,73.750000 Z" fill="#133d91ff" />
<use xlink:href="#d2" x="330.532000" y="73.750000" />
<use xlink:href="#d2" x="330.532000" y="73.750000" />
<path d="M330.532000,70.000000 L330.532000,77.500000 L261.444000,77.500000 L261.444000,70.000000 Z" fill="#133d91ff" />
<use xlink:href="#d2" x="261.444000" y="73.750000" />
<use xlink:href="#d3" x="261.444000" y="122.010000" />
<use xlink:href="#d2" x="330.532000" y="52.010000" />
<path d="M334.282000,52.010000 L326.782000,52.010000 L326.782000,3.750000 L334.282000,3.750000 Z" fill="#133d91ff" />
<use xlink:href="#d2" x="330.532000" y="3.750000" />
<use xlink:href="#d2" x="330.532000" y="3.750000" />
<path d="M330.532000,0.000000 L330.532000,7.500000 L261.444000,7.500000 L261.444000,0.000000 Z" fill="#133d91ff" />
<use xlink:href="#d2" x="261.444000" y="3.750000" />
<use xlink:href="#d3" x="261.444000" y="52.010000" />
<use xlink:href="#d2" x="430.532000" y="122.010000" />
<path d="M434.282000,122.010000 L426.782000,122.010000 L426.782000,73.750000 L434.282000,73.750000 Z" fill="#133d91ff" />
<use xlink:href="#d2" x="430.532000" y="73.750000" />
<use xlink:href="#d2" x="430.532000" y="73.750000" />
<path d="M430.532000,70.000000 L430.532000,77.500000 L361.444000,77.500000 L361.444000,70.000000 Z" fill="#133d91ff" />
<use xlink:href="#d2" x="361.444000" y="73.750000" />
<use xlink:href="#d3" x="361.444000" y="122.010000" />
<use xlink:href="#d2" x="430.532000" y="52.010000" />
<path d="M434.282000,52.010000 L426.782000,52.010000 L426.782000,3.750000 L434.282000,3.750000 Z" fill="#133d91ff" />
<use xlink:href="#d2" x="430.532000" y="3.750000" />
<use xlink:href="#d2" x="430.532000" y="3.750000" />
<path d="M430.532000,0.000000 L430.532000,7.500000 L361.444000,7.500000 L361.444000,0.000000 Z" fill="#133d91ff" />
<use xlink:href="#d2" x="361.444000" y="3.750000" />
<use xlink:href="#d3" x="361.444000" y="52.010000" />
<use xlink:href="#d4" x="54.500000" y="469.615375" />
<use xlink:href="#d2" x="600.532000" y="962.010000" />
<path d="M604.282000,962.010000 L596.782000,962.010000 L596.782000,913.750000 L604.282000,913.750000 Z" fill="#133d91ff" />
<use xlink:href="#d2" x="600.532000" y="913.750000" />
<use xlink:href="#d2" x="600.532000" y="913.750000" />
<path d="M600.532000,910.000000 L600.532000,917.500000 L531.444000,917.500000 L531.444000,910.000000 Z" fill="#133d91ff" />
<use xlink:href="#d2" x="531.444000" y="913.750000" />
<use xlink:href="#d3" x="531.444000" y="962.010000" />
<use xlink:href="#d2" x="600.532000" y="892.010000" />
<path d="M604.282000,892.010000 L596.782000,892.010000 L596.782000,843.750000 L604.282000,843.750000 Z" fill="#133d91ff" />
<use xlink:href="#d2" x="600.532000" y="843.750000" />
<use xlink:href="#d2" x="600.532000" y="843.750000" />
<path d="M600.532000,840.000000 L600.532000,847.500000 L531.444000,847.500000 L531.444000,840.000000 Z" fill="#133d91ff" />
<use xlink:href="#d2" x="531.444000" y="843.750000" />
<use xlink:href="#d3" x="531.444000" y="892.010000" />
<use xlink:href="#d2" x="700.532000" y="962.010000" />
<path d="M704.282000,962.010000 L696.782000,962.010000 L696.782000,913.750000 L704.282000,913.750000 Z" fill="#133d91ff" />
<use xlink:href="#d2" x="700.532000" y="913.750000" />
<use xlink:href="#d2" x="700.532000" y="913.750000" />
<path d="M700.532000,910.000000 L700.532000,917.500000 L631.444000,917.500000 L631.444000,910.000000 Z" fill="#133d91ff" />
<use xlink:href="#d2" x="631.444000" y="913.750000" />
<use xlink:href="#d3" x="631.444000" y="962.010000" />
<use xlink:href="#d2" x="700.532000" y="892.010000" />
<path d="M704.282000,892.010000 L696.782000,892.010000 L696.782000,843.750000 L704.282000,843.750000 Z" fill="#133d91ff" />
<use xlink:href="#d2" x="700.532000" y="843.750000" />
<use xlink:href="#d2" x="700.532000" y="843.750000" />
<path d="M700.532000,840.000000 L700.532000,847.500000 L631.444000,847.500000 L631.444000,840.000000 Z" fill="#133d91ff" />
<use xlink:href="#d2" x="631.444000" y="843.750000" />
<use xlink:href="#d3" x="631.444000" y="892.010000" />
<use xlink:href="#d2" x="600.532000" y="802.010000" />
<path d="M604.282000,802.010000 L596.782000,802.010000 L596.782000,753.750000 L604.282000,753.750000 Z" fill="#133d91ff" />
<use xlink:href="#d2" x="600.532000" y="753.750000" />
<use xlink:href="#d2" x="600.532000" y="753.750000" />
<path d="M600.532000,750.000000 L600.532000,757.500000 L531.444000,757.500000 L531.444000,750.000000 Z" fill="#133d91ff" />
<use xlink:href="#d2" x="531.444000" y="753.750000" />
<use xlink:href="#d3" x="531.444000" y="802.010000" />
<use xlink:href="#d2" x="600.532000" y="732.010000" />
<path d="M604.282000,732.010000 L596.782000,732.010000 L596.782000,683.750000 L604.282000,683.750000 Z" fill="#133d91ff" />
<use xlink:href="#d2" x="600.532000" y="683.750000" />
<use xlink:href="#d2" x="600.532000" y="683.750000" />
<path d="M600.532000,680.000000 L600.532000,687.500000 L531.444000,687.500000 L531.444000,680.000000 Z" fill="#133d91ff" />
<use xlink:href="#d2" x="531.444000" y="683.750000" />
<use xlink:href="#d3" x="531.444000" y="732.010000" />
<use xlink:href="#d2" x="700.532000" y="802.010000" />
<path d="M704.282000,802.010000 L696.782000,802.010000 L696.782000,753.750000 L704.282000,753.750000 Z" fill="#133d91ff" />
<use xlink:href="#d2" x="700.532000" y="753.750000" />
<use xlink:href="#d2" x="700.532000" y="753.750000" />
<path d="M700.532000,750.000000 L700.532000,757.500000 L631.444000,757.500000 L631.444000,750.000000 Z" fill="#133d91ff" />
<use xlink:href="#d2" x="631.444000" y="753.750000" />
<use xlink:href="#d3" x="631.444000" y="802.010000" />
<use xlink:href="#d2" x="700.532000" y="732.010000" />
<path d="M704.282000,732.010000 L696.782000,732.010000 L696.782000,683.750000 L704.282000,683.750000 Z" fill="#133d91ff" />
<use xlink:href="#d2" x="700.532000" y="683.750000" />
<use xlink:href="#d2" x="700.532000" y="683.750000" />
<path d="M700.532000,680.000000 L700.532000,687.500000 L631.444000,687.500000 L631.444000,680.000000 Z" fill="#133d91ff" />
<use xlink:href="#d2" x="631.444000" y="683.750000" />
<use xlink:href="#d3" x="631.444000" y="732.010000" />
<use xlink:href="#d2" x="600.532000" y="642.010000" />
<path d="M604.282000,642.010000 L596.782000,642.010000 L596.782000,593.750000 L604.282000,593.750000 Z" fill="#133d91ff" />
<use xlink:href="#d2" x="600.532000" y="593.750000" />
<use xlink:href="#d2" x="600.532000" y="593.750000" />
<path d="M600.532000,590.000000 L600.532000,597.500000 L531.444000,597.500000 L531.444000,590.000000 Z" fill="#133d91ff" />
<use xlink:href="#d2" x="531.444000" y="593.750000" />
<use xlink:href="#d3" x="531.444000" y="642.010000" />
<use xlink:href="#d2" x="600.532000" y="572.010000" />
<path d="M604.282000,572.010000 L596.782000,572.010000 L596.782000,523.750000 L604.282000,523.750000 Z" fill="#133d91ff" />
<use xlink:href="#d2" x="600.532000" y="523.750000" />
<use xlink:href="#d2" x="600.532000" y="523.750000" />
<path d="M600.532000,520.000000 L600.532000,527.500000 L531.444000,527.500000 L531.444000,520.000000 Z" fill="#133d91ff" />
<use xlink:href="#d2" x="531.444000" y="523.750000" />
<use xlink:href="#d3" x="531.444000" y="572.010000" />
<use xlink:href="#d2" x="700.532000" y="642.010000" />
<path d="M704.282000,642.010000 L696.782000,642.010000 L696.782000,593.750000 L704.282000,593.750000 Z" fill="#133d91ff" />
<use xlink:href="#d2" x="700.532000" y="593.750000" />
<use xlink:href="#d2" x="700.532000" y="593.750000" />
<path d="M700.532000,590.000000 L700.532000,597.500000 L631.444000,597.500000 L631.444000,590.000000 Z" fill="#133d91ff" />
<use xlink:href="#d2" x="631.444000" y="593.750000" />
<use xlink:href="#d3" x="631.444000" y="642.010000" />
<use xlink:href="#d2" x="700.532000" y="572.010000" />
<path d="M704.282000,572.010000 L696.782000,572.010000 L696.782000,523.750000 L704.282000,523.750000 Z" fill="#133d91ff" />
<use xlink:href="#d2" x="700.532000" y="523.750000" />
<use xlink:href="#d2" x="700.532000" y="523.750000" />
<path d="M700.532000,520.000000 L700.532000,527.500000 L631.444000,527.500000 L631.444000,520.000000 Z" fill="#133d91ff" />
<use xlink:href="#d2" x="631.444000" y="523.750000" />
<use xlink:href="#d3" x="631.444000" y="572.010000" />
<use xlink:href="#d2" x="830.532000" y="962.010000" />
<path d="M834.282000,962.010000 L826.782000,962.010000 L826.782000,913.750000 L834.282000,913.750000 Z" fill="#133d91ff" />
<use xlink:href="#d2" x="830.532000" y="913.750000" />
<use xlink:href="#d2" x="830.532000" y="913.750000" />
<path d="M830.532000,910.000000 L830.532000,917.500000 L761.444000,917.500000 L761.444000,910.000000 Z" fill="#133d91ff" />
<use xlink:href="#d2" x="761.444000" y="913.750000" />
<use xlink:href="#d3" x="761.444000" y="962.010000" />
<use xlink:href="#d2" x="830.532000" y="892.010000" />
<path d="M834.282000,892.010000 L826.782000,892.010000 L826.782000,843.750000 L834.282000,843.750000 Z" fill="#133d91ff" />
<use xlink:href="#d2" x="830.532000" y="843.750000" />
<use xlink:href="#d2" x="830.532000" y="843.750000" />
<path d="M830.532000,840.000000 L830.532000,847.500000 L761.444000,847.500000 L761.444000,840.000000 Z" fill="#133d91ff" />
<use xlink:href="#d2" x="761.444000" y="843.750000" />
<use xlink:href="#d3" x="761.444000" y="892.010000" />
<use xlink:href="#d2" x="930.532000" y="962.010000" />
<path d="M934.282000,962.010000 L926.782000,962.010000 L926.782000,913.750000 L934.282000,913.750000 Z" fill="#133d91ff" />
<use xlink:href="#d2" x="930.532000" y="913.750000" />
<use xlink:href="#d2" x="930.532000" y="913.750000" />
<path d="M930.532000,910.000000 L930.532000,917.500000 L861.444000,917.500000 L861.444000,910.000000 Z" fill="#133d91ff" />
<use xlink:href="#d2" x="861.444000" y="913.750000" />
<use xlink:href="#d3" x="861.444000" y="962.010000" />
<use xlink:href="#d2" x="930.532000" y="892.010000" />
<path d="M934.282000,892.010000 L926.782000,892.010000 L926.782000,843.750000 L934.282000,843.750000 Z" fill="#133d91ff" />
<use xlink:href="#d2" x="930.532000" y="843.750000" />
<use xlink:href="#d2" x="930.532000" y="843.750000" />
<path d="M930.532000,840.000000 L930.532000,847.500000 L861.444000,847.500000 L861.444000,840.000000 Z" fill="#133d91ff" />
<use xlink:href="#d2" x="861.444000" y="843.750000" />
<use xlink:href="#d3" x="861.444000" y="892.010000" />
<use xlink:href="#d2" x="830.532000" y="802.010000" />
<path d="M834.282000,802.010000 L826.782000,802.010000 L826.782000,753.750000 L834.282000,753.750000 Z" fill="#133d91ff" />
<use xlink:href="#d2" x="830.532000" y="753.750000" />
<use xlink:href="#d2" x="830.532000" y="753.750000" />
<path d="M830.532000,750.000000 L830.532000,757.500000 L761.444000,757.500000 L761.444000,750.000000 Z" fill="#133d91ff" />
<use xlink:href="#d2" x="761.444000" y="753.750000" />
<use xlink:href="#d3" x="761.444000" y="802.010000" />
<use xlink:href="#d2" x="830.532000" y="732.010000" />
<path d="M834.282000,732.010000 L826.782000,732.010000 L826.782000,683.750000 L834.282000,683.750000 Z" fill="#133d91ff" />
<use xlink:href="#d2" x="830.532000" y="683.750000" />
<use xlink:href="#d2" x="830.532000" y="683.750000" />
<path d="M830.532000,680.000000 L830.532000,687.500000 L761.444000,687.500000 L761.444000,680.000000 Z" fill="#133d91ff" />
<use xlink:href="#d2" x="761.444000" y="683.750000" />
<use xlink:href="#d3" x="761.444000" y="732.010000" />
<use xlink:href="#d2" x="930.532000" y="802.010000" />
<path d="M934.282000,802.010000 L926.782000,802.010000 L926.782000,753.750000 L934.282000,753.750000 Z" fill="#133d91ff" />
<use xlink:href="#d2" x="930.532000" y="753.750000" />
<use xlink:href="#d2" x="930.532000" y="753.750000" />
<path d="M930.532000,750.000000 L930.532000,757.500000 L861.444000,757.500000 L861.444000,750.000000 Z" fill="#133d91ff" />
<use xlink:href="#d2" x="861.444000" y="753.750000" />
<use xlink:href="#d3" x="861.444000" y="802.010000" />
<use xlink:href="#d2" x="930.532000" y="732.010000" />
<path d="M934.282000,732.010000 L926.782000,732.010000 L926.782000,683.750000 L934.282000,683.750000 Z" fill="#133d91ff" />
<use xlink:href="#d2" x="930.532000" y="683.750000" />
<use xlink:href="#d2" x="930.532000" y="683.750000" />
<path d="M930.532000,680.000000 L930.532000,687.500000 L861.444000,687.500000 L861.444000,680.000000 Z" fill="#133d91ff" />
<use xlink:href="#d2" x="861.444000" y="683.750000" />
<use xlink:href="#d3" x="861.444000" y="732.010000" />
<use xlink:href="#d2" x="830.532000" y="642.010000" />
<path d="M834.282000,642.010000 L826.782000,642.010000 L826.782000,593.750000 L834.282000,593.750000 Z" fill="#133d91ff" />
<use xlink:href="#d2" x="830.532000" y="593.750000" />
<use xlink:href="#d2" x="830.532000" y="593.750000" />
<path d="M830.532000,590.000000 L830.532000,597.500000 L761.444000,597.500000 L761.444000,590.000000 Z" fill="#133d91ff" />
<use xlink:href="#d2" x="761.444000" y="593.750000" />
<use xlink:href="#d3" x="761.444000" y="642.010000" />
<use xlink:href="#d2" x="830.532000" y="572.010000" />
<path d="M834.282000,572.010000 L826.782000,572.010000 L826.782000,523.750000 L834.282000,523.750000 Z" fill="#133d91ff" />
<use xlink:href="#d2" x="830.532000" y="523.750000" />
<use xlink:href="#d2" x="830.532000" y="523.750000" />
<path d="M830.532000,520.000000 L830.532000,527.500000 L761.444000,527.500000 L761.444000,520.000000 Z" fill="#133d91ff" />
<use xlink:href="#d2" x="761.444000" y="523.750000" />
<use xlink:href="#d3" x="761.444000" y="572.010000" />
<use xlink:href="#d2" x="930.532000" y="642.010000" />
<path d="M934.282000,642.010000 L926.782000,642.010000 L926.782000,593.750000 L934.282000,593.750000 Z" fill="#133d91ff" />
<use xlink:href="#d2" x="930.532000" y="593.750000" />
<use xlink:href="#d2" x="930.532000" y="593.750000" />
<path d="M930.532000,590.000000 L930.532000,597.500000 L861.444000,597.500000 L861.444000,590.000000 Z" fill="#133d91ff" />
<use xlink:href="#d2" x="861.444000" y="593.750000" />
<use xlink:href="#d3" x="861.444000" y="642.010000" />
<use xlink:href="#d2" x="930.532000" y="572.010000" />
<path d="M934.282000,572.010000 L926.782000,572.010000 L926.782000,523.750000 L934.282000,523.750000 Z" fill="#133d91ff" />
<use xlink:href="#d2" x="930.532000" y="523.750000" />
<use xlink:href="#d2" x="930.532000" y="523.750000" />
<path d="M930.532000,520.000000 L930.532000,527.500000 L861.444000,527.500000 L861.444000,520.000000 Z" fill="#133d91ff" />
<use xlink:href="#d2" x="861.444000" y="523.750000" />
<use xlink:href="#d3" x="861.444000" y="572.010000" />
<use xlink:href="#d4" x="554.500000" y="989.615375" />
<use xlink:href="#d2" x="600.532000" y="442.010000" />
<path d="M604.282000,442.010000 L596.782000,442.010000 L596.782000,393.750000 L604.282000,393.750000 Z" fill="#133d91ff" />
<use xlink:href="#d2" x="600.532000" y="393.750000" />
<use xlink:href="#d2" x="600.532000" y="393.750000" />
<path d="M600.532000,390.000000 L600.532000,397.500000 L531.444000,397.500000 L531.444000,390.000000 Z" fill="#133d91ff" />
<use xlink:href="#d2" x="531.444000" y="393.750000" />
<use xlink:href="#d3" x="531.444000" y="442.010000" />
<use xlink:href="#d2" x="600.532000" y="372.010000" />
<path d="M604.282000,372.010000 L596.782000,372.010000 L596.782000,323.750000 L604.282000,323.750000 Z" fill="#133d91ff" />
<use xlink:href="#d2" x="600.532000" y="323.750000" />
<use xlink:href="#d2" x="600.532000" y="323.750000" />
<path d="M600.532000,320.000000 L600.532000,327.500000 L531.444000,327.500000 L531.444000,320.000000 Z" fill="#133d91ff" />
<use xlink:href="#d2" x="531.444000" y="323.750000" />
<use xlink:href="#d3" x="531.444000" y="372.010000" />
<use xlink:href="#d2" x="700.532000" y="442.010000" />
<path d="M704.282000,442.010000 L696.782000,442.010000 L696.782000,393.750000 L704.282000,393.750000 Z" fill="#133d91ff" />
<use xlink:href="#d2" x="700.532000" y="393.750000" />
<use xlink:href="#d2" x="700.532000" y="393.750000" />
<path d="M700.532000,390.000000 L700.532000,397.500000 L631.444000,397.500000 L631.444000,390.000000 Z" fill="#133d91ff" />
<use xlink:href="#d2" x="631.444000" y="393.750000" />
<use xlink:href="#d3" x="631.444000" y="442.010000" />
<use xlink:href="#d2" x="700.532000" y="372.010000" />
<path d="M704.282000,372.010000 L696.782000,372.010000 L696.782000,323.750000 L704.282000,323.750000 Z" fill="#133d91ff" />
<use xlink:href="#d2" x="700.532000" y="323.750000" />
<use xlink:href="#d2" x="700.532000" y="323.750000" />
<path d="M700.532000,320.000000 L700.532000,327.500000 L631.444000,327.500000 L631.444000,320.000000 Z" fill="#133d91ff" />
<use xlink:href="#d2" x="631.444000" y="323.750000" />
<use xlink:href="#d3" x="631.444000" y="372.010000" />
<use xlink:href="#d2" x="600.532000" y="282.010000" />
<path d="M604.282000,282.010000 L596.782000,282.010000 L596.782000,233.750000 L604.282000,233.750000 Z" fill="#133d91ff" />
<use xlink:href="#d2" x="600.532000" y="233.750000" />
<use xlink:href="#d2" x="600.532000" y="233.750000" />
<path d="M600.532000,230.000000 L600.532000,237.500000 L531.444000,237.500000 L531.444000,230.000000 Z" fill="#133d91ff" />
<use xlink:href="#d2" x="531.444000" y="233.750000" />
<use xlink:href="#d3" x="531.444000" y="282.010000" />
<use xlink:href="#d2" x="600.532000" y="212.010000" />
<path d="M604.282000,212.010000 L596.782000,212.010000 L596.782000,163.750000 L604.282000,163.750000 Z" fill="#133d91ff" />
<use xlink:href="#d2" x="600.532000" y="163.750000" />
<use xlink:href="#d2" x="600.532000" y="163.750000" />
<path d="M600.532000,160.000000 L600.532000,167.500000 L531.444000,167.500000 L531.444000,160.000000 Z" fill="#133d91ff" />
<use xlink:href="#d2" x="531.444000" y="163.750000" />
<use xlink:href="#d3" x="531.444000" y="212.010000" />
<use xlink:href="#d2" x="700.532000" y="282.010000" />
<path d="M704.282000,282.010000 L696.782000,282.010000 L696.782000,233.750000 L704.282000,233.750000 Z" fill="#133d91ff" />
<use xlink:href="#d2" x="700.532000" y="233.750000" />
<use xlink:href="#d2" x="700.532000" y="233.750000" />
<path d="M700.532000,230.000000 L700.532000,237.500000 L631.444000,237.500000 L631.444000,230.000000 Z" fill="#133d91ff" />
<use xlink:href="#d2" x="631.444000" y="233.750000" />
<use xlink:href="#d3" x="631.444000" y="282.010000" />
<use xlink:href="#d2" x="700.532000" y="212.010000" />
<path d="M704.282000,212.010000 L696.782000,212.010000 L696.782000,163.750000 L704.282000,163.750000 Z" fill="#133d91ff" />
<use xlink:href="#d2" x="700.532000" y="163.750000" />
<use xlink:href="#d2" x="700.532000" y="163.750000" />
<path d="M700.532000,160.000000 L700.532000,167.500000 L631.444000,167.500000 L631.444000,160.000000 Z" fill="#133d91ff" />
<use xlink:href="#d2" x="631.444000" y="163.750000" />
<use xlink:href="#d3" x="631.444000" y="212.010000" />
<use xlink:href="#d2" x="600.532000" y="122.010000" />
<path d="M604.282000,122.010000 L596.782000,122.010000 L596.782000,73.750000 L604.282000,73.750000 Z" fill="#133d91ff" />
<use xlink:href="#d2" x="600.532000" y="73.750000" />
<use xlink:href="#d2" x="600.532000" y="73.750000" />
<path d="M600.532000,70.000000 L600.532000,77.500000 L531.444000,77.500000 L531.444000,70.000000 Z" fill="#133d91ff" />
<use xlink:href="#d2" x="531.444000" y="73.750000" />
<use xlink:href="#d3" x="531.444000" y="122.010000" />
<use xlink:href="#d2" x="600.532000" y="52.010000" />
<path d="M604.282000,52.010000 L596.782000,52.010000 L596.782000,3.750000 L604.282000,3.750000 Z" fill="#133d91ff" />
<use xlink:href="#d2" x="600.532000" y="3.750000" />
<use xlink:href="#d2" x="600.532000" y="3.750000" />
<path d="M600.532000,0.000000 L600.532000,7.500000 L531.444000,7.500000 L531.444000,0.000000 Z" fill="#133d91ff" />
<use xlink:href="#d2" x="531.444000" y="3.750000" />
<use xlink:href="#d3" x="531.444000" y="52.010000" />
<use xlink:href="#d2" x="700.532000" y="122.010000" />
<path d="M704.282000,122.010000 L696.782000,122.010000 L696.782000,73.750000 L704.282000,73.750000 Z" fill="#133d91ff" />
<use xlink:href="#d2" x="700.532000" y="73.750000" />
<use xlink:href="#d2" x="700.532000" y="73.750000" />
<path d="M700.532000,70.000000 L700.532000,77.500000 L631.444000,77.500000 L631.444000,70.000000 Z" fill="#133d91ff" />
<use xlink:href="#d2" x="631.444000" y="73.750000" />
<use xlink:href="#d3" x="631.444000" y="122.010000" />
<use xlink:href="#d2" x="700.532000" y="52.010000" />
<path d="M704.282000,52.010000 L696.782000,52.010000 L696.782000,3.750000 L704.282000,3.750000 Z" fill="#133d91ff" />
<use xlink:href="#d2" x="700.532000" y="3.750000" />
<use xlink:href="#d2" x="700.532000" y="3.750000" />
<path d="M700.532000,0.000000 L700.532000,7.500000 L631.444000,7.500000 L631.444000,0.000000 Z" fill="#133d91ff" />
<use xlink:href="#d2" x="631.444000" y="3.750000" />
<use xlink:href="#d3" x="631.444000" y="52.010000" />
<use xlink:href="#d2" x="830.532000" y="442.010000" />
<path d="M834.282000,442.010000 L826.782000,442.010000 L826.782000,393.750000 L834.282000,393.750000 Z" fill="#133d91ff" />
<use xlink:href="#d2" x="830.532000" y="393.750000" />
<use xlink:href="#d2" x="830.532000" y="393.750000" />
<path d="M830.532000,390.000000 L830.532000,397.500000 L761.444000,397.500000 L761.444000,390.000000 Z" fill="#133d91ff" />
<use xlink:href="#d2" x="761.444000" y="393.750000" />
<use xlink:href="#d3" x="761.444000" y="442.010000" />
<use xlink:href="#d2" x="830.532000" y="372.010000" />
<path d="M834.282000,372.010000 L826.782000,372.010000 L826.782000,323.750000 L834.282000,323.750000 Z" fill="#133d91ff" />
<use xlink:href="#d2" x="830.532000" y="323.750000" />
<use xlink:href="#d2" x="830.532000" y="323.750000" />
<path d="M830.532000,320.000000 L830.532000,327.500000 L761.444000,327.500000 L761.444000,320.000000 Z" fill="#133d91ff" />
<use xlink:href="#d2" x="761.444000" y="323.750000" />
<use xlink:href="#d3" x="761.444000" y="372.010000" />
<use xlink:href="#d2" x="930.532000" y="442.010000" />
<path d="M934.282000,442.010000 L926.782000,442.010000 L926.782000,393.750000 L934.282000,393.750000 Z" fill="#133d91ff" />
<use xlink:href="#d2" x="930.532000" y="393.750000" />
<use xlink:href="#d2" x="930.532000" y="393.750000" />
<path d="M930.532000,390.000000 L930.532000,397.500000 L861.444000,397.500000 L861.444000,390.000000 Z" fill="#133d91ff" />
<use xlink:href="#d2" x="861.444000" y="393.750000" />
<use xlink:href="#d3" x="861.444000" y="442.010000" />
<use xlink:href="#d2" x="930.532000" y="372.010000" />
<path d="M934.282000,372.010000 L926.782000,372.010000 L926.782000,323.750000 L934.282000,323.750000 Z" fill="#133d91ff" />
<use xlink:href="#d2" x="930.532000" y="323.750000" />
<use xlink:href="#d2" x="930.532000" y="323.750000" />
<path d="M930.532000,320.000000 L930.532000,327.500000 L861.444000,327.500000 L861.444000,320.000000 Z" fill="#133d91ff" />
<use xlink:href="#d2" x="861.444000" y="323.750000" />
<use xlink:href="#d3" x="861.444000" y="372.010000" />
<use xlink:href="#d2" x="830.532000" y="282.010000" />
<path d="M834.282000,282.010000 L826.782000,282.010000 L826.782000,233.750000 L834.282000,233.750000 Z" fill="#133d91ff" />
<use xlink:href="#d2" x="830.532000" y="233.750000" />
<use xlink:href="#d2" x="830.532000" y="233.750000" />
<path d="M830.532000,230.000000 L830.532000,237.500000 L761.444000,237.500000 L761.444000,230.000000 Z" fill="#133d91ff" />
<use xlink:href="#d2" x="761.444000" y="233.750000" />
<use xlink:href="#d3" x="761.444000" y="282.010000" />
<use xlink:href="#d2" x="830.532000" y="212.010000" />
<path d="M834.282000,212.010000 L826.782000,212.010000 L826.782000,163.750000 L834.282000,163.750000 Z" fill="#133d91ff" />
<use xlink:href="#d2" x="830.532000" y="163.750000" />
<use xlink:href="#d2" x="830.532000" y="163.750000" />
<path d="M830.532000,160.000000 L830.532000,167.500000 L761.444000,167.500000 L761.444000,160.000000 Z" fill="#133d91ff" />
<use xlink:href="#d2" x="761.444000" y="163.750000" />
<use xlink:href="#d3" x="761.444000" y="212.010000" />
<use xlink:href="#d2" x="930.532000" y="282.010000" />
<path d="M934.282000,282.010000 L926.782000,282.010000 L926.782000,233.750000 L934.282000,233.750000 Z" fill="#133d91ff" />
<use xlink:href="#d2" x="930.532000" y="233.750000" />
<use xlink:href="#d2" x="930.532000" y="233.750000" />
<path d="M930.532000,230.000000 L930.532000,237.500000 L861.444000,237.500000 L861.444000,230.000000 Z" fill="#133d91ff" />
<use xlink:href="#d2" x="861.444000" y="233.750000" />
<use xlink:href="#d3" x="861.444000" y="282.010000" />
<use xlink:href="#d2" x="930.532000" y="212.010000" />
<path d="M934.282000,212.010000 L926.782000,212.010000 L926.782000,163.750000 L934.282000,163.750000 Z" fill="#133d91ff" />
<use xlink:href="#d2" x="930.532000" y="163.750000" />
<use xlink:href="#d2" x="930.532000" y="163.750000" />
<path d="M930.532000,160.000000 L930.532000,167.500000 L861.444000,167.500000 L861.444000,160.000000 Z" fill="#133d91ff" />
<use xlink:href="#d2" x="861.444000" y="163.750000" />
<use xlink:href="#d3" x="861.444000" y="212.010000" />
<use xlink:href="#d2" x="830.532000" y="122.010000" />
<path d="M834.282000,122.010000 L826.782000,122.010000 L826.782000,73.750000 L834.282000,73.750000 Z" fill="#133d91ff" />
<use xlink:href="#d2" x="830.532000" y="73.750000" />
<use xlink:href="#d2" x="830.532000" y="73.750000" />
<path d="M830.532000,70.000000 L830.532000,77.500000 L761.444000,77.500000 L761.444000,70.000000 Z" fill="#133d91ff" />
<use xlink:href="#d2" x="761.444000" y="73.750000" />
<use xlink:href="#d3" x="761.444000" y="122.010000" />
<use xlink:href="#d2" x="830.532000" y="52.010000" />
<path d="M834.282000,52.010000 L826.782000,52.010000 L826.782000,3.750000 L834.282000,3.750000 Z" fill="#133d91ff" />
<use xlink:href="#d2" x="830.532000" y="3.750000" />
<use xlink:href="#d2" x="830.532000" y="3.750000" />
<path d="M830.532000,0.000000 L830.532000,7.500000 L761.444000,7.500000 L761.444000,0.000000 Z" fill="#133d91ff" />
<use xlink:href="#d2" x="761.444000" y="3.750000" />
<use xlink:href="#d3" x="761.444000" y="52.010000" />
<use xlink:href="#d2" x="930.532000" y="122.010000" />
<path d="M934.282000,122.010000 L926.782000,122.010000 L926.782000,73.750000 L934.282000,73.750000 Z" fill="#133d91ff" />
<use xlink:href="#d2" x="930.532000" y="73.750000" />
<use xlink:href="#d2" x="930.532000" y="73.750000" />
<path d="M930.532000,70.000000 L930.532000,77.500000 L861.444000,77.500000 L861.444000,70.000000 Z" fill="#133d91ff" />
<use xlink:href="#d2" x="861.444000" y="73.750000" />
<use xlink:href="#d3" x="861.444000" y="122.010000" />
<use xlink:href="#d2" x="930.532000" y="52.010000" />
<path d="M934.282000,52.010000 L926.782000,52.010000 L926.782000,3.750000 L934.282000,3.750000 Z" fill="#133d91ff" />
<use xlink:href="#d2" x="930.532000" y="3.750000" />
<use xlink:href="#d2" x="930.532000" y="3.750000" />
<path d="M930.532000,0.000000 L930.532000,7.500000 L861.444000,7.500000 L861.444000,0.000000 Z" fill="#133d91ff" />
<use xlink:href="#d2" x="861.444000" y="3.750000" />
<use xlink:href="#d3" x="861.444000" y="52.010000" />
<use xlink:href="#d4" x="554.500000" y="469.615375" />
<use xlink:href="#d2" x="1100.532000" y="962.010000" />
<path d="M1104.282000,962.010000 L1096.782000,962.010000 L1096.782000,913.750000 L1104.282000,913.750000 Z" fill="#133d91ff" />
<use xlink:href="#d2" x="1100.532000" y="913.750000" />
<use xlink:href="#d2" x="1100.532000" y="913.750000" />
<path d="M1100.532000,910.000000 L1100.532000,917.500000 L1031.444000,917.500000 L1031.444000,910.000000 Z" fill="#133d91ff" />
<use xlink:href="#d2" x="1031.444000" y="913.750000" />
<use xlink:href="#d3" x="1031.444000" y="962.010000" />
<use xlink:href="#d2" x="1100.532000" y="892.010000" />
<path d="M1104.282000,892.010000 L1096.782000,892.010000 L1096.782000,843.750000 L1104.282000,843.750000 Z" fill="#133d91ff" />
<use xlink:href="#d2" x="1100.532000" y="843.750000" />
<use xlink:href="#d2" x="1100.532000" y="843.750000" />
<path d="M1100.532000,840.000000 L1100.532000,847.500000 L1031.444000,847.500000 L1031.444000,840.000000 Z" fill="#133d91ff" />
<use xlink:href="#d2" x="1031.444000" y="843.750000" />
<use xlink:href="#d3" x="1031.444000" y="892.010000" />
<use xlink:href="#d2" x="1200.532000" y="962.010000" />
<path d="M1204.282000,962.010000 L1196.782000,962.010000 L1196.782000,913.750000 L1204.282000,913.750000 Z" fill="#133d91ff" />
<use xlink:href="#d2" x="1200.532000" y="913.750000" />
<use xlink:href="#d2" x="1200.532000" y="913.750000" />
<path d="M1200.532000,910.000000 L1200.532000,917.500000 L1131.444000,917.500000 L1131.444000,910.000000 Z" fill="#133d91ff" />
<use xlink:href="#d2" x="1131.444000" y="913.750000" />
<use xlink:href="#d3" x="1131.444000" y="962.010000" />
<use xlink:href="#d2" x="1200.532000" y="892.010000" />
<path d="M1204.282000,892.010000 L1196.782000,892.010000 L1196.782000,843.750000 L1204.282000,843.750000 Z" fill="#133d91ff" />
<use xlink:href="#d2" x="1200.532000" y="843.750000" />
<use xlink:href="#d2" x="1200.532000" y="843.750000" />
<path d="M1200.532000,840.000000 L1200.532000,847.500000 L1131.444000,847.500000 L1131.444000,840.000000 Z" fill="#133d91ff" />
<use xlink:href="#d2" x="1131.444000" y="843.750000" />
<use xlink:href="#d3" x="1131.444000" y="892.010000" />
<use xlink:href="#d2" x="1100.532000" y="802.010000" />
<path d="M1104.282000,802.010000 L1096.782000,802.010000 L1096.782000,753.750000 L1104.282000,753.750000 Z" fill="#133d91ff" />
<use xlink:href="#d2" x="1100.532000" y="753.750000" />
<use xlink:href="#d2" x="1100.532000" y="753.750000" />
<path d="M1100.532000,750.000000 L1100.532000,757.500000 L1031.444000,757.500000 L1031.444000,750.000000 Z" fill="#133d91ff" />
<use xlink:href="#d2" x="1031.444000" y="753.750000" />
<use xlink:href="#d3" x="1031.444000" y="802.010000" />
<use xlink:href="#d2" x="1100.532000" y="732.010000" />
<path d="M1104.282000,732.010000 L1096.782000,732.010000 L1096.782000,683.750000 L1104.282000,683.750000 Z" fill="#133d91ff" />
<use xlink:href="#d2" x="1100.532000" y="683.750000" />
<use xlink:href="#d2" x="1100.532000" y="683.750000" />
<path d="M1100.532000,680.000000 L1100.532000,687.500000 L1031.444000,687.500000 L1031.444000,680.000000 Z" fill="#133d91ff" />
<use xlink:href="#d2" x="1031.444000" y="683.750000" />
<use xlink:href="#d3" x="1031.444000" y="732.010000" />
<use xlink:href="#d2" x="1200.532000" y="802.010000" />
<path d="M1204.282000,802.010000 L1196.782000,802.010000 L1196.782000,753.750000 L1204.282000,753.750000 Z" fill="#133d91ff" />
<use xlink:href="#d2" x="1200.532000" y="753.750000" />
<use xlink:href="#d2" x="1200.532000" y="753.750000" />
<path d="M1200.532000,750.000000 L1200.532000,757.500000 L1131.444000,757.500000 L1131.444000,750.000000 Z" fill="#133d91ff" />
<use xlink:href="#d2" x="1131.444000" y="753.750000" />
<use xlink:href="#d3" x="1131.444000" y="802.010000" />
<use xlink:href="#d2" x="1200.532000" y="732.010000" />
<path d="M1204.282000,732.010000 L1196.782000,732.010000 L1196.782000,683.750000 L1204.282000,683.750000 Z" fill="#133d91ff" />
<use xlink:href="#d2" x="1200.532000" y="683.750000" />
<use xlink:href="#d2" x="1200.532000" y="683.750000" />
<path d="M1200.532000,680.000000 L1200.532000,687.500000 L1131.444000,687.500000 L1131.444000,680.000000 Z" fill="#133d91ff" />
<use xlink:href="#d2" x="1131.444000" y="683.750000" />
<use xlink:href="#d3" x="1131.444000" y="732.010000" />
<use xlink:href="#d2" x="1100.532000" y="642.010000" />
<path d="M1104.282000,642.010000 L1096.782000,642.010000 L1096.782000,593.750000 L1104.282000,593.750000 Z" fill="#133d91ff" />
<use xlink:href="#d2" x="1100.532000" y="593.750000" />
<use xlink:href="#d2" x="1100.532000" y="593.750000" />
<path d="M1100.532000,590.000000 L1100.532000,597.500000 L1031.444000,597.500000 L1031.444000,590.000000 Z" fill="#133d91ff" />
<use xlink:href="#d2" x="1031.444000" y="593.750000" />
<use xlink:href="#d3" x="1031.444000" y="642.010000" />
<use xlink:href="#d2" x="1100.532000" y="572.010000" />
<path d="M1104.282000,572.010000 L1096.782000,572.010000 L1096.782000,523.750000 L1104.282000,523.750000 Z" fill="#133d91ff" />
<use xlink:href="#d2" x="1100.532000" y="523.750000" />
<use xlink:href="#d2" x="1100.532000" y="523.750000" />
<path d="M1100.532000,520.000000 L1100.532000,527.500000 L1031.444000,527.500000 L1031.444000,520.000000 Z" fill="#133d91ff" />
<use xlink:href="#d2" x="1031.444000" y="523.750000" />
<use xlink:href="#d3" x="1031.444000" y="572.010000" />
<use xlink:href="#d2" x="1200.532000" y="642.010000" />
<path d="M1204.282000,642.010000 L1196.782000,642.010000 L1196.782000,593.750000 L1204.282000,593.750000 Z" fill="#133d91ff" />
<use xlink:href="#d2" x="1200.532000" y="593.750000" />
<use xlink:href="#d2" x="1200.532000" y="593.750000" />
<path d="M1200.532000,590.000000 L1200.532000,597.500000 L1131.444000,597.500000 L1131.444000,590.000000 Z" fill="#133d91ff" />
<use xlink:href="#d2" x="1131.444000" y="593.750000" />
<use xlink:href="#d3" x="1131.444000" y="642.010000" />
<use xlink:href="#d2" x="1200.532000" y="572.010000" />
<path d="M1204.282000,572.010000 L1196.782000,572.010000 L1196.782000,523.750000 L1204.282000,523.750000 Z" fill="#133d91ff" />
<use xlink:href="#d2" x="1200.532000" y="523.750000" />
<use xlink:href="#d2" x="1200.532000" y="523.750000" />
<path d="M1200.532000,520.000000 L1200.532000,527.500000 L1131.444000,527.500000 L1131.444000,520.000000 Z" fill="#133d91ff" />
<use xlink:href="#d2" x="1131.444000" y="523.750000" />
<use xlink:href="#d3" x="1131.444000" y="572.010000" />
<use xlink:href="#d2" x="1330.532000" y="962.010000" />
<path d="M1334.282000,962.010000 L1326.782000,962.010000 L1326.782000,913.750000 L1334.282000,913.750000 Z" fill="#133d91ff" />
<use xlink:href="#d2" x="1330.532000" y="913.750000" />
<use xlink:href="#d2" x="1330.532000" y="913.750000" />
<path d="M1330.532000,910.000000 L1330.532000,917.500000 L1261.444000,917.500000 L1261.444000,910.000000 Z" fill="#133d91ff" />
<use xlink:href="#d2" x="1261.444000" y="913.750000" />
<use xlink:href="#d3" x="1261.444000" y="962.010000" />
<use xlink:href="#d2" x="1330.532000" y="892.010000" />
<path d="M1334.282000,892.010000 L1326.782000,892.010000 L1326.782000,843.750000 L1334.282000,843.750000 Z" fill="#133d91ff" />
<use xlink:href="#d2" x="1330.532000" y="843.750000" />
<use xlink:href="#d2" x="1330.532000" y="843.750000" />
<path d="M1330.532000,840.000000 L1330.532000,847.500000 L1261.444000,847.500000 L1261.444000,840.000000 Z" fill="#133d91ff" />
<use xlink:href="#d2" x="1261.444000" y="843.750000" />
<use xlink:href="#d3" x="1261.444000" y="892.010000" />
<use xlink:href="#d2" x="1430.532000" y="962.010000" />
<path d="M1434.282000,962.010000 L1426.782000,962.010000 L1426.782000,913.750000 L1434.282000,913.750000 Z" fill="#133d91ff" />
<use xlink:href="#d2" x="1430.532000" y="913.750000" />
<use xlink:href="#d2" x="1430.532000" y="913.750000" />
<path d="M1430.532000,910.000000 L1430.532000,917.500000 L1361.444000,917.500000 L1361.444000,910.000000 Z" fill="#133d91ff" />
<use xlink:href="#d2" x="1361.444000" y="913.750000" />
<use xlink:href="#d3" x="1361.444000" y="962.010000" />
<use xlink:href="#d2" x="1430.532000" y="892.010000" />
<path d="M1434.282000,892.010000 L1426.782000,892.010000 L1426.782000,843.750000 L1434.282000,843.750000 Z" fill="#133d91ff" />
<use xlink:href="#d2" x="1430.532000" y="843.750000" />
<use xlink:href="#d2" x="1430.532000" y="843.750000" />
<path d="M1430.532000,840.000000 L1430.532000,847.500000 L1361.444000,847.500000 L1361.444000,840.000000 Z" fill="#133d91ff" />
<use xlink:href="#d2" x="1361.444000" y="843.750000" />
<use xlink:href="#d3" x="1361.444000" y="892.010000" />
<use xlink:href="#d2" x="1330.532000" y="802.010000" />
<path d="M1334.282000,802.010000 L1326.782000,802.010000 L1326.782000,753.750000 L1334.282000,753.750000 Z" fill="#133d91ff" />
<use xlink:href="#d2" x="1330.532000" y="753.750000" />
<use xlink:href="#d2" x="1330.532000" y="753.750000" />
<path d="M1330.532000,750.000000 L1330.532000,757.500000 L1261.444000,757.500000 L1261.444000,750.000000 Z" fill="#133d91ff" />
<use xlink:href="#d2" x="1261.444000" y="753.750000" />
<use xlink:href="#d3" x="1261.444000" y="802.010000" />
<use xlink:href="#d2" x="1330.532000" y="732.010000" />
<path d="M1334.282000,732.010000 L1326.782000,732.010000 L1326.782000,683.750000 L1334.282000,683.750000 Z" fill="#133d91ff" />
<use xlink:href="#d2" x="1330.532000" y="683.750000" />
<use xlink:href="#d2" x="1330.532000" y="683.750000" />
<path d="M1330.532000,680.000000 L1330.532000,687.500000 L1261.444000,687.500000 L1261.444000,680.000000 Z" fill="#133d91ff" />
<use xlink:href="#d2" x="1261.444000" y="683.750000" />
<use xlink:href="#d3" x="1261.444000" y="732.010000" />
<use xlink:href="#d2" x="1430.532000" y="802.010000" />
<path d="M1434.282000,802.010000 L1426.782000,802.010000 L1426.782000,753.750000 L1434.282000,753.750000 Z" fill="#133d91ff" />
<use xlink:href="#d2" x="1430.532000" y="753.750000" />
<use xlink:href="#d2" x="1430.532000" y="753.750000" />
<path d="M1430.532000,750.000000 L1430.532000,757.500000 L1361.444000,757.500000 L1361.444000,750.000000 Z" fill="#133d91ff" />
<use xlink:href="#d2" x="1361.444000" y="753.750000" />
<use xlink:href="#d3" x="1361.444000" y="802.010000" />
<use xlink:href="#d2" x="1430.532000" y="732.010000" />
<path d="M1434.282000,732.010000 L1426.782000,732.010000 L1426.782000,683.750000 L1434.282000,683.750000 Z" fill="#133d91ff" />
<use xlink:href="#d2" x="1430.532000" y="683.750000" />
<use xlink:href="#d2" x="1430.532000" y="683.750000" />
<path d="M1430.532000,680.000000 L1430.532000,687.500000 L1361.444000,687.500000 L1361.444000,680.000000 Z" fill="#133d91ff" />
<use xlink:href="#d2" x="1361.444000" y="683.750000" />
<use xlink:href="#d3" x="1361.444000" y="732.010000" />
<use xlink:href="#d2" x="1330.532000" y="642.010000" />
<path d="M1334.282000,642.010000 L1326.782000,642.010000 L1326.782000,593.750000 L1334.282000,593.750000 Z" fill="#133d91ff" />
<use xlink:href="#d2" x="1330.532000" y="593.750000" />
<use xlink:href="#d2" x="1330.532000" y="593.750000" />
<path d="M1330.532000,590.000000 L1330.532000,597.500000 L1261.444000,597.500000 L1261.444000,590.000000 Z" fill="#133d91ff" />
<use xlink:href="#d2" x="1261.444000" y="593.750000" />
<use xlink:href="#d3" x="1261.444000" y="642.010000" />
<use xlink:href="#d2" x="1330.532000" y="572.010000" />
<path d="M1334.282000,572.010000 L1326.782000,572.010000 L1326.782000,523.750000 L1334.282000,523.750000 Z" fill="#133d91ff" />
<use xlink:href="#d2" x="1330.532000" y="523.750000" />
<use xlink:href="#d2" x="1330.532000" y="523.750000" />
<path d="M1330.532000,520.000000 L1330.532000,527.500000 L1261.444000,527.500000 L1261.444000,520.000000 Z" fill="#133d91ff" />
<use xlink:href="#d2" x="1261.444000" y="523.750000" />
<use xlink:href="#d3" x="1261.444000" y="572.010000" />
<use xlink:href="#d2" x="1430.532000" y="642.010000" />
<path d="M1434.282000,642.010000 L1426.782000,642.010000 L1426.782000,593.750000 L1434.282000,593.750000 Z" fill="#133d91ff" />
<use xlink:href="#d2" x="1430.532000" y="593.750000" />
<use xlink:href="#d2" x="1430.532000" y="593.750000" />
<path d="M1430.532000,590.000000 L1430.532000,597.500000 L1361.444000,597.500000 L1361.444000,590.000000 Z" fill="#133d91ff" />
<use xlink:href="#d2" x="1361.444000" y="593.750000" />
<use xlink:href="#d3" x="1361.444000" y="642.010000" />
<use xlink:href="#d2" x="1430.532000" y="572.010000" />
<path d="M1434.282000,572.010000 L1426.782000,572.010000 L1426.782000,523.750000 L1434.282000,523.750000 Z" fill="#133d91ff" />
<use xlink:href="#d2" x="1430.532000" y="523.750000" />
<use xlink:href="#d2" x="1430.532000" y="523.750000" />
<path d="M1430.532000,520.000000 L1430.532000,527.500000 L1361.444000,527.500000 L1361.444000,520.000000 Z" fill="#133d91ff" />
<use xlink:href="#d2" x="1361.444000" y="523.750000" />
<use xlink:href="#d3" x="1361.444000" y="572.010000" />
<use xlink:href="#d4" x="1054.500000" y="989.615375" />
<use xlink:href="#d2" x="1100.532000" y="442.010000" />
<path d="M1104.282000,442.010000 L1096.782000,442.010000 L1096.782000,393.750000 L1104.282000,393.750000 Z" fill="#133d91ff" />
<use xlink:href="#d2" x="1100.532000" y="393.750000" />
<use xlink:href="#d2" x="1100.532000" y="393.750000" />
<path d="M1100.532000,390.000000 L1100.532000,397.500000 L1031.444000,397.500000 L1031.444000,390.000000 Z" fill="#133d91ff" />
<use xlink:href="#d2" x="1031.444000" y="393.750000" />
<use xlink:href="#d3" x="1031.444000" y="442.010000" />
<use xlink:href="#d2" x="1100.532000" y="372.010000" />
<path d="M1104.282000,372.010000 L1096.782000,372.010000 L1096.782000,323.750000 L1104.282000,323.750000 Z" fill="#133d91ff" />
<use xlink:href="#d2" x="1100.532000" y="323.750000" />
<use xlink:href="#d2" x="1100.532000" y="323.750000" />
<path d="M1100.532000,320.000000 L1100.532000,327.500000 L1031.444000,327.500000 L1031.444000,320.000000 Z" fill="#133d91ff" />
<use xlink:href="#d2" x="1031.444000" y="323.750000" />
<use xlink:href="#d3" x="1031.444000" y="372.010000" />
<use xlink:href="#d2" x="1200.532000" y="442.010000" />
<path d="M1204.282000,442.010000 L1196.782000,442.010000 L1196.782000,393.750000 L1204.282000,393.750000 Z" fill="#133d91ff" />
<use xlink:href="#d2" x="1200.532000" y="393.750000" />
<use xlink:href="#d2" x="1200.532000" y="393.750000" />
<path d="M1200.532000,390.000000 L1200.532000,397.500000 L1131.444000,397.500000 L1131.444000,390.000000 Z" fill="#133d91ff" />
<use xlink:href="#d2" x="1131.444000" y="393.750000" />
<use xlink:href="#d3" x="1131.444000" y="442.010000" />
<use xlink:href="#d2" x="1200.532000" y="372.010000" />
<path d="M1204.282000,372.010000 L1196.782000,372.010000 L1196.782000,323.750000 L1204.282000,323.750000 Z" fill="#133d91ff" />
<use xlink:href="#d2" x="1200.532000" y="323.750000" />
<use xlink:href="#d2" x="1200.532000" y="323.750000" />
<path d="M1200.532000,320.000000 L1200.532000,327.500000 L1131.444000,327.500000 L1131.444000,320.000000 Z" fill="#133d91ff" />
<use xlink:href="#d2" x="1131.444000" y="323.750000" />
<use xlink:href="#d3" x="1131.444000" y="372.010000" />
<use xlink:href="#d2" x="1100.532000" y="282.010000" />
<path d="M1104.282000,282.010000 L1096.782000,282.010000 L1096.782000,233.750000 L1104.282000,233.750000 Z" fill="#133d91ff" />
<use xlink:href="#d2" x="1100.532000" y="233.750000" />
<use xlink:href="#d2" x="1100.532000" y="233.750000" />
<path d="M1100.532000,230.000000 L1100.532000,237.500000 L1031.444000,237.500000 L1031.444000,230.000000 Z" fill="#133d91ff" />
<use xlink:href="#d2" x="1031.444000" y="233.750000" />
<use xlink:href="#d3" x="1031.444000" y="282.010000" />
<use xlink:href="#d2" x="1100.532000" y="212.010000" />
<path d="M1104.282000,212.010000 L1096.782000,212.010000 L1096.782000,163.750000 L1104.282000,163.750000 Z" fill="#133d91ff" />
<use xlink:href="#d2" x="1100.532000" y="163.750000" />
<use xlink:href="#d2" x="1100.532000" y="163.750000" />
<path d="M1100.532000,160.000000 L1100.532000,167.500000 L1031.444000,167.500000 L1031.444000,160.000000 Z" fill="#133d91ff" />
<use xlink:href="#d2" x="1031.444000" y="163.750000" />
<use xlink:href="#d3" x="1031.444000" y="212.010000" />
<use xlink:href="#d2" x="1200.532000" y="282.010000" />
<path d="M1204.282000,282.010000 L1196.782000,282.010000 L1196.782000,233.750000 L1204.282000,233.750000 Z" fill="#133d91ff" />
<use xlink:href="#d2" x="1200.532000" y="233.750000" />
<use xlink:href="#d2" x="1200.532000" y="233.750000" />
<path d="M1200.532000,230.000000 L1200.532000,237.500000 L1131.444000,237.500000 L1131.444000,230.000000 Z" fill="#133d91ff" />
<use xlink:href="#d2" x="1131.444000" y="233.750000" />
<use xlink:href="#d3" x="1131.444000" y="282.010000" />
<use xlink:href="#d2" x="1200.532000" y="212.010000" />
<path d="M1204.282000,212.010000 L1196.782000,212.010000 L1196.782000,163.750000 L1204.282000,163.750000 Z" fill="#133d91ff" />
<use xlink:href="#d2" x="1200.532000" y="163.750000" />
<use xlink:href="#d2" x="1200.532000" y="163.750000" />
<path d="M1200.532000,160.000000 L1200.532000,167.500000 L1131.444000,167.500000 L1131.444000,160.000000 Z" fill="#133d91ff" />
<use xlink:href="#d2" x="1131.444000" y="163.750000" />
<use xlink:href="#d3" x="1131.444000" y="212.010000" />
<use xlink:href="#d2" x="1100.532000" y="122.010000" />
<path d="M1104.282000,122.010000 L1096.782000,122.010000 L1096.782000,73.750000 L1104.282000,73.750000 Z" fill="#133d91ff" />
<use xlink:href="#d2" x="1100.532000" y="73.750000" />
<use xlink:href="#d2" x="1100.532000" y="73.750000" />
<path d="M1100.532000,70.000000 L1100.532000,77.500000 L1031.444000,77.500000 L1031.444000,70.000000 Z" fill="#133d91ff" />
<use xlink:href="#d2" x="1031.444000" y="73.750000" />
<use xlink:href="#d3" x="1031.444000" y="122.010000" />
<use xlink:href="#d2" x="1100.532000" y="52.010000" />
<path d="M1104.282000,52.010000 L1096.782000,52.010000 L1096.782000,3.750000 L1104.282000,3.750000 Z" fill="#133d91ff" />
<use xlink:href="#d2" x="1100.532000" y="3.750000" />
<use xlink:href="#d2" x="1100.532000" y="3.750000" />
<path d="M1100.532000,0.000000 L1100.532000,7.500000 L1031.444000,7.500000 L1031.444000,0.000000 Z" fill="#133d91ff" />
<use xlink:href="#d2" x="1031.444000" y="3.750000" />
<use xlink:href="#d3" x="1031.444000" y="52.010000" />
<use xlink:href="#d2" x="1200.532000" y="122.010000" />
<path d="M1204.282000,122.010000 L1196.782000,122.010000 L1196.782000,73.750000 L1204.282000,73.750000 Z" fill="#133d91ff" />
<use xlink:href="#d2" x="1200.532000" y="73.750000" />
<use xlink:href="#d2" x="1200.532000" y="73.750000" />
<path d="M1200.532000,70.000000 L1200.532000,77.500000 L1131.444000,77.500000 L1131.444000,70.000000 Z" fill="#133d91ff" />
<use xlink:href="#d2" x="1131.444000" y="73.750000" />
<use xlink:href="#d3" x="1131.444000" y="122.010000" />
<use xlink:href="#d2" x="1200.532000" y="52.010000" />
<path d="M1204.282000,52.010000 L1196.782000,52.010000 L1196.782000,3.750000 L1204.282000,3.750000 Z" fill="#133d91ff" />
<use xlink:href="#d2" x="1200.532000" y="3.750000" />
<use xlink:href="#d2" x="1200.532000" y="3.750000" />
<path d="M1200.532000,0.000000 L1200.532000,7.500000 L1131.444000,7.500000 L1131.444000,0.000000 Z" fill="#133d91ff" />
<use xlink:href="#d2" x="1131.444000" y="3.750000" />
<use xlink:href="#d3" x="1131.444000" y="52.010000" />
<use xlink:href="#d2" x="1330.532000" y="442.010000" />
<path d="M1334.282000,442.010000 L1326.782000,442.010000 L1326.782000,393.750000 L1334.282000,393.750000 Z" fill="#133d91ff" />
<use xlink:href="#d2" x="1330.532000" y="393.750000" />
<use xlink:href="#d2" x="1330.532000" y="393.750000" />
<path d="M1330.532000,390.000000 L1330.532000,397.500000 L1261.444000,397.500000 L1261.444000,390.000000 Z" fill="#133d91ff" />
<use xlink:href="#d2" x="1261.444000" y="393.750000" />
<use xlink:href="#d3" x="1261.444000" y="442.010000" />
<use xlink:href="#d2" x="1330.532000" y="372.010000" />
<path d="M1334.282000,372.010000 L1326.782000,372.010000 L1326.782000,323.750000 L1334.282000,323.750000 Z" fill="#133d91ff" />
<use xlink:href="#d2" x="1330.532000" y="323.750000" />
<use xlink:href="#d2" x="1330.532000" y="323.750000" />
<path d="M1330.532000,320.000000 L1330.532000,327.500000 L1261.444000,327.500000 L1261.444000,320.000000 Z" fill="#133d91ff" />
<use xlink:href="#d2" x="1261.444000" y="323.750000" />
<use xlink:href="#d3" x="1261.444000" y="372.010000" />
<use xlink:href="#d2" x="1430.532000" y="442.010000" />
<path d="M1434.282000,442.010000 L1426.782000,442.010000 L1426.782000,393.750000 L1434.282000,393.750000 Z" fill="#133d91ff" />
<use xlink:href="#d2" x="1430.532000" y="393.750000" />
<use xlink:href="#d2" x="1430.532000" y="393.750000" />
<path d="M1430.532000,390.000000 L1430.532000,397.500000 L1361.444000,397.500000 L1361.444000,390.000000 Z" fill="#133d91ff" />
<use xlink:href="#d2" x="1361.444000" y="393.750000" />
<use xlink:href="#d3" x="1361.444000" y="442.010000" />
<use xlink:href="#d2" x="1430.532000" y="372.010000" />
<path d="M1434.282000,372.010000 L1426.782000,372.010000 L1426.782000,323.750000 L1434.282000,323.750000 Z" fill="#133d91ff" />
<use xlink:href="#d2" x="1430.532000" y="323.750000" />
<use xlink:href="#d2" x="1430.532000" y="323.750000" />
<path d="M1430.532000,320.000000 L1430.532000,327.500000 L1361.444000,327.500000 L1361.444000,320.000000 Z" fill="#133d91ff" />
<use xlink:href="#d2" x="1361.444000" y="323.750000" />
<use xlink:href="#d3" x="1361.444000" y="372.010000" />
<use xlink:href="#d2" x="1330.532000" y="282.010000" />
<path d="M1334.282000,282.010000 L1326.782000,282.010000 L1326.782000,233.750000 L1334.282000,233.750000 Z" fill="#133d91ff" />
<use xlink:href="#d2" x="1330.532000" y="233.750000" />
<use xlink:href="#d2" x="1330.532000" y="233.750000" />
<path d="M1330.532000,230.000000 L1330.532000,237.500000 L1261.444000,237.500000 L1261.444000,230.000000 Z" fill="#133d91ff" />
<use xlink:href="#d2" x="1261.444000" y="233.750000" />
<use xlink:href="#d3" x="1261.444000" y="282.010000" />
<use xlink:href="#d2" x="1330.532000" y="212.010000" />
<path d="M1334.282000,212.010000 L1326.782000,212.010000 L1326.782000,163.750000 L1334.282000,163.750000 Z" fill="#133d91ff" />
<use xlink:href="#d2" x="1330.532000" y="163.750000" />
<use xlink:href="#d2" x="1330.532000" y="163.750000" />
<path d="M1330.532000,160.000000 L1330.532000,167.500000 L1261.444000,167.500000 L1261.444000,160.000000 Z" fill="#133d91ff" />
<use xlink:href="#d2" x="1261.444000" y="163.750000" />
<use xlink:href="#d3" x="1261.444000" y="212.010000" />
<use xlink:href="#d2" x="1430.532000" y="282.010000" />
<path d="M1434.282000,282.010000 L1426.782000,282.010000 L1426.782000,233.750000 L1434.282000,233.750000 Z" fill="#133d91ff" />
<use xlink:href="#d2" x="1430.532000" y="233.750000" />
<use xlink:href="#d2" x="1430.532000" y="233.750000" />
<path d="M1430.532000,230.000000 L1430.532000,237.500000 L1361.444000,237.500000 L1361.444000,230.000000 Z" fill="#133d91ff" />
<use xlink:href="#d2" x="1361.444000" y="233.750000" />
<use xlink:href="#d3" x="1361.444000" y="282.010000" />
<use xlink:href="#d2" x="1430.532000" y="212.010000" />
<path d="M1434.282000,212.010000 L1426.782000,212.010000 L1426.782000,163.750000 L1434.282000,163.750000 Z" fill="#133d91ff" />
<use xlink:href="#d2" x="1430.532000" y="163.750000" />
<use xlink:href="#d2" x="1430.532000" y="163.750000" />
<path d="M1430.532000,160.000000 L1430.532000,167.500000 L1361.444000,167.500000 L1361.444000,160.000000 Z" fill="#133d91ff" />
<use xlink:href="#d2" x="1361.444000" y="163.750000" />
<use xlink:href="#d3" x="1361.444000" y="212.010000" />
<use xlink:href="#d2" x="1330.532000" y="122.010000" />
<path d="M1334.282000,122.010000 L1326.782000,122.010000 L1326.782000,73.750000 L1334.282000,73.750000 Z" fill="#133d91ff" />
<use xlink:href="#d2" x="1330.532000" y="73.750000" />
<use xlink:href="#d2" x="1330.532000" y="73.750000" />
<path d="M1330.532000,70.000000 L1330.532000,77.500000 L1261.444000,77.500000 L1261.444000,70.000000 Z" fill="#133d91ff" />
<use xlink:href="#d2" x="1261.444000" y="73.750000" />
<use xlink:href="#d3" x="1261.444000" y="122.010000" />
<use xlink:href="#d2" x="1330.532000" y="52.010000" />
<path d="M1334.282000,52.010000 L1326.782000,52.010000 L1326.782000,3.750000 L1334.282000,3.750000 Z" fill="#133d91ff" />
<use xlink:href="#d2" x="1330.532000" y="3.750000" />
<use xlink:href="#d2" x="1330.532000" y="3.750000" />
<path d="M1330.532000,0.000000 L1330.532000,7.500000 L1261.444000,7.500000 L1261.444000,0.000000 Z" fill="#133d91ff" />
<use xlink:href="#d2" x="1261.444000" y="3.750000" />
<use xlink:href="#d3" x="1261.444000" y="52.010000" />
<use xlink:href="#d2" x="1430.532000" y="122.010000" />
<path d="M1434.282000,122.010000 L1426.782000,122.010000 L1426.782000,73.750000 L1434.282000,73.750000 Z" fill="#133d91ff" />
<use xlink:href="#d2" x="1430.532000" y="73.750000" />
<use xlink:href="#d2" x="1430.532000" y="73.750000" />
<path d="M1430.532000,70.000000 L1430.532000,77.500000 L1361.444000,77.500000 L1361.444000,70.000000 Z" fill="#133d91ff" />
<use xlink:href="#d2" x="1361.444000" y="73.750000" />
<use xlink:href="#d3" x="1361.444000" y="122.010000" />
<use xlink:href="#d2" x="1430.532000" y="52.010000" />
<path d="M1434.282000,52.010000 L1426.782000,52.010000 L1426.782000,3.750000 L1434.282000,3.750000 Z" fill="#133d91ff" />
<use xlink:href="#d2" x="1430.532000" y="3.750000" />
<use xlink:href="#d2" x="1430.532000" y="3.750000" />
<path d="M1430.532000,0.000000 L1430.532000,7.500000 L1361.444000,7.500000 L1361.444000,0.000000 Z" fill="#133d91ff" />
<use xlink:href="#d2" x="1361.444000" y="3.750000" />
<use xlink:href="#d3" x="1361.444000" y="52.010000" />
<use xlink:href="#d4" x="1054.500000" y="469.615375" />
</g>
</svg>