<?xml version="1.0" encoding="UTF-8"?>
<svg xmlns="http://www.w3.org/2000/svg" xmlns:xlink="http://www.w3.org/1999/xlink"
     width="24.14384" height="14.97885" viewBox="0 0 24.14384 14.97885">
<defs>
<mask id="d0">
<rect x="-12.07192" y="-7.489425" width="48.28768" height="29.95770" fill="white" />
</mask>
<g id="d1">
<rect x="-1.100000" y="-0.525000" width="2.200000" height="1.050000" fill="#133d91ff" transform="rotate(0.0)" />
</g>
<g id="d2">
<rect x="-0.525000" y="-0.500000" width="1.050000" height="1.000000" fill="#133d91ff" transform="rotate(0.0)" />
</g>
<g id="d3">
<rect x="-0.475000" y="-0.225000" width="0.950000" height="0.450000" fill="#133d91ff" transform="rotate(0.0)" />
</g>
<g id="d4">
<circle cx="0" cy="0" r="0.1270" fill="#133d91ff" />
</g>
<g id="d5">
<circle cx="0" cy="0" r="3.5000" fill="#133d91ff" />
</g>
<g id="d6">
<circle cx="0" cy="0" r="0.5000" fill="#133d91ff" />
</g>
<g id="d7">
<circle cx="0" cy="0" r="0.5000" fill="#133d91ff" />
</g>
<g id="d8">
<circle cx="0" cy="0" r="0.6350" fill="#133d91ff" />
</g>
</defs>
<g mask="url(#d0)">
<g></g>
<use xlink:href="#d1" x="7.64384" y="13.64385" />
<use xlink:href="#d1" x="7.64384" y="10.69385" />
<use xlink:href="#d2" x="6.11885" y="12.16885" />
<use xlink:href="#d3" x="18.96484" y="9.94785" />
<use xlink:href="#d3" x="18.96484" y="10.74785" />
<use xlink:href="#d3" x="18.96484" y="11.54785" />
<use xlink:href="#d3" x="18.96484" y="12.34785" />
<use xlink:href="#d3" x="20.71484" y="9.94785" />
<use xlink:href="#d3" x="20.71484" y="10.74785" />
<use xlink:href="#d3" x="20.71484" y="11.54785" />
<use xlink:href="#d3" x="20.71484" y="12.34785" />
<use xlink:href="#d3" x="13.63084" y="9.94785" />
<use xlink:href="#d3" x="13.63084" y="10.74785" />
<use xlink:href="#d3" x="13.63084" y="11.54785" />
<use xlink:href="#d3" x="13.63084" y="12.34785" />
<use xlink:href="#d3" x="15.38084" y="9.94785" />
<use xlink:href="#d3" x="15.38084" y="10.74785" />
<use xlink:href="#d3" x="15.38084" y="11.54785" />
<use xlink:href="#d3" x="15.38084" y="12.34785" />
<use xlink:href="#d4" x="18.94384" y="12.36885" />
<path d="M19.033642561210691535598907233987315827989174164086436202647,12.4586525612106915355989072339873158279891741640864362026467 L18.854037438789308464401092766012684172010825835913563797353,12.2790474387893084644010927660126841720108258359135637973533 L18.875037438789308464401092766012684172010825835913563797353,12.2580474387893084644010927660126841720108258359135637973533 L19.054642561210691535598907233987315827989174164086436202647,12.4376525612106915355989072339873158279891741640864362026467 Z" fill="#133d91ff" />
<use xlink:href="#d4" x="18.96484" y="12.34785" />
<use xlink:href="#d4" x="18.94384" y="14.24385" />
<path d="M19.07084,14.24385 L18.81684,14.24385 L18.81684,12.36885 L19.07084,12.36885 Z" fill="#133d91ff" />
<use xlink:href="#d4" x="18.94384" y="12.36885" />
<use xlink:href="#d4" x="15.34384" y="12.38485" />
<path d="M15.433642561210691535598907233987315827989174164086436202647,12.4746525612106915355989072339873158279891741640864362026467 L15.254037438789308464401092766012684172010825835913563797353,12.2950474387893084644010927660126841720108258359135637973533 L15.291037438789308464401092766012684172010825835913563797353,12.2580474387893084644010927660126841720108258359135637973533 L15.470642561210691535598907233987315827989174164086436202647,12.4376525612106915355989072339873158279891741640864362026467 Z" fill="#133d91ff" />
<use xlink:href="#d4" x="15.38084" y="12.34785" />
<use xlink:href="#d4" x="15.34384" y="14.34385" />
<path d="M15.47084,14.34385 L15.21684,14.34385 L15.21684,12.38485 L15.47084,12.38485 Z" fill="#133d91ff" />
<use xlink:href="#d4" x="15.34384" y="12.38485" />
<use xlink:href="#d4" x="13.63084" y="12.34785" />
<path d="M13.541037438789308464401092766012684172010825835913563797353,12.4376525612106915355989072339873158279891741640864362026467 L13.720642561210691535598907233987315827989174164086436202647,12.2580474387893084644010927660126841720108258359135637973533 L13.733642561210691535598907233987315827989174164086436202647,12.2710474387893084644010927660126841720108258359135637973533 L13.554037438789308464401092766012684172010825835913563797353,12.4506525612106915355989072339873158279891741640864362026467 Z" fill="#133d91ff" />
<use xlink:href="#d4" x="13.64384" y="12.36085" />
<use xlink:href="#d4" x="20.71484" y="12.34785" />
<path d="M20.71484,12.47485 L20.71484,12.22085 L20.96484,12.22085 L20.96484,12.47485 Z" fill="#133d91ff" />
<use xlink:href="#d4" x="20.96484" y="12.34785" />
<use xlink:href="#d4" x="20.96484" y="12.34785" />
<path d="M20.875037438789308464401092766012684172010825835913563797353,12.4376525612106915355989072339873158279891741640864362026467 L21.054642561210691535598907233987315827989174164086436202647,12.2580474387893084644010927660126841720108258359135637973533 L22.350642561210691535598907233987315827989174164086436202647,13.5540474387893084644010927660126841720108258359135637973533 L22.171037438789308464401092766012684172010825835913563797353,13.7336525612106915355989072339873158279891741640864362026467 Z" fill="#133d91ff" />
<use xlink:href="#d4" x="22.26084" y="13.64385" />
<use xlink:href="#d4" x="22.26084" y="13.64385" />
<path d="M22.26084,13.77085 L22.26084,13.51685 L23.64384,13.51685 L23.64384,13.77085 Z" fill="#133d91ff" />
<use xlink:href="#d4" x="23.64384" y="13.64385" />
<use xlink:href="#d4" x="20.71484" y="9.94785" />
<path d="M20.71484,10.07485 L20.71484,9.82085 L23.13797,9.82085 L23.13797,10.07485 Z" fill="#133d91ff" />
<use xlink:href="#d4" x="23.13797" y="9.94785" />
<use xlink:href="#d4" x="23.13797" y="9.94785" />
<path d="M23.227772561210691535598907233987315827989174164086436202647,10.0376525612106915355989072339873158279891741640864362026467 L23.048167438789308464401092766012684172010825835913563797353,9.8580474387893084644010927660126841720108258359135637973533 L23.352167438789308464401092766012684172010825835913563797353,9.5540474387893084644010927660126841720108258359135637973533 L23.531772561210691535598907233987315827989174164086436202647,9.7336525612106915355989072339873158279891741640864362026467 Z" fill="#133d91ff" />
<use xlink:href="#d4" x="23.44197" y="9.64385" />
<use xlink:href="#d4" x="23.44197" y="9.64385" />
<path d="M23.44197,9.77085 L23.44197,9.51685 L23.64384,9.51685 L23.64384,9.77085 Z" fill="#133d91ff" />
<use xlink:href="#d4" x="23.64384" y="9.64385" />
<use xlink:href="#d4" x="7.64384" y="10.69385" />
<path d="M7.733642561210691535598907233987315827989174164086436202647,10.7836525612106915355989072339873158279891741640864362026467 L7.554037438789308464401092766012684172010825835913563797353,10.6040474387893084644010927660126841720108258359135637973533 L7.604037438789308464401092766012684172010825835913563797353,10.5540474387893084644010927660126841720108258359135637973533 L7.783642561210691535598907233987315827989174164086436202647,10.7336525612106915355989072339873158279891741640864362026467 Z" fill="#133d91ff" />
<use xlink:href="#d4" x="7.69384" y="10.64385" />
<use xlink:href="#d4" x="7.69384" y="10.64385" />
<path d="M7.69384,10.77085 L7.69384,10.51685 L10.64384,10.51685 L10.64384,10.77085 Z" fill="#133d91ff" />
<use xlink:href="#d4" x="10.64384" y="10.64385" />
<use xlink:href="#d4" x="11.54785" y="11.54785" />
<path d="M11.54785,11.67485 L11.54785,11.42085 L13.63084,11.42085 L13.63084,11.67485 Z" fill="#133d91ff" />
<use xlink:href="#d4" x="13.63084" y="11.54785" />
<use xlink:href="#d4" x="10.64384" y="10.64385" />
<path d="M10.554037935483516769307046753084155018261965989274766087127,10.7336530579021526608171865760446825463949116438448215813900 L10.733642064516483230692953246915844981738034010725233912873,10.5540469420978473391828134239553174536050883561551784186100 L11.637652064516483230692953246915844981738034010725233912873,11.4580469420978473391828134239553174536050883561551784186100 L11.458047935483516769307046753084155018261965989274766087127,11.6376530579021526608171865760446825463949116438448215813900 Z" fill="#133d91ff" />
<use xlink:href="#d4" x="11.54785" y="11.54785" />
<use xlink:href="#d4" x="11.93985" y="12.34785" />
<path d="M11.93985,12.47485 L11.93985,12.22085 L13.63084,12.22085 L13.63084,12.47485 Z" fill="#133d91ff" />
<use xlink:href="#d4" x="13.63084" y="12.34785" />
<use xlink:href="#d4" x="10.64384" y="13.64385" />
<path d="M10.733642214750861366717856382626654099178412176879762921130,13.7336529076691850616358094525061496752131280596897697094238 L10.554037785249138633282143617373345900821587823120237078870,13.5540470923308149383641905474938503247868719403102302905762 L11.850047785249138633282143617373345900821587823120237078870,12.2580470923308149383641905474938503247868719403102302905762 L12.029652214750861366717856382626654099178412176879762921130,12.4376529076691850616358094525061496752131280596897697094238 Z" fill="#133d91ff" />
<use xlink:href="#d4" x="11.93985" y="12.34785" />
<use xlink:href="#d4" x="7.64384" y="13.64385" />
<path d="M7.64384,13.77085 L7.64384,13.51685 L10.64384,13.51685 L10.64384,13.77085 Z" fill="#133d91ff" />
<use xlink:href="#d4" x="10.64384" y="13.64385" />
<use xlink:href="#d4" x="15.38084" y="11.54785" />
<path d="M15.38084,11.67485 L15.38084,11.42085 L18.96484,11.42085 L18.96484,11.67485 Z" fill="#133d91ff" />
<use xlink:href="#d4" x="18.96484" y="11.54785" />
<use xlink:href="#d4" x="15.38084" y="10.74785" />
<path d="M15.38084,10.87485 L15.38084,10.62085 L18.96484,10.62085 L18.96484,10.87485 Z" fill="#133d91ff" />
<use xlink:href="#d4" x="18.96484" y="10.74785" />
<use xlink:href="#d4" x="15.38084" y="9.94785" />
<path d="M15.38084,10.07485 L15.38084,9.82085 L18.96484,9.82085 L18.96484,10.07485 Z" fill="#133d91ff" />
<use xlink:href="#d4" x="18.96484" y="9.94785" />
<use xlink:href="#d4" x="5.16883" y="12.16885" />
<path d="M5.16883,12.29585 L5.16883,12.04185 L6.11885,12.04185 L6.11885,12.29585 Z" fill="#133d91ff" />
<use xlink:href="#d4" x="6.11885" y="12.16885" />
<use xlink:href="#d4" x="4.64384" y="11.64385" />
<path d="M4.554036583522748103804983612034576127736606669432284157469,11.7336517059359856628255650543199388165705883135518955050859 L4.733643416477251896195016387965423872263393330567715842531,11.5540482940640143371744349456800611834294116864481044949141 L5.258633416477251896195016387965423872263393330567715842531,12.0790482940640143371744349456800611834294116864481044949141 L5.079026583522748103804983612034576127736606669432284157469,12.2586517059359856628255650543199388165705883135518955050859 Z" fill="#133d91ff" />
<use xlink:href="#d4" x="5.16883" y="12.16885" />
<use xlink:href="#d4" x="4.64384" y="11.64385" />
<path d="M4.77084,11.64385 L4.51684,11.64385 L4.51684,10.64385 L4.77084,10.64385 Z" fill="#133d91ff" />
<use xlink:href="#d4" x="4.64384" y="10.64385" />
<use xlink:href="#d4" x="4.64384" y="10.64385" />
<path d="M4.733642561210691535598907233987315827989174164086436202647,10.7336525612106915355989072339873158279891741640864362026467 L4.554037438789308464401092766012684172010825835913563797353,10.5540474387893084644010927660126841720108258359135637973533 L5.554037438789308464401092766012684172010825835913563797353,9.5540474387893084644010927660126841720108258359135637973533 L5.733642561210691535598907233987315827989174164086436202647,9.7336525612106915355989072339873158279891741640864362026467 Z" fill="#133d91ff" />
<use xlink:href="#d4" x="5.64384" y="9.64385" />
<use xlink:href="#d4" x="5.64384" y="9.64385" />
<path d="M5.64384,9.77085 L5.64384,9.51685 L11.64384,9.51685 L11.64384,9.77085 Z" fill="#133d91ff" />
<use xlink:href="#d4" x="11.64384" y="9.64385" />
<use xlink:href="#d4" x="12.74784" y="10.74785" />
<path d="M12.74784,10.87485 L12.74784,10.62085 L13.63084,10.62085 L13.63084,10.87485 Z" fill="#133d91ff" />
<use xlink:href="#d4" x="13.63084" y="10.74785" />
<use xlink:href="#d4" x="11.64384" y="9.64385" />
<path d="M11.554037438789308464401092766012684172010825835913563797353,9.7336525612106915355989072339873158279891741640864362026467 L11.733642561210691535598907233987315827989174164086436202647,9.5540474387893084644010927660126841720108258359135637973533 L12.837642561210691535598907233987315827989174164086436202647,10.6580474387893084644010927660126841720108258359135637973533 L12.658037438789308464401092766012684172010825835913563797353,10.8376525612106915355989072339873158279891741640864362026467 Z" fill="#133d91ff" />
<use xlink:href="#d4" x="12.74784" y="10.74785" />
<use xlink:href="#d5" x="3.50000" y="3.50000" />
<use xlink:href="#d6" x="3.50000" y="6.12500" />
<use xlink:href="#d6" x="1.64384" y="5.35616" />
<use xlink:href="#d6" x="0.87500" y="3.50000" />
<use xlink:href="#d6" x="5.35615" y="5.35616" />
<use xlink:href="#d6" x="6.12500" y="3.50000" />
<use xlink:href="#d6" x="5.35615" y="1.64385" />
<use xlink:href="#d6" x="3.50000" y="0.87500" />
<use xlink:href="#d6" x="1.64384" y="1.64385" />
<use xlink:href="#d7" x="23.64384" y="9.64385" />
<use xlink:href="#d7" x="23.64384" y="13.64385" />
<use xlink:href="#d8" x="18.94384" y="14.24385" />
<use xlink:href="#d8" x="15.34384" y="14.34385" />
</g>
</svg>