<?xml version="1.0" encoding="UTF-8"?>
<svg xmlns="http://www.w3.org/2000/svg" xmlns:xlink="http://www.w3.org/1999/xlink"
     width="42.650000" height="38.050000" viewBox="0 0 42.650000 38.050000">
<defs>
<mask id="d0">
<rect x="-21.325000" y="-19.025000" width="85.300000" height="76.100000" fill="white" />
</mask>
<mask id="d1">
<rect x="-21.325000" y="-19.025000" width="85.300000" height="76.100000" fill="white" />
<path d="M10.05000000,13.00000000 L10.05000000,8.00000000 A2.50000000,2.50000000,0,0,1,12.55000000,5.50000000 L30.05000000,5.50000000 A3.75000000,3.75000000,0,1,1,30.05000000,13.00000000 L10.05000000,13.00000000 Z" fill="black" />
</mask>
<g id="d2">
<circle cx="0" cy="0" r="0.05" fill="#133d91ff" />
</g>
<g id="d3">
<circle cx="0" cy="0" r="0.3" fill="#133d91ff" />
</g>
<g id="d4">
<rect x="-0.30" y="-0.30" width="0.60" height="0.60" fill="#133d91ff" transform="rotate(-0.0)" />
</g>
<g id="d5">
<rect x="-0.20" y="-0.500" width="0.40" height="1.000" fill="#133d91ff" transform="rotate(-0.0)" />
</g>
<g id="d6">
<rect x="-0.500" y="-0.20" width="1.000" height="0.40" fill="#133d91ff" transform="rotate(-0.0)" />
</g>
<g id="d7">
<rect x="-0.20" y="-0.500" width="0.40" height="1.000" fill="#133d91ff" rx="0.2" ry="0.2" transform="rotate(-0.0)" />
</g>
<g id="d8">
<path d="M0.50000000,0.00000000 L-0.25000000,0.43301270 L-0.25000000,-0.43301270 Z" fill="#133d91ff" />
</g>
<g id="d9"></g>
</defs>
<g mask="url(#d0)">
<g mask="url(#d1)">
<g></g>
<use xlink:href="#d2" x="0.050000" y="35.500000" />
<path d="M0.000000,35.500000 L0.100000,35.500000 L0.100000,38.000000 L0.000000,38.000000 Z" fill="#133d91ff" />
<use xlink:href="#d2" x="0.050000" y="38.000000" />
<use xlink:href="#d2" x="0.050000" y="38.000000" />
<path d="M0.050000,38.050000 L0.050000,37.950000 L2.550000,37.950000 L2.550000,38.050000 Z" fill="#133d91ff" />
<use xlink:href="#d2" x="2.550000" y="38.000000" />
<use xlink:href="#d2" x="10.050000" y="28.000000" />
<path d="M10.050000,28.050000 L10.050000,27.950000 L15.050000,27.950000 L15.050000,28.050000 Z" fill="#133d91ff" />
<use xlink:href="#d2" x="15.050000" y="28.000000" />
<use xlink:href="#d2" x="15.050000" y="28.000000" />
<path d="M15.0853553390593273762200422181052424519642417968844237018294,28.0353553390593273762200422181052424519642417968844237018294 L15.0146446609406726237799577818947575480357582031155762981706,27.9646446609406726237799577818947575480357582031155762981706 L20.0146446609406726237799577818947575480357582031155762981706,22.9646446609406726237799577818947575480357582031155762981706 L20.0853553390593273762200422181052424519642417968844237018294,23.0353553390593273762200422181052424519642417968844237018294 Z" fill="#133d91ff" />
<use xlink:href="#d2" x="20.050000" y="23.000000" />
<use xlink:href="#d2" x="25.050000" y="23.000000" />
<path d="M25.000000,23.000000 L25.100000,23.000000 L25.100000,28.000000 L25.000000,28.000000 Z" fill="#133d91ff" />
<use xlink:href="#d2" x="25.050000" y="28.000000" />
<use xlink:href="#d3" x="10.050000" y="28.000000" />
<use xlink:href="#d3" x="20.050000" y="28.000000" />
<use xlink:href="#d3" x="25.050000" y="28.000000" />
<use xlink:href="#d3" x="25.050000" y="23.000000" />
<use xlink:href="#d3" x="20.050000" y="23.000000" />
<use xlink:href="#d4" x="10.050000" y="23.000000" />
<use xlink:href="#d5" x="30.050000" y="23.000000" />
<use xlink:href="#d6" x="30.050000" y="25.500000" />
<use xlink:href="#d7" x="30.050000" y="28.000000" />
<use xlink:href="#d2" x="37.550000" y="28.000000" />
<path d="M37.50000000,28.00000000 A2.55000000,2.55000000,0,1,1,42.60000000,28.00000000 L42.50000000,28.00000000 A2.45000000,2.45000000,0,0,0,37.60000000,28.00000000 Z" fill="#133d91ff" />
<use xlink:href="#d2" x="42.550000" y="28.000000" />
<use xlink:href="#d2" x="42.550000" y="28.000000" />
<path d="M42.60000000,28.00000000 A2.55000000,2.55000000,0,1,1,37.50000000,28.00000000 L37.60000000,28.00000000 A2.45000000,2.45000000,0,0,0,42.50000000,28.00000000 Z" fill="#133d91ff" />
<use xlink:href="#d2" x="37.550000" y="28.000000" />
<use xlink:href="#d8" x="34.050000" y="28.000000" />
<use xlink:href="#d8" x="35.050000" y="29.000000" />
<path d="M5.05000000,18.00000000 L5.05000000,0.50000000 L37.55000000,0.50000000 L37.55000000,18.00000000 L5.05000000,18.00000000 Z" fill="#155c82ff" />
</g>
<use xlink:href="#d2" x="15.050000" y="9.250000" />
<path d="M15.050000,9.300000 L15.050000,9.200000 L20.050000,9.200000 L20.050000,9.300000 Z" fill="#133d91ff" />
<use xlink:href="#d2" x="20.050000" y="9.250000" />
<use xlink:href="#d3" x="15.050000" y="9.250000" />
<use xlink:href="#d3" x="20.050000" y="9.250000" />
<use xlink:href="#d9" x="28.800000" y="9.250000" />
</g>
</svg>