<?xml version="1.0" encoding="UTF-8"?>
<svg xmlns="http://www.w3.org/2000/svg" xmlns:xlink="http://www.w3.org/1999/xlink"
     width="38.000000" height="40.000000" viewBox="0 0 38.000000 40.000000">
<defs>
<mask id="d0">
<rect x="-19.000000" y="-20.000000" width="76.000000" height="80.000000" fill="white" />
</mask>
<mask id="d1">
<rect x="-19.000000" y="-20.000000" width="76.000000" height="80.000000" fill="white" />
</mask>
<g id="d2">
<circle cx="0" cy="0" r="0.15000" fill="#133d91ff" />
</g>
<g id="d3">
<circle cx="0" cy="0" r="0.15000" fill="#133d91ff" />
</g>
<g id="d4">
<circle cx="0" cy="0" r="0.15000" fill="#133d91ff" />
</g>
<g id="d5">
<circle cx="0" cy="0" r="0.15000" fill="#133d91ff" />
</g>
<g mask="url(#d1)" id="d6">
<g></g>
<path d="M-0.825000,-0.150000 L0.825000,-0.150000 L0.825000,0.150000 L-0.825000,0.150000 L-0.825000,-0.150000 L-0.825000,-0.150000 Z" fill="#155c82ff" />
<use xlink:href="#d2" x="-0.825000" y="-0.150000" />
<use xlink:href="#d3" x="0.825000" y="-0.150000" />
<use xlink:href="#d4" x="0.825000" y="0.150000" />
<use xlink:href="#d5" x="-0.825000" y="0.150000" />
<path d="M-0.825000,-0.300000 L-0.825000,0.000000 L0.825000,0.000000 L0.825000,-0.300000 Z" fill="#133d91ff" />
<path d="M0.975000,-0.150000 L0.675000,-0.150000 L0.675000,0.150000 L0.975000,0.150000 Z" fill="#133d91ff" />
<path d="M0.825000,0.300000 L0.825000,0.000000 L-0.825000,0.000000 L-0.825000,0.300000 Z" fill="#133d91ff" />
<path d="M-0.975000,0.150000 L-0.675000,0.150000 L-0.675000,-0.150000 L-0.975000,-0.150000 Z" fill="#133d91ff" />
</g>
<g id="d7">
<circle cx="0" cy="0" r="0.40000" fill="#133d91ff" />
</g>
<g id="d8">
<circle cx="0" cy="0" r="0.25000" fill="#133d91ff" />
</g>
<g id="d9">
<circle cx="0" cy="0" r="0.50000" fill="#133d91ff" />
</g>
</defs>
<g mask="url(#d0)">
<g></g>
<use xlink:href="#d6" x="8.025000" y="18.690000" />
<use xlink:href="#d6" x="8.025000" y="19.960000" />
<use xlink:href="#d6" x="8.025000" y="21.230000" />
<use xlink:href="#d6" x="8.025000" y="22.500000" />
<use xlink:href="#d6" x="8.025000" y="23.770000" />
<use xlink:href="#d6" x="8.025000" y="25.040000" />
<use xlink:href="#d6" x="8.025000" y="26.310000" />
<use xlink:href="#d6" x="12.975000" y="26.310000" />
<use xlink:href="#d6" x="12.975000" y="25.040000" />
<use xlink:href="#d6" x="12.975000" y="23.770000" />
<use xlink:href="#d6" x="12.975000" y="22.500000" />
<use xlink:href="#d6" x="12.975000" y="21.230000" />
<use xlink:href="#d6" x="12.975000" y="19.960000" />
<use xlink:href="#d6" x="12.975000" y="18.690000" />
<use xlink:href="#d7" x="20.500000" y="21.500000" />
<use xlink:href="#d8" x="17.690000" y="18.690000" />
<path d="M17.513223304703363118899788909473787740178791015577881490853,18.8667766952966368811002110905262122598212089844221185091471 L17.866776695296636881100211090526212259821208984422118509147,18.5132233047033631188997889094737877401787910155778814908529 L20.676776695296636881100211090526212259821208984422118509147,21.3232233047033631188997889094737877401787910155778814908529 L20.323223304703363118899788909473787740178791015577881490853,21.6767766952966368811002110905262122598212089844221185091471 Z" fill="#133d91ff" />
<use xlink:href="#d8" x="20.500000" y="21.500000" />
<use xlink:href="#d8" x="12.975000" y="18.690000" />
<path d="M12.975000,18.940000 L12.975000,18.440000 L17.690000,18.440000 L17.690000,18.940000 Z" fill="#133d91ff" />
<use xlink:href="#d8" x="17.690000" y="18.690000" />
<use xlink:href="#d9" x="34.500000" y="3.500000" />
<path d="M34.500000,3.000000 L34.500000,4.000000 L30.500000,4.000000 L30.500000,3.000000 Z" fill="#133d91ff" />
<use xlink:href="#d9" x="30.500000" y="3.500000" />
<use xlink:href="#d9" x="34.500000" y="13.500000" />
<path d="M35.000000,13.500000 L34.000000,13.500000 L34.000000,8.500000 L35.000000,8.500000 Z" fill="#133d91ff" />
<use xlink:href="#d9" x="34.500000" y="8.500000" />
<use xlink:href="#d9" x="34.500000" y="8.500000" />
<path d="M35.000000,8.500000 L34.000000,8.500000 L34.000000,3.500000 L35.000000,3.500000 Z" fill="#133d91ff" />
<use xlink:href="#d9" x="34.500000" y="3.500000" />
<use xlink:href="#d9" x="30.500000" y="13.500000" />
<path d="M30.500000,14.000000 L30.500000,13.000000 L34.500000,13.000000 L34.500000,14.000000 Z" fill="#133d91ff" />
<use xlink:href="#d9" x="34.500000" y="13.500000" />
<use xlink:href="#d9" x="30.500000" y="3.500000" />
<path d="M30.000000,3.500000 L31.000000,3.500000 L31.000000,8.500000 L30.000000,8.500000 Z" fill="#133d91ff" />
<use xlink:href="#d9" x="30.500000" y="8.500000" />
<use xlink:href="#d9" x="30.500000" y="8.500000" />
<path d="M30.000000,8.500000 L31.000000,8.500000 L31.000000,13.500000 L30.000000,13.500000 Z" fill="#133d91ff" />
<use xlink:href="#d9" x="30.500000" y="13.500000" />
<use xlink:href="#d9" x="23.500000" y="13.500000" />
<path d="M23.500000,14.000000 L23.500000,13.000000 L27.500000,13.000000 L27.500000,14.000000 Z" fill="#133d91ff" />
<use xlink:href="#d9" x="27.500000" y="13.500000" />
<use xlink:href="#d9" x="23.500000" y="3.500000" />
<path d="M23.000000,3.500000 L24.000000,3.500000 L24.000000,8.500000 L23.000000,8.500000 Z" fill="#133d91ff" />
<use xlink:href="#d9" x="23.500000" y="8.500000" />
<use xlink:href="#d9" x="23.500000" y="8.500000" />
<path d="M23.000000,8.500000 L24.000000,8.500000 L24.000000,13.500000 L23.000000,13.500000 Z" fill="#133d91ff" />
<use xlink:href="#d9" x="23.500000" y="13.500000" />
<use xlink:href="#d9" x="16.500000" y="13.500000" />
<path d="M16.500000,14.000000 L16.500000,13.000000 L20.500000,13.000000 L20.500000,14.000000 Z" fill="#133d91ff" />
<use xlink:href="#d9" x="20.500000" y="13.500000" />
<use xlink:href="#d9" x="16.500000" y="3.500000" />
<path d="M16.000000,3.500000 L17.000000,3.500000 L17.000000,8.500000 L16.000000,8.500000 Z" fill="#133d91ff" />
<use xlink:href="#d9" x="16.500000" y="8.500000" />
<use xlink:href="#d9" x="16.500000" y="8.500000" />
<path d="M16.000000,8.500000 L17.000000,8.500000 L17.000000,13.500000 L16.000000,13.500000 Z" fill="#133d91ff" />
<use xlink:href="#d9" x="16.500000" y="13.500000" />
<use xlink:href="#d9" x="9.500000" y="8.500000" />
<path d="M9.500000,9.000000 L9.500000,8.000000 L11.500000,8.000000 L11.500000,9.000000 Z" fill="#133d91ff" />
<use xlink:href="#d9" x="11.500000" y="8.500000" />
<use xlink:href="#d9" x="9.500000" y="3.500000" />
<path d="M9.000000,3.500000 L10.000000,3.500000 L10.000000,8.500000 L9.000000,8.500000 Z" fill="#133d91ff" />
<use xlink:href="#d9" x="9.500000" y="8.500000" />
<use xlink:href="#d9" x="9.500000" y="8.500000" />
<path d="M9.000000,8.500000 L10.000000,8.500000 L10.000000,13.500000 L9.000000,13.500000 Z" fill="#133d91ff" />
<use xlink:href="#d9" x="9.500000" y="13.500000" />
<use xlink:href="#d9" x="9.500000" y="3.500000" />
<path d="M9.500000,4.000000 L9.500000,3.000000 L13.500000,3.000000 L13.500000,4.000000 Z" fill="#133d91ff" />
<use xlink:href="#d9" x="13.500000" y="3.500000" />
<use xlink:href="#d9" x="9.500000" y="13.500000" />
<path d="M9.500000,14.000000 L9.500000,13.000000 L13.500000,13.000000 L13.500000,14.000000 Z" fill="#133d91ff" />
<use xlink:href="#d9" x="13.500000" y="13.500000" />
<use xlink:href="#d9" x="6.500000" y="3.500000" />
<path d="M6.000000,3.500000 L7.000000,3.500000 L7.000000,13.500000 L6.000000,13.500000 Z" fill="#133d91ff" />
<use xlink:href="#d9" x="6.500000" y="13.500000" />
<use xlink:href="#d9" x="1.500000" y="13.500000" />
<path d="M2.000000,13.500000 L1.000000,13.500000 L1.000000,8.500000 L2.000000,8.500000 Z" fill="#133d91ff" />
<use xlink:href="#d9" x="1.500000" y="8.500000" />
<use xlink:href="#d9" x="1.500000" y="8.500000" />
<path d="M2.000000,8.500000 L1.000000,8.500000 L1.000000,3.500000 L2.000000,3.500000 Z" fill="#133d91ff" />
<use xlink:href="#d9" x="1.500000" y="3.500000" />
<use xlink:href="#d9" x="6.500000" y="8.500000" />
<path d="M6.500000,8.000000 L6.500000,9.000000 L1.500000,9.000000 L1.500000,8.000000 Z" fill="#133d91ff" />
<use xlink:href="#d9" x="1.500000" y="8.500000" />
<path d="M37.443039,0.519685 L37.488794,0.572489 L37.500000,0.624000 L37.500000,39.376000 L37.480315,39.443039 L37.427511,39.488794 L37.376000,39.500000 L0.624000,39.500000 L0.556961,39.480315 L0.511206,39.427511 L0.500000,39.376000 L0.500000,26.525701 L6.549500,26.525701 L6.552401,26.562567 L6.552402,26.562573 L6.598254,26.720393 L6.598255,26.720396 L6.681917,26.861862 L6.681923,26.861870 L6.798129,26.978076 L6.798133,26.978079 L6.798135,26.978081 L6.939602,27.061744 L6.981224,27.073836 L7.097426,27.107597 L7.097429,27.107597 L7.097431,27.107598 L7.134306,27.110500 L7.134314,27.110500 L8.915686,27.110500 L8.915694,27.110500 L8.952569,27.107598 L8.952571,27.107597 L8.952573,27.107597 L8.994191,27.095505 L9.110398,27.061744 L9.251865,26.978081 L9.368081,26.861865 L9.451744,26.720398 L9.497598,26.562569 L9.500499,26.525701 L11.499500,26.525701 L11.502401,26.562567 L11.502402,26.562573 L11.548254,26.720393 L11.548255,26.720396 L11.631917,26.861862 L11.631923,26.861870 L11.748129,26.978076 L11.748133,26.978079 L11.748135,26.978081 L11.889602,27.061744 L11.931224,27.073836 L12.047426,27.107597 L12.047429,27.107597 L12.047431,27.107598 L12.084306,27.110500 L12.084314,27.110500 L13.865686,27.110500 L13.865694,27.110500 L13.902569,27.107598 L13.902571,27.107597 L13.902573,27.107597 L13.944191,27.095505 L14.060398,27.061744 L14.201865,26.978081 L14.318081,26.861865 L14.401744,26.720398 L14.447598,26.562569 L14.450500,26.525694 L14.450500,26.094306 L14.447598,26.057431 L14.401744,25.899602 L14.361382,25.831353 L14.318084,25.758139 L14.313301,25.751974 L14.315745,25.750077 L14.289142,25.701358 L14.294126,25.631666 L14.314932,25.599291 L14.313301,25.598026 L14.318077,25.591868 L14.318081,25.591865 L14.401744,25.450398 L14.447598,25.292569 L14.450500,25.255694 L14.450500,24.824306 L14.447598,24.787431 L14.401744,24.629602 L14.361382,24.561353 L14.318084,24.488139 L14.313301,24.481974 L14.315745,24.480077 L14.289142,24.431358 L14.294126,24.361666 L14.314932,24.329291 L14.313301,24.328026 L14.318077,24.321868 L14.318081,24.321865 L14.401744,24.180398 L14.447598,24.022569 L14.450500,23.985694 L14.450500,23.554306 L14.447598,23.517431 L14.401744,23.359602 L14.361382,23.291353 L14.318084,23.218139 L14.313301,23.211974 L14.315745,23.210077 L14.289142,23.161358 L14.294126,23.091666 L14.314932,23.059291 L14.313301,23.058026 L14.318077,23.051868 L14.318081,23.051865 L14.401744,22.910398 L14.447598,22.752569 L14.450500,22.715694 L14.450500,22.284306 L14.447598,22.247431 L14.401744,22.089602 L14.361382,22.021353 L14.318084,21.948139 L14.313301,21.941974 L14.315745,21.940077 L14.289142,21.891358 L14.294126,21.821666 L14.314932,21.789291 L14.313301,21.788026 L14.318077,21.781868 L14.318081,21.781865 L14.401744,21.640398 L14.447598,21.482569 L14.450500,21.445694 L14.450500,21.014306 L14.447598,20.977431 L14.444795,20.967784 L14.403926,20.827112 L14.401744,20.819602 L14.340385,20.715849 L14.318084,20.678139 L14.313301,20.671974 L14.315745,20.670077 L14.289142,20.621358 L14.294126,20.551666 L14.314932,20.519291 L14.313301,20.518026 L14.318077,20.511868 L14.318081,20.511865 L14.401744,20.370398 L14.447598,20.212569 L14.450500,20.175694 L14.450500,19.744306 L14.447598,19.707431 L14.447597,19.707426 L14.416124,19.599095 L14.416323,19.529225 L14.454265,19.470555 L14.517904,19.441712 L14.535200,19.440500 L17.327770,19.440500 L17.394809,19.460185 L17.415451,19.476819 L19.587228,21.648595 L19.617478,21.697958 L19.672818,21.868277 L19.672821,21.868284 L19.767467,22.032216 L19.894128,22.172887 L19.894129,22.172888 L20.047265,22.284148 L20.047270,22.284151 L20.220192,22.361142 L20.220197,22.361144 L20.405354,22.400500 L20.405355,22.400500 L20.594644,22.400500 L20.594646,22.400500 L20.779803,22.361144 L20.952730,22.284151 L21.105871,22.172888 L21.232533,22.032216 L21.327179,21.868284 L21.385674,21.688256 L21.405460,21.500000 L21.385674,21.311744 L21.327179,21.131716 L21.232533,20.967784 L21.105871,20.827112 L21.095536,20.819603 L20.952734,20.715851 L20.952729,20.715848 L20.779807,20.638857 L20.779803,20.638856 L20.714669,20.625011 L20.653188,20.591818 L20.652770,20.591402 L18.265729,18.204361 L18.253949,18.190730 L18.246482,18.180701 L18.239612,18.171472 L18.199885,18.138137 L18.199587,18.137886 L18.195612,18.134244 L18.192690,18.131322 L18.189779,18.128410 L18.164736,18.108609 L18.163338,18.107470 L18.105214,18.058698 L18.099180,18.054729 L18.099212,18.054680 L18.092853,18.050628 L18.092822,18.050679 L18.086680,18.046891 L18.086678,18.046890 L18.086677,18.046889 L18.017872,18.014804 L18.016252,18.014019 L17.976512,17.994061 L17.948433,17.979960 L17.948431,17.979959 L17.948430,17.979959 L17.941645,17.977489 L17.941665,17.977433 L17.934549,17.974959 L17.934531,17.975015 L17.927674,17.972743 L17.853328,17.957391 L17.851569,17.957001 L17.777718,17.939499 L17.770547,17.938661 L17.770553,17.938601 L17.763055,17.937835 L17.763050,17.937895 L17.755860,17.937265 L17.679968,17.939474 L17.678165,17.939500 L14.082328,17.939500 L14.047733,17.934576 L13.902573,17.892402 L13.902567,17.892401 L13.865701,17.889500 L13.865694,17.889500 L12.084306,17.889500 L12.084298,17.889500 L12.047432,17.892401 L12.047426,17.892402 L11.889606,17.938254 L11.889603,17.938255 L11.748137,18.021917 L11.748129,18.021923 L11.631923,18.138129 L11.631917,18.138137 L11.548255,18.279603 L11.548254,18.279606 L11.502402,18.437426 L11.502401,18.437432 L11.499500,18.474298 L11.499500,18.905701 L11.502401,18.942567 L11.502402,18.942573 L11.548254,19.100393 L11.548255,19.100396 L11.631917,19.241862 L11.636702,19.248031 L11.634256,19.249927 L11.660857,19.298642 L11.655873,19.368334 L11.635069,19.400703 L11.636702,19.401969 L11.631917,19.408137 L11.548255,19.549603 L11.548254,19.549606 L11.502402,19.707426 L11.502401,19.707432 L11.499500,19.744298 L11.499500,20.175701 L11.502401,20.212567 L11.502402,20.212573 L11.548254,20.370393 L11.548255,20.370396 L11.631917,20.511862 L11.636702,20.518031 L11.634256,20.519927 L11.660857,20.568642 L11.655873,20.638334 L11.635069,20.670703 L11.636702,20.671969 L11.631917,20.678137 L11.548255,20.819603 L11.548254,20.819606 L11.502402,20.977426 L11.502401,20.977432 L11.499500,21.014298 L11.499500,21.445701 L11.502401,21.482567 L11.502402,21.482573 L11.548254,21.640393 L11.548255,21.640396 L11.548256,21.640398 L11.576559,21.688256 L11.631917,21.781862 L11.636702,21.788031 L11.634256,21.789927 L11.660857,21.838642 L11.655873,21.908334 L11.635069,21.940703 L11.636702,21.941969 L11.631917,21.948137 L11.548255,22.089603 L11.548254,22.089606 L11.502402,22.247426 L11.502401,22.247432 L11.499500,22.284298 L11.499500,22.715701 L11.502401,22.752567 L11.502402,22.752573 L11.548254,22.910393 L11.548255,22.910396 L11.631917,23.051862 L11.636702,23.058031 L11.634256,23.059927 L11.660857,23.108642 L11.655873,23.178334 L11.635069,23.210703 L11.636702,23.211969 L11.631917,23.218137 L11.548255,23.359603 L11.548254,23.359606 L11.502402,23.517426 L11.502401,23.517432 L11.499500,23.554298 L11.499500,23.985701 L11.502401,24.022567 L11.502402,24.022573 L11.548254,24.180393 L11.548255,24.180396 L11.631917,24.321862 L11.636702,24.328031 L11.634256,24.329927 L11.660857,24.378642 L11.655873,24.448334 L11.635069,24.480703 L11.636702,24.481969 L11.631917,24.488137 L11.548255,24.629603 L11.548254,24.629606 L11.502402,24.787426 L11.502401,24.787432 L11.499500,24.824298 L11.499500,25.255701 L11.502401,25.292567 L11.502402,25.292573 L11.548254,25.450393 L11.548255,25.450396 L11.631917,25.591862 L11.636702,25.598031 L11.634256,25.599927 L11.660857,25.648642 L11.655873,25.718334 L11.635069,25.750703 L11.636702,25.751969 L11.631917,25.758137 L11.548255,25.899603 L11.548254,25.899606 L11.502402,26.057426 L11.502401,26.057432 L11.499500,26.094298 L11.499500,26.525701 L9.500499,26.525701 L9.500500,26.525694 L9.500500,26.094306 L9.497598,26.057431 L9.451744,25.899602 L9.411382,25.831353 L9.368084,25.758139 L9.363301,25.751974 L9.365745,25.750077 L9.339142,25.701358 L9.344126,25.631666 L9.364932,25.599291 L9.363301,25.598026 L9.368077,25.591868 L9.368081,25.591865 L9.451744,25.450398 L9.497598,25.292569 L9.500500,25.255694 L9.500500,24.824306 L9.497598,24.787431 L9.451744,24.629602 L9.411382,24.561353 L9.368084,24.488139 L9.363301,24.481974 L9.365745,24.480077 L9.339142,24.431358 L9.344126,24.361666 L9.364932,24.329291 L9.363301,24.328026 L9.368077,24.321868 L9.368081,24.321865 L9.451744,24.180398 L9.497598,24.022569 L9.500500,23.985694 L9.500500,23.554306 L9.497598,23.517431 L9.451744,23.359602 L9.411382,23.291353 L9.368084,23.218139 L9.363301,23.211974 L9.365745,23.210077 L9.339142,23.161358 L9.344126,23.091666 L9.364932,23.059291 L9.363301,23.058026 L9.368077,23.051868 L9.368081,23.051865 L9.451744,22.910398 L9.497598,22.752569 L9.500500,22.715694 L9.500500,22.284306 L9.497598,22.247431 L9.451744,22.089602 L9.411382,22.021353 L9.368084,21.948139 L9.363301,21.941974 L9.365745,21.940077 L9.339142,21.891358 L9.344126,21.821666 L9.364932,21.789291 L9.363301,21.788026 L9.368077,21.781868 L9.368081,21.781865 L9.451744,21.640398 L9.497598,21.482569 L9.500500,21.445694 L9.500500,21.014306 L9.497598,20.977431 L9.494795,20.967784 L9.453926,20.827112 L9.451744,20.819602 L9.390385,20.715849 L9.368084,20.678139 L9.363301,20.671974 L9.365745,20.670077 L9.339142,20.621358 L9.344126,20.551666 L9.364932,20.519291 L9.363301,20.518026 L9.368077,20.511868 L9.368081,20.511865 L9.451744,20.370398 L9.497598,20.212569 L9.500500,20.175694 L9.500500,19.744306 L9.497598,19.707431 L9.451744,19.549602 L9.398863,19.460185 L9.368084,19.408139 L9.363301,19.401974 L9.365745,19.400077 L9.339142,19.351358 L9.344126,19.281666 L9.364932,19.249291 L9.363301,19.248026 L9.368077,19.241868 L9.368081,19.241865 L9.451744,19.100398 L9.497598,18.942569 L9.500500,18.905694 L9.500500,18.474306 L9.497598,18.437431 L9.451744,18.279602 L9.368081,18.138135 L9.368079,18.138133 L9.368076,18.138129 L9.251870,18.021923 L9.251862,18.021917 L9.142754,17.957391 L9.110398,17.938256 L9.110397,17.938255 L9.110396,17.938255 L9.110393,17.938254 L8.952573,17.892402 L8.952567,17.892401 L8.915701,17.889500 L8.915694,17.889500 L7.134306,17.889500 L7.134298,17.889500 L7.097432,17.892401 L7.097426,17.892402 L6.939606,17.938254 L6.939603,17.938255 L6.798137,18.021917 L6.798129,18.021923 L6.681923,18.138129 L6.681917,18.138137 L6.598255,18.279603 L6.598254,18.279606 L6.552402,18.437426 L6.552401,18.437432 L6.549500,18.474298 L6.549500,18.905701 L6.552401,18.942567 L6.552402,18.942573 L6.598254,19.100393 L6.598255,19.100396 L6.681917,19.241862 L6.686702,19.248031 L6.684256,19.249927 L6.710857,19.298642 L6.705873,19.368334 L6.685069,19.400703 L6.686702,19.401969 L6.681917,19.408137 L6.598255,19.549603 L6.598254,19.549606 L6.552402,19.707426 L6.552401,19.707432 L6.549500,19.744298 L6.549500,20.175701 L6.552401,20.212567 L6.552402,20.212573 L6.598254,20.370393 L6.598255,20.370396 L6.681917,20.511862 L6.686702,20.518031 L6.684256,20.519927 L6.710857,20.568642 L6.705873,20.638334 L6.685069,20.670703 L6.686702,20.671969 L6.681917,20.678137 L6.598255,20.819603 L6.598254,20.819606 L6.552402,20.977426 L6.552401,20.977432 L6.549500,21.014298 L6.549500,21.445701 L6.552401,21.482567 L6.552402,21.482573 L6.598254,21.640393 L6.598255,21.640396 L6.598256,21.640398 L6.626559,21.688256 L6.681917,21.781862 L6.686702,21.788031 L6.684256,21.789927 L6.710857,21.838642 L6.705873,21.908334 L6.685069,21.940703 L6.686702,21.941969 L6.681917,21.948137 L6.598255,22.089603 L6.598254,22.089606 L6.552402,22.247426 L6.552401,22.247432 L6.549500,22.284298 L6.549500,22.715701 L6.552401,22.752567 L6.552402,22.752573 L6.598254,22.910393 L6.598255,22.910396 L6.681917,23.051862 L6.686702,23.058031 L6.684256,23.059927 L6.710857,23.108642 L6.705873,23.178334 L6.685069,23.210703 L6.686702,23.211969 L6.681917,23.218137 L6.598255,23.359603 L6.598254,23.359606 L6.552402,23.517426 L6.552401,23.517432 L6.549500,23.554298 L6.549500,23.985701 L6.552401,24.022567 L6.552402,24.022573 L6.598254,24.180393 L6.598255,24.180396 L6.681917,24.321862 L6.686702,24.328031 L6.684256,24.329927 L6.710857,24.378642 L6.705873,24.448334 L6.685069,24.480703 L6.686702,24.481969 L6.681917,24.488137 L6.598255,24.629603 L6.598254,24.629606 L6.552402,24.787426 L6.552401,24.787432 L6.549500,24.824298 L6.549500,25.255701 L6.552401,25.292567 L6.552402,25.292573 L6.598254,25.450393 L6.598255,25.450396 L6.681917,25.591862 L6.686702,25.598031 L6.684256,25.599927 L6.710857,25.648642 L6.705873,25.718334 L6.685069,25.750703 L6.686702,25.751969 L6.681917,25.758137 L6.598255,25.899603 L6.598254,25.899606 L6.552402,26.057426 L6.552401,26.057432 L6.549500,26.094298 L6.549500,26.525701 L0.500000,26.525701 L0.500000,14.205937 L0.519685,14.138898 L0.572489,14.093143 L0.641647,14.083199 L0.705203,14.112224 L0.718086,14.125167 L0.807132,14.228893 L0.807134,14.228895 L0.968037,14.353445 L0.968038,14.353445 L0.968042,14.353448 L1.150729,14.443060 L1.347715,14.494063 L1.550936,14.504369 L1.752071,14.473556 L1.942887,14.402886 L2.115571,14.295252 L2.263053,14.155059 L2.379295,13.988049 L2.459540,13.801058 L2.500500,13.601741 L2.500500,9.624500 L2.520185,9.557461 L2.572989,9.511706 L2.624500,9.500500 L5.375500,9.500500 L5.442539,9.520185 L5.488294,9.572989 L5.499500,9.624500 L5.499500,13.550743 L5.514925,13.702439 L5.575837,13.896579 L5.575844,13.896594 L5.674589,14.074499 L5.674592,14.074504 L5.807132,14.228893 L5.807134,14.228895 L5.968037,14.353445 L5.968038,14.353445 L5.968042,14.353448 L6.150729,14.443060 L6.347715,14.494063 L6.550936,14.504369 L6.752071,14.473556 L6.942887,14.402886 L7.115571,14.295252 L7.263053,14.155059 L7.379295,13.988049 L7.459540,13.801058 L7.500500,13.601741 L7.500500,13.550942 L8.495631,13.550942 L8.506957,13.624877 L8.507354,13.627991 L8.514925,13.702437 L8.514926,13.702440 L8.519749,13.717814 L8.524003,13.736147 L8.526442,13.752064 L8.526443,13.752068 L8.552427,13.822232 L8.553441,13.825198 L8.575841,13.896588 L8.575842,13.896589 L8.575843,13.896592 L8.583657,13.910670 L8.591517,13.927777 L8.597111,13.942881 L8.597114,13.942887 L8.636694,14.006390 L8.638288,14.009096 L8.674589,14.074499 L8.674592,14.074503 L8.674593,14.074504 L8.685078,14.086718 L8.696222,14.101894 L8.704745,14.115567 L8.704745,14.115568 L8.704748,14.115571 L8.756315,14.169819 L8.758392,14.172118 L8.776203,14.192865 L8.807132,14.228894 L8.807133,14.228895 L8.819869,14.238753 L8.833844,14.251379 L8.844940,14.263052 L8.906340,14.305789 L8.908873,14.307648 L8.930502,14.324390 L8.968042,14.353448 L8.982515,14.360547 L8.998726,14.370090 L9.011951,14.379295 L9.066924,14.402886 L9.080696,14.408796 L9.083547,14.410105 L9.096267,14.416345 L9.150724,14.443058 L9.150726,14.443058 L9.150729,14.443060 L9.166316,14.447095 L9.184128,14.453182 L9.198942,14.459540 L9.272265,14.474607 L9.275260,14.475302 L9.347711,14.494062 L9.347715,14.494063 L9.363807,14.494879 L9.382480,14.497257 L9.391413,14.499093 L9.398258,14.500500 L9.398259,14.500500 L9.473071,14.500500 L9.476211,14.500580 L9.502842,14.501930 L9.550936,14.504369 L9.566856,14.501930 L9.585633,14.500500 L13.550743,14.500500 L13.702439,14.485074 L13.896579,14.424162 L13.896580,14.424161 L13.896588,14.424159 L14.074502,14.325409 L14.228895,14.192866 L14.353448,14.031958 L14.443060,13.849271 L14.494063,13.652285 L14.499202,13.550942 L15.495631,13.550942 L15.506957,13.624877 L15.507354,13.627991 L15.514925,13.702437 L15.514926,13.702440 L15.519749,13.717814 L15.524003,13.736147 L15.526442,13.752064 L15.526443,13.752068 L15.552427,13.822232 L15.553441,13.825198 L15.575841,13.896588 L15.575842,13.896589 L15.575843,13.896592 L15.583657,13.910670 L15.591517,13.927777 L15.597111,13.942881 L15.597114,13.942887 L15.636694,14.006390 L15.638288,14.009096 L15.674589,14.074499 L15.674592,14.074503 L15.674593,14.074504 L15.685078,14.086718 L15.696222,14.101894 L15.704745,14.115567 L15.704745,14.115568 L15.704748,14.115571 L15.756315,14.169819 L15.758392,14.172118 L15.776203,14.192865 L15.807132,14.228894 L15.807133,14.228895 L15.819869,14.238753 L15.833844,14.251379 L15.844940,14.263052 L15.906340,14.305789 L15.908873,14.307648 L15.930502,14.324390 L15.968042,14.353448 L15.982515,14.360547 L15.998726,14.370090 L16.011951,14.379295 L16.066924,14.402886 L16.080696,14.408796 L16.083547,14.410105 L16.096267,14.416345 L16.150724,14.443058 L16.150726,14.443058 L16.150729,14.443060 L16.166316,14.447095 L16.184128,14.453182 L16.198942,14.459540 L16.272265,14.474607 L16.275260,14.475302 L16.347711,14.494062 L16.347715,14.494063 L16.363807,14.494879 L16.382480,14.497257 L16.391413,14.499093 L16.398258,14.500500 L16.398259,14.500500 L16.473071,14.500500 L16.476211,14.500580 L16.502842,14.501930 L16.550936,14.504369 L16.566856,14.501930 L16.585633,14.500500 L20.550743,14.500500 L20.702439,14.485074 L20.896579,14.424162 L20.896580,14.424161 L20.896588,14.424159 L21.074502,14.325409 L21.228895,14.192866 L21.353448,14.031958 L21.443060,13.849271 L21.494063,13.652285 L21.499202,13.550942 L22.495631,13.550942 L22.506957,13.624877 L22.507354,13.627991 L22.514925,13.702437 L22.514926,13.702440 L22.519749,13.717814 L22.524003,13.736147 L22.526442,13.752064 L22.526443,13.752068 L22.552427,13.822232 L22.553441,13.825198 L22.575841,13.896588 L22.575842,13.896589 L22.575843,13.896592 L22.583657,13.910670 L22.591517,13.927777 L22.597111,13.942881 L22.597114,13.942887 L22.636694,14.006390 L22.638288,14.009096 L22.674589,14.074499 L22.674592,14.074503 L22.674593,14.074504 L22.685078,14.086718 L22.696222,14.101894 L22.704745,14.115567 L22.704745,14.115568 L22.704748,14.115571 L22.756315,14.169819 L22.758392,14.172118 L22.776203,14.192865 L22.807132,14.228894 L22.807133,14.228895 L22.819869,14.238753 L22.833844,14.251379 L22.844940,14.263052 L22.906340,14.305789 L22.908873,14.307648 L22.930502,14.324390 L22.968042,14.353448 L22.982515,14.360547 L22.998726,14.370090 L23.011951,14.379295 L23.066924,14.402886 L23.080696,14.408796 L23.083547,14.410105 L23.096267,14.416345 L23.150724,14.443058 L23.150726,14.443058 L23.150729,14.443060 L23.166316,14.447095 L23.184128,14.453182 L23.198942,14.459540 L23.272265,14.474607 L23.275260,14.475302 L23.347711,14.494062 L23.347715,14.494063 L23.363807,14.494879 L23.382480,14.497257 L23.391413,14.499093 L23.398258,14.500500 L23.398259,14.500500 L23.473071,14.500500 L23.476211,14.500580 L23.502842,14.501930 L23.550936,14.504369 L23.566856,14.501930 L23.585633,14.500500 L27.550743,14.500500 L27.702439,14.485074 L27.896579,14.424162 L27.896580,14.424161 L27.896588,14.424159 L28.074502,14.325409 L28.228895,14.192866 L28.353448,14.031958 L28.443060,13.849271 L28.494063,13.652285 L28.499202,13.550942 L29.495631,13.550942 L29.506957,13.624877 L29.507354,13.627991 L29.514925,13.702437 L29.514926,13.702440 L29.519749,13.717814 L29.524003,13.736147 L29.526442,13.752064 L29.526443,13.752068 L29.552427,13.822232 L29.553441,13.825198 L29.575841,13.896588 L29.575842,13.896589 L29.575843,13.896592 L29.583657,13.910670 L29.591517,13.927777 L29.597111,13.942881 L29.597114,13.942887 L29.636694,14.006390 L29.638288,14.009096 L29.674589,14.074499 L29.674592,14.074503 L29.674593,14.074504 L29.685078,14.086718 L29.696222,14.101894 L29.704745,14.115567 L29.704745,14.115568 L29.704748,14.115571 L29.756315,14.169819 L29.758392,14.172118 L29.776203,14.192865 L29.807132,14.228894 L29.807133,14.228895 L29.819869,14.238753 L29.833844,14.251379 L29.844940,14.263052 L29.906340,14.305789 L29.908873,14.307648 L29.930502,14.324390 L29.968042,14.353448 L29.982515,14.360547 L29.998726,14.370090 L30.011951,14.379295 L30.066924,14.402886 L30.080696,14.408796 L30.083547,14.410105 L30.096267,14.416345 L30.150724,14.443058 L30.150726,14.443058 L30.150729,14.443060 L30.166316,14.447095 L30.184128,14.453182 L30.198942,14.459540 L30.272265,14.474607 L30.275260,14.475302 L30.347711,14.494062 L30.347715,14.494063 L30.363807,14.494879 L30.382480,14.497257 L30.391413,14.499093 L30.398258,14.500500 L30.398259,14.500500 L30.473071,14.500500 L30.476211,14.500580 L30.502842,14.501930 L30.550936,14.504369 L30.566856,14.501930 L30.585633,14.500500 L34.473071,14.500500 L34.476211,14.500580 L34.502842,14.501930 L34.550936,14.504369 L34.624895,14.493038 L34.627992,14.492643 L34.702438,14.485074 L34.717811,14.480250 L34.736149,14.475995 L34.740620,14.475310 L34.752071,14.473556 L34.822266,14.447558 L34.825150,14.446572 L34.896588,14.424159 L34.910670,14.416341 L34.927782,14.408479 L34.942887,14.402886 L35.006421,14.363283 L35.009041,14.361741 L35.074502,14.325409 L35.086724,14.314915 L35.101898,14.303773 L35.115571,14.295252 L35.169835,14.243668 L35.172098,14.241624 L35.228895,14.192866 L35.238750,14.180133 L35.251374,14.166161 L35.255810,14.161942 L35.263053,14.155059 L35.305817,14.093616 L35.307600,14.091186 L35.353448,14.031958 L35.360549,14.017479 L35.370092,14.001269 L35.379295,13.988049 L35.408822,13.919241 L35.410085,13.916493 L35.443060,13.849271 L35.447098,13.833672 L35.453191,13.815851 L35.459538,13.801062 L35.459540,13.801058 L35.474607,13.727730 L35.475299,13.724749 L35.494063,13.652285 L35.494879,13.636193 L35.497258,13.617516 L35.500500,13.601742 L35.500500,13.526928 L35.500580,13.523788 L35.502992,13.476210 L35.504369,13.449064 L35.501930,13.433142 L35.500500,13.414366 L35.500500,3.526928 L35.500580,3.523788 L35.502992,3.476210 L35.504369,3.449064 L35.493039,3.375113 L35.492643,3.371999 L35.485074,3.297563 L35.485072,3.297556 L35.480251,3.282189 L35.475994,3.263849 L35.473556,3.247929 L35.447553,3.177720 L35.446565,3.174825 L35.424159,3.103412 L35.416339,3.089324 L35.408482,3.072225 L35.402886,3.057113 L35.363296,2.993597 L35.361725,2.990929 L35.325409,2.925498 L35.314921,2.913281 L35.303773,2.898100 L35.303489,2.897645 L35.295252,2.884429 L35.243701,2.830197 L35.241600,2.827872 L35.192873,2.771112 L35.192868,2.771108 L35.192866,2.771105 L35.180126,2.761243 L35.166155,2.748620 L35.155063,2.736950 L35.093647,2.694202 L35.091116,2.692343 L35.031961,2.646553 L35.031957,2.646551 L35.017496,2.639458 L35.001270,2.629906 L34.988051,2.620706 L34.988049,2.620705 L34.919286,2.591196 L34.916468,2.589901 L34.849271,2.556940 L34.849269,2.556939 L34.833680,2.552903 L34.815864,2.546813 L34.801061,2.540461 L34.801059,2.540460 L34.801058,2.540460 L34.727765,2.525398 L34.724716,2.524690 L34.652281,2.505936 L34.636189,2.505119 L34.617523,2.502742 L34.601743,2.499500 L34.601741,2.499500 L34.526929,2.499500 L34.523789,2.499420 L34.449064,2.495631 L34.449060,2.495631 L34.433143,2.498070 L34.414367,2.499500 L30.526929,2.499500 L30.523789,2.499420 L30.449065,2.495631 L30.449058,2.495631 L30.375124,2.506957 L30.372010,2.507354 L30.297566,2.514925 L30.297557,2.514927 L30.282187,2.519749 L30.263858,2.524003 L30.247929,2.526444 L30.247926,2.526445 L30.177773,2.552425 L30.174802,2.553441 L30.103412,2.575840 L30.089322,2.583661 L30.072220,2.591518 L30.057118,2.597111 L30.057108,2.597116 L29.993626,2.636685 L29.990919,2.638278 L29.925506,2.674585 L29.925499,2.674590 L29.913278,2.685081 L29.898114,2.696216 L29.884430,2.704746 L29.884427,2.704749 L29.830200,2.756295 L29.827870,2.758400 L29.771108,2.807129 L29.771102,2.807136 L29.761243,2.819872 L29.748631,2.833832 L29.736949,2.844938 L29.736948,2.844939 L29.694215,2.906335 L29.692356,2.908865 L29.646550,2.968043 L29.639452,2.982513 L29.629907,2.998728 L29.620706,3.011948 L29.620705,3.011949 L29.591199,3.080704 L29.589888,3.083556 L29.556939,3.150729 L29.556938,3.150733 L29.552901,3.166324 L29.546815,3.184129 L29.540461,3.198937 L29.525399,3.272225 L29.524689,3.275285 L29.505936,3.347716 L29.505119,3.363811 L29.502743,3.382474 L29.499499,3.398261 L29.499499,3.473071 L29.499419,3.476210 L29.495631,3.550934 L29.495631,3.550936 L29.498070,3.566856 L29.499500,3.585633 L29.499500,8.398259 L29.499499,13.473071 L29.499419,13.476211 L29.495631,13.550933 L29.495631,13.550942 L28.499202,13.550942 L28.504369,13.449064 L28.473556,13.247929 L28.402886,13.057113 L28.295252,12.884429 L28.155059,12.736947 L28.056587,12.668409 L27.988050,12.620705 L27.801056,12.540459 L27.601741,12.499500 L24.624500,12.499500 L24.557461,12.479815 L24.511706,12.427011 L24.500500,12.375500 L24.500500,3.449256 L24.485074,3.297560 L24.424162,3.103420 L24.424160,3.103416 L24.424159,3.103412 L24.325409,2.925498 L24.325408,2.925497 L24.325407,2.925495 L24.192867,2.771106 L24.192865,2.771104 L24.031962,2.646554 L24.031959,2.646553 L24.031958,2.646552 L23.849271,2.556940 L23.652285,2.505937 L23.652287,2.505937 L23.497158,2.498070 L23.449064,2.495631 L23.449063,2.495631 L23.449061,2.495631 L23.247936,2.526442 L23.247924,2.526445 L23.057118,2.597111 L23.057111,2.597115 L22.884432,2.704745 L22.884427,2.704749 L22.736949,2.844938 L22.736947,2.844940 L22.736947,2.844941 L22.725774,2.860994 L22.620705,3.011949 L22.540459,3.198943 L22.499500,3.398258 L22.499500,13.473070 L22.499420,13.476210 L22.495631,13.550935 L22.495631,13.550942 L21.499202,13.550942 L21.504369,13.449064 L21.473556,13.247929 L21.402886,13.057113 L21.295252,12.884429 L21.155059,12.736947 L21.056587,12.668409 L20.988050,12.620705 L20.801056,12.540459 L20.601741,12.499500 L17.624500,12.499500 L17.557461,12.479815 L17.511706,12.427011 L17.500500,12.375500 L17.500500,3.449256 L17.485074,3.297560 L17.424162,3.103420 L17.424160,3.103416 L17.424159,3.103412 L17.325409,2.925498 L17.325408,2.925497 L17.325407,2.925495 L17.192867,2.771106 L17.192865,2.771104 L17.031962,2.646554 L17.031959,2.646553 L17.031958,2.646552 L16.849271,2.556940 L16.652285,2.505937 L16.652287,2.505937 L16.497158,2.498070 L16.449064,2.495631 L16.449063,2.495631 L16.449061,2.495631 L16.247936,2.526442 L16.247924,2.526445 L16.057118,2.597111 L16.057111,2.597115 L15.884432,2.704745 L15.884427,2.704749 L15.736949,2.844938 L15.736947,2.844940 L15.736947,2.844941 L15.725774,2.860994 L15.620705,3.011949 L15.540459,3.198943 L15.499500,3.398258 L15.499500,13.473070 L15.499420,13.476210 L15.495631,13.550935 L15.495631,13.550942 L14.499202,13.550942 L14.504369,13.449064 L14.473556,13.247929 L14.402886,13.057113 L14.295252,12.884429 L14.155059,12.736947 L14.056587,12.668409 L13.988050,12.620705 L13.801056,12.540459 L13.601741,12.499500 L10.624500,12.499500 L10.557461,12.479815 L10.511706,12.427011 L10.500500,12.375500 L10.500500,9.624500 L10.520185,9.557461 L10.572989,9.511706 L10.624500,9.500500 L11.550743,9.500500 L11.702439,9.485074 L11.896579,9.424162 L11.896580,9.424161 L11.896588,9.424159 L12.074502,9.325409 L12.228895,9.192866 L12.353448,9.031958 L12.443060,8.849271 L12.494063,8.652285 L12.504369,8.449064 L12.473556,8.247929 L12.402886,8.057113 L12.295252,7.884429 L12.155059,7.736947 L12.056587,7.668409 L11.988050,7.620705 L11.801056,7.540459 L11.601741,7.499500 L10.624500,7.499500 L10.557461,7.479815 L10.511706,7.427011 L10.500500,7.375500 L10.500500,4.624500 L10.520185,4.557461 L10.572989,4.511706 L10.624500,4.500500 L13.550743,4.500500 L13.702439,4.485074 L13.896579,4.424162 L13.896580,4.424161 L13.896588,4.424159 L14.074502,4.325409 L14.228895,4.192866 L14.353448,4.031958 L14.443060,3.849271 L14.494063,3.652285 L14.504369,3.449064 L14.473556,3.247929 L14.411623,3.080704 L14.402888,3.057118 L14.402887,3.057117 L14.402886,3.057113 L14.295252,2.884429 L14.205638,2.790156 L14.155061,2.736949 L14.155060,2.736948 L14.155059,2.736947 L14.056587,2.668409 L13.988050,2.620705 L13.801056,2.540459 L13.601741,2.499500 L9.526929,2.499500 L9.523789,2.499420 L9.449065,2.495631 L9.449058,2.495631 L9.375124,2.506957 L9.372010,2.507354 L9.297566,2.514925 L9.297557,2.514927 L9.282187,2.519749 L9.263858,2.524003 L9.247929,2.526444 L9.247926,2.526445 L9.177773,2.552425 L9.174802,2.553441 L9.103412,2.575840 L9.089322,2.583661 L9.072220,2.591518 L9.057118,2.597111 L9.057108,2.597116 L8.993626,2.636685 L8.990919,2.638278 L8.925506,2.674585 L8.925499,2.674590 L8.913278,2.685081 L8.898114,2.696216 L8.884430,2.704746 L8.884427,2.704749 L8.830200,2.756295 L8.827870,2.758400 L8.771108,2.807129 L8.771102,2.807136 L8.761243,2.819872 L8.748631,2.833832 L8.736949,2.844938 L8.736948,2.844939 L8.694215,2.906335 L8.692356,2.908865 L8.646550,2.968043 L8.639452,2.982513 L8.629907,2.998728 L8.620706,3.011948 L8.620705,3.011949 L8.591199,3.080704 L8.589888,3.083556 L8.556939,3.150729 L8.556938,3.150733 L8.552901,3.166324 L8.546815,3.184129 L8.540461,3.198937 L8.525399,3.272225 L8.524689,3.275285 L8.505936,3.347716 L8.505119,3.363811 L8.502743,3.382474 L8.499500,3.398260 L8.499500,3.473070 L8.499420,3.476210 L8.495631,3.550935 L8.495631,3.550939 L8.498070,3.566857 L8.499500,3.585633 L8.499500,8.473070 L8.499420,8.476210 L8.495631,8.550935 L8.495631,8.550936 L8.498070,8.566857 L8.499500,8.585633 L8.499500,13.473070 L8.499420,13.476210 L8.495631,13.550935 L8.495631,13.550942 L7.500500,13.550942 L7.500500,8.526928 L7.500580,8.523788 L7.502992,8.476210 L7.504369,8.449064 L7.501930,8.433142 L7.500500,8.414366 L7.500500,3.449256 L7.485074,3.297560 L7.424162,3.103420 L7.424160,3.103416 L7.424159,3.103412 L7.325409,2.925498 L7.325408,2.925497 L7.325407,2.925495 L7.192867,2.771106 L7.192865,2.771104 L7.031962,2.646554 L7.031959,2.646553 L7.031958,2.646552 L6.849271,2.556940 L6.652285,2.505937 L6.652287,2.505937 L6.497158,2.498070 L6.449064,2.495631 L6.449063,2.495631 L6.449061,2.495631 L6.247936,2.526442 L6.247924,2.526445 L6.057118,2.597111 L6.057111,2.597115 L5.884432,2.704745 L5.884427,2.704749 L5.736949,2.844938 L5.736947,2.844940 L5.736947,2.844941 L5.725774,2.860994 L5.620705,3.011949 L5.540459,3.198943 L5.499499,3.398258 L5.499500,7.375500 L5.479815,7.442539 L5.427011,7.488294 L5.375500,7.499500 L2.624500,7.499500 L2.557461,7.479815 L2.511706,7.427011 L2.500500,7.375500 L2.500500,3.449256 L2.485074,3.297560 L2.424162,3.103420 L2.424160,3.103416 L2.424159,3.103412 L2.325409,2.925498 L2.325408,2.925497 L2.325407,2.925495 L2.192867,2.771106 L2.192865,2.771104 L2.031962,2.646554 L2.031959,2.646553 L2.031958,2.646552 L1.849271,2.556940 L1.652285,2.505937 L1.652287,2.505937 L1.497158,2.498070 L1.449064,2.495631 L1.449063,2.495631 L1.449061,2.495631 L1.247936,2.526442 L1.247924,2.526445 L1.057118,2.597111 L1.057111,2.597115 L0.884432,2.704745 L0.884427,2.704749 L0.736949,2.844938 L0.736946,2.844942 L0.725774,2.860994 L0.671320,2.904772 L0.601842,2.912160 L0.539399,2.880813 L0.503816,2.820682 L0.500000,2.790156 L0.500000,0.624000 L0.519685,0.556961 L0.572489,0.511206 L0.624000,0.500000 L37.376000,0.500000 L37.443039,0.519685 Z" fill="#155c82ff" />
<path d="M33.442539,4.520185 L33.488294,4.572989 L33.499500,4.624500 L33.499500,12.375500 L33.479815,12.442539 L33.427011,12.488294 L33.375500,12.499500 L31.624500,12.499500 L31.557461,12.479815 L31.511706,12.427011 L31.500500,12.375500 L31.500500,4.624500 L31.520185,4.557461 L31.572989,4.511706 L31.624500,4.500500 L33.375500,4.500500 L33.442539,4.520185 Z" fill="#155c82ff" />
</g>
</svg>